<?xml version="1.0" standalone="no"?>
<!DOCTYPE svg PUBLIC "-//W3C//DTD SVG 1.1//EN" "http://www.w3.org/Graphics/SVG/1.1/DTD/svg11.dtd" >
<svg xmlns="http://www.w3.org/2000/svg" xmlns:xlink="http://www.w3.org/1999/xlink" version="1.1">
<metadata>
Created by FontForge 20190413 at Sat May 25 22:46:49 2019
 By Sarabveer
Copyright (C) 2015-2019 GurbaniNow Dev Team (https://gurbaninow.com); Copyright (C) 1991-1992 Summit Information Technologies Pvt Ltd.
</metadata>
<defs>
<font id="OpenSatluj-Bold" horiz-adv-x="10" >
  <font-face 
    font-family="OpenSatluj"
    font-weight="700"
    font-stretch="normal"
    units-per-em="1000"
    panose-1="0 0 8 0 0 0 0 0 0 0"
    ascent="800"
    descent="-200"
    x-height="599"
    cap-height="835"
    bbox="-549 -427.513 2167 1285"
    underline-thickness="20"
    underline-position="-143"
    unicode-range="U+0020-E010"
  />
<missing-glyph horiz-adv-x="500" 
d="M63 0v706h375v-706h-375zM125 63h250v581h-250v-581z" />
    <glyph glyph-name=".notdef" horiz-adv-x="500" 
d="M63 0v706h375v-706h-375zM125 63h250v581h-250v-581z" />
    <glyph glyph-name="space" unicode=" " horiz-adv-x="300" 
 />
    <glyph glyph-name="exclam" unicode="!" horiz-adv-x="480" 
d="M476 55l-76 -76l-75 75l76 76zM325 837h151l-54 -636h-43z" />
    <glyph glyph-name="numbersign" unicode="#" horiz-adv-x="684" 
d="M300 613l-24 -120h163l23 120h83l-23 -120h106v-82h-120l-30 -177h106v-82h-118l-26 -143h-80l25 143h-171l-28 -143h-79l25 143h-104v82h124l30 177h-130v82h143l24 120h81zM234 234h162l30 177h-162z" />
    <glyph glyph-name="dollar" unicode="$" horiz-adv-x="508" 
d="M433 440h-25q-16 0 -41 36t-54 48v-187q144 -81 144 -195q0 -104 -144 -158v-44h-44v35q-4 -1 -16 -1h-22v-34h-44v36h-7q-26 0 -67 13t-64 31v112h38l8 -18q27 -52 92 -65v224q-130 75 -130 173q0 129 130 154v86h44v-80l38 -1v79h44v-89q9 0 53 -16t67 -29v-110z
M231 535v-150l38 -21v171q-6 1 -15.5 1t-22.5 -1zM147 478q0 -30 40 -64v110q-16 -5 -28 -20t-12 -26zM231 44h17t21 3v175l-38 23v-201zM313 192v-127q46 30 46 60.5t-46 66.5z" />
    <glyph glyph-name="percent" unicode="%" horiz-adv-x="524" 
d="M483 510l-357 -510h-60l357 510h60zM417 270q82 0 82 -122q0 -77 -37 -118q-28 -30 -61 -30t-54 23q-31 33 -31 105t31 107t70 35zM147 510q82 0 82 -122q0 -77 -37 -118q-28 -30 -61 -30t-54 23q-31 33 -31 105t31 107t70 35zM423 70q32 0 32 40t-18.5 65t-50.5 25
q-26 0 -26 -40q0 -90 63 -90zM153 310q32 0 32 40t-18.5 65t-50.5 25q-26 0 -26 -40q0 -90 63 -90z" />
    <glyph glyph-name="ampersand" unicode="&#x26;" horiz-adv-x="648" 
d="M677 599v-96h-130v-153h-238q-86 0 -86 -73q0 -19 8.5 -41t15.5 -28q96 64 159 64t102.5 -40.5t39.5 -97.5t-42.5 -95.5t-106.5 -38.5q-112 0 -194.5 91.5t-82.5 209.5q0 66 38 112t103 46h178v44h-445v96h681zM21 140q21 20 49 22h2q28 0 48 -20t20 -48t-20 -49t-48 -21
t-49 20t-21 48t19 48zM299 138q4 -9 40 -27.5t56.5 -18.5t37 14.5t16.5 29.5q0 43 -55 43q-18 0 -50.5 -15.5t-44.5 -25.5z" />
    <glyph glyph-name="parenleft" unicode="(" horiz-adv-x="350" 
d="M134 689h55q-101 -201 -101 -389t93 -408l-52 1q-131 211 -131 422q0 179 136 374z" />
    <glyph glyph-name="parenright" unicode=")" horiz-adv-x="350" 
d="M350 300q0 -144 -61 -292q-43 -105 -70 -130l-50 1q4 1 28 67q63 181 63 354t-101 374h55q136 -195 136 -374z" />
    <glyph glyph-name="asterisk" unicode="*" horiz-adv-x="385" 
d="M155 368l21 148l-98 -109l-71 97l142 54l-146 38l61 106l110 -102l-29 149h105l-24 -153l106 107l55 -91l-142 -54l141 -53l-56 -91l-108 104l31 -150h-98z" />
    <glyph glyph-name="plus" unicode="+" horiz-adv-x="498" 
d="M438 231h-162v-168h-60v168h-162v60h162v168h60v-168h162v-60z" />
    <glyph glyph-name="comma" unicode="," horiz-adv-x="293" 
d="M234 64v-49q0 -38 -14.5 -68t-42 -30t-42.5 12q33 47 33 115q0 18 -8 31l-44 44l81 81l86 -87z" />
    <glyph glyph-name="hyphen" unicode="-" horiz-adv-x="356" 
d="M316 333v-80h-267v80h267z" />
    <glyph glyph-name="hyphen" unicode="&#x2010;" horiz-adv-x="356" 
d="M316 333v-80h-267v80h267z" />
    <glyph glyph-name="period" unicode="." horiz-adv-x="300" 
d="M213 166l86 -86l-81 -81l-86 86z" />
    <glyph glyph-name="slash" unicode="/" horiz-adv-x="550" 
d="M420 642h88l-379 -740h-88z" />
    <glyph glyph-name="zero" unicode="0" horiz-adv-x="600" 
d="M306 530q97 0 165.5 -68.5t68.5 -165.5t-68.5 -165.5t-165.5 -68.5t-165.5 68.5t-68.5 165.5t68.5 165.5t165.5 68.5zM211 391.5q-40 -39.5 -40 -95t40 -95.5t95.5 -40t95 40t39.5 95.5t-39.5 95t-95 39.5t-95.5 -39.5z" />
    <glyph glyph-name="one" unicode="1" horiz-adv-x="600" 
d="M495 410q0 -45 -11.5 -131t-11.5 -135t18 -69q5 -5 28 -17t23 -33t-16 -27q-15 -6 -45 -6h-6q-34 0 -68 45.5t-34 121.5t18 148q-62 -32 -105 -32q-83 0 -150 45t-67 118t60 117q59 44 144 44q1 -1 2 -1q86 0 153.5 -52t67.5 -136zM400 430q-27 76 -122 76q-42 0 -76 -20
t-34 -52t38 -50q32 -16 72 -16t74 18t48 44z" />
    <glyph glyph-name="two" unicode="2" horiz-adv-x="600" 
d="M185.5 475q-45.5 -23 -65 -23t-36.5 10.5t-17 28.5q0 56 97 85q64 18 124 18q89 0 166 -55q88 -63 88 -156t-70 -152q-50 -42 -89 -45q29 -10 87.5 -68t85.5 -120l-122 1q-111 173 -148 173q-18 0 -51 -12.5t-52 -12.5q-114 0 -114 66q0 34 27.5 52.5t65 18.5t75.5 -17.5
t69 -17.5q54 0 85.5 40t31.5 92.5t-29.5 84.5t-96 32t-112 -23z" />
    <glyph glyph-name="three" unicode="3" horiz-adv-x="600" 
d="M195 417l146 -11q99 0 99 45q0 33 -36 45.5t-117 12.5t-195 -16l-29 79q17 8 69.5 19.5t113.5 11.5q126 0 193 -24q97 -36 97 -126q0 -45 -15 -66.5t-48 -39.5q65 -36 65 -101.5t-53.5 -105t-143.5 -44.5q88 -24 121 -24q75 0 75 -32q0 -14 -22 -24t-62 -10
q-109 0 -213 69q-182 22 -182 81q0 48 82 48q38 0 78 -11.5t91 -11.5q126 0 126 59q0 41 -39.5 64t-89.5 23q-23 0 -55.5 -5.5t-72.5 -5.5t-64 6q-42 11 -42 44.5t42 44.5q23 6 81 6z" />
    <glyph glyph-name="four" unicode="4" horiz-adv-x="600" 
d="M159 432q0 -48 59 -76q42 -20 82 -20t86 20q62 28 62 76q0 36 -36 56t-70 21v88q204 0 204 -165q0 -54 -30 -90t-64 -50q44 -10 68 -47t24 -85q0 -82 -76 -124q-64 -36 -168 -36t-167 38q-71 42 -71 122q0 65 40 103q24 24 51 29q-29 11 -61 48t-32 92q0 165 204 165v-88
q-41 0 -73 -21t-32 -56zM170 160q0 -28 32 -48q31 -20 92 -20h3q63 0 101.5 18.5t38.5 50.5q0 90 -133 90q-134 0 -134 -91z" />
    <glyph glyph-name="five" unicode="5" horiz-adv-x="600" 
d="M425 156q-54 -18 -95 -18q-143 0 -283 152q73 75 73 130t-70 127l88 65q90 -102 90 -192q0 -69 -43 -120q66 -60 147 -60q48 0 93 21v338h105v-600h-105v157z" />
    <glyph glyph-name="six" unicode="6" horiz-adv-x="600" 
d="M381 590q0 -55 18 -63q67 -7 90 -13q51 -16 51 -53q0 -59 -66 -59q-40 0 -89.5 19t-69.5 19q-135 0 -135 -63q0 -72 102 -72q23 0 67 9t77 9t69 -17.5t36 -48.5t-41 -46q-31 -11 -64 -11t-73 12t-65 12q-120 0 -120 -66q0 -40 66 -58q43 -11 104.5 -11t174.5 36l18 -84
q-130 -39 -220.5 -39t-161.5 33q-89 41 -89 123q0 59 32 92q19 12 37 25q-66 47 -66 118.5t86 107.5q61 26 140 26h17q-30 31 -30 81q0 109 204 135l42 -87q-141 0 -141 -66z" />
    <glyph glyph-name="seven" unicode="7" horiz-adv-x="600" 
d="M352 600q84 0 136 -64t52 -167q0 -365 -481 -365v98q141 0 235 39q151 63 151 218q0 75 -18 105q-22 39 -85 39q-84 0 -84 -140q0 -14 1 -29h-99v8q0 73 17 125q43 133 175 133z" />
    <glyph glyph-name="eight" unicode="8" horiz-adv-x="600" 
d="M533 108v-94h-135q-109 0 -173 46q-80 57 -80 178v160h-70q-30 24 -30 70t39 88.5t83 42.5h75v-96h292v-104h-292v-135q0 -156 158 -156h133z" />
    <glyph glyph-name="nine" unicode="9" horiz-adv-x="600" 
d="M252 357v-178q0 -47 54 -87t129 -41h96v-87h-104q-124 0 -203 80q-68 68 -68 148v159h-58q-42 32 -42 83t35.5 87.5t84.5 36.5h76v-105h136q-77 47 -77 126q0 109 115 146q48 16 114 16v-83q-139 -3 -139 -88q0 -67 130 -117v-96h-279z" />
    <glyph glyph-name="colon" unicode=":" horiz-adv-x="300" 
d="M70 461l82 82l81 -81l-82 -82zM74 113l81 81l81 -81l-81 -81z" />
    <glyph glyph-name="semicolon" unicode=";" horiz-adv-x="293" 
d="M193 546l86 -87l-81 -80l-86 86zM250.5 33q-3.5 -22 -3.5 -29q0 -32 -30 -72.5t-49 -40.5t-19 15q0 10 19 44t19 78q-2 10 -15 35l-44 44l81 81l73 -73q-1 -13 -14.5 -33t-13.5 -23.5t-3.5 -25.5z" />
    <glyph glyph-name="less" unicode="&#x3c;" horiz-adv-x="1219" 
d="M1148 753q-87 125 -211 125t-205 -60q-94 -71 -116 -219h-97v-96h90q0 -238 98 -377q91 -128 231 -128q97 0 145 57q34 42 34 94t-53 116q118 59 121 238h98v96h-555q16 89 60 135t132 46q137 0 166 -106h133zM430 410q0 -45 -11.5 -131t-11.5 -135t18 -69q5 -5 28 -17
t23 -33t-16 -26.5t-51 -5.5t-68.5 45t-33.5 110q0 93 18 165q-22 -12 -43 -24q-29 -14 -62 -14q-83 0 -150 45t-67 118t59.5 115t146.5 42t154 -50.5t67 -134.5zM718 503h364q0 -169 -135 -169h-215q-13 55 -13 89l-1 34v46zM763 236h130q57 0 86 -22t29 -57
q0 -63 -69.5 -63t-126.5 61q-43 46 -49 81zM335 430q-26 72 -122 72q-44 0 -77 -18t-33 -50t38 -50q32 -16 72 -16t73.5 18.5t48.5 43.5z" />
    <glyph glyph-name="equal" unicode="=" horiz-adv-x="426" 
d="M382 345v-50h-318v50h318zM382 227v-50h-318v50h318z" />
    <glyph glyph-name="greater" unicode="&#x3e;" horiz-adv-x="0" 
d="M-71 753q143 240 261 350q195 182 447 182q164 0 254 -180q38 -75 57 -180h-97q-13 76 -39 131q-63 131 -181 131q-218 0 -418 -210q-120 -126 -213 -303z" />
    <glyph glyph-name="question" unicode="?" horiz-adv-x="500" 
d="M224 511q174 32 174 142q0 117 -96 117q-38 0 -58.5 -35t-56.5 -35q-60 0 -60 75q1 36 55 62t105 26q88 1 149 -67t61 -156t-63 -153q-52 -55 -114 -70l-18 -230h-62zM341 37l-76 -76l-75 75l76 76z" />
    <glyph glyph-name="A" unicode="A" horiz-adv-x="744" 
d="M76 599q29 0 60 -39t40 -92q28 23 84 51t91 39q37 -29 56 -222l129 76v187h239v-96h-132v-503h-107v296q-132 -74 -132 -81q0 -47 -20 -95q-32 -75 -98 -75q-62 0 -62 90q0 72 85 125v9q0 44 -9 90q-10 51 -22 51t-55 -30.5t-50 -43.5q-9 -89 -45 -134t-67 -45t-45 25
t-14 60q0 70 87 154q-22 107 -70 107h-25v96h82z" />
    <glyph glyph-name="B" unicode="B" horiz-adv-x="536" 
d="M0 503v96h566v-96h-132q1 -13 1 -25q0 -85 -50 -153q23 -43 24 -48q15 -36 15 -77q0 -76 -56.5 -136t-143 -60t-155.5 32.5t-69 72.5q0 16 5 21.5t20.5 5.5t73 -28t108.5 -28t87.5 30.5t36.5 97.5q0 17 -16 38q-76 -56 -149 -56q-46 0 -87 20q-69 35 -69 116q0 54 43 89
t102 35t107 -26l46 -30q15 34 15 71.5t-3 37.5h-320zM127 287q12 -3 47.5 -3t81.5 35q-51 32 -84 32q-70 0 -70 -32q0 -24 25 -32z" />
    <glyph glyph-name="C" unicode="C" horiz-adv-x="633" 
d="M-4 503v96h666v-96h-129v-152h-360q-35 0 -35 -32q0 -29 46 -29h229q35 0 73 -29q47 -38 47 -96q0 -101 -74 -136q-60 -29 -195.5 -29t-190.5 28q-73 37 -73 137q0 44 27 66q5 5 39 21q-21 20 -30.5 36.5t-9.5 50.5q0 53 34 84t81 31h285v49h-430zM177 99h32v95h-46
q-20 0 -38 -10t-18 -29t17.5 -37.5t52.5 -18.5zM354 100q35 0 53 17t18 35.5t-16.5 30t-44.5 11.5h-49v-94h39z" />
    <glyph glyph-name="D" unicode="D" horiz-adv-x="560" 
d="M590 599v-96h-130v-503h-107v107q-48 -27 -126 -27q-136 0 -227 169q66 76 66 184q0 48 -23 70h-46v96h593zM119 246q32 -64 110.5 -64t124.5 42v279h-192q7 -30 7 -79q0 -102 -50 -178z" />
    <glyph glyph-name="E" unicode="E" horiz-adv-x="678" 
d="M179 236q6 -35 49 -81q57 -61 126.5 -61t69.5 63q0 35 -29 57t-86 22h-130zM134 503v-46l1 -34q0 -34 13 -89h215q135 0 135 169h-364zM709 599v-96h-108q-3 -179 -121 -238q53 -64 53 -116t-34 -94q-48 -57 -145 -57q-140 0 -231 128q-98 139 -98 377h-29v96h36
q17 117 82 190q77 87 206 87h231v-97q-87 1 -230.5 1t-176.5 -181h565z" />
    <glyph glyph-name="F" unicode="F" horiz-adv-x="640" 
d="M255 157q78 85 177 85q51 0 86 -31t35 -86.5t-40.5 -90t-104.5 -34.5q-136 0 -220.5 77.5t-114.5 215.5h-75q-1 13 -1 25q1 80 44 114t114 34q10 0 30 -1v-67h232v105h-418v96h670v-96h-145v-208h-337q3 -47 27 -90.5t41 -47.5zM410 81q24 0 40 12t16 28q0 32 -55 32
q-26 0 -56 -24l-32 -30q25 -18 87 -18z" />
    <glyph glyph-name="G" unicode="G" horiz-adv-x="723" 
d="M515 599h237v-96h-128v-503h-109v97q-41 -24 -83 -24t-72 22t-41 42q-20 -17 -39 -33q-35 -22 -92 -22q-127 0 -196 145q60 98 60 206q0 48 -17 70h-40v96h121q47 -85 47 -171q0 -109 -58 -196q36 -48 82 -48q33 0 64 26t31 53q0 5 -17 77.5t-17 97.5q0 63 14 107
q19 60 60 60q44 0 64 -66q12 -42 12 -96t-19.5 -112.5t-19.5 -69.5q0 -33 20 -57t51 -24t58 15.5t27 28.5v375z" />
    <glyph glyph-name="H" unicode="H" 
d="M-120 -128q0 -67 -33 -104t-88 -37t-102.5 49t-47.5 96q0 77 81 77q47 0 47 -23t-28 -27t-28 -21q0 -23 27.5 -49.5t53.5 -26.5q39 0 39 65v99h79v-98z" />
    <glyph glyph-name="I" unicode="I" horiz-adv-x="250" 
d="M164 503v-505l-107 -1v506h-59v96h58v66q0 70 -64 70q-53 0 -77 -65l-88 57q57 108 181 108q52 0 103 -42t51 -116v-78h139v-96h-137z" />
    <glyph glyph-name="J" unicode="J" horiz-adv-x="552" 
d="M196 166l40 2q29 0 54.5 16.5t25.5 45.5q0 56 -70 56h-192l-52 100h98l-76 117h-27v96h584v-96h-129q-20 -116 -92 -159q56 -39 56 -118q0 -53 -35 -91t-101 -45l68 -84h-108l-71 83q-21 -15 -45 -15q-42 0 -61 24t-19 52.5t23 47t53 18.5q54 0 76 -50zM152 503
q27 -55 46 -76q26 -31 62.5 -31t55.5 34q11 20 22 73h-186z" />
    <glyph glyph-name="K" unicode="K" horiz-adv-x="560" 
d="M169 446h184v153h237v-96h-130v-503h-107v108q-48 -28 -126 -28q-138 0 -227 169q66 76 66 184q0 48 -23 70h-48v96h129q45 -97 45 -147v-6zM119 246q32 -64 106 -64q88 0 129 41v124h-192q-11 -52 -43 -101z" />
    <glyph glyph-name="L" unicode="L" horiz-adv-x="670" 
d="M246 -74q20 20 48 21h3q27 0 48 -20t21 -47q0 -30 -20 -50t-48 -21h-3q-27 0 -48 20t-21 47q0 29 20 50zM323 209q-12 -27 -29.5 -27t-29.5 27q-21 46 -23 50q-19 27 -53 27q-70 0 -70 -93q0 -57 47 -83q27 -16 50 -16v-93q-88 0 -145 48q-68 57 -68 166q0 63 48.5 113
t96.5 52q-40 51 -46 123h-105v96h720v-96h-229q-17 -87 -46 -123q48 -2 96.5 -52t48.5 -113q0 -108 -70 -166q-58 -48 -141 -48v93q23 0 50 16q45 26 45 83q0 93 -70 93q-33 0 -53 -27q-3 -5 -24 -50zM292 361q51 0 72 142l-35 1h-27q-31 0 -78 -1q4 -52 26 -97t42 -45z" />
    <glyph glyph-name="M" unicode="M" 
d="M-270.5 825.5q29.5 35.5 82 35.5t82.5 -34.5t30 -87.5q0 -25 -19.5 -55.5t-45.5 -30.5q-10 0 -10 6t9.5 28t9.5 38t-14 33.5t-41 17.5t-42.5 -17t-15.5 -32t7 -33.5t7 -25.5q0 -15 -21 -15q-7 0 -26 24q-22 30 -22 71.5t29.5 77z" />
    <glyph glyph-name="N" unicode="N" horiz-adv-x="100" 
d="M-25 771q20 20 48.5 20t49 -20t20.5 -48.5t-20.5 -49t-49 -20.5t-48.5 20.5t-20 49t20 48.5zM-47 503v96h195v-96h-195z" />
    <glyph glyph-name="O" unicode="O" 
d="M-240 771q-17 -17 -17 -39.5t12.5 -38t12.5 -16.5q0 -24 -25 -24q-13 0 -36 30.5t-23 56.5t4 42q-17 -12 -49.5 -12t-70.5 28.5t-38 58.5q0 18 19 18q1 0 39.5 -19.5t65.5 -19.5q53 0 71 5q37 27 78.5 27t77 -32.5t35.5 -86.5q0 -29 -18 -60t-40 -31t-22 19
q0 6 10.5 21.5t10.5 35t-16 37t-40 17.5t-41 -17z" />
    <glyph glyph-name="P" unicode="P" horiz-adv-x="525" 
d="M555 599v-96h-130v-153h-238q-86 0 -86 -73q0 -19 8.5 -41t15.5 -28q96 64 159 64t102.5 -40.5t39.5 -97.5t-42.5 -95.5t-106.5 -38.5q-112 0 -194.5 91.5t-82.5 209.5q0 66 38 112t103 46h178v44h-323v96h559zM177 138q4 -9 40 -27.5t56.5 -18.5t37 14.5t16.5 29.5
q0 43 -55 43q-18 0 -50.5 -15.5t-44.5 -25.5z" />
    <glyph glyph-name="Q" unicode="Q" horiz-adv-x="560" 
d="M596 599v-96h-136v-503h-107v107q-48 -27 -126 -27q-136 0 -227 169q66 76 66 184q0 48 -23 70h-46v96h599zM169 405h185v98h-192q7 -22 7 -56v-42zM151 312q-4 -17 -32 -66q32 -64 110.5 -64t124.5 42v88h-203z" />
    <glyph glyph-name="R" unicode="R" 
d="M-96 -30v-47q102 -29 184 -132q28 -37 28 -51q0 -4 -4.5 -4t-47 32t-75 52.5t-79.5 22.5q-22 -52 -73 -52q-31 0 -54 22t-23 51.5t18 48.5t45 22v35h81z" />
    <glyph glyph-name="S" unicode="S" horiz-adv-x="571" 
d="M601 599v-96h-110v-503h-112v242h-193v-18q0 -70 -22 -132q-22 -61 -69 -61h-2q-74 0 -74 68q0 3 31.5 77t31.5 145q0 102 -59 182h-26v96h604zM221.5 133q19.5 21 48 21t49.5 -19.5t21 -48t-20 -49.5t-48.5 -21t-49 19.5t-20.5 48t19.5 49.5zM379 503h-243q7 -10 27 -55
q12 -32 22 -105h194v160z" />
    <glyph glyph-name="T" unicode="T" horiz-adv-x="621" 
d="M-1 195q0 67 65.5 128.5t137.5 62.5v117h-206v96h651v-96h-331v-117q70 -1 136.5 -63t66.5 -128q0 -107 -83 -159q-66 -42 -170 -42q-267 0 -267 201zM264 85q55 0 93 16q56 23 56 79t-48 86q-49 30 -107 30t-101 -27q-52 -32 -52 -90q0 -94 159 -94z" />
    <glyph glyph-name="U" unicode="U" 
d="M-513 -27q95 -30 193 -30t194 30v-80q-87 -31 -189 -31t-198 27v84zM-513 -153q95 -30 193 -30t194 30v-80q-87 -31 -189 -31t-198 27v84z" />
    <glyph glyph-name="V" unicode="V" horiz-adv-x="665" 
d="M484 356q77 -45 77 -122q0 -112 -101 -132q27 -27 61 -64q5 -7 5 -12q0 -22 -45 -22q-29 0 -44 13q-37 33 -73 70q-12 -1 -26 -1q-105 0 -178 29q19 -19 39 -41t20.5 -40t-11.5 -22q-10 -3 -29 -3h-11q-28 1 -98 73q-68 72 -68 113q0 27 19 35q10 5 33 5t105.5 -25.5
t129.5 -25.5q81 0 118 15.5t37 47.5t-23 50.5t-49 18.5t-70 -17t-88 -17t-89 18q-58 24 -58 66q0 70 150 70q21 0 65 -16.5t79 -16.5t55 30t21 59q0 6 -1 11h-440v96h699v-96h-130q-2 -37 -28 -86t-53 -61z" />
    <glyph glyph-name="W" unicode="W" horiz-adv-x="250" 
d="M0 503v96h299v-96h-136v-272h-114v272h-49zM51.5 772q20.5 20 49 20t48.5 -20t20 -48.5t-20 -49t-48.5 -20.5t-49 20.5t-20.5 49t20.5 48.5z" />
    <glyph glyph-name="X" unicode="X" horiz-adv-x="654" 
d="M29 301q27 52 27 101t-13 101h-47v96h688v-96h-130v-504h-107v258h-82v-84q0 -40 -26 -61t-52 -21q-85 0 -119 12q-89 31 -169 146zM146 503q15 -38 15 -118t-48 -131q20 -31 54 -48.5t57 -17.5q46 0 46 15v161h177v139h-301z" />
    <glyph glyph-name="Y" unicode="Y" 
d="M-120 639h-75q-70 61 -132 61q-34 0 -64.5 -9.5t-57.5 -9.5t-47 14t-20 28q0 51 80 51q95 0 202 -61h29q-96 128 -222 128q-106 0 -106 50q1 34 21 44t65 10q112 0 231 -153q49 -64 96 -153z" />
    <glyph glyph-name="Z" unicode="Z" horiz-adv-x="876" 
d="M775 503v-503h-106v503h-128v-381q0 -121 -154 -121q-103 0 -178 91t-75 207q0 49 31.5 82.5t60.5 33.5h209v88h-439v96h910v-96h-131zM16 140q20 20 48 22h3q27 0 47.5 -19.5t20.5 -48t-20 -49.5t-48.5 -21t-49.5 20t-21 47q0 28 20 49zM434 311h-141q-50 0 -50 -61
q0 -44 47.5 -98.5t94.5 -54.5q24 0 36.5 13t12.5 28v173z" />
    <glyph glyph-name="bracketleft" unicode="[" horiz-adv-x="300" 
d="M252 624v-624h-107v624h107z" />
    <glyph glyph-name="backslash" unicode="\" horiz-adv-x="525" 
d="M-3 503v96h558v-96h-110v-167h-263q-30 0 -39.5 -9t-9.5 -30q0 -32 57 -32h218v-104h-103q-35 0 -35 -26q0 -45 80 -45q28 0 51 11v-90q-20 -11 -85 -11q-134 0 -167 152h-8q-121 0 -121 147q0 114 78 133l-74 71h-27zM157 503l57 -62h124v62h-181z" />
    <glyph glyph-name="bracketright" unicode="]" horiz-adv-x="550" 
d="M202 624v-624h-107v624h107zM449 624v-624h-107v624h107z" />
    <glyph glyph-name="asciicircum" unicode="^" horiz-adv-x="642" 
d="M251 446h184v153h237v-96h-130v-503h-107v108q-48 -28 -126 -28q-138 0 -227 169q66 76 66 184q0 48 -23 70h-125v96h206q45 -97 45 -147v-6zM19.5 117q19.5 21 48 21t49.5 -19.5t21 -48t-20 -49.5t-48 -21t-49 20t-21 48t19.5 49zM201 246q32 -64 106 -64q88 0 129 41
v124h-192q-11 -52 -43 -101z" />
    <glyph glyph-name="grave" unicode="`" horiz-adv-x="0" 
d="M-236 828q10 0 15 -15l9 -25q24 -38 44 -53t51 -15q73 0 101 102q4 12 16 12q20 0 20 -41.5t-32 -84.5q-42 -55 -104 -55t-103.5 45.5t-41.5 87.5t25 42z" />
    <glyph glyph-name="a" unicode="a" horiz-adv-x="670" 
d="M584 599h116v-96h-110q-3 -175 -121 -234q53 -64 53 -118t-34 -96q-48 -57 -145 -57q-140 0 -231 128q-98 139 -98 377h-20v96h27q17 117 82 190q77 87 206 87q237 0 275 -277zM123 503q0 -8 -0.5 -19.5t0.5 -26.5l1 -34q0 -34 13 -89h215q135 0 135 169h-364zM168 236
q6 -35 49 -81q57 -61 126.5 -61t69.5 63q0 31 -36.5 55t-78.5 24h-130zM133 599h349q-20 181 -175 181q-141 0 -174 -181z" />
    <glyph glyph-name="b" unicode="b" horiz-adv-x="532" 
d="M562 599v-96h-110v-503h-107v85q-37 -23 -103 -23t-131.5 56.5t-82.5 94.5q60 88 117 117q-34 26 -52 43q-34 32 -66 130h-31v96h566zM346 274h-74q-65 0 -104 -54q8 -27 34 -43.5t54 -16.5t55 9t35 17v88zM346 503h-200q4 -30 28 -65q40 -58 117 -58h54z" />
    <glyph glyph-name="c" unicode="c" horiz-adv-x="614" 
d="M-7 259l-2 42q0 60 31.5 97t74.5 45q22 5 87 5v-86h223v141h-409v96h645v-96h-129v-360q0 -144 -160 -144q-80 0 -148 56q-54 44 -88 107.5t-34 96.5h-91zM407 154v105h-213q0 -43 48 -100.5t116 -57.5q49 0 49 53z" />
    <glyph glyph-name="d" unicode="d" horiz-adv-x="635" 
d="M139 443l55 -4v-101h234v165h-432v96h669v-96h-130v-268h-346q12 -64 30 -94q43 -70 139 -70q55 0 104 21t45 21q18 0 18 -13q0 -20 -49 -54q-65 -47 -147 -47t-149 40t-87 96q-11 31 -17 98h-58q-7 0 -15 23.5t-8 56.5t18 59q48 71 126 71z" />
    <glyph glyph-name="e" unicode="e" horiz-adv-x="534" 
d="M141 330q-94 70 -121 174l-25 -1v96h569v-96h-112v-233h-150q-103 0 -134 -83q44 -95 139 -95q40 0 80.5 27t42.5 27q24 0 24 -30q0 -22 -64 -66t-119 -43h-3q-71 1 -154 73t-83 97t32 74.5t78 78.5zM144 503q10 -61 105 -125h93v125h-198z" />
    <glyph glyph-name="f" unicode="f" horiz-adv-x="591" 
d="M1 503v96h621v-96h-134q-4 -95 -91 -139q19 -2 49 -44t30 -92q0 -105 -96 -170q-82 -55 -176 -55t-149 42q-54 42 -54 94.5t45 90.5t129 38t176 -80q12 11 12 43q0 37 -27 61q-26 24 -49 24q-40 0 -67.5 -9t-71.5 -9t-80.5 20.5t-36.5 53.5q0 22 34.5 42.5t75.5 20.5
t83 -16t66 -16t53.5 37.5t26.5 62.5h-369zM269 127q-43 45 -99 45t-57 -34q0 -17 23 -27q20 -10 42 -10q50 0 91 26z" />
    <glyph glyph-name="g" unicode="g" horiz-adv-x="741" 
d="M640 503v-503h-106v503h-128v-381q0 -121 -154 -121q-103 0 -178 91t-75 210q0 47 31 80t59 33h2h209v88h-305v96h777v-96h-132zM299 311h-141q-50 0 -50 -61q0 -44 48 -98t94 -55q24 0 36 13t13 28v173z" />
    <glyph glyph-name="h" unicode="h" horiz-adv-x="537" 
d="M567 599v-96h-133v-376q0 -82 -56 -110q-32 -16 -98 -16h-2q-99 0 -188 87q-90 88 -91 196q0 82 92 82h120v-104h-53q-21 0 -27.5 -2t-6.5 -11q0 -59 51 -101t131 -42q22 0 22 27v370h-333v96h572z" />
    <glyph glyph-name="i" unicode="i" horiz-adv-x="250" 
d="M-2 503v96h35v80q0 74 51 116t103 42q124 0 181 -108l-80 -51q-21 49 -85 49t-64 -98v-30h170v-96h-171v-503h-107v503h-33z" />
    <glyph glyph-name="j" unicode="j" horiz-adv-x="615" 
d="M-4 503v96h648v-96h-130v-503h-107v222h-215v-219h-107v219h-85q-1 9 -1 22q0 78 43 120q35 36 61 46t89 10v-96h215v179h-411z" />
    <glyph glyph-name="k" unicode="k" horiz-adv-x="630" 
d="M464 232q71 -133 70 -233l-114 1q-14 108 -33 139q-46 -37 -80.5 -54.5t-86.5 -17.5q-83 0 -146 46q-74 55 -74 149q0 65 53.5 120.5t147.5 55.5t184 -93q10 21 20 66t10 65t-1 27h-415v96h660v-96h-130v-20q0 -139 -65 -251zM203 340q-34 0 -63 -23t-29 -58.5t28.5 -64
t80.5 -28.5t83 36q9 10 30 51q-56 87 -130 87z" />
    <glyph glyph-name="l" unicode="l" horiz-adv-x="670" 
d="M323 209q-12 -27 -29.5 -27t-29.5 27q-21 46 -23 50q-19 27 -53 27q-70 0 -70 -93q0 -57 47 -83q27 -16 50 -16v-93q-88 0 -145 48q-68 57 -68 166q0 63 48.5 113t96.5 52q-40 51 -46 123h-105v96h720v-96h-229q-17 -87 -46 -123q48 -2 96.5 -52t48.5 -113
q0 -108 -70 -166q-58 -48 -141 -48v93q23 0 50 16q45 26 45 83q0 93 -70 93q-33 0 -53 -27q-3 -5 -24 -50zM292 361q51 0 72 142l-35 1h-27q-31 0 -78 -1q4 -52 26 -97t42 -45z" />
    <glyph glyph-name="m" unicode="m" horiz-adv-x="549" 
d="M149 448q9 -32 16 -105h170v256h243v-96h-131v-503h-112v242h-169v-18q0 -70 -22 -132q-22 -61 -69 -61h-2q-74 0 -74 68q0 3 31.5 77t31.5 160.5t-31 166.5h-34v96h102q16 -43 50 -151z" />
    <glyph glyph-name="n" unicode="n" horiz-adv-x="618" 
d="M-4 503v96h666v-96h-346v-117q70 -1 136.5 -63t66.5 -128q0 -101 -76 -156q-53 -39 -101 -39v93q71 10 71 86q0 56 -60 90q-47 27 -93 27t-94 -27q-61 -34 -61 -90q0 -76 73 -88v-91q-51 0 -104 39q-75 54 -75 156q0 66 66.5 128t136.5 63v117h-206z" />
    <glyph glyph-name="o" unicode="o" 
d="M-139 707l-3 -44h-43q0 39 -56 39l-77 -6q-78 -6 -124 -6q-1 0 -2 -1q-44 0 -64 28t-20 68q0 14 2 28h39q3 -40 58 -40q38 0 96 6.5t97 6.5t68 -24t29 -55z" />
    <glyph glyph-name="p" unicode="p" horiz-adv-x="556" 
d="M227 76q-138 0 -227 173q66 76 66 184q0 48 -23 70h-47v96h128q47 -85 47 -183t-52 -170q35 -68 89 -68t92 14t50 32v375h237v-96h-130v-503h-107v112q-45 -36 -123 -36z" />
    <glyph glyph-name="q" unicode="q" horiz-adv-x="645" 
d="M-4 503v96h678v-96h-130q2 -13 2 -27q0 -62 -34.5 -110.5t-59.5 -61.5q17 -2 48.5 -38t31.5 -71q0 -117 -70 -164q-53 -36 -153.5 -36t-168 33.5t-103 76t-35.5 63t4.5 23.5t17.5 3t47 -31q83 -76 210 -76q140 0 140 106q0 25 -25.5 45.5t-59.5 20.5t-68 -8.5t-67 -8.5
q-147 0 -147 79q0 69 142 69q44 0 89 -19t63 -19q33 0 57 41q23 37 23 68t-10 42h-422z" />
    <glyph glyph-name="r" unicode="r" horiz-adv-x="534" 
d="M328 503h-331v96h567v-96h-130v-376q0 -82 -56 -110q-32 -16 -98 -16h-2q-99 0 -188 87q-90 88 -91 196q0 48 29 74t59 26h241v119zM154 280q-30 0 -30 -31q0 -59 51 -101t131 -42q22 0 22 27v147h-174z" />
    <glyph glyph-name="s" unicode="s" horiz-adv-x="549" 
d="M578 599v-96h-111v-503h-112v242h-169v-18q0 -70 -22 -132q-22 -61 -69 -61h-2q-74 0 -74 68q0 3 31.5 77t31.5 145q0 102 -59 182h-28v96h583zM355 503h-219q7 -10 27 -55q12 -32 22 -105h170v160z" />
    <glyph glyph-name="t" unicode="t" horiz-adv-x="549" 
d="M448 503v-174q-96 -3 -173 -32t-147 -114q85 -87 143 -87q40 0 85.5 29t47.5 29q21 0 25.5 -5t4.5 -28t-64.5 -68.5t-120 -45.5t-112.5 40.5t-97.5 90.5t-40.5 63t55.5 70t126.5 101t131 44h10v87h-325v96h582v-96h-131z" />
    <glyph glyph-name="u" unicode="u" 
d="M-513 -27q95 -30 193 -30t194 30v-80q-87 -31 -189 -31t-198 27v84z" />
    <glyph glyph-name="v" unicode="v" horiz-adv-x="634" 
d="M176 451h251v52h-427v96h664v-96h-130v-159h-356q-79 0 -79 -40q0 -24 21 -31.5t66 -7.5h329v-104h-220q-16 0 -16 -13q0 -19 42.5 -39t81 -20t74.5 10.5t50 23.5l-23 -102q-52 -21 -99 -21q-90 0 -164.5 50t-84.5 104h-6q-60 0 -105 39t-45 120t55 114q39 24 121 24z
" />
    <glyph glyph-name="w" unicode="w" horiz-adv-x="250" 
d="M-2 503v96h293v-96h-138v-271l-107 -1v272h-48z" />
    <glyph glyph-name="x" unicode="x" horiz-adv-x="678" 
d="M414 314l3 -49q0 -32 -22 -32t-64.5 32.5t-80.5 32.5t-75 -32.5t-37 -49.5q0 -37 82.5 -79t136 -42t125 31t67.5 31q21 0 21 -18q0 -44 -86.5 -88.5t-165.5 -44.5q-103 0 -210 75t-107 133t84.5 136t158.5 78q37 0 51 -12.5t26 -12.5q6 0 4 15t0 22q-50 36 -80 63h-249
v96h711v-96h-293q79 -65 160 -94l-22 -97q-64 27 -122 59q-16 -35 -16 -57z" />
    <glyph glyph-name="y" unicode="y" 
d="M-362 756l-72 -2q-93 0 -93 52q0 35 32 47q20 7 71 7q149 0 290 -220h-36q-91 116 -192 116z" />
    <glyph glyph-name="z" unicode="z" horiz-adv-x="620" 
d="M-4 503v96h654v-96h-130v-503h-107v222h-221v-222h-107v222h-85q-8 20 -8 45q0 47 30 85q53 68 170 68v-96h221v179h-417zM251.5 143q19.5 21 48 21t49.5 -19.5t21 -48t-20 -49.5t-48.5 -21t-49 19.5t-20.5 48t19.5 49.5z" />
    <glyph glyph-name="bar" unicode="|" horiz-adv-x="528" 
d="M314 29q-58 -29 -126 -29t-118 38t-49 96q0 58 46 92.5t109 34.5q86 0 156 -82q10 27 10 40q0 44 -28 70.5t-70 26.5h-224v187h-25v96h585v-96h-448v-73h136q76 0 130 -57.5t54 -143.5t-60 -145q12 -12 28 -84h-102q0 6 -2 17t-2 12zM265 115q-39 47 -82 47
q-57 0 -57 -29q0 -37 57 -37q31 0 55.5 9.5t26.5 9.5z" />
    <glyph glyph-name="exclamdown" unicode="&#xa1;" horiz-adv-x="1287" 
d="M430 410q0 -45 -11.5 -131t-11.5 -135t18 -69q5 -5 28 -17t23 -33t-16 -26.5t-51 -5.5t-68.5 45t-33.5 110q0 93 18 165q-22 -12 -43 -24q-29 -14 -62 -14q-83 0 -150 45t-67 118t59.5 115t146.5 42t154 -50.5t67 -134.5zM718 503v-46l1 -34q0 -34 13 -89h215
q135 0 135 169h-364zM763 236q6 -35 49 -81q57 -61 126.5 -61t69.5 63q0 35 -29 57t-86 22h-130zM335 430q-26 72 -122 72q-44 0 -77 -18t-33 -50t38 -50q32 -16 72 -16t73.5 18.5t48.5 43.5zM1086 674q-29 106 -166 106q-88 0 -132 -46t-60 -135h555v-96h-98
q-3 -179 -121 -238q53 -64 53 -116t-34 -94q-48 -57 -145 -57q-140 0 -231 128q-98 139 -98 377h-90v96h97q22 148 116 219q81 60 205 60t211 -125q143 240 261 350q195 182 447 182q164 0 254 -180q38 -75 57 -180h-97q-13 76 -39 131q-63 131 -181 131q-218 0 -418 -210
q-120 -126 -213 -303h-133z" />
    <glyph glyph-name="currency" unicode="&#xa4;" horiz-adv-x="176" 
d="M-81 828q10 0 15 -15l9 -25q24 -38 44 -53t51 -15q72 0 100 102q4 12 17 12q20 0 20 -41.5t-32 -84.5q-42 -55 -104 -55t-103.5 45.5t-41.5 87.5t25 42zM-2 599h219v-96h-219v96z" />
    <glyph glyph-name="registered" unicode="&#xae;" 
d="M-363 35v-47q102 -29 184 -132q28 -37 28 -51q0 -4 -4.5 -4t-47 32t-75 52.5t-79.5 22.5q-22 -52 -73 -52q-31 0 -54 22t-23 51.5t18 48.5t45 22v35h81z" />
    <glyph glyph-name="Iacute" unicode="&#xcd;" 
d="M-141 -26v-70h-179q-17 0 -17 -14q0 -16 16 -16h194v-38h-135q-27 0 -27 -14t27 -14h135v-48h-140q-35 0 -55 19t-21 42q0 6 2 12q-19 1 -37 17t-18 43q0 67 73 67h142v14h40z" />
    <glyph glyph-name="Icircumflex" unicode="&#xce;" horiz-adv-x="615" 
d="M-4 503v96h648v-96h-139v-503h-107v288l-77 14l-59 -248l-262 112l48 92l142 -62l52 220l156 -28v115h-402z" />
    <glyph glyph-name="Idieresis" unicode="&#xcf;" 
d="M-101 -30v-294h-76v157h-71v-96q-38 -29 -90 -29q-121 0 -204 129q55 25 55 85q0 22 -10 48h75q12 -20 12 -54t-12 -60t-20 -31q46 -51 87 -51q26 0 31 12v106h147v78h76z" />
    <glyph glyph-name="oe" unicode="&#x153;" 
d="M-105 -30q27 -28 27 -63t-18 -52q-2 -1 -25 -14q9 0 26 -16.5t17 -36.5q0 -57 -44 -77q-24 -10 -77.5 -10t-95 28.5t-41.5 53.5q0 12 23 12q6 -1 18 -13q29 -30 85.5 -30t56.5 43q0 29 -27 29q-18 0 -35 -4t-32 -4q-64 0 -64 34t64 34q20 0 40.5 -8.5t29.5 -8.5
t16.5 11.5t7.5 29.5q0 36 -27 62h75z" />
    <glyph glyph-name="florin" unicode="&#x192;" horiz-adv-x="621" 
d="M67 0q95 -30 192.5 -30t194.5 30v-80q-87 -31 -189 -31t-198 27v84zM67 -126q95 -30 192.5 -30t194.5 30v-80q-87 -31 -189 -31t-198 27v84zM220 753q0 -22 9 -38.5t9 -24.5q0 -21 -19 -21q-23 1 -43 33t-20 70t34 66t81.5 28.5t79 -26.5t31.5 -65.5t-16 -73.5t-41 -35
q-16 0 -16 19q0 5 5.5 24t5.5 37q0 43 -50 43t-50 -36zM-4 503v96h657v-96h-334v-96q70 -1 136.5 -63t66.5 -128q0 -114 -85 -164q-49 -29 -95 -29v92q17 0 38 13q36 23 36 75.5t-60 86.5q-47 27 -93 27t-94 -27q-61 -34 -61 -90q0 -45 33 -69q20 -15 35 -15v-92
q-42 0 -90 29q-84 50 -84 163q0 66 66.5 128t136.5 63v96h-209z" />
    <glyph glyph-name="tilde" unicode="&#x2dc;" 
d="M-99 -30v-50q51 -1 98.5 -45.5t47.5 -93.5q0 -77 -52 -113q-41 -28 -103 -28v65q80 0 80 65q0 40 -40 62t-72 23q-32 -1 -72 -23t-40 -61t34 -56q21 -10 44 -10v-65q-62 0 -103 28q-53 36 -53 113q0 49 48.5 93.5t99.5 45.5v50h83z" />
    <glyph glyph-name="mu" unicode="&#xb5;" 
d="M-435.5 825.5q29.5 35.5 82 35.5t82.5 -34.5t30 -87.5q0 -25 -19.5 -55.5t-45.5 -30.5q-10 0 -10 6t9.5 28t9.5 38t-14 33.5t-41 17.5t-42.5 -17t-15.5 -32t7 -33.5t7 -25.5q0 -15 -21 -15q-7 0 -26 24q-22 30 -22 71.5t29.5 77z" />
    <glyph glyph-name="mu" unicode="&#x3bc;" 
d="M-435.5 825.5q29.5 35.5 82 35.5t82.5 -34.5t30 -87.5q0 -25 -19.5 -55.5t-45.5 -30.5q-10 0 -10 6t9.5 28t9.5 38t-14 33.5t-41 17.5t-42.5 -17t-15.5 -32t7 -33.5t7 -25.5q0 -15 -21 -15q-7 0 -26 24q-22 30 -22 71.5t29.5 77z" />
    <glyph glyph-name="quoteleft" unicode="&#x2018;" horiz-adv-x="300" 
d="M163 576q19 -22 19 -50t-23 -51t-60.5 -23t-68.5 33t-31 77.5t35 93.5t78 84.5t55 35.5q24 0 24 -30q0 -4 -59 -59.5t-58 -90.5q23 2 46.5 2t42.5 -22z" />
    <glyph glyph-name="quoteright" unicode="&#x2019;" horiz-adv-x="300" 
d="M136 642q-19 22 -19 50t23 51t60.5 23t68.5 -33t31 -76.5t-40 -98.5q-30 -44 -73.5 -80t-54.5 -36q-24 0 -24 30q0 4 59.5 59.5t57.5 90.5q-23 -2 -46.5 -2t-42.5 22z" />
    <glyph glyph-name="quotesinglbase" unicode="&#x201a;" horiz-adv-x="1000" 
 />
    <glyph glyph-name="quotedblleft" unicode="&#x201c;" horiz-adv-x="550" 
d="M164 576q19 -22 19 -50t-23 -51t-60.5 -23t-68.5 33t-31 76.5t40 98.5q30 44 73.5 80t54.5 36q24 0 24 -30q0 -4 -59.5 -59.5t-57.5 -90.5q23 2 46.5 2t42.5 -22zM389 576q19 -22 19 -50t-23 -51t-60.5 -23t-68.5 33t-31 76.5t40 98.5q30 44 73.5 80t54.5 36q24 0 24 -30
q0 -4 -59.5 -59.5t-57.5 -90.5q23 2 46.5 2t42.5 -22z" />
    <glyph glyph-name="quotedblright" unicode="&#x201d;" horiz-adv-x="550" 
d="M383 642q-19 22 -19 50t23 51t60.5 23t68.5 -33t31 -76.5t-40 -98.5q-30 -44 -73.5 -80t-54.5 -36q-24 0 -24 30q0 4 59.5 59.5t57.5 90.5q-23 -2 -46.5 -2t-42.5 22zM158 642q-19 22 -19 50t23 51t60.5 23t68.5 -33t31 -76.5t-40 -98.5q-30 -44 -73.5 -80t-54.5 -36
q-24 0 -24 30q0 4 59.5 59.5t57.5 90.5q-23 -2 -46.5 -2t-42.5 22z" />
    <glyph glyph-name="ccedilla" unicode="&#xe7;" 
d="M-211 -308q-84 0 -127 56q-30 39 -30 80h-51q0 35 -1 39q8 61 65 69q12 2 55 2v-47h117v79h76v-188q0 -54 -46 -77q-27 -13 -58 -13zM-183 -213v41h-113q0 -26 17 -48t56.5 -22t39.5 29zM-420 -133v-2v2z" />
    <glyph glyph-name="Ccedilla" unicode="&#xc7;" horiz-adv-x="855" 
d="M503 741q-38 -128 -40 -208v-7q0 -79 36 -176q70 18 115 72.5t45 124.5t-44 122t-112 72zM530 273q-24 -10 -38 -18t-41 -35v-79q253 138 298 268q28 82 28 127t-19.5 82.5t-66.5 95.5q63 -24 100 -82.5t37 -141.5q0 -41 -9 -81q-18 -80 -56 -134q-29 -38 -75.5 -100.5
t-51.5 -104.5l-91 84q-46 -15 -82 -42q37 -15 78.5 -41t41.5 -58q0 -11 -9 -19.5t-20 -8.5q-25 0 -25 25q0 11 10 25q-16 14 -30 23.5t-60 26.5v-92q22 -20 22 -36t-12.5 -28t-29.5 -12t-27.5 12t-10.5 28t22 36v92q-21 -7 -52 -21l-38 -29q10 -14 10 -25q0 -25 -23 -25h-2
q-11 0 -20 8t-9 20q0 32 41 58t79 41q-38 30 -82 42l-91 -84q-5 42 -38 85.5t-89 119.5q-38 54 -56 134q-9 40 -9 81q0 82 36.5 141t100.5 83q-47 -58 -66.5 -95.5t-19.5 -82.5t28 -127q45 -131 298 -268v79q-13 13 -44 37q-12 7 -35 16q8 18 18 45q-78 22 -128.5 85.5
t-50.5 143.5t50 143t126 85q-6 18 -12 30q63 45 83 79l15 25q8 -18 32 -53q31 -29 62 -51q-6 -12 -12 -30q78 -23 128.5 -85t50.5 -142.5t-52 -144t-131 -85.5q4 -12 19 -45zM363 350q36 99 36 177v7q-2 80 -40 207q-66 -18 -109.5 -71t-43.5 -123t44 -124t113 -73z" />
    <glyph glyph-name="dagger" unicode="&#x2020;" 
d="M-106 -30v-104h-15q-95 0 -167 -74q47 -45 73.5 -45t54 18.5t28.5 18.5q19 0 19 -21t-38.5 -48.5t-80 -27.5t-92.5 49.5t-51 66.5q-1 17 67 73q66 56 119 56h2h6v38h75z" />
    <glyph glyph-name="emdash" unicode="&#x2014;" horiz-adv-x="1000" 
d="M56 240v96h888v-96h-888z" />
    <glyph glyph-name="endash" unicode="&#x2013;" horiz-adv-x="356" 
d="M316 333v-80h-267v80h267z" />
    <glyph glyph-name="asciitilde" unicode="~" horiz-adv-x="176" 
d="M-81 828q10 0 15 -15l9 -25q24 -38 44 -53t51 -15q72 0 100 102q4 12 17 12q20 0 20 -41.5t-32 -84.5q-42 -55 -104 -55t-103.5 45.5t-41.5 87.5t25 42zM-2 599h219v-96h-219v96z" />
    <glyph glyph-name="at" unicode="@" 
d="M-162 -118l67 8q95 0 95 -52q0 -35 -31 -47q-18 -7 -61 -7q-156 0 -281 191h30q92 -93 181 -93z" />
    <glyph glyph-name="Oslash" unicode="&#xd8;" horiz-adv-x="135" 
d="M-2 599h142v-97l-142 1v96z" />
    <glyph glyph-name="circumflex" unicode="&#x2c6;" horiz-adv-x="0" 
d="M-209 771q20 20 48.5 20t49 -20t20.5 -48.5t-20.5 -49t-49 -20.5t-48.5 20.5t-20 49t20 48.5z" />
    <glyph glyph-name="acute" unicode="&#xb4;" 
d="M-101 -30zM117 -108h-120v-106q-5 -12 -31 -12q-41 0 -87 51q9 5 21 29q11 22 11 55v5q0 36 -12 56h-75q10 -26 10 -48q0 -60 -55 -85q83 -129 204 -129q52 0 90 29v96h44v59z" />
    <glyph glyph-name="uniE000" unicode="&#xe000;" 
d="M-549 -27q95 -30 193 -30t194 30v-80q-87 -31 -189 -31t-198 27v84zM-549 -153q95 -30 193 -30t194 30v-80q-87 -31 -189 -31t-198 27v84z" />
    <glyph glyph-name="uniE001" unicode="&#xe001;" horiz-adv-x="670" 
d="M323 209q-12 -27 -29.5 -27t-29.5 27q-21 46 -23 50q-19 27 -53 27q-70 0 -70 -93q0 -57 47 -83q27 -16 50 -16v-93q-88 0 -145 48q-68 57 -68 166q0 63 48.5 113t96.5 52q-40 51 -46 123h-105v96h720v-96h-229q-17 -87 -46 -123q48 -2 96.5 -52t48.5 -113
q0 -108 -70 -166q-58 -48 -141 -48v93q23 0 50 16q45 26 45 83q0 93 -70 93q-33 0 -53 -27q-3 -5 -24 -50zM292 361q51 0 72 142l-35 1h-27q-31 0 -78 -1q4 -52 26 -97t42 -45zM217.5 825.5q29.5 35.5 82 35.5t82.5 -34.5t30 -87.5q0 -25 -19.5 -55.5t-45.5 -30.5
q-10 0 -10 6t9.5 28t9.5 38t-14 33.5t-41 17.5t-42.5 -17t-15.5 -32t7 -33.5t7 -25.5q0 -15 -21 -15q-7 0 -27.5 27t-20.5 68.5t29.5 77z" />
    <glyph glyph-name="uniE002" unicode="&#xe002;" horiz-adv-x="670" 
d="M101 -47q95 -30 192.5 -30t194.5 30v-80q-87 -31 -189 -31t-198 27v84zM323 209q-12 -27 -29.5 -27t-29.5 27q-21 46 -23 50q-19 27 -53 27q-70 0 -70 -93q0 -57 47 -83q27 -16 50 -16v-93q-88 0 -145 48q-68 57 -68 166q0 63 48.5 113t96.5 52q-40 51 -46 123h-105v96
h720v-96h-229q-17 -87 -46 -123q48 -2 96.5 -52t48.5 -113q0 -108 -70 -166q-58 -48 -141 -48v93q23 0 50 16q45 26 45 83q0 93 -70 93q-33 0 -53 -27q-3 -5 -24 -50zM292 361q51 0 72 142l-35 1h-27q-31 0 -78 -1q4 -52 26 -97t42 -45z" />
    <glyph glyph-name="uniE003" unicode="&#xe003;" horiz-adv-x="647" 
d="M1 262q0 65 53.5 120.5t147.5 55.5t184 -93q10 21 20 66t10 64.5t-1 27.5h-419v96h688v-96h-154v-20q0 -139 -65 -251q71 -133 70 -233l-114 1q-14 108 -33 139q-67 -55 -118 -67v-114q77 -44 171 -150l-45 -25q-113 88 -167 88h-4q-29 -37 -75 -37q-42 0 -69.5 23
t-27.5 58.5t29 59.5t64 24q9 0 17 -2v77q-162 41 -162 188zM204 340q-34 0 -63 -23t-29 -58.5t28.5 -64t80.5 -28.5t83 36q9 10 30 51q-56 87 -130 87z" />
    <glyph glyph-name="uniE004" unicode="&#xe004;" horiz-adv-x="340" 
d="M380 503h-216v-505l-107 -1v506h-59v96h58v66q0 70 -64 70q-53 0 -77 -65l-88 57q57 108 181 108q52 0 103 -42t51 -116v-78l218 -2v-94zM220.5 778q20.5 20 49 20t48.5 -20t20 -48.5t-20 -49t-48.5 -20.5t-49 20.5t-20.5 49t20.5 48.5z" />
    <glyph glyph-name="uniE005" unicode="&#xe005;" horiz-adv-x="824" 
d="M604 599h301v-96h-295q-3 -175 -121 -234q53 -64 53 -118t-34 -96q-48 -57 -145 -57q-140 0 -231 128q-98 139 -98 377h-40v96h47q17 117 82 190q77 87 206 87q237 0 275 -277zM143 503q0 -8 -0.5 -19.5t0.5 -26.5l1 -34q0 -34 13 -89h215q135 0 135 169h-364zM188 236
q6 -35 49 -81q57 -61 126.5 -61t69.5 63q0 31 -36.5 55t-78.5 24h-130zM153 599h349q-20 181 -175 181q-141 0 -174 -181zM163 -27q95 -30 192.5 -30t194.5 30v-80q-87 -31 -189 -31t-198 27v84zM661.5 772q20.5 20 49 20t48.5 -20t20 -48.5t-20 -49t-48.5 -20.5t-49 20.5
t-20.5 49t20.5 48.5z" />
    <glyph glyph-name="uniE006" unicode="&#xe006;" horiz-adv-x="560" 
d="M589 599v-96h-129v-503h-107v107q-48 -27 -126 -27q-136 0 -227 169q66 76 66 184q0 48 -23 70h-43v96h589zM152 -30q95 -30 192.5 -30t194.5 30v-80q-87 -31 -189 -31t-198 27v84zM151 312q-4 -17 -32 -66q32 -64 110.5 -64t124.5 42v88h-203zM169 405h185v98h-192
q7 -22 7 -56v-42z" />
    <glyph glyph-name="uniE007" unicode="&#xe007;" horiz-adv-x="534" 
d="M564 599v-96h-130v-361q0 -121 -154 -121h-2q-100 0 -189 85q-90 86 -90 193q0 82 92 82h120v-104h-53q-26 0 -33 -10q-3 -4 -3 -19q0 -36 49 -77.5t95 -41.5q21 0 41.5 8.5t20.5 20.5v345h-330v96h566zM166 678q-18 0 -44 -17t-48 -17t-40 19t-18 45q0 62 122 62
q49 0 121 -33q34 -19 69 -37l-19 20q-16 22 -66 54t-97 32q-16 0 -40.5 -10t-44.5 -10t-39.5 14t-19.5 36q0 60 106 60t235 -132q53 -55 107 -132h-65q-96 46 -219 46z" />
    <glyph glyph-name="uniE008" unicode="&#xe008;" 
d="M-86 -123l-67 -8q-95 0 -95 52q0 35 31 47q18 7 61 7q156 0 281 -191h-30q-92 93 -181 93z" />
    <glyph glyph-name="uniE009" unicode="&#xe009;" horiz-adv-x="250" 
d="M-2 503v96h293v-96h-138v-271l-107 -1v272h-48z" />
    <glyph glyph-name="uniE00A" unicode="&#xe00a;" 
d="M-537 -27q95 -30 193 -30t194 30v-80q-87 -31 -189 -31t-198 27v84z" />
    <glyph glyph-name="uniE00B" unicode="&#xe00b;" horiz-adv-x="170" 
d="M-7 503v96h220v-96h-220z" />
    <glyph glyph-name="uniE00C" unicode="&#xe00c;" horiz-adv-x="290" 
d="M260 18l-7 -55q0 -32 -30 -72.5t-49 -40.5t-19 15q0 10 19 44t19 78q-2 10 -15 35l-44 44l81 81l73 -73z" />
    <glyph glyph-name="uniE00D" unicode="&#xe00d;" horiz-adv-x="90" 
d="M-20 771q-17 -17 -17 -39.5t12.5 -38t12.5 -16.5q0 -24 -25 -24q-13 0 -36 30.5t-23 56.5t4 42q-17 -12 -49.5 -12t-70.5 28.5t-38 58.5q0 18 19 18q1 0 39.5 -19.5t65.5 -19.5q53 0 71 5q37 27 78.5 27t77 -32.5t35.5 -86.5q0 -29 -18 -60t-40 -31t-22 19q0 6 10.5 21.5
t10.5 35t-16 37t-40 17.5t-41 -17zM-2 599h120v-96h-120v96z" />
    <glyph glyph-name="uniE00E" unicode="&#xe00e;" horiz-adv-x="670" 
d="M101 -27q95 -30 192.5 -30t194.5 30v-80q-87 -31 -189 -31t-198 27v84zM101 -153q95 -30 192.5 -30t194.5 30v-80q-87 -31 -189 -31t-198 27v84zM323 209q-12 -27 -29.5 -27t-29.5 27q-21 46 -23 50q-19 27 -53 27q-70 0 -70 -93q0 -57 47 -83q27 -16 50 -16v-93
q-88 0 -145 48q-68 57 -68 166q0 63 48.5 113t96.5 52q-40 51 -46 123h-105v96h720v-96h-229q-17 -87 -46 -123q48 -2 96.5 -52t48.5 -113q0 -108 -70 -166q-58 -48 -141 -48v93q23 0 50 16q45 26 45 83q0 93 -70 93q-33 0 -53 -27q-3 -5 -24 -50zM292 361q51 0 72 142
l-35 1h-27q-31 0 -78 -1q4 -52 26 -97t42 -45z" />
    <glyph glyph-name="uniE00F" unicode="&#xe00f;" horiz-adv-x="614" 
d="M354 -1q-80 0 -148 56q-54 43 -88 107t-34 97h-85v64q0 50 35 83q47 44 150 44v-88h223v141h-408v96h645v-96h-130v-360q0 -144 -160 -144zM152 -20q94 -30 192 -30t195 30v-80q-87 -31 -189 -31t-198 27v84zM407 154v105h-213q0 -43 48 -101q47 -57 114 -57h2
q49 0 49 53z" />
    <glyph glyph-name="uniE010" unicode="&#xe010;" 
d="M-406 872q12 0 20 -25t10 -26q29 -46 54.5 -65t63.5 -19q75 0 117 95q4 16 8.5 31.5t21.5 15.5q25 -1 25 -53t-40 -104q-53 -69 -138 -69q-70 -1 -122 57q-51 56 -51 108q0 54 31 54z" />
    <glyph glyph-name="section" unicode="&#xa7;" 
d="M-352 -285q57 -18 116 -18t116 18v-48q-52 -19 -113 -19t-119 17v50zM-352 -361q57 -18 116 -18t116 18v-48q-52 -19 -113 -18.5t-119 16.5v50zM-120 -128q0 -67 -33 -104t-88 -37t-102.5 49t-47.5 96q0 77 81 77q47 0 47 -23t-28 -27t-28 -21q0 -23 27.5 -49.5
t53.5 -26.5q39 0 39 65v99h79v-98z" />
    <glyph glyph-name="dieresis" unicode="&#xa8;" 
d="M-350 -264q57 -18 116 -18t116 18v-48q-52 -19 -113 -19t-119 17v50zM-350 -340q57 -18 116 -18t116 18v-48q-52 -19 -113 -18.5t-119 16.5v50z" />
    <glyph glyph-name="Aring" unicode="&#xc5;" horiz-adv-x="1219" 
d="M1148 753q-87 125 -211 125t-205 -60q-94 -71 -116 -219h-97v-96h90q0 -238 98 -377q91 -128 231 -128q97 0 145 57q34 42 34 94t-53 116q118 59 121 238h98v96h-555q16 89 60 135t132 46q137 0 166 -106h133zM430 410q0 -45 -11.5 -131t-11.5 -135t18 -69q5 -5 28 -17
t23 -33t-16 -26.5t-51 -5.5t-68.5 45t-33.5 110q0 93 18 165q-22 -12 -43 -24q-29 -14 -62 -14q-83 0 -150 45t-67 118t59.5 115t146.5 42t154 -50.5t67 -134.5zM718 503h364q0 -169 -135 -169h-215q-13 55 -13 89l-1 34v46zM763 236h130q57 0 86 -22t29 -57
q0 -63 -69.5 -63t-126.5 61q-43 46 -49 81zM335 430q-26 72 -122 72q-44 0 -77 -18t-33 -50t38 -50q32 -16 72 -16t73.5 18.5t48.5 43.5z" />
    <glyph glyph-name="AE" unicode="&#xc6;" horiz-adv-x="0" 
d="M-71 753q143 240 261 350q195 182 447 182q164 0 254 -180q38 -75 57 -180h-97q-13 76 -39 131q-63 131 -181 131q-218 0 -418 -210q-120 -126 -213 -303z" />
    <glyph glyph-name="Ograve" unicode="&#xd2;" horiz-adv-x="550" 
d="M202 624v-624h-107v624h107zM449 624v-624h-107v624h107z" />
    <glyph glyph-name="Uacute" unicode="&#xda;" horiz-adv-x="450" 
d="M180.5 188q-16.5 -17 -16.5 -40.5t16.5 -40.5t40.5 -17t40.5 17t16.5 40.5t-16.5 40.5t-40.5 17t-40.5 -17zM131 58q-37 37 -37 89.5t37 89.5t90 37t90 -37t37 -89.5t-37 -89.5t-90 -37t-90 37zM180.5 518q-16.5 -17 -16.5 -40.5t16.5 -40.5t40.5 -17t40.5 17t16.5 40.5
t-16.5 40.5t-40.5 17t-40.5 -17zM131 388q-37 37 -37 89.5t37 89.5t90 37t90 -37t37 -89.5t-37 -89.5t-90 -37t-90 37z" />
    <glyph glyph-name="ae" unicode="&#xe6;" 
d="M-398 -74q20 20 48 21h3q27 0 48 -20t21 -47q0 -30 -20 -50t-48 -21h-3q-27 0 -48 20t-21 47q0 29 20 50z" />
    <glyph glyph-name="udieresis" unicode="&#xfc;" 
d="M-350 -264q57 -18 116 -18t116 18v-48q-52 -19 -113 -19t-119 17v50z" />
    <glyph glyph-name="aring" unicode="&#xe5;" horiz-adv-x="0" 
d="M-71 753q143 240 261 350q195 182 447 182q164 0 254 -180q38 -75 57 -180h-97q-13 76 -39 131q-63 131 -181 131q-218 0 -418 -210q-120 -126 -213 -303z" />
  </font>
</defs>
</svg>
