<?xml version="1.0" standalone="no"?>
<!DOCTYPE svg PUBLIC "-//W3C//DTD SVG 1.1//EN" "http://www.w3.org/Graphics/SVG/1.1/DTD/svg11.dtd" >
<svg xmlns="http://www.w3.org/2000/svg" xmlns:xlink="http://www.w3.org/1999/xlink" version="1.1">
<metadata></metadata>
<defs>
<font id="gurbaniakharthicktruethick" horiz-adv-x="20" >
<font-face units-per-em="2000" ascent="1600" descent="-400" />
<missing-glyph horiz-adv-x="700" />
<glyph unicode="&#xd;" horiz-adv-x="700" />
<glyph unicode=" "  horiz-adv-x="700" />
<glyph unicode="&#x09;" horiz-adv-x="700" />
<glyph unicode="&#xa0;" horiz-adv-x="700" />
<glyph unicode="!" horiz-adv-x="572" d="M406 474h-238l-50 954h338zM114 140q0 82 44 124t128 42q81 0 125.5 -43t44.5 -123q0 -77 -45 -121.5t-125 -44.5q-82 0 -127 43.5t-45 122.5z" />
<glyph unicode="&#x22;" horiz-adv-x="944" d="M402 1428l-40 -516h-192l-40 516h272zM814 1428l-40 -516h-192l-40 516h272z" />
<glyph unicode="#" horiz-adv-x="1291" d="M976 824l-46 -226h252v-202h-290l-76 -396h-214l76 396h-190l-74 -396h-210l72 396h-232v202h270l46 226h-246v204h282l76 400h214l-76 -400h194l76 400h210l-76 -400h234v-204h-272zM526 598h192l46 226h-192z" />
<glyph unicode="$" horiz-adv-x="1143" d="M1066 446q0 -155 -112 -249t-314 -113v-200h-134v196q-238 5 -418 84v258q85 -42 204.5 -74.5t213.5 -37.5v302l-66 26q-193 76 -273.5 165.5t-80.5 220.5q0 142 111 233.5t309 110.5v150h134v-146q224 -10 404 -90l-92 -228q-152 62 -312 76v-288q190 -73 270.5 -127 t118 -118.5t37.5 -150.5zM772 432q0 41 -33 69t-99 59v-244q132 23 132 116zM380 1024q0 -43 29.5 -70.5t96.5 -57.5v230q-126 -19 -126 -102z" />
<glyph unicode="%" horiz-adv-x="1801" d="M308 1000q0 -124 22 -185t70 -61q94 0 94 246q0 244 -94 244q-49 0 -70.5 -60t-21.5 -184zM740 1002q0 -225 -87 -337.5t-255 -112.5q-161 0 -248.5 115.5t-87.5 334.5q0 446 336 446q165 0 253.5 -115.5t88.5 -330.5zM1412 1428l-792 -1428h-234l792 1428h234zM1308 430 q0 -124 22 -185t70 -61q94 0 94 246q0 244 -94 244q-49 0 -70.5 -60t-21.5 -184zM1740 432q0 -224 -87 -337t-255 -113q-161 0 -248.5 116t-87.5 334q0 446 336 446q165 0 253.5 -115.5t88.5 -330.5z" />
<glyph unicode="&#x26;" horiz-adv-x="1132" d="M972 987v-350h-526q-147 0 -147 -109q0 -48 38 -106q12 -15 43 -55q194 146 336 146q107 0 189 -63q103 -80 103 -204q0 -112 -80 -174q-129 -101 -268 -93q-222 11 -412 205q-160 164 -160 347q0 173 140 265q44 29 141 55h392v136h-770v214h1174v-214h-193zM86 -23 q-56 0 -96 40t-40 97q0 56 40 96t96 40q57 0 97 -40t40 -96q0 -57 -40 -97t-97 -40zM692 321q-66 -9 -156 -98q103 -46 147 -46q117 0 117 70q0 6 -1 13q-11 62 -84 62q-11 0 -23 -1z" />
<glyph unicode="'" horiz-adv-x="532" d="M402 1428l-40 -516h-192l-40 516h272z" />
<glyph unicode="(" horiz-adv-x="677" d="M80 548q0 259 75.5 484.5t218.5 395.5h244q-138 -188 -208 -414t-70 -464q0 -239 71.5 -462.5t204.5 -403.5h-242q-144 166 -219 387.5t-75 476.5z" />
<glyph unicode=")" horiz-adv-x="677" d="M598 548q0 -257 -76 -478.5t-218 -385.5h-242q132 180 204 403t72 463q0 238 -70.5 463.5t-207.5 414.5h244q144 -171 219 -397t75 -483z" />
<glyph unicode="*" horiz-adv-x="1089" d="M672 1520l-40 -360l364 102l32 -246l-332 -24l218 -290l-222 -118l-152 306l-134 -304l-230 116l216 290l-330 26l38 244l356 -102l-40 360h256z" />
<glyph unicode="+" horiz-adv-x="1143" d="M464 598h-378v214h378v380h214v-380h378v-214h-378v-376h-214v376z" />
<glyph unicode="," horiz-adv-x="570" d="M448 210q-51 -197 -172 -468h-214q63 260 98 490h274z" />
<glyph unicode="-" horiz-adv-x="643" d="M60 414v244h524v-244h-524z" />
<glyph unicode="." horiz-adv-x="570" d="M114 140q0 82 44 124t128 42q81 0 125.5 -43t44.5 -123q0 -77 -45 -121.5t-125 -44.5q-82 0 -127 43.5t-45 122.5z" />
<glyph unicode="/" horiz-adv-x="826" d="M816 1428l-532 -1428h-270l532 1428h270z" />
<glyph unicode="0" horiz-adv-x="1233" d="M583 70q-230 0 -390.5 160.5t-160.5 389.5q0 231 160.5 392t390.5 161q231 0 391.5 -160.5t160.5 -392.5q0 -230 -161 -390t-391 -160zM583 961q-142 0 -240.5 -99.5t-98.5 -241.5q0 -141 99 -239.5t240 -98.5q142 0 241 98.5t99 239.5q0 143 -98.5 242t-241.5 99z" />
<glyph unicode="1" horiz-adv-x="1008" d="M922 -98q-138 0 -217 210q-60 158 -60 316q0 93 10 199q-94 -47 -212 -47q-161 0 -275 82q-127 91 -133 248q-8 183 138 284q128 88 310 81q233 -10 323 -136q68 -97 68 -299q0 -42 -7 -199q-1 -26 -8 -118q-6 -73 -6 -119q0 -160 54 -283q81 -133 81 -156q0 -63 -66 -63 zM463 1061q-105 0 -164 -42q-53 -37 -53 -92t50 -94q54 -42 141 -42q68 0 141 31q92 38 89 97q-6 142 -204 142z" />
<glyph unicode="2" horiz-adv-x="1154" d="M677 273q189 -106 189 -181q0 -86 -91 -86q-35 0 -172 70q-167 85 -191 95q-190 16 -221 23q-147 34 -153 128q-11 165 149 165q45 0 128.5 -30.5t128.5 -30.5q154 1 272 101q126 106 123 256q-5 259 -338 259q-111 0 -228 -31q-111 -29 -130 -29q-100 0 -100 101 q0 93 192 138q129 31 275 31q544 0 541 -470q-3 -364 -374 -509z" />
<glyph unicode="3" horiz-adv-x="1169" d="M1044 506q-8 -185 -221 -290q157 -56 157 -126q0 -88 -101 -88q-86 0 -231 62q-174 75 -230 87q-8 5 -111 25l-106 22q-79 16 -124 62q-42 43 -42 97t42.5 91t113.5 37q84 0 189.5 -70t173.5 -70q77 0 179.5 59.5t93.5 118.5q-15 99 -139 99q-59 0 -175.5 -16.5 t-175.5 -16.5q-210 0 -212 121q-1 73 94 110q69 26 153 26q48 0 142.5 -13.5t142.5 -13.5q58 0 114 20q75 27 75 76q0 59 -109 91q-99 30 -206 30q-86 0 -290 -33q-72 -12 -90 -12q-113 0 -113 101q0 158 500 158q184 0 327 -66q190 -88 190 -262q0 -123 -110 -210 q103 -89 99 -206z" />
<glyph unicode="4" horiz-adv-x="1075" d="M184 575q-71 67 -101 116q-49 80 -49 179q0 172 113 263q91 73 278 110v-212q-92 -26 -130 -56q-50 -40 -50 -112q0 -98 81 -150q70 -45 178 -45t178 45q81 52 81 150q0 72 -51 112q-38 30 -130 56v212q188 -37 278 -110q114 -91 114 -263q0 -141 -131 -278 q-11 -11 -17 -19q76 -94 82 -105q26 -47 26 -141q0 -168 -142 -256q-118 -73 -288 -73q-171 0 -288 73q-142 88 -142 256q0 94 28 142zM504 455q-115 0 -161 -21q-58 -26 -58 -107q0 -114 219 -114q218 0 218 114q0 84 -67 111q-42 17 -151 17z" />
<glyph unicode="5" horiz-adv-x="1102" d="M749 0v256q-131 -73 -267 -73q-162 0 -302 104q-99 73 -123 145q-3 59 40 169q35 84 69 169q20 60 20 99q0 118 -84 118h-91v214h155q106 0 175 -116q58 -98 58 -205q0 -188 -117 -400q114 -85 217 -85q107 0 250 96v710h212v-1201h-212z" />
<glyph unicode="6" horiz-adv-x="978" d="M714 1355q-34 0 -65 -24.5t-31 -54.5q0 -65 59 -115l112 -74q60 -43 60 -93q0 -49 -36 -78.5t-84 -24.5q-58 10 -175 32q-88 16 -140 16q-67 0 -116 -27q-59 -32 -57 -88q6 -157 173 -157q34 0 100.5 15t101.5 15q98 0 159 -42q55 -38 55 -91q0 -50 -52 -83 q-59 -37 -164 -37q-34 0 -100.5 8.5t-99.5 8.5q-173 0 -173 -151q0 -96 140 -96h342q67 0 104 -38q32 -32 32 -79q0 -61 -44 -83q-27 -14 -92 -14h-396q-134 0 -218 103q-77 95 -77 231q0 69 29 125l66 108q-34 65 -66.5 131.5t-32.5 145.5q0 152 129 234q107 69 259 69 q20 0 43 -2q-39 72 -39 140q0 107 84 178q81 69 196 69q73 0 140 -30q81 -37 88 -97q8 -68 -74 -68q-24 0 -70 9t-70 9z" />
<glyph unicode="7" horiz-adv-x="1184" d="M479 999q-42 -25 -58 -53q-5 -10 -25 -72q-38 -83 -116 -83q-47 0 -78 35q-35 38 -35 105q0 142 166 236q142 81 284 76q219 -8 348 -143q119 -126 119 -309q0 -276 -244 -458q-109 -81 -317 -184q-184 -91 -342 -135q-56 -16 -95 -16q-71 0 -77 52q-9 71 136 132 q173 72 352 174q224 128 300 220t76 228q0 102 -81 168q-76 61 -180 61q-73 0 -133 -34z" />
<glyph unicode="8" horiz-adv-x="1239" d="M383 829q-1 -289 111 -435q124 -160 405 -181q46 3 136 1q93 -11 93 -104q0 -110 -234 -110q-236 0 -408 110q-164 104 -247 291q-70 160 -70 390q0 20 1 38h-56q-90 0 -90 94q0 104 83.5 192t187.5 88q90 0 90 -92v-69h745v-213h-747z" />
<glyph unicode="9" horiz-adv-x="1226" d="M894 0q-224 0 -390 100q-177 106 -262 292q-73 159 -73 389q0 24 1 46h-60q-91 0 -91 98q0 161 159 244q72 37 119 37q88 0 88 -90v-75h307q-48 81 -48 165q0 111 77 183q75 69 192 69q80 0 159 -34.5t87 -95.5q9 -70 -76 -70q-24 0 -70.5 9.5t-70.5 9.5q-77 0 -77 -69 q0 -53 43 -103q6 -5 85 -77q83 -75 83 -111q0 -17 -9 -32q-36 -59 -171 -59l-513 1q-2 -403 239 -539q119 -67 278 -78q-19 1 91 1q125 0 135 -69q1 -11 1 -21q0 -64 -59 -94q-51 -27 -174 -27z" />
<glyph unicode=":" horiz-adv-x="570" d="M114 140q0 82 44 124t128 42q81 0 125.5 -43t44.5 -123q0 -77 -45 -121.5t-125 -44.5q-82 0 -127 43.5t-45 122.5zM114 946q0 82 44 124t128 42q81 0 125.5 -43t44.5 -123q0 -79 -45.5 -122.5t-124.5 -43.5q-82 0 -127 43t-45 123z" />
<glyph unicode=";" horiz-adv-x="570" d="M434 232l14 -22q-51 -197 -172 -468h-214q63 260 98 490h274zM114 946q0 82 44 124t128 42q81 0 125.5 -43t44.5 -123q0 -79 -45.5 -122.5t-124.5 -43.5q-82 0 -127 43t-45 123z" />
<glyph unicode="&#x3c;" horiz-adv-x="2080" d="M2077 1229q-97 69 -143 98q-75 49 -154 89q-124 63 -290 63q-239 0 -297 -278h863v-214h-75q-41 -115 -86 -198q-49 -91 -134 -156q176 -120 185 -294q8 -179 -90 -262q-112 -95 -264 -95q-96 0 -197 35q-111 38 -170 102q-162 172 -198 341q-53 244 -53 527h-40v214h45 q65 491 511 491q142 0 285 -54q96 -36 174 -91q62 -44 128 -97v-221zM701 -24q-74 82 -116 229q-34 119 -34 219q0 101 12 210q-95 -41 -200 -41q-150 0 -249 79q-112 88 -115 245q-3 196 89 285q99 94 338 94q372 0 372 -396q0 -24 -2 -50q0 -61 -9 -207q-20 -230 -20 -236 q0 -172 51 -287q4 -9 48 -78q37 -57 37 -77q0 -63 -56 -63q-33 0 -80 25q-42 22 -66 49zM1188 987q1 -116 12 -253q216 -1 170 -2q100 2 167 23q145 45 228 232h-577zM1518 515q-56 -8 -280 -9q107 -314 352 -308q147 4 147 98q0 73 -77.5 150.5t-141.5 68.5zM388 1079 q-110 0 -152 -36q-36 -33 -34 -109q2 -70 41 -98q33 -24 116 -30q87 -5 142 22q84 42 84 108q2 143 -197 143z" />
<glyph unicode="=" horiz-adv-x="1143" d="M86 788v212h970v-212h-970zM86 408v214h970v-214h-970z" />
<glyph unicode="&#x3e;" horiz-adv-x="1182" d="M1571 1230q-77 0 -145 147q-49 108 -151.5 173.5t-224.5 65.5q-125 0 -288 -117q-32 -23 -227 -182q-191 -157 -332 -157q-122 0 -207 83v217q32 -20 109 -53t93 -32q77 8 193 98q102 84 253 202q205 144 406 144q176 0 321 -86.5t223 -235.5q23 -43 48 -131q4 -15 4 -34 q0 -102 -75 -102z" />
<glyph unicode="?" horiz-adv-x="954" d="M270 474v72q0 94 40 163t146 147q103 73 135.5 119t32.5 103q0 63 -47 96.5t-131 33.5q-146 0 -334 -96l-106 214q218 122 462 122q201 0 319.5 -96.5t118.5 -257.5q0 -107 -48.5 -185.5t-185.5 -176.5q-94 -69 -119 -105t-25 -95v-58h-258zM238 140q0 82 44 124t128 42 q81 0 125.5 -43t44.5 -123q0 -77 -45 -121.5t-125 -44.5q-82 0 -127 43.5t-45 122.5z" />
<glyph unicode="@" d="M-322 -212q22 -15 66 -24q65 -12 72 -15q103 -49 103 -133q0 -82 -62 -82q-48 0 -167 69q-219 126 -312 348h103q36 -52 89.5 -89.5t107.5 -73.5z" />
<glyph unicode="A" horiz-adv-x="1430" d="M1270 987v-987h-216v594q-78 -33 -120 -66q-55 -42 -82 -143q-42 -158 -53 -181q-47 -98 -148 -98q-62 0 -106 29q-53 35 -53 100q0 86 100 203.5t100 194.5q0 117 -53 235q-89 -65 -184 -190q-106 -140 -108 -222q-3 -78 -49 -136q-51 -63 -130 -63q-63 0 -106 38 q-46 40 -46 103q0 67 70.5 165.5t70.5 173.5q0 250 -71 250h-99v214h162q90 0 151 -122q46 -90 63 -212q72 82 143 163q101 102 173 96q101 -22 166 -191q35 -92 52 -197q83 55 157 84v379h403v-214h-187z" />
<glyph unicode="B" horiz-adv-x="1108" d="M986 987q-18 -211 -143 -354q108 -131 108 -259q0 -199 -145 -306q-132 -96 -332 -88q-83 3 -191 40q-118 39 -177 91q-36 32 -36 76q0 74 83 74q40 0 101 -23q75 -29 98 -34q117 -24 183 -24q31 0 52 6q62 15 103 69t41 119q0 59 -30 104q-167 -142 -351 -142 q-47 0 -95 9q-93 16 -154 90t-61 168q0 149 116 231q90 63 258 60q141 -2 279 -105q61 77 78 198h-788v214h1155v-214h-152zM400 684q-138 0 -138 -79q0 -48 55 -57q65 -10 128 13q44 15 106 67q-77 56 -151 56z" />
<glyph unicode="C" horiz-adv-x="1108" d="M947 987v-347h-649q-40 0 -24 -62q7 -29 20 -80q1 0 107 5q110 6 119 6q284 0 391 -60q111 -63 111 -206q0 -130 -103 -194q-110 -68 -399 -68q-290 0 -403 67q-91 55 -91 200q0 82 38 131q16 21 47 42q-51 108 -51 195q0 108 77 177q67 60 151 60h447v134h-750v214h1145 v-214h-183zM606 283v-89q189 6 189 48q0 9 -6 15q-23 22 -183 26zM428 283q-67 -1 -91 -3q-70 -6 -87 -22q-8 -6 -8 -16q0 -42 186 -48v89z" />
<glyph unicode="D" horiz-adv-x="1102" d="M942 987v-987h-213v238q-97 -62 -265 -62q-122 0 -246 85q-110 75 -176 180q100 249 100 443q0 53 -7 103h-144v214h1131v-214h-180zM729 987h-382q7 -63 7 -119q0 -146 -73 -378q88 -99 204 -99q97 0 244 81v515z" />
<glyph unicode="E" horiz-adv-x="1274" d="M1151 987q-80 -237 -238 -346q168 -119 168 -326q0 -136 -90 -222q-102 -98 -291 -97q-369 2 -517 344q-100 232 -100 647h-87v214h91q27 238 172 385q153 155 389 155q27 0 79.5 1t78.5 1q404 0 398 -139q-4 -82 -246 -83q-87 2 -260 4q-181 -1 -271 -81 q-84 -73 -120 -243h999v-214h-155zM297 987q1 -142 10 -252q283 -2 190 -3q117 2 187 22q159 45 243 233h-630zM657 531q-61 -9 -311 -10q105 -313 345 -307q157 4 157 112q0 72 -65 142.5t-126 62.5z" />
<glyph unicode="F" horiz-adv-x="1140" d="M980 987v-414h-611q10 -110 88 -221q95 118 285 128q176 8 252 -124q34 -61 34 -134q0 -90 -51 -155q-76 -98 -254 -98q-263 0 -468 293q-88 124 -100 311h-49q-105 0 -105 106q0 104 89 176q83 67 186 67q90 0 90 -77v-59h401v201h-783v214h1189v-214h-193zM731 276 q-68 -4 -128 -71q68 -35 134 -32q85 3 80 50q-5 57 -86 53z" />
<glyph unicode="G" horiz-adv-x="1300" d="M1140 987v-987h-214v205q-55 -20 -106 -20q-103 0 -208 94q-118 -101 -230 -101t-234 93q-125 95 -134 195q43 80 87 213q49 147 49 218q0 81 -58 90h-105v214h165q50 0 106 -47q48 -41 71 -88q39 -78 35 -170t-116 -416q95 -89 134 -89q136 0 136 214q0 45 -17.5 131.5 t-17.5 131.5q0 71 41 157q50 105 118 105q60 0 101 -105q33 -83 33 -148q0 -54 -27.5 -158t-27.5 -158q0 -92 25.5 -127.5t81.5 -35.5q48 0 65 8q23 10 33 43v752h400v-214h-186z" />
<glyph unicode="H" d="M-243 -487q-80 -91 -197 -91q-128 0 -240 114q-100 104 -100 209q0 171 180 171q104 0 104 -53q0 -50 -70 -60q-54 -8 -54 -45q0 -52 61.5 -111t118.5 -59q87 0 87 146v219h176v-217q0 -148 -66 -223z" />
<glyph unicode="I" horiz-adv-x="500" d="M310 987v-987h-211v987h-109v214h109q0 137 -18 196q-34 109 -141 109q-73 0 -106 -33q-29 -29 -38 -100q-3 -18 -11 -78h-202q-1 26 -1 49q0 226 149 319q83 52 178 52q239 0 331 -156q68 -114 70 -358h218v-214h-218z" />
<glyph unicode="J" horiz-adv-x="1140" d="M979 987q-51 -171 -156 -254q156 -94 156 -278q0 -177 -151 -273q-94 -60 -237 -55q46 -66 46 -93q0 -62 -58 -62q-73 0 -171 99q-96 96 -171 92q-120 -6 -120 127q0 60 40.5 98t104.5 38q52 0 108 -52t108 -53q120 -3 176 13q100 27 107 117q4 64 -60.5 121.5 t-128.5 50.5q-53 -6 -246 -57q-32 -10 -98 -24q-44 6 -87 31q-56 33 -56 75q0 66 155 105l18 4q-111 87 -166 230h-105v214h1179v-214h-187zM308 987q77 -103 86 -112q67 -60 170 -56q74 3 126 58q27 29 72 110h-454z" />
<glyph unicode="K" horiz-adv-x="1112" d="M951 987v-987h-212v251q-102 -55 -233 -55q-314 0 -452 240q40 108 80 217q41 127 41 227q0 59 -5 76q-9 31 -41 31h-142v214h196q192 0 202 -313h354v313h404v-214h-192zM739 675h-374q-20 -89 -67 -198q93 -68 250 -68q88 0 191 88v178z" />
<glyph unicode="L" horiz-adv-x="1340" d="M1092 987l-89 -165q129 -42 206 -155q75 -109 75 -247q0 -178 -125 -302t-304 -124h-52v209h52q91 0 154 63t63 154q0 82 -45 144q-48 65 -124 76l-157 -290h-76l-158 290q-77 -11 -124 -74.5t-47 -145.5q0 -90 64 -153.5t153 -63.5h52v-209h-52q-177 0 -302 124 t-125 302q0 137 77 248t206 154l-89 165h-341v214h1381v-214h-273zM58 -65q-57 0 -97 40t-40 97q0 56 40 96t97 40t97 -40t40 -96q0 -57 -40 -97t-97 -40zM561 987l148 -285l147 285h-295z" />
<glyph unicode="M" d="M-385 1468q3 -20 17 -63q31 -67 31 -69q0 -40 -39 -40q-22 0 -42 14q-114 80 -114 205q0 111 83 183t197 72t197 -72t83 -183q0 -125 -114 -205q-20 -14 -42 -14q-39 0 -39 40q0 2 32 69q10 22 16 63q9 56 -26.5 95.5t-106.5 39.5t-106.5 -39.5t-26.5 -95.5z" />
<glyph unicode="N" horiz-adv-x="246" d="M-23 987v214h291v-214h-291zM-24 1473q0 60 43 103t103 43q61 0 103.5 -43t42.5 -103q0 -61 -42.5 -104t-103.5 -43q-60 0 -103 43t-43 104z" />
<glyph unicode="O" d="M-264 1441q0 31 -28 65t-75 34t-76.5 -30t-29.5 -76q0 -28 11 -56q25 -67 17 -89q-21 -21 -42 -21q-30 0 -71 33q-38 30 -50 59q-11 24 -18.5 74t-7.5 52q-5 3 -83 10q-83 9 -137.5 36.5t-90.5 82t-36 112.5q0 85 53 92h3q25 0 44 -43q27 -63 30 -65q41 -52 176 -52 q49 0 162 27q109 26 164 24q125 -5 191 -96q45 -61 45 -149q0 -60 -42 -124q-47 -72 -106 -72q-32 0 -48 34q12 22 30 67q15 49 15 71z" />
<glyph unicode="P" horiz-adv-x="1140" d="M972 987v-350h-546q-147 0 -147 -109q0 -48 38 -106q12 -15 43 -55q194 146 346 146q107 0 189 -63q103 -80 103 -204q0 -112 -80 -174q-129 -101 -268 -93q-232 11 -422 205q-160 164 -160 347q0 173 140 265q44 29 141 55h412v136h-770v214h1174v-214h-193zM682 321 q-66 -9 -156 -98q103 -46 147 -46q117 0 117 70q0 6 -1 13q-11 62 -84 62q-11 0 -23 -1z" />
<glyph unicode="Q" horiz-adv-x="1112" d="M951 987v-987h-212v205q-136 -70 -272 -67q-129 2 -257 95q-101 73 -165 169q96 244 96 458q0 65 -9 127h-143v214h1149v-214h-187zM739 987h-392q16 -106 8 -191h384v191zM739 583h-423l-33 -130q87 -101 204 -101q102 0 252 83v148z" />
<glyph unicode="R" d="M-78 -369q27 -46 27 -75q0 -37 -32 -37q-24 0 -60 20.5t-104 79.5q-61 52 -109 74q-66 -75 -140 -76q-70 -2 -109 39.5t-38 108.5q2 69 47 112.5t117 43.5q42 0 95 -16q6 14 21 57h175q-31 -89 -55 -135q93 -75 165 -196z" />
<glyph unicode="S" horiz-adv-x="1140" d="M979 987v-987h-214v475h-373q-30 -124 -55 -233q-43 -189 -159 -189q-62 0 -106 44.5t-44 107.5q0 62 77 222q82 169 82 276q0 57 -16 135q-3 16 -35 149h-149v214h1185v-214h-193zM554 31q-56 0 -96.5 40t-40.5 97q0 56 40.5 96t96.5 40q57 0 97 -40t40 -96 q0 -57 -40 -97t-97 -40zM765 987h-408q39 -150 45 -297h363v297z" />
<glyph unicode="T" horiz-adv-x="1140" d="M639 987l1 -127q177 -38 288.5 -158t113.5 -283q2 -209 -158 -323q-139 -100 -351 -100q-211 0 -351 100q-160 114 -158 323q2 163 115 284q110 119 288 157v127h-431v214h1164v-214h-521zM237 412q-1 -205 296 -205t296 205q0 89 -85 166.5t-211 77.5t-210.5 -77.5 t-85.5 -166.5z" />
<glyph unicode="U" d="M-586 -152q163 0 340 68v-178q-52 -19 -104 -33q-126 -33 -236 -35q-152 -3 -344 68v178q186 -68 344 -68zM-586 -448q163 0 340 64v-178q-52 -17 -104 -30q-126 -31 -236 -34q-152 -4 -344 64v178q186 -64 344 -64z" />
<glyph unicode="V" horiz-adv-x="1160" d="M1011 987q-44 -153 -146 -252q129 -90 129 -236q0 -107 -60.5 -198.5t-158.5 -133.5q71 -92 71 -149q0 -40 -46 -40q-45 0 -121 57q-50 40 -99 80q-117 -8 -264 19q6 -17 19 -51q11 -24 11 -47q0 -54 -47 -54q-82 0 -208 189q-69 103 -69 167q0 85 89 85q28 0 103 -34 q156 -69 305 -69q111 0 190 56q73 52 73 114q0 100 -179 100q-45 0 -252 -20q-18 -2 -40 -2q-89 0 -152 25q-83 33 -83 103q0 136 272 130q37 -1 113 -12.5t113 -11.5q116 0 211 185h-790v214h1188v-214h-172z" />
<glyph unicode="W" horiz-adv-x="480" d="M193 1309q-64 0 -109 46t-45 111t45 111t109 46q63 0 108 -46t45 -111t-45 -111t-108 -46zM292 987v-547h-208v547h-107v214h531v-214h-216z" />
<glyph unicode="X" horiz-adv-x="1220" d="M1059 987v-987h-211v488h-133v-129q0 -119 -70 -194q-73 -78 -191 -78q-125 0 -264 96t-186 213q43 130 95 328q16 92 16 156q0 27 -13 107h-114v214h1269v-214h-198zM848 987h-531q11 -70 11 -110q0 -195 -90 -436q47 -53 94 -82q101 -64 127 -64q40 0 45 121 q2 45 -1 133q-4 117 -4 152h349v286z" />
<glyph unicode="Y" d="M-401 1300q-138 70 -288 70q-34 0 -76 -3q-53 -4 -66 -4q-116 0 -116 75q0 44 41 75q33 26 74 31q33 4 65 4q185 0 415 -168q-44 68 -144 158q-115 104 -275 93q-58 -4 -63 -4q-94 0 -94 74q0 53 56 86q47 26 96 26q193 0 332 -144q101 -105 194 -314q32 -72 32 -99 q0 -37 -27 -37q-1 0 -29 17q-36 18 -127 64z" />
<glyph unicode="Z" horiz-adv-x="1352" d="M1192 987v-987h-213v987h-175v-679q0 -308 -278 -308q-174 0 -300 148q-120 140 -120 314q0 141 96 233.5t237 92.5h152v199h-602v214h1393v-214h-190zM85 -89q-57 0 -97 40t-40 97q0 56 40 96t97 40t97 -40t40 -96q0 -57 -40 -97t-97 -40zM591 578h-96q-177 0 -177 -114 q0 -83 64 -165q67 -87 144 -87q53 0 65 53v313z" />
<glyph unicode="[" horiz-adv-x="1200" d="M514 -19v1220h188v-1220h-188z" />
<glyph unicode="\" horiz-adv-x="1120" d="M960 987v-334h-595q-24 0 -56.5 -16.5t-33.5 -33.5q-1 -20 18.5 -52.5t33.5 -32.5h625v-211h-409q62 -145 231 -145q50 0 192 39l-52 -176q-152 -61 -217 -61q-141 0 -254 113q-91 89 -134 212q-39 26 -89 43q-73 26 -117 101q-40 70 -40 154q0 174 177 243 q-15 20 -47 57q-12 17 -38 100h-167v214h1152v-214h-180zM752 987h-378q3 -23 33 -69q68 -60 135 -60h210v129z" />
<glyph unicode="]" horiz-adv-x="1140" d="M652 -19v1220h206v-1220h-206zM271 -19v1220h206v-1220h-206z" />
<glyph unicode="^" horiz-adv-x="1112" d="M951 987v-987h-211v282q-97 -48 -234 -48q-142 0 -262 52q-133 59 -195 165q9 52 40 125q45 103 51 120q36 105 29 239q-2 52 -74 52h-104v214h189q70 0 125 -56q46 -49 66 -119q10 -38 12 -138h357v313h403v-214h-192zM127 -34q-57 0 -97.5 40.5t-40.5 97.5 q0 58 40.5 98.5t97.5 40.5t97.5 -40.5t40.5 -98.5q0 -57 -40.5 -97.5t-97.5 -40.5zM740 675h-383q-25 -76 -64 -174q83 -50 213 -50t234 46v178z" />
<glyph unicode="_" horiz-adv-x="822" d="M826 -316h-830v136h830v-136z" />
<glyph unicode="`" d="M-491 1468q-28 57 -29 140q-1 98 38 98q27 0 49 -70q29 -94 65 -134q49 -55 138 -55q88 0 137 55q36 40 65 134q22 70 49 70q39 0 38 -98q-1 -83 -29 -140q-37 -76 -108 -124t-152 -48q-82 0 -152.5 48t-108.5 124z" />
<glyph unicode="a" horiz-adv-x="1262" d="M1141 987q-84 -251 -240 -357q158 -126 158 -306q0 -138 -96 -233q-103 -101 -274 -101q-616 0 -616 997h-86v214h88q15 234 164 365q145 128 382 128q236 0 376 -129.5t155 -363.5h132v-214h-143zM619 1480q-303 0 -330 -279h646q-16 146 -85 210q-74 69 -231 69z M287 987q1 -154 10 -262q282 -2 190 -3q117 1 187 21q154 44 243 244h-630zM652 521q-61 -9 -317 -10q106 -313 346 -307q160 4 160 114q0 72 -64 141.5t-125 61.5z" />
<glyph unicode="b" horiz-adv-x="1090" d="M933 987v-987h-215v148q-123 -68 -252 -68q-178 0 -320 126q-75 66 -115 170q45 97 112 168q45 47 147 124q-153 126 -194 319h-105v214h1121v-214h-179zM718 987h-407q46 -120 190 -224h217v224zM718 550h-241q-73 -41 -199 -177q110 -81 207 -81q56 0 125 17 q82 21 108 54v187z" />
<glyph unicode="c" horiz-adv-x="1146" d="M985 987v-629q0 -177 -111 -272q-102 -86 -268 -86q-308 0 -417 317q-19 57 -29 197h-49q-112 0 -112 119q0 103 80 172q76 66 179 66q112 0 112 -103v-42h400v261h-781v214h1178v-214h-182zM770 514h-397q7 -142 44 -207q53 -92 181 -92q172 0 172 133v166z" />
<glyph unicode="d" horiz-adv-x="1140" d="M980 987v-484h-605q7 -147 62 -216q65 -82 209 -82q52 0 120 25q58 22 115 44q39 14 62 14q66 0 66 -62q0 -67 -103 -143q-115 -83 -264 -83q-458 0 -476 501h-75q-84 0 -84 95q0 105 85.5 193.5t189.5 88.5q90 0 90 -88v-75h397v272h-778v214h1173v-214h-184z" />
<glyph unicode="e" horiz-adv-x="1136" d="M975 987v-417h-51q-36 0 -103 2t-99 2q-154 0 -249 -33q-126 -44 -221 -162q71 -71 186 -127q122 -60 204 -56q81 4 160 80q86 82 113 82q59 0 59 -72q0 -88 -86 -173q-105 -103 -210 -111q-18 -1 -37 -1q-185 0 -368 101q-197 109 -259 269q37 151 261 310 q-36 36 -103 113q-59 80 -87 193h-94v214h1171v-214h-187zM764 987h-456q22 -59 53 -93q85 -94 168 -111h235v204z" />
<glyph unicode="f" horiz-adv-x="1140" d="M962 987q-42 -86 -88 -143q-40 -38 -112 -107q101 -42 157 -131q53 -83 53 -185q0 -208 -182 -322q-199 -126 -373 -127q-147 -1 -250 52q-131 69 -136 209q-5 130 85 198q79 61 211 61q238 0 414 -157q26 50 26 95q0 87 -90 142q-82 50 -194 50q-41 0 -119.5 -15.5 t-119.5 -15.5q-187 0 -187 133q0 76 76 117q60 32 135 32q37 0 107.5 -19.5t107.5 -19.5q144 0 252 153h-745v214l1170 1v-215h-198zM351 296q-102 0 -103 -50q-1 -23 30.5 -45.5t68.5 -27.5q23 -3 46 -3q53 0 185 35q-112 91 -227 91z" />
<glyph unicode="g" horiz-adv-x="1236" d="M1258 987h-183v-987h-213v987h-164v-679q0 -308 -276 -308q-171 0 -285 148q-106 137 -106 314q0 143 86.5 235t226.5 92h141v198h-490v214h1263v-214zM485 578h-96q-97 0 -126 -30q-21 -22 -21 -84q0 -87 49 -165q54 -86 129 -86q53 0 65 52v313z" />
<glyph unicode="h" horiz-adv-x="1072" d="M912 987v-657q0 -144 -82 -235q-85 -95 -230 -95q-192 0 -366.5 168.5t-174.5 359.5q0 108 86 182q82 71 189 71h136v-212h-121q-79 0 -79 -59q0 -78 112 -186q116 -111 211 -111q108 0 108 113v661h-706v214h1100v-214h-183z" />
<glyph unicode="i" horiz-adv-x="490" d="M641 1295q-4 63 -6 75q-5 43 -20 73q-30 63 -127 63q-106 0 -140 -109q-18 -59 -18 -196h179v-214h-179v-987h-211v987h-128v214h128q2 247 70 363q92 159 331 151q328 -12 328 -347q0 -35 -4 -73h-203z" />
<glyph unicode="j" horiz-adv-x="1140" d="M980 987v-987h-213v475h-387v-475h-215v475h-39q-115 0 -115 116q0 107 75.5 180t183.5 73q110 0 110 -99v-57h387v299h-772v214h1166v-214h-181z" />
<glyph unicode="k" horiz-adv-x="1192" d="M1053 987q-16 -154 -43 -247q-40 -132 -105 -236q107 -241 188 -504h-220q-7 16 -107 297q-157 -198 -386 -202q-172 -2 -284 112q-108 112 -104 278q5 179 125.5 289t307.5 99q172 -11 341 -175q64 155 76 289h-847v214h1218v-214h-160zM569 591q-86 67 -189 67 q-72 0 -119 -51t-47 -123q0 -78 48 -127t120 -49q37 0 75 15q105 41 197 183z" />
<glyph unicode="l" horiz-adv-x="1224" d="M980 987l-88 -165q128 -42 205 -155q75 -109 75 -247q0 -178 -125 -302t-303 -124h-52v209h52q90 0 153.5 63t63.5 154q0 82 -46.5 145.5t-122.5 74.5l-167 -290h-56l-167 290q-77 -11 -124 -74.5t-47 -145.5q0 -90 63.5 -153.5t153.5 -63.5h51v-209h-51 q-178 0 -302.5 124.5t-124.5 301.5q0 137 77 248.5t205 153.5l-88 165h-222v214h1258v-214h-271zM450 987l148 -285l147 285h-295z" />
<glyph unicode="m" horiz-adv-x="1140" d="M980 987v-987h-213v481h-379q-20 -177 -46 -257q-54 -169 -163 -169q-143 0 -143 149q0 68 46 170q39 81 77 162q35 87 35 236q0 98 -2 121q-4 48 -13 64q-15 30 -60 30h-129v214h189q231 0 231 -404q0 -41 -2 -104h359v508h396v-214h-183z" />
<glyph unicode="n" horiz-adv-x="1140" d="M267 394q0 -95 32.5 -141t110.5 -63v-221q-172 23 -265 135.5t-91 289.5q1 181 134 308q93 90 238 128v157h-438v214h1176v-214h-525v-157q145 -38 239 -128q132 -127 134 -308q1 -177 -91.5 -289.5t-264.5 -135.5v221q77 17 110 63t33 141q0 94 -88 167q-84 70 -180 70 t-178 -70q-86 -73 -86 -167z" />
<glyph unicode="o" d="M-286 1362q-12 32 -42 70q-13 17 -115 21q-141 2 -304 5q-66 9 -107 83q-39 68 -36 147q3 54 27 94q23 37 50 37q35 0 39 -35q3 -39 6 -77q14 -55 48 -73q37 -8 100 -8q25 0 80 1.5t83 1.5q191 0 248 -78q38 -52 28 -139q-4 -42 -22 -79q-23 -50 -55 -46q-9 1 -16 25 q-11 47 -12 50z" />
<glyph unicode="p" horiz-adv-x="1134" d="M974 987v-987h-213v256q-132 -73 -269 -73q-163 0 -305 104q-99 73 -123 145q-3 59 40 169q35 84 69 169q21 60 21 99q0 118 -85 118h-117v214h182q101 0 172 -103q64 -93 64 -195q0 -13 -2 -24q-25 -230 -118 -399q121 -90 228 -90q106 0 243 91v720h394v-214h-181z" />
<glyph unicode="q" horiz-adv-x="1140" d="M978 987q-41 -221 -165 -345q171 -114 171 -290q0 -160 -102 -257t-262 -97q-63 0 -222 43q-33 9 -190 82q-48 21 -95 57q-66 49 -66 85q0 16 14 29q18 16 50 16q25 0 171 -49q115 -39 181 -49q28 -4 146 -4q81 0 126 42q40 38 40 95q0 95 -88 141q-80 42 -208 42 q-38 0 -109 -12t-107 -12q-182 0 -182 142q0 132 158 132q50 0 146.5 -23t146.5 -23q161 0 227 255h-767v214l1172 1v-215h-186z" />
<glyph unicode="r" horiz-adv-x="1054" d="M894 987v-653q0 -142 -61 -231q-71 -105 -209 -105q-97 0 -212 68q-108 63 -199 166q-160 181 -160 335q0 102 76 172t197 70h355v178h-685v214h1081v-214h-183zM681 596h-343q-69 0 -69 -45q0 -17 10 -38q39 -83 104 -152q142 -152 238 -152q60 0 60 95v292z" />
<glyph unicode="s" horiz-adv-x="1140" d="M979 987v-987h-214v475h-373q-30 -124 -55 -233q-43 -189 -159 -189q-62 0 -106 44.5t-44 107.5q0 62 77 222q82 169 82 276q0 57 -16 135q-3 16 -35 149h-149v214h1185v-214h-193zM765 987h-408q39 -150 45 -297h363v297z" />
<glyph unicode="t" horiz-adv-x="1122" d="M962 987v-337q-58 3 -107 3q-198 0 -330 -60q-139 -64 -266 -222q70 -62 178 -114q118 -57 190 -57q106 0 175 49q32 26 64 53q46 37 74 37q42 0 42 -59q0 -112 -129 -205q-113 -81 -253 -81q-138 0 -330 110q-210 120 -248 254q16 91 133 215q89 95 190 166 q83 58 194 86q55 13 210 34v128h-754v214h1149v-214h-182z" />
<glyph unicode="u" d="M-586 -192q163 0 340 70v-190q-52 -18 -104 -32q-126 -32 -236 -34q-152 -3 -344 66v190q186 -70 344 -70z" />
<glyph unicode="v" horiz-adv-x="1096" d="M935 987v-339h-607q-101 0 -101 -49q0 -20 22.5 -47.5t40.5 -27.5h623v-213h-412q56 -138 207 -138q79 0 218 33l-50 -183q-132 -53 -218 -53q-139 0 -245 104q-93 90 -139 232q-11 13 -47 26q-26 9 -80 32q-107 57 -130 212q-3 17 -3 32q0 108 101 183q91 68 200 68h409 v128h-730v214h1121v-214h-180z" />
<glyph unicode="w" horiz-adv-x="480" d="M292 987v-547h-208v547h-107v214h531v-214h-216z" />
<glyph unicode="x" horiz-adv-x="1160" d="M525 987q75 -36 235 -97q91 -28 273 -61v-185q-141 23 -208 43v-322h-58q-54 102 -113 134q-112 60 -203 46q-94 -15 -186 -200q59 -71 169 -117q100 -41 203 -46q114 -6 201 28q148 57 189 57q42 0 42 -32q0 -57 -110 -139q-67 -49 -109 -68q-112 -48 -208 -48 q-199 0 -362 85q-187 98 -250 276q168 395 415 395q85 0 179 -48v72q-79 23 -223 82q-61 34 -149 145h-259v214l1187 1v-215h-655z" />
<glyph unicode="y" d="M-310 1419q93 -120 93 -179q0 -25 -17 -25q-8 0 -61 60q-56 65 -135 112q-22 13 -136 70q-101 51 -299 49l-46 28q-24 23 -22 73q7 118 130 112q166 -8 318 -118q79 -57 175 -182z" />
<glyph unicode="z" horiz-adv-x="1140" d="M980 987v-987h-213v475h-387v-475h-215v475h-39q-115 0 -115 116q0 107 75.5 180t183.5 73q110 0 110 -99v-57h387v299h-773v214h1172v-214h-186zM581 31q-57 0 -97 40t-40 97q0 56 40 96t97 40q56 0 96.5 -40t40.5 -96q0 -57 -40.5 -97t-96.5 -40z" />
<glyph unicode="{" horiz-adv-x="788" d="M280 264q0 95 -64 134.5t-186 39.5v234q122 0 186 39.5t64 134.5v310q0 108 40 164t131.5 82t256.5 26v-220q-97 -2 -133.5 -34.5t-36.5 -103.5v-292q0 -183 -228 -216v-12q229 -34 228 -216v-292q0 -71 37 -103.5t133 -34.5v-220q-162 0 -254.5 25t-133 81t-40.5 166 v308z" />
<glyph unicode="|" horiz-adv-x="1110" d="M275 987v-119h373q162 0 256 -96q84 -86 84 -218q0 -180 -145 -301q60 -93 77 -124q35 -63 62 -139h-225q-18 37 -75 136q-130 -124 -323 -124q-131 0 -222 71q-103 79 -103 212q0 110 73 191q80 88 211 93q120 5 214 -38q79 -36 171 -122q64 73 64 123q0 59 -57 94 q-48 29 -104 29h-544v332h-74v214h1151v-214h-864zM361 351q-98 0 -107 -56q-8 -50 51 -69q40 -14 98 -11q68 4 136 57q-94 79 -178 79z" />
<glyph unicode="}" horiz-adv-x="788" d="M508 -44q0 -109 -40 -165t-132.5 -81.5t-255.5 -25.5v220q97 2 133.5 36t36.5 102v292q0 182 228 216v12q-228 34 -228 216v292q0 68 -36 101.5t-134 36.5v220q162 0 254.5 -25.5t133 -81t40.5 -165.5v-310q0 -95 64 -134.5t186 -39.5v-234q-122 0 -186 -40t-64 -134 v-308z" />
<glyph unicode="~" horiz-adv-x="400" d="M-5 987v214h463v-214h-463zM-27 1473q-27 69 -24 139q5 98 42 98q26 0 48 -70q12 -39 44 -112q34 -77 132 -77t132 77q32 73 44 112q22 70 48 70q38 0 42 -98q3 -70 -23 -139q-66 -173 -243 -173q-176 0 -242 173z" />
<glyph unicode="&#xa1;" horiz-adv-x="1820" d="M1296 608q-21 -75 -56 -130q-41 -63 -100 -100q105 -61 104 -184q-1 -80 -52 -136q-59 -66 -166 -66q-318 0 -362 436q-11 106 -4 180h-66v102h68q63 317 330 342q46 4 166 -2q56 105 362 486q190 237 454 237q253 0 372 -227q48 -93 48 -205q0 -101 -38 -101 q-25 0 -50 90l-34 126q-91 213 -290 213q-106 0 -218 -63q-108 -62 -186 -162q-148 -203 -366 -495q-64 0 -222 -3q-108 -2 -172 -108q-34 -57 -48 -128h608v-102h-82zM280 776q238 -9 238 -242q0 -67 -7 -130t-7 -146q0 -176 68 -260q2 -7 2 -13q0 -24 -24 -24 q-40 0 -82 60q-52 75 -66 203q-7 67 4 202q-24 -13 -49 -23q-58 -24 -109 -27q-81 -3 -151 55q-73 61 -73 141q0 86 58 142q68 67 198 62zM1198 608h-434q-1 -55 0 -88q1 -37 4 -100q215 -4 258 12q70 26 104 66q47 55 68 110zM998 326q-48 -6 -210 -6q50 -230 234 -226 q130 3 124 106q-3 44 -52 88t-96 38zM270 678q-150 0 -148 -100q1 -47 44 -76q39 -26 90 -26q44 0 92 21q66 29 64 81q-4 100 -142 100z" />
<glyph unicode="&#xa2;" horiz-adv-x="1143" d="M550 172q-410 58 -410 552q0 255 102 393.5t308 168.5v162h174v-154q162 -9 292 -72l-88 -230q-70 28 -131 46t-121 18q-118 0 -175 -81.5t-57 -248.5q0 -319 232 -320q80 0 144.5 15.5t161.5 58.5v-248q-124 -60 -258 -68v-184h-174v192z" />
<glyph unicode="&#xa3;" horiz-adv-x="1143" d="M684 1448q190 0 380 -80l-90 -224q-153 62 -266 62q-76 0 -117 -43.5t-41 -124.5v-188h366v-214h-366v-140q0 -166 -148 -242h702v-254h-1024v242q101 43 138.5 98.5t37.5 153.5v142h-174v214h174v190q0 196 112 302t316 106z" />
<glyph unicode="&#xa4;" horiz-adv-x="434" d="M-5 987v214h463v-214h-463zM-51 1472q-28 57 -29 140q-1 98 38 98q27 0 49 -70q29 -94 65 -134q49 -55 138 -55q88 0 137 55q36 40 65 134q22 70 49 70q39 0 38 -98q-1 -83 -29 -140q-37 -76 -108 -124t-152 -48q-82 0 -152.5 48t-108.5 124z" />
<glyph unicode="&#xa5;" horiz-adv-x="1143" d="M570 840l258 588h306l-374 -730h190v-174h-240v-134h240v-174h-240v-216h-280v216h-242v174h242v134h-242v174h186l-368 730h308z" />
<glyph unicode="&#xa7;" d="M-236 -437q-18 -26 -73 -49q-58 -24 -113 -24q-111 0 -222 111q-85 84 -85 192q0 79 61 114q34 19 84 17q82 -4 85 -32q3 -35 -90 -52q-48 -9 -28 -62q27 -70 56 -101q66 -70 156 -68q45 1 71.5 48t26.5 119v184h132v-182q0 -124 -61 -215zM-403 -642q-162 -2 -345 65v93 q192 -70 344 -70q157 0 340 70v-93q-181 -63 -339 -65zM-406 -792q-162 -3 -342 61v93q192 -66 344 -66q158 0 340 66v-93q-166 -58 -342 -61z" />
<glyph unicode="&#xa8;" d="M-434 -550q131 0 272 68v-90q-145 -63 -272 -65q-128 -2 -276 65v90q149 -68 276 -68zM-434 -706q131 0 272 64v-90q-129 -56 -272 -61q-127 -5 -276 61v90q149 -64 276 -64z" />
<glyph unicode="&#xa9;" horiz-adv-x="1664" d="M872 1030q-116 0 -182 -83.5t-66 -232.5q0 -153 57 -235.5t189 -82.5q93 0 210 46v-128q-59 -26 -106.5 -37t-111.5 -11q-188 0 -291 117t-103 331q0 204 108.5 325t293.5 121q127 0 246 -60l-58 -122q-104 52 -186 52zM98 714q0 195 97.5 366t268.5 269.5t368 98.5 q195 0 366 -97.5t269.5 -268.5t98.5 -368q0 -192 -94.5 -361t-265.5 -271t-374 -102q-202 0 -373 101.5t-266 270.5t-95 362zM204 714q0 -168 84 -313.5t230 -230t314 -84.5t313.5 84t230 230t84.5 314t-84 313.5t-230 230t-314 84.5t-313.5 -84t-230 -230t-84.5 -314z" />
<glyph unicode="&#xaa;" horiz-adv-x="1208" />
<glyph unicode="&#xad;" horiz-adv-x="643" d="M60 414v244h524v-244h-524z" />
<glyph unicode="&#xae;" d="M-394 -292q27 -45 27 -74q0 -57 -55 -57q-19 0 -38 11q-37 21 -103 93q-62 68 -109 89q-66 -74 -140 -76q-70 -1 -109 40t-38 109q2 69 47 112.5t117 43.5q42 0 95 -16q6 14 21 57h175q-31 -89 -55 -136q93 -75 165 -196z" />
<glyph unicode="&#xb0;" horiz-adv-x="780" d="M686 822v-176h-598v176h598zM60 1230q0 135 95.5 230.5t230.5 95.5t231 -95.5t96 -230.5q0 -136 -96 -231.5t-231 -95.5t-230.5 95.5t-95.5 231.5zM223 1230q0 -68 47.5 -116t115.5 -48t115.5 48t47.5 116q0 67 -47.5 115t-115.5 48t-115.5 -48t-47.5 -115z" />
<glyph unicode="&#xb1;" horiz-adv-x="1324" d="M754 698v-326h-210v326h-326v210h326v326h210v-326h326v-210h-326zM1168 20h-1038v210h1038v-210z" />
<glyph unicode="&#xb4;" horiz-adv-x="26" d="M185 -229h-242v-188q0 -38 -24 -38q-104 33 -155 74q21 54 27 73q32 101 32 164q0 46 -10 103h-149q12 -64 12 -90q0 -35 -8 -75l-38 -98q-24 -63 -22 -95q17 -48 68 -84q137 -97 261 -97q144 0 144 147v71h104v133z" />
<glyph unicode="&#xb5;" d="M-697 1468q3 -20 17 -63q31 -67 31 -69q0 -40 -39 -40q-22 0 -42 14q-114 80 -114 205q0 111 83 183t197 72t197 -72t83 -183q0 -125 -114 -205q-20 -14 -42 -14q-39 0 -39 40q0 2 32 69q10 22 16 63q9 56 -26.5 95.5t-106.5 39.5t-106.5 -39.5t-26.5 -95.5z" />
<glyph unicode="&#xb6;" horiz-adv-x="1309" d="M1140 -254h-158v1578h-162v-1578h-158v800q-61 -18 -142 -18q-211 0 -310.5 122t-99.5 368q0 254 106.5 378t333.5 124h590v-1774z" />
<glyph unicode="&#xb7;" horiz-adv-x="700" d="M330 712q53 0 91.5 -39t38.5 -93q0 -58 -47 -95q-39 -31 -83 -31t-82 30q-46 36 -46 96q0 55 37.5 93.5t90.5 38.5z" />
<glyph unicode="&#xbf;" horiz-adv-x="1332" d="M780 617l293 -294l-146 -147l-293 293l-292 -292l-149 145l293 295l-293 293l149 146l292 -292l293 292l146 -146z" />
<glyph unicode="&#xc5;" horiz-adv-x="2168" d="M1809 701q-97 50 -299 51q-103 1 -202 -110q-85 -94 -125 -216h902v-216h-75q-84 -241 -239 -351q175 -124 174 -303q-1 -160 -108 -252q-101 -88 -263 -88q-620 0 -621 994h-42v216h48q29 213 185 372q163 168 366 168q222 0 340 -55q76 -36 198 -113q40 -33 118 -97 v-244q-58 47 -159 121q-64 43 -198 123zM835 -784q-139 0 -222 208q-64 159 -64 313q0 80 14 199q-90 -38 -191 -38q-150 0 -250 81q-112 91 -112 251q0 371 415 359q201 -6 293 -102q88 -92 88 -278q0 -22 -1 -46q-1 -61 -9 -207q-21 -229 -21 -235q0 -162 51 -287 q75 -136 75 -155q0 -63 -66 -63zM1169 210q1 -150 10 -259q224 -1 186 -2q113 2 182 23q151 45 238 238h-616zM1519 -253q-62 -9 -301 -10q106 -312 348 -307q161 4 161 108q0 73 -72 145.5t-136 63.5zM405 374q-182 0 -178 -135q3 -132 152 -132q62 0 129 33q76 38 77 100 q1 134 -180 134z" />
<glyph unicode="&#xc6;" horiz-adv-x="1880" d="M2379 760q-38 4 -63 30q-28 29 -24 74q1 18 -9 62q-13 56 -16 86q-23 246 -225 423q-194 170 -415 166q-274 -5 -679 -484q-111 -132 -253 -321q-155 -205 -172 -227q-160 -195 -330 -195q-36 0 -107 36q-65 32 -113 69v237q53 -38 138 -96q48 -28 80 -29q68 -1 190 148 q140 192 449 576q201 230 362 343q218 153 435 153q341 0 588 -226.5t273 -570.5q11 -154 -4 -203q-19 -59 -105 -51z" />
<glyph unicode="&#xc7;" horiz-adv-x="2287" d="M1767 -384l-311 247q-62 -16 -115 -45q278 -100 278 -256q0 -104 -110 -104q-62 0 -102 38q-31 30 -31 72q0 30 17 66q-78 48 -141 53v-146q60 -48 60 -101q0 -58 -49.5 -98.5t-118.5 -40.5q-67 0 -115.5 41t-48.5 98q0 50 60 100v147q-63 -5 -141 -53q18 -39 18 -68 q0 -57 -66 -92q-33 -17 -68 -17q-47 0 -77 27q-33 29 -33 78q0 156 278 256q-53 29 -116 45l-311 -247q0 121 -98 268q-101 138 -201 276q-125 180 -168 351q-25 97 -25 188q0 235 154 405q145 161 389 224q-50 -55 -100.5 -110.5t-75.5 -99.5q-56 -96 -65 -117 q-35 -81 -35 -172q0 -128 67 -296q126 -317 669 -587v101q-39 30 -114 77q-12 7 -135 50q15 24 55 105q-188 75 -303 226q-119 156 -119 341q0 183 117 339q113 151 299 231q-13 29 -32 67q49 28 198 135q30 24 74 79q55 68 72 85q46 -61 144 -164q92 -73 197 -135 q-7 -15 -30 -65q191 -76 307 -228q121 -156 121 -344q0 -187 -122 -344q-118 -152 -313 -227q23 -46 53 -101q-44 -14 -129 -48q-18 -9 -119 -79v-101q205 102 367 228q229 179 300 359q68 168 68 296q0 91 -35 172q-9 21 -65 117q-25 44 -75.5 99.5t-100.5 110.5 q243 -63 389 -224q153 -171 153 -405q0 -91 -24 -188q-44 -172 -167 -352q-101 -138 -201 -275q-98 -147 -98 -268zM1302 796q-3 -102 82 -364q125 69 211 178q95 121 95 236q0 133 -82 245q-80 109 -215 168q-87 -279 -91 -463zM990 796q-4 193 -93 458q-129 -59 -206 -167 q-79 -111 -79 -241q0 -134 83 -246q80 -107 214 -165q85 212 81 361z" />
<glyph unicode="&#xcd;" d="M-196 -34v-242h-336q-74 0 -74 -45q0 -26 28 -50q25 -22 44 -22h324v-137h-224q5 -30 11.5 -58.5t48.5 -54.5q23 -14 57 -14q24 0 63 8q36 9 42 8q-6 -38 -24 -90q-39 -48 -142 -43q-42 2 -87.5 31.5t-68.5 69.5q-18 31 -27 78q-10 53 -11 55q-3 6 -95 80q-83 66 -87 136 q-4 74 47 128t127 54h246v108h138z" />
<glyph unicode="&#xce;" horiz-adv-x="1078" d="M917 987v-987h-214v488h-168q-1 -201 -15 -272q-28 -141 -206 -141q-73 0 -150 43q-67 43 -133 86q9 59 44 240l67 -68q133 -97 163 -97q18 0 18 88v334h380v286h-722v214h1126v-214h-190z" />
<glyph unicode="&#xcf;" horiz-adv-x="26" d="M-927 -434q-2 29 22 95l38 98q8 40 8 75q0 26 -12 90h149q10 -57 10 -103q0 -79 -32 -164q-6 -19 -27 -73q51 -41 155 -74q24 0 24 38v188h242v223h150v-645h-150v289h-104v-71q0 -147 -144 -147q-128 0 -261 97q-51 36 -68 84z" />
<glyph unicode="&#xd1;" d="M-607 1334q0 33 23 56.5t55 23.5t55 -23.5t23 -56.5t-23 -56.5t-55 -23.5t-55 23.5t-23 56.5zM-286 1362q-12 32 -42 70q-13 17 -115 21q-141 2 -304 5q-66 9 -107 83q-39 68 -36 147q3 54 27 94q23 37 50 37q35 0 39 -35q3 -39 6 -77q14 -55 48 -73q37 -8 100 -8 q25 0 80 1.5t83 1.5q191 0 248 -78q38 -52 28 -139q-4 -42 -22 -79q-23 -50 -55 -46q-9 1 -16 25q-11 47 -12 50z" />
<glyph unicode="&#xd2;" horiz-adv-x="806" d="M100 1206h210v-1226h-210v1226zM496 1206h210v-1226h-210v1226z" />
<glyph unicode="&#xd3;" horiz-adv-x="2656" d="M1153 71q-1 95 38 175q25 50 104 159q47 -30 47 -103q0 -75 -48 -183q-38 -85 -81 -145q116 -207 145 -265q73 -143 118 -266q8 53 40 166q30 109 36 160q-15 35 -30 69q-24 43 -62 43q-10 0 -21 -2q-72 20 -72 86q0 35 29 62.5t65 27.5q77 0 77 -86q0 -10 -1 -30t-1 -30 q0 -61 41 -85q71 393 434 908q-29 72 -48 122q-32 84 -32 149q0 128 119 242q62 -101 62 -236q0 -90 -30 -164q21 36 99 136q60 78 58 90q-12 33 -12 70q0 99 75 192q79 99 176 99q47 0 80 -29t33 -75q0 -97 -110 -190q-106 -90 -205 -93l-180 -243q107 49 202 49 q155 0 225 -110q-61 -74 -196 -74q-69 0 -162 18l-115 22q-151 -238 -212 -352q-126 -232 -185 -435q63 95 237 205q200 127 349 127q15 0 30 -2q135 241 283 241q34 0 67 -15q-20 -121 -78 -178q-35 -35 -101 -53q-54 -15 -61 -30q118 -44 183 -157q59 -103 59 -236 q0 -107 -54 -179q-58 -77 -162 -88q-39 -4 -85 -4q-182 0 -171 47q5 19 34 19q22 0 63.5 -6.5t61.5 -7.5q140 -4 187 42q72 71 72 175q0 15 -4 41q-31 258 -224 317q83 -61 83 -184q0 -98 -72 -135q-125 63 -125 176q0 51 36 172q-235 -30 -427 -179q-132 -102 -202 -216 q9 -2 18 -2q19 0 55 11q44 15 55 17q34 76 100 76q65 0 74 -73q5 -41 -17 -73q-25 -34 -65 -34q-55 0 -98 64q-61 -15 -139 -37q-73 -302 -98 -392q64 95 107 124q54 35 157 35q25 0 77 -1q-13 -213 -323 -239l11 -42h-85l-21 42q-15 5 -32 5q-28 0 -84.5 -15.5t-85.5 -15.5 q-106 0 -186 154q116 23 202 23q124 0 172 -51q-2 11 -24 63q-87 53 -229 105q-126 47 -218 65l-58 -174q-64 -138 -178 -138q-21 0 -43 4q-8 64 -8 100q0 77 45 117l160 114q-104 5 -192 5q-127 0 -223 -11q-14 -103 -85 -192t-168 -118q-16 35 -16 77q0 70 43 149 q35 65 85 110q-136 22 -170 38q-73 33 -109 132q46 43 110 43q79 0 173 -63q75 -50 132 -118h352q-153 61 -199 255q31 35 70 35q78 0 176 -131q70 -93 108 -183q174 -37 423 -157q-76 142 -224 428q-95 -31 -170 -31q-128 0 -213 91q69 84 167 84q75 0 175 -48 q-23 40 -87 158q-40 73 -87 134q-133 171 -275 177q-182 8 -216 -108q-15 -51 -15 -91q0 -56 25 -98q29 -49 82 -49q9 0 17 1q5 -1 9 -1q17 0 44 38q2 8 2 15q0 11 -7.5 33t-7.5 31q0 14 18 17q16 3 27 -25q8 -22 8 -41q0 -74 -81 -118q-56 -30 -71 -35q-47 -17 -112 -15 q-36 -53 -96 -53q-33 0 -58 17q-72 49 -72 158q0 202 253 316q109 49 217 49q115 0 191 -61l1 15q-102 113 -260 283q-56 -6 -105 -55q-83 -82 -94 -90q-68 -46 -170 -46q-2 9 -2 18q0 21 16 63t16 62q0 21 -9 37q-78 0 -165 46q17 42 86 78q76 40 93 64q-73 61 -148 236 q100 8 284 -90q2 19 2 50v48q0 111 24 165q36 -12 78 -90q39 -71 67 -71q21 5 55.5 47.5t65.5 50.5q21 -64 21 -139q0 -32 -4 -64q30 -8 114 -12q67 -4 100 -24q-35 -106 -112 -157q-40 -26 -125 -49q-57 -16 -57 -43q284 -285 486 -602q14 138 111 536q-82 47 -137 130 q-59 88 -59 177q0 70 41 128q168 -66 188 -365q57 163 185 440q-34 -16 -79 -16q-71 0 -140 33q6 36 57 71q61 41 75 60q-75 34 -130 151q20 31 64 31q24 0 65 -11l59 -15q-10 75 -29 206q44 4 91 -34q14 -11 83 -70q28 12 70 66q46 57 69 70q25 -15 36 -111 q14 -119 16 -127q14 -4 31 -4q13 0 38.5 3.5t38.5 3.5q36 0 57 -26q1 -47 -33 -77q-23 -18 -69 -56q8 -13 76 -66q51 -39 51 -81q0 -7 -3 -16q-19 -4 -56 -1q-50 4 -57 4q-21 0 -34 -5q3 -10 22 -64q13 -37 13 -65q-13 -3 -26 -3q-31 0 -75 29q-58 38 -72 45 q-16 -57 -61 -169q-66 55 -107 220q-46 -76 -102 -217q-73 -185 -90 -218q40 8 136 60q82 44 131 44q67 0 130 -69q-63 -125 -240 -125q-48 0 -104 7q-73 10 -79 10q-28 -105 -119 -582q12 -32 36 -80zM412 1291l4 -165q10 -134 59 -152q-28 109 -28 149q0 12 4 12 q13 0 70 -142q6 70 -18 165q-30 121 -91 133zM554 949q97 102 97 221q0 37 -11 71q-89 -37 -89 -180q0 -19 1.5 -56t1.5 -56zM143 1160q51 -111 125 -184q93 -91 196 -91q0 5 -79 62q-84 60 -98 98q34 -14 85 -54q56 -43 83 -57q-90 169 -312 226zM611 931q21 7 80 47 q48 33 80 33q9 0 17 -1q-12 -20 -82 -55q-64 -33 -71 -55q141 0 217 150q-25 8 -59 8q-60 0 -115 -25q-69 -33 -69 -86q0 -7 2 -16zM117 830q69 -25 139 -25q82 0 139 34q-13 2 -27 2q-16 0 -45.5 -4.5t-44.5 -4.5q-32 0 -57 18q23 17 66 14q49 -4 68 4q-30 38 -97 38 q-42 0 -85 -17q-53 -22 -56 -59zM319 716l61 71q-41 0 -92 -39t-51 -79q0 -16 11 -28q170 60 205 154q-23 3 -68 -37.5t-66 -41.5zM440 456q-122 -94 -122 -198q0 -61 43 -108.5t103 -47.5q14 0 27 3q-95 83 -95 190q0 74 44 161zM227 117q29 -70 80 -70q14 0 29 9 q-6 26 -38 94q-26 54 -26 94q0 72 71 168q-131 -94 -131 -221q0 -38 15 -74zM2272 1117q70 96 89 118q55 63 105 74q-41 -79 -153 -214q80 29 146 88q77 69 77 132q0 29 -18 55q-21 8 -43 8q-84 0 -149 -90q-61 -86 -54 -171zM1656 1718q-26 -20 -56 -67q-34 -54 -34 -92 q0 -36 33 -50q70 -4 70 137q0 49 -13 72zM1428 1679l-3 -78q10 -29 22 -58q18 -34 48 -34q10 0 20 2q15 11 15 42q-1 30 -1 48q-30 78 -101 78zM1286 1531q0 -41 48.5 -76.5t90.5 -30.5q22 3 22 55q-52 58 -161 52zM1653 1491q-12 -18 -12 -30q0 -26 52 -26q77 0 122 74 q-38 20 -81 20q-54 0 -81 -38zM1544 1479q-60 -3 -60 -74q0 -11 2 -21q15 -35 75 -49q57 24 57 71q0 10 -3 24q-10 44 -71 49zM1653 1372q45 -74 150 -74q13 0 26 1q0 28 -51 63t-85 35q-29 0 -40 -25zM1294 1297h92q56 2 76 38q-9 34 -55 34q-27 0 -73 -18q-53 -20 -53 -42 q0 -9 13 -12zM1603 1288q39 -90 119 -122q18 8 15 25q-6 41 -6 30q-9 30 -35 62q-30 37 -56 37q-23 0 -37 -32zM1503 1288l-9 -87q19 -53 21 -56q16 -30 42 -34q35 81 35 93q0 9 -2 17q0 28 -21.5 49t-49.5 21q-9 0 -16 -3z" />
<glyph unicode="&#xd4;" horiz-adv-x="2656" d="M1153 982q-24 -48 -36 -80q91 -477 119 -582q6 0 79 10q56 7 104 7q177 0 240 -125q-63 -69 -130 -69q-49 0 -131 44q-96 52 -136 60q17 -33 90 -218q56 -141 102 -217q41 166 107 220q45 -112 61 -169q14 7 72 45q44 29 75 29q13 0 26 -3q0 -28 -13 -64l-22 -65 q13 -5 34 -5q7 0 57 4q37 3 56 -1q3 -8 3 -16q0 -42 -51 -81q-68 -53 -76 -65l69 -57q34 -30 33 -77q-21 -26 -57 -26q-13 0 -38.5 4t-38.5 4q-17 0 -31 -5q-2 -8 -16 -127q-11 -96 -36 -111q-23 13 -69 70q-42 54 -70 67q-27 -24 -83 -71q-47 -38 -91 -34q19 131 29 206 q-13 -3 -59 -15q-41 -10 -65 -10q-44 0 -64 31q55 116 130 151q-14 18 -75 59q-51 35 -57 71q69 33 140 33q45 0 79 -16q-128 277 -185 440q-20 -299 -188 -365q-41 58 -41 129q0 88 59 177q55 82 137 130q-97 397 -111 535q-202 -317 -486 -602q0 -27 57 -43 q85 -23 125 -49q77 -50 112 -157q-33 -20 -100 -24q-84 -4 -114 -11q4 -32 4 -65q0 -74 -21 -139q-31 8 -65.5 50.5t-55.5 47.5q-28 0 -67 -71q-42 -78 -78 -90q-24 54 -24 165v48q0 31 -2 50q-184 -98 -284 -89q75 174 148 235q-17 24 -93 64q-69 36 -86 78q87 46 165 46 q9 16 9 37q0 20 -16 62t-16 63q0 10 2 18q102 0 170 -46q11 -8 94 -90q49 -49 105 -54q158 169 260 282l-1 15q-76 -61 -191 -61q-105 0 -213 47t-178 125q-79 89 -79 193q0 110 72 158q25 18 58 18q60 0 96 -54q65 2 112 -15q15 -5 71 -35q81 -44 81 -118q0 -19 -8 -41 q-11 -28 -27 -25q-18 3 -18 17q0 9 7.5 31t7.5 33q0 7 -2 15q-27 38 -44 38q-4 0 -9 -1q-8 1 -17 1q-53 0 -82 -49q-25 -42 -25 -98q0 -40 15 -91q34 -116 216 -108q142 6 275 177q47 61 87 134l87 159q-100 -49 -175 -49q-98 0 -167 84q85 91 213 91q75 0 170 -31 q148 287 224 428q-249 -120 -423 -156q-38 -91 -108 -183q-98 -132 -176 -132q-39 0 -70 35q46 194 199 255h-352q-57 -68 -132 -118q-94 -63 -173 -63q-64 0 -110 43q36 99 109 133q34 15 170 37q-50 45 -85 110q-43 79 -43 149q0 42 16 77q97 -29 168 -118t85 -192 q96 -10 223 -10q88 0 192 4l-160 114q-45 41 -45 118q0 35 8 99q22 4 43 4q114 0 178 -138l58 -174q92 19 218 65q142 53 229 105q22 52 24 63q-48 -51 -172 -51q-86 0 -202 23q80 154 186 154q29 0 85.5 -15.5t84.5 -15.5q17 0 32 5l21 42h85l-11 -42q310 -26 323 -239 q-52 -1 -77 -1q-103 0 -157 36q-43 28 -107 123q25 -89 98 -392q78 -22 139 -37q43 65 98 65q40 0 65 -35q22 -32 17 -72q-9 -74 -74 -74q-66 0 -100 76q-11 2 -55 17q-36 12 -55 12q-9 0 -18 -3q70 -114 202 -216q192 -149 427 -178q-36 120 -36 171q0 113 125 176 q72 -37 72 -135q0 -123 -83 -184q193 59 224 317q4 26 4 41q0 104 -72 175q-47 47 -187 42q-20 -1 -61.5 -7.5t-63.5 -6.5q-29 0 -34 19q-11 48 171 48q46 0 85 -5q104 -11 162 -88q54 -72 54 -179q0 -133 -59 -236q-65 -113 -183 -157q7 -15 61 -30q66 -18 101 -52 q58 -57 78 -179q-33 -15 -67 -15q-148 0 -283 241q-15 -1 -30 -1q-149 0 -349 126q-174 110 -237 205q59 -203 185 -435q61 -114 212 -352q1 0 115 22q93 18 162 18q135 0 196 -73q-70 -111 -225 -111q-95 0 -202 50l180 -243q99 -4 205 -94q110 -93 110 -190q0 -46 -33 -75 t-80 -29q-97 0 -176 99q-75 93 -75 192q0 37 12 70q2 12 -58 90q-78 101 -99 136q30 -74 30 -164q0 -135 -62 -235q-119 113 -119 241q0 65 32 149q19 51 48 122q-363 515 -434 909q-41 -25 -41 -86q0 -10 1 -30t1 -30q0 -86 -77 -86q-36 0 -65 27.5t-29 62.5q0 66 72 86 q11 -2 21 -2q38 0 62 43q15 34 30 69q-6 51 -36 160q-32 113 -40 167q-45 -124 -118 -267q-29 -58 -145 -265q43 -60 81 -145q48 -108 48 -183q0 -72 -47 -102q-79 108 -104 158q-39 80 -38 175zM412 -237l4 164q10 134 59 152q-28 -109 -28 -148q0 -13 4 -13q13 0 70 142 q6 -70 -18 -165q-30 -121 -91 -132zM554 104q97 -102 97 -221q0 -37 -11 -71q-89 37 -89 181q0 18 1.5 55t1.5 56zM143 -107q51 111 125 184q93 91 196 91q0 -5 -79 -62q-84 -60 -98 -97q34 13 85 53q56 43 83 57q-90 -169 -312 -226zM611 122q21 -7 80 -47q48 -33 80 -33 q9 0 17 1q-12 20 -82 56q-64 32 -71 54q141 0 217 -150q-25 -8 -59 -8q-60 0 -115 26q-69 32 -69 85q0 8 2 16zM117 223q69 25 139 25q82 0 139 -34q-13 -2 -27 -2q-16 0 -45.5 5t-44.5 5q-32 0 -57 -19q23 -17 66 -14q49 4 68 -4q-30 -38 -97 -38q-42 0 -85 17 q-53 22 -56 59zM319 337l61 -70q-41 0 -92 38.5t-51 78.5q0 16 11 28q170 -60 205 -154q-23 -3 -68 37.5t-66 41.5zM440 597q-122 94 -122 198q0 61 43 108.5t103 47.5q14 0 27 -3q-95 -83 -95 -190q0 -74 44 -161zM227 936q29 70 80 70q14 0 29 -9q-6 -26 -38 -94 q-26 -54 -26 -94q0 -72 71 -168q-131 94 -131 222q0 37 15 73zM2272 -64q70 -96 89 -118q55 -63 105 -74q-41 80 -153 214q80 -29 146 -87q77 -69 77 -133q0 -29 -18 -55q-21 -8 -43 -8q-84 0 -149 91q-61 85 -54 170zM1656 -664q-26 19 -56 66q-34 54 -34 92q0 36 33 50 q70 5 70 -137q0 -49 -13 -71zM1428 -626l-3 78q10 29 22 58q18 34 48 34q10 0 20 -2q15 -11 15 -42q-1 -29 -1 -48q-30 -78 -101 -78zM1286 -478q0 41 48.5 76.5t90.5 30.5q22 -3 22 -55q-52 -58 -161 -52zM1653 -438q-12 18 -12 30q0 26 52 26q77 0 122 -74 q-38 -20 -81 -20q-54 0 -81 38zM1544 -426q-60 3 -60 74q0 11 2 21q15 35 75 50q57 -25 57 -72q0 -9 -3 -24q-10 -44 -71 -49zM1653 -319q45 74 150 74q13 0 26 -1q0 -28 -51 -62.5t-85 -34.5q-29 0 -40 24zM1294 -244h92q56 -2 76 -37q-9 -35 -55 -35q-27 0 -73 18 q-53 21 -53 42q0 9 13 12zM1603 -235q39 91 119 122q18 -8 15 -25q-6 -41 -6 -30q-9 -29 -35 -62q-30 -36 -56 -36q-23 0 -37 31zM1503 -235l-9 87q19 53 21 56q16 30 42 34q35 -81 35 -93q0 -8 -2 -17q0 -27 -21.5 -48t-49.5 -21q-9 0 -16 2z" />
<glyph unicode="&#xd8;" horiz-adv-x="386" d="M-17 987v214h451v-214h-451z" />
<glyph unicode="&#xda;" horiz-adv-x="910" d="M176 929q0 106 74.5 180t179.5 74t179.5 -74t74.5 -180q0 -105 -74.5 -179t-179.5 -74t-179.5 74t-74.5 179zM315 930q0 -48 33.5 -82t81.5 -34t81.5 34t33.5 82q0 47 -33.5 81t-81.5 34t-81.5 -34t-33.5 -81zM176 269q0 106 74.5 180t179.5 74t179.5 -74t74.5 -180 q0 -105 -74.5 -179t-179.5 -74t-179.5 74t-74.5 179zM315 270q0 -48 33.5 -82t81.5 -34t81.5 34t33.5 82q0 47 -33.5 81t-81.5 34t-81.5 -34t-33.5 -81z" />
<glyph unicode="&#xe5;" horiz-adv-x="1398" d="M1839 1291q-20 -10 -39 -10q-57 0 -99 87q-16 32 -69 97.5t-107 97.5q-100 58 -249 57q-158 -1 -313 -88q-55 -30 -267 -185q-168 -123 -267 -123q-58 0 -120 32q-48 28 -97 57q-41 24 -90 71q-76 73 -83 79q-72 62 -265 54l2 196q224 7 362 -69q25 -14 68 -60 q47 -49 73 -66q34 -25 67 -50q54 -37 87 -38q16 0 69 37q98 69 189 129q38 25 201 124q172 105 390 97q219 -8 364 -99q155 -97 220 -265q18 -48 18 -83q0 -55 -45 -79z" />
<glyph unicode="&#xe6;" horiz-adv-x="26" d="M-600 -97q58 0 100.5 -42.5t42.5 -100.5t-42.5 -100.5t-100.5 -42.5t-100.5 42.5t-42.5 100.5t42.5 100.5t100.5 42.5z" />
<glyph unicode="&#xe7;" d="M-736 -393h-35q-86 0 -86 66q0 76 77 133q51 38 115 38q62 0 62 -65v-27h262v209h149v-434q0 -101 -72.5 -166t-175.5 -65q-156 0 -221 89q-41 56 -75 222zM-592 -393q6 -31 26 -99q20 -48 45 -60q19 -9 79 -9q101 0 101 102v66h-251z" />
<glyph unicode="&#xfc;" d="M-438 -610q131 0 272 68v-110q-152 -66 -272 -68q-121 -2 -276 68v110q149 -68 276 -68z" />
<glyph unicode="&#xff;" horiz-adv-x="1700" d="M1682 -62h-1678v1258h1678v-1258zM1202 1046q-10 108 -90 108q-39 0 -65 -40q-21 -31 -25 -68q-2 -18 -2 -36q0 -58 21 -100q17 -33 35 -38q3 28 -4 47q-8 23 -8 87q0 72 48 72q34 0 46 -72q3 -16 3 -32q0 -20 -5.5 -47.5t-5.5 -38.5q0 -8 2 -16q51 14 51 143q0 16 -1 31 zM1644 702v108h-870q0 18 0.5 119.5t49.5 95.5q50 -8 42 -139h70q0 244 -104 260q-8 1 -15 1q-56 0 -89 -65q-29 -54 -29 -118v-154h-55v-108h55l1 -692h74v692q87 2 90 0q28 -49 17 -214q-7 -121 -37 -200q-15 -41 -15 -45q0 -29 39 -81q58 -77 122 -77q36 0 67 24 q26 20 33 41v-140h78v692h340v-236h-142v58q0 57 -27 57q-23 0 -52.5 -36.5t-38.5 -72.5q-8 -31 -7 -71q2 -49 19 -49h50q0 -118 12 -174q19 -87 70 -128q57 -46 89 -46q45 0 95 76q22 33 20 76q0 11 -3 11q-2 0 -33 -35q-37 -42 -64 -42q-13 0 -32 6q-33 11 -58 90 q-14 45 -14 166h200v350h52zM470 702v108h-426v-108h310q0 -96 -38 -242q-8 24 -26 62q-44 66 -91 66q-17 0 -45 -10q-48 -17 -77 -88.5t-29 -167.5q0 -109 38 -179q34 -63 74 -63q64 0 83.5 16.5t72.5 121.5q26 -44 32 -136q4 -72 12 -72q8 -3 40 -2q30 0 34 2 q0 71 -24 184q-12 55 -28 113q-11 37 -10 45q46 151 60 350h38zM1090 516h-134q2 49 -4 110l-8 76h146v-186zM1090 408v-162q-45 -70 -82 -70q-44 0 -84 66q-11 19 -11 28q0 5 7.5 20t11.5 34q6 38 18 84h140zM292 342q-13 -36 -80 -144q-20 -4 -32 -4q-46 0 -56 84 q-3 21 -3 45q0 120 55 147q9 4 18 4q34 0 68 -53q30 -47 30 -79zM488 122q0 47 16.5 80.5t39.5 33.5t39.5 -33.5t16.5 -80.5t-16.5 -80.5t-39.5 -33.5t-39.5 33.5t-16.5 80.5z" />
<glyph unicode="&#x152;" horiz-adv-x="2656" d="M1783 703q-48 24 -80 37q-477 -91 -582 -120q0 -6 10 -78q7 -57 7 -105q0 -177 -125 -240q-69 63 -69 131q0 48 44 130q52 97 60 136q-33 -17 -218 -90q-141 -56 -217 -102q166 -41 220 -107q-112 -45 -169 -61q7 -14 45 -72q29 -44 29 -75q0 -13 -3 -26q-28 0 -65 13 l-64 22q-5 -12 -5 -34q0 -6 4 -57q3 -37 -1 -56q-8 -2 -16 -2q-42 0 -81 50q-53 68 -66 76q-18 -23 -56 -69q-30 -34 -77 -33q-26 22 -26 57q0 13 4 38.5t4 38.5q0 17 -5 31q-8 2 -127 16q-96 11 -111 36q13 23 70 69q54 42 67 71q-24 27 -71 82q-38 47 -34 91 q131 -19 206 -29q-3 13 -15 59q-10 41 -10 65q0 44 31 64q116 -55 150 -130q19 14 60 75q35 51 71 57q33 -69 33 -140q0 -45 -16 -79q277 129 440 185q-299 21 -365 189q58 40 128 40q89 0 178 -59q82 -55 130 -137q397 97 535 111q-317 202 -602 487q-27 0 -43 -58 q-23 -85 -49 -124q-51 -78 -157 -113q-20 33 -24 100q-4 84 -11 114q-32 -4 -65 -4q-75 0 -139 21q8 31 50.5 65.5t47.5 55.5q0 29 -71 67q-78 42 -90 78q54 24 165 24h48q31 0 50 3q-98 184 -89 283q174 -75 235 -148q24 17 64 94q36 68 78 85q46 -87 46 -165q16 -9 37 -9 q20 0 62 16t63 16q9 0 18 -2q0 -102 -46 -169q-8 -12 -90 -95q-49 -49 -54 -104q169 -159 282 -260l15 1q-61 76 -61 190q0 106 47 213.5t125 177.5q89 79 193 79q110 0 158 -72q17 -25 17 -58q0 -60 -53 -96q2 -64 -15 -112q-5 -15 -35 -71q-44 -81 -118 -81q-19 0 -41 8 q-28 11 -25 27q3 18 17 18q9 0 31 -7.5t33 -7.5q7 0 15 2q38 27 38 44q0 5 -1 9q1 8 1 17q0 53 -49 82q-42 25 -98 25q-40 0 -91 -15q-116 -34 -108 -216q6 -142 177 -275q61 -47 134 -87l159 -87q-49 100 -49 175q0 98 84 167q91 -85 91 -213q0 -75 -31 -170 q287 -148 428 -224q-120 249 -156 423q-91 38 -183 108q-132 99 -132 176q0 39 35 70q194 -46 255 -199v352q-68 57 -118 132q-63 94 -63 173q0 64 43 110q99 -36 133 -109q15 -34 37 -170q45 50 110 86q79 42 149 42q42 0 77 -16q-29 -97 -118 -168t-192 -85 q-10 -95 -10 -223q0 -88 4 -191l114 159q40 45 118 45q35 0 99 -8q4 -22 4 -42q0 -115 -138 -179l-174 -58q19 -92 65 -218q52 -142 105 -229q52 -22 63 -24q-51 48 -51 173q0 85 23 201q154 -79 154 -185q0 -30 -15.5 -86.5t-15.5 -84.5q0 -17 5 -32l42 -21v-85l-42 11 q-26 -310 -239 -323q-1 52 -1 77q0 103 36 157q28 43 123 107q-89 -25 -392 -98q-22 -78 -37 -139q64 -43 64 -98q0 -40 -33 -63.5t-74 -18.5q-73 9 -73 74q0 66 76 100q2 11 17 55q12 36 12 56q0 8 -3 17q-114 -70 -216 -201q-149 -193 -178 -427q120 35 171 35 q113 0 176 -125q-37 -72 -135 -72q-123 0 -184 83q59 -193 317 -224q26 -3 41 -3q104 0 175 71q47 47 42 187q-1 20 -7 63q-7 40 -7 62q0 29 19 34q47 11 47 -171q0 -46 -4 -85q-11 -104 -88 -162q-72 -54 -179 -54q-133 0 -236 60q-113 64 -157 182q-15 -7 -30 -61 q-18 -66 -52 -101q-57 -57 -179 -78q-15 33 -15 68q0 147 241 282q-1 15 -1 30q0 149 126 349q110 174 205 237q-203 -59 -435 -185q-114 -61 -352 -212q0 -1 22 -115q18 -93 18 -162q0 -135 -73 -196q-111 70 -111 225q0 95 50 202l-243 -179q-4 -100 -94 -206 q-93 -110 -190 -110q-46 0 -75 33t-29 80q0 97 99 176q93 75 192 75q37 0 70 -12q12 -2 90 58q101 78 136 99q-74 -30 -164 -30q-135 0 -236 62q114 119 242 119q65 0 149 -32q51 -19 122 -48q515 363 909 434q-25 41 -86 41q-10 0 -30 -1t-30 -1q-86 0 -86 77q0 36 27.5 65 t62.5 29q66 0 86 -72q-2 -11 -2 -21q0 -37 43 -62q34 -15 69 -30q51 6 160 37q113 31 167 39q-124 45 -267 118q-58 29 -265 145q-60 -43 -145 -81q-108 -48 -183 -48q-73 0 -102 47q108 79 158 104q80 39 175 38zM563 1444l165 -4q134 -10 152 -58q-109 27 -149 27 q-12 0 -12 -4q0 -13 142 -69q-70 -7 -165 17q-121 30 -133 91zM905 1302q-102 -97 -221 -97q-37 0 -71 11q37 90 181 90q18 0 55 -2t56 -2zM694 1713q111 -51 184 -125q91 -93 91 -196q-5 0 -62 79q-60 84 -97 98q13 -34 53 -85q43 -56 57 -83q-169 90 -226 312zM923 1245 q-7 -21 -47 -80q-33 -48 -33 -80q0 -8 1 -17q20 12 55 82q33 64 55 71q0 -141 -150 -217q-8 26 -8 59q0 60 26 115q32 69 85 69q7 0 16 -2zM1024 1739q25 -68 25 -139q0 -81 -34 -139q-2 13 -2 28t5 44.5t5 44.5q0 33 -19 57q-17 -23 -14 -66q4 -49 -4 -68q-38 30 -38 97 q0 42 17 85q22 54 59 56zM1138 1537l-70 -61q0 41 38.5 92t78.5 51q16 0 28 -11q-60 -170 -154 -205q-3 23 37.5 68t41.5 66zM1398 1416q94 122 198 122q61 0 108.5 -43t47.5 -103q0 -14 -3 -26q-83 94 -190 94q-74 0 -161 -44zM1737 1629q70 -29 70 -79q0 -15 -9 -30 q-26 6 -94 38q-54 26 -94 26q-72 0 -168 -71q94 131 222 131q37 0 73 -15zM737 -416q-96 -70 -118 -89q-63 -55 -74 -105q79 41 214 153q-29 -80 -87 -145q-69 -77 -133 -77q-29 0 -55 17q-8 21 -8 44q0 83 90 148q86 61 171 54zM137 200q19 26 66 56q54 34 92 34 q36 0 50 -33q5 -70 -137 -70q-49 0 -71 13zM175 428l78 3q29 -10 58 -22q34 -18 34 -48q0 -10 -2 -20q-11 -15 -42 -15q-29 1 -48 2q-78 29 -78 100zM323 570q41 0 76.5 -48.5t30.5 -90.5q-3 -22 -55 -22q-58 52 -52 161zM363 203q18 12 30 12q26 0 26 -52q0 -77 -74 -122 q-20 38 -20 81q0 54 38 81zM375 313q3 59 74 59q11 0 21 -2q35 -15 50 -75q-25 -57 -72 -57q-9 0 -24 3q-44 10 -49 72zM482 203q74 -45 74 -149q0 -14 -1 -27q-28 0 -62.5 51t-34.5 85q0 29 24 40zM557 562v-92q-2 -56 -37 -76q-35 10 -35 56q0 27 18 72q20 53 42 53 q9 0 12 -13zM566 253q91 -39 122 -119q-8 -18 -25 -15q-41 6 -30 6q-30 9 -62 35q-36 30 -36 56q0 23 31 37zM566 353l87 9q53 -19 56 -21q30 -15 34 -42q-81 -35 -93 -35q-8 0 -17 3q-27 0 -48.5 21.5t-21.5 48.5q0 9 3 16z" />
<glyph unicode="&#x153;" d="M-330 -311q123 -86 123 -205q0 -98 -80.5 -161.5t-195.5 -63.5q-131 0 -256 83q-93 62 -93 102q0 13 7 25q18 17 41 17q28 0 116 -45t150 -45q160 0 160 94q0 59 -72 98q-60 32 -124 32q-24 0 -71.5 -10t-72.5 -10q-105 0 -105 95q0 81 117 81q45 0 105 -8.5t79 -8.5 q52 0 83 39q36 44 71 165h151q-28 -116 -42 -150q-29 -68 -91 -124z" />
<glyph unicode="&#x192;" horiz-adv-x="1218" d="M604 -152q163 0 340 68v-188q-52 -19 -104 -33q-126 -33 -236 -35q-152 -3 -344 68v188q186 -68 344 -68zM340 394q0 -95 32.5 -141t110.5 -63v-221q-172 23 -265 135.5t-91 289.5q1 181 134 308q93 90 238 128v157h-508v214h1246v-214h-525v-157q145 -38 239 -128 q132 -127 134 -308q1 -177 -91.5 -289.5t-264.5 -135.5v221q77 17 110 63t33 141q0 94 -88 167q-84 70 -180 70t-178 -70q-86 -73 -86 -167zM604 -461q163 0 340 68v-188q-52 -19 -104 -33q-126 -33 -236 -35q-152 -3 -344 68v188q186 -68 344 -68zM474 1468q3 -20 17 -63 q31 -67 31 -69q0 -40 -39 -40q-22 0 -42 14q-114 80 -114 205q0 111 83 183t197 72t197 -72t83 -183q0 -125 -114 -205q-20 -14 -42 -14q-39 0 -39 40q0 2 32 69q10 22 16 63q9 56 -26.5 95.5t-106.5 39.5t-106.5 -39.5t-26.5 -95.5z" />
<glyph unicode="&#x2c6;" d="M-230 1604q52 0 91 -38.5t39 -91.5q0 -52 -39 -91t-91 -39q-53 0 -91.5 39t-38.5 91q0 53 38.5 91.5t91.5 38.5z" />
<glyph unicode="&#x2dc;" d="M-395 -40h-159v-125q-103 -12 -179 -88.5t-75 -171.5q1 -106 59 -184q69 -91 185 -86v133q-57 20 -76.5 49t-19.5 86q0 59 67 101q59 38 117 38t119 -38q69 -43 69 -101q0 -57 -19.5 -86t-76.5 -49v-133q116 -5 185 86q58 78 59 184q1 94 -75.5 171t-179.5 89v125z" />
<glyph unicode="&#x2000;" horiz-adv-x="909" />
<glyph unicode="&#x2001;" horiz-adv-x="1819" />
<glyph unicode="&#x2002;" horiz-adv-x="909" />
<glyph unicode="&#x2003;" horiz-adv-x="1819" />
<glyph unicode="&#x2004;" horiz-adv-x="606" />
<glyph unicode="&#x2005;" horiz-adv-x="454" />
<glyph unicode="&#x2006;" horiz-adv-x="303" />
<glyph unicode="&#x2007;" horiz-adv-x="303" />
<glyph unicode="&#x2008;" horiz-adv-x="227" />
<glyph unicode="&#x2009;" horiz-adv-x="363" />
<glyph unicode="&#x200a;" horiz-adv-x="101" />
<glyph unicode="&#x2010;" horiz-adv-x="643" d="M60 414v244h524v-244h-524z" />
<glyph unicode="&#x2011;" horiz-adv-x="643" d="M60 414v244h524v-244h-524z" />
<glyph unicode="&#x2012;" horiz-adv-x="643" d="M60 414v244h524v-244h-524z" />
<glyph unicode="&#x2013;" horiz-adv-x="1146" d="M1018 704v-210h-900v210h900z" />
<glyph unicode="&#x2014;" horiz-adv-x="1800" d="M1658 704v-210h-1540v210h1540z" />
<glyph unicode="&#x2018;" horiz-adv-x="950" d="M280 1462q61 54 91 73q58 37 145 64l37 -79q-86 -53 -119 -95q-44 -53 -51 -137q95 2 138 -14q72 -26 79 -105t-49 -127q-52 -44 -131 -44q-112 0 -180.5 73t-61.5 185q3 56 40 123q30 56 62 83z" />
<glyph unicode="&#x2019;" horiz-adv-x="950" d="M678 1135q-62 -54 -92 -73q-57 -37 -144 -64l-37 79q85 53 119 95q43 53 51 137q-95 -2 -138 14q-72 26 -79 105t49 127q52 44 131 44q112 0 180.5 -73t61.5 -185q-4 -56 -40 -123q-31 -56 -62 -83z" />
<glyph unicode="&#x201a;" horiz-adv-x="2656" d="M345 40l243 -47q-329 -171 -458 -725q362 170 370 174q208 116 303 266q37 -54 43 -200q184 31 283 192q70 114 118 346q65 313 81 362q16 -49 81 -362q48 -232 118 -346q99 -161 283 -192q2 42 7 78q11 85 36 122q95 -150 303 -266q8 -4 370 -174q-129 554 -458 725 l243 47q-61 189 -226 284q-115 65 -339 106q-281 52 -347 73q64 22 347 74q224 42 339 109q165 95 226 284l-243 47q329 171 458 725q-362 -170 -370 -174q-208 -116 -303 -266q-37 54 -43 200q-184 -31 -283 -192q-70 -114 -118 -346q-65 -313 -81 -362q-16 49 -81 362 q-48 232 -118 346q-99 161 -283 192q-2 -42 -7 -78q-11 -85 -36 -122q-95 150 -303 266q-8 4 -370 174q129 -554 458 -725l-243 -47q61 -189 226 -284q115 -65 339 -106q281 -52 347 -73q-64 -22 -347 -74q-224 -42 -339 -109q-165 -95 -226 -284zM846 507 q-305 -143 -481 -143q-158 0 -158 130q0 135 173 135q176 0 466 -122zM1810 507q305 -143 481 -143q158 0 158 130q0 135 -173 135q-176 0 -466 -122zM1322 18q143 -305 143 -481q0 -158 -131 -158q-134 0 -134 174q0 176 122 465zM1322 983q143 305 143 481q0 158 -131 158 q-134 0 -134 -174q0 -176 122 -465z" />
<glyph unicode="&#x201c;" horiz-adv-x="1412" d="M202 1462q61 54 91 73q58 37 145 64l37 -79q-86 -53 -119 -95q-44 -53 -51 -137q95 2 138 -14q72 -26 79 -105t-49 -127q-52 -44 -131 -44q-112 0 -180.5 73t-61.5 185q3 56 40 123q30 56 62 83zM792 1462q61 54 91 73q58 37 145 64l37 -79q-86 -53 -119 -95 q-44 -53 -51 -137q95 2 138 -14q72 -26 79 -105t-49 -127q-52 -44 -131 -44q-112 0 -180.5 73t-61.5 185q3 56 40 123q30 56 62 83z" />
<glyph unicode="&#x201d;" horiz-adv-x="1412" d="M1210 1135q-62 -54 -92 -73q-57 -37 -144 -64l-37 79q85 53 119 95q43 53 51 137q-95 -2 -138 14q-72 26 -79 105t49 127q52 44 131 44q112 0 180.5 -73t61.5 -185q-4 -56 -40 -123q-31 -56 -62 -83zM620 1135q-62 -54 -92 -73q-57 -37 -144 -64l-37 79q85 53 119 95 q43 53 51 137q-95 -2 -138 14q-72 26 -79 105t49 127q52 44 131 44q112 0 180.5 -73t61.5 -185q-4 -56 -40 -123q-31 -56 -62 -83z" />
<glyph unicode="&#x2020;" d="M-668 -449q164 -134 225 -134q83 0 138 51q50 45 71 45q7 0 12 -5q15 -15 15 -38q0 -39 -33 -77q-37 -44 -99.5 -76.5t-108.5 -32.5q-90 0 -220 81q-133 82 -168 164q12 80 108 176q90 92 172 119q77 26 207 40v98h150v-220q-18 1 -36 1q-61 0 -228 -42 q-115 -29 -205 -150z" />
<glyph unicode="&#x2022;" horiz-adv-x="860" d="M94 596l340 339l340 -339l-340 -340z" />
<glyph unicode="&#x2026;" horiz-adv-x="2074" d="M168 -170q0 65 46 111t111 46t111 -46t46 -111t-46 -111t-111 -46t-111 46t-46 111zM871 -170q0 65 46 111t111 46t111 -46t46 -111t-46 -111t-111 -46t-111 46t-46 111zM1582 -170q0 65 46 111t111 46t111 -46t46 -111t-46 -111t-111 -46t-111 46t-46 111z" />
<glyph unicode="&#x202f;" horiz-adv-x="363" />
<glyph unicode="&#x2030;" horiz-adv-x="2656" d="M872 703q95 1 175 -38q50 -25 159 -104q-30 -47 -103 -47q-75 0 -183 48q-85 38 -145 81q-207 -116 -265 -145q-143 -73 -266 -118q53 -8 166 -39q109 -31 160 -37q35 15 69 30q43 25 43 62q0 10 -2 21q20 72 86 72q35 0 62.5 -29t27.5 -65q0 -77 -86 -77q-10 0 -30 1 t-30 1q-61 0 -86 -41q394 -71 909 -434q71 29 122 48q84 32 149 32q128 0 242 -119q-101 -62 -236 -62q-90 0 -164 30q35 -21 136 -99q78 -60 90 -58q33 12 70 12q99 0 192 -75q99 -79 99 -176q0 -47 -29 -80t-75 -33q-97 0 -190 110q-90 106 -94 206l-242 179 q49 -107 49 -202q0 -155 -110 -225q-74 61 -74 196q0 69 18 162l22 115q-238 151 -352 212q-232 126 -435 185q95 -63 205 -237q127 -200 127 -349q0 -15 -2 -30q241 -135 241 -282q0 -35 -15 -68q-121 21 -178 78q-35 35 -53 101q-15 54 -30 61q-44 -118 -157 -182 q-103 -60 -236 -60q-107 0 -179 54q-77 58 -88 162q-4 39 -4 85q0 182 47 171q19 -5 19 -34q0 -22 -7 -62q-6 -43 -7 -63q-4 -140 42 -187q71 -71 175 -71q15 0 41 3q258 31 317 224q-61 -83 -184 -83q-98 0 -135 72q63 125 176 125q51 0 172 -35q-30 234 -179 427 q-102 131 -216 201q-2 -9 -2 -17q0 -20 11 -56q15 -44 17 -55q76 -34 76 -100q0 -65 -73 -74q-41 -5 -74 18.5t-33 63.5q0 55 64 98q-15 61 -37 139q-302 73 -392 98q95 -64 123 -107q36 -54 36 -157q0 -25 -1 -77q-213 13 -239 323l-42 -11v85l42 21q5 15 5 32 q0 28 -15.5 84.5t-15.5 86.5q0 106 154 185q23 -116 23 -201q0 -125 -51 -173q11 2 63 24q53 87 105 229q47 126 65 218l-174 58q-138 64 -138 179q0 20 4 42q64 8 100 8q77 0 117 -45l114 -159q4 103 4 191q0 128 -10 223q-103 14 -192 85t-118 168q35 16 77 16 q70 0 149 -42q65 -36 110 -86q22 136 37 170q34 73 133 109q43 -46 43 -110q0 -79 -63 -173q-50 -75 -118 -132v-352q61 153 255 199q35 -31 35 -70q0 -77 -131 -176q-93 -70 -183 -108q-37 -174 -157 -423q142 76 428 224q-31 95 -31 170q0 128 91 213q84 -69 84 -167 q0 -75 -48 -175q40 23 158 87q73 40 134 87q171 133 177 275q8 182 -108 216q-51 15 -91 15q-56 0 -98 -25q-49 -29 -49 -82q0 -9 1 -17q-1 -4 -1 -9q0 -17 38 -44q8 -2 15 -2q11 0 33 7.5t31 7.5q14 0 17 -18q3 -16 -25 -27q-22 -8 -41 -8q-74 0 -118 81q-30 56 -35 71 q-17 48 -15 112q-53 36 -53 96q0 33 17 58q49 72 158 72q202 0 316 -253q49 -109 49 -217q0 -114 -61 -190l15 -1q113 101 283 260q-6 55 -55 104q-82 83 -90 95q-46 67 -46 169q9 2 18 2q21 0 63 -16t62 -16q21 0 37 9q0 78 46 165q42 -17 78 -85q40 -77 64 -94 q61 73 236 148q8 -99 -90 -283q19 -3 50 -3h48q111 0 165 -24q-12 -36 -90 -78q-71 -38 -71 -67q5 -21 47.5 -55.5t50.5 -65.5q-64 -21 -139 -21q-32 0 -65 4q-7 -30 -11 -114q-4 -67 -24 -100q-106 35 -157 113q-26 39 -49 124q-16 58 -43 58q-285 -285 -602 -487 q138 -14 535 -111q48 82 130 137q89 59 178 59q70 0 128 -40q-66 -168 -365 -189q163 -56 440 -185q-16 34 -16 79q0 71 33 140q36 -6 71 -57q41 -61 60 -75q34 75 150 130q32 -20 32 -64q0 -24 -11 -65l-15 -59q75 10 206 29q4 -44 -34 -91q-11 -14 -71 -82q13 -29 67 -71 q57 -46 70 -69q-15 -25 -111 -36q-119 -14 -127 -16q-4 -14 -4 -31q0 -13 3.5 -38.5t3.5 -38.5q0 -35 -26 -57q-47 -1 -77 33q-18 23 -56 69q-13 -8 -66 -76q-39 -50 -81 -50q-8 0 -16 2q-4 19 -1 56q4 51 4 57q0 22 -5 34q-10 -3 -64 -22q-37 -13 -65 -13q-3 13 -3 26 q0 31 29 75q38 58 45 72q-57 16 -169 61q55 66 220 107q-76 46 -217 102q-185 73 -218 90q8 -39 60 -136q44 -82 44 -130q0 -68 -69 -131q-125 63 -125 240q0 48 7 105q10 72 10 78q-105 29 -582 120q-32 -13 -80 -37zM2092 1444l-165 -4q-134 -10 -152 -58q109 27 149 27 q12 0 12 -4q0 -13 -142 -69q70 -7 165 17q121 30 133 91zM1750 1302q102 -97 221 -97q37 0 71 11q-37 90 -180 90q-19 0 -56 -2t-56 -2zM1961 1713q-111 -51 -184 -125q-91 -93 -91 -196q5 0 62 79q60 84 97 98q-13 -34 -53 -85q-43 -56 -57 -83q169 90 226 312zM1732 1245 q7 -21 47 -80q33 -48 33 -80q0 -8 -1 -17q-20 12 -55 82q-33 64 -55 71q0 -141 150 -217q8 26 8 59q0 60 -25 115q-33 69 -86 69q-7 0 -16 -2zM1631 1739q-25 -68 -25 -139q0 -81 34 -139q2 13 2 28t-4.5 44.5t-4.5 44.5q0 33 18 57q17 -23 14 -66q-4 -49 4 -68q38 30 38 97 q0 42 -17 85q-22 54 -59 56zM1517 1537l71 -61q0 41 -39 92t-79 51q-16 0 -28 -11q60 -170 154 -205q3 23 -37.5 68t-41.5 66zM1257 1416q-94 122 -198 122q-61 0 -108.5 -43t-47.5 -103q0 -14 3 -26q83 94 190 94q74 0 161 -44zM918 1629q-70 -29 -70 -79q0 -15 9 -30 q26 6 94 38q54 26 94 26q72 0 168 -71q-94 131 -221 131q-38 0 -74 -15zM1918 -416q96 -70 118 -89q63 -55 74 -105q-79 41 -214 153q29 -80 88 -145q69 -77 132 -77q29 0 55 17q8 21 8 44q0 83 -90 148q-86 61 -171 54zM2310 257q-4 -70 137 -70q49 0 72 13zM2480 428 l-78 3q-29 -10 -58 -22q-34 -18 -34 -48q0 -10 2 -20q11 -15 42 -15q30 1 48 2q78 29 78 100zM2332 570q-41 0 -76.5 -48.5t-30.5 -90.5q3 -22 55 -22q58 52 52 161zM2292 203q-18 12 -30 12q-26 0 -26 -52q0 -77 74 -122q20 38 20 81q0 54 -38 81zM2280 313q-3 59 -74 59 q-11 0 -21 -2q-35 -15 -50 -75q25 -57 72 -57q10 0 24 3q44 10 49 72zM2173 203q-74 -45 -74 -149q0 -14 1 -27q28 0 63 51t35 85q0 29 -25 40zM2098 562v-92q2 -56 37 -76q35 10 35 56q0 27 -18 72q-20 53 -42 53q-9 0 -12 -13zM2089 253q-91 -39 -122 -119q8 -18 25 -15 q41 6 30 6q30 9 62 35q36 30 36 56q0 23 -31 37zM2089 353l-87 9q-53 -19 -56 -21q-30 -15 -34 -42q81 -35 93 -35q8 0 17 3q28 0 49 21.5t21 48.5q0 9 -3 16z" />
<glyph unicode="&#x2039;" horiz-adv-x="1220" d="M82 703h1046v-209h-1046v209zM447 234q0 65 46 111t111 46t111 -46t46 -111t-46 -111t-111 -46t-111 46t-46 111zM447 962q0 65 46 111t111 46t111 -46t46 -111t-46 -111t-111 -46t-111 46t-46 111z" />
<glyph unicode="&#x205f;" horiz-adv-x="454" />
<glyph unicode="&#x2202;" horiz-adv-x="1140" />
<glyph unicode="&#x25fc;" horiz-adv-x="1200" d="M0 1200h1200v-1200h-1200v1200z" />
</font>
</defs>
</svg>
