<?xml version="1.0" standalone="no"?>
<!DOCTYPE svg PUBLIC "-//W3C//DTD SVG 1.1//EN" "http://www.w3.org/Graphics/SVG/1.1/DTD/svg11.dtd" >
<svg xmlns="http://www.w3.org/2000/svg" xmlns:xlink="http://www.w3.org/1999/xlink" version="1.1">
<metadata>
Created by FontForge 20161116 at Thu Jun  8 22:12:05 2017
 By Jimmy Wärting
Copyright (C) 2015-2017 Sarabveer Singh (https://sarabveer.me); Copyright (C) 2001 Kulbir S. Thind (gurbanifiles.org)
</metadata>
<defs>
<font id="GurbaniAkharTrue-Heavy-1.6" horiz-adv-x="64" >
  <font-face 
    font-family="GurbaniAkharTrue"
    font-weight="700"
    font-stretch="normal"
    units-per-em="2000"
    panose-1="0 0 4 0 0 0 0 0 0 0"
    ascent="1600"
    descent="-400"
    x-height="1198"
    cap-height="1744"
    bbox="-1038 -795.999 2648 1856"
    underline-thickness="100"
    underline-position="-750"
    unicode-range="U+0020-2039"
  />
<missing-glyph horiz-adv-x="1000" 
d="M250 125h500v950h-500v-950zM125 0v1200h750v-1200h-750z" />
    <glyph glyph-name=".notdef" horiz-adv-x="1000" 
d="M250 125h500v950h-500v-950zM125 0v1200h750v-1200h-750z" />
    <glyph glyph-name="space" unicode=" " horiz-adv-x="700" 
 />
    <glyph glyph-name="exclam" unicode="!" horiz-adv-x="538" 
d="M144 108c0 89.333 41.332 134.002 123.999 134.002c40.667 0 71.5 -11.833 92.5 -35.5s31.5 -56.334 31.5 -98.001s-11 -74.834 -33 -99.501s-52.667 -37 -92 -37s-69.666 12 -90.999 36s-32 57.333 -32 100zM325.999 402.002h-114l-50 1026h214z" />
    <glyph glyph-name="quotedbl" unicode="&#x22;" horiz-adv-x="816" 
d="M686 1428l-40 -516h-110l-40 516h190zM320 1428l-40 -516h-110l-40 516h190z" />
    <glyph glyph-name="numbersign" unicode="#" horiz-adv-x="1291" 
d="M470 552h286l62 320h-286zM960 872l-62 -320h274v-134h-300l-82 -418h-142l82 418h-286l-78 -418h-140l76 418h-252v134h278l64 320h-268v132h292l80 424h144l-80 -424h288l80 424h138l-80 -424h254v-132h-280z" />
    <glyph glyph-name="dollar" unicode="$" horiz-adv-x="1143" 
d="M506 1198c-125.333 -22.667 -188 -80 -188 -172c0 -45.333 14 -82.5 42 -111.5s76.667 -55.833 146 -80.5v364zM838 426c0 46.667 -15.332 83.833 -45.999 111.5s-83.334 54.5 -158.001 80.5v-366c136 20.667 204 78.667 204 174zM506.001 97.999
c-164.667 2.66699 -292.004 24.668 -382.004 66.001v164c48.667 -22.667 108.334 -42.334 179.001 -59.001s138.334 -25.667 203.001 -27v418c-133.333 42 -227.666 91.667 -282.999 149s-83 129.666 -83 216.999s32.833 158.666 98.5 213.999s154.834 89.333 267.501 102
v176h128v-174c124 -3.33301 241.333 -28 352 -74l-54 -138c-100.667 40 -200 63.333 -298 70v-412c104 -36 181.333 -69.333 232 -100c100 -60.667 150 -144.667 150 -252c0 -89.333 -33.167 -163.166 -99.5 -221.499s-160.5 -95.166 -282.5 -110.499v-222h-128v214z" />
    <glyph glyph-name="percent" unicode="%" horiz-adv-x="1662" 
d="M1304 1428l-792 -1428h-154l792 1428h154zM972 430c0 297.333 97.333 446 292 446c96 0 170 -38.5 222 -115.5s78 -188.333 78 -334s-25.667 -256.5 -77 -332.5s-124.5 -114 -219.5 -114s-168 39 -219 117s-76.5 189 -76.5 333zM1264 106c102.667 0 154 107.333 154 322
s-51.333 322 -154 322c-50.667 0 -87.667 -26.5 -111 -79.5s-35 -133.5 -35 -241.5s11.667 -188.833 35 -242.5s60.333 -80.5 111 -80.5zM98 1002c0 297.333 97.333 445.999 292 445.999c96 0 170 -38.5 222 -115.5s78 -188.5 78 -334.5s-25.5 -256.833 -76.5 -332.5
s-124.167 -113.5 -219.5 -113.5s-168.5 38.833 -219.5 116.5s-76.5 188.834 -76.5 333.501zM390 1324c-97.333 0 -146 -107.334 -146 -322.001c0 -107.333 11.5 -188.166 34.5 -242.499s60.167 -81.5 111.5 -81.5c102.667 0 154 107.667 154 323s-51.333 323 -154 323z" />
    <glyph glyph-name="ampersand" unicode="&#x26;" horiz-adv-x="1132" 
d="M100 195l3 0.000976562c25.333 0.666992 47.333 -9 66 -29c19.333 -20 29 -43.667 29 -71s-10.167 -50.5 -30.5 -69.5c-20.333 -19.667 -43.833 -29.5 -70.5 -29.5h-1c-26 0 -48.667 10 -68 30c-20 20.667 -30 44.667 -30 72c0 25.333 10 47.666 30 66.999
c21.333 19.333 45.333 29.333 72 30zM494 212.001c14.667 -10 28.498 -19.5 41.498 -28.5s34 -16.333 63 -22s54.167 -8.5 75.5 -8.5c92.667 0 143.334 24.333 152.001 73c0.666992 6 1 11.667 1 17c0 30 -13.833 52.667 -41.5 68s-54.167 23 -79.5 23
c-73.333 0 -126.666 -17.333 -159.999 -52zM453.998 676.001c-117.333 0 -175.997 -46.332 -175.997 -138.999c0 -80 38.667 -160.333 116 -241c27.333 34.667 54.666 69.667 81.999 105c49.333 47.333 115.333 71.666 198 72.999h11c78.667 0 142 -15 190 -45
c65.333 -39.333 98 -99 98 -179c0 -90 -36.667 -157.333 -110 -202c-54.667 -33.333 -118.334 -50 -191.001 -50c-114 0 -231.333 51.333 -352 154c-54.667 46.667 -102.334 108 -143.001 184s-61 151.667 -61 227c0 41.333 6.66699 79 20 113
c42.667 105.333 126.667 158 252 158h418v204h-826v160h1200v-160h-212v-362h-514z" />
    <glyph glyph-name="quotesingle" unicode="'" horiz-adv-x="450" 
d="M320 1428l-40 -516h-110l-40 516h190z" />
    <glyph glyph-name="parenleft" unicode="(" horiz-adv-x="599" 
d="M155 71.5c-50 147.667 -74.999 307.167 -74.999 478.5s25.167 332.166 75.5 482.499s123.166 282.166 218.499 395.499h166c-94 -125.333 -164.5 -263.333 -211.5 -414s-70.5 -304.667 -70.5 -462s24 -310.666 72 -459.999s117.333 -285.333 208 -408h-164
c-96 110.667 -169 239.834 -219 387.501z" />
    <glyph glyph-name="parenright" unicode=")" horiz-adv-x="599" 
d="M520 548c0 -171.333 -25.333 -330.832 -76 -478.499s-123.334 -276.167 -218.001 -385.5h-164c90.667 122.667 160 258.5 208 407.5c48 149.667 72 303.167 72 460.5s-23.667 311.166 -71 461.499s-117.666 288.5 -210.999 414.5h166c96 -114 169 -246.333 219 -397
s75 -311.667 75 -483z" />
    <glyph glyph-name="asterisk" unicode="*" horiz-adv-x="1101" 
d="M644 1520l-40 -384l384 108l28 -184l-368 -30l238 -316l-172 -94l-170 350l-154 -350l-178 94l234 316l-364 30l28 184l380 -108l-42 384h196z" />
    <glyph glyph-name="plus" unicode="+" horiz-adv-x="1143" 
d="M642 776h398v-142h-398v-412h-144v412h-398v142h398v414h144v-414z" />
    <glyph glyph-name="comma" unicode="," horiz-adv-x="536" 
d="M370 232l14 -22c-36 -139.333 -93.333 -295.333 -172 -468h-130c42 162.667 75.333 326 100 490h188z" />
    <glyph glyph-name="hyphen" unicode="-" horiz-adv-x="643" 
d="M80 458v156h484v-156h-484z" />
    <glyph glyph-name="period" unicode="." horiz-adv-x="536" 
d="M144 108c0 42.667 10.5 75.667 31.5 99c20.333 23.333 50.5 35 90.5 35s71 -11.5 93 -34.5s33 -55.833 33 -98.5s-11.167 -76.167 -33.5 -100.5c-23 -24.333 -53.833 -36.5 -92.5 -36.5s-68.667 12 -90 36s-32 57.333 -32 100z" />
    <glyph glyph-name="slash" unicode="/" horiz-adv-x="744" 
d="M724 1428l-532 -1428h-172l532 1428h172z" />
    <glyph glyph-name="zero" unicode="0" horiz-adv-x="1280" 
d="M44 621c0 150.667 53.5 279.5 160.5 386.5s235.833 160.5 386.5 160.5s279.5 -53.5 386.5 -160.5s160.5 -235.833 160.5 -386.5s-53.5 -279.5 -160.5 -386.5s-235.833 -160.5 -386.5 -160.5s-279.5 53.5 -386.5 160.5s-160.5 235.833 -160.5 386.5zM204 621
c0 -106.667 37.833 -197.834 113.5 -273.501s166.834 -113.5 273.501 -113.5s197.834 37.833 273.501 113.5s113.5 166.834 113.5 273.501s-37.833 197.834 -113.5 273.501s-166.834 113.5 -273.501 113.5s-197.834 -37.833 -273.501 -113.5
s-113.5 -166.834 -113.5 -273.501z" />
    <glyph glyph-name="one" unicode="1" horiz-adv-x="1040" 
d="M580 1092c-26 8 -72.999 11.999 -140.999 11.999c-68.667 0 -125 -15.667 -169 -47c-43.333 -30.667 -64.666 -70.667 -63.999 -120c0 -53.333 23.333 -95.666 70 -126.999c45.333 -30.667 95.166 -46 149.499 -46s109.166 11.667 164.499 35
c73.333 30.667 110 73.667 110 129v6c-4 81.333 -44 134 -120 158zM474.001 1266c267.333 -8 400.999 -132.668 400.999 -374.001c0 -10.667 -0.333008 -22 -1 -34c-2 -34.667 -6.16699 -94.334 -12.5 -179.001s-9.5 -179.667 -9.5 -285c0 -199.333 38 -345.333 114 -438
c2 -8 3 -15.333 3 -22c0 -26.667 -13 -40 -39 -40c-43.333 0 -88 33.667 -134 101c-56 84 -92 197.667 -108 341c-4 38.667 -6 86.334 -6 143.001s2 123 6 199c-82.667 -41.333 -162 -64 -238 -68c-11.333 -0.666992 -22.666 -1 -33.999 -1
c-94 0.666992 -177.667 25.667 -251 75c-82 56 -123 134.833 -123 236.5s31.667 182.834 95 243.501c70.667 68 174 102 310 102h27z" />
    <glyph glyph-name="two" unicode="2" horiz-adv-x="1196" 
d="M492 1252c12.667 0.666992 24.6689 1 36.002 1c164 0 286.667 -38.667 368 -116c86.667 -82.667 130 -197 130 -343s-39.333 -263 -118 -351c-66.667 -75.333 -169.334 -137 -308.001 -185c30.667 -25.333 87.667 -66 171 -122c40.667 -26.667 61 -50.667 61 -72
c0 -6.66699 -1.33301 -14 -4 -22c-7.33301 -23.333 -23.5 -35 -48.5 -35s-82.833 23.667 -173.5 71s-160 76 -208 86c-81.333 14 -162.333 27.667 -243 41c-80 19.333 -121.667 53 -125 101v11c0 36.667 12.667 66.334 38 89.001c28 25.333 61.667 38.666 101 39.999h6
c38 0 78.667 -11.333 122 -34c45.333 -24 87.666 -36 126.999 -36c97.333 0 191 29.667 281 89c112 74.667 168 175.667 168 303c0 8 -0.333008 16 -1 24c-6.66699 117.333 -39.5 196.5 -98.5 237.5s-166.833 63.833 -323.5 68.5h-17
c-62.667 0 -129.334 -9.66699 -200.001 -29c-77.333 -21.333 -121.666 -32 -132.999 -32c-26.667 0 -46 13.667 -58 41c-6 13.333 -9 26 -9 38c0 80.667 153 126 459 136z" />
    <glyph glyph-name="three" unicode="3" horiz-adv-x="1212" 
d="M251 1228c86.667 14.667 187.497 21.999 302.497 21.999s224.167 -25.333 327.5 -76c119.333 -59.333 179 -137.333 179 -234l-122 -218c0 -2.66699 15.667 -22.667 47 -60c32 -37.333 49.667 -84 53 -140v-13c0 -134.667 -108.667 -235.667 -326 -303
c-1.33301 -1.33301 -2 -3.33301 -2 -6s42.167 -18.834 126.5 -48.501s126.5 -61.5 126.5 -95.5c0 -5.33301 -1 -10.666 -3 -15.999c-8 -22.667 -32.667 -34 -74 -34s-108 15.667 -200 47s-181.333 62.333 -268 93c-78.667 20.667 -157.667 41.334 -237 62.001
c-94 32 -141 76 -141 132v9c5.33301 60 46 90 122 90c58.667 0 118 -23.167 178 -69.5s125.667 -69.5 197 -69.5c22.667 0 59 8.33301 109 25s87 31 111 43c79.333 39.333 119 84.333 119 135c0 6.66699 -0.666992 13 -2 19c-16 86 -74 129 -174 129
c-25.333 0 -78.166 -5 -158.499 -15s-139.5 -15 -177.5 -15c-154.667 0 -232 32 -232 96c0 32 21.667 58.667 65 80c44 21.333 92.333 32 145 32s113.834 -5.16699 183.501 -15.5s122.834 -15.5 159.501 -15.5c142 0 213 49 213 147c0 102 -146.667 153 -440 153
c-29.333 0 -82.5 -8 -159.5 -24s-131.167 -24 -162.5 -24c-52 0 -82.667 16 -92 48c-2 6 -3 12 -3 18c0 52 70 89.333 210 112z" />
    <glyph glyph-name="four" unicode="4" horiz-adv-x="1112" 
d="M685 469c-34.667 19.333 -94.667 29 -180 29s-147 -11.333 -185 -34c-48 -28 -72 -79.333 -72 -154c0 -108 85 -162 255 -162s255 54 255 162c0 78.667 -24.333 131.667 -73 159zM206 876c0 -62.667 24.501 -118.334 73.501 -167.001s119.5 -73 211.5 -73
s166.5 25.5 223.5 76.5s85.5 108 85.5 171s-27 113.5 -81 151.5c-36 25.333 -74.333 39.666 -115 42.999v156c135.333 -21.333 229.166 -59.5 281.499 -114.5s78.5 -136.167 78.5 -243.5c0 -59.333 -13.333 -110 -40 -152c-11.333 -18 -33.5 -42.833 -66.5 -74.5
s-49.5 -58.167 -49.5 -79.5c0 -5.33301 11.333 -19.333 34 -42c54.667 -56.667 82 -131.5 82 -224.5s-40.333 -167.167 -121 -222.5s-180.667 -83 -300 -83s-218.333 27.333 -297 82s-118 131.334 -118 230.001c0 54.667 8 97 24 127s35.667 56.833 59 80.5
s35 43.167 35 58.5s-16.5 38.833 -49.5 70.5s-59.667 63.667 -80 96s-30.5 79.5 -30.5 141.5c0 97.333 31 175.833 93 235.5s145.667 97.834 251 114.501v-156c-122.667 -30.667 -184 -98 -184 -202z" />
    <glyph glyph-name="five" unicode="5" horiz-adv-x="1140" 
d="M960 0l-152.999 -0.000976562v308c-28.667 -26.667 -72.667 -52 -132 -76s-114 -35.667 -164 -35c-124 0 -233.333 32.667 -328 98c-62 42.667 -104 85 -126 127c2 6.66699 24.333 70.667 67 192s66 194.333 70 219c4 24 6.33301 49.667 7 77
c-0.666992 28 -11.667 59.333 -33 94s-55.666 52 -102.999 52h-49v142h150c49.333 0 92.666 -34 129.999 -102s55.666 -137 54.999 -207c0 -15.333 -1 -29.666 -3 -42.999c-23.333 -124 -67.333 -255 -132 -393c86 -70 199.333 -105 340 -105c32 0 78 16 138 48
s97.667 59.333 113 82v720h153v-1198z" />
    <glyph glyph-name="six" unicode="6" horiz-adv-x="1008" 
d="M634 474l-221.999 17c-124 0 -190.667 -55.667 -200 -167c-0.666992 -10 -1 -19.667 -1 -29c0 -72.667 28.333 -118.667 85 -138c28.667 -10 93.334 -15 194.001 -15h256c34 0 57 -1.66699 69 -5c24 -8 37 -25 39 -51v-9c0 -52.667 -36 -79 -108 -79h-416
c-78 0 -143.5 30.5 -196.5 91.5s-79.5 137.167 -79.5 228.5c0 64.667 17.333 117 52 157c33.333 38 50 72 50 102v5c-0.666992 9.33301 -18.5 40.333 -53.5 93s-52.5 117.167 -52.5 193.5s30.5 137 91.5 182c60.333 45 127.833 72.167 202.5 81.5
c43.333 5.33301 84.333 8 123 8c27.333 0 53 -1.33301 77 -4c1.33301 0.666992 2 2.33398 2 5.00098s-13.833 22.667 -41.5 60s-41.834 65.666 -42.501 84.999v12c0 88 28.667 154 86 198c48 36.667 103.833 55 167.5 55s115.5 -7.16699 155.5 -21.5s60 -29.166 60 -44.499
c0 -8 -6.33301 -15 -19 -21c-197.333 0 -296 -46.667 -296 -140c0 -30 4 -52.667 12 -68s28.667 -47.333 62 -96c19.333 -28 51 -52 95 -72c42 -18.667 63 -37.334 63 -56.001c0 -68 -28 -102 -84 -102c-11.333 0 -75.333 19.667 -192 59
c-33.333 11.333 -78.666 17 -135.999 17s-111.333 -16.333 -162 -49c-48 -31.333 -72 -69.333 -72 -114v-7c6.66699 -136.667 75.667 -205 207 -205c26 0 64 5.5 114 16.5s94.167 16.5 132.5 16.5s75.666 -8.33301 111.999 -25s55.166 -37 56.499 -61v-6
c0 -65.333 -63.333 -98 -190 -98z" />
    <glyph glyph-name="seven" unicode="7" horiz-adv-x="1238" 
d="M946 1145c92.667 -83.333 139.999 -186.331 141.999 -308.998v-14c0 -117.333 -24.667 -214 -74 -290c-51.333 -80 -108.666 -142.667 -171.999 -188c-99.333 -71.333 -193.666 -126.333 -282.999 -165s-180.833 -77.834 -274.5 -117.501s-160 -59.5 -199 -59.5
s-58.5 12 -58.5 36c0 26.667 67.833 71.667 203.5 135s226.667 106.5 273 129.5s106 60 179 111s127.5 99.5 163.5 145.5s61.333 115 76 207c3.33301 20.667 5 40.667 5 60c0 81.333 -27.667 144.333 -83 189s-134.333 68.667 -237 72h-5
c-66.667 0 -127.334 -40.667 -182.001 -122c-32.667 -48.667 -50 -74.334 -52 -77.001c-24.667 -30 -49.334 -45 -74.001 -45c-62.667 0 -94 36.167 -94 108.5s48.833 138.833 146.5 199.5s193.834 91 288.501 91c135.333 0 239 -32.333 311 -97z" />
    <glyph glyph-name="eight" unicode="8" horiz-adv-x="1286" 
d="M1021 -5l-111.002 2.99902c-308 0 -529.333 140.667 -664 422c-46.667 98 -70 218.667 -70 362c0 35.333 1.33301 66.666 4 93.999h-102c-39.333 0 -59 22.667 -59 68c0 28.667 7.5 60.334 22.5 95.001s31.833 61 50.5 79c60.667 58 127 87 199 87
c44.667 0 67 -19.667 67 -59v-116h764v-154h-792c-2.66699 -23.333 -4 -50 -4 -80c0 -131.333 25.333 -242.666 76 -333.999c76 -137.333 165.333 -228.333 268 -273c40.667 -18 105.334 -30.333 194.001 -37c56.667 1.33301 113.334 2.33301 170.001 3
c58.667 -4.66699 88 -37 88 -97c0 -42 -33.667 -63 -101 -63z" />
    <glyph glyph-name="nine" unicode="9" horiz-adv-x="1272" 
d="M1067 874l-56.9971 2.00293h-672c-2.66699 -23.333 -4 -50.333 -4 -81c0 -131.333 25.333 -242.333 76 -333c76.667 -137.333 166.334 -228.666 269.001 -273.999c55.333 -24.667 131.666 -37 228.999 -37c16.667 0 33.667 0.333008 51 1c42 1.33301 73 2 93 2
s38 -6 54 -18s24 -36.667 24 -74c0 -44.667 -33.667 -67 -101 -67l-111 3c-306.667 0 -527.334 140.667 -662.001 422c-48 100 -72 223 -72 369c0 32.667 1.33301 61.667 4 87h-102c-39.333 0 -59 22.667 -59 68c0 28 7.5 59.5 22.5 94.5s31.833 61.5 50.5 79.5
c60 58 126 87 198 87c45.333 0 68 -19.667 68 -59v-116h416c-65.333 54 -98 124 -98 210v8c2 89.333 36 155.666 102 198.999c52.667 34 118.667 51 198 51c42.667 0 80 -5 112 -15s48 -21.333 48 -34c0 -6.66699 -6 -13 -18 -19c-54.667 -4 -102 -11.667 -142 -23
c-96 -26.667 -147.333 -68.334 -154 -125.001c-1.33301 -10 -2 -26.333 -2 -49s6.5 -45.334 19.5 -68.001s36.5 -57 70.5 -103c19.333 -26 56.666 -48.833 111.999 -68.5s85.166 -35.834 89.499 -48.501s6.5 -23.667 6.5 -33c0 -25.333 -19.667 -38 -59 -38z" />
    <glyph glyph-name="colon" unicode=":" horiz-adv-x="536" 
d="M266 1100c84 0 126 -45.333 126 -136c0 -41.333 -11.167 -74.333 -33.5 -99s-53 -37 -92 -37s-69.167 12.167 -90.5 36.5s-32 57.5 -32 99.5c0 90.667 40.667 136 122 136zM144 108c0 42.667 10.5 75.667 31.5 99s51.333 35 91 35s70.5 -11.5 92.5 -34.5
s33 -55.833 33 -98.5s-11.167 -76.167 -33.5 -100.5s-53 -36.5 -92 -36.5s-69.167 12 -90.5 36s-32 57.333 -32 100z" />
    <glyph glyph-name="semicolon" unicode=";" horiz-adv-x="536" 
d="M140 964c0 90.667 40.667 136 122 136c84 0 126 -45.333 126 -136c0 -42.667 -11.167 -76 -33.5 -100s-53 -36 -92 -36s-69.167 12.167 -90.5 36.5s-32 57.5 -32 99.5zM62 -258c47.333 186.667 81.333 350 102 490h188l14 -22c-34 -129.333 -91.333 -285.333 -172 -468
h-132z" />
    <glyph glyph-name="less" unicode="&#x3c;" horiz-adv-x="2168" 
d="M1133 550c76 -264 211.999 -396 407.999 -396h10c61.333 2.66699 112 18.667 152 48c36.667 27.333 55 65 55 113v12c-3.33301 54 -32.666 106.5 -87.999 157.5s-108.333 76.5 -159 76.5c-5.33301 0 -21 -1.83301 -47 -5.5s-136.333 -5.5 -331 -5.5zM1094 1038
c0 -125.333 4.66699 -236 14 -332c245.333 0 389 7.66699 431 23c82 28.667 144.5 68.5 187.5 119.5s79.167 114.167 108.5 189.5h-741zM180.999 944c1.33301 -56.667 20.001 -100.001 56.001 -130.001s80.667 -45 134 -45c53.333 0.666992 109.666 15.667 168.999 45
c60.667 30.667 91 75.334 91 134.001c-0.666992 116.667 -76.334 175 -227.001 175c-149.333 0 -223.666 -57 -222.999 -171v-8zM762 394.999c0 -119.333 19 -225.334 57 -318.001l70 -129c4.66699 -7.33301 7 -14.333 7 -21c0 -20.667 -12.833 -31 -38.5 -31
s-51.5 9.66699 -77.5 29c-62.667 46.667 -109.5 116.5 -140.5 209.5s-46.5 180 -46.5 261s7.33301 177.5 22 289.5c-80 -46.667 -163.5 -70 -250.5 -70s-165.833 28.333 -236.5 85s-106 135 -106 235c0 230 125.667 345 377 345h26c132 -4 226.667 -35.5 284 -94.5
s86 -149.5 86 -271.5c0 -52 -3.66699 -140.667 -11 -266c-14.667 -163.333 -22 -247.666 -22 -252.999zM1902 1405c-164.667 104 -301.998 155.999 -411.998 155.999s-204.333 -46.333 -283 -139c-54 -64.667 -90.333 -139.334 -109 -224.001h957v-160h-60
c-32 -97.333 -68.667 -175.333 -110 -234s-102 -112 -182 -160c142 -85.333 213 -191 213 -317c0 -91.333 -29.5 -169 -88.5 -233s-148.5 -96 -268.5 -96c-194.667 0 -345.667 75.667 -453 227c-88 124.667 -141 290.334 -159 497.001c-6.66699 72 -10 159.667 -10 263v53
h-57v160h58c12.667 143.333 70.167 265.833 172.5 367.5s226.5 152.5 372.5 152.5s321 -65 525 -195c3.33301 -2 25.166 -18.333 65.499 -49s66.166 -50 77.499 -58v-208c-70.667 70.667 -153.667 136.334 -249 197.001z" />
    <glyph glyph-name="equal" unicode="=" horiz-adv-x="1143" 
d="M112 434v142h916v-142h-916zM112 832v142h916v-142h-916z" />
    <glyph glyph-name="greater" unicode="&#x3e;" horiz-adv-x="1182" 
d="M321 1192c-58.667 -37.333 -117.668 -55.999 -177.001 -55.999s-118.666 27.333 -177.999 82v182c6 -2 15.667 -7 29 -15c86 -55.333 140.333 -83 163 -83h2c31.333 3.33301 179.666 120.666 444.999 351.999c75.333 64 147.833 113.333 217.5 148s147.5 52 233.5 52
c132.667 0 251.667 -37.167 357 -111.5s179.666 -172.166 222.999 -293.499c21.333 -60.667 32 -101.667 32 -123c0 -46.667 -20.333 -70 -61 -70c-30.667 0 -58 25 -82 75l-51 102c-38 82 -94.167 147.5 -168.5 196.5s-161.666 73.5 -261.999 73.5
s-211.833 -50 -334.5 -150c-41.333 -40.667 -114.666 -107.334 -219.999 -200.001c-38 -42 -94 -95.667 -168 -161z" />
    <glyph glyph-name="question" unicode="?" horiz-adv-x="868" 
d="M234 108c0 89.333 41.333 134 124 134c38 0 67.833 -11.167 89.5 -33.5s32.5 -55.5 32.5 -99.5s-11 -77.833 -33 -101.5s-51.5 -35.5 -88.5 -35.5s-67 10.667 -90 32s-34.5 56 -34.5 104zM648 1094c0 133.333 -85.6689 199.998 -257.002 199.998
c-88 0 -189.667 -28 -305 -84l-62 140c123.333 66 250.333 99 381 99c0.666992 -0.666992 1.33398 -1 2.00098 -1c131.333 0 232.333 -30.667 303 -92s106 -147.333 106 -258c0 -90 -26 -168 -78 -234c-26.667 -33.333 -75.834 -80.166 -147.501 -140.499
s-118 -108.666 -139 -144.999s-31.5 -83.833 -31.5 -142.5v-34h-140v54c0 77.333 12.333 140.333 37 189s70.334 101 137.001 157s111.334 97 134.001 123c40 46.667 60 103 60 169z" />
    <glyph glyph-name="at" unicode="@" 
d="M-506 -56h-96.001c18.667 -58.667 54 -119.334 106 -182.001c70.667 -88 134 -149.333 190 -184l144 -66c8 -2.66699 13.333 -4 16 -4c26.667 0 40 22.667 40 68c0 61.333 -29.333 107.333 -88 138c-22.667 9.33301 -44 15.333 -64 18s-36.667 8.66699 -50 18
s-25.666 18.333 -36.999 27s-27 20.334 -47 35.001c-56 41.333 -94 85.333 -114 132z" />
    <glyph glyph-name="A" unicode="A" horiz-adv-x="1430" 
d="M1270 1038l0.00195312 -1038h-162v638c-100.667 -44.667 -169.667 -95 -207 -151c-24 -36 -53 -114.333 -87 -235c-26.667 -94 -76 -141 -148 -141c-17.333 0 -36 3 -56 9c-51.333 15.333 -77 46 -77 92c0 61.333 35.333 130.666 106 207.999
c34 37.333 59.667 71.333 77 102s26 61.334 26 92.001c0 65.333 -9.16699 128.666 -27.5 189.999s-33.833 93.333 -46.5 96h-3c-23.333 0 -85.333 -54.667 -186 -164c-104.667 -113.333 -161 -209.333 -169 -288c-5.33301 -52 -22.333 -94.5 -51 -127.5
s-63 -49.5 -103 -49.5c-12 0 -24 1.66699 -36 5c-58 15.333 -87 50.666 -87 105.999c0 30.667 9 64 27 100c26 38 52.333 76.667 79 116c25.333 37.333 38 83.666 38 138.999c-0.666992 3.33301 -1 6.66602 -1 9.99902c-1.33301 60 -2.5 97 -3.5 111s-6.5 39.333 -16.5 76
c-18.667 69.333 -47.334 104 -86.001 104h-94v160h160c28.667 0 58 -17.333 88 -52c54.667 -62.667 86.667 -144.334 96 -245.001c2.66699 -35.333 5.33398 -70.333 8.00098 -105c45.333 47.333 108.666 110 189.999 188c36 31.333 70 60 102 86
c29.333 24 52.666 36 69.999 36h4c43.333 -4.66699 92.666 -74 147.999 -208c13.333 -32 24.333 -74.833 33 -128.5s14.334 -84.167 17.001 -91.5c34.667 23.333 71.167 48 109.5 74s73.833 42.667 106.5 50v396h374v-160h-212z" />
    <glyph glyph-name="B" unicode="B" horiz-adv-x="1108" 
d="M370 730c-118 0 -176.999 -34.667 -176.999 -104c0 -10 1.66699 -20.667 5 -32c14 -50.667 64.333 -76 151 -76c49.333 0 86.166 7.33301 110.499 22s60.5 44.667 108.5 90c-52.667 66.667 -118.667 100 -198 100zM1158 1038l-206 -0.000976562l-32 -186
c-18 -52 -58 -122.667 -120 -212c76 -63.333 114 -150.833 114 -262.5s-46 -202.5 -138 -272.5s-201.333 -105 -328 -105c-65.333 0 -140.333 21.667 -225 65c-49.333 24.667 -92.333 51.5 -129 80.5s-55 49.833 -55 62.5
c-0.666992 2.66699 1.66602 5.33398 6.99902 8.00098c0.666992 0 1.66699 0.333008 3 1c12.667 0 69 -12 169 -36c109.333 -26 177.333 -39 204 -39c100 0 179 21.667 237 65s87 101.666 87 174.999c0 35.333 -22 83.333 -66 144
c-95.333 -95.333 -196.333 -144.666 -303 -147.999h-21c-96.667 0 -171.667 22 -225 66c-57.333 47.333 -86 106.5 -86 177.5c0.666992 71 31.667 132.833 93 185.5c53.333 46 122 69 206 69c12.667 0 26 -0.666992 40 -2c134 -10 228.667 -51.333 284 -124
c22 26 53.333 77.333 94 154c14.667 38 23.334 82.667 26.001 134h-804v160h1174v-160z" />
    <glyph glyph-name="C" unicode="C" horiz-adv-x="1108" 
d="M424 328c-26.667 5.33301 -53.667 8 -81 8c-102 0 -153 -38.333 -153 -115c0 -56.667 50.333 -85 151 -85c28 0 55.667 2 83 6v186zM568 332v-186c24 -3.33301 49 -5 75 -5c106 0 159 29 159 87c0 75.333 -50 113 -150 113c-28 0 -56 -3 -84 -9zM1144 1038
l-186.001 -0.000976562v-366h-686c-42 0 -63 -23.333 -63 -70c0 -15.333 3 -32.666 9 -51.999c16.667 -56 41 -84 73 -84h3c28.667 3.33301 99.334 7.33301 212.001 12h27c172 0 287 -18.333 345 -55c49.333 -30.667 76 -90.334 80 -179.001v-17
c0 -79.333 -29.333 -136.333 -88 -171c-62.667 -37.333 -185.5 -56 -368.5 -56s-307.833 14 -374.5 42c-70 29.333 -105 92.666 -105 189.999c0 26.667 11.333 60.5 34 101.5s34 72.5 34 94.5c0 4.66699 -8.16699 31.334 -24.5 80.001s-24.5 91.834 -24.5 129.501
s17.167 79.167 51.5 124.5s71.5 68 111.5 68h594v208h-822v160h1168v-160z" />
    <glyph glyph-name="D" unicode="D" horiz-adv-x="1102" 
d="M780 1038l-489.999 -0.000976562c14 -80 21 -150.667 21 -212c0 -29.333 -1.66699 -56.666 -5 -81.999c-10 -77.333 -40.667 -173.333 -92 -288c94 -76 205.333 -114 334 -114c41.333 0 118.666 34 231.999 102v594zM1148 1038h-206v-1038h-162v262
c-104.667 -56 -196.667 -84 -276 -84c-124 0 -238.333 35.667 -343 107c-78 53.333 -123.667 99 -137 137c24 54 59.667 157.333 107 310c8.66699 37.333 13 79 13 125c0 54 -6 114.333 -18 181h-142v160h1164v-160z" />
    <glyph glyph-name="E" unicode="E" horiz-adv-x="1274" 
d="M1150 1038c-60 -195.333 -151.335 -327.999 -274.002 -397.999c121.333 -72.667 182 -176.667 182 -312c0 -88.667 -28.667 -163.334 -86 -224.001c-65.333 -70.667 -157.333 -106 -276 -106c-190 0 -338 74.667 -444 224c-89.333 124.667 -143.333 292 -162 502
c-6 66 -9 141.333 -9 226c0 28 0.333008 57.333 1 88h-104v160h110c67.333 362 251.333 553.333 552 574c34.667 2.66699 75.334 4 122.001 4c288 0 432 -37.333 432 -112c0 -41.333 -95 -62 -285 -62c-33.333 0 -81.666 0.666992 -144.999 2c-45.333 1.33301 -80 2 -104 2
h-24c-134 -2 -237.667 -70.667 -311 -206c-30 -56 -53 -123.333 -69 -202h1046v-160h-152zM667.998 553.001c-5.33301 0 -21.3311 -1.83301 -47.998 -5.5s-135.334 -5.5 -326.001 -5.5c16 -75.333 40 -140 72 -194c73.333 -125.333 177.333 -188 312 -188h10
c64 1.33301 116 17 156 47c37.333 28 55.666 65 54.999 111v12c-3.33301 52 -30.5 102.167 -81.5 150.5s-100.833 72.5 -149.5 72.5zM252 1038c-1.33301 -26.667 -2.00098 -56 -2.00098 -88c0 -69.333 2.66699 -150 8 -242c32.667 -0.666992 63.334 -1 92.001 -1
c188 0 303.333 7.66699 346 23c78 28 139.333 68.667 184 122s80 115.333 106 186h-734z" />
    <glyph glyph-name="F" unicode="F" horiz-adv-x="1140" 
d="M842 225c0 71.333 -42.334 106.998 -127.001 106.998c-21.333 0 -40.333 -2 -57 -6c-44.667 -11.333 -92.667 -51.333 -144 -120c31.333 -19.333 62.333 -38.666 93 -57.999c26 -12.667 57 -19 93 -19c6.66699 0 13.334 0.333008 20.001 1
c81.333 4.66699 122 36.334 122 95.001zM1180 1038l-199.999 0.000976562v-424h-652c-1.33301 -10.667 -2 -22.334 -2 -35.001c0 -35.333 6.66699 -75 20 -119c17.333 -59.333 50 -117.333 98 -174c20 24.667 43 52.167 69 82.5s58.667 52.666 98 66.999
s74.833 21.5 106.5 21.5s63 -3.5 94 -10.5s65.167 -26.5 102.5 -58.5c46 -39.333 69 -95.666 69 -168.999s-26.5 -128.666 -79.5 -165.999s-117.5 -56 -193.5 -56c-26 -0.666992 -63.667 3.66602 -113 12.999c-122.667 22.667 -236.334 106.667 -341.001 252
c-61.333 85.333 -92 202.666 -92 351.999h-104c-38 0 -57 18.833 -57 56.5s15.667 84.834 47 141.501c14 25.333 42.5 48.333 85.5 69s82.167 31 117.5 31s53 -12.667 53 -38v-102h512v266h-838v160h1200v-160z" />
    <glyph glyph-name="G" unicode="G" horiz-adv-x="1300" 
d="M1338 1038h-195.998v-1038h-160v234c-64.667 -40 -118.667 -60 -162 -60c-60 0 -132.667 44 -218 132c-37.333 -28 -75 -56 -113 -84c-37.333 -22.667 -80.333 -34 -129 -34c-78.667 0 -159.334 35.667 -242.001 107c-74.667 64.667 -111.667 111.334 -111 140.001
c0 3.33301 0.333008 6.33301 1 9c-2 1.33301 -3 4.5 -3 9.5s24.167 64.833 72.5 179.5s72.5 208.667 72.5 282s-31.333 113.666 -94 120.999h-80v162h150c22 0 49 -12.167 81 -36.5c31.333 -23.667 57.666 -56.834 78.999 -99.501c18.667 -37.333 28 -84.666 28 -141.999
v-26c-2.66699 -69.333 -46.667 -214 -132 -434c71.333 -74.667 130 -112 176 -112h2c119.333 4 179 79 179 225c0 65.333 -7.16699 126.666 -21.5 183.999s-21.5 97 -21.5 119c0 60 15.5 116 46.5 168s60.667 78 89 78s54.666 -25.667 78.999 -77
s36.5 -98.166 36.5 -140.499s-3.66699 -74.5 -11 -96.5c-32 -100 -48 -184.667 -48 -254c0 -125.333 52 -197.333 156 -216c7.33301 -1.33301 14.333 -2 21 -2c28.667 0 54.334 11.333 77.001 34c26.667 28 40 61.333 40 100v728h356v-160z" />
    <glyph glyph-name="H" unicode="H" horiz-adv-x="62" 
d="M-168 -50l-140 0.000976562v-232c0 -109.333 -30.667 -166.666 -92 -171.999c-6 -0.666992 -11.667 -1 -17 -1c-22.667 0 -40 4.66699 -52 14c-20.667 15.333 -50.667 43.666 -90 84.999s-59 80.666 -59 117.999c0 12 3.33301 26 10 42c5.33301 16 27.333 29 66 39
s58 21.667 58 35c0 25.333 -34.667 38 -104 38c-28 0 -50.667 -4.66699 -68 -14c-53.333 -29.333 -80 -78.333 -80 -147s34.333 -143 103 -223s140 -120 214 -120s134.333 28.667 181 86s70 131.333 70 222v230z" />
    <glyph glyph-name="I" unicode="I" horiz-adv-x="572" 
d="M606 1038l-298.001 0.000976562v-1040h-160v1040h-164v160h164v43c0 110 -4.66699 181 -14 213c-27.333 92 -87.333 138 -180 138c-108.667 0 -170 -55.333 -184 -166l-8 -78h-148c-2 16 -3 32 -3 48c0 50 9 99.333 27 148c23.333 64 61.833 113.333 115.5 148
s109.834 52 168.501 52c153.333 0 258 -46.333 314 -139c49.333 -81.333 74 -195.333 74 -342c0 -20.667 -0.666992 -42.334 -2 -65.001h298v-160z" />
    <glyph glyph-name="J" unicode="J" horiz-adv-x="1140" 
d="M808 1038h-537.999c30.667 -56.667 74.167 -106.167 130.5 -148.5s114.166 -63.5 173.499 -63.5s111.333 23.333 156 70c8 8 34 55.333 78 142zM1175 1038l-195.002 -0.00390625c-21.333 -83.333 -46.5 -143.833 -75.5 -181.5s-61.167 -73.167 -96.5 -106.5
c110 -67.333 165 -155.666 165 -264.999c0 -120.667 -49 -214.334 -147 -281.001c-37.333 -25.333 -76.5 -41.5 -117.5 -48.5s-78.5 -12.833 -112.5 -17.5c1.33301 -2.66699 12.333 -17.834 33 -45.501s31 -50.167 31 -67.5s-11 -26 -33 -26s-51.5 10.5 -88.5 31.5
s-65.833 44.167 -86.5 69.5c-30.667 38.667 -77.167 65.834 -139.5 81.501s-95.833 25.834 -100.5 30.501c-28.667 24.667 -43 53 -43 85s11.667 60.167 35 84.5s47.833 36.5 73.5 36.5s47.167 -8 64.5 -24c82.667 -75.333 144.334 -113 185.001 -113
c8.66699 0 15 1.66699 19 5c22 1.33301 67.333 12 136 32c74.667 30.667 114.667 76.334 120 137.001c0.666992 5.33301 0.666992 10.666 0 15.999c0 54 -23.667 97.667 -71 131c-44.667 32 -90 47.667 -136 47c-7.33301 0 -15 -0.333008 -23 -1
c-110.667 -21.333 -226.667 -43.333 -348 -66h-5c-20.667 0 -53 14 -97 42c-48 30.667 -72.333 56 -73 76c0 12.667 11 20.667 33 24c164.667 16 247 28.667 247 38c0 0.666992 -0.333008 1.33398 -1 2.00098c2.66699 0.666992 4.33398 1.33398 5.00098 2.00098l-57 34
c-46 27.333 -80.833 54.833 -104.5 82.5s-43.5 59.834 -59.5 96.501l-26 59h-100v160h1189v-160z" />
    <glyph glyph-name="K" unicode="K" horiz-adv-x="1112" 
d="M952 1038v-1038h-162v290c-99.333 -61.333 -192 -92 -278 -92c-122 0 -229 32.667 -321 98c-50.667 36.667 -91 78 -121 124l56 136c40.667 112 61 212.667 61 302s-15 149.333 -45 180h-160v160h202c66 0 114 -53.333 144 -160c10.667 -37.333 16 -92 16 -164h446v324
h364v-160h-202zM790 712l-445.999 -0.00195312c-3.33301 -29.333 -14.5 -73.166 -33.5 -131.499s-35.833 -99.166 -50.5 -122.499c37.333 -30 64.666 -49.333 81.999 -58c54 -25.333 125.333 -38 214 -38c42.667 0 120.667 34 234 102v248z" />
    <glyph glyph-name="L" unicode="L" horiz-adv-x="1340" 
d="M926 1038h-396l190 -368h8zM1110 1038l-136.002 -246c189.333 -72 284 -190.667 284 -356s-49.667 -284.666 -149 -357.999c-47.333 -34.667 -119.666 -60.667 -216.999 -78v156c55.333 14 96.333 32 123 54c58 48.667 87 125.334 87 230.001
c0 91.333 -70 160.666 -210 207.999l-160 -274h-12l-162 274c-136 -47.333 -204 -116.666 -204 -207.999c0 -104.667 29 -181.334 87 -230.001c26.667 -22 67.667 -40 123 -54v-156c-97.333 17.333 -169.666 43.333 -216.999 78c-99.333 73.333 -149 192.666 -149 357.999
s92.667 284 278 356l-134 246h-350v160h1376v-160h-258zM19.998 142c20 20 43.167 30.001 69.5 30.001c25.667 0 47.834 -10 66.501 -30c20 -22 30 -47 30 -75c0 -23.333 -9.33301 -44.333 -28 -63c-20 -18.667 -43.333 -29.334 -70 -32.001
c-26.667 0.666992 -49.334 11 -68.001 31c-19.333 20.667 -28.666 45 -27.999 73c-0.666992 24.667 8.66602 46.667 27.999 66z" />
    <glyph glyph-name="M" unicode="M" 
d="M-244 1740c-85.333 0 -152.668 -26.001 -202.001 -78.001c-37.333 -37.333 -56 -86 -56 -146s25.333 -113.333 76 -160c25.333 -25.333 45 -38 59 -38s21 4.66699 21 14c0 5.33301 -0.666992 9.33301 -2 12c-34.667 62.667 -52 112.334 -52 149.001s13.333 67 40 91
s64.334 36 113.001 36s87 -12 115 -36s42 -54.333 42 -91s-17.333 -86.334 -52 -149.001c-2.66699 -5.33301 -4 -9.33301 -4 -12c0 -9.33301 7.33301 -14 22 -14s34.667 12.667 60 38c50.667 46.667 76 100 76 160s-18.667 108.667 -56 146
c-24 26.667 -49.667 46.334 -77 59.001s-68.333 19 -123 19z" />
    <glyph glyph-name="N" unicode="N" horiz-adv-x="246" 
d="M29 1565.5c26 25.667 56.5 38.5 91.5 38.5s65.333 -12.833 91 -38.5s38.5 -56 38.5 -91s-12.833 -65.5 -38.5 -91.5s-56 -39 -91 -39s-65.5 13 -91.5 39s-39 56.5 -39 91.5s13 65.333 39 91zM286 1038h-310v160h310v-160z" />
    <glyph glyph-name="O" unicode="O" 
d="M-712 1528l49.998 2.00195c21.333 0 33.333 -9.33301 36 -28c2.66699 -58.667 8 -96.667 16 -114c22.667 -26.667 41.334 -45.334 56.001 -56.001s33.334 -16 56.001 -16s34 5.33301 34 16c0 4 -2 9.33301 -6 16c-26 18.667 -39 49.667 -39 93c0 6 0.333008 12.333 1 19
c2.66699 29.333 16 55.333 40 78s51.333 34 82 34h3c66 0 105 -37.333 117 -112c0.666992 -2.66699 1 -5.66699 1 -9c0 -26.667 -14.333 -64.334 -43 -113.001c-1.33301 -1.33301 -2 -3.33301 -2 -6c0 -8 7 -12 21 -12s32 5.66699 54 17c50 26 75 80.333 75 163
c0 67.333 -28 124 -84 170c-29.333 22.667 -72.333 34 -129 34s-109.334 -7.33301 -158.001 -22s-107.334 -22 -176.001 -22s-123.667 20.667 -165 62c-31.333 74.667 -55.666 112 -72.999 112h-1c-20 -2.66699 -30 -34.667 -30 -96c0 -14.667 2 -33 6 -55s19 -46 45 -72
s60.333 -46.333 103 -61s79.334 -22 110.001 -22z" />
    <glyph glyph-name="P" unicode="P" horiz-adv-x="1140" 
d="M636 344c-99.333 -22 -169.999 -64.6689 -211.999 -128.002c41.333 -22.667 70.666 -37.667 87.999 -45s46.333 -13.666 87 -18.999c13.333 -1.33301 27 -2 41 -2c29.333 0 61.333 3.33301 96 10c50.667 10.667 78 31.334 82 62.001c1.33301 8 2 15.667 2 23
c0 70 -43.333 105 -130 105c-18.667 0 -36.667 -2 -54 -6zM1186 1038l-214.003 -0.000976562v-318h-574c-74 0 -126.667 -22.667 -158 -68c-21.333 -30.667 -32 -66.5 -32 -107.5s15 -85.167 45 -132.5c17.333 -21.333 42.333 -54 75 -98
c92.667 88.667 142.334 135.334 149.001 140.001c52 35.333 119.833 53 203.5 53s154.834 -26 213.501 -78c56 -50 84 -111.333 84 -184v-10c-2.66699 -77.333 -40 -137.333 -112 -180c-60.667 -36.667 -132 -55 -214 -55c-28 0 -70.667 6.16699 -128 18.5
s-103 26.833 -137 43.5c-111.333 54 -204.333 145.333 -279 274c-42 72 -63 142.667 -63 212s14.667 127 44 173s58.333 79 87 99s73.334 38 134.001 54h494v164h-828v160h1210v-160z" />
    <glyph glyph-name="Q" unicode="Q" horiz-adv-x="1112" 
d="M790 596h-514.001c0 -85.333 -9.33301 -160.666 -28 -225.999c5.33301 -16 30.333 -35.833 75 -59.5s95 -37.834 151 -42.501c7.33301 -0.666992 15 -1 23 -1c86.667 0 184.334 38.333 293.001 115v214zM789.999 1038l-504 0.000976562
c9.33301 -142.667 14 -234.334 14 -275.001v-7h490v282zM1158 1038h-206.001v-1038h-162v208c-101.333 -68.667 -197.666 -103 -288.999 -103c-8.66699 0 -17.667 0.333008 -27 1c-162.667 12 -298 72 -406 180c41.333 200.667 62 383 62 547c0 68 -3.33301 136.333 -10 205
h-138v160h1176v-160z" />
    <glyph glyph-name="R" unicode="R" 
d="M-324 -48l-25.999 -63.998c-36 13.333 -76.667 20 -122 20s-78 -13.667 -98 -41s-30 -56.666 -30 -87.999s12 -59 36 -83s52 -36 84 -36c48 0 92.667 26.667 134 80c34.667 -10.667 70 -33.334 106 -68.001l92 -92c28 -28 50.667 -42 68 -42
c3.33301 0 6.66602 0.666992 9.99902 2c12 5.33301 18 14.666 18 27.999c0 28 -26 73.667 -78 137s-94.667 106.333 -128 129c21.333 37.333 39.333 76.666 54 117.999h-120z" />
    <glyph glyph-name="S" unicode="S" horiz-adv-x="1140" 
d="M818 1038h-510c28 -110 42 -209.667 42 -299c0 -27.333 -1.33301 -54.333 -4 -81h472v380zM980 1038l0.00195312 -1038h-162v498h-480c-6 -62 -22 -160 -48 -294c-26.667 -97.333 -71.334 -146 -134.001 -146c-77.333 0 -116 41.333 -116 124c0 25.333 4 51.333 12 78
c25.333 63.333 52.666 132 81.999 206s45.5 131.167 48.5 171.5s4.5 76.166 4.5 107.499s-4.66699 74.833 -14 130.5s-18.333 109.834 -27 162.501h-162v160h1198v-160h-202zM500.002 207c21.333 19.333 45.334 29 72.001 29c0.666992 0 1 0.333008 1 1
c26 0 48.333 -10 67 -30c19.333 -20.667 29.333 -44.667 30 -72c0 -26.667 -10 -49.667 -30 -69s-43.5 -29 -70.5 -29s-50.333 10.167 -70 30.5s-29.834 43.833 -30.501 70.5c0 26.667 10.333 49.667 31 69z" />
    <glyph glyph-name="T" unicode="T" horiz-adv-x="1140" 
d="M620 1038l0.00195312 -161.999c121.333 -17.333 220 -69.333 296 -156c77.333 -88 116.333 -195.333 117 -322c0 -124 -46.667 -222 -140 -294c-94 -72 -213.833 -108 -359.5 -108c-145 0 -265.5 36 -361.5 108c-94.667 71.333 -142.334 169.333 -143.001 294
c-0.666992 127.333 38.333 234.666 117 321.999c77.333 86.667 176.666 138.667 297.999 156v162h-468v160h1202v-160h-558zM766.002 624.001c-66.667 61.333 -146.5 92.001 -239.5 92.001s-171.5 -30.333 -235.5 -91c-64.667 -61.333 -97 -136 -97 -224
c0 -163.333 112.333 -245 337 -245s337 81.667 337 245c0 87.333 -34 161.666 -102 222.999z" />
    <glyph glyph-name="U" unicode="U" 
d="M-246 -384c-120 -42.667 -232.668 -64 -338.001 -64s-220.666 21.333 -345.999 64v-148c120.667 -42.667 229.667 -64 327 -64h17c110.667 4 224 25.333 340 64v148zM-246.001 -84c-116 -45.333 -228.332 -68 -336.999 -68s-224.334 22.667 -347.001 68v-148
c120 -45.333 229.333 -68 328 -68h16c120 4 233.333 26.667 340 68v148z" />
    <glyph glyph-name="V" unicode="V" horiz-adv-x="1160" 
d="M1202 1038l-187.998 -0.000976562c-8 -31.333 -28 -82 -60 -152c-34.667 -56 -72 -106.667 -112 -152c96 -64 144 -141 144 -231v-7c-2 -78 -16 -135.167 -42 -171.5s-88.667 -86.5 -188 -150.5c17.333 -20 35 -40 53 -60c26.667 -34 40 -61.833 40 -83.5
s-8.66699 -32.5 -26 -32.5s-55.833 22 -115.5 66s-96.667 67.5 -111 70.5c-15 3 -34.5 2.16699 -58.5 -2.5c-26.667 -5.33301 -53.334 -8 -80.001 -8c-60.667 0 -124 12.667 -190 38c32.667 -58.667 49 -100.5 49 -125.5s-9 -37.5 -27 -37.5c-20.667 0 -47 17.5 -79 52.5
s-61.667 67.833 -89 98.5c-58.667 56.667 -88 114.667 -88 174c0 42 20.667 63 62 63c11.333 0 24 -1.66699 38 -5c90.667 -62.667 220.667 -94 390 -94c65.333 0 131.333 18 198 54c65.333 34.667 98 76.667 98 126c0 111.333 -56.667 167 -170 167
c-30 0 -80 -4.66699 -150 -14c-70.667 -10 -129.334 -16.333 -176.001 -19c-6 -0.666992 -12.333 -0.666992 -19 0c-41.333 0 -85.333 8.33301 -132 25c-54 19.333 -81 47 -81 83c0 74 79.667 111 239 111c13.333 0 27 -0.333008 41 -1
c32 -1.33301 72.333 -7.16602 121 -17.499s83 -15.5 103 -15.5c100 0 182 83.667 246 251h-854v160h1214v-160z" />
    <glyph glyph-name="W" unicode="W" horiz-adv-x="520" 
d="M139 1565.5c26 25.667 56.5 38.5 91.5 38.5s65.333 -12.833 91 -38.5s38.5 -56 38.5 -91s-12.833 -65.5 -38.5 -91.5s-56 -39 -91 -39s-65.5 13 -91.5 39s-39 56.5 -39 91.5s13 65.333 39 91zM306 1038v-570h-156v570h-174v160h580v-160h-250z" />
    <glyph glyph-name="X" unicode="X" horiz-adv-x="1220" 
d="M532 435l-8.00098 235h374v368h-624c8.66699 -57.333 13 -113.666 13 -168.999c0 -42 -2.33301 -83 -7 -123c-11.333 -94.667 -42.666 -205.334 -93.999 -332.001c26.667 -37.333 64 -70 112 -98c21.333 -12.667 56.333 -24.167 105 -34.5s74.667 -15.5 78 -15.5
c34 0 51 56.333 51 169zM1252 1038l-191.999 0.000976562v-1038h-162v510h-212c0 -177.333 -12 -298 -36 -362c-10.667 -32.667 -28 -53 -52 -61c-11.333 -3.33301 -25.333 -5 -42 -5c-53.333 0 -122.833 14.5 -208.5 43.5s-146.834 55.833 -183.501 80.5
c-61.333 41.333 -109.333 100 -144 176c25.333 80.667 55.333 194 90 340c10.667 71.333 16 134.666 16 189.999c0 48 -4 90 -12 126h-134v160h1272v-160z" />
    <glyph glyph-name="Y" unicode="Y" 
d="M-580 1756c-86.667 53.333 -174.665 80 -263.998 80c-56 0 -101 -10.333 -135 -31s-51 -46.334 -51 -77.001c0 -10.667 2 -20.667 6 -30c9.33301 -25.333 24 -38 44 -38c5.33301 0 24.666 4.33301 57.999 13s65.666 13 96.999 13s66.333 -6.33301 105 -19
c82 -26.667 158 -67.667 228 -123c56 -41.333 104.667 -86.333 146 -135c38 -44.667 57 -71.667 57 -81c0 -1.33301 -0.333008 -2 -1 -2c-3.33301 0 -43.666 22 -120.999 66c-134 76.667 -232.667 123.834 -296 141.501s-122.333 26.5 -177 26.5
c-102.667 0 -154 -23.333 -154 -70c0 -36 6.33301 -59.333 19 -70s37.667 -16 75 -16h38c9.33301 1.33301 17.666 2 24.999 2h19c95.333 0 181.5 -11 258.5 -33s165.833 -54 266.5 -96s149 -63 145 -63c4 0 6 4 6 12c0 48 -38.333 132.333 -115 253s-169.667 213 -279 277z
" />
    <glyph glyph-name="Z" unicode="Z" horiz-adv-x="1352" 
d="M668 624c-82 -2.66699 -170.667 -7.33398 -266 -14.001c-61.333 -18.667 -92 -64.667 -92 -138s25.667 -143.666 77 -210.999s111 -101 179 -101c50 0 84 27.333 102 82v382zM1192 1038l-0.000976562 -1038h-158v1038h-206v-732c0 -104.667 -26 -181.834 -78 -231.501
s-113.333 -74.5 -184 -74.5c-114.667 -0 -213.5 50.833 -296.5 152.5s-124.5 211.5 -124.5 329.5s47.667 202 143 252c60.667 32 187.334 48 380.001 48v256h-684v160h1424v-160h-216zM8.99902 162.001c20 20 43.333 30.001 70 30.001c26 0 48.333 -10 67 -30
c20 -22 30 -47 30 -75c0 -23.333 -9.33301 -44.333 -28 -63c-20 -18.667 -43.333 -29.334 -70 -32.001c-26.667 0.666992 -49.5 11.167 -68.5 31.5s-28.167 43.833 -27.5 70.5v7c0 22.667 9 43 27 61z" />
    <glyph glyph-name="bracketleft" unicode="[" horiz-adv-x="1200" 
d="M690 1198v-1218h-166v1218h166z" />
    <glyph glyph-name="backslash" unicode="\" horiz-adv-x="1120" 
d="M952 1038l-0.000976562 -335.998h-608c-27.333 0 -55.833 -8 -85.5 -24s-44.5 -35.833 -44.5 -59.5s10.667 -46.334 32 -68.001s40.666 -32.5 57.999 -32.5h624v-158h-446c14.667 -56.667 30.834 -97 48.501 -121s50.667 -47.5 99 -70.5s97.333 -34.5 147 -34.5
s100.167 9.33301 151.5 28l-34 -120c-77.333 -31.333 -144 -47 -200 -47c-17.333 0 -32.666 1.66699 -45.999 5c-142.667 35.333 -258 140.666 -346 315.999c-5.33301 10 -30.833 26.167 -76.5 48.5s-81.167 46.833 -106.5 73.5c-50 52.667 -75 118.334 -75 197.001
c0 116 72.667 193.667 218 233c-20 18 -44.667 43.333 -74 76c-17.333 27.333 -26 58.666 -26 93.999h-176v160h1174v-160h-208zM789.999 1038h-451.999c18.667 -54 40 -90 64 -108c59.333 -45.333 108.666 -68 147.999 -68h240v176z" />
    <glyph glyph-name="bracketright" unicode="]" horiz-adv-x="1140" 
d="M838 1198v-1218h-166v1218h166zM458 1198v-1218h-166v1218h166z" />
    <glyph glyph-name="asciicircum" unicode="^" horiz-adv-x="1112" 
d="M952 1038v-1038h-162v290c-99.333 -61.333 -192 -92 -278 -92c-122 0 -229 32.667 -321 98c-50.667 36.667 -91 78 -121 124l56 136c40.667 112 61 212.667 61 302s-15 149.333 -45 180h-160v160h202c66 0 114 -53.333 144 -160c10.667 -37.333 16 -92 16 -164h446v324
h364v-160h-202zM790 712l-445.999 -0.00195312c-3.33301 -29.333 -14.5 -73.166 -33.5 -131.499s-35.833 -99.166 -50.5 -122.499c37.333 -30 64.666 -49.333 81.999 -58c54 -25.333 125.333 -38 214 -38c42.667 0 120.667 34 234 102v248zM51.001 171.998
c16.667 23.333 39.333 34.999 68 34.999s52.667 -8.33301 72 -25s29 -38.667 29 -66s-8 -51.666 -24 -72.999s-37.833 -32 -65.5 -32s-51.5 7 -71.5 21c-22 19.333 -33 43 -33 71s8.33301 51 25 69z" />
    <glyph glyph-name="underscore" unicode="_" horiz-adv-x="887" 
d="M892 -308h-896v128h896v-128z" />
    <glyph glyph-name="grave" unicode="`" 
d="M-232 1324c53.333 0 103.666 16.001 150.999 48.001c88.667 60 133 144 133 252c0 50.667 -7.33301 76 -22 76c-8 0 -19.333 -19.333 -34 -58c-16 -50.667 -32 -88.667 -48 -114c-36 -53.333 -96.667 -80 -182 -80s-144.666 26.667 -177.999 80
c-17.333 24 -33 58.667 -47 104s-25.667 68 -35 68c-14.667 0 -22 -26.333 -22 -79s7.33301 -93.667 22 -123c26 -52.667 62.833 -94.834 110.5 -126.501s98.167 -47.5 151.5 -47.5z" />
    <glyph glyph-name="a" unicode="a" horiz-adv-x="1262" 
d="M1150 1038c-60 -195.333 -151.333 -327.999 -274 -397.999c121.333 -72.667 182 -176.667 182 -312c0 -88.667 -28.667 -163.334 -86 -224.001c-65.333 -70.667 -157.333 -106 -276 -106c-190 0 -338 74.667 -444 224c-89.333 124.667 -143.333 292 -162 502
c-6 66 -9 141.333 -9 226c0 28 0.333008 57.333 1 88h-104v160h110v10c0 153.333 45.333 281.333 136 384s219.667 154 387 154h10c172 -2 304.833 -54 398.5 -156s140.5 -219.667 140.5 -353c0 -13.333 -0.666992 -26.333 -2 -39h144v-160h-152zM668 553.001
c-5.33301 0 -21.3311 -1.83301 -47.998 -5.5s-135.334 -5.5 -326.001 -5.5c16 -75.333 40 -140 72 -194c73.333 -125.333 177.333 -188 312 -188h10c64 1.33301 116 17 156 47c37.333 28 55.666 65 54.999 111v12c-3.33301 52 -30.5 102.167 -81.5 150.5
s-100.833 72.5 -149.5 72.5zM986.002 1038h-740.001l4 -158c1.33301 -42 4 -99.333 8 -172c32.667 -0.666992 63.334 -1 92.001 -1c188 0 303.333 7.66699 346 23c78 28 139.333 68.667 184 122s80 115.333 106 186zM1002 1198c-2.66699 74.667 -16.667 138.667 -42 192
c-60 128 -170.333 192.667 -331 194c-2 0 -4 0.333008 -6 1c-157.333 0 -266.333 -64 -327 -192c-26 -54 -40.667 -119 -44 -195h750z" />
    <glyph glyph-name="b" unicode="b" horiz-adv-x="1090" 
d="M772 578h-280.001c-36 -17.333 -78.667 -46 -128 -86s-92.666 -81.333 -129.999 -124c96 -82.667 181.333 -124 256 -124s168.667 44 282 132v202zM771.999 1038l-496.001 -0.00195312c9.33301 -43.333 18.333 -77.666 27 -102.999s26 -55.666 52 -90.999
c8.66699 -12 56.334 -46.667 143.001 -104h274v298zM1130 1038l-199.999 -0.000976562v-1038h-158v194c-46.667 -26.667 -93.334 -53 -140.001 -79c-46.667 -22 -97 -33 -151 -33s-134.333 28 -241 84c-125.333 64.667 -188 129.334 -188 194.001c0 48 43.333 112 130 192
c44 35.333 93.333 75.333 148 120c-76 62 -124.667 110.667 -146 146c-34.667 58 -58 131.333 -70 220h-130v160h1146v-160z" />
    <glyph glyph-name="c" unicode="c" horiz-adv-x="1146" 
d="M828 538h-476.001c4 -106 18 -188 42 -246c32.667 -79.333 90.667 -122.666 174 -129.999c15.333 -1.33301 30 -2 44 -2c76.667 0 131.834 17.667 165.501 53s50.5 75.666 50.5 120.999v204zM1194 1038h-208v-700c0 -225.333 -118.667 -338 -356 -338
c-202.667 0 -333 74 -391 222c-25.333 64 -43 169.333 -53 316h-118c-32.667 0 -49 22 -49 66c0 60 19 114.667 57 164c19.333 25.333 48.5 47 87.5 65s75.5 27 109.5 27c52.667 0 79 -21.333 79 -64v-98h476v340h-839v160h1205v-160z" />
    <glyph glyph-name="d" unicode="d" horiz-adv-x="1140" 
d="M980 1038l0.00195312 -514.001h-638c-2.66699 -24.667 -4 -46.667 -4 -66c0 -61.333 16.667 -116.666 50 -165.999c63.333 -94 154.666 -146 273.999 -156h12c41.333 0 100 14.333 176 43c84 32 131.167 48 141.5 48s15.5 -6.33301 15.5 -19c0 -38 -32 -81.333 -96 -130
s-148.333 -74.667 -253 -78h-22c-196.667 -0 -333.334 85.333 -410.001 256c-32.667 74 -51.334 163.333 -56.001 268l-98 -4h-3c-34 0 -51 21.333 -51 64c0 72.667 25.833 136 77.5 190s111.834 81 180.501 81c41.333 0 62 -18.333 62 -55v-114h470v352h-828v160h1200v-160
h-200z" />
    <glyph glyph-name="e" unicode="e" horiz-adv-x="1136" 
d="M804 1038h-530c0 -40.667 28.833 -93 86.5 -157s118.167 -105.667 181.5 -125c16 -5.33301 45.833 -8 89.5 -8s101.167 2.66699 172.5 8v282zM976 590l-284 10c-78.667 0 -145.167 -7.66699 -199.5 -23s-111.166 -50.666 -170.499 -105.999s-88 -96.333 -86 -123
c32 -28 92 -73.333 180 -136c74.667 -46.667 151.334 -70 230.001 -70h16c48 2 108.667 30.5 182 85.5s111.666 82.5 114.999 82.5s7.16602 -2.33301 11.499 -7s6.5 -13 6.5 -25c0 -43.333 -36.167 -98.833 -108.5 -166.5s-128.5 -101.5 -168.5 -101.5
c-13.333 -8 -40 -12 -80 -12c-121.333 0 -234.833 36.833 -340.5 110.5s-181.5 147.5 -227.5 221.5c-9.33301 8.66699 -14 20 -14 34c0 46 40 105.167 120 177.5s138 119.166 174 140.499c-5.33301 8.66699 -28.833 32.667 -70.5 72s-72.5 72.833 -92.5 100.5
s-36.5 64 -49.5 109s-20.833 69.833 -23.5 74.5h-114v160h1192v-160h-198v-448z" />
    <glyph glyph-name="f" unicode="f" horiz-adv-x="1140" 
d="M678 192c-45.333 41.333 -86.667 74 -124 98c-58.667 37.333 -132.667 56 -222 56c-90.667 0 -136 -30.333 -136 -91c0 -64 71.333 -101.667 214 -113c9.33301 -0.666992 19 -1 29 -1c65.333 0 145 17 239 51zM318.999 494c166 0 313 -66.665 441 -199.998
c32.667 40 50 85.333 52 136v6c0 65.333 -31 118 -93 158c-64 41.333 -143 61.666 -237 60.999c-50.667 0 -96 -5.16699 -136 -15.5s-76.333 -15.5 -109 -15.5c-114 0 -171 35.333 -171 106c0 37.333 18.833 67.166 56.5 89.499s78.667 33.5 123 33.5
s85.5 -6.66699 123.5 -20s77 -20 117 -20c126.667 0 231.334 75 314.001 225h-822v160h1194v-160h-192c-12 -30.667 -38 -82 -78 -154c-48.667 -70.667 -92.667 -116 -132 -136c76 -57.333 121 -94 135 -110c48.667 -54 73 -119.333 73 -196
c0 -136.667 -46.333 -244.667 -139 -324s-212.667 -119 -360 -119c-22.667 0 -45.667 1 -69 3c-234 18.667 -356 99.334 -366 242.001c-0.666992 7.33301 -1 14.666 -1 21.999c-0.666992 66.667 21.666 120 66.999 160c49.333 45.333 119 68 209 68z" />
    <glyph glyph-name="g" unicode="g" horiz-adv-x="1236" 
d="M550 624c-82 -2.66699 -170.667 -7.33398 -266 -14.001c-61.333 -18.667 -92 -64.667 -92 -138s25.667 -143.666 77 -210.999s111 -101 179 -101c50 0 84 27.333 102 82v382zM1076 1038l0.00195312 -1038h-160v1038h-204v-732c0 -105.333 -26.333 -182.666 -79 -231.999
s-114.334 -74 -185.001 -74c-114.667 0 -213.334 50.667 -296.001 152s-124.334 211.333 -125.001 330c0 118 47.667 202 143 252c60.667 32 187.334 48 380.001 48v256h-574v160h1314v-160h-214z" />
    <glyph glyph-name="h" unicode="h" horiz-adv-x="1072" 
d="M604 160c97.333 0 145.999 50 145.999 150v728h-764v160h1130v-160h-204v-728c0 -86.667 -24.5 -160 -73.5 -220s-124.5 -90 -226.5 -90c-143.333 -0 -275.333 67.333 -396 202c-98.667 110 -148 216.667 -148 320c0 72 22.333 128.667 67 170s101.667 62 171 62h134
v-162l-89 3c-71.333 0 -107 -28.333 -107 -85v-6c4 -80.667 47.833 -158.167 131.5 -232.5s159.834 -111.5 228.501 -111.5z" />
    <glyph glyph-name="i" unicode="i" horiz-adv-x="572" 
d="M356 1038v-1040h-160v1040h-218v160h218c-1.33301 22.667 -2 44.667 -2 66c0 147.333 24.333 261.333 73 342c55.333 92 160.333 138 315 138c59.333 0 115.5 -16.667 168.5 -50s91.5 -82.333 115.5 -147c18 -49.333 27 -99.666 27 -150.999c0 -16 -1 -32 -3 -48h-148
c-2 20.667 -6.33301 56.667 -13 108c-14.667 90.667 -71.5 136 -170.5 136s-161.833 -45.333 -188.5 -136c-9.33301 -32 -14 -103.667 -14 -215v-43h282v-160h-282z" />
    <glyph glyph-name="j" unicode="j" horiz-adv-x="1140" 
d="M980 1038l0.000976562 -1038h-160v498h-488v-498h-160v498c-2.66699 -2 -19.334 -3 -50.001 -3c-15.333 0 -34 0.333008 -56 1h-2c-36 0 -54 22 -54 66c0 30.667 8.83301 65.5 26.5 104.5s37.5 68.833 59.5 89.5c58 53.333 117.333 80 178 80c38.667 0 58 -18.667 58 -56
v-124h488v382h-842v160h1200v-160h-198z" />
    <glyph glyph-name="k" unicode="k" horiz-adv-x="1192" 
d="M728 498c-68.667 132 -171 197.999 -307 197.999c-60.667 0 -111.334 -16.667 -152.001 -50c-58.667 -47.333 -88 -108 -88 -182c0 -49.333 16.667 -92.666 50 -129.999c40.667 -45.333 98.334 -68 173.001 -68s150.667 34 228 102c30 26.667 62 70 96 130zM1068 1038
l-50.001 -260c-32 -106 -73.333 -200.667 -124 -284c20.667 -31.333 56.667 -100 108 -206c30 -74 56.667 -170 80 -288h-166c-10 42 -26 100 -48 174c-18 46 -38.667 95.333 -62 148c-44.667 -64 -92.667 -112 -144 -144c-30.667 -19.333 -72 -37.666 -124 -54.999
c-49.333 -16.667 -100.333 -25 -153 -25h-9c-56 1.33301 -107.667 12.333 -155 33s-93.833 60.167 -139.5 118.5s-68.5 126.5 -68.5 204.5c0 19.333 1 42 3 68c10 116 66 208.667 168 278c66 44.667 147.667 67 245 67c56 0 105.667 -8.33301 149 -25
c98.667 -38.667 171.334 -97.334 218.001 -176.001c31.333 91.333 64 192.333 98 303c4 24 6.66699 47 8 69h-926v160h1266v-160h-174z" />
    <glyph glyph-name="l" unicode="l" horiz-adv-x="1224" 
d="M796 1038h-396l190 -368h8zM980 1038l-136.002 -246c189.333 -72 284 -190.667 284 -356s-49.667 -284.666 -149 -357.999c-47.333 -34.667 -119.666 -60.667 -216.999 -78v156c55.333 14 96.333 32 123 54c58 48.667 87 125.334 87 230.001
c0 91.333 -70 160.666 -210 207.999l-160 -274h-12l-162 274c-136 -47.333 -204 -116.666 -204 -207.999c0 -104.667 29 -181.334 87 -230.001c26.667 -22 67.667 -40 123 -54v-156c-97.333 17.333 -169.666 43.333 -216.999 78c-99.333 73.333 -149 192.666 -149 357.999
s92.667 284 278 356l-134 246h-240v160h1276v-160h-268z" />
    <glyph glyph-name="m" unicode="m" horiz-adv-x="1140" 
d="M980 1038l-0.000976562 -1038h-162v498h-458c-14 -72 -38.667 -177.333 -74 -316c-26 -82.667 -69.333 -124 -130 -124c-78 0 -117 41 -117 123c0 36 10.333 76 31 120s43.334 91.667 68.001 143c43.333 101.333 65 225.666 65 372.999s-29 221 -87 221h-138v160h192
c106 0 168 -77.333 186 -232c5.33301 -45.333 8 -148 8 -308h454v540h354v-160h-192z" />
    <glyph glyph-name="n" unicode="n" horiz-adv-x="1140" 
d="M614 1038l0.000976562 -202.003c104 -20 194.667 -70 272 -150s116 -171 116 -273c0 -215.333 -98.333 -353 -295 -413v160c50.667 26.667 84.334 52.334 101.001 77.001c23.333 36.667 35 93.334 35 170.001s-32.333 140.334 -97 191.001
c-64 50.667 -135.333 76.334 -214 77.001c-78.667 -0.666992 -150.334 -26.334 -215.001 -77.001s-97 -114.667 -97 -192s10 -130.666 30 -159.999c20 -30.667 55.333 -59.334 106 -86.001v-160c-196.667 60 -295 197.667 -295 413c0.666992 102 39.667 193 117 273
s167.666 130 270.999 150v202h-459v160h1179v-160h-555z" />
    <glyph glyph-name="o" unicode="o" 
d="M-220 1390c-6.66699 103.333 -20.666 170.165 -41.999 200.498s-56 48.833 -104 55.5c-38.667 2.66699 -89 5.33398 -151 8.00098s-99.667 4.33398 -113 5.00098s-25.666 1 -36.999 1h-33c-10.667 0 -21.334 -0.666992 -32.001 -2c-21.333 2.66699 -39.333 10 -54 22
c-16.667 38.667 -27.334 70 -32.001 94c-14.667 54.667 -35.334 82 -62.001 82c-17.333 0 -26 -28.667 -26 -86v-24c2.66699 -73.333 17.334 -130.666 44.001 -171.999c20 -29.333 46 -46 78 -50c12 -4 71.333 -6 178 -6s173 -0.333008 199 -1s46.333 -7 61 -19
c17.333 -34.667 31.333 -68 42 -100c16 -36 32.667 -54 50 -54h4c17.333 1.33301 27.333 16.666 30 45.999z" />
    <glyph glyph-name="p" unicode="p" horiz-adv-x="1134" 
d="M974 1038l-0.00292969 -1038h-164v276c-26 -20 -68.5 -40.667 -127.5 -62s-122.5 -32 -190.5 -32s-138 16.333 -210 49s-129 69.334 -171 110.001c-38.667 37.333 -58 63 -58 77c0 1.33301 0.333008 2.66602 1 3.99902c-3.33301 2 -5 8 -5 18s21.333 65 64 165
c55.333 130 83 218.833 83 266.5s-9.66699 87.334 -29 119.001s-50.333 47.5 -93 47.5h-88v160h174c57.333 0 105 -34.167 143 -102.5s57 -138.166 57 -209.499c0 -16.667 -1.33301 -32 -4 -46c-23.333 -126 -66.666 -251.333 -129.999 -376
c96.667 -78.667 209.334 -118 338.001 -118c30 0 74.333 14.833 133 44.5s96.334 54.167 113.001 73.5v734h358v-160h-194z" />
    <glyph glyph-name="q" unicode="q" horiz-adv-x="1140" 
d="M986 1038c-12.667 -52 -29.334 -113.998 -50.001 -185.998c-32.667 -76.667 -79.334 -141.334 -140.001 -194.001c36.667 -26 68.334 -54.333 95.001 -85c64 -73.333 97 -151.666 99 -234.999v-10c0 -110 -44 -191.667 -132 -245c-90.667 -55.333 -212 -83 -364 -83
c-77.333 0 -175.833 40.667 -295.5 122s-179.5 141.333 -179.5 180c0 12 8.66699 18 26 18s75.166 -23.833 173.499 -71.5s169 -76.334 212 -86.001s81.167 -14.5 114.5 -14.5c73.333 0 137.333 15.167 192 45.5s82 78.166 82 143.499s-36.167 119.833 -108.5 163.5
s-144.5 65.5 -216.5 65.5c-21.333 0 -50 -4.66699 -86 -14c-75.333 -18.667 -135 -28 -179 -28c-94 0 -141 39 -141 117v7c2.66699 76 54.334 114 155.001 114c12.667 0 26.334 -0.666992 41.001 -2l21 -2l82 -14c55.333 -9.33301 101 -14 137 -14
c82.667 0 144.667 21.333 186 64s75.333 124 102 244h-833v160h1209v-160h-202z" />
    <glyph glyph-name="r" unicode="r" horiz-adv-x="1054" 
d="M730 650h-380.001c-47.333 0 -79.333 -5.33301 -96 -16c-14 -8.66699 -21 -23.667 -21 -45c0 -4 0.333008 -8.33301 1 -13c8 -67.333 56.833 -154.333 146.5 -261s169.167 -160 238.5 -160c32.667 0 59.334 13.333 80.001 40s31 57 31 91v364zM893.999 1038v-719.999
c0 -84.667 -20 -156.334 -60 -215.001c-47.333 -70.667 -115 -106 -203 -106c-135.333 0 -269.333 78 -402 234c-116.667 136.667 -175 263.667 -175 381c0 132 84.667 198 254 198h422v228h-740v160h1106v-160h-202z" />
    <glyph glyph-name="s" unicode="s" horiz-adv-x="1140" 
d="M818 1038h-510c28 -110 42 -209.667 42 -299c0 -27.333 -1.33301 -54.333 -4 -81h472v380zM980 1038l0.000976562 -1038h-162v498h-480c-6 -62 -22 -160 -48 -294c-26.667 -97.333 -71.334 -146 -134.001 -146c-77.333 0 -116 41.333 -116 124c0 25.333 4 51.333 12 78
c25.333 63.333 52.666 132 81.999 206c29.333 74.667 45.333 132 48 172s4.33398 75.667 5.00098 107c0 31.333 -4.66699 75 -14 131l-27 162h-162v160h1196v-160h-200z" />
    <glyph glyph-name="t" unicode="t" horiz-adv-x="1122" 
d="M962 1038l-0.000976562 -354.001c-13.333 2.66699 -32 4 -56 4c-86.667 0 -199.334 -18.667 -338.001 -56c-88 -24 -170.167 -70.5 -246.5 -139.5s-114.5 -114.167 -114.5 -135.5v-6c0 -19.333 83 -72.333 249 -159c76 -40 136.667 -60 182 -60c16 0 46 2.5 90 7.5
s92.167 32.167 144.5 81.5s81.5 74 87.5 74s9 -10 9 -30c0 -38 -23.667 -83 -71 -135c-82.667 -90.667 -181 -135.667 -295 -135c-91.333 0 -205.666 39 -342.999 117c-68 38.667 -129.667 85 -185 139c-48.667 47.333 -73 77 -73 89c0 2 0.666992 3.33301 2 4
c-0.666992 0.666992 -1 1.66699 -1 3c0.666992 11.333 18.334 43 53.001 95c40 60 92.333 120.833 157 182.5s141.667 110.334 231 146.001s204 59.5 344 71.5v196h-806v160h1184v-160h-204z" />
    <glyph glyph-name="u" unicode="u" 
d="M-246 -122c-120 -46.667 -232.669 -70.001 -338.002 -70.001s-220.666 23.333 -345.999 70v-150c124.667 -44 236.334 -66 335.001 -66h9c78 2.66699 141 10.334 189 23.001c80.667 20.667 131 35 151 43v150z" />
    <glyph glyph-name="v" unicode="v" horiz-adv-x="1096" 
d="M936 1038l-0.000976562 -332h-606c-26.667 0 -55 -8.66699 -85 -26s-45 -38 -45 -62s10.667 -46.667 32 -68s40.666 -32 57.999 -32h622v-158h-446c14.667 -56.667 30.667 -97 48 -121c17.333 -24.667 49.333 -47.667 96 -69c45.333 -21.333 85.666 -32 120.999 -32
s73 4.66699 113 14s61.333 14 64 14s4 -1.33301 4 -4l-34 -120c-77.333 -31.333 -144 -47 -200 -47c-17.333 0 -32.666 1.66699 -45.999 5c-144.667 35.333 -260.667 140.666 -348 315.999c-5.33301 9.33301 -30.666 25.333 -75.999 48s-80.666 47.334 -105.999 74.001
c-40.667 42.667 -66 98 -76 166c-1.33301 10 -2 19.667 -2 29c0 63.333 25.5 118 76.5 164s112.167 69 183.5 69h490v172h-788v160h1154v-160h-204z" />
    <glyph glyph-name="w" unicode="w" horiz-adv-x="520" 
d="M306 1038v-570h-156v570h-174v160h580v-160h-250z" />
    <glyph glyph-name="x" unicode="x" horiz-adv-x="1160" 
d="M268 1038l-291.998 0.00195312v160h1220v-160h-710c107.333 -79.333 196.666 -131.333 267.999 -156c6.66699 -2 100.667 -28 282 -78l-2 -152c-96.667 30 -178.667 53.333 -246 70v-290c0 -48 -8 -72 -24 -72s-46.5 29.167 -91.5 87.5s-73.833 89.833 -86.5 94.5
c-55.333 21.333 -102.833 32 -142.5 32s-67.5 -8 -83.5 -24c-118 -121.333 -177 -187.333 -177 -198c0 -3.33301 1 -5.33301 3 -6c-0.666992 -1.33301 -1 -2.33301 -1 -3c0 -22.667 48.5 -59 145.5 -109s204.167 -82.667 321.5 -98h3c18 0 82.333 14.667 193 44
c117.333 32 185.333 48 204 48c18 0 26.667 -3.66699 26 -11c0 -32.667 -48 -76.334 -144 -131.001c-100.667 -57.333 -192.667 -86 -276 -86c-125.333 0 -237.333 22.5 -336 67.5s-176.834 95.5 -234.501 151.5s-86.5 94.333 -86.5 115c0 2 -0.166992 3.5 -0.5 4.5
s-0.5 2.5 -0.5 4.5c0 22.667 37 80.667 111 174s134.5 154.166 181.5 182.499s93 42.5 138 42.5s113.5 -24.667 205.5 -74c-0.666992 34 -1 59.333 -1 76c0 16 0.333008 24 1 24c-40 13.333 -83 36 -129 68s-85.667 60 -119 84c-26 16 -66 55.333 -120 118z" />
    <glyph glyph-name="y" unicode="y" 
d="M-812 1732c-7.33301 0.666992 -14.333 1.00098 -21 1.00098c-30.667 0 -57.667 -7.33301 -81 -22c-28 -18 -42 -39.667 -42 -65s15.333 -49.333 46 -72c153.333 -6.66699 266 -28.334 338 -65.001s149.667 -96.667 233 -180s129.333 -125 138 -125s13 7 13 21
s-9.33301 38.333 -28 73c-64 124 -148 224.333 -252 301s-218.667 121 -344 133z" />
    <glyph glyph-name="z" unicode="z" horiz-adv-x="1140" 
d="M980 1038l0.000976562 -1038h-160v498h-488v-498h-160v498c-2.66699 -2 -19.334 -3 -50.001 -3c-15.333 0 -34 0.333008 -56 1h-2c-36 0 -54 22 -54 66c0 30.667 8.83301 65.5 26.5 104.5s37.5 68.833 59.5 89.5c58 53.333 117.333 80 178 80c38.667 0 58 -18.667 58 -56
v-124h488v382h-842v160h1200v-160h-198zM516.001 207c21.333 19.333 45.333 29 72 29c0.666992 0 1 0.333008 1 1c26 0 48.333 -10 67 -30c19.333 -20.667 29.333 -44.667 30 -72c0 -26.667 -10 -49.667 -30 -69c-20 -20 -43.667 -30 -71 -30h-1c-25.333 0 -48 10 -68 30
c-20 20.667 -30.333 45 -31 73c0 26 10.333 48.667 31 68z" />
    <glyph glyph-name="braceleft" unicode="{" horiz-adv-x="759" 
d="M256 552c145.333 -26 218 -107.331 218 -243.998v-294c0 -65.333 19.167 -112.333 57.5 -141s93.166 -43.667 164.499 -45v-144c-130 1.33301 -228.5 29.333 -295.5 84s-100.5 132.667 -100.5 234v294c0 68 -21 116.333 -63 145s-102.333 43 -181 43v146
c86 1.33301 148.167 17.166 186.5 47.499s57.5 76.5 57.5 138.5v296c0 100.667 35 178.5 105 233.5s167 82.5 291 82.5v-144c-75.333 -2.66699 -131.166 -19.334 -167.499 -50.001s-54.5 -76.667 -54.5 -138v-288c0 -136.667 -72.667 -218 -218 -244v-12z" />
    <glyph glyph-name="bar" unicode="|" horiz-adv-x="1110" 
d="M598 322c-77.333 77.333 -155.166 116 -233.499 116s-121.833 -28 -130.5 -84c-1.33301 -7.33301 -2 -14 -2 -20c0 -67.333 50 -101 150 -101c9.33301 0 18.666 0.333008 27.999 1c73.333 4 136 33.333 188 88zM816 591c0 83.333 -64.6689 125.002 -194.002 125.002h-538
v322h-111v160h1183v-160h-912v-162h456c98 0 176.667 -40.667 236 -122c36.667 -49.333 55 -96.666 55 -141.999c0 -120.667 -49.667 -227.334 -149 -320.001c42 -70 94 -168 156 -294h-174l-118 206c-91.333 -82 -192.666 -124.667 -303.999 -128h-15
c-78.667 0 -150.667 19.333 -216 58c-69.333 41.333 -104 101.666 -104 180.999c0 12 1 24.333 3 37c18.667 133.333 102 212.666 250 237.999c24 4 47 6 69 6c60 0 121.167 -18 183.5 -54s114.833 -75.333 157.5 -118c14.667 17.333 29.334 35 44.001 53
c28 34.667 42 72.667 42 114z" />
    <glyph glyph-name="braceright" unicode="}" horiz-adv-x="759" 
d="M704 484c-79.333 -1.33301 -139.836 -15.999 -181.503 -43.999s-62.5 -75.333 -62.5 -142v-298c0 -100 -34.667 -177.667 -104 -233s-166.666 -83 -291.999 -83v144c148 2.66699 222 65.334 222 188.001v290c0 137.333 72.667 218.666 218 243.999v12
c-145.333 25.333 -218 106.666 -218 243.999v292c0 65.333 -19.167 112.333 -57.5 141s-93.166 43.667 -164.499 45v144c128.667 -1.33301 226.834 -28.833 294.501 -82.5s101.5 -132.167 101.5 -235.5v-292c0 -68.667 20.833 -117.167 62.5 -145.5
s102.167 -42.5 181.5 -42.5v-146z" />
    <glyph glyph-name="asciitilde" unicode="~" horiz-adv-x="400" 
d="M-16 1487c-8.66699 22 -13.332 63.001 -13.999 123.001v14c0 50.667 3.33301 76 10 76c8 0 19.667 -18.667 35 -56c6.66699 -26 19.667 -65.667 39 -119c30.667 -62.667 85 -94 163 -94s132.333 31.333 163 94c32.667 116.667 57 175 73 175c7.33301 0 11 -19 11 -57v-10
c-0.666992 -44.667 -5.33398 -93.334 -14.001 -146.001c-41.333 -108.667 -118.833 -163 -232.5 -163s-191.5 54.333 -233.5 163zM450.002 1038h-450v160h450v-160z" />
    <glyph glyph-name="nonbreakingspace" unicode="&#xa0;" horiz-adv-x="700" 
 />
    <glyph glyph-name="exclamdown" unicode="&#xa1;" horiz-adv-x="1820" 
d="M264 678c-94.667 0 -142 -32.334 -142 -97.001v-3c0.666992 -31.333 14.667 -56.166 42 -74.499s56.833 -27.5 88.5 -27.5s66.5 8.33301 104.5 25c36.667 16 55 40.667 55 74c0 68.667 -49.333 103 -148 103zM1094 287.999c-28.667 26 -57 39.001 -85 39.001
c-3.33301 0 -7 -0.333008 -11 -1c-32 -4 -102 -6 -210 -6c32.667 -150.667 108.667 -226 228 -226h6c82.667 2 124 34.333 124 97v9c-2 29.333 -19.333 58.666 -52 87.999zM1198 608l-434.001 -0.000976562v-32c0 -44 1.33301 -96 4 -156
c22.667 -0.666992 44.334 -1 65.001 -1c106 0 175 6 207 18c37.333 14 69.5 36.833 96.5 68.5s47.5 65.834 61.5 102.501zM279.999 775.999c158.667 -6 237.999 -86.666 237.999 -241.999c0 -44.667 -2.33301 -88 -7 -130s-7 -90.667 -7 -146
c0 -117.333 22.667 -204 68 -260c1.33301 -4.66699 2 -9 2 -13c0 -16 -10.667 -24 -32 -24s-47.666 22.5 -78.999 67.5s-50.333 100.167 -57 165.5c-3.33301 32 -5.33301 66.667 -6 104c0 39.333 2 82 6 128c-59.333 -32 -114.333 -48 -165 -48
c-53.333 0 -101.333 17.667 -144 53c-48.667 40.667 -73 88.667 -73 144s21 103.666 63 144.999c38.667 38 96.667 56.667 174 56h19zM1296 608c-30 -106.667 -81.998 -183.332 -155.998 -229.999c69.333 -40 104 -100.667 104 -182c0 -54 -18.667 -101.667 -56 -143
c-36.667 -40.667 -90.667 -61 -162 -61c-212 0 -332.667 145.333 -362 436c-4.66699 43.333 -7 82.666 -7 117.999c0 22.667 1 43.334 3 62.001h-66v102h68c42 211.333 152 325.333 330 342c12 1.33301 28.333 2 49 2c30 0 69 -1.33301 117 -4c37.333 70 158 232 362 486
c126.667 158 276.167 237 448.5 237s298.166 -75.667 377.499 -227c32 -62 48 -128.5 48 -199.5s-12.667 -106.5 -38 -106.5c-16.667 0 -32 25.5 -46 76.5s-26.667 97.5 -38 139.5c-60.667 142 -157.334 213 -290.001 213c-70.667 0 -142.667 -20.833 -216 -62.5
s-136 -95.834 -188 -162.501c-98.667 -135.333 -220.667 -300.333 -366 -495c-42.667 0 -116.667 -1 -222 -3c-72 -1.33301 -129.333 -37.333 -172 -108c-22.667 -38 -38.667 -80.667 -48 -128h608v-102h-82z" />
    <glyph glyph-name="cent" unicode="&#xa2;" horiz-adv-x="1143" 
d="M362 726c0 -265.333 101 -398 303 -398c97.333 0 193 20 287 60v-154c-73.333 -37.333 -156 -57.333 -248 -60v-194h-134v200c-132.667 20 -230.5 75 -293.5 165s-94.5 216.333 -94.5 379c0 330.667 129.333 516 388 556v168h136v-160c98.667 -4 186.667 -23.333 264 -58
l-52 -146c-93.333 34.667 -172.666 52 -237.999 52c-108.667 0 -188.834 -33.833 -240.501 -101.5s-77.5 -170.5 -77.5 -308.5z" />
    <glyph glyph-name="sterling" unicode="&#xa3;" horiz-adv-x="1143" 
d="M438 432c0 -126.667 -45.332 -217.333 -135.999 -272h768v-160h-1006v148c131.333 30.667 197.333 124.667 198 282v210h-192v132h192v296c0 118 36.5 210.5 109.5 277.5s171.667 100.5 296 100.5s242.5 -27.333 354.5 -82l-62 -140
c-108.667 50.667 -202.834 76 -282.501 76s-139.5 -19.667 -179.5 -59s-60 -103 -60 -191v-278h408v-132h-408v-208z" />
    <glyph glyph-name="currency" unicode="&#xa4;" horiz-adv-x="434" 
d="M59.5 1370.5c-47.667 31 -81.667 66.833 -102 107.5c-20.333 41.333 -30.833 88.666 -31.5 141.999v9c0 47.333 5 71 15 71c7.33301 0 17.833 -22.333 31.5 -67s29.5 -80.334 47.5 -107.001c42 -63.333 104.667 -95 188 -95s146 31.667 188 95
c18 26.667 33.833 62.334 47.5 107.001s24.167 67 31.5 67c10 0 15 -24 15 -72v-9c-1.33301 -107.333 -45 -189.666 -131 -246.999c-48 -32 -98 -48 -150 -48s-101.833 15.5 -149.5 46.5zM460 1038h-460v160h460v-160z" />
    <glyph glyph-name="yen" unicode="&#xa5;" horiz-adv-x="1143" 
d="M570 730l358 698h184l-402 -750h248v-128h-302v-164h302v-128h-302v-258h-172v258h-302v128h302v164h-302v128h244l-398 750h186z" />
    <glyph glyph-name="section" unicode="&#xa7;" 
d="M-590 -78c-92 0 -137.999 -41.3311 -137.999 -123.998c0 -78.667 26 -144 78 -196c69.333 -69.333 141.666 -104 216.999 -104c82 0 147 24 195 72c1.33301 1.33301 2.33301 2.66602 3 3.99902s1.66699 2.66602 3 3.99902c36 49.333 54 117.333 54 204v178h-116v-180
c0 -49.333 -9.33301 -91.333 -28 -126c-22.667 -36 -50.667 -54 -84 -54h-5c-59.333 0 -115 22 -167 66c-38.667 34.667 -58 84 -58 148c0 21.333 13.333 35.333 40 42c56 9.33301 84 23 84 41c0 16.667 -26 25 -78 25zM-63.999 -657.998
c-120 -42.667 -232.668 -63.999 -338.001 -63.999s-220.666 21.333 -345.999 64v-74c121.333 -42.667 228.333 -64 321 -64h23c110.667 1.33301 224 22.666 340 63.999v74zM-64 -499.997c-116 -45.333 -228.332 -68.001 -336.999 -68.001s-224.334 22.667 -347.001 68v-74
c128 -45.333 239.667 -68 335 -68h15c98.667 2.66699 210 25.334 334 68.001v74z" />
    <glyph glyph-name="dieresis" unicode="&#xa8;" horiz-adv-x="62" 
d="M-114 -652c-120 -42.667 -232.668 -63.999 -338.001 -63.999s-220.666 21.333 -345.999 64v-80c121.333 -42.667 228.333 -64 321 -64h23c110.667 1.33301 224 22.666 340 63.999v80zM-114.001 -481.999c-116 -45.333 -228.332 -68.001 -336.999 -68.001
s-224.334 22.667 -347.001 68v-80c128 -45.333 239.667 -68 335 -68h15c98.667 2.66699 210 25.334 334 68.001v80z" />
    <glyph glyph-name="copyright" unicode="&#xa9;" horiz-adv-x="1664" 
d="M204 714c0 -112 28 -216.5 84 -313.5s132.667 -173.667 230 -230s202 -84.5 314 -84.5s216.5 28 313.5 84s173.667 132.667 230 230s84.5 202 84.5 314s-28 216.5 -84 313.5s-132.667 173.667 -230 230s-202 84.5 -314 84.5s-216.5 -28 -313.5 -84
s-173.667 -132.667 -230 -230s-84.5 -202 -84.5 -314zM193 352c-63.333 112.667 -95 233.667 -95 363s32.5 251 97.5 365s154.5 203.833 268.5 269.5s236.333 98.5 367 98.5s253 -32.5 367 -97.5s203.833 -154.5 269.5 -268.5s98.5 -235.833 98.5 -365.5
s-31.5 -250.834 -94.5 -363.501s-151.5 -203 -265.5 -271s-238.5 -102 -373.5 -102s-259.5 33.833 -373.5 101.5s-202.667 157.834 -266 270.501zM1080 314c-72.667 -32 -145.332 -47.999 -217.999 -47.999c-125.333 0 -222.333 39 -291 117s-103 186.667 -103 326
s36.167 249.333 108.5 330s170.166 121 293.499 121c84.667 0 166.667 -20 246 -60l-58 -122c-69.333 34.667 -131.333 52 -186 52c-77.333 0 -138 -27.833 -182 -83.5s-66 -133.834 -66 -234.501s19 -178.5 57 -233.5s101 -82.5 189 -82.5c62 0 132 15.333 210 46v-128z
" />
    <glyph glyph-name="ordfeminine" unicode="&#xaa;" horiz-adv-x="1208" 
 />
    <glyph glyph-name="registered" unicode="&#xae;" 
d="M-644 32l-25.999 -63.998c-36 13.333 -76.667 20 -122 20s-78 -13.667 -98 -41s-30 -56.666 -30 -87.999s12 -59 36 -83s52 -36 84 -36c48 0 92.667 26.667 134 80c34.667 -10.667 70 -33.334 106 -68.001l92 -92c28 -28 50.667 -42 68 -42
c3.33301 0 6.66602 0.666992 9.99902 2c12 5.33301 18 14.666 18 27.999c0 28 -26 73.667 -78 137s-94.667 106.333 -128 129c21.333 37.333 39.333 76.666 54 117.999h-120z" />
    <glyph glyph-name="degree" unicode="&#xb0;" horiz-adv-x="740" 
d="M666 782v-106h-598v106h598zM522 1322c-42.667 42.667 -94 64.002 -154 64.002c-0.666992 0 -1 0.333008 -1 1c-58 0.666992 -108.333 -20.333 -151 -63s-64.667 -93.334 -66 -152.001v-5c0 -56.667 20.667 -106.334 62 -149.001c42.667 -44 93.667 -66.333 153 -67h3
c57.333 0 107.333 21.333 150 64c42.667 43.333 64.667 94.333 66 153v6c0.666992 56.667 -20 106 -62 148zM367 1477c83.333 0.666992 155 -29.667 215 -91c60.667 -62 91 -135 91 -219c0 -82 -30 -152.333 -90 -211c-60.667 -60 -133 -90.333 -217 -91h-2
c-82.667 0.666992 -154 31 -214 91c-60.667 61.333 -91 133.333 -91 216s30.5 154.167 91.5 214.5s133.167 90.5 216.5 90.5z" />
    <glyph glyph-name="plusminus" unicode="&#xb1;" horiz-adv-x="1224" 
d="M1098 158v-138h-1038v138h1038zM1013 651h-357v-357h-154v357h-357v154h357v357h154v-357h357v-154z" />
    <glyph glyph-name="acute" unicode="&#xb4;" 
d="M222 -275l-243.999 -0.00195312v-182c0 -49.333 -17.333 -74 -52 -74c-22 0 -51.333 14.333 -88 43s-53.334 44.334 -50.001 47.001c-1.33301 1.33301 -2 5.83301 -2 13.5s10 37 30 88s30.667 82.5 32 94.5c3.33301 30.667 5 59 5 85
c0 39.333 -3.66699 73.666 -11 102.999h-136c9.33301 -22.667 14 -49.5 14 -80.5s-1 -52.333 -3 -64s-3.66699 -25.167 -5 -40.5c-1.33301 -14.667 -12 -50 -32 -106c-18 -50.667 -27 -85.667 -27 -105c0 -4 0.333008 -7.33301 1 -10c2.66699 -28 22.5 -57.667 59.5 -89
s70.5 -53.666 100.5 -66.999c80 -34.667 136 -52 168 -52c62 0 98.667 40.667 110 122c6.66699 46.667 10 97.334 10 152.001h121z" />
    <glyph glyph-name="mu" unicode="&#xb5;" 
d="M-564 1740c-85.333 0 -152.668 -26.001 -202.001 -78.001c-37.333 -37.333 -56 -86 -56 -146s25.333 -113.333 76 -160c25.333 -25.333 45 -38 59 -38s21 4.66699 21 14c0 5.33301 -0.666992 9.33301 -2 12c-34.667 62.667 -52 112.334 -52 149.001s13.333 67 40 91
s64.334 36 113.001 36s87 -12 115 -36s42 -54.333 42 -91s-17.333 -86.334 -52 -149.001c-2.66699 -5.33301 -4 -9.33301 -4 -12c0 -9.33301 7.33301 -14 22 -14s34.667 12.667 60 38c49.333 45.333 74 98 74 158s-18 109.333 -54 148c-24 26.667 -49.667 46.334 -77 59.001
s-68.333 19 -123 19z" />
    <glyph glyph-name="paragraph" unicode="&#xb6;" horiz-adv-x="1309" 
d="M1098 -254l-116 -0.000976562v1662h-204v-1662h-116v800c-40.667 -12 -88 -18 -142 -18c-140.667 0 -244.167 40.667 -310.5 122s-99.5 205.333 -99.5 372s35.5 291.334 106.5 374.001s182.167 124 333.5 124h548v-1774z" />
    <glyph glyph-name="periodcentered" unicode="&#xb7;" horiz-adv-x="700" 
d="M330 712c35.333 0 65.833 -13 91.5 -39s38.5 -57.667 38.5 -95s-14.333 -67.333 -43 -90s-57.667 -34 -87 -34s-58 11 -86 33s-42 52.333 -42 91s12.5 70.667 37.5 96s55.167 38 90.5 38z" />
    <glyph glyph-name="periodcentered" unicode="&#x2219;" horiz-adv-x="700" 
d="M330 712c35.333 0 65.833 -13 91.5 -39s38.5 -57.667 38.5 -95s-14.333 -67.333 -43 -90s-57.667 -34 -87 -34s-58 11 -86 33s-42 52.333 -42 91s12.5 70.667 37.5 96s55.167 38 90.5 38z" />
    <glyph glyph-name="questiondown" unicode="&#xbf;" horiz-adv-x="1332" 
d="M1046 920l-307 -307l307 -307l-108 -107l-307 306l-306 -306l-108 107l307 307l-307 307l108 107l306 -306l307 306z" />
    <glyph glyph-name="Aring" unicode="&#xc5;" horiz-adv-x="2168" 
d="M1133 -147c76 -263.333 211.999 -394.998 407.999 -394.998h10c61.333 2.66699 112 18.667 152 48c36.667 27.333 55 64.666 55 111.999v12c-3.33301 53.333 -32.666 105.666 -87.999 156.999s-108.333 77 -159 77c-5.33301 0 -21 -1.83301 -47 -5.5
s-136.333 -5.5 -331 -5.5zM1094 354.002c0 -134 4.66699 -248.666 14 -343.999c245.333 0 389 7.33301 431 22c80.667 28.667 141.167 66.667 181.5 114s78.5 116.666 114.5 207.999h-741zM529.999 213.003c67.333 33.333 101 80 101 140
c-0.666992 116 -76.334 174 -227.001 174c-149.333 0 -223.666 -57 -222.999 -171v-8c1.33301 -56 20 -99 56 -129s80.667 -45 134 -45s106.333 13 159 39zM761.999 -199.997c0 -119.333 19 -225.335 57 -318.002l70 -128c4.66699 -7.33301 7 -14.333 7 -21
c0 -20.667 -12.833 -31 -38.5 -31s-51.5 9.66699 -77.5 29c-62.667 46.667 -109.5 116.334 -140.5 209.001s-46.5 179.5 -46.5 260.5s7.33301 177.5 22 289.5c-80 -46.667 -163.5 -70 -250.5 -70s-165.833 28.333 -236.5 85s-106 135 -106 235
c0 229.333 125.667 344 377 344h26c132 -4 226.667 -35.5 284 -94.5s86 -149.5 86 -271.5c0 -51.333 -3.66699 -139.666 -11 -264.999c-14.667 -162.667 -22 -247 -22 -253zM1966 662.001c-190 134.667 -344.334 202.003 -463.001 202.003s-217.334 -46.667 -296.001 -140
c-56.667 -66.667 -93 -137.334 -109 -212.001h957v-158h-60c-33.333 -100.667 -70.666 -181.834 -111.999 -243.501s-101.333 -116.167 -180 -163.5c142 -84.667 213 -190.334 213 -317.001c0 -90.667 -29.5 -168 -88.5 -232s-148.5 -96 -268.5 -96
c-194.667 0 -345.667 75.667 -453 227c-88 124 -141 289.333 -159 496c-6.66699 72.667 -10 163.667 -10 273v56h-67v158h68c12.667 143.333 71.834 263.833 177.501 361.5s230.5 146.5 374.5 146.5c58 0 120.5 -9.66699 187.5 -29s177.167 -78 330.5 -176
c34 -26 82.667 -67 146 -123l-3 -169c-38 30 -99.667 76.333 -185 139z" />
    <glyph glyph-name="AE" unicode="&#xc6;" horiz-adv-x="2000" 
d="M2524 1034l2.00195 -129.002v-63c-6 -35.333 -26.667 -53.666 -62 -54.999h-4c-48 0 -77 31.667 -87 95c-5.33301 34.667 -8 84.667 -8 150c0 186 -65.667 343.333 -197 472s-290.333 193 -477 193c-259.333 0 -519.333 -162.333 -780 -487
c-73.333 -90.667 -156.333 -202.334 -249 -335.001s-149.667 -211.667 -171 -237c-106.667 -130.667 -213.334 -196 -320.001 -196c-46.667 0 -105.334 23 -176.001 69c-12.667 8 -19 16 -19 24c-1.33301 42.667 -2 96.334 -2 161.001c90 -64.667 155.667 -97 197 -97
c58 0.666992 133.667 58 227 172c60.667 74.667 131.5 171.334 212.5 290.001s132.833 191.667 155.5 219c146.667 174 277 303 391 387c168.667 124.667 346.667 187 534 187c229.333 0 425.5 -79.333 588.5 -238s244.5 -352.667 244.5 -582z" />
    <glyph glyph-name="Ccedilla" unicode="&#xc7;" horiz-adv-x="2112" 
d="M1236 1388c-64 -212.667 -97.334 -386.67 -100.001 -522.003v-17c0 -131.333 29.333 -277.666 88 -438.999c116 30.667 212 91.334 288 182.001s114 194 114 310s-36.667 217.833 -110 305.5s-166.666 147.834 -279.999 180.501zM1302 217.997
c-40 -16.667 -71.4941 -31.999 -94.4941 -45.999s-57.5 -43.333 -103.5 -88v-198c422 229.333 670.667 453.333 746 672c46.667 136 70 241.5 70 316.5s-16.167 143.833 -48.5 206.5s-87.5 142.334 -165.5 239.001c105.333 -40.667 188.666 -109.834 249.999 -207.501
s92 -215.167 92 -352.5c0 -68 -7.33301 -135.333 -22 -202c-29.333 -133.333 -76 -245.333 -140 -336c-48 -63.333 -119.333 -158 -214 -284c-61.333 -82 -96 -158 -104 -228l-228 210c-77.333 -24.667 -145.333 -60 -204 -106c62 -24.667 122 -55.334 180 -92.001
c78.667 -50 118 -102 118 -156c0 -18.667 -7.33301 -35 -22 -49s-31.334 -21 -50.001 -21c-41.333 0 -62 21.333 -62 64c0 18.667 8 39.334 24 62.001c-26.667 23.333 -51.334 42.833 -74.001 58.5s-72.667 38.167 -150 67.5v-232c36 -33.333 54 -63 54 -89
s-10.333 -49 -31 -69s-45 -30 -73 -30s-50.667 9.83301 -68 29.5s-26 42.667 -26 69s18 56.166 54 89.499v232c-34.667 -12 -78 -30 -130 -54l-94 -72c16 -22.667 24 -43.334 24 -62.001c0 -42.667 -20.667 -64 -62 -64c-18.667 0 -35.334 7 -50.001 21s-22 30.333 -22 49
c0 54 39.333 106 118 156c58 36.667 118 67.334 180 92.001c-62.667 50.667 -130.667 86 -204 106l-228 -210c-8 70 -39.5 141 -94.5 213s-129.5 171.667 -223.5 299c-64 90.667 -110.667 202.667 -140 336c-14.667 66.667 -22 134 -22 202
c0 137.333 30.667 254.833 92 352.5s144.666 166.834 249.999 207.501c-78 -96.667 -133.167 -176.334 -165.5 -239.001s-48.5 -131.5 -48.5 -206.5s23.333 -180.5 70 -316.5c75.333 -218.667 324 -442.667 746 -672v198c-21.333 21.333 -58 52 -110 92
c-20 12 -49.333 26 -88 42c13.333 29.333 28 66.666 44 111.999c-130.667 36 -238 107.167 -322 213.5s-126 226 -126 359s42 252 126 357s189.333 175.833 316 212.5c-10.667 30.667 -20.667 56 -30 76c50 36 101.333 78 154 126c15.333 14 32.666 37.5 51.999 70.5
s32 53.5 38 61.5c13.333 -30.667 40 -74.667 80 -132c52 -48 103.333 -90 154 -126c-9.33301 -20 -19.333 -45.333 -30 -76c130.667 -38 238 -108.833 322 -212.5s126 -222.667 126 -357s-43.167 -254.166 -129.5 -359.499s-195.833 -176.333 -328.5 -213
c6.66699 -20 22.667 -57.333 48 -112zM884.005 409.998c60 165.333 90 313.001 90 443.001v17c-2.66699 133.333 -36 306 -100 518c-110.667 -30.667 -202 -90.334 -274 -179.001s-108 -191.167 -108 -307.5s36.5 -219.5 109.5 -309.5s167.167 -150.667 282.5 -182z" />
    <glyph glyph-name="Iacute" unicode="&#xcd;" 
d="M-186 -54l-137.997 0.000976562v-108h-246c-50 0 -92.667 -18.333 -128 -55c-31.333 -32.667 -47 -71 -47 -115v-9c2 -47.333 32.667 -93.333 92 -138s89.666 -68.334 90.999 -71.001c60 -146.667 124.667 -220.667 194 -222c7.33301 -0.666992 14.333 -1 21 -1
c55.333 0 94.333 15 117 45c17.333 36 26.666 63.333 27.999 82c-6.66699 0 -18.667 -2 -36 -6c-28.667 -6.66699 -53.5 -10 -74.5 -10s-38.167 4.66699 -51.5 14c-28 17.333 -44.333 36 -49 56s-8.33398 40.667 -11.001 62h224v122h-344c-12 0 -25.333 7.33301 -40 22
s-22 30 -22 46s7.33301 29 22 39s32 15 52 15h346v232z" />
    <glyph glyph-name="Icircumflex" unicode="&#xce;" horiz-adv-x="1048" 
d="M80 346c88.667 -74.667 153.333 -112 194 -112c47.333 0 72 46 74 138l4 298h368v368h-734v160h1080v-160h-178v-1038h-170v510h-206c0 -130.667 -10.5 -236.5 -31.5 -317.5s-69.167 -121.5 -144.5 -121.5s-170 37.667 -284 113c0 2.66699 9.33301 56.667 28 162z" />
    <glyph glyph-name="Idieresis" unicode="&#xcf;" 
d="M-202 -54l-126.001 -0.00195312v-218h-244v-182c0 -49.333 -17.333 -74 -52 -74c-24 0 -48.667 10.667 -74 32c-46.667 34.667 -68 54 -64 58c-1.33301 1.33301 -2 5.33301 -2 12s10 35.334 30 86.001s30.667 83.334 32 98.001c3.33301 30.667 5 59 5 85
c0 39.333 -3.66699 73.666 -11 102.999h-136c9.33301 -22.667 14 -47.667 14 -75c0 -42 -1.66699 -74.667 -5 -98s-14.666 -61.666 -33.999 -114.999s-29 -86 -29 -98s0.666992 -18.667 2 -20c0 -24 18.667 -52.333 56 -85s72 -56.334 104 -71.001
c80 -34.667 136 -52 168 -52c60 0 96.667 40.667 110 122c6.66699 46.667 10 97.334 10 152.001h112v-328h134v668z" />
    <glyph glyph-name="Ntilde" unicode="&#xd1;" 
d="M-220 1390c-6.66699 103.333 -20.666 170.165 -41.999 200.498s-56 48.833 -104 55.5c-38.667 2.66699 -89 5.33398 -151 8.00098s-99.667 4.33398 -113 5.00098s-25.666 1 -36.999 1h-33c-10.667 0 -21.334 -0.666992 -32.001 -2c-21.333 2.66699 -39.333 10 -54 22
c-16.667 38.667 -27.334 70 -32.001 94c-14.667 54.667 -35.334 82 -62.001 82c-17.333 0 -26 -28.667 -26 -86v-24c2.66699 -73.333 17.334 -130.666 44.001 -171.999c20 -29.333 46 -46 78 -50c12 -4 71.333 -6 178 -6s173 -0.333008 199 -1s46.333 -7 61 -19
c17.333 -34.667 31.333 -68 42 -100c16 -36 32.667 -54 50 -54h4c17.333 1.33301 27.333 16.666 30 45.999zM-563.999 1459c20.667 0 38.5 -8 53.5 -24s22.5 -35 22.5 -57s-7.5 -41 -22.5 -57s-32.833 -24 -53.5 -24s-38.667 8 -54 24s-23 35 -23 57s7.66699 41 23 57
s33.333 24 54 24z" />
    <glyph glyph-name="Ograve" unicode="&#xd2;" horiz-adv-x="700" 
d="M590 1198v-1218h-166v1218h166zM270 1198v-1218h-166v1218h166z" />
    <glyph glyph-name="Oacute" unicode="&#xd3;" horiz-adv-x="2656" 
d="M1506 1304l-8.00195 -88.999c12.667 -36 19.334 -55 20.001 -57c11.333 -20.667 26 -32.334 44 -35.001c23.333 55.333 35 86.5 35 93.5s-0.666992 13.167 -2 18.5c0 18.667 -7.33301 35.167 -22 49.5s-28.167 21.5 -40.5 21.5s-21.166 -0.666992 -26.499 -2zM1609 1304
c26 -62 66.333 -103.333 121 -124c12 4.66699 17.333 13 16 25c-4.66699 27.333 -7 37.333 -7 30c-6 20 -18.5 41.833 -37.5 65.5s-36.833 35.5 -53.5 35.5s-29.667 -10.667 -39 -32zM1294 1313h93.002c38 1.33301 64 14 78 38c-6.66699 23.333 -22.334 35 -47.001 35
s-53.834 -6.5 -87.501 -19.5s-50.5 -26.833 -50.5 -41.5c0 -6 4.66699 -10 14 -12zM1659 1389c30.667 -50 81.667 -75.001 153 -75.001c9.33301 0 18.333 0.333008 27 1c0 18.667 -17.333 39.834 -52 63.501s-62.667 35.5 -84 35.5s-36 -8.33301 -44 -25zM1624 1424
c0 45.333 -25.333 69.999 -76 73.999c-40.667 -2 -61 -27 -61 -75c0 -7.33301 0.666992 -14.666 2 -21.999c10 -23.333 35.333 -40 76 -50c39.333 16.667 59 41 59 73zM1659 1510c-8 -11.333 -12 -21 -12 -29c0 -18 18 -27 54 -27c52 0 93.333 25 124 75
c-26 14 -55.5 21 -88.5 21s-58.833 -13.333 -77.5 -40zM1285 1552c-0.666992 -28.667 15.666 -55 48.999 -79c28 -20.667 55 -31 81 -31c4 0 8 0.333008 12 1c15.333 2 23 20.333 23 55c-33.333 36 -82.666 54 -147.999 54h-17zM1430 1703l-3.00098 -80.001
c7.33301 -20 15 -39.667 23 -59c12 -23.333 28.333 -35 49 -35c6.66699 0 13 0.666992 19 2c10.667 7.33301 15.834 21.333 15.501 42s-0.5 37.334 -0.5 50.001c-20.667 53.333 -55 80 -103 80zM1663 1742c-18 -13.333 -37.833 -37.168 -59.5 -71.501
s-32.5 -64.166 -32.5 -89.499s11.333 -42.666 34 -51.999h4c44.667 0 67 46.667 67 140c0 33.333 -4.33301 57.666 -13 72.999zM2292 1129c47.333 66 77.333 106.002 90 120.002c38 43.333 73.667 68.666 107 75.999c-27.333 -54 -79.333 -127 -156 -219
c54.667 20 106.167 51.667 154.5 95s72.5 86.666 72.5 129.999c0 20 -5.66699 38.667 -17 56c-14.667 6 -29.667 9 -45 9c-57.333 0 -107.333 -30 -150 -90c-38 -54 -57 -106.667 -57 -158c0 -6.66699 0.333008 -13 1 -19zM204.999 107.998
c19.333 -47.333 46.333 -71.002 81 -71.002c10 0 20 3 30 9c-4 18 -15.833 47.833 -35.5 89.5s-29.5 75.834 -29.5 102.501c0 48.667 24 106 72 172c-88.667 -64 -133 -139.333 -133 -226c0 -25.333 5 -50.666 15 -75.999zM421.999 454.996
c-82.667 -64.667 -124 -132.332 -124 -202.999c0 -40.667 14.5 -77.334 43.5 -110.001s63.833 -49 104.5 -49c9.33301 0 18.333 1 27 3c-64 57.333 -96 122.333 -96 195c0 50 15 104.667 45 164zM298.999 719.998l62 72.001c-28 0 -59.333 -13.333 -94 -40
s-52 -53.334 -52 -80.001c0 -11.333 3.66699 -21 11 -29c115.333 41.333 185 94 209 158h-3c-15.333 -0.666992 -37.333 -13.667 -66 -39c-30.667 -28 -53 -42 -67 -42zM347.999 847.999l-92.001 -10c-22 0 -41.333 6 -58 18c13.333 10 32 15 56 15
c4.66699 -0.666992 9.66699 -1 15 -1c9.33301 -0.666992 18 -1 26 -1c18 0 31.333 2 40 6c-20.667 26 -49.5 39 -86.5 39s-71.833 -6.66699 -104.5 -20s-50 -32.333 -52 -57c46.667 -18 95.834 -27 147.501 -27s97.167 11.667 136.5 35c-8.66699 2 -18 3 -28 3z
M596.998 938.999c14 5.33301 39.168 20.333 75.501 45s61.333 37 75 37s23.5 -0.333008 29.5 -1c-8 -14 -34.833 -32.5 -80.5 -55.5s-70.834 -41.833 -75.501 -56.5c96 0 170 51 222 153c-18 5.33301 -42.833 8 -74.5 8s-68.5 -9.83301 -110.5 -29.5s-63 -47.5 -63 -83.5
c0 -5.33301 0.666992 -11 2 -17zM118.999 1173c34.667 -75.333 80.498 -141.002 137.498 -197.002s120.167 -84 189.5 -84c0 4 -27.667 25.833 -83 65.5s-87.666 72.167 -96.999 97.5c22.667 -9.33301 52.334 -28.166 89.001 -56.499s64 -46.833 82 -55.5
c-60.667 114.667 -166.667 191.334 -318 230.001zM537.997 957.997c66 69.333 99 144.334 99 225.001c0 25.333 -3.66699 49.666 -11 72.999c-60.667 -25.333 -91 -87 -91 -185c0 -12 0.5 -30.667 1.5 -56s1.5 -44.333 1.5 -57zM393.997 1306l2.99902 -167.999
c7.33301 -90.667 27.333 -142.334 60 -155.001c-18.667 74 -28 120 -28 138s1.33301 27 4 27c8.66699 0 32.334 -48.333 71.001 -145c0.666992 9.33301 1 19.333 1 30c0.666992 42 -6.33301 92.333 -21 151c-18.667 73.333 -48.667 114 -90 122zM1760 1586l77.999 7
c24 0 43.333 -8.66699 58 -26c0.666992 -32 -8.66602 -56.333 -27.999 -73s-44.333 -37.667 -75 -63c5.33301 -8.66699 28 -28.667 68 -60s60 -61.333 60 -90c0 -5.33301 -0.666992 -10.666 -2 -15.999c-7.33301 -2 -17 -3 -29 -3c-10 0 -21.667 0.666992 -35 2
c-30 2.66699 -49.667 4 -59 4s-18.333 -1.66699 -27 -5c2 -6.66699 8.5 -25.5 19.5 -56.5s16.5 -55.833 16.5 -74.5c-9.33301 -2.66699 -21.333 -4 -36 -4s-39.5 11.5 -74.5 34.5s-57.167 36.833 -66.5 41.5c-11.333 -38.667 -32.333 -96.334 -63 -173.001
c-44 37.333 -80.333 112.333 -109 225c-31.333 -52 -68.833 -133.5 -112.5 -244.5s-71.167 -177.5 -82.5 -199.5c26.667 5.33301 70.334 24.166 131.001 56.499s110.667 48.5 150 48.5s80.666 -23 123.999 -69c-43.333 -85.333 -125 -128 -245 -128
c-32.667 0 -71 2.83301 -115 8.5s-67.667 8.5 -71 8.5c-20 -71.333 -61 -269.333 -123 -594c8.66699 -21.333 21 -48.666 37 -81.999v6c0 62 10.667 114.333 32 157c22 44 60 103.333 114 178c32 -20 48 -55.167 48 -105.5s-14.667 -108.333 -44 -174
s-58.666 -118.834 -87.999 -159.501c78.667 -140.667 135.334 -245.167 170.001 -313.5s67.334 -144.833 98.001 -229.5c5.33301 36.667 18.5 92.667 39.5 168s33.833 130.333 38.5 165c-10.667 24.667 -21 48.334 -31 71.001c-16.667 29.333 -37.667 44 -63 44
c-6.66699 0 -14 -0.666992 -22 -2c-48.667 14 -73 43 -73 87c0 24.667 9.83301 46.167 29.5 64.5s41.834 27.5 66.501 27.5c52 0 78 -29 78 -87l-2 -61c0 -42 14 -71.333 42 -88c48.667 268 196.334 577 443.001 927c-19.333 48.667 -37.833 95.834 -55.5 141.501
s-26.5 90.5 -26.5 134.5c0 88 40.333 170.333 121 247c42.667 -68 64 -140.333 64 -217s-10.333 -140 -31 -190c15.333 24 46.333 66.333 93 127c46 58.667 68.667 92.667 68 102l-12 72c0 68 26 134.5 78 199.5s111 97.5 177 97.5c32 0 59.333 -9.66699 82 -29
s34 -45 34 -77c0 -65.333 -36.833 -129.166 -110.5 -191.499s-144.167 -94.833 -211.5 -97.5l-184 -248c73.333 33.333 142.333 50 207 50c105.333 0 181.666 -37.333 228.999 -112c-41.333 -50 -108 -75 -200 -75c-46.667 0 -101.667 6 -165 18l-118 23
c-102 -162 -174 -281.667 -216 -359c-85.333 -158 -148.333 -306.333 -189 -445c43.333 65.333 128.666 138.166 255.999 218.499s241.666 120.5 342.999 120.5c10 0 20 -0.333008 30 -1c92 164 188.333 246 289 246c22.667 0 45.334 -5.33301 68.001 -16
c-14 -82.667 -40.333 -143.334 -79 -182.001c-24 -24 -56.5 -41.5 -97.5 -52.5s-63.5 -21.5 -67.5 -31.5c80 -30.667 141.167 -82.667 183.5 -156s63.5 -150.666 63.5 -231.999s-19.167 -147.333 -57.5 -198s-92.833 -80 -163.5 -88c-26.667 -2.66699 -55.334 -4 -86.001 -4
c-117.333 0 -176 14 -176 42c0 2 0.333008 4 1 6c3.33301 12.667 13.666 19 30.999 19s40.166 -2.16699 68.499 -6.5s49.166 -6.83301 62.499 -7.5h22c83.333 0 139.666 14.333 168.999 43c48.667 48 73 107.667 73 179c0 10 -1 23.667 -3 41c-22 176 -98.667 284 -230 324
c56.667 -42 85 -100.5 85 -175.5s-24.333 -125.167 -73 -150.5c-84.667 43.333 -127 103.333 -127 180c0 34.667 12 93 36 175c-160 -20 -305.333 -80.667 -436 -182c-89.333 -69.333 -157.666 -143 -204.999 -221c5.33301 -1.33301 12.833 -2 22.5 -2s28.167 4.5 55.5 13.5
s44.666 14.167 51.999 15.5c22.667 52 56.334 78 101.001 78s70 -25 76 -75c0.666992 -5.33301 1 -10.666 1 -15.999c0 -21.333 -6.33301 -41.333 -19 -60c-16 -22.667 -40.167 -34 -72.5 -34s-63.166 22 -92.499 66c-41.333 -10 -88.666 -22.333 -141.999 -37
c-49.333 -206 -82.666 -339.667 -99.999 -401c43.333 64.667 81.666 108 114.999 130s84.666 33 153.999 33c16.667 0 43 -0.333008 79 -1c-8.66699 -145.333 -118.667 -226.666 -330 -243.999l11 -43h-86l-22 43c-10 3.33301 -22.667 5 -38 5s-42.333 -5.33301 -81 -16
s-67.667 -16 -87 -16c-72 0 -135 52.333 -189 157c78.667 16 153.667 24 225 24s123.333 -17.333 156 -52c-1.33301 7.33301 -9.33301 28.666 -24 63.999c-60 36 -135.333 70.833 -226 104.5s-167.667 56.834 -231 69.501l-59 -178c-43.333 -94 -104 -141 -182 -141
c-14 0 -28.667 1.33301 -44 4c-4.66699 44 -7 78 -7 102c0 52 15.333 92 46 120l162 116c-70 3.33301 -141.667 5 -215 5s-142.333 -3.66699 -207 -11c-10 -70 -39.167 -135.333 -87.5 -196s-105.5 -100.667 -171.5 -120c-10.667 24 -16 55 -16 93s13.5 81.833 40.5 131.5
s57.167 88.834 90.5 117.501c-92.667 14.667 -150.667 27.667 -174 39c-49.333 22.667 -86.333 67.667 -111 135c31.333 29.333 71.333 44 120 44s101.667 -19.333 159 -58s105.333 -81 144 -127h359c-104 41.333 -171.667 128 -203 260c21.333 24 45 36 71 36
c53.333 0 113.666 -44.667 180.999 -134c47.333 -63.333 84 -125.666 110 -186.999c118 -24.667 261.667 -77.667 431 -159c-51.333 96 -127.333 241.333 -228 436c-64.667 -20.667 -122.667 -31 -174 -31c-87.333 0 -159.666 31 -216.999 93
c46.667 56.667 99.5 85 158.5 85s122.167 -16.333 189.5 -49c-15.333 27.333 -40.666 73.666 -75.999 138.999c-120.667 221.333 -245.334 334.666 -374.001 339.999c-8.66699 0.666992 -16.667 0.666992 -24 0c-114 0 -182 -36.667 -204 -110
c-10 -34.667 -15 -68.5 -15 -101.5s9.16699 -65 27.5 -96s45.5 -46.5 81.5 -46.5h28.5c10.333 0 24.5 13.333 42.5 40c1.33301 4.66699 2 9.66699 2 15l-15 65c0 9.33301 5.83301 15.166 17.5 17.499s20.834 -5.16699 27.501 -22.5s10 -32.333 10 -45
c0 -50 -27.667 -90 -83 -120c-38 -20.667 -67.667 -34.667 -89 -42c-18 -6 -44 -9 -78 -9h-20c-24.667 -36.667 -57.334 -55 -98.001 -55c-22.667 0 -42.334 6 -59.001 18c-49.333 32.667 -74 86.334 -74 161.001c0 137.333 86 244.666 258 321.999
c74.667 34 149.834 51 225.501 51s139.167 -21 190.5 -63l1 16c-68.667 76.667 -157 172.667 -265 288c-37.333 -4 -73 -22.667 -107 -56c-56.667 -56 -88.667 -86.667 -96 -92c-46 -31.333 -103.667 -47 -173 -47c-1.33301 6 -2 14.333 -2 25s5.5 30.167 16.5 58.5
s16.5 49.5 16.5 63.5s-3.33301 26.333 -10 37c-53.333 0 -109.333 15.667 -168 47c12 28.667 42.5 56 91.5 82s79.167 47 90.5 63c-49.333 41.333 -99.333 121.333 -150 240c5.33301 0.666992 11 1 17 1c66 0 156.667 -30.667 272 -92c1.33301 12.667 2 29.667 2 51v49
c0 76 8.33301 132 25 168c24.667 -8 50.667 -37.333 78 -88s50.666 -76 69.999 -76c14 3.33301 32.833 19.5 56.5 48.5s45.834 46.167 66.501 51.5c14.667 -44 22 -84.167 22 -120.5s-1.33301 -65.5 -4 -87.5c20.667 -4.66699 56.5 -8.33398 107.5 -11.001
s87.833 -11 110.5 -25c-24 -72 -62.333 -125.333 -115 -160c-26.667 -18 -64.167 -33.667 -112.5 -47s-72.5 -29 -72.5 -47c193.333 -194 358.666 -398.667 495.999 -614c10 94 47.667 276 113 546c-55.333 32 -102.5 77.167 -141.5 135.5s-58.5 114.666 -58.5 168.999
s14 101.166 42 140.499c114 -45.333 178 -169.666 192 -372.999c38.667 110.667 101.667 260.334 189 449.001c-23.333 -10.667 -54.666 -16 -93.999 -16s-82.666 11 -129.999 33c4 24.667 25.167 50 63.5 76s62.166 45.333 71.499 58
c-50.667 23.333 -95 74.666 -133 153.999c14 20.667 32.5 31 55.5 31s48.5 -3.66699 76.5 -11l60 -15c-6.66699 51.333 -16.334 121.666 -29.001 210.999h7c28 0 56.667 -11.667 86 -35c8.66699 -7.33301 36.667 -31.333 84 -72c19.333 8 43.833 31 73.5 69
s52.5 61.667 68.5 71c16.667 -10.667 29.334 -52.667 38.001 -126s13.667 -112.666 15 -117.999c9.33301 -2.66699 20 -4 32 -4z" />
    <glyph glyph-name="Ocircumflex" unicode="&#xd4;" horiz-adv-x="2656" 
d="M1506 -251l-8.00098 89.998c12.667 35.333 19.334 54 20.001 56c11.333 20.667 26 32.334 44 35.001c23.333 -55.333 35 -86.333 35 -93s-0.333008 -16.167 -1 -28.5s-8.33398 -25.666 -23.001 -39.999s-28.167 -21.5 -40.5 -21.5s-21.166 0.666992 -26.499 2z
M1609 -251.002c26 62 66.333 103.667 121 125c12 -5.33301 17.333 -14 16 -26c-4.66699 -27.333 -7 -37.333 -7 -30c-6 -20 -18.5 -41.833 -37.5 -65.5s-36.833 -35.5 -53.5 -35.5s-29.667 10.667 -39 32zM1294 -260.002l93.002 0.000976562
c38 -0.666992 64 -13.334 78 -38.001c-6.66699 -23.333 -22.334 -35 -47.001 -35s-53.834 6.5 -87.501 19.5s-50.5 26.833 -50.5 41.5c0 6 4.66699 10 14 12zM1659 -336.001c30.667 50 81.667 75.001 153 75.001c9.33301 0 18.333 -0.333008 27 -1
c0 -18.667 -17.333 -39.834 -52 -63.501s-62.667 -35.5 -84 -35.5s-36 8.33301 -44 25zM1624 -371c0 -45.333 -25.333 -69.999 -76 -73.999c-40.667 2 -61 27 -61 75c0 7.33301 0.666992 14.666 2 21.999c10 23.333 35.333 40 76 50c39.333 -16.667 59 -41 59 -73z
M1659 -456.999c-8 11.333 -12 21.333 -12 30c0 18 18 27 54 27c52 0 93.333 -25.333 124 -76c-26 -14 -55.5 -21 -88.5 -21s-58.833 13.333 -77.5 40zM1285 -498.999c-0.666992 28.667 15.666 55 48.999 79c28 20.667 55 31 81 31c4 0 8 -0.333008 12 -1
c15.333 -2 23 -20.333 23 -55c-33.333 -36 -82.666 -54 -147.999 -54h-17zM1430 -648.999l-3.00098 79.001c7.33301 20 15 39.667 23 59c12 23.333 28.333 35 49 35c6.66699 0 13 -0.666992 19 -2c10.667 -7.33301 15.834 -21.333 15.501 -42s-0.5 -37.334 -0.5 -50.001
c-20.667 -52.667 -55 -79 -103 -79zM1663 -688.998c-18 14 -37.833 38 -59.5 72s-32.5 63.667 -32.5 89s11.333 42.666 34 51.999h5c44 0 66 -46.667 66 -140c0 -33.333 -4.33301 -57.666 -13 -72.999zM2292 -75.998c47.333 -65.333 77.333 -105.335 90 -120.002
c38 -43.333 73.667 -68.666 107 -75.999c-27.333 54 -79.333 127 -156 219c54.667 -20 106.167 -51.667 154.5 -95s72.5 -86.666 72.5 -129.999c0 -20 -5.66699 -38.667 -17 -56c-14.667 -6 -29.667 -9 -45 -9c-57.333 0.666992 -107.333 31 -150 91
c-38 54 -57 106.333 -57 157c0 6.66699 0.333008 13 1 19zM205 945c19.333 47.333 46.333 71 81 71c10 0 20 -3 30 -9c-4 -18 -15.833 -47.667 -35.5 -89s-29.5 -75.666 -29.5 -102.999c0 -48.667 24 -106 72 -172c-88.667 64.667 -133 140 -133 226
c0 25.333 5 50.666 15 75.999zM422 599c-82.667 64 -124 131.332 -124 201.999c0 40.667 14.5 77.334 43.5 110.001s63.833 49 104.5 49c9.33301 0 18.333 -1 27 -3c-64 -56.667 -96 -121.667 -96 -195c0 -50 15 -104.333 45 -163zM299 332.999l61.999 -72
c-28 0 -59.333 13.333 -94 40s-52 53.334 -52 80.001c0 11.333 3.66699 21 11 29c115.333 -40.667 185 -93.334 209 -158.001h-2c-15.333 0 -37.666 13 -66.999 39c-30.667 27.333 -53 41.333 -67 42zM347.999 205.999l-92.001 9c-22 0 -41.333 -6 -58 -18
c13.333 -9.33301 32.333 -14 57 -14h14c8.66699 0.666992 16.667 1 24 1c19.333 0 33.333 -2 42 -6c-20.667 -26 -49.5 -39 -86.5 -39s-71.833 6.83301 -104.5 20.5s-50 32.5 -52 56.5c46.667 18 95.834 27 147.501 27s97.167 -11.667 136.5 -35
c-8.66699 -1.33301 -18 -2 -28 -2zM596.998 113.999c14 -5.33301 39.168 -20.333 75.501 -45s61.333 -37 75 -37s23.5 0.333008 29.5 1c-8 14 -34.833 32.5 -80.5 55.5s-70.834 41.833 -75.501 56.5c96 0 170 -50.667 222 -152c-18 -6 -42.833 -9 -74.5 -9
s-68.5 9.83301 -110.5 29.5s-63 47.5 -63 83.5c0 5.33301 0.666992 11 2 17zM118.999 -120.001c34.667 75.333 80.498 141.002 137.498 197.002s120.167 84 189.5 84c0 -4 -27.667 -25.833 -83 -65.5s-87.666 -72.167 -96.999 -97.5
c22.667 9.33301 52.334 28.166 89.001 56.499s64 47.166 82 56.499c-60.667 -115.333 -166.667 -192.333 -318 -231zM537.997 95.001c66 -68.667 99 -143.668 99 -225.001c0 -25.333 -3.66699 -49.666 -11 -72.999c-60.667 25.333 -91 87 -91 185
c0 12.667 0.5 31.5 1.5 56.5s1.5 43.833 1.5 56.5zM393.997 -253l2.99902 167.999c7.33301 90.667 27.333 142.334 60 155.001c-18.667 -74 -28 -120 -28 -138s1.33301 -27 4 -27c8.66699 0 32.334 48.333 71.001 145c0.666992 -9.33301 1 -19.333 1 -30
c0.666992 -42 -6.33301 -92.333 -21 -151c-18.667 -73.333 -48.667 -114 -90 -122zM1760 -533.001l77.9971 -7.00098c24 0 43.333 8.66699 58 26c0.666992 32 -8.66602 56.333 -27.999 73s-44.333 37.667 -75 63c5.33301 8.66699 28 28.667 68 60s60 61.333 60 90
c0 5.33301 -0.666992 10.666 -2 15.999c-7.33301 2 -17 3 -29 3c-10 0 -21.667 -0.666992 -35 -2c-30 -2.66699 -49.667 -4 -59 -4s-18.333 2 -27 6c2 6 8.5 24.5 19.5 55.5s16.5 56.167 16.5 75.5c-9.33301 2 -21.333 3 -36 3s-39.5 -11.5 -74.5 -34.5
s-57.167 -36.5 -66.5 -40.5c-11.333 38 -32.333 95.333 -63 172c-44 -37.333 -80.333 -112.333 -109 -225c-31.333 52 -68.833 133.5 -112.5 244.5s-71.167 177.833 -82.5 200.5c26.667 -6 70.334 -25.167 131.001 -57.5s110.667 -48.5 150 -48.5s80.666 23.333 123.999 70
c-43.333 84.667 -125 127 -245 127c-32.667 0 -71 -2.83301 -115 -8.5s-67.667 -8.5 -71 -8.5c-20 71.333 -61 269.333 -123 594c8.66699 22 21 49.333 37 82v-6c0 -62.667 10.667 -115.334 32 -158.001c22 -44 60 -103 114 -177c32 20.667 48 56 48 106
s-14.667 107.833 -44 173.5s-58.666 118.834 -87.999 159.501c78.667 140.667 135.334 245.334 170.001 314.001s67.334 145 98.001 229c5.33301 -36.667 18.5 -92.667 39.5 -168s33.833 -130.333 38.5 -165c-10.667 -24 -21 -47.667 -31 -71
c-16.667 -29.333 -37.667 -44 -63 -44c-6.66699 0 -14 0.666992 -22 2c-48.667 -14 -73 -43 -73 -87c0 -24 9.83301 -45.333 29.5 -64s41.834 -28 66.501 -28c52 0 78 29 78 87l-2 62c0 41.333 14 70.333 42 87c48.667 -268 196.334 -577 443.001 -927
c-19.333 -48.667 -37.833 -95.834 -55.5 -141.501s-26.5 -90.5 -26.5 -134.5c0 -87.333 40.333 -169.666 121 -246.999c42.667 68.667 64 141.167 64 217.5s-10.333 139.5 -31 189.5c15.333 -24.667 46.333 -67 93 -127c46 -58.667 68.667 -92.667 68 -102l-12 -72
c0 -67.333 26 -133.666 78 -198.999s111 -98 177 -98c32 0 59.333 9.66699 82 29s34 45 34 77c0 65.333 -36.833 129.166 -110.5 191.499s-144.167 94.833 -211.5 97.5l-184 248c73.333 -33.333 142.333 -50 207 -50c105.333 0 181.666 37.333 228.999 112
c-41.333 50.667 -108 76 -200 76c-46.667 0 -101.667 -6.33301 -165 -19l-118 -23c-102 162 -174 281.667 -216 359c-85.333 158 -148.333 306.333 -189 445c43.333 -65.333 128.666 -138.166 255.999 -218.499s241.666 -120.5 342.999 -120.5c10 0 20 0.333008 30 1
c92 -163.333 188.333 -245 289 -245c22.667 0 45.334 5 68.001 15c-14 82.667 -40.333 143.334 -79 182.001c-24 24 -56.5 41.5 -97.5 52.5s-63.5 21.5 -67.5 31.5c80 30.667 141.167 82.667 183.5 156s63.5 150.666 63.5 231.999s-19.167 147.333 -57.5 198
s-92.833 80 -163.5 88c-26.667 2.66699 -55.334 4 -86.001 4c-117.333 0 -176 -14 -176 -42c0 -2 0.333008 -4 1 -6c3.33301 -12.667 13.666 -19 30.999 -19s40.166 2.16699 68.499 6.5s49.166 6.83301 62.499 7.5h26c80.667 0 135.667 -14.333 165 -43
c48.667 -48 73 -107.667 73 -179c0 -10 -1 -23.667 -3 -41c-22 -176 -98.667 -283.667 -230 -323c56.667 41.333 85 99.5 85 174.5s-24.333 125.167 -73 150.5c-84.667 -42.667 -127 -102.667 -127 -180c0 -34.667 12 -93 36 -175c-160 20.667 -305.333 81.334 -436 182.001
c-89.333 69.333 -157.666 143 -204.999 221c5.33301 1.33301 12.833 2 22.5 2s28.167 -4.5 55.5 -13.5s44.666 -14.167 51.999 -15.5c22.667 -52 56.334 -78 101.001 -78s70 25.333 76 76c0.666992 5.33301 1 10.666 1 15.999c0 21.333 -6.33301 41 -19 59
c-16 22.667 -40.167 34 -72.5 34s-63.166 -22 -92.499 -66c-41.333 10 -88.666 22.333 -141.999 37c-49.333 206 -82.666 339.667 -99.999 401c43.333 -64.667 81.666 -108 114.999 -130s84.666 -33 153.999 -33c16.667 0 43 0.333008 79 1
c-8.66699 145.333 -118.667 226.666 -330 243.999l11 44h-86l-22 -44c-10 -2.66699 -22.667 -4 -38 -4s-42.333 5.16699 -81 15.5s-67.667 15.5 -87 15.5c-72 0 -135 -52.333 -189 -157c78.667 -16 153.667 -24 225 -24s123.333 17.333 156 52
c-1.33301 -7.33301 -9.33301 -28.666 -24 -63.999c-60 -36 -135.333 -70.833 -226 -104.5s-167.667 -56.834 -231 -69.501l-59 178c-43.333 94 -104 141 -182 141c-14 0 -28.667 -1.33301 -44 -4c-4.66699 -44 -7 -78 -7 -102c0 -52 15.333 -92 46 -120l162 -116
c-70 -2.66699 -141.667 -4 -215 -4s-142.333 3.33301 -207 10c-10 70 -39.167 135.333 -87.5 196s-105.5 101 -171.5 121c-10.667 -24 -16 -55.167 -16 -93.5s13.5 -82.333 40.5 -132s57.167 -88.834 90.5 -117.501c-92.667 -14.667 -150.667 -27.667 -174 -39
c-49.333 -22.667 -86.333 -67.667 -111 -135c31.333 -29.333 71.333 -44 120 -44s101.667 19.333 159 58s105.333 81 144 127h359c-104 -41.333 -171.667 -128 -203 -260c21.333 -24 45 -36 71 -36c53.333 0 113.666 44.667 180.999 134
c47.333 63.333 84 125.666 110 186.999c118 24.667 261.667 77.667 431 159c-51.333 -96 -127.333 -241.333 -228 -436c-64.667 20.667 -122.667 31 -174 31c-87.333 0 -159.666 -30.667 -216.999 -92c46.667 -57.333 99.5 -86 158.5 -86s122.167 16.667 189.5 50
c-15.333 -27.333 -40.666 -73.666 -75.999 -138.999c-120 -222 -244.333 -335.667 -373 -341c-8.66699 -0.666992 -17 -0.666992 -25 0c-114 0 -182 36.667 -204 110c-10 34.667 -15 68.5 -15 101.5s9.16699 65 27.5 96s45.5 46.5 81.5 46.5h28.5
c10.333 0 24.5 -13 42.5 -39c1.33301 -5.33301 2 -10.666 2 -15.999l-15 -65c0 -9.33301 5.83301 -15.166 17.5 -17.499s20.834 5.16699 27.501 22.5s10 32.333 10 45c0 50 -27.667 90 -83 120c-38 20.667 -67.667 35 -89 43c-16.667 6 -40.667 9 -72 9
c-8 0 -16.667 -0.333008 -26 -1c-24.667 36.667 -57.334 55 -98.001 55c-22.667 0 -42.334 -5.66699 -59.001 -17c-49.333 -33.333 -74 -87.333 -74 -162c0 -137.333 86 -244.666 258 -321.999c74.667 -33.333 149.834 -50 225.501 -50s139.167 20.667 190.5 62l1 -15
c-68.667 -77.333 -157 -173.666 -265 -288.999c-37.333 4 -73 22.667 -107 56c-56.667 56 -88.667 86.667 -96 92c-46 31.333 -103.667 47 -173 47c-1.33301 -6 -2 -14.333 -2 -25s5.5 -30.167 16.5 -58.5s16.5 -49.333 16.5 -63s-3.33301 -26.167 -10 -37.5
c-53.333 0 -109.333 -15.667 -168 -47c12 -28.667 42.5 -55.834 91.5 -81.501s79.167 -46.834 90.5 -63.501c-49.333 -41.333 -99.333 -121.333 -150 -240c5.33301 -0.666992 11 -1 17 -1c66 0 156.667 31 272 93c1.33301 -13.333 2 -30.666 2 -51.999v-49
c0 -75.333 8.33301 -131.333 25 -168c24.667 8 50.667 37.333 78 88s50.666 76 69.999 76c14 -3.33301 32.833 -19.5 56.5 -48.5s45.834 -46.167 66.501 -51.5c14.667 44 22 84.167 22 120.5s-1.33301 65.5 -4 87.5c20.667 5.33301 56.5 9.16602 107.5 11.499
s87.833 10.5 110.5 24.5c-24 72.667 -62.333 126 -115 160c-26.667 18 -64.167 33.667 -112.5 47s-72.5 29 -72.5 47c193.333 194 358.666 398.667 495.999 614c10 -94 47.667 -276 113 -546c-55.333 -32 -102.5 -77.167 -141.5 -135.5s-58.5 -114.5 -58.5 -168.5
s14 -100.667 42 -140c114 44.667 178 168.667 192 372c38.667 -110.667 101.667 -260.334 189 -449.001c-23.333 11.333 -54.666 17 -93.999 17s-82.666 -11.333 -129.999 -34c4 -24.667 25.167 -50 63.5 -76s62.166 -45.333 71.499 -58
c-50.667 -23.333 -95 -74.666 -133 -153.999c14 -20.667 32.5 -31 55.5 -31s48.5 3.66699 76.5 11l60 15c-6.66699 -50.667 -16.334 -121 -29.001 -211h7c28 0 56.667 11.667 86 35c8.66699 7.33301 36.667 31.333 84 72c19.333 -8 43.833 -31 73.5 -69
s52.5 -61.333 68.5 -70c16.667 10.667 29.334 52.5 38.001 125.5s13.667 112.167 15 117.5c9.33301 2.66699 20 4 32 4z" />
    <glyph glyph-name="Oslash" unicode="&#xd8;" horiz-adv-x="386" 
d="M426 1198v-160h-450v160h450z" />
    <glyph glyph-name="Uacute" unicode="&#xda;" horiz-adv-x="910" 
d="M520 386c-24 24 -52.666 36.001 -85.999 36.001c-0.666992 0 -1.33398 0.333008 -2.00098 1c-33.333 0 -61.333 -12.333 -84 -37c-24.667 -25.333 -37 -55 -37 -89c0 -31.333 12 -59 36 -83c24 -23.333 51.333 -35.333 82 -36h4c32.667 1.33301 61 14 85 38
c25.333 24.667 38 54 38 88c-0.666992 31.333 -12.667 58.666 -36 81.999zM435.001 530.001c62.667 0 116.332 -23.001 160.999 -69.001c45.333 -46.667 68 -101 68 -163c0 -61.333 -22.667 -114.666 -68 -159.999s-99.333 -68 -162 -68h-3c-62 0 -115 22.667 -159 68
c-45.333 45.333 -68 99.333 -68 162s22.833 116.667 68.5 162s99.834 68 162.501 68zM513.999 1016c-24 24 -52.666 36.001 -85.999 36.001c-0.666992 0 -1.33398 0.333008 -2.00098 1c-33.333 0 -61.333 -12.333 -84 -37c-24.667 -25.333 -37 -55 -37 -89
c0 -31.333 12 -59 36 -83c24 -23.333 51.333 -35.333 82 -36h4c32.667 1.33301 61 14 85 38c25.333 24.667 38 54 38 88c-0.666992 31.333 -12.667 58.666 -36 81.999zM429 1160c62.667 0 116.332 -23.001 160.999 -69.001c45.333 -46.667 68 -101 68 -163
c0 -61.333 -22.667 -114.666 -68 -159.999s-99.333 -68 -162 -68h-3c-62 0 -115 22.667 -159 68c-45.333 45.333 -68 99.333 -68 162s22.833 116.667 68.5 162s99.834 68 162.501 68z" />
    <glyph glyph-name="aring" unicode="&#xe5;" horiz-adv-x="1398" 
d="M291 1520c15.333 -16 38.001 -32.666 68.001 -49.999c27.333 -15.333 49.333 -23 66 -23c1.33301 0.666992 3 1 5 1c17.333 1.33301 84.333 39.5 201 114.5s217.667 140.167 303 195.5c105.333 63.333 228 95 368 95s266 -32.333 378 -97s189.667 -152.334 233 -263.001
c10 -25.333 15 -48 15 -68c0 -43.333 -19.667 -65 -59 -65c-29.333 0 -55.666 23.333 -78.999 70c-93.333 188 -248 282 -464 282h-5c-74 -0.666992 -131.667 -6.66699 -173 -18c-92.667 -25.333 -200.667 -82.166 -324 -170.499s-209 -147 -257 -176
s-95.833 -43.5 -143.5 -43.5s-92.334 13.333 -134.001 40s-90.834 65.5 -147.501 116.5s-98.667 84.833 -126 101.5c-67.333 41.333 -149.333 62 -246 62h-26l38 136c10 0.666992 19.667 1 29 1c93.333 0 173.333 -17.667 240 -53
c73.333 -38.667 153.333 -101.334 240 -188.001z" />
    <glyph glyph-name="ae" unicode="&#xe6;" 
d="M-509 -149c-26 26 -56.667 39 -92 39s-65.666 -13 -90.999 -39s-38 -56.667 -38 -92s12.667 -65.666 38 -90.999s55.666 -38 90.999 -38s66 12.667 92 38s39 55.666 39 90.999s-13 66 -39 92z" />
    <glyph glyph-name="ccedilla" unicode="&#xe7;" 
d="M-328 -506c0 -76 -37.999 -113.998 -113.999 -113.998c-50 0 -84 10.667 -102 32c-13.333 11.333 -26.333 41.166 -39 89.499s-20.334 81.166 -23.001 98.499h278v-106zM-195.999 -509.998l0.000976562 456.001h-128v-226h-292v64c0 33.333 -20.667 50 -62 50
c-58.667 0 -104 -21.333 -136 -64c-25.333 -30.667 -38 -66 -38 -106s12.667 -60 38 -60h86c9.33301 -34.667 18.333 -70 27 -106s17.667 -71.333 27 -106c33.333 -82.667 102 -127.334 206 -134.001c9.33301 -0.666992 18.666 -1 27.999 -1c89.333 0 155.333 29.667 198 89
c30.667 42.667 46 90.667 46 144z" />
    <glyph glyph-name="udieresis" unicode="&#xfc;" horiz-adv-x="62" 
d="M-114 -542c-116 -45.333 -228.332 -68.001 -336.999 -68.001s-224.334 22.667 -347.001 68v-80c128 -45.333 239.667 -68 335 -68h15c98.667 2.66699 210 25.334 334 68.001v80z" />
    <glyph glyph-name="ydieresis" unicode="&#xff;" horiz-adv-x="1700" 
d="M180 194c-39.333 0 -58.999 41.499 -58.999 124.499s18.333 133.5 55 151.5c6 2.66699 12 4 18 4c22.667 0 44.667 -16.667 66 -50s32 -60.666 32 -81.999c-8.66699 -24 -35.334 -72 -80.001 -144c-13.333 -2.66699 -24 -4 -32 -4zM1090 407.999v-162.001
c-30 -46.667 -58.5 -70 -85.5 -70s-53.833 22 -80.5 66c-7.33301 12.667 -11 21.334 -11 26.001s2.5 12 7.5 22s9.16699 24.5 12.5 43.5s9 43.833 17 74.5h140zM1090 515.998h-134v15c0 36 -4 93 -12 171h146v-186zM470.001 701.998v107.999h-426v-108h310
c0 -64 -12.667 -144.667 -38 -242c-5.33301 16 -14 36.667 -26 62c-29.333 44 -59.666 66 -90.999 66c-54.667 0 -95.334 -32.667 -122.001 -98c-19.333 -48 -29 -106.167 -29 -174.5s12 -124.666 36 -168.999s49.333 -66.5 76 -66.5c42.667 0 70.5 5.5 83.5 16.5
s37.167 51.5 72.5 121.5c17.333 -29.333 27.666 -71.333 30.999 -126s7.66602 -82.5 12.999 -83.5s18.333 -1.33301 39 -1s32.334 1.16602 35.001 2.49902c0 72 -17.333 171 -52 297c-7.33301 24.667 -10.666 39.667 -9.99902 45c30.667 100.667 50.667 217.334 60 350.001
h38zM936.001 885.997c0 174 -39.667 261.003 -119 261.003c-37.333 0 -66.333 -19.833 -87 -59.5s-31 -80.834 -31 -123.501v-154h-55v-108h55l1 -692h74v692c29.333 0.666992 51.333 1 66 1s22.667 -0.333008 24 -1c14 -24.667 21 -67.334 21 -128.001
c0 -19.333 -0.666992 -40.666 -2 -63.999c-6 -95.333 -16.5 -163 -31.5 -203s-22.5 -61.333 -22.5 -64c0 -19.333 13 -46.333 39 -81c38.667 -51.333 79.334 -77 122.001 -77c24 0 45.5 7.33301 64.5 22s30.833 29 35.5 43v-140h78v692h340v-236h-142v58
c0 38 -8.33301 57 -25 57c-16.667 -0.666992 -35 -13 -55 -37c-30.667 -37.333 -45.667 -77.333 -45 -120v-5c1.33301 -44.667 7.66602 -67 18.999 -67h50c0 -78.667 5.16699 -141.834 15.5 -189.501s33.5 -86 69.5 -115s66.833 -43.5 92.5 -43.5s55.167 25.333 88.5 76
c14 21.333 21 40.666 21 57.999c0.666992 19.333 -0.333008 29 -3 29c-1.33301 0 -13.5 -12.833 -36.5 -38.5s-41.167 -38.5 -54.5 -38.5s-26.333 2 -39 6c-48 16 -72 101.333 -72 256h200v350h52v108h-870v120c0 64 15 95.667 45 95h5c28.667 -4.66699 43 -39.667 43 -105
c0 -10.667 -0.333008 -22 -1 -34h70zM1152 872c34 9.33301 51 58.667 51 148s-30.333 134 -91 134c-25.333 0 -46 -12 -62 -36c-20 -30 -30 -65.167 -30 -105.5s6.33301 -73 19 -98s25 -39.167 37 -42.5c2 18.667 0.5 35 -4.5 49s-7.5 43.667 -7.5 89s16 68 48 68
c22.667 0 38 -24 46 -72c2 -10.667 3 -21.334 3 -32.001l-11 -86c0 -5.33301 0.666992 -10.666 2 -15.999zM1682 -61.999h-1678v1258h1678v-1258z" />
    <glyph glyph-name="OE" unicode="&#x152;" horiz-adv-x="2656" 
d="M550 350l89.998 8.00195c35.333 -12.667 54 -19.334 56 -20.001c20.667 -10.667 32.334 -25.334 35.001 -44.001c-55.333 -23.333 -86.333 -35 -93 -35s-16.167 0.333008 -28.5 1s-25.666 8.33398 -39.999 23.001s-21.5 28.167 -21.5 40.5s0.666992 21.166 2 26.499z
M549.998 247.002c62 -26 103.668 -66.333 125.001 -121c-5.33301 -12 -17.833 -16.5 -37.5 -13.5s-25.834 4.5 -18.501 4.5c-20 6 -41.833 18.5 -65.5 37.5s-35.5 36.833 -35.5 53.5s10.667 29.667 32 39zM540.999 563.002l0.000976562 -94
c-0.666992 -38 -13.334 -64 -38.001 -78c-23.333 6.66699 -35 22.5 -35 47.5s6.5 54.167 19.5 87.5s26.833 50 41.5 50c6 0 10 -4.33301 12 -13zM465 197.002c50 -30.667 75.001 -81.667 75.001 -153c0 -9.33301 -0.333008 -18.333 -1 -27
c-18.667 0 -39.834 17.333 -63.501 52s-35.5 62.667 -35.5 84s8.33301 36 25 44zM430.001 232.002c-45.333 0 -69.999 25.333 -73.999 76c2 40.667 27 61 75 61c7.33301 0 14.666 -0.666992 21.999 -2c23.333 -10 40 -35.333 50 -76c-16.667 -39.333 -41 -59 -73 -59z
M344.002 197.002c11.333 8 21.333 12 30 12c17.333 0 26 -18 26 -54c0 -52 -25 -93.333 -75 -124c-14 26 -21 55.5 -21 88.5s13.333 58.833 40 77.5zM302.002 571.002c28.667 0.666992 55 -15.666 79 -48.999c20.667 -28 31 -55 31 -81c0 -4 -0.333008 -8 -1 -12
c-2 -15.333 -20.333 -23 -55 -23c-36 33.333 -54 82.666 -54 147.999v17zM152.002 426.002l79.001 3.00098c20 -7.33301 39.667 -15 59 -23c23.333 -12 35 -28.333 35 -49c0 -6.66699 -0.666992 -13 -2 -19c-7.33301 -10.667 -21.333 -15.834 -42 -15.501
s-37.334 0.5 -50.001 0.5c-52.667 20.667 -79 55 -79 103zM112.003 194.003c13.333 17.333 37.1689 36.833 71.502 58.5s64.166 32.5 89.499 32.5s42.666 -11.333 51.999 -34c3.33301 -47.333 -43.334 -71 -140.001 -71c-33.333 0 -57.666 4.66699 -72.999 14z
M725.006 -434.997c-65.333 -48 -105.335 -78.333 -120.002 -91c-43.333 -37.333 -68.666 -73 -75.999 -107c54 27.333 127 79.333 219 156c-20 -54.667 -51.667 -106.167 -95 -154.5s-86.666 -72.5 -129.999 -72.5c-20 0 -38.667 5.66699 -56 17c-6 14.667 -9 29.667 -9 45
c0 57.333 30 107.333 90 150c54.667 38.667 108 58 160 58c6 0 11.667 -0.333008 17 -1zM1746 1651c47.333 -19.333 71 -46.333 71 -81c0 -10 -3 -20 -9 -30c-18 4 -47.667 15.833 -89 35.5s-75.666 29.5 -102.999 29.5c-48.667 0 -106 -24 -172 -72
c64 89.333 139.333 134 226 134c25.333 0 50.666 -5.33301 75.999 -16zM1400 1434c64 82.667 131.332 124 201.999 124c40.667 0 77.334 -14.5 110.001 -43.5s49 -63.833 49 -104.5c0 -9.33301 -1 -18.333 -3 -27c-56.667 64 -121.667 96 -195 96
c-50 0 -104.333 -15 -163 -45zM1134 1557l-72 -62c0 28 13.333 59.333 40 94s53.334 52 80.001 52c11.333 0 21 -3.33301 29 -10c-40.667 -116 -93.334 -186 -158.001 -210c-1.33301 15.333 11.667 38.333 39 69s41.333 53 42 67zM1007 1508l9 92.001c0 22 -6 41.333 -18 58
c-9.33301 -13.333 -14 -32.333 -14 -57v-14c0.666992 -8.66699 1 -16.667 1 -24c0 -19.333 -2 -33.333 -6 -42c-26 20.667 -39 49.5 -39 86.5s6.83301 71.833 20.5 104.5s32.5 50 56.5 52c18 -46.667 27 -95.834 27 -147.501s-11.667 -97.167 -35 -136.5
c-1.33301 8.66699 -2 18 -2 28zM915.003 1259c-5.33301 -14 -20.333 -39.168 -45 -75.501s-37 -61.333 -37 -75s0.333008 -23.5 1 -29.5c14 8 32.5 34.833 55.5 80.5s41.833 70.834 56.5 75.501c0 -96 -50.667 -169.667 -152 -221c-6 17.333 -9 41.833 -9 73.5
s9.83301 68.5 29.5 110.5s47.5 63 83.5 63c5.33301 0 11 -0.666992 17 -2zM681.003 1738c75.333 -35.333 141.002 -81.3311 197.002 -137.998s84 -120 84 -190c-4 0 -25.833 27.667 -65.5 83s-72.167 87.666 -97.5 96.999c9.33301 -22.667 28.166 -52.334 56.499 -89.001
s47.166 -64 56.499 -82c-115.333 60.667 -192.333 167 -231 319zM896.005 1318c-69.333 -66 -144.334 -99 -225.001 -99c-25.333 0 -49.666 3.66699 -72.999 11c25.333 61.333 87 92 185 92c12.667 0 31.5 -0.666992 56.5 -2s43.833 -2 56.5 -2zM548.004 1462
l167.999 -2.99902c90.667 -7.33301 142.334 -27.333 155.001 -60c-74 18.667 -120 28 -138 28s-27 -1.33301 -27 -4c0 -8.66699 48.333 -32.334 145 -71.001c-8.66699 -0.666992 -17.667 -1 -27 -1c-42.667 0 -94 7.33301 -154 22c-73.333 18 -114 47.667 -122 89z
M268.003 96.0059l-7.00098 -77.999c0 -24 8.66699 -43.333 26 -58h3c30.667 0 54 9.33301 70 28c16.667 19.333 37.667 44.666 63 75.999c8.66699 -6 28.667 -29 60 -69s61.333 -60 90 -60c5.33301 0 10.666 0.666992 15.999 2c2 7.33301 3 17.333 3 30
c0 10 -0.666992 21.667 -2 35c-2.66699 29.333 -4 48.833 -4 58.5s2 18.834 6 27.501c54 -24 97.667 -36 131 -36c2 8.66699 3 20.334 3 35.001s-11.5 39.5 -34.5 74.5s-36.5 57.167 -40.5 66.5c38 11.333 95.333 32.333 172 63c-37.333 44 -112.333 80.333 -225 109
c52 31.333 133.5 69 244.5 113s177.833 71.333 200.5 82c-6 -26.667 -25.167 -70.334 -57.5 -131.001s-48.5 -110.667 -48.5 -150s23.333 -80.666 70 -123.999c84.667 43.333 127 125 127 245c0 32.667 -2.83301 71 -8.5 115s-8.5 68 -8.5 72
c71.333 19.333 269.333 60 594 122c22 -8.66699 49.333 -21 82 -37h-6c-62 0.666992 -114.333 -9.66602 -157 -30.999c-44 -21.333 -103.333 -59.333 -178 -114c20.667 -32.667 56 -49 106 -49s107.833 14.667 173.5 44s118.834 59 159.501 89
c140.667 -79.333 245.334 -136.333 314.001 -171s145 -67.334 229 -98.001c-36.667 -5.33301 -92.667 -18.5 -168 -39.5s-130.333 -33.833 -165 -38.5c-24 10.667 -47.667 21 -71 31c-29.333 16.667 -44 37.667 -44 63c0 6.66699 0.666992 14 2 22c-14 48.667 -43 73 -87 73
c-24 0 -45.333 -9.83301 -64 -29.5s-28 -41.834 -28 -66.501c0 -52 29 -78 87 -78l62 2c41.333 0 70.333 -14 87 -42c-268 -48.667 -577 -196.334 -927 -443.001c-48.667 19.333 -95.834 37.833 -141.501 55.5s-90.5 26.5 -134.5 26.5
c-87.333 0 -169.666 -40.333 -246.999 -121c68 -42.667 140.333 -64 217 -64s140 10.333 190 31c-24 -15.333 -66 -46.333 -126 -93c-58.667 -46 -93 -68.667 -103 -68h-1c-22.667 8 -46.334 12 -71.001 12c-67.333 0 -133.666 -26 -198.999 -78s-98 -111 -98 -177
c0 -32 9.66699 -59.333 29 -82s45 -34 77 -34c65.333 0 129.166 36.833 191.499 110.5s94.833 144.167 97.5 211.5l248 184c-33.333 -72.667 -50 -141.667 -50 -207c0 -105.333 37.333 -181.666 112 -228.999c50 41.333 75 108 75 200c0 46.667 -6 101.667 -18 165l-23 118
c162 102 281.667 174 359 216c158 85.333 306.333 148.333 445 189c-65.333 -43.333 -138.166 -128.666 -218.499 -255.999s-120.5 -241.666 -120.5 -342.999c0 -10 0.333008 -20 1 -30c-163.333 -92 -245 -188 -245 -288c0 -23.333 5 -46.333 15 -69
c82.667 14 143.334 40.333 182.001 79c24 24 41.5 56.5 52.5 97.5s21.5 63.5 31.5 67.5c30.667 -80 82.667 -141 156 -183s150.666 -63 231.999 -63s147.333 19 198 57s80 92.333 88 163c2.66699 26.667 4 55.334 4 86.001c0 117.333 -14 176 -42 176
c-2 0 -4 -0.333008 -6 -1c-12.667 -3.33301 -19 -13.666 -19 -30.999s2.16699 -40.166 6.5 -68.499s6.83301 -48.833 7.5 -61.5v-22c0 -84 -14.333 -140.667 -43 -170c-48 -48.667 -107.667 -73 -179 -73c-10 0 -23.667 1.33301 -41 4
c-176 21.333 -283.667 97.666 -323 228.999c41.333 -56.667 99.5 -85 174.5 -85s125.167 24.333 150.5 73c-43.333 85.333 -103.333 128 -180 128c-34.667 0 -93 -12 -175 -36c20.667 159.333 81.334 304.333 182.001 435c69.333 89.333 143 158 221 206
c1.33301 -6 2 -13.833 2 -23.5s-4.5 -28.167 -13.5 -55.5s-14.167 -44.333 -15.5 -51c-52 -23.333 -78 -57.333 -78 -102s25 -70 75 -76c5.33301 -0.666992 10.666 -1 15.999 -1c21.333 0 41.333 6.33301 60 19c22.667 16 34 40.167 34 72.5s-22 63.166 -66 92.499
c10 41.333 22.333 88.666 37 141.999c206 49.333 339.667 82.666 401 99.999c-64.667 -43.333 -108 -81.5 -130 -114.5s-33 -84.5 -33 -154.5c0 -16.667 0.333008 -43 1 -79c145.333 8.66699 226.666 118.667 243.999 330l44 -11v86l-44 22c-2.66699 10 -4 22.667 -4 38
s5.16699 42.333 15.5 81s15.5 67.667 15.5 87c0 72.667 -52.333 135.667 -157 189c-16 -78.667 -24 -153.667 -24 -225s17.333 -123.333 52 -156c-7.33301 1.33301 -28.666 9.33301 -63.999 24c-36 60 -70.833 135.333 -104.5 226s-56.834 167.667 -69.501 231l178 59
c94 43.333 141 104 141 182c0 14 -1.33301 28.667 -4 44c-44 4.66699 -78 7 -102 7c-52 0 -92 -15 -120 -45l-116 -163c-2.66699 70 -4 141.667 -4 215s3.33301 142.333 10 207c70 10 135.333 39.167 196 87.5s101 105.5 121 171.5c-24.667 11.333 -56 17 -94 17
s-81.333 -13.333 -130 -40s-88.334 -57 -119.001 -91c-14.667 92 -27.667 149.667 -39 173c-22.667 49.333 -67.667 86.666 -135 111.999c-29.333 -31.333 -44 -71.333 -44 -120s19.333 -101.834 58 -159.501s81 -105.834 127 -144.501v-359
c-41.333 104 -128 171.667 -260 203c-24 -21.333 -36 -45 -36 -71c0 -53.333 44.667 -113.333 134 -180c63.333 -47.333 125.666 -84.333 186.999 -111c24.667 -118 77.667 -261.667 159 -431c-96 52 -241.333 128 -436 228c20.667 64.667 31 122.667 31 174
c0 87.333 -30.667 159.666 -92 216.999c-57.333 -46.667 -86 -99.5 -86 -158.5s16.333 -122.167 49 -189.5c-26.667 15.333 -72.667 40.666 -138 75.999c-222 120 -335.667 244.333 -341 373c-0.666992 8.66699 -0.666992 17 0 25c0 114 36.667 182 110 204
c34.667 10 68.5 15 101.5 15s65 -9.16699 96 -27.5s46.5 -45.5 46.5 -81.5v-26c0 -12 -13 -27 -39 -45c-5.33301 -1.33301 -10.666 -2 -15.999 -2l-65 15c-9.33301 0 -15.166 -5.83301 -17.499 -17.5s5.16699 -20.667 22.5 -27s32.333 -9.5 45 -9.5c50 0 90 27.333 120 82
c20 38 34 67.667 42 89c6 16.667 9.33301 40.667 10 72c0 8 -0.333008 16.667 -1 26c36.667 24.667 55 57.334 55 98.001c0 22.667 -5.66699 42.334 -17 59.001c-33.333 49.333 -87.333 74 -162 74c-137.333 0 -244.666 -86 -321.999 -258
c-33.333 -74.667 -50 -149.834 -50 -225.501s20.667 -139.167 62 -190.5l-15 -1c-77.333 69.333 -173.666 157.666 -288.999 264.999c4 38 22.667 73.667 56 107c56 56.667 86.667 88.667 92 96c31.333 46 47 103.667 47 173c-6 1.33301 -14.333 2 -25 2
s-30.167 -5.5 -58.5 -16.5s-49.333 -16.5 -63 -16.5s-26.167 3.33301 -37.5 10c0 53.333 -15.667 109.333 -47 168c-28.667 -11.333 -55.834 -41.666 -81.501 -90.999s-46.834 -79.666 -63.501 -90.999c-41.333 49.333 -121.333 99.666 -240 150.999
c-0.666992 -5.33301 -1 -11 -1 -17c0 -66.667 31 -157.667 93 -273c-13.333 -1.33301 -30.666 -2 -51.999 -2h-49c-76 0 -132 -8.33301 -168 -25c8 -24.667 37.333 -50.667 88 -78s76 -50.666 76 -69.999c-3.33301 -14 -19.5 -32.833 -48.5 -56.5
s-46.167 -45.834 -51.5 -66.501c44 -14.667 84.167 -22 120.5 -22s65.5 1.66699 87.5 5c5.33301 -20.667 9.16602 -56.667 11.499 -108s10.5 -88.333 24.5 -111c72.667 24 126 62.333 160 115c18 26.667 33.667 64.167 47 112.5s29 72.5 47 72.5
c194 -193.333 398.667 -358.666 614 -495.999c-94 -10 -276 -47.667 -546 -113c-32 55.333 -77.167 102.5 -135.5 141.5s-114.666 58.5 -168.999 58.5s-100.833 -14 -139.5 -42c44.667 -114 168.667 -178 372 -192c-110.667 -38.667 -260.334 -101.667 -449.001 -189
c10.667 23.333 16 54.666 16 93.999s-11 82.666 -33 129.999c-24.667 -4 -50 -25.167 -76 -63.5s-45.333 -62.166 -58 -71.499c-23.333 50.667 -74.666 95 -153.999 133c-20.667 -14 -31 -32.5 -31 -55.5s3.66699 -48.5 11 -76.5l15 -60
c-50.667 6.66699 -121 16.334 -211 29.001v-6c0 -27.333 11.667 -56 35 -86c7.33301 -9.33301 31.333 -37.666 72 -84.999c-8 -18.667 -31 -43 -69 -73s-61.667 -52.667 -71 -68c11.333 -17.333 53.5 -30.333 126.5 -39s112.167 -13.667 117.5 -15
c2.66699 -9.33301 4 -20 4 -32z" />
    <glyph glyph-name="oe" unicode="&#x153;" 
d="M-674 -392l157.999 22c33.333 0 71 -14 113 -42s63.667 -56 65 -84c1.33301 -5.33301 2 -13.333 2 -24c0 -61.333 -46.667 -92 -140 -92c-68 0 -146 31.333 -234 94c-33.333 17.333 -56.666 26 -69.999 26s-20 -4.66699 -20 -14c0 -26.667 34.667 -69.667 104 -129
s129.333 -89 180 -89c209.333 0 314 73 314 219c0 72 -45.333 137.667 -136 197c40 34.667 70.667 72 92 112s37.333 88 48 144h-136c-18.667 -72 -39.334 -121.667 -62.001 -149s-51 -41 -85 -41s-63 2 -87 6l-60 10c-17.333 1.33301 -30 2 -38 2
c-69.333 0 -104.666 -26.667 -105.999 -80v-7c0 -54 32.667 -81 98 -81z" />
    <glyph glyph-name="florin" unicode="&#x192;" horiz-adv-x="1218" 
d="M688 1038l-0.000976562 -202.002c103.333 -20 193.833 -70.167 271.5 -150.5s116.5 -171.166 116.5 -272.499c0 -215.333 -98.333 -353 -295 -413v160c50.667 26.667 84.334 52.334 101.001 77.001c23.333 36.667 35 93.334 35 170.001s-32.333 140.5 -97 191.5
s-136.167 76.5 -214.5 76.5s-149.833 -25.5 -214.5 -76.5s-97 -115 -97 -192s10 -130.667 30 -161s55.333 -58.833 106 -85.5v-160c-196.667 60 -295 197.667 -295 413c0 101.333 38.833 192.166 116.5 272.499s168.167 130.5 271.5 150.5v202h-529v160h1236v-160h-542z
M607.999 1740c85.333 0 152.669 -26.002 202.002 -78.002c36 -38 54 -84.333 54 -139c0 -60.667 -21.333 -113 -64 -157c-30 -32 -52.667 -48 -68 -48s-23 4.33301 -23 13c0 4 1 8.33301 3 13c34.667 62.667 52 111.334 52 146.001c0 86.667 -52 130 -156 130
c-48.667 0 -86.834 -12.167 -114.501 -36.5s-41.5 -54.666 -41.5 -90.999s17.333 -85.833 52 -148.5c2 -4.66699 3 -9 3 -13c0 -8.66699 -7.66699 -13 -23 -13s-39.333 17.333 -72 52c-40 42 -60 91.667 -60 149s18 105 54 143c49.333 52 116.666 78 201.999 78z
M260.002 -374.004c124 -42.667 239.5 -63.999 346.5 -63.999s219.5 21.333 337.5 64v-148c-54.667 -12.667 -168 -27.334 -340 -44.001h-24c-95.333 0 -202 14.667 -320 44v148zM260.002 -74.0029c124 -45.333 239.501 -68 346.501 -68s219.5 22.667 337.5 68v-148
c-116 -43.333 -227 -66 -333 -68h-13c-102.667 0 -215.334 22.667 -338.001 68v148z" />
    <glyph glyph-name="circumflex" unicode="&#x2c6;" 
d="M-139 1566c-26 25.333 -56.667 38 -92 38s-65.666 -12.667 -90.999 -38s-38 -55.666 -38 -90.999s12.667 -66 38 -92s55.666 -39 90.999 -39s66 13 92 39s39 56.667 39 92s-13 65.666 -39 90.999z" />
    <glyph glyph-name="tilde" unicode="&#x2dc;" 
d="M-384 -54l-142 0.000976562v-144c-68 -10.667 -125 -43 -171 -97c-44.667 -52.667 -67 -106.667 -67 -162c0 -146.667 74.667 -244.334 224 -293.001v132c-60 21.333 -90 74 -90 158c0 42.667 17.333 76.667 52 102s80 38 136 38s97.667 -17.333 125 -52s41 -64 41 -88
c0 -81.333 -32 -134 -96 -158v-132c148 49.333 222 147 222 293c0 54.667 -22 108 -66 160c-45.333 54 -101.333 87 -168 99v144z" />
    <glyph glyph-name="endash" unicode="&#x2013;" horiz-adv-x="1040" 
d="M924 534h-812v134h812v-134z" />
    <glyph glyph-name="emdash" unicode="&#x2014;" horiz-adv-x="1800" 
d="M100 670h1600v-138h-1600v138z" />
    <glyph glyph-name="quoteleft" unicode="&#x2018;" horiz-adv-x="846" 
d="M462 1526c-55.333 -34.667 -98.667 -76.5 -130 -125.5s-47 -85 -47 -108s3.66699 -36.5 11 -40.5c-2.66699 -4 15.333 -7.33301 54 -10c98 -8 149.333 -41.333 154 -100c0.666992 -4.66699 1 -9.33398 1 -14.001c0 -38.667 -13 -68 -39 -88
c-28.667 -22.667 -62.5 -34 -101.5 -34s-75.167 13.333 -108.5 40c-49.333 39.333 -74 98 -74 176s31.667 151.833 95 221.5s118.333 111.834 165 126.501z" />
    <glyph glyph-name="quoteright" unicode="&#x2019;" horiz-adv-x="806" 
d="M388 1048c56 36 99.667 78.498 131 127.498s47 84.833 47 107.5s-3.33301 35.667 -10 39c2.66699 4 -15.333 7.66699 -54 11c-99.333 8.66699 -151.333 42.334 -156 101.001c-0.666992 4.66699 -1 9.33398 -1 14.001c-0.666992 38.667 12.333 67.667 39 87
c29.333 22 63.5 33 102.5 33s75.5 -13 109.5 -39c49.333 -38.667 74 -97.167 74 -175.5s-31.5 -152 -94.5 -221s-118.167 -111.833 -165.5 -128.5z" />
    <glyph glyph-name="quotesinglbase" unicode="&#x201a;" horiz-adv-x="2656" 
d="M1322 1028c100 214 150 379.667 150 497s-46.5 176 -139.5 176s-139.5 -61.333 -139.5 -184s43 -285.667 129 -489zM1322 12c100 -214 150 -379.501 150 -496.501s-46.5 -175.5 -139.5 -175.5s-139.5 61.333 -139.5 184s43 285.334 129 488.001zM1836 526.999
c214 -100.667 379.501 -151 496.501 -151s175.5 46.5 175.5 139.5s-61.333 139.5 -184 139.5s-285.334 -42.667 -488.001 -128zM820.001 526.999c-214 -100.667 -379.501 -151 -496.501 -151s-175.5 46.5 -175.5 139.5s61.333 139.5 184 139.5s285.334 -42.667 488.001 -128
zM293 34.999l256 -48c-230.667 -120.667 -391.334 -375.334 -482.001 -764.001c86.667 39.333 177.334 80.833 272.001 124.5s179.167 92.167 253.5 145.5s135.166 117.666 182.499 192.999c26 -38 41 -108 45 -210c129.333 21.333 229 88.333 299 201
c48.667 80.667 92.834 216.5 132.501 407.5s65.167 303.833 76.5 338.5c11.333 -34.667 36.833 -147.5 76.5 -338.5s83.834 -326.833 132.501 -407.5c70 -112.667 169.667 -179.667 299 -201c4.66699 102 19.667 172 45 210
c47.333 -75.333 108.166 -139.666 182.499 -192.999s158.833 -101.833 253.5 -145.5s185.334 -85.167 272.001 -124.5c-90.667 388.667 -251.334 643.334 -482.001 764.001l256 48c-42.667 133.333 -122 233 -238 299c-80.667 46 -209.667 85.167 -387 117.5
s-289.333 56.166 -336 71.499c45.333 15.333 156.833 39.5 334.5 72.5s307.167 72.833 388.5 119.5c116 66.667 195.333 166.667 238 300l-256 48c230.667 120.667 391.334 375.334 482.001 764.001c-86.667 -39.333 -177.334 -80.833 -272.001 -124.5
s-179.167 -92.167 -253.5 -145.5s-135.166 -117.666 -182.499 -192.999c-26 38 -41 108 -45 210c-129.333 -21.333 -229 -88.333 -299 -201c-48.667 -80.667 -92.834 -216.5 -132.501 -407.5s-65.167 -303.833 -76.5 -338.5c-11.333 34.667 -36.833 147.5 -76.5 338.5
s-83.834 326.833 -132.501 407.5c-70 112.667 -169.667 179.667 -299 201c-4.66699 -102 -19.667 -172 -45 -210c-47.333 75.333 -108.166 139.666 -182.499 192.999s-158.833 101.833 -253.5 145.5s-185.334 85.167 -272.001 124.5
c90.667 -388.667 251.334 -643.334 482.001 -764.001l-256 -48c42.667 -133.333 122 -233 238 -299c80.667 -46 209.667 -85.167 387 -117.5s289.333 -56.166 336 -71.499c-45.333 -15.333 -156.833 -39.5 -334.5 -72.5s-307.167 -72.833 -388.5 -119.5
c-116 -66.667 -195.333 -166.667 -238 -300z" />
    <glyph glyph-name="quotedblleft" unicode="&#x201c;" horiz-adv-x="1250" 
d="M902 1526c-55.333 -34.667 -98.667 -76.5 -130 -125.5s-47 -85 -47 -108s3.66699 -36.5 11 -40.5c-2.66699 -4 15.333 -7.33301 54 -10c98 -8 149.333 -41.333 154 -100c0.666992 -4.66699 1 -9.33398 1 -14.001c0 -38.667 -13 -68 -39 -88
c-28.667 -22.667 -62.5 -34 -101.5 -34s-75.167 13.333 -108.5 40c-49.333 39.333 -74 98 -74 176s31.667 151.833 95 221.5s118.333 111.834 165 126.501zM405.999 1526c-25.333 -16 -62.667 -52.668 -112 -110.001s-74 -101.666 -74 -132.999c0 -14.667 6 -25 18 -31
c-2 -3.33301 16.333 -6.66602 55 -9.99902c99.333 -8.66699 151 -42 155 -100c0.666992 -4.66699 1 -9.33398 1 -14.001c0 -38.667 -13 -68 -39 -88c-28.667 -22.667 -62.5 -34 -101.5 -34s-75.167 13.333 -108.5 40c-49.333 39.333 -74 95.333 -74 168
s28.5 145.5 85.5 218.5s115.167 118.833 174.5 137.5z" />
    <glyph glyph-name="quotedblright" unicode="&#x201d;" horiz-adv-x="1230" 
d="M332 1048c56 36 99.6689 78.498 131.002 127.498s47 84.833 47 107.5s-3.33301 35.667 -10 39c1.33301 4 -17.334 7.66699 -56.001 11c-98.667 8.66699 -150 42.334 -154 101.001c-0.666992 4.66699 -1 9.33398 -1 14.001c-0.666992 38.667 12.333 67.667 39 87
c29.333 22 63.5 33 102.5 33s75.167 -13 108.5 -39c48.667 -38.667 73 -97.167 73 -175.5s-31.333 -152 -94 -221s-117.334 -111.833 -164.001 -128.5zM828.002 1048c56 36 99.667 78.4971 131 127.497s47 84.833 47 107.5s-3.33301 35.667 -10 39
c2.66699 4 -15.333 7.66699 -54 11c-99.333 8.66699 -151.333 42.334 -156 101.001c-0.666992 4.66699 -1 9.33398 -1 14.001c-0.666992 38.667 12.333 67.667 39 87c29.333 22 63.5 33 102.5 33s75.5 -13 109.5 -39c49.333 -38.667 74 -97.167 74 -175.5
s-31.5 -152.166 -94.5 -221.499s-118.167 -112 -165.5 -128z" />
    <glyph glyph-name="dagger" unicode="&#x2020;" 
d="M-206 -550c0 10.667 -1.99707 17.999 -5.99707 21.999l-4 1c-2 0 -20 -15.333 -54 -46c-34.667 -31.333 -65.334 -48.333 -92.001 -51c-10.667 -1.33301 -21 -2 -31 -2c-40.667 0 -79 8.66699 -115 26c-56.667 30.667 -109.334 67.334 -158.001 110.001
c56 88 122.667 143.333 200 166c85.333 22.667 155 34 209 34c18.667 0 35.667 -1.33301 51 -4v238h-130v-112c-92 -11.333 -167.333 -29.5 -226 -54.5s-113.667 -71.833 -165 -140.5s-78.333 -117.667 -81 -147c17.333 -53.333 70.666 -105 159.999 -155s154 -75 194 -75
s74 6.66699 102 20c37.333 13.333 71.333 39.333 102 78c29.333 33.333 44 64 44 92z" />
    <glyph glyph-name="bullet" unicode="&#x2022;" horiz-adv-x="860" 
d="M94 596l340 339l340 -339l-340 -340z" />
    <glyph glyph-name="ellipsis" unicode="&#x2026;" horiz-adv-x="2074" 
d="M1646 -30.5c22.667 23 49.499 34.5 80.499 34.5s58 -12 81 -36s34.5 -52.667 34.5 -86s-12.667 -60 -38 -80s-51.166 -30 -77.499 -30s-52 10 -77 30s-37.5 47.167 -37.5 81.5s11.333 63 34 86zM954.999 -30.5c22 23 48.5 34.5 79.5 34.5s58.333 -12 82 -36
s35.5 -52.667 35.5 -86s-13 -60 -39 -80s-51.833 -30 -77.5 -30s-51 10 -76 30s-37.5 47.167 -37.5 81.5s11 63 33 86zM264.499 -30.5c21.667 23 48.168 34.5 79.501 34.5s58.166 -12 80.499 -36s33.5 -52.667 33.5 -86s-12.167 -60 -36.5 -80s-49.333 -30 -75 -30
s-51.167 10 -76.5 30s-38 47.167 -38 81.5s10.833 63 32.5 86z" />
    <glyph glyph-name="perthousand" unicode="&#x2030;" horiz-adv-x="2656" 
d="M2105 350l-89.998 8.00195c-35.333 -12.667 -54 -19.334 -56 -20.001c-20.667 -10.667 -32.334 -25.334 -35.001 -44.001c55.333 -23.333 86.333 -35 93 -35s16.167 0.333008 28.5 1s25.666 8.33398 39.999 23.001s21.5 28.167 21.5 40.5s-0.666992 21.166 -2 26.499z
M2105 247.002c-62 -26 -103.335 -66.333 -124.002 -121c4.66699 -12 16.834 -16.5 36.501 -13.5s25.834 4.5 18.501 4.5c20 6 41.833 18.5 65.5 37.5s35.5 36.833 35.5 53.5s-10.667 29.667 -32 39zM2114 563.002v-94c1.33301 -38 14 -64 38 -78
c23.333 6.66699 35 22.5 35 47.5s-6.5 54.167 -19.5 87.5s-26.833 50 -41.5 50c-6 0 -10 -4.33301 -12 -13zM2190 197.002c-50 -30.667 -75.001 -81.667 -75.001 -153c0 -9.33301 0.333008 -18.333 1 -27c18.667 0 39.834 17.333 63.501 52s35.5 62.667 35.5 84
s-8.33301 36 -25 44zM2225 232.002c45.333 0 69.999 25.333 73.999 76c-2 40.667 -27 61 -75 61c-7.33301 0 -14.666 -0.666992 -21.999 -2c-23.333 -10 -40 -35.333 -50 -76c16.667 -39.333 41 -59 73 -59zM2311 197.002c-11.333 8 -21.333 12 -30 12
c-17.333 0 -26 -18 -26 -54c0 -52 25 -93.333 75 -124c14 26 21 55.5 21 88.5s-13.333 58.833 -40 77.5zM2353 571.002c-28.667 0.666992 -55 -15.666 -79 -48.999c-20.667 -28 -31 -55 -31 -81c0 -4 0.333008 -8 1 -12c2 -15.333 20.333 -23 55 -23
c36 33.333 54 82.666 54 147.999v17zM2504 426.002l-80.001 3.00098c-20 -7.33301 -39.667 -15 -59 -23c-23.333 -12 -35 -28.333 -35 -49c0 -6.66699 0.666992 -13 2 -19c7.33301 -10.667 21.333 -15.834 42 -15.501s37.334 0.5 50.001 0.5c53.333 20.667 80 55 80 103z
M2330 251.003c-2.66699 -47.333 44.001 -71 140.001 -71c33.333 0 57.666 4.66699 72.999 14zM1930 -434.997c65.333 -48 105.335 -78.333 120.002 -91c43.333 -37.333 68.666 -73 75.999 -107c-54 27.333 -127 79.333 -219 156c20 -54.667 51.667 -106.167 95 -154.5
s86.666 -72.5 129.999 -72.5c20 0 38.667 5.66699 56 17c6 14.667 9 29.667 9 45c-0.666992 57.333 -31 107.333 -91 150c-54.667 38.667 -107.667 58 -159 58c-6 0 -11.667 -0.333008 -17 -1zM909 1651c-47.333 -19.333 -71.002 -46.333 -71.002 -81c0 -10 3 -20 9 -30
c18 4 47.833 15.833 89.5 35.5s75.834 29.5 102.501 29.5c48.667 0 106 -24 172 -72c-64 89.333 -139.333 134 -226 134c-25.333 0 -50.666 -5.33301 -75.999 -16zM1255 1434c-64 82.667 -131.332 124 -201.999 124c-40.667 0 -77.334 -14.5 -110.001 -43.5
s-49 -63.833 -49 -104.5c0 -9.33301 1 -18.333 3 -27c56.667 64 121.667 96 195 96c50 0 104.333 -15 163 -45zM1521 1557l72.002 -62c0 28 -13.333 59.333 -40 94s-53.334 52 -80.001 52c-11.333 0 -21 -3.33301 -29 -10c41.333 -116 94 -186 158 -210
c2 15.333 -10.833 38.333 -38.5 69s-41.834 53 -42.501 67zM1649 1508l-9.99902 92.001c0 22 6 41.333 18 58c10 -13.333 15 -32 15 -56v-15c-0.666992 -9.33301 -1.33398 -18 -2.00098 -26c0 -18 2 -31.333 6 -40c26 20.667 39 49.5 39 86.5s-6.66699 71.833 -20 104.5
s-32.333 50 -57 52c-18 -46.667 -27 -95.834 -27 -147.501s11.667 -97.167 35 -136.5c2 8.66699 3 18 3 28zM1740 1259c5.33301 -14 20.333 -39.168 45 -75.501s37 -61.333 37 -75s-0.333008 -23.5 -1 -29.5c-14 8 -32.5 34.833 -55.5 80.5s-41.833 70.834 -56.5 75.501
c0 -96 51 -169.667 153 -221c5.33301 17.333 8 41.833 8 73.5s-9.83301 68.5 -29.5 110.5s-47.5 63 -83.5 63c-5.33301 0 -11 -0.666992 -17 -2zM1974 1738c-75.333 -35.333 -141.002 -81.3311 -197.002 -137.998s-84 -120 -84 -190c4 0 25.833 27.667 65.5 83
s72.167 87.666 97.5 96.999c-9.33301 -22.667 -28.166 -52.334 -56.499 -89.001s-46.833 -64 -55.5 -82c114.667 60.667 191.334 167 230.001 319zM1759 1318c69.333 -66 144.334 -99 225.001 -99c25.333 0 49.666 3.66699 72.999 11c-25.333 61.333 -87 92 -185 92
c-12.667 0 -31.5 -0.666992 -56.5 -2s-43.833 -2 -56.5 -2zM2107 1462l-167.999 -2.99902c-90.667 -7.33301 -142.334 -27.333 -155.001 -60c74 18.667 120 28 138 28s27 -1.33301 27 -4c0 -8.66699 -48.333 -32.334 -145 -71.001c8.66699 -0.666992 17.667 -1 27 -1
c42.667 0 94 7.33301 154 22c73.333 18 114 47.667 122 89zM2387 96.0059l6.99902 -78c0 -24 -8.66699 -43.333 -26 -58h-3c-30.667 0 -54 9.33301 -70 28c-16.667 19.333 -37.667 44.666 -63 75.999c-8.66699 -6 -28.667 -29 -60 -69s-61.333 -60 -90 -60
c-5.33301 0 -10.666 0.666992 -15.999 2c-2 7.33301 -3 17.333 -3 30c0 10 0.666992 21.667 2 35c2.66699 29.333 4 48.833 4 58.5s-1.66699 18.834 -5 27.501c-60 -24 -104 -36 -132 -36c-2 8.66699 -3 20.334 -3 35.001s11.5 39.5 34.5 74.5s36.833 57.167 41.5 66.5
c-38.667 11.333 -96.334 32.333 -173.001 63c37.333 44 112.333 80.333 225 109c-52 31.333 -133.5 69 -244.5 113s-177.5 71.333 -199.5 82c5.33301 -26.667 24.166 -70.334 56.499 -131.001s48.5 -110.667 48.5 -150s-23 -80.666 -69 -123.999
c-85.333 43.333 -128 125 -128 245c0 32.667 2.83301 71 8.5 115s8.5 68 8.5 72c-71.333 19.333 -269.333 60 -594 122c-21.333 -8.66699 -48.666 -21 -81.999 -37h6c62.667 0.666992 115.334 -9.66602 158.001 -30.999c44 -21.333 103 -59.333 177 -114
c-20.667 -32.667 -56 -49 -106 -49s-107.833 14.667 -173.5 44s-118.834 59 -159.501 89c-140.667 -79.333 -245.167 -136.333 -313.5 -171s-144.833 -67.334 -229.5 -98.001c36.667 -5.33301 92.667 -18.5 168 -39.5s130.333 -33.833 165 -38.5c24 10.667 47.667 21 71 31
c29.333 16.667 44 37.667 44 63c0 6.66699 -0.666992 14 -2 22c14 48.667 43 73 87 73c24.667 0 46.167 -9.83301 64.5 -29.5s27.5 -41.834 27.5 -66.501c0 -52 -29 -78 -87 -78l-62 2c-41.333 0 -70.333 -14 -87 -42c268 -48.667 577 -196.334 927 -443.001
c48.667 19.333 95.834 37.833 141.501 55.5s90.5 26.5 134.5 26.5c87.333 0 169.666 -40.333 246.999 -121c-68 -42.667 -140.333 -64 -217 -64s-140 10.333 -190 31c24 -15.333 66.333 -46.333 127 -93c58.667 -46 92.667 -68.667 102 -68h1c22.667 8 46.334 12 71.001 12
c68 0 134.5 -26 199.5 -78s97.5 -111 97.5 -177c0 -32 -9.66699 -59.333 -29 -82s-45 -34 -77 -34c-65.333 0 -129.166 36.833 -191.499 110.5s-94.833 144.167 -97.5 211.5l-248 184c33.333 -72.667 50 -141.667 50 -207c0 -105.333 -37.333 -181.666 -112 -228.999
c-50 41.333 -75 108 -75 200c0 46.667 6 101.667 18 165l23 118c-162 102 -281.667 174 -359 216c-158 85.333 -306.333 148.333 -445 189c65.333 -43.333 138.166 -128.666 218.499 -255.999s120.5 -241.666 120.5 -342.999c0 -10 -0.333008 -20 -1 -30
c164 -92 246 -188 246 -288c0 -23.333 -5.33301 -46.333 -16 -69c-82.667 14 -143.334 40.333 -182.001 79c-24 24 -41.5 56.5 -52.5 97.5s-21.5 63.5 -31.5 67.5c-30.667 -80 -82.667 -141 -156 -183s-150.666 -63 -231.999 -63s-147.333 19 -198 57s-80 92.333 -88 163
c-2.66699 26.667 -4 55.334 -4 86.001c0 117.333 14 176 42 176c2 0 4 -0.333008 6 -1c12.667 -3.33301 19 -13.666 19 -30.999s-2.16699 -40.166 -6.5 -68.499s-6.83301 -48.833 -7.5 -61.5v-22c0 -84 14.333 -140.667 43 -170c48 -48.667 107.667 -73 179 -73
c10 0 23.667 1.33301 41 4c176 21.333 284 97.666 324 228.999c-42 -56.667 -100.5 -85 -175.5 -85s-125.167 24.333 -150.5 73c43.333 85.333 103.333 128 180 128c34.667 0 93 -12 175 -36c-20 159.333 -80.667 304.333 -182 435c-69.333 89.333 -143 158 -221 206
c-1.33301 -6 -2 -13.833 -2 -23.5s4.5 -28.167 13.5 -55.5s14.167 -44.333 15.5 -51c52 -23.333 78 -57.333 78 -102s-25 -70 -75 -76c-5.33301 -0.666992 -10.666 -1 -15.999 -1c-21.333 0 -41.333 6.33301 -60 19c-22.667 16 -34 40.167 -34 72.5s22 63.166 66 92.499
c-10 41.333 -22.333 88.666 -37 141.999c-206 49.333 -339.667 82.666 -401 99.999c64.667 -43.333 108 -81.5 130 -114.5s33 -84.5 33 -154.5c0 -16.667 -0.333008 -43 -1 -79c-145.333 8.66699 -226.666 118.667 -243.999 330l-44 -11v86l44 22c3.33301 10 5 22.667 5 38
s-5.33301 42.333 -16 81s-16 67.667 -16 87c0 72.667 52.333 135.667 157 189c16 -78.667 24 -153.667 24 -225s-17.333 -123.333 -52 -156c7.33301 1.33301 28.666 9.33301 63.999 24c36 60 70.833 135.333 104.5 226s56.834 167.667 69.501 231l-178 59
c-94 43.333 -141 104 -141 182c0 14 1.33301 28.667 4 44c44 4.66699 78 7 102 7c52 0 92 -15 120 -45l116 -163c3.33301 70 5 141.667 5 215s-3.66699 142.333 -11 207c-70 10 -135.333 39.167 -196 87.5s-100.667 105.5 -120 171.5c24 11.333 55 17 93 17
s81.333 -13.333 130 -40s88.334 -57 119.001 -91c14.667 92 27.667 149.667 39 173c22.667 49.333 67.667 86.666 135 111.999c29.333 -31.333 44 -71.333 44 -120s-19.333 -101.834 -58 -159.501s-81 -105.834 -127 -144.501v-359c41.333 104 128 171.667 260 203
c24 -21.333 36 -45 36 -71c0 -53.333 -44.667 -113.333 -134 -180c-63.333 -47.333 -125.666 -84.333 -186.999 -111c-24.667 -118 -77.667 -261.667 -159 -431c96 52 241.333 128 436 228c-20.667 64.667 -31 122.667 -31 174c0 87.333 31 159.666 93 216.999
c56.667 -46.667 85 -99.5 85 -158.5s-16.333 -122.167 -49 -189.5c26.667 15.333 72.667 40.666 138 75.999c221.333 120.667 335 245.334 341 374.001c0.666992 8.66699 0.666992 16.667 0 24c0 114 -36.667 182 -110 204c-34.667 10 -68.5 15 -101.5 15
s-65 -9.16699 -96 -27.5s-46.5 -45.5 -46.5 -81.5v-26c0 -12 13 -27 39 -45c5.33301 -1.33301 10.666 -2 15.999 -2l65 15c9.33301 0 15.166 -5.83301 17.499 -17.5s-5.16699 -20.667 -22.5 -27s-32.333 -9.5 -45 -9.5c-50 0 -90 27.333 -120 82
c-20.667 38 -35 67.667 -43 89c-6 16.667 -9 40.667 -9 72c0 8 0.333008 16.667 1 26c-36.667 24.667 -55 57.334 -55 98.001c0 22.667 6 42.334 18 59.001c32.667 49.333 86.334 74 161.001 74c137.333 0 244.666 -86 321.999 -258c33.333 -74.667 50 -149.834 50 -225.501
s-20.667 -139.167 -62 -190.5l16 -1c76.667 69.333 172.667 157.666 288 264.999c-4 38 -22.667 73.667 -56 107c-56 56.667 -86.667 88.667 -92 96c-31.333 46 -47 103.667 -47 173c6 1.33301 14.333 2 25 2s30.167 -5.5 58.5 -16.5s49.333 -16.5 63 -16.5
s26.167 3.33301 37.5 10c0 53.333 15.667 109.333 47 168c28.667 -11.333 56 -41.666 82 -90.999s47 -79.666 63 -90.999c41.333 49.333 121.333 99.666 240 150.999c0.666992 -5.33301 1 -11 1 -17c0 -66.667 -30.667 -157.667 -92 -273c12.667 -1.33301 29.667 -2 51 -2
h49c76 0 132 -8.33301 168 -25c-8 -24.667 -37.333 -50.667 -88 -78s-76 -50.666 -76 -69.999c3.33301 -14 19.5 -32.833 48.5 -56.5s46.167 -45.834 51.5 -66.501c-44 -14.667 -84.167 -22 -120.5 -22s-65.5 1.66699 -87.5 5
c-4.66699 -20.667 -8.33398 -56.667 -11.001 -108s-11 -88.333 -25 -111c-72 24 -125.333 62.333 -160 115c-18 26.667 -33.667 64.167 -47 112.5s-29 72.5 -47 72.5c-194 -193.333 -398.667 -358.666 -614 -495.999c94 -10 276 -47.667 546 -113
c32 55.333 77.167 102.5 135.5 141.5s114.666 58.5 168.999 58.5s101.166 -14 140.499 -42c-45.333 -114 -169.666 -178 -372.999 -192c110.667 -38.667 260.334 -101.667 449.001 -189c-10.667 23.333 -16 54.666 -16 93.999s11 82.666 33 129.999
c24.667 -4 50 -25.167 76 -63.5s45.333 -62.166 58 -71.499c23.333 50.667 74.666 95 153.999 133c20.667 -14 31 -32.5 31 -55.5s-3.66699 -48.5 -11 -76.5l-15 -60c51.333 6.66699 121.666 16.334 210.999 29.001v-6c0 -27.333 -11.667 -56 -35 -86
c-7.33301 -9.33301 -31.333 -37.666 -72 -84.999c8 -18.667 31 -43 69 -73s61.667 -52.667 71 -68c-10.667 -17.333 -52.667 -30.333 -126 -39s-112.666 -13.667 -117.999 -15c-2.66699 -9.33301 -4 -20 -4 -32z" />
    <glyph glyph-name="guilsinglleft" unicode="&#x2039;" horiz-adv-x="1160" 
d="M646.5 311c23.667 -23.333 35.498 -51.333 35.498 -84s-13 -58.667 -39 -78s-52.167 -29 -78.5 -29s-51.666 9.33301 -75.999 28s-36.5 45 -36.5 79s11.167 62.333 33.5 85s48.833 34 79.5 34s57.834 -11.667 81.501 -35zM646.498 1077
c23.667 -23.333 35.5 -51.668 35.5 -85.001s-12.833 -59.666 -38.5 -78.999s-51.834 -29 -78.501 -29s-52.167 9.66699 -76.5 29s-36.5 46 -36.5 80s11.167 62.333 33.5 85s48.833 34 79.5 34s57.834 -11.667 81.501 -35zM45.998 535.998v162h1038v-162h-1038z" />
    <glyph glyph-name="glyph1" horiz-adv-x="0" 
 />
    <glyph glyph-name="nonmarkingreturn" horiz-adv-x="700" 
 />
    <glyph glyph-name="partialdiff" horiz-adv-x="1140" 
 />
    <glyph glyph-name=".null" horiz-adv-x="0" 
 />
  </font>
</defs>
</svg>
