<?xml version="1.0" standalone="no"?>
<!DOCTYPE svg PUBLIC "-//W3C//DTD SVG 1.1//EN" "http://www.w3.org/Graphics/SVG/1.1/DTD/svg11.dtd" >
<svg xmlns="http://www.w3.org/2000/svg" xmlns:xlink="http://www.w3.org/1999/xlink" version="1.1">
<metadata></metadata>
<defs>
<font id="notosansgurmukhitrueregular" horiz-adv-x="0" >
<font-face units-per-em="2048" ascent="1638" descent="-410" />
<missing-glyph horiz-adv-x="532" />
<glyph />
<glyph />
<glyph unicode=" "  horiz-adv-x="532" />
<glyph unicode="&#x09;" horiz-adv-x="532" />
<glyph unicode="&#xa0;" horiz-adv-x="532" />
<glyph unicode="!" horiz-adv-x="785" d="M488 414h-121l-51 1048h223zM426 250q61 0 94 -35.5t33 -103.5q0 -67 -33.5 -103.5t-93.5 -36.5t-93.5 37t-33.5 103q0 67 33 103t94 36z" />
<glyph unicode="&#x22;" horiz-adv-x="1028" d="M462 1493l-51 -528h-125l-51 528h227zM822 1493l-51 -528h-124l-51 528h226zM510 1274zM556 1836z" />
<glyph unicode="#" horiz-adv-x="1337" d="M983 807l-59 -311h272v-135h-299l-69 -361h-144l71 361h-285l-70 -361h-141l66 361h-255v135h281l62 311h-269v134h293l68 354h144l-67 -354h287l69 354h141l-69 -354h257v-134h-284zM495 496h286l60 311h-285z" />
<glyph unicode="$" horiz-adv-x="1143" d="M1016 438q0 -134 -99.5 -221.5t-282.5 -110.5v-222h-128v214q-111 2 -213.5 19t-168.5 47v164q73 -34 179 -59t203 -27v418q-200 63 -283 149t-83 219q0 129 98.5 212t267.5 102v176h128v-174q186 -5 352 -74l-54 -138q-151 60 -298 70v-412q156 -53 232.5 -99.5 t113 -107t36.5 -145.5zM838 426q0 70 -46 111.5t-158 80.5v-366q204 31 204 174zM318 1030q0 -71 42 -115t146 -81v364q-92 -16 -140 -60t-48 -108z" />
<glyph unicode="%" horiz-adv-x="1695" d="M413 554q-142 0 -219 95.5t-77 275.5q0 184 74 276.5t222 92.5q145 0 223 -95t78 -274q0 -184 -75.5 -277.5t-225.5 -93.5zM413 685q76 0 114.5 60t38.5 180t-38.5 180t-114.5 60q-78 0 -113 -60t-35 -180t35 -180t113 -60zM1324 1274l-789 -1274h-160l791 1274h158z M1278 -20q-143 0 -219.5 97t-76.5 274q0 184 74 276.5t222 92.5q146 0 223 -95t77 -274q0 -187 -76.5 -279t-223.5 -92zM1278 112q76 0 114.5 59.5t38.5 179.5t-38.5 180t-114.5 60q-78 0 -113 -59.5t-35 -180.5q0 -120 35 -179.5t113 -59.5z" />
<glyph unicode="&#x26;" horiz-adv-x="1185" d="M837 861v267h-852v146h1215v-146h-198v-353l-60 -60h-361q-145 0 -208 -16.5t-97.5 -55.5t-34.5 -112q0 -63 28.5 -125t86.5 -124q98 101 211.5 152t242.5 51q135 0 212 -62.5t77 -162.5q0 -128 -101.5 -194t-302.5 -66q-171 0 -304.5 65.5t-224 195.5t-90.5 280 q0 69 27 131.5t87.5 108t143.5 63t215 17.5h288zM468 191q45 -25 101 -37t123 -12q119 0 180.5 26.5t61.5 84.5q0 42 -35.5 64t-104.5 22q-84 0 -165.5 -37t-160.5 -111zM209 36q49 0 81 -32.5t32 -84.5q0 -53 -31 -85t-82 -32q-50 0 -81.5 32.5t-31.5 84.5t32 84.5t81 32.5 zM209 194z" />
<glyph unicode="'" horiz-adv-x="668" d="M462 1493l-51 -528h-125l-51 528h227zM487 1274zM480 1836z" />
<glyph unicode="(" horiz-adv-x="724" d="M436 1703h166q-287 -456 -287 -1014q0 -279 73 -542.5t216 -484.5h-168q-143 197 -219.5 462t-76.5 567q0 304 76.5 561.5t219.5 450.5zM506 1274zM691 1836zM500 -555z" />
<glyph unicode=")" horiz-adv-x="724" d="M288 -338h-166q287 456 287 1014q0 279 -73 542.5t-216 484.5h168q143 -197 219.5 -462t76.5 -567q0 -304 -76.5 -561.5t-219.5 -450.5zM215 1836zM221 1274zM350 -555z" />
<glyph unicode="*" horiz-adv-x="1243" d="M732 1525l-43 -393l397 111l26 -193l-378 -28l245 -326l-178 -96l-176 358l-158 -358l-184 96l242 326l-375 28l29 193l391 -111l-43 393h205zM453 1274zM448 1836z" />
<glyph unicode="+" horiz-adv-x="1128" d="M489 585h-387v150h387v388h150v-388h387v-150h-387v-386h-150v386zM453 1274z" />
<glyph unicode="," horiz-adv-x="512" d="M362 238l15 -23q-51 -197 -176 -479h-138q67 279 101 502h198zM414 250zM414 -29z" />
<glyph unicode="-" horiz-adv-x="696" d="M100 524v168h496v-168h-496zM453 1274z" />
<glyph unicode="." horiz-adv-x="549" d="M274 250q61 0 94 -35.5t33 -103.5q0 -67 -33.5 -103.5t-93.5 -36.5t-93.5 37t-33.5 103q0 67 33 103t94 36z" />
<glyph unicode="/" horiz-adv-x="879" d="M793 1705l-537 -2044h-170l539 2044h168zM453 1274zM448 1836zM479 -548z" />
<glyph unicode="0" horiz-adv-x="1128" d="M563 1133q220 0 353.5 -133.5t133.5 -354.5t-132 -353t-353 -132q-223 0 -354.5 133t-131.5 355q0 140 60 251t171 172.5t253 61.5zM560 309q152 0 237 90.5t85 250.5q0 153 -84.5 243.5t-229.5 90.5q-150 0 -235.5 -92.5t-85.5 -249.5q0 -153 83.5 -243t229.5 -90z M557 1274z" />
<glyph unicode="1" horiz-adv-x="1128" d="M728 672q-106 -62 -245 -62q-164 0 -262 91t-98 249q0 148 104.5 246t277.5 98q142 0 232.5 -55.5t123 -125t32.5 -199.5v-594q0 -89 14.5 -125t45.5 -50t91 -14l-20 -149q-82 0 -136.5 21t-89.5 58.5t-52.5 95t-17.5 161.5v354zM728 842v81q0 89 -28 132.5t-79 67.5 t-123 24q-100 0 -154.5 -52.5t-54.5 -143.5t51 -142.5t143 -51.5q76 0 135 20t110 65z" />
<glyph unicode="2" horiz-adv-x="1128" d="M681 357q215 -147 345 -285l-118 -108q-209 209 -425 343q-31 -4 -73 -4q-138 0 -207 33.5t-69 101.5q0 50 41 77.5t117 27.5q128 0 254 -73q129 40 198.5 133t69.5 220q0 156 -89.5 239t-257.5 83q-173 0 -321 -69l-58 133q183 85 392 85q237 0 369 -124t132 -342 q0 -162 -77.5 -285t-222.5 -186zM410 449zM1008 110z" />
<glyph unicode="3" horiz-adv-x="1128" d="M871 -135q-202 194 -369 291q-46 -4 -112 -4q-137 0 -205.5 31t-68.5 93q0 46 41.5 71t116.5 25q140 0 282 -71q129 13 200 61t71 123q0 65 -53 113.5t-150 71.5q-108 -27 -211 -27q-108 0 -162 30t-54 86q0 51 44 77.5t120 26.5q59 0 119.5 -10t154.5 -45 q86 23 134.5 68t48.5 109q0 81 -76.5 120.5t-231.5 39.5q-198 0 -360 -69l-58 133q201 85 429 85q223 0 343.5 -79.5t120.5 -220.5q0 -74 -46 -139.5t-135 -114.5q95 -45 142.5 -109.5t47.5 -147.5q0 -107 -69 -180t-206 -112q144 -96 270 -219zM971 11z" />
<glyph unicode="4" horiz-adv-x="1128" d="M301 611q-102 47 -155.5 129.5t-53.5 189.5q0 126 93 228t263 126l20 -142q-103 -17 -157.5 -76t-54.5 -147q0 -107 76.5 -166.5t224.5 -59.5q157 0 236 56.5t79 169.5q0 91 -53 146.5t-159 76.5l20 142q174 -27 265 -127.5t91 -226.5q0 -107 -54 -189.5t-155 -129.5 q85 -43 127 -113t42 -160q0 -164 -115 -259.5t-315 -95.5q-203 0 -318.5 96t-115.5 262q0 92 43.5 160.5t125.5 109.5zM561 132q132 0 199.5 53.5t67.5 156.5q0 95 -69.5 149t-189.5 54q-130 0 -199.5 -55t-69.5 -153q0 -97 67.5 -151t193.5 -54zM560 1128zM551 1274z" />
<glyph unicode="5" horiz-adv-x="1128" d="M797 366q-108 -44 -238 -44q-164 0 -286.5 98t-203.5 294q77 62 110 122t33 134q0 65 -18 126.5t-62 140.5l153 57q90 -169 90 -318q0 -84 -26.5 -150t-86.5 -124q62 -122 132.5 -176t168.5 -54q119 0 234 63v739h165v-1274h-165v366z" />
<glyph unicode="6" horiz-adv-x="1128" d="M622 1149q-57 92 -57 201q0 117 84.5 189.5t238.5 72.5q66 0 128 -9l-21 -140q-39 6 -93 6q-84 0 -128 -37.5t-44 -105.5q0 -101 69 -181q112 -11 168.5 -44.5t56.5 -90.5q0 -48 -37 -74t-102 -26q-118 0 -196 97q-182 0 -277 -48t-95 -135q0 -70 46.5 -109.5 t129.5 -59.5q107 27 219 27q108 0 162 -30t54 -86q0 -51 -44 -77.5t-120 -26.5q-130 0 -274 51q-82 -27 -127 -75.5t-45 -114.5q0 -100 76.5 -146.5t237.5 -46.5q200 0 354 69l58 -133q-197 -85 -429 -85q-225 0 -344.5 88t-119.5 250q0 79 42 145t126 119 q-85 41 -127 102.5t-42 143.5q0 139 124 223t348 97zM302 1295zM836 1836z" />
<glyph unicode="7" horiz-adv-x="1128" d="M274 654q-63 72 -94 145.5t-31 161.5q0 90 50 167.5t142.5 121.5t214.5 44q219 0 347 -146.5t128 -392.5q0 -213 -119.5 -381.5t-342.5 -270.5t-508 -121v150q377 30 589.5 197t212.5 424q0 178 -83.5 285.5t-231.5 107.5q-110 0 -172 -53t-62 -149q0 -119 99 -216z M161 128z" />
<glyph unicode="8" horiz-adv-x="1128" d="M1045 975h-655v-332q0 -216 49 -308t142 -139.5t301 -47.5q70 0 155 12l13 -149q-77 -11 -201 -11q-231 0 -359.5 64.5t-196.5 191.5t-68 352v367h-46q-52 0 -79 20.5t-27 57.5q0 51 38.5 109.5t92 95.5t98.5 37q42 0 65 -29t23 -85v-61h655v-145z" />
<glyph unicode="9" horiz-adv-x="1128" d="M1045 975h-655v-332q0 -216 49 -308t142 -139.5t301 -47.5q70 0 155 12l13 -149q-77 -11 -201 -11q-231 0 -359.5 64.5t-196.5 191.5t-68 352v367h-46q-52 0 -79 20.5t-27 57.5q0 51 38.5 109.5t92 95.5t98.5 37q42 0 65 -29t23 -85v-61h407q-76 106 -76 230 q0 117 84.5 189.5t238.5 72.5q66 0 128 -9l-21 -140q-39 6 -93 6q-84 0 -128 -37.5t-44 -105.5q0 -116 93 -206h66v-145zM1036 1836z" />
<glyph unicode=":" horiz-adv-x="603" d="M302 1126q63 0 95 -36t32 -103q0 -66 -34 -102.5t-93 -36.5q-60 0 -93.5 36.5t-33.5 102.5q0 67 31.5 103t95.5 36zM302 250q61 0 94 -35.5t33 -103.5q0 -67 -33.5 -103.5t-93.5 -36.5t-93.5 37t-33.5 103q0 67 33 103t94 36zM302 1274z" />
<glyph unicode=";" horiz-adv-x="603" d="M302 1126q63 0 95 -36t32 -103q0 -66 -34 -102.5t-93 -36.5q-60 0 -93.5 36.5t-33.5 102.5q0 67 31.5 103t95.5 36zM390 238l15 -23q-51 -197 -176 -479h-138q67 279 101 502h198zM302 1274zM434 250zM434 -29z" />
<glyph unicode="&#x3c;" horiz-adv-x="2168" d="M1616 1541q-69 20 -126 20q-165 0 -283 -139q-81 -97 -109 -224h957v-160h-60q-48 -146 -105 -227q-67 -95 -187 -167q215 -129 213 -321q0 -133 -81 -221q-96 -104 -276 -104q-292 0 -453 227q-132 187 -159 497q-12 126 -10 316h-57v160h58q19 215 169 364 q157 156 383 156q212 0 518 -195q5 -3 124 -92q2 -3 19 -15v-208q-106 106 -249 197q-152 96 -286 136zM762 395q0 -179 57 -318l70 -129q7 -11 7 -21q0 -31 -36 -31q-41 0 -80 29q-94 70 -145 222q-42 127 -42 266q0 104 22 272q-120 -70 -248 -70q-133 0 -232 79 q-113 91 -113 241q0 357 403 345q198 -6 286 -97q84 -86 84 -269q0 -23 -2 -48q0 -64 -9 -218q-22 -245 -22 -253zM530 808q99 50 101 137q2 178 -226 178q-229 0 -224 -179q2 -85 58 -132q52 -43 138 -43q74 0 153 39zM1094 1038q0 -188 14 -332q368 0 431 23 q123 43 180 111q72 85 116 198h-741zM1133 550q116 -403 418 -396q92 3 148 44q64 48 58 137q-4 73 -87 149.5t-159 76.5q-8 0 -16 -1q-70 -10 -362 -10z" />
<glyph unicode="=" horiz-adv-x="1128" d="M102 791v149h924v-149h-924zM102 381v150h924v-150h-924zM453 1274z" />
<glyph unicode="&#x3e;" horiz-adv-x="1182" d="M-34 1400q9 -3 29 -15q134 -86 162 -83q34 3 257 186q96 83 191 166q113 96 203 141q119 59 248 59q199 0 357 -111.5t223 -293.5q32 -91 32 -123q0 -70 -61 -70q-46 0 -82 75l-51 102q-57 123 -167 196q-113 74 -251 74q-163 0 -347 -150q-62 -61 -220 -200 q-57 -63 -168 -161q-88 -56 -162 -56q-87 0 -175 67q-5 3 -18 15v182z" />
<glyph unicode="?" horiz-adv-x="1060" d="M390 414v37q0 129 39.5 200.5t130.5 147.5q81 69 114.5 110t49.5 88t16 111q0 97 -59.5 156t-168.5 59q-83 0 -158 -26t-145 -60l-63 145q199 101 366 101q187 0 294.5 -100t107.5 -273q0 -108 -39.5 -191.5t-175.5 -201.5q-109 -94 -139.5 -146.5t-30.5 -138.5v-18h-139 zM469 250q61 0 94 -35.5t33 -103.5q0 -67 -33.5 -103.5t-93.5 -36.5t-93.5 37t-33.5 103q0 67 33 103t94 36z" />
<glyph unicode="@" d="M-200 -61q50 -211 147 -316t261 -105h17q7 0 16 1l-18 -157q-224 0 -364 132t-206 400zM-348 0z" />
<glyph unicode="A" horiz-adv-x="1520" d="M1172 723q-85 -22 -160.5 -56.5t-141.5 -82.5q-3 -173 -49 -267.5t-122 -94.5q-100 0 -100 118q0 74 36 160t94 149q-8 103 -24.5 179t-40.5 125q-159 -59 -278 -154q-5 -175 -50 -269.5t-124 -94.5q-51 0 -74.5 29.5t-23.5 89.5q0 74 35.5 159t92.5 146q-6 92 -23.5 159 t-47.5 110h-186v146h310q39 -90 59 -170.5t20 -150.5q61 53 171.5 105t220.5 76q38 -63 65 -174.5t32 -213.5q65 45 142 79t167 56v393h363v-146h-198v-1128h-165v723zM603 0zM766 988zM863 600zM1172 735zM374 807z" />
<glyph unicode="B" horiz-adv-x="1182" d="M839 814q14 34 21.5 69.5t7.5 73.5q0 102 -31 171h-852v146h1212v-146h-190q23 -72 23 -180q0 -71 -20 -133.5t-59 -115.5q48 -67 72.5 -137.5t24.5 -145.5q0 -202 -136 -309t-389 -107q-137 0 -261 33t-236 99l67 150q109 -71 211.5 -102.5t223.5 -31.5q179 0 268.5 69 t89.5 207q0 43 -10.5 84t-30.5 80q-72 -63 -165.5 -94t-207.5 -31q-165 0 -255.5 64.5t-90.5 177.5q0 110 89 176.5t250 66.5q109 0 202.5 -33.5t171.5 -100.5zM756 698q-63 52 -135.5 78t-153.5 26q-88 0 -132 -26t-44 -69q0 -98 179 -98q91 0 162.5 22t123.5 67zM535 0z M759 0z" />
<glyph unicode="C" horiz-adv-x="1299" d="M803 587q213 0 315 -76t102 -211q0 -158 -139 -229t-434 -71q-287 0 -419.5 71t-132.5 224q0 63 38.5 115t115.5 86q-72 32 -108 82.5t-36 119.5q0 77 47 133.5t119 80.5t227 24h431v192h-944v146h1329v-146h-220v-278l-60 -60h-565q-113 0 -156 -23.5t-43 -74.5 q0 -54 46 -79.5t156 -25.5h331zM581 140v307h-78q-125 0 -184.5 -41t-59.5 -108q0 -81 80 -117.5t242 -40.5zM736 447v-307q167 4 243.5 41.5t76.5 120.5q0 44 -27.5 76t-81.5 50.5t-170 18.5h-41zM1094 1274zM649 0zM921 0z" />
<glyph unicode="D" horiz-adv-x="1214" d="M866 333q-135 -62 -285 -62q-168 0 -294 102.5t-209 307.5q76 64 109.5 126t33.5 134q0 45 -13 96t-36 91h-187v146h1244v-146h-198v-1128h-165v333zM347 1128q37 -98 37 -186q0 -171 -113 -273q64 -132 137.5 -190t173.5 -58q77 0 145.5 22t138.5 64v621h-519z" />
<glyph unicode="E" horiz-adv-x="1356" d="M1286 1128q-12 -188 -94.5 -306.5t-234.5 -167.5q94 -45 145 -123.5t51 -171.5q0 -172 -107.5 -265.5t-309.5 -93.5q-293 0 -447 219t-154 644v38q0 124 14 227h-164v146h192q38 139 105.5 228t159.5 139t204 68t283 18h315l-10 -146h-285q-235 0 -339.5 -31.5 t-166.5 -100t-95 -175.5h1023v-146h-85zM1122 1128h-805q-14 -97 -14 -240v-19q0 -68 3 -128h269q187 0 273.5 20t145.5 64t91.5 116.5t36.5 186.5zM322 595q34 -223 135.5 -334.5t269.5 -111.5q132 0 195 51t63 161q0 46 -14.5 83.5t-39.5 62t-70.5 47.5t-118 32t-200.5 9 h-220zM684 0zM836 1836z" />
<glyph unicode="F" horiz-adv-x="1323" d="M207 656h-36q-52 0 -79 20.5t-27 57.5q0 46 34.5 100.5t88 93t96.5 38.5q42 0 65 -29t23 -85v-51h603v327h-990v146h1353v-146h-198v-412l-60 -60h-708v-22q0 -116 29.5 -206t89.5 -154q98 105 212.5 158t245.5 53q136 0 212.5 -63t76.5 -162q0 -127 -104.5 -193.5 t-307.5 -66.5q-191 0 -331 79.5t-214 226t-74 332.5v18zM606 191q49 -25 106.5 -37t122.5 -12q121 0 179.5 26.5t58.5 84.5q0 40 -34.5 63t-104.5 23q-85 0 -167 -37t-161 -111z" />
<glyph unicode="G" horiz-adv-x="1550" d="M1565 1274v-146h-198v-1128h-165v307q-65 -35 -150 -35q-102 0 -173.5 46t-111.5 138q-46 -92 -120.5 -138t-176.5 -46q-147 0 -232 90t-160 319q76 64 109.5 126t33.5 134q0 45 -13 96t-36 91h-187v146h305q44 -80 69 -167t25 -165q0 -176 -123 -281q33 -120 88 -180 t132 -60q80 0 135 57t84 172q-33 232 -33 392q0 100 29 151.5t85 51.5q57 0 84.5 -48.5t27.5 -155.5q0 -152 -43 -396q29 -112 83 -168t132 -56q49 0 81 17t56 48v788h363z" />
<glyph unicode="H" d="M-183 -387q0 -106 -28.5 -154t-77.5 -72.5t-136 -24.5q-154 0 -259 92t-105 216q0 51 31 92.5t90.5 64t185.5 22.5l-5 -130q-67 0 -93 -5.5t-42 -21.5t-16 -45q0 -54 61 -107t133 -53q43 0 62.5 12t26.5 31.5t7 56.5v413h165v-387z" />
<glyph unicode="I" horiz-adv-x="530" d="M347 0h-165v1128h-197v146h197v65q0 148 -17 214t-60.5 102.5t-117.5 36.5q-99 0 -148 -53t-49 -163q0 -51 12 -119l-160 -16q-14 97 -14 137q0 166 98 262t266 96q136 0 216.5 -59t109.5 -152.5t29 -256.5v-94h198v-146h-198v-1128z" />
<glyph unicode="J" horiz-adv-x="1216" d="M594 310q171 13 257 65.5t86 144.5q0 94 -84 137t-273 43q-227 0 -467 -80l-51 136q122 39 267 64q-63 51 -100 128t-49 180h-195v146h1246v-146h-181q-15 -112 -57.5 -193t-113.5 -131q113 -38 170 -109t57 -175q0 -128 -93.5 -214.5t-271.5 -120.5q74 -46 144 -107 l-113 -106q-142 132 -234 184q-39 -3 -118 -3q-119 0 -185 33t-66 91q0 46 41.5 71t116.5 25q63 0 122.5 -12.5t144.5 -50.5zM619 843q49 0 106.5 20.5t99.5 83t58 181.5h-536q9 -80 32.5 -136.5t63 -90.5t83 -46t93.5 -12zM420 299zM892 118z" />
<glyph unicode="K" horiz-adv-x="1224" d="M876 337q-138 -66 -295 -66q-168 0 -294 102.5t-209 307.5q76 64 109.5 126t33.5 134q0 45 -13 96t-36 91h-187v146h305q44 -80 69 -167t25 -165v-13h492v345h363v-146h-198v-1128h-165v337zM876 513v275h-520q-27 -66 -85 -119q64 -132 137.5 -190t173.5 -58 q73 0 141 20t153 72z" />
<glyph unicode="L" horiz-adv-x="1380" d="M1141 1128q-31 -163 -128 -316q142 -79 214.5 -185.5t72.5 -229.5q0 -108 -50 -201.5t-146 -144.5t-232 -51h-12l-10 150h22q128 0 196 64.5t68 176.5q0 93 -53 171.5t-161 134.5q-106 -114 -232 -185q-128 72 -234 185q-101 -53 -156.5 -130t-55.5 -168 q0 -117 67.5 -183t196.5 -66h22l-10 -150h-12q-137 0 -233 51.5t-145.5 144.5t-49.5 200q0 123 73.5 232t214.5 184q-102 154 -129 316h-254v146h1410v-146h-254zM407 1128q44 -274 283 -441q116 77 188.5 191t94.5 250h-566zM1141 1274zM690 0zM982 0zM448 666zM690 658z M248 -80q49 0 81 -32.5t32 -84.5q0 -53 -31 -85t-82 -32q-50 0 -81.5 32.5t-31.5 84.5t32 84.5t81 32.5zM248 78z" />
<glyph unicode="M" d="M-141 1411q26 60 26 118q0 64 -39 97.5t-112 33.5t-111.5 -34t-38.5 -97q0 -58 26 -118l-140 -21q-33 80 -33 156q0 111 82 179t214 68q136 0 217.5 -67.5t81.5 -180.5q0 -74 -33 -155zM-183 1274zM-164 1836z" />
<glyph unicode="N" horiz-adv-x="298" d="M157 1598q49 0 81 -32.5t32 -84.5q0 -53 -31 -85t-82 -32q-50 0 -81.5 32.5t-31.5 84.5t32 84.5t81 32.5zM157 1724zM-3 1128v146h295v-146h-295zM292 1235z" />
<glyph unicode="O" d="M-153 1411q26 60 26 118q0 64 -36 97.5t-103 33.5t-102.5 -34.5t-35.5 -96.5q0 -58 26 -118l-140 -21q-33 80 -33 156q0 11 1 22q-21 -4 -43 -4q-128 0 -199 61t-99 172l146 39q23 -75 55.5 -107t104.5 -32q36 0 61 6t60 28q79 62 197 62q130 0 208.5 -67t78.5 -181 q0 -74 -33 -155zM-183 1274z" />
<glyph unicode="P" horiz-adv-x="1185" d="M837 861v267h-852v146h1215v-146h-198v-353l-60 -60h-361q-145 0 -208 -16.5t-97.5 -55.5t-34.5 -112q0 -63 28.5 -125t86.5 -124q98 101 211.5 152t242.5 51q135 0 212 -62.5t77 -162.5q0 -128 -101.5 -194t-302.5 -66q-171 0 -304.5 65.5t-224 195.5t-90.5 280 q0 69 27 131.5t87.5 108t143.5 63t215 17.5h288zM468 191q45 -25 101 -37t123 -12q119 0 180.5 26.5t61.5 84.5q0 42 -35.5 64t-104.5 22q-84 0 -165.5 -37t-160.5 -111z" />
<glyph unicode="Q" horiz-adv-x="1224" d="M876 338q-80 -38 -148.5 -52.5t-146.5 -14.5q-168 0 -294 102.5t-209 307.5q76 64 109.5 126t33.5 134q0 45 -13 96t-36 91h-187v146h1254v-146h-198v-1128h-165v338zM347 1128q37 -98 37 -186q0 -35 -5 -70h497v256h-529zM876 513v218h-551q-19 -29 -54 -62 q64 -132 137.5 -190t173.5 -58q73 0 141 20t153 72z" />
<glyph unicode="R" d="M-29 -548q-115 165 -247 232q-39 -40 -86.5 -60t-103.5 -20q-90 0 -137.5 32.5t-47.5 95.5q0 61 49 92.5t140 31.5q49 0 111 -11q3 20 3 41v114h165v-35q0 -117 -21 -164q149 -68 297 -269zM71 -402zM-274 -345z" />
<glyph unicode="S" horiz-adv-x="1235" d="M-15 1274h1265v-146h-198v-1128h-165v534h-494q-9 -183 -55.5 -276t-121.5 -93q-51 0 -74.5 29.5t-23.5 89.5q0 67 32 152.5t93 152.5q-14 289 -105 539h-153v146zM313 1128q79 -246 82 -448h492v448h-574zM575 216q49 0 81 -32.5t32 -84.5q0 -53 -31 -85t-82 -32 q-50 0 -81.5 32.5t-31.5 84.5t32 84.5t81 32.5z" />
<glyph unicode="T" horiz-adv-x="1352" d="M594 898v230h-609v146h1382v-146h-609v-230q249 -58 381.5 -191t132.5 -294q0 -205 -150.5 -309t-445.5 -104q-293 0 -444.5 104.5t-151.5 308.5q0 164 134 295.5t380 189.5zM676 775q-209 -48 -320.5 -145t-111.5 -222q0 -129 103.5 -193.5t328.5 -64.5 q223 0 327.5 65.5t104.5 194.5q0 122 -113 219.5t-319 145.5zM758 1274zM914 0zM664 752z" />
<glyph unicode="U" d="M-1017 -215l29 125q90 -52 177 -74.5t186 -22.5q100 0 186.5 22.5t177.5 74.5l29 -125q-82 -51 -184.5 -78t-208.5 -27t-208 27t-184 78zM-1017 -483l29 126q90 -52 177 -74.5t186 -22.5q100 0 186 22.5t178 74.5l29 -126q-83 -51 -185 -78t-208 -27t-207.5 27t-184.5 78 zM-624 0zM-610 -806z" />
<glyph unicode="V" horiz-adv-x="1165" d="M875 220q70 -85 140 -189l-152 -71q-59 106 -137 217q-69 -11 -146 -11q-123 0 -191 14.5t-118 37.5q69 -92 122 -189l-153 -67q-84 176 -187 346l75 116q119 -58 221 -84t218 -26q159 0 239 42t80 126q0 72 -59.5 123.5t-173.5 77.5q-125 -24 -227 -24q-229 0 -229 116 q0 104 179 104q148 0 297 -54q82 34 123 94.5t41 147.5q0 37 -4 61h-848v146h1195v-146h-182q5 -37 5 -63q0 -104 -40.5 -178.5t-130.5 -124.5q116 -49 169.5 -119t53.5 -168q0 -87 -45 -150.5t-135 -104.5z" />
<glyph unicode="W" horiz-adv-x="481" d="M232 1633q49 0 81 -32.5t32 -84.5q0 -53 -31 -85t-82 -32q-50 0 -81.5 32.5t-31.5 84.5t32 84.5t81 32.5zM305 1175zM232 1759zM496 1128h-180v-593h-165v593h-166v146h511v-146z" />
<glyph unicode="X" horiz-adv-x="1424" d="M1076 613h-266v-334q-101 -33 -229 -33q-168 0 -294 105.5t-209 317.5q77 68 110 131t33 136q0 46 -13 98.5t-36 93.5h-187v146h1454v-146h-198v-1128h-165v613zM645 759h431v369h-730q38 -102 38 -193q0 -174 -113 -278q63 -137 136.5 -199t174.5 -62q31 0 63 4v359z " />
<glyph unicode="Y" d="M-325 1182q-68 113 -170.5 168t-269.5 55h-20q-11 0 -20 -1l-10 150q20 2 42 2q146 0 258.5 -50.5t191.5 -150.5q-56 168 -152.5 248.5t-260.5 80.5h-15q-8 0 -15 -1l-9 151q18 2 39 2q238 0 373.5 -141t192.5 -436l-85 -7q8 -14 15 -28zM-183 1274z" />
<glyph unicode="Z" horiz-adv-x="1536" d="M718 836v292h-733v146h1566v-146h-198v-1128h-165v1128h-305v-790q0 -136 -40.5 -204.5t-107 -101t-172.5 -32.5q-118 0 -224.5 65.5t-184.5 192.5t-78 270q0 97 50.5 173t137.5 105.5t242 29.5h212zM718 690h-179q-121 0 -177.5 -11.5t-88.5 -50t-32 -111.5 q0 -81 51 -173.5t123.5 -145t146.5 -52.5q65 0 96 19t45.5 57.5t14.5 137.5v330zM258 -46q49 0 81 -32.5t32 -84.5q0 -53 -31 -85t-82 -32q-50 0 -81.5 32.5t-31.5 84.5t32 84.5t81 32.5zM258 112z" />
<glyph unicode="[" horiz-adv-x="776" d="M398 0v1274h165v-1274h-165z" />
<glyph unicode="\" horiz-adv-x="1162" d="M1009 548v-146h-419q-116 0 -154 -30.5t-38 -82.5q0 -71 66 -106t199 -35q167 0 320 48l44 -150q-167 -46 -384 -46q-199 0 -304.5 73t-105.5 201q0 94 71 151q-101 24 -164.5 87.5t-63.5 175.5q0 93 54.5 153t155.5 80q-66 116 -135 207h-166v146h1192v-146h-198v-280 l-60 -60h-483q-71 0 -111 -8.5t-62 -34t-22 -63.5q0 -54 35 -83t99 -40t204 -11h430zM348 1128q68 -104 112 -194h354v194h-466zM598 0z" />
<glyph unicode="]" horiz-adv-x="1226" d="M848 0v1274h165v-1274h-165zM398 0v1274h165v-1274h-165z" />
<glyph unicode="^" horiz-adv-x="1224" d="M340 216q49 0 81 -32.5t32 -84.5q0 -53 -31 -85t-82 -32q-50 0 -81.5 32.5t-31.5 84.5t32 84.5t81 32.5zM876 337q-138 -66 -295 -66q-168 0 -294 102.5t-209 307.5q76 64 109.5 126t33.5 134q0 45 -13 96t-36 91h-187v146h305q44 -80 69 -167t25 -165v-13h492v345h363 v-146h-198v-1128h-165v337zM876 513v275h-520q-27 -66 -85 -119q64 -132 137.5 -190t173.5 -58q73 0 141 20t153 72z" />
<glyph unicode="_" horiz-adv-x="842" d="M846 -324h-850v140h850v-140z" />
<glyph unicode="`" d="M38 1768q-6 -183 -81 -274t-221 -91q-147 0 -223.5 91t-81.5 274l154 9q0 -126 32.5 -181t116.5 -55q85 0 117.5 56.5t32.5 179.5zM-183 1274zM-164 1836z" />
<glyph unicode="a" horiz-adv-x="1356" d="M1287 1128q-6 -180 -88.5 -302t-240.5 -172q93 -45 144 -124t51 -171q0 -172 -107.5 -265.5t-309.5 -93.5q-293 0 -447 219t-154 644v38q0 123 14 227h-164v146h191q65 239 219 358t377 119q213 0 347.5 -123t161.5 -354h90v-146h-84zM349 1274h767q-22 158 -113.5 242.5 t-243.5 84.5q-153 0 -257 -83t-153 -244zM303 869q0 -68 3 -128h269q147 0 244 14t164 58.5t102.5 118.5t37.5 196h-804q-16 -99 -16 -240v-19zM322 595q34 -223 135.5 -334.5t269.5 -111.5q132 0 195 51t63 161q0 46 -14.5 83.5t-39.5 62t-70.5 47.5t-118 32t-200.5 9h-220 zM836 1836z" />
<glyph unicode="b" horiz-adv-x="1246" d="M1261 1274v-146h-198v-1128h-165v193q-123 -51 -270 -51q-184 0 -322 92t-222 273q42 61 109.5 114.5t159.5 99.5q-117 50 -175 151.5t-58 255.5h-135v146h1276zM898 802v326h-610q0 -119 35 -191t94.5 -103.5t181.5 -31.5h299zM898 352v309h-258q-85 0 -143.5 -16.5 t-114 -52.5t-105.5 -94q60 -106 145 -156t206 -50q154 0 270 60z" />
<glyph unicode="c" horiz-adv-x="1345" d="M1162 1128v-775q0 -134 -43 -207t-118.5 -109.5t-198.5 -36.5q-242 0 -406 170.5t-190 425.5h-35q-52 0 -79 20.5t-27 57.5q0 46 34.5 100.5t88 93t96.5 38.5q42 0 65 -29t23 -85v-51h625v387h-1012v146h1375v-146h-198zM997 596h-625q11 -121 73.5 -225t159 -163 t203.5 -59q83 0 122.5 23.5t53 68t13.5 134.5v221zM897 0z" />
<glyph unicode="d" horiz-adv-x="1263" d="M372 741h543v387h-930v146h1293v-146h-198v-472l-60 -60h-648q1 -223 97 -334.5t287 -111.5q96 0 180.5 22.5t173.5 67.5l57 -146q-187 -94 -414 -94q-263 0 -404.5 151t-141.5 423v22h-36q-52 0 -79 20.5t-27 57.5q0 46 34.5 100.5t88 93t96.5 38.5q42 0 65 -29t23 -85 v-51z" />
<glyph unicode="e" horiz-adv-x="1141" d="M630 596q-95 0 -188.5 -48.5t-174.5 -149.5q78 -133 163 -190.5t205 -57.5q93 0 171.5 19.5t182.5 69.5l57 -145q-190 -94 -414 -94q-185 0 -321.5 98.5t-236.5 310.5q105 162 288 248q-126 56 -189 173.5t-63 297.5h-125v146h1171v-146h-186v-472l-60 -60h-280z M805 1128h-527q0 -124 31 -210t97.5 -131.5t195.5 -45.5h203v387zM570 0z" />
<glyph unicode="f" horiz-adv-x="1223" d="M856 223q44 34 66 81.5t22 109.5q0 82 -60.5 149.5t-169.5 99.5q-125 -24 -230 -24q-229 0 -229 116q0 104 179 104q148 0 297 -54q82 35 123 99.5t41 157.5q0 38 -4 66h-906v146h1253v-146h-183q6 -36 6 -67q0 -108 -41 -186t-136 -134q118 -61 173.5 -143t55.5 -193 q0 -192 -159.5 -298.5t-443.5 -106.5q-215 0 -326.5 66.5t-111.5 193.5q0 98 77.5 161.5t215.5 63.5q142 0 269 -68t222 -194zM718 162q-84 88 -170 132.5t-175 44.5q-69 0 -102.5 -22t-33.5 -62q0 -57 67.5 -85t202.5 -28q65 0 117.5 5t93.5 15zM576 0zM795 0z" />
<glyph unicode="g" horiz-adv-x="1536" d="M718 836v292h-733v146h1566v-146h-198v-1128h-165v1128h-305v-790q0 -136 -40.5 -204.5t-107 -101t-172.5 -32.5q-118 0 -224.5 65.5t-184.5 192.5t-78 270q0 97 50.5 173t137.5 105.5t242 29.5h212zM718 690h-179q-121 0 -177.5 -11.5t-88.5 -50t-32 -111.5 q0 -81 51 -173.5t123.5 -145t146.5 -52.5q65 0 96 19t45.5 57.5t14.5 137.5v330z" />
<glyph unicode="h" horiz-adv-x="1180" d="M540 683q-35 4 -78 4q-118 0 -169.5 -42t-51.5 -127q0 -84 66 -177t155.5 -142.5t187.5 -49.5q78 0 115.5 24.5t52 65.5t14.5 136v753h-847v146h1210v-146h-198v-775q0 -144 -49 -217t-123.5 -104.5t-192.5 -31.5q-132 0 -255.5 66t-212 192t-88.5 270q0 100 44.5 169.5 t125.5 104t221 34.5q48 0 85 -6zM732 0z" />
<glyph unicode="i" horiz-adv-x="530" d="M182 1128h-197v146h197v94q0 164 37.5 259.5t121.5 152t215 56.5q160 0 252 -94t92 -265q0 -54 -13 -136l-160 16q11 59 11 125q0 106 -45.5 158t-138.5 52q-77 0 -125.5 -40t-65 -106.5t-16.5 -172.5v-99h198v-146h-198v-1128h-165v1128z" />
<glyph unicode="j" horiz-adv-x="1253" d="M382 741h523v387h-920v146h1283v-146h-198v-1128h-165v596h-523v-596h-165v596h-36q-52 0 -79 20.5t-27 57.5q0 46 34.5 100.5t88 93t96.5 38.5q42 0 65 -29t23 -85v-51z" />
<glyph unicode="k" horiz-adv-x="1273" d="M1000 0q-9 119 -30 222t-54 189q-85 -109 -198.5 -163.5t-247.5 -54.5q-185 0 -291.5 95t-106.5 260q0 163 112 259.5t288 96.5q135 0 241 -47.5t192 -146.5q26 94 26 228q0 91 -20 190h-926v146h1303v-146h-211q6 -28 12.5 -88.5t6.5 -100.5q0 -214 -85 -378 q58 -99 96.5 -239t58.5 -322h-166zM848 555q-74 101 -164.5 152t-198.5 51q-115 0 -180 -55.5t-65 -155.5q0 -97 62 -152.5t169 -55.5q120 0 214 54t163 162zM1050 1274z" />
<glyph unicode="l" horiz-adv-x="1380" d="M1141 1128q-31 -163 -128 -316q142 -79 214.5 -185.5t72.5 -229.5q0 -108 -50 -201.5t-146 -144.5t-232 -51h-12l-10 150h22q128 0 196 64.5t68 176.5q0 93 -53 171.5t-161 134.5q-106 -114 -232 -185q-128 72 -234 185q-101 -53 -156.5 -130t-55.5 -168 q0 -117 67.5 -183t196.5 -66h22l-10 -150h-12q-137 0 -233 51.5t-145.5 144.5t-49.5 200q0 123 73.5 232t214.5 184q-102 154 -129 316h-254v146h1410v-146h-254zM407 1128q44 -274 283 -441q116 77 188.5 191t94.5 250h-566zM1141 1274zM690 0zM982 0zM448 666zM690 658z " />
<glyph unicode="m" horiz-adv-x="1220" d="M267 1274q63 -162 95 -314t33 -280h477v594h363v-146h-198v-1128h-165v534h-479q-9 -183 -55.5 -276t-121.5 -93q-51 0 -74.5 29.5t-23.5 89.5q0 67 32 152.5t93 152.5q-14 289 -105 539h-153v146h282z" />
<glyph unicode="n" horiz-adv-x="1328" d="M664 775q-204 -52 -312 -150t-108 -226q0 -122 66 -186t191 -64l-10 -149q-131 0 -223 51t-140 144.5t-48 201.5q0 170 130.5 303.5t371.5 197.5v230h-597v146h1358v-146h-597v-230q242 -64 372 -197.5t130 -303.5q0 -106 -46.5 -199t-139 -145.5t-225.5 -52.5l-10 149 q125 0 191 64t66 186q0 128 -108 226t-312 150zM746 1274zM664 0zM930 0zM662 752z" />
<glyph unicode="o" d="M-345 1259q-11 127 -46.5 181t-112.5 54q-20 0 -73 -5q-53 -6 -79 -6q-126 0 -197.5 78t-112.5 236l146 39q42 -134 78.5 -170.5t101.5 -36.5q26 0 76 5q49 5 76 5q143 0 215.5 -93.5t77.5 -286.5h-150zM-183 1274z" />
<glyph unicode="p" horiz-adv-x="1214" d="M866 333q-135 -62 -285 -62q-168 0 -294 102.5t-209 307.5q76 64 109.5 126t33.5 134q0 45 -13 96t-36 91h-187v146h305q44 -80 69 -167t25 -165q0 -171 -113 -273q64 -132 137.5 -190t173.5 -58q74 0 140 20t144 66v767h363v-146h-198v-1128h-165v333z" />
<glyph unicode="q" horiz-adv-x="1110" d="M26 132l67 150q98 -64 199.5 -98.5t215.5 -34.5q152 0 237.5 61t85.5 177q0 92 -57.5 161t-171.5 115q-125 -24 -231 -24q-229 0 -229 116q0 104 179 104q148 0 297 -54q82 33 123 93.5t41 149.5q0 44 -7 80h-790v146h1140v-146h-183q6 -43 6 -82q0 -105 -40 -177.5 t-136 -127.5q122 -67 175 -154t53 -202q0 -179 -132.5 -282t-355.5 -103q-131 0 -252.5 33t-233.5 99zM702 0z" />
<glyph unicode="r" horiz-adv-x="1185" d="M837 836v292h-852v146h1215v-146h-198v-775q0 -137 -44.5 -209.5t-121 -108t-201.5 -35.5q-131 0 -253.5 62.5t-214 192.5t-91.5 273q0 107 56 177t149.5 100.5t275.5 30.5h280zM837 690h-260q-133 0 -198 -13t-101.5 -51.5t-36.5 -108.5q0 -83 65.5 -175t155 -142.5 t180.5 -50.5q85 0 125 23t55 65t15 138v315zM737 0z" />
<glyph unicode="s" horiz-adv-x="1220" d="M-15 1274h1250v-146h-198v-1128h-165v534h-479q-9 -183 -55.5 -276t-121.5 -93q-51 0 -74.5 29.5t-23.5 89.5q0 67 32 152.5t93 152.5q-14 289 -105 539h-153v146zM313 1128q79 -246 82 -448h477v448h-559z" />
<glyph unicode="t" horiz-adv-x="1178" d="M830 863v265h-845v146h1208v-146h-198v-351l-60 -60h-78q-152 0 -223.5 -8t-131 -34.5t-117 -74.5t-128.5 -135q86 -169 181.5 -242t221.5 -73q98 0 175.5 20t208.5 80l57 -145q-122 -57 -224 -81t-217 -24q-196 0 -335 111t-255 368q131 172 235 251t202.5 106t249.5 27 h73zM597 0z" />
<glyph unicode="u" d="M-1017 -268l29 138q89 -51 176.5 -74t186.5 -23t186.5 23t177.5 74l29 -138q-82 -51 -184.5 -78t-208.5 -27t-207.5 27t-184.5 78zM-624 0zM-620 -555z" />
<glyph unicode="v" horiz-adv-x="1162" d="M1009 548v-146h-365q-81 0 -118.5 -2.5t-66.5 -15t-45 -37t-16 -58.5q0 -71 66 -106t199 -35q167 0 320 48l44 -150q-167 -46 -384 -46q-199 0 -304.5 73t-105.5 201q0 94 71 151q-101 24 -164.5 87.5t-63.5 175.5q0 67 29 117.5t83 81t121 39t180 8.5h325v194h-829v146 h1192v-146h-198v-280l-60 -60h-483q-71 0 -111 -8.5t-62 -34t-22 -63.5q0 -54 35 -83t99 -40t204 -11h430zM598 0z" />
<glyph unicode="w" horiz-adv-x="481" d="M496 1128h-180v-593h-165v593h-166v146h511v-146zM316 1274z" />
<glyph unicode="x" horiz-adv-x="1274" d="M702 747l61 122q-198 121 -346 259h-432v146h1304v-146h-653q215 -163 566 -313l-72 -140q-126 57 -231 115l-86 -169l-76 -32q-74 30 -158 30q-86 0 -157 -38t-162 -144q101 -166 204.5 -226.5t248.5 -60.5q113 0 200 20t236 80l57 -145q-132 -57 -245 -81t-241 -24 q-229 0 -378 99.5t-272 349.5q138 178 251 248.5t244 70.5q72 0 137 -21z" />
<glyph unicode="y" d="M-341 1259q-49 208 -146 314.5t-262 106.5h-37q-12 0 -20 -1l-9 155q18 2 51 2q233 0 375 -143t205 -434h-157zM-183 1274z" />
<glyph unicode="z" horiz-adv-x="1283" d="M382 741h553v387h-950v146h1313v-146h-198v-1128h-165v596h-553v-596h-165v596h-36q-52 0 -79 20.5t-27 57.5q0 46 34.5 100.5t88 93t96.5 38.5q42 0 65 -29t23 -85v-51zM658 216q49 0 81 -32.5t32 -84.5q0 -53 -31 -85t-82 -32q-50 0 -81.5 32.5t-31.5 84.5t32 84.5 t81 32.5z" />
<glyph unicode="{" horiz-adv-x="800" d="M507 -37q0 -78 39 -115.5t145 -39.5v-147q-172 3 -261 76.5t-89 211.5v472q0 101 -64.5 143t-186.5 42v152q122 0 186.5 42t64.5 143v473q0 136 89 210t261 77v-146q-106 -2 -145 -39.5t-39 -115.5v-471q0 -203 -216 -244v-11q216 -41 216 -243v-470zM253 1274zM248 1836 zM479 -548z" />
<glyph unicode="|" horiz-adv-x="1185" d="M833 330q55 49 83 107.5t28 125.5q0 64 -31 103t-89.5 56.5t-206.5 17.5h-374l-60 60v328h-198v146h1215v-146h-852v-242h313q166 0 255 -31.5t141 -101t52 -184.5q0 -100 -49.5 -194.5t-140.5 -164.5q39 -59 97 -184l-159 -43q-37 90 -72 149q-69 -29 -144.5 -43 t-157.5 -14q-195 0 -296 66.5t-101 193.5q0 98 79.5 161.5t218.5 63.5q128 0 238 -54t211 -176zM701 253q-69 80 -148.5 120.5t-168.5 40.5q-66 0 -99.5 -23t-33.5 -63q0 -58 60 -84.5t177 -26.5q58 0 111 9t102 27zM848 0z" />
<glyph unicode="}" horiz-adv-x="770" d="M293 433q0 202 217 243v11q-217 41 -217 244v471q0 79 -38.5 116t-144.5 39v146q173 -3 261.5 -77t88.5 -210v-473q0 -98 61.5 -141.5t189.5 -43.5v-152q-123 0 -187 -42t-64 -143v-472q0 -137 -89 -211t-261 -77v147q106 2 144.5 39t38.5 116v470zM253 1274zM248 1836z M479 -548z" />
<glyph unicode="~" horiz-adv-x="444" d="M672 1768q-6 -183 -81.5 -274t-220.5 -91q-148 0 -224 91t-81 274l154 9q0 -126 32.5 -181t116.5 -55q85 0 117.5 56.5t32.5 179.5zM-15 1128v146h474v-146h-474zM356 1836z" />
<glyph unicode="&#xa1;" horiz-adv-x="3039" d="M2276 1128q-6 -178 -88 -300.5t-240 -173.5q93 -45 144 -124t51 -171q0 -172 -107.5 -265.5t-309.5 -93.5q-293 0 -447 219t-154 644v38q0 123 14 227h-94v146h124q64 234 216.5 355.5t375.5 121.5q131 0 235.5 -49.5t169.5 -143.5q84 124 201.5 186t267.5 62 q202 0 332.5 -111t169.5 -311l-164 -18q-33 142 -123.5 216t-226.5 74q-135 0 -227.5 -65.5t-161.5 -211.5l-139 -13q-46 117 -132.5 176t-213.5 59q-150 0 -253 -82.5t-154 -244.5h1031v-146h-97zM2112 1128h-803q-16 -99 -16 -240v-19q0 -68 3 -128h269q182 0 271 18.5 t153 66.5t92 119.5t31 182.5zM1312 595q36 -225 136.5 -335.5t268.5 -110.5q132 0 195 51t63 161q0 46 -14.5 83.5t-39.5 62t-70.5 47.5t-118 32t-200.5 9h-220zM728 671q-106 -61 -245 -61q-164 0 -262 91t-98 249q0 148 104.5 246t277.5 98q142 0 232.5 -55.5t123 -125 t32.5 -199.5v-594q0 -89 14.5 -125t45.5 -50t91 -14l-20 -149q-82 0 -136.5 21t-89.5 58.5t-52.5 95t-17.5 161.5v353zM728 842v81q0 89 -28 132.5t-79 67.5t-123 24q-100 0 -154.5 -52.5t-54.5 -143.5t51 -142.5t143 -51.5q151 0 245 85zM836 1836z" />
<glyph unicode="&#xa2;" horiz-adv-x="1143" d="M952 234q-110 -56 -248 -60v-194h-134v200q-199 30 -293.5 165t-94.5 379q0 496 388 556v168h136v-160q148 -6 264 -58l-52 -146q-140 52 -238 52q-163 0 -240.5 -101.5t-77.5 -308.5q0 -208 78.5 -303t231.5 -95q87 0 153 17t127 43v-154z" />
<glyph unicode="&#xa3;" horiz-adv-x="1143" d="M668 1446q186 0 354 -82l-62 -140q-163 76 -288 76q-114 0 -174 -59t-60 -191v-278h408v-132h-408v-208q0 -94 -31.5 -161t-104.5 -111h768v-160h-1006v148q197 46 198 282v210h-192v132h192v296q0 177 109.5 277.5t296.5 100.5z" />
<glyph unicode="&#xa4;" d="M38 1768q-6 -183 -81 -274t-221 -91q-147 0 -223.5 91t-81.5 274l154 9q0 -126 32.5 -181t116.5 -55q85 0 117.5 56.5t32.5 179.5zM-183 1274zM-164 1836z" />
<glyph unicode="&#xa5;" horiz-adv-x="1143" d="M570 730l358 698h184l-402 -750h248v-128h-302v-164h302v-128h-302v-258h-172v258h-302v128h302v164h-302v128h244l-398 750h186z" />
<glyph unicode="&#xa7;" d="M-1075 -465l29 125q168 -97 353 -97l-18 17q-32 31 -55 81t-23 109q0 51 31 92.5t90.5 64t185.5 22.5l-5 -130q-67 0 -93 -5.5t-42 -21.5t-16 -45q0 -54 61 -107t133 -53q43 0 62.5 12t26.5 31.5t7 56.5v313h165v-287q0 -106 -28.5 -154t-77.5 -72.5t-136 -24.5 q-7 0 -14 1h-15q-111 -33 -229 -33q-106 0 -208 27t-184 78zM-1075 -701l29 126q90 -52 177 -74.5t186 -22.5q100 0 186 22.5t178 74.5l29 -126q-83 -51 -185 -78t-208 -27t-207.5 27t-184.5 78z" />
<glyph unicode="&#xa8;" d="M-1017 -433l29 125q90 -52 177 -74.5t186 -22.5q100 0 186.5 22.5t177.5 74.5l29 -125q-82 -51 -184.5 -78t-208.5 -27t-208 27t-184 78zM-1017 -701l29 126q90 -52 177 -74.5t186 -22.5q100 0 186 22.5t178 74.5l29 -126q-83 -51 -185 -78t-208 -27t-207.5 27t-184.5 78 z" />
<glyph unicode="&#xa9;" horiz-adv-x="1664" d="M872 1030q-116 0 -182 -83.5t-66 -232.5q0 -153 57 -235.5t189 -82.5q93 0 210 46v-128q-59 -26 -106.5 -37t-111.5 -11q-188 0 -291 117t-103 331q0 204 108.5 325t293.5 121q127 0 246 -60l-58 -122q-104 52 -186 52zM98 714q0 195 97.5 366t268.5 269.5t368 98.5 q195 0 366 -97.5t269.5 -268.5t98.5 -368q0 -192 -94.5 -361t-265.5 -271t-374 -102q-202 0 -373 101.5t-266 270.5t-95 362zM204 714q0 -168 84 -313.5t230 -230t314 -84.5t313.5 84t230 230t84.5 314t-84 313.5t-230 230t-314 84.5t-313.5 -84t-230 -230t-84.5 -314z" />
<glyph unicode="&#xaa;" horiz-adv-x="1208" />
<glyph unicode="&#xad;" horiz-adv-x="696" d="M100 524v168h496v-168h-496zM453 1274z" />
<glyph unicode="&#xae;" d="M-29 -548q-115 165 -247 232q-39 -40 -86.5 -60t-103.5 -20q-90 0 -137.5 32.5t-47.5 95.5q0 61 49 92.5t140 31.5q49 0 111 -11q3 20 3 41v114h165v-35q0 -117 -21 -164q149 -68 297 -269zM71 -402zM-274 -345z" />
<glyph unicode="&#xb0;" horiz-adv-x="740" d="M367 1477q125 0 215 -91.5t91 -215.5q1 -125 -90 -214.5t-218 -90.5q-124 -1 -215 90.5t-91 216.5q0 124 91.5 214.5t216.5 90.5zM367 1387q-88 0 -151.5 -63.5t-65.5 -152.5q-2 -87 62.5 -153t152.5 -67t152.5 64t66.5 153q2 89 -62.5 153.5t-154.5 65.5zM666 782v-106 h-598v106h598z" />
<glyph unicode="&#xb1;" horiz-adv-x="1224" d="M1013 651h-357v-357h-154v357h-357v154h357v357h154v-357h357v-154zM1098 158v-138h-1038v138h1038z" />
<glyph unicode="&#xb4;" horiz-adv-x="64" d="M222 -275h-244v-182q0 -74 -52 -74q-33 0 -74 32q-69 54 -64 58q-2 2 -2 8q0 17 28 88q32 82 34 100q12 114 -6 188h-136q14 -34 14 -94q0 -33 -2 -45q-4 -23 -6 -47q-2 -22 -34 -110q-28 -79 -26 -100q1 -7 2 -10q4 -42 60 -90q55 -46 100 -66q120 -52 168 -52 q93 0 110 122q4 28 7 66t3 86h121z" />
<glyph unicode="&#xb5;" d="M-141 1411q26 60 26 118q0 64 -39 97.5t-112 33.5t-111.5 -34t-38.5 -97q0 -58 26 -118l-140 -21q-33 80 -33 156q0 111 82 179t214 68q136 0 217.5 -67.5t81.5 -180.5q0 -74 -33 -155zM-183 1274zM-164 1836z" />
<glyph unicode="&#xb6;" horiz-adv-x="1309" d="M1098 -254h-116v1662h-204v-1662h-116v800q-61 -18 -142 -18q-211 0 -310.5 122t-99.5 368q0 254 106.5 378t333.5 124h548v-1774z" />
<glyph unicode="&#xb7;" horiz-adv-x="700" d="M330 712q53 0 91.5 -39t38.5 -93q0 -58 -47 -95q-39 -31 -83 -31t-82 30q-46 36 -46 96q0 55 37.5 93.5t90.5 38.5z" />
<glyph unicode="&#xbf;" horiz-adv-x="1128" d="M459 658l-318 319l105 105l317 -318l322 318l104 -103l-321 -321l319 -320l-102 -102l-322 317l-317 -315l-103 103zM453 1274z" />
<glyph unicode="&#xc5;" horiz-adv-x="2168" d="M1966 662q-285 202 -476 202q-165 0 -283 -140q-85 -100 -109 -212h957v-158h-60q-50 -151 -105 -233q-69 -103 -187 -174q215 -128 213 -321q0 -132 -81 -220q-96 -104 -276 -104q-292 0 -453 227q-132 186 -159 496q-12 127 -10 329h-67v158h68q19 215 177.5 361.5 t374.5 146.5q87 0 171 -24q117 -34 347 -181q51 -39 146 -123l-3 -169q-57 45 -185 139zM762 -200q0 -179 57 -318l70 -128q7 -11 7 -21q0 -31 -36 -31q-41 0 -80 29q-94 70 -145 221q-42 127 -42 266q0 104 22 272q-120 -70 -248 -70q-133 0 -232 79q-113 91 -113 241 q0 356 403 344q198 -6 286 -96q84 -87 84 -270q0 -23 -2 -48q0 -63 -9 -217q-22 -244 -22 -253zM530 213q99 49 101 137q2 177 -226 177q-229 0 -224 -179q2 -84 58 -131q52 -43 138 -43q74 0 153 39zM1094 354q0 -201 14 -344q368 0 431 22q121 43 188 122q54 63 108 200 h-741zM1133 -147q116 -402 418 -395q92 3 148 44q64 48 58 137q-4 72 -87 148.5t-159 76.5q-8 0 -16 -1q-70 -10 -362 -10z" />
<glyph unicode="&#xc6;" horiz-adv-x="2000" d="M2526 842q-9 -53 -62 -55q-76 -3 -91 95q-8 52 -8 150q0 279 -197 472t-477 193q-389 0 -780 -487q-110 -136 -251 -338q-137 -196 -169 -234q-160 -196 -320 -196q-70 0 -176 69q-19 12 -19 24q-2 64 -2 161q135 -97 197 -97q87 1 227 172q91 112 214 293 q120 175 154 216q220 261 391 387q253 187 534 187q344 0 588.5 -238t244.5 -582q0 -15 2 -64q1 -40 0 -65q0 1 0 -63z" />
<glyph unicode="&#xc7;" horiz-adv-x="1944" d="M1205 1700v-57q-49 0 -70.5 -25.5t-31.5 -81.5q165 -49 263 -181.5t98 -296.5q0 -146 -79.5 -270.5t-213.5 -188.5q20 -39 43 -74q-64 -29 -170 -42v-160q173 13 303 98t200.5 228.5t70.5 309.5q0 154 -27.5 271.5t-97.5 239.5q140 -92 233.5 -269t93.5 -390 q0 -239 -63 -453.5t-186 -383.5q-9 117 -80 188t-182 71q-60 0 -122 -23q116 -95 189 -200t73 -166q0 -50 -25.5 -80.5t-73.5 -30.5q-49 0 -78 30t-29 75q0 21 4 35.5t17 34.5q4 7 4 15q0 43 -43 109.5t-113 140.5q-68 -54 -68 -122q0 -74 39 -150q38 -76 38 -146 q0 -67 -44.5 -114t-104.5 -47q-59 0 -103 47t-44 114q0 71 38 146t38 150q0 68 -68 122q-70 -74 -113 -140.5t-43 -109.5q0 -8 4 -15q13 -20 17 -34.5t4 -35.5q0 -45 -29 -75t-78 -30q-48 0 -73.5 30.5t-25.5 80.5q0 61 71.5 164.5t191.5 201.5q-65 23 -122 23 q-112 0 -183 -71t-80 -188q-124 173 -187 385.5t-63 451.5q0 213 94 390t235 269q-69 -119 -97 -238.5t-28 -272.5q0 -167 70 -309.5t200.5 -228.5t302.5 -98v160q-105 13 -170 42q31 47 43 74q-134 64 -213.5 188.5t-79.5 270.5q0 164 98.5 296.5t262.5 181.5 q-10 57 -32 82t-70 25v57q35 0 63 12.5t59 38.5q33 28 54.5 39.5t47.5 11.5q23 0 45.5 -10t64.5 -41q33 -24 63.5 -37.5t67.5 -13.5zM825 718q59 172 59 397q0 153 -19 293q-118 -38 -187 -134t-69 -216q0 -110 58 -202t158 -138zM1080 1408q-18 -132 -18 -293 q0 -231 59 -397q99 45 157 136.5t58 203.5q0 120 -69 216t-187 134z" />
<glyph unicode="&#xcd;" d="M-175 -278v-117h-259q-41 0 -57 -12.5t-16 -34.5q0 -67 155 -67q89 0 176 22l34 -112q-94 -28 -233 -28q-132 0 -199.5 43t-67.5 121q0 50 29 83q-69 18 -103.5 59.5t-34.5 106.5q0 54 30 91t79.5 50.5t140.5 13.5h153v59h165v-127l-49 -49h-299q-40 0 -52.5 -4t-22 -14 t-9.5 -29q0 -26 21 -40.5t100 -14.5h319z" />
<glyph unicode="&#xce;" horiz-adv-x="1363" d="M1015 613h-266v-334q-97 -33 -212 -33q-167 0 -282 92.5t-227 316.5l146 69q71 -147 128.5 -215t111.5 -90.5t128 -22.5q18 0 42 4v359h431v369h-1030v146h1393v-146h-198v-1128h-165v613z" />
<glyph unicode="&#xcf;" horiz-adv-x="64" d="M-202 -54h-126v-218h-244v-182q0 -74 -52 -74q-36 0 -74 32q-70 52 -64 58q-2 2 -2 8q0 14 28 88q32 78 34 100q12 114 -6 188h-136q14 -34 14 -94q0 -22 -2 -45t-6 -47q-2 -22 -34 -110q-26 -72 -26 -100q0 -8 2 -10q0 -36 60 -90q52 -44 100 -66q120 -52 168 -52 q90 0 110 122q4 28 7 66t3 86h112v-328h134v668z" />
<glyph unicode="&#xd1;" d="M-530 1456q34 0 56.5 -21t22.5 -55t-21.5 -55t-57.5 -21q-35 0 -57 21t-22 55t22.5 55t56.5 21zM-345 1259q-16 134 -46.5 184.5t-97.5 50.5q-16 0 -61 -5q-44 -6 -72 -6q-107 0 -171 80t-103 234l146 39q30 -114 60.5 -160.5t81.5 -46.5q38 0 82 5t61 5q126 0 193.5 -95 t76.5 -285h-150zM-183 1274z" />
<glyph unicode="&#xd2;" horiz-adv-x="895" d="M570 0v1274h165v-1274h-165zM160 0v1274h165v-1274h-165z" />
<glyph unicode="&#xd3;" horiz-adv-x="2656" d="M1149 61q-1 97 40 179q25 51 106 162q48 -30 48 -105q0 -76 -49 -186q-39 -87 -83 -148q118 -211 148 -271q74 -145 120 -272q8 55 40 170q31 111 38 163q-16 37 -31 71q-25 44 -63 44q-10 0 -22 -2q-73 21 -73 87q0 37 29.5 64.5t66.5 27.5q78 0 78 -87q0 -11 -1 -31 t-1 -30q0 -63 42 -88q73 402 443 927q-29 73 -49 125q-33 85 -33 151q0 132 121 247q64 -102 64 -240q0 -92 -31 -167q22 36 102 139q61 79 59 91q-12 34 -12 71q0 102 76 197q80 100 179 100q48 0 82 -29t34 -77q0 -98 -113 -194q-108 -91 -209 -95l-184 -248 q110 50 207 50q158 0 229 -112q-62 -75 -200 -75q-70 0 -165 18l-118 23q-153 -243 -216 -359q-128 -237 -189 -445q65 98 243 210q204 129 356 129q15 0 30 -1q138 246 289 246q34 0 68 -16q-21 -124 -79 -182q-36 -36 -103 -54q-56 -15 -62 -30q120 -46 186 -160 q61 -106 61 -241q0 -109 -56 -183q-59 -78 -165 -90q-40 -4 -86 -4q-187 0 -175 48q5 19 35 19q22 0 64.5 -6.5t62.5 -7.5q143 -4 191 43q73 72 73 179q0 15 -3 41q-33 264 -230 324q85 -63 85 -188q0 -100 -73 -138q-127 65 -127 180q0 52 36 175q-240 -30 -436 -182 q-134 -104 -205 -221q8 -2 17 -2q20 0 57 12q45 15 56 17q34 78 102 78q66 0 75 -75q6 -42 -18 -76t-66 -34q-55 0 -99 66q-62 -15 -142 -37q-74 -309 -100 -401q65 97 109 126q56 37 160 37q25 0 79 -1q-13 -218 -330 -244l11 -43h-86l-22 43q-15 5 -33 5q-28 0 -86 -16 t-87 -16q-108 0 -189 157q118 24 205 24q127 0 176 -52q-2 11 -24 64q-90 54 -234 107q-128 48 -223 67l-59 -178q-65 -141 -182 -141q-21 0 -44 4q-7 66 -7 102q0 78 46 120l162 116q-105 5 -195 5q-130 0 -227 -11q-15 -105 -86 -195q-74 -92 -173 -121q-16 36 -16 78 q0 72 43 152q38 69 88 112q-139 22 -174 39q-74 34 -111 135q47 44 112 44q81 0 177 -65q76 -51 134 -120h359q-156 62 -203 260q32 36 71 36q80 0 181 -134q71 -95 110 -187q177 -37 431 -159q-77 144 -228 436q-97 -31 -174 -31q-131 0 -217 93q70 85 170 85q77 0 178 -49 q-23 41 -88 161q-41 75 -89 137q-136 175 -280 181q-186 8 -221 -110q-15 -52 -15 -93q0 -58 25 -100q30 -51 84 -51q9 0 18 1q4 -1 8 -1q18 0 45 40q2 7 2 15q0 11 -7.5 33.5t-7.5 31.5q0 14 19 18q16 3 27 -26q9 -23 9 -42q0 -75 -83 -120q-57 -31 -72 -36 q-49 -17 -115 -15q-37 -55 -98 -55q-34 0 -59 18q-74 49 -74 161q0 206 258 322q112 51 222 51q117 0 194 -63l1 16q-103 115 -265 288q-56 -6 -107 -56q-85 -84 -96 -92q-69 -47 -173 -47q-2 9 -2 19q0 22 16.5 64.5t16.5 63.5t-10 37q-80 0 -168 47q18 43 87 80 q78 41 95 65q-74 62 -150 240q101 9 289 -91q2 19 2 51v49q0 114 25 168q37 -12 80 -92q39 -72 68 -72q21 5 56.5 48.5t66.5 51.5q22 -66 22 -142q0 -33 -4 -66q31 -7 116 -12q68 -3 102 -24q-36 -108 -115 -160q-40 -27 -126 -50q-59 -17 -59 -44q290 -291 496 -614 q15 141 113 546q-83 48 -139 133q-61 90 -61 181q0 72 42 131q171 -68 192 -373q58 166 189 449q-35 -16 -81 -16q-72 0 -143 33q6 37 59 73q62 42 76 61q-76 35 -133 154q21 31 66 31q24 0 66 -11l60 -15q-10 77 -29 211q45 3 93 -35q13 -11 84 -72q29 12 72 67 q46 59 70 73q25 -16 37 -114q14 -122 16 -130q14 -4 32 -4q13 0 39 3.5t39 3.5q36 0 58 -26q1 -48 -34 -78q-23 -20 -69 -58q8 -13 77 -67q51 -40 51 -83q0 -8 -2 -16q-19 -5 -58 -1q-51 4 -58 4q-21 0 -34 -5q3 -10 22 -66q14 -37 14 -65q-14 -4 -27 -4q-31 0 -76 30 q-60 39 -74 46q-17 -58 -63 -173q-66 56 -109 225q-47 -78 -104 -222q-74 -189 -91 -222q40 8 138 61q84 44 134 44q68 0 133 -69q-65 -128 -245 -128q-49 0 -107 7q-74 10 -79 10q-30 -107 -123 -594q13 -32 37 -82zM394 1306l3 -168q11 -136 60 -155q-28 111 -28 152 q0 13 4 13q13 0 71 -145q7 71 -17 168q-31 123 -93 135zM538 958q99 104 99 225q0 38 -11 73q-91 -38 -91 -185q0 -18 1.5 -56t1.5 -57zM119 1173q52 -113 128 -187q95 -94 199 -94q0 6 -81 64q-85 61 -99 99q34 -14 87 -54q57 -45 84 -58q-91 172 -318 230zM597 939 q21 8 81 48q49 34 82 34q8 0 17 -1q-12 -21 -84 -57q-65 -33 -72 -55q144 0 222 153q-27 8 -61 8q-61 0 -117 -26q-70 -33 -70 -87q0 -8 2 -17zM92 837q70 -27 142 -27q83 0 142 35q-13 3 -28 3q-16 0 -46 -5t-46 -5q-33 0 -58 18q24 18 68 15q50 -4 69 4q-31 39 -99 39 q-43 0 -86 -18q-55 -22 -58 -59zM299 720l62 72q-42 0 -94 -40t-52 -80q0 -17 11 -29q173 62 209 158q-23 3 -69 -38.5t-67 -42.5zM422 455q-124 -97 -124 -203q0 -61 43.5 -110t104.5 -49q14 0 27 3q-96 86 -96 195q0 75 45 164zM205 108q29 -71 81 -71q15 0 30 9 q-6 27 -39 96q-26 56 -26 96q0 73 72 172q-133 -96 -133 -226q0 -38 15 -76zM2292 1129q71 99 90 120q57 65 107 76q-41 -81 -156 -219q82 30 149 90q78 70 78 135q0 30 -17 56q-22 9 -45 9q-85 0 -151 -93q-63 -88 -55 -174zM1663 1742q-27 -20 -57 -68q-35 -55 -35 -94 q0 -37 34 -51q71 -4 71 140q0 50 -13 73zM1430 1703l-3 -80q11 -30 23 -59q18 -35 49 -35q10 0 19 2q16 11 16 43q-1 30 -1 49q-31 80 -103 80zM1285 1552q0 -43 49.5 -79t92.5 -30q23 3 23 55q-54 59 -165 54zM1659 1510q-12 -17 -12 -29q0 -27 54 -27q78 0 124 75 q-39 21 -83 21q-55 0 -83 -40zM1548 1498q-61 -3 -61 -75q0 -11 2 -22q15 -35 76 -50q59 25 59 73q0 10 -3 24q-10 45 -73 50zM1659 1389q46 -75 153 -75q14 0 27 1q0 28 -53 65q-51 34 -85 34q-30 0 -42 -25zM1294 1313h93q57 2 78 38q-10 35 -57 35q-27 0 -74 -18 q-54 -21 -54 -43q0 -9 14 -12zM1609 1304q39 -93 121 -124q18 7 16 25q-7 41 -7 30q-9 30 -35 63q-31 38 -58 38q-23 0 -37 -32zM1506 1304l-8 -89q19 -54 20 -57q17 -31 44 -35q35 83 35 95q0 9 -2 17q0 28 -22 49.5t-50 21.5q-9 0 -17 -2z" />
<glyph unicode="&#xd4;" horiz-adv-x="2656" d="M1149 992q-1 -97 40 -179q25 -51 106 -162q48 31 48 105q0 76 -49 187q-39 86 -83 147q118 211 148 271q74 146 120 272q8 -55 40 -170q31 -111 38 -163q-16 -36 -31 -71q-25 -44 -63 -44q-10 0 -22 2q-73 -21 -73 -87q0 -36 29.5 -64t66.5 -28q78 0 78 87q0 11 -1 31 t-1 31q0 62 42 87q73 -402 443 -927q-29 -73 -49 -125q-33 -85 -33 -151q0 -131 121 -247q64 103 64 240q0 92 -31 167q22 -36 102 -139q61 -78 59 -91q-12 -34 -12 -71q0 -101 76 -197q80 -100 179 -100q48 0 82 29t34 77q0 98 -113 194q-108 91 -209 95l-184 248 q110 -50 207 -50q158 0 229 112q-62 76 -200 76q-70 0 -165 -19l-118 -23q-153 243 -216 359q-128 237 -189 445q65 -98 243 -210q204 -129 356 -129q15 0 30 1q138 -245 289 -245q34 0 68 15q-21 124 -79 182q-36 36 -103 54q-56 15 -62 30q120 46 186 160q61 106 61 241 q0 109 -56 183q-59 78 -165 90q-40 4 -86 4q-187 0 -175 -48q5 -19 35 -19q22 0 64.5 6.5t62.5 7.5q143 5 191 -43q73 -72 73 -179q0 -15 -3 -41q-33 -264 -230 -323q85 62 85 187q0 100 -73 138q-127 -64 -127 -180q0 -52 36 -175q-240 31 -436 182q-134 104 -205 221 q8 2 17 2q20 0 57 -12q45 -15 56 -17q34 -78 102 -78q66 0 75 76q6 41 -18 75t-66 34q-55 0 -99 -66q-62 15 -142 37q-74 309 -100 401q65 -97 109 -126q56 -37 160 -37q25 0 79 1q-13 218 -330 244l11 44h-86l-22 -44q-15 -4 -33 -4q-28 0 -86 15.5t-87 15.5 q-108 0 -189 -157q118 -24 205 -24q127 0 176 52q-2 -11 -24 -64q-90 -54 -234 -107q-128 -48 -223 -67l-59 178q-65 141 -182 141q-21 0 -44 -4q-7 -66 -7 -102q0 -78 46 -120l162 -116q-105 -4 -195 -4q-130 0 -227 10q-15 105 -86 195q-74 92 -173 122q-16 -36 -16 -79 q0 -72 43 -152q38 -69 88 -112q-139 -22 -174 -39q-74 -34 -111 -135q47 -44 112 -44q81 0 177 65q76 51 134 120h359q-156 -62 -203 -260q32 -36 71 -36q80 0 181 134q71 95 110 187q177 37 431 159q-77 -144 -228 -436q-97 31 -174 31q-131 0 -217 -92q70 -86 170 -86 q77 0 178 50q-23 -41 -88 -162q-41 -75 -89 -137q-136 -175 -280 -181q-186 -8 -221 110q-15 52 -15 93q0 58 25 100q30 51 84 51q9 0 18 -1q4 1 8 1q18 0 45 -39q2 -8 2 -16q0 -11 -7.5 -33.5t-7.5 -31.5q0 -14 19 -18q16 -3 27 26q9 23 9 42q0 75 -83 120q-57 31 -72 36 q-49 18 -115 15q-37 55 -98 55q-34 0 -59 -17q-74 -50 -74 -162q0 -206 258 -322q112 -50 222 -50q117 0 194 62l1 -15q-103 -116 -265 -289q-56 6 -107 56q-85 84 -96 92q-69 47 -173 47q-2 -9 -2 -19q0 -22 16.5 -64.5t16.5 -63.5q0 -20 -10 -37q-80 0 -168 -47 q18 -43 87 -79q78 -41 95 -66q-74 -62 -150 -240q101 -9 289 92q2 -20 2 -52v-49q0 -113 25 -168q37 12 80 92q39 72 68 72q21 -5 56.5 -48.5t66.5 -51.5q22 66 22 142q0 33 -4 66q31 8 116 12q68 3 102 24q-36 109 -115 160q-40 27 -126 51q-59 16 -59 43q290 291 496 614 q15 -141 113 -546q-83 -48 -139 -133q-61 -90 -61 -180q0 -72 42 -131q171 67 192 372q58 -166 189 -449q-35 17 -81 17q-72 0 -143 -34q6 -37 59 -72q62 -43 76 -62q-76 -35 -133 -154q21 -31 66 -31q24 0 66 11l60 15q-10 -76 -29 -211q45 -3 93 35q13 11 84 72 q29 -12 72 -67q46 -59 70 -72q25 16 37 113q14 122 16 130q14 4 32 4q13 0 39 -3.5t39 -3.5q36 0 58 26q1 48 -34 79l-69 57q8 13 77 67q51 40 51 83q0 8 -2 16q-19 5 -58 2q-51 -5 -58 -5q-21 0 -34 6q3 9 22 65q14 37 14 66q-14 3 -27 3q-31 0 -76 -30q-60 -39 -74 -45 q-17 57 -63 172q-66 -56 -109 -225q-47 78 -104 222q-74 189 -91 223q40 -9 138 -62q84 -44 134 -44q68 0 133 70q-65 127 -245 127q-49 0 -107 -7q-74 -10 -79 -10q-30 107 -123 594q13 33 37 82zM394 -253l3 168q11 136 60 155q-28 -111 -28 -152q0 -13 4 -13q13 0 71 145 q7 -71 -17 -168q-31 -123 -93 -135zM538 95q99 -103 99 -225q0 -38 -11 -73q-91 38 -91 185q0 19 1.5 56.5t1.5 56.5zM119 -120q52 113 128 188q95 93 199 93q0 -6 -81 -64q-85 -61 -99 -99q34 14 87 55q57 44 84 58q-91 -173 -318 -231zM597 114q21 -8 81 -48 q49 -34 82 -34q8 0 17 1q-12 21 -84 57q-65 33 -72 55q144 0 222 -152q-27 -9 -61 -9q-61 0 -117 26q-70 33 -70 87q0 8 2 17zM92 216q70 27 142 27q83 0 142 -35q-13 -2 -28 -2q-16 0 -46 4.5t-46 4.5q-33 0 -58 -18q24 -17 68 -14q50 3 69 -5q-31 -39 -99 -39 q-43 0 -86 18q-55 23 -58 59zM299 333l62 -72q-42 0 -94 40t-52 80q0 17 11 29q173 -61 209 -158q-23 -2 -69 39t-67 42zM422 599q-124 96 -124 202q0 61 43.5 110t104.5 49q14 0 27 -3q-96 -85 -96 -195q0 -75 45 -163zM205 945q29 71 81 71q15 0 30 -9q-6 -27 -39 -96 q-26 -55 -26 -96q0 -73 72 -172q-133 97 -133 226q0 38 15 76zM2292 -76q71 -98 90 -120q57 -65 107 -76q-41 81 -156 219q82 -30 149 -90q78 -70 78 -135q0 -30 -17 -56q-22 -9 -45 -9q-85 0 -151 93q-63 88 -55 174zM1663 -689q-27 21 -57 68q-35 55 -35 94q0 37 34 51 q71 5 71 -140q0 -50 -13 -73zM1430 -649l-3 79q11 30 23 59q18 35 49 35q10 0 19 -2q16 -11 16 -43q-1 -30 -1 -49q-31 -79 -103 -79zM1285 -499q0 43 49.5 79t92.5 30q23 -3 23 -55q-54 -59 -165 -54zM1659 -457q-12 17 -12 30q0 27 54 27q78 0 124 -76q-39 -21 -83 -21 q-55 0 -83 40zM1548 -445q-61 3 -61 75q0 11 2 22q15 35 76 50q59 -25 59 -73q0 -10 -3 -24q-10 -45 -73 -50zM1659 -336q46 75 153 75q14 0 27 -1q0 -28 -52 -63.5t-86 -35.5q-30 0 -42 25zM1294 -260h93q57 -1 78 -38q-10 -35 -57 -35q-27 0 -74 18q-54 21 -54 43 q0 9 14 12zM1609 -251q39 93 121 125q18 -8 16 -26q-7 -41 -7 -30q-9 -30 -35 -63q-31 -38 -58 -38q-23 0 -37 32zM1506 -251l-8 90q19 53 20 56q17 31 44 35q35 -83 35 -95q0 -8 -2 -17q0 -28 -22 -49.5t-50 -21.5q-9 0 -17 2z" />
<glyph unicode="&#xd7;" horiz-adv-x="1128" d="M459 658l-318 319l105 105l317 -318l322 318l104 -103l-321 -321l319 -320l-102 -102l-322 317l-317 -315l-103 103zM453 1274z" />
<glyph unicode="&#xd8;" horiz-adv-x="386" d="M426 1198v-160h-450v160h450z" />
<glyph unicode="&#xda;" horiz-adv-x="830" d="M415 1274q132 0 210.5 -72.5t78.5 -194.5q0 -123 -77.5 -195t-211.5 -72q-132 0 -210.5 72t-78.5 195q0 119 79 193t210 74zM415 870q65 0 103.5 38t38.5 99t-38.5 99t-103.5 38t-103.5 -37.5t-38.5 -99.5t38 -99.5t104 -37.5zM415 534q132 0 210.5 -72.5t78.5 -194.5 q0 -123 -77.5 -195t-211.5 -72q-132 0 -210.5 72t-78.5 195q0 119 79 193t210 74zM415 130q65 0 103.5 38t38.5 99t-38.5 99t-103.5 38t-103.5 -37.5t-38.5 -99.5t38 -99.5t104 -37.5z" />
<glyph unicode="&#xe5;" horiz-adv-x="1398" d="M291 1520q23 -24 65 -47q48 -28 76 -26q24 3 246 145l256 166q158 95 366 95q212 0 380 -97t233 -263q15 -38 15 -68q0 -65 -59 -65q-44 0 -79 70q-141 284 -469 282q-111 -1 -177 -19q-57 -16 -163 -72q-75 -39 -200 -128q-142 -102 -198 -136q-88 -53 -159 -53 q-72 0 -150 50q-47 30 -133 108q-84 75 -125 100q-110 68 -272 62l38 136q159 6 283 -59q96 -51 226 -181z" />
<glyph unicode="&#xe6;" d="M-579 -158q49 0 81 -32.5t32 -84.5q0 -53 -31 -85t-82 -32q-50 0 -81.5 32.5t-31.5 84.5t32 84.5t81 32.5z" />
<glyph unicode="&#xe7;" horiz-adv-x="64" d="M-196 -510v456h-128v-226h-292v64q0 50 -62 50q-88 0 -136 -64q-38 -46 -38 -114q0 -52 38 -52h86q14 -52 27 -106t27 -106q50 -124 202 -134q160 -10 230 88q46 64 46 144zM-328 -506q0 -114 -114 -114q-20 0 -30 2q-52 6 -72 30q-14 12 -28 52q-12 42 -21 76t-13 60 h278v-106z" />
<glyph unicode="&#xf7;" horiz-adv-x="1128" d="M563 1143q55 0 85 -32t30 -93q0 -60 -31 -92.5t-84 -32.5q-54 0 -84 33.5t-30 91.5q0 61 29.5 93t84.5 32zM102 585v150h924v-150h-924zM563 445q55 0 85 -32t30 -93q0 -60 -31 -92.5t-84 -32.5q-54 0 -84 33.5t-30 91.5q0 61 29.5 93t84.5 32zM453 1274z" />
<glyph unicode="&#xfc;" d="M-1017 -482l29 138q89 -51 176.5 -74t186.5 -23t186.5 23t177.5 74l29 -138q-82 -51 -184.5 -78t-208.5 -27t-207.5 27t-184.5 78zM-640 -806z" />
<glyph unicode="&#xff;" horiz-adv-x="1700" d="M1682 -62h-1678v1258h1678v-1258zM1202 1046q-10 108 -90 108q-39 0 -65 -40q-21 -31 -25 -68q-2 -18 -2 -36q0 -58 21 -100q17 -33 35 -38q3 28 -4 47q-8 23 -8 87q0 72 48 72q34 0 46 -72q3 -16 3 -32q0 -20 -5.5 -47.5t-5.5 -38.5q0 -8 2 -16q51 14 51 143q0 16 -1 31 zM1644 702v108h-870q0 18 0.5 119.5t49.5 95.5q50 -8 42 -139h70q0 244 -104 260q-8 1 -15 1q-56 0 -89 -65q-29 -54 -29 -118v-154h-55v-108h55l1 -692h74v692q87 2 90 0q28 -49 17 -214q-7 -121 -37 -200q-15 -41 -15 -45q0 -29 39 -81q58 -77 122 -77q36 0 67 24 q26 20 33 41v-140h78v692h340v-236h-142v58q0 57 -27 57q-23 0 -52.5 -36.5t-38.5 -72.5q-8 -31 -7 -71q2 -49 19 -49h50q0 -118 12 -174q19 -87 70 -128q57 -46 89 -46q45 0 95 76q22 33 20 76q0 11 -3 11q-2 0 -33 -35q-37 -42 -64 -42q-13 0 -32 6q-33 11 -58 90 q-14 45 -14 166h200v350h52zM470 702v108h-426v-108h310q0 -96 -38 -242q-8 24 -26 62q-44 66 -91 66q-17 0 -45 -10q-48 -17 -77 -88.5t-29 -167.5q0 -109 38 -179q34 -63 74 -63q64 0 83.5 16.5t72.5 121.5q26 -44 32 -136q4 -72 12 -72q8 -3 40 -2q30 0 34 2 q0 71 -24 184q-12 55 -28 113q-11 37 -10 45q46 151 60 350h38zM1090 516h-134q2 49 -4 110l-8 76h146v-186zM1090 408v-162q-45 -70 -82 -70q-44 0 -84 66q-11 19 -11 28q0 5 7.5 20t11.5 34q6 38 18 84h140zM292 342q-13 -36 -80 -144q-20 -4 -32 -4q-46 0 -56 84 q-3 21 -3 45q0 120 55 147q9 4 18 4q34 0 68 -53q30 -47 30 -79zM488 122q0 47 16.5 80.5t39.5 33.5t39.5 -33.5t16.5 -80.5t-16.5 -80.5t-39.5 -33.5t-39.5 33.5t-16.5 80.5z" />
<glyph unicode="&#x152;" horiz-adv-x="2656" d="M1793 707q-97 1 -179 -40q-51 -24 -162 -105q31 -49 105 -49q76 0 187 50q86 38 147 83q211 -119 271 -149q146 -74 272 -120q-55 -8 -170 -40q-111 -31 -163 -38q-36 16 -71 31q-44 25 -44 63q0 10 2 22q-21 73 -87 73q-36 0 -64 -29.5t-28 -66.5q0 -78 87 -78 q11 0 31 1t31 1q62 0 87 -42q-402 -73 -927 -443q-73 29 -125 49q-85 33 -151 33q-131 0 -247 -121q102 -64 240 -64q92 0 167 31q-36 -22 -139 -102q-78 -61 -91 -59q-34 12 -71 12q-101 0 -197 -76q-100 -80 -100 -179q0 -48 29 -82t77 -34q98 0 194 113q91 108 95 209 l248 184q-50 -109 -50 -207q0 -158 112 -229q75 62 75 200q0 70 -18 165l-23 118q243 153 359 216q237 128 445 189q-98 -65 -210 -243q-129 -204 -129 -356q0 -15 1 -30q-245 -138 -245 -288q0 -35 15 -69q124 21 182 79q36 36 54 103q15 56 30 62q46 -120 160 -186 q106 -60 241 -60q109 0 183 55q78 59 90 165q4 40 4 86q0 187 -48 175q-19 -5 -19 -35q0 -22 6 -63q7 -44 8 -63q4 -144 -43 -192q-72 -73 -179 -73q-15 0 -41 4q-264 32 -323 229q62 -85 187 -85q100 0 138 73q-65 128 -180 128q-52 0 -175 -36q31 239 182 435 q104 134 221 206q2 -9 2 -18q0 -20 -12 -57q-15 -45 -17 -55q-78 -35 -78 -103q0 -66 75 -75q42 -6 76 18t34 66q0 55 -66 99q15 62 37 142q309 74 401 100q-97 -65 -126 -109q-37 -55 -37 -160q0 -25 1 -79q218 13 244 330l44 -11v86l-44 22q-4 15 -4 33q0 28 15.5 86 t15.5 87q0 109 -157 189q-24 -118 -24 -205q0 -127 52 -176q-11 2 -64 24q-54 90 -107 234q-48 128 -67 223l178 59q141 65 141 182q0 21 -4 44q-66 7 -102 7q-78 0 -120 -45l-116 -163q-4 105 -4 195q0 130 10 227q105 15 196 87.5t121 171.5q-37 17 -79 17q-72 0 -152 -44 q-66 -36 -112 -87q-22 138 -39 173q-34 74 -135 112q-44 -47 -44 -113q0 -80 65 -177q51 -76 120 -134v-359q-62 156 -260 203q-36 -32 -36 -71q0 -80 134 -180q95 -71 187 -111q37 -177 159 -431q-144 78 -436 228q31 97 31 174q0 131 -92 217q-86 -70 -86 -170 q0 -77 49 -178q-40 23 -161 88q-75 41 -137 89q-175 136 -181 280q-8 186 110 221q52 15 93 15q58 0 100 -25q51 -30 51 -84q0 -9 -1 -17q1 -5 1 -9q0 -18 -39 -45q-8 -2 -16 -2q-11 0 -33.5 7.5t-31.5 7.5q-14 0 -18 -18q-3 -17 26 -28q23 -8 42 -8q75 0 120 82 q31 57 36 73q18 48 15 114q55 37 55 98q0 34 -17 59q-50 74 -162 74q-206 0 -322 -258q-50 -112 -50 -222q0 -117 62 -194l-15 -1q-116 104 -289 265q6 57 56 107q84 85 92 96q47 69 47 173q-9 2 -19 2q-22 0 -64.5 -16.5t-63.5 -16.5q-20 0 -37 10q0 80 -47 168 q-43 -17 -79 -87q-41 -78 -66 -95q-62 74 -240 151q-9 -102 92 -290q-20 -2 -52 -2h-49q-114 0 -168 -25q12 -37 92 -80q72 -39 72 -68q-5 -21 -48.5 -56.5t-51.5 -66.5q66 -22 142 -22q33 0 66 5q8 -31 12 -117q3 -68 24 -102q109 36 160 115q27 40 51 127q16 58 43 58 q291 -290 614 -496q-141 -15 -546 -113q-48 83 -133 140q-90 60 -180 60q-73 0 -131 -42q67 -171 372 -192q-166 -58 -449 -189q16 35 16 81q0 72 -33 143q-37 -6 -72 -59q-43 -62 -62 -76q-35 76 -154 133q-31 -21 -31 -65q0 -25 11 -67l15 -60q-76 10 -211 29 q-3 -44 35 -92q11 -14 72 -85q-12 -28 -67 -72q-59 -46 -73 -69q17 -26 114 -38q122 -14 130 -16q4 -14 4 -32q0 -13 -3.5 -39t-3.5 -39q0 -36 26 -58q48 -1 79 34q19 23 57 70q13 -9 67 -78q40 -51 83 -51q8 0 16 2q5 20 1 58q-4 51 -4 58q0 22 6 35q9 -4 65 -23 q37 -13 66 -13q3 13 3 26q0 31 -30 76q-39 60 -45 74q57 17 172 63q-56 66 -225 109q78 47 222 104q189 75 223 91q-9 -40 -62 -138q-44 -84 -44 -134q0 -68 70 -133q127 65 127 245q0 49 -7 107q-10 74 -10 80q107 29 594 122q33 -13 82 -37zM548 1462l168 -3 q136 -11 155 -60q-111 28 -152 28q-13 0 -13 -4q0 -13 145 -71q-71 -6 -168 18q-123 30 -135 92zM896 1318q-104 -99 -225 -99q-38 0 -73 11q38 92 185 92q19 0 56.5 -2t56.5 -2zM681 1738q113 -53 188 -129q93 -94 93 -199q-6 0 -64 81q-61 85 -99 99q14 -34 55 -87 q44 -57 58 -84q-173 91 -231 319zM915 1259q-8 -21 -48 -81q-34 -49 -34 -81q0 -9 1 -18q21 12 57 84q33 65 55 72q0 -144 -152 -221q-9 26 -9 60q0 61 26 117q33 70 87 70q8 0 17 -2zM1017 1764q27 -70 27 -142q0 -83 -35 -142q-2 13 -2 28q0 16 4.5 46.5t4.5 45.5 q0 33 -18 58q-17 -24 -14 -68q3 -50 -5 -69q-39 31 -39 99q0 43 18 87q23 54 59 57zM1134 1557l-72 -62q0 42 40 94t80 52q17 0 29 -10q-61 -174 -158 -210q-2 23 39 69t42 67zM1400 1434q96 124 202 124q61 0 109 -42q50 -45 50 -106q0 -14 -3 -27q-85 96 -195 96 q-75 0 -163 -45zM1746 1651q71 -29 71 -81q0 -15 -9 -30q-27 6 -96 39q-55 26 -96 26q-73 0 -172 -72q96 134 226 134q38 0 76 -16zM725 -435q-98 -72 -120 -91q-65 -56 -76 -107q81 41 219 156q-30 -82 -90 -148q-70 -79 -135 -79q-30 0 -56 17q-9 22 -9 45q0 85 93 151 q88 63 174 56zM112 194q20 26 68 56q55 35 94 35q37 0 51 -34q5 -71 -140 -71q-50 0 -73 14zM152 426l79 3q30 -11 59 -23q35 -18 35 -49q0 -10 -2 -19q-11 -16 -43 -16q-30 1 -49 1q-79 31 -79 103zM302 571q43 0 79 -49.5t30 -92.5q-3 -23 -55 -23q-59 54 -54 165z M344 197q17 12 30 12q26 0 26 -54q0 -78 -75 -124q-21 39 -21 83q0 55 40 83zM356 308q3 61 75 61q11 0 22 -2q35 -15 50 -76q-25 -59 -73 -59q-10 0 -24 3q-45 10 -50 73zM465 197q75 -46 75 -153q0 -14 -1 -27q-28 0 -63.5 52t-35.5 86q0 30 25 42zM541 563v-94 q-1 -57 -38 -78q-35 10 -35 57q0 28 18 74q21 54 43 54q9 0 12 -13zM550 247q93 -39 125 -121q-8 -18 -26 -15q-41 6 -30 6q-30 9 -63 36q-38 30 -38 57q0 23 32 37zM550 350l90 8q53 -19 56 -20q31 -16 35 -44q-83 -35 -95 -35q-8 0 -17 2q-28 0 -49.5 22t-21.5 50 q0 9 2 17z" />
<glyph unicode="&#x153;" horiz-adv-x="64" d="M-198 -52h-136q-28 -108 -60 -146q-36 -44 -100 -44q-38 0 -84 8l-39 6t-11 2l-13 1t-25 1q-104 0 -106 -80q-4 -88 98 -88q10 0 19 1t19 3q116 18 120 18q50 0 114 -42q62 -42 64 -84q2 -8 2 -24q0 -92 -140 -92q-38 0 -64 8q-50 12 -114 50q-14 8 -28 17t-28 19 q-50 26 -74 26q-16 0 -16 -14q0 -40 102 -126q106 -92 182 -92q316 0 314 222q-4 108 -136 194q60 52 92 112t48 144z" />
<glyph unicode="&#x192;" horiz-adv-x="1328" d="M664 775q-204 -52 -312 -150t-108 -226q0 -122 66 -186t191 -64l-10 -149q-131 0 -223 51t-140 144.5t-48 201.5q0 170 130.5 303.5t371.5 197.5v230h-597v146h1358v-146h-597v-230q242 -64 372 -197.5t130 -303.5q0 -106 -46.5 -199t-139 -145.5t-225.5 -52.5l-10 149 q125 0 191 64t66 186q0 128 -108 226t-312 150zM662 752zM788 1411q26 60 26 118q0 64 -39 97.5t-112 33.5t-111.5 -34t-38.5 -97q0 -58 26 -118l-140 -21q-33 80 -33 156q0 111 82 179t214 68q136 0 217.5 -67.5t81.5 -180.5q0 -74 -33 -155zM765 1836zM271 -215l29 125 q90 -52 177 -74.5t186 -22.5q100 0 186.5 22.5t177.5 74.5l29 -125q-82 -51 -184.5 -78t-208.5 -27t-208 27t-184 78zM271 -483l29 126q90 -52 177 -74.5t186 -22.5q100 0 186 22.5t178 74.5l29 -126q-83 -51 -185 -78t-208 -27t-207.5 27t-184.5 78zM678 -806z" />
<glyph unicode="&#x2c6;" d="M-266 1710q49 0 81 -32.5t32 -84.5q0 -53 -31 -85t-82 -32q-50 0 -81.5 32.5t-31.5 84.5t32 84.5t81 32.5zM-183 1274zM-266 1836z" />
<glyph unicode="&#x2dc;" horiz-adv-x="64" d="M-384 -54h-142v-144q-102 -16 -172 -100q-68 -78 -66 -164q4 -216 224 -288v132q-90 32 -90 158q0 64 54 104q50 36 120 36q98 0 146 -60q34 -44 34 -80q0 -122 -96 -158v-132q216 72 222 288q2 84 -64 164q-70 82 -170 100v144z" />
<glyph unicode="&#x965;" horiz-adv-x="1226" d="M848 0v1274h165v-1274h-165zM398 0v1274h165v-1274h-165z" />
<glyph unicode="&#xa01;" d="M-266 1836q47 0 77 -30.5t30 -80.5q0 -51 -29.5 -81t-77.5 -30q-46 0 -76.5 30.5t-30.5 80.5t30 80.5t77 30.5zM116 1758q-22 -188 -119.5 -286t-260.5 -98q-168 0 -267.5 100.5t-115.5 283.5l148 19q15 -136 71 -200.5t162 -64.5q107 0 163.5 64.5t70.5 200.5z M-183 1274z" />
<glyph unicode="&#xa02;" d="M-266 1710q49 0 81 -32.5t32 -84.5q0 -53 -31 -85t-82 -32q-50 0 -81.5 32.5t-31.5 84.5t32 84.5t81 32.5zM-183 1274zM-266 1836z" />
<glyph unicode="&#xa03;" horiz-adv-x="830" d="M415 1274q132 0 210.5 -72.5t78.5 -194.5q0 -123 -77.5 -195t-211.5 -72q-132 0 -210.5 72t-78.5 195q0 119 79 193t210 74zM415 870q65 0 103.5 38t38.5 99t-38.5 99t-103.5 38t-103.5 -37.5t-38.5 -99.5t38 -99.5t104 -37.5zM415 534q132 0 210.5 -72.5t78.5 -194.5 q0 -123 -77.5 -195t-211.5 -72q-132 0 -210.5 72t-78.5 195q0 119 79 193t210 74zM415 130q65 0 103.5 38t38.5 99t-38.5 99t-103.5 38t-103.5 -37.5t-38.5 -99.5t38 -99.5t104 -37.5z" />
<glyph unicode="&#xa05;" horiz-adv-x="1520" d="M1172 723q-85 -22 -160.5 -56.5t-141.5 -82.5q-3 -173 -49 -267.5t-122 -94.5q-100 0 -100 118q0 74 36 160t94 149q-8 103 -24.5 179t-40.5 125q-159 -59 -278 -154q-5 -175 -50 -269.5t-124 -94.5q-51 0 -74.5 29.5t-23.5 89.5q0 74 35.5 159t92.5 146q-6 92 -23.5 159 t-47.5 110h-186v146h310q39 -90 59 -170.5t20 -150.5q61 53 171.5 105t220.5 76q38 -63 65 -174.5t32 -213.5q65 45 142 79t167 56v393h363v-146h-198v-1128h-165v723zM603 0zM766 988zM863 600zM1172 735zM374 807z" />
<glyph unicode="&#xa06;" horiz-adv-x="2001" d="M1172 723q-85 -22 -160.5 -56.5t-141.5 -82.5q-3 -173 -49 -267.5t-122 -94.5q-100 0 -100 118q0 74 36 160t94 149q-8 103 -24.5 179t-40.5 125q-159 -59 -278 -154q-5 -175 -50 -269.5t-124 -94.5q-51 0 -74.5 29.5t-23.5 89.5q0 74 35.5 159t92.5 146q-6 92 -23.5 159 t-47.5 110h-186v146h310q39 -90 59 -170.5t20 -150.5q61 53 171.5 105t220.5 76q38 -63 65 -174.5t32 -213.5q65 45 142 79t167 56v393h844v-146h-180v-593h-165v593h-334v-1128h-165v723zM1836 1274zM603 0zM766 988zM863 600zM1172 735zM374 807z" />
<glyph unicode="&#xa07;" horiz-adv-x="1671" d="M182 1128h-197v146h197v94q0 164 37.5 259.5t121.5 152t215 56.5q160 0 252 -94t92 -265q0 -54 -13 -136l-160 16q11 59 11 125q0 106 -45.5 158t-138.5 52q-77 0 -125.5 -40t-65 -106.5t-16.5 -172.5v-99h1339v-146h-186v-472l-60 -60h-280q-95 0 -188.5 -48.5 t-174.5 -149.5q78 -133 163 -190.5t205 -57.5q93 0 171.5 19.5t182.5 69.5l57 -145q-190 -94 -414 -94q-185 0 -321.5 98.5t-236.5 310.5q52 81 124 143t164 105q-126 56 -189 173.5t-63 297.5h-293v-1128h-165v1128zM1335 1128h-527q0 -124 31 -210t97.5 -131.5 t195.5 -45.5h203v387zM1500 1274zM1100 0z" />
<glyph unicode="&#xa08;" horiz-adv-x="1671" d="M1488 0h-165v1128h-353v-472l-60 -60h-280q-95 0 -188.5 -48.5t-174.5 -149.5q78 -133 163 -190.5t205 -57.5q93 0 171.5 19.5t182.5 69.5l57 -145q-190 -94 -414 -94q-185 0 -321.5 98.5t-236.5 310.5q52 81 124 143t164 105q-126 56 -189 173.5t-63 297.5h-125v146 h1338v65q0 148 -17 214t-60.5 102.5t-117.5 36.5q-99 0 -148 -53t-49 -163q0 -51 12 -119l-160 -16q-14 97 -14 137q0 166 98 262t266 96q136 0 216.5 -59t109.5 -152.5t29 -256.5v-94h198v-146h-198v-1128zM805 1128h-527q0 -124 31 -210t97.5 -131.5t195.5 -45.5h203v387z M570 0z" />
<glyph unicode="&#xa09;" horiz-adv-x="1356" d="M1287 1128q-6 -180 -88.5 -302t-240.5 -172q93 -45 144 -124t51 -171q0 -172 -107.5 -265.5t-309.5 -93.5q-293 0 -447 219t-154 644v38q0 123 14 227h-164v146h191q65 239 219 358t377 119q213 0 347.5 -123t161.5 -354h90v-146h-84zM349 1274h767q-22 158 -113.5 242.5 t-243.5 84.5q-153 0 -257 -83t-153 -244zM303 869q0 -68 3 -128h269q147 0 244 14t164 58.5t102.5 118.5t37.5 196h-804q-16 -99 -16 -240v-19zM322 595q34 -223 135.5 -334.5t269.5 -111.5q132 0 195 51t63 161q0 46 -14.5 83.5t-39.5 62t-70.5 47.5t-118 32t-200.5 9h-220 zM836 1836zM295 -268l29 138q89 -51 176.5 -74t186.5 -23t186.5 23t177.5 74l29 -138q-82 -51 -184.5 -78t-208.5 -27t-207.5 27t-184.5 78zM688 0zM692 -555z" />
<glyph unicode="&#xa0a;" horiz-adv-x="1356" d="M1287 1128q-6 -180 -88.5 -302t-240.5 -172q93 -45 144 -124t51 -171q0 -172 -107.5 -265.5t-309.5 -93.5q-293 0 -447 219t-154 644v38q0 123 14 227h-164v146h191q65 239 219 358t377 119q213 0 347.5 -123t161.5 -354h90v-146h-84zM349 1274h767q-22 158 -113.5 242.5 t-243.5 84.5q-153 0 -257 -83t-153 -244zM303 869q0 -68 3 -128h269q147 0 244 14t164 58.5t102.5 118.5t37.5 196h-804q-16 -99 -16 -240v-19zM322 595q34 -223 135.5 -334.5t269.5 -111.5q132 0 195 51t63 161q0 46 -14.5 83.5t-39.5 62t-70.5 47.5t-118 32t-200.5 9h-220 zM836 1836zM295 -215l29 125q90 -52 177 -74.5t186 -22.5q100 0 186.5 22.5t177.5 74.5l29 -125q-82 -51 -184.5 -78t-208.5 -27t-208 27t-184 78zM295 -483l29 126q90 -52 177 -74.5t186 -22.5q100 0 186 22.5t178 74.5l29 -126q-83 -51 -185 -78t-208 -27t-207.5 27 t-184.5 78zM688 0zM702 -806z" />
<glyph unicode="&#xa0f;" horiz-adv-x="1141" d="M630 596q-95 0 -188.5 -48.5t-174.5 -149.5q78 -133 163 -190.5t205 -57.5q93 0 171.5 19.5t182.5 69.5l57 -145q-190 -94 -414 -94q-185 0 -321.5 98.5t-236.5 310.5q105 162 288 248q-126 56 -189 173.5t-63 297.5h-125v146h1171v-146h-186v-472l-60 -60h-280z M805 1128h-527q0 -124 31 -210t97.5 -131.5t195.5 -45.5h203v387zM570 0zM800 1259q-49 208 -146 314.5t-262 106.5h-37q-12 0 -20 -1l-9 155q18 2 51 2q233 0 375 -143t205 -434h-157zM958 1274z" />
<glyph unicode="&#xa10;" horiz-adv-x="1520" d="M1172 723q-85 -22 -160.5 -56.5t-141.5 -82.5q-3 -173 -49 -267.5t-122 -94.5q-100 0 -100 118q0 74 36 160t94 149q-8 103 -24.5 179t-40.5 125q-159 -59 -278 -154q-5 -175 -50 -269.5t-124 -94.5q-51 0 -74.5 29.5t-23.5 89.5q0 74 35.5 159t92.5 146q-6 92 -23.5 159 t-47.5 110h-186v146h310q39 -90 59 -170.5t20 -150.5q61 53 171.5 105t220.5 76q38 -63 65 -174.5t32 -213.5q65 45 142 79t167 56v393h363v-146h-198v-1128h-165v723zM603 0zM766 988zM863 600zM1172 735zM374 807zM1195 1182q-68 113 -170.5 168t-269.5 55h-20 q-11 0 -20 -1l-10 150q20 2 42 2q146 0 258.5 -50.5t191.5 -150.5q-56 168 -152.5 248.5t-260.5 80.5h-15q-8 0 -15 -1l-9 151q18 2 39 2q238 0 373.5 -141t192.5 -436l-85 -7q8 -14 15 -28zM1337 1274z" />
<glyph unicode="&#xa13;" horiz-adv-x="1356" d="M1286 1128q-12 -188 -94.5 -306.5t-234.5 -167.5q94 -45 145 -123.5t51 -171.5q0 -172 -107.5 -265.5t-309.5 -93.5q-293 0 -447 219t-154 644v38q0 124 14 227h-164v146h192q38 139 105.5 228t159.5 139t204 68t283 18h315l-10 -146h-285q-235 0 -339.5 -31.5 t-166.5 -100t-95 -175.5h1023v-146h-85zM1122 1128h-805q-14 -97 -14 -240v-19q0 -68 3 -128h269q187 0 273.5 20t145.5 64t91.5 116.5t36.5 186.5zM322 595q34 -223 135.5 -334.5t269.5 -111.5q132 0 195 51t63 161q0 46 -14.5 83.5t-39.5 62t-70.5 47.5t-118 32t-200.5 9 h-220zM684 0zM836 1836z" />
<glyph unicode="&#xa14;" horiz-adv-x="1520" d="M1172 723q-85 -22 -160.5 -56.5t-141.5 -82.5q-3 -173 -49 -267.5t-122 -94.5q-100 0 -100 118q0 74 36 160t94 149q-8 103 -24.5 179t-40.5 125q-159 -59 -278 -154q-5 -175 -50 -269.5t-124 -94.5q-51 0 -74.5 29.5t-23.5 89.5q0 74 35.5 159t92.5 146q-6 92 -23.5 159 t-47.5 110h-186v146h310q39 -90 59 -170.5t20 -150.5q61 53 171.5 105t220.5 76q38 -63 65 -174.5t32 -213.5q65 45 142 79t167 56v393h363v-146h-198v-1128h-165v723zM603 0zM766 988zM863 600zM1172 735zM374 807zM1367 1411q26 60 26 118q0 64 -36 97.5t-103 33.5 t-102.5 -34.5t-35.5 -96.5q0 -58 26 -118l-140 -21q-33 80 -33 156q0 11 1 22q-21 -4 -43 -4q-128 0 -199 61t-99 172l146 39q23 -75 55.5 -107t104.5 -32q36 0 61 6t60 28q79 62 197 62q130 0 208.5 -67t78.5 -181q0 -74 -33 -155zM1337 1274z" />
<glyph unicode="&#xa15;" horiz-adv-x="1273" d="M1000 0q-9 119 -30 222t-54 189q-85 -109 -198.5 -163.5t-247.5 -54.5q-185 0 -291.5 95t-106.5 260q0 163 112 259.5t288 96.5q135 0 241 -47.5t192 -146.5q26 94 26 228q0 91 -20 190h-926v146h1303v-146h-211q6 -28 12.5 -88.5t6.5 -100.5q0 -214 -85 -378 q58 -99 96.5 -239t58.5 -322h-166zM848 555q-74 101 -164.5 152t-198.5 51q-115 0 -180 -55.5t-65 -155.5q0 -97 62 -152.5t169 -55.5q120 0 214 54t163 162zM1050 1274z" />
<glyph unicode="&#xa16;" horiz-adv-x="1224" d="M876 337q-138 -66 -295 -66q-168 0 -294 102.5t-209 307.5q76 64 109.5 126t33.5 134q0 45 -13 96t-36 91h-187v146h305q44 -80 69 -167t25 -165v-13h492v345h363v-146h-198v-1128h-165v337zM876 513v275h-520q-27 -66 -85 -119q64 -132 137.5 -190t173.5 -58 q73 0 141 20t153 72z" />
<glyph unicode="&#xa17;" horiz-adv-x="1536" d="M718 836v292h-733v146h1566v-146h-198v-1128h-165v1128h-305v-790q0 -136 -40.5 -204.5t-107 -101t-172.5 -32.5q-118 0 -224.5 65.5t-184.5 192.5t-78 270q0 97 50.5 173t137.5 105.5t242 29.5h212zM718 690h-179q-121 0 -177.5 -11.5t-88.5 -50t-32 -111.5 q0 -81 51 -173.5t123.5 -145t146.5 -52.5q65 0 96 19t45.5 57.5t14.5 137.5v330z" />
<glyph unicode="&#xa18;" horiz-adv-x="1550" d="M1565 1274v-146h-198v-1128h-165v307q-65 -35 -150 -35q-102 0 -173.5 46t-111.5 138q-46 -92 -120.5 -138t-176.5 -46q-147 0 -232 90t-160 319q76 64 109.5 126t33.5 134q0 45 -13 96t-36 91h-187v146h305q44 -80 69 -167t25 -165q0 -176 -123 -281q33 -120 88 -180 t132 -60q80 0 135 57t84 172q-33 232 -33 392q0 100 29 151.5t85 51.5q57 0 84.5 -48.5t27.5 -155.5q0 -152 -43 -396q29 -112 83 -168t132 -56q49 0 81 17t56 48v788h363z" />
<glyph unicode="&#xa19;" horiz-adv-x="1185" d="M833 330q55 49 83 107.5t28 125.5q0 64 -31 103t-89.5 56.5t-206.5 17.5h-374l-60 60v328h-198v146h1215v-146h-852v-242h313q166 0 255 -31.5t141 -101t52 -184.5q0 -100 -49.5 -194.5t-140.5 -164.5q39 -59 97 -184l-159 -43q-37 90 -72 149q-69 -29 -144.5 -43 t-157.5 -14q-195 0 -296 66.5t-101 193.5q0 98 79.5 161.5t218.5 63.5q128 0 238 -54t211 -176zM701 253q-69 80 -148.5 120.5t-168.5 40.5q-66 0 -99.5 -23t-33.5 -63q0 -58 60 -84.5t177 -26.5q58 0 111 9t102 27zM848 0z" />
<glyph unicode="&#xa1a;" horiz-adv-x="1345" d="M1162 1128v-775q0 -134 -43 -207t-118.5 -109.5t-198.5 -36.5q-242 0 -406 170.5t-190 425.5h-35q-52 0 -79 20.5t-27 57.5q0 46 34.5 100.5t88 93t96.5 38.5q42 0 65 -29t23 -85v-51h625v387h-1012v146h1375v-146h-198zM997 596h-625q11 -121 73.5 -225t159 -163 t203.5 -59q83 0 122.5 23.5t53 68t13.5 134.5v221zM897 0z" />
<glyph unicode="&#xa1b;" horiz-adv-x="1299" d="M803 587q213 0 315 -76t102 -211q0 -158 -139 -229t-434 -71q-287 0 -419.5 71t-132.5 224q0 63 38.5 115t115.5 86q-72 32 -108 82.5t-36 119.5q0 77 47 133.5t119 80.5t227 24h431v192h-944v146h1329v-146h-220v-278l-60 -60h-565q-113 0 -156 -23.5t-43 -74.5 q0 -54 46 -79.5t156 -25.5h331zM581 140v307h-78q-125 0 -184.5 -41t-59.5 -108q0 -81 80 -117.5t242 -40.5zM736 447v-307q167 4 243.5 41.5t76.5 120.5q0 44 -27.5 76t-81.5 50.5t-170 18.5h-41zM1094 1274zM649 0zM921 0z" />
<glyph unicode="&#xa1c;" horiz-adv-x="1253" d="M382 741h523v387h-920v146h1283v-146h-198v-1128h-165v596h-523v-596h-165v596h-36q-52 0 -79 20.5t-27 57.5q0 46 34.5 100.5t88 93t96.5 38.5q42 0 65 -29t23 -85v-51z" />
<glyph unicode="&#xa1d;" horiz-adv-x="1216" d="M594 310q171 13 257 65.5t86 144.5q0 94 -84 137t-273 43q-227 0 -467 -80l-51 136q122 39 267 64q-63 51 -100 128t-49 180h-195v146h1246v-146h-181q-15 -112 -57.5 -193t-113.5 -131q113 -38 170 -109t57 -175q0 -128 -93.5 -214.5t-271.5 -120.5q74 -46 144 -107 l-113 -106q-142 132 -234 184q-39 -3 -118 -3q-119 0 -185 33t-66 91q0 46 41.5 71t116.5 25q63 0 122.5 -12.5t144.5 -50.5zM619 843q49 0 106.5 20.5t99.5 83t58 181.5h-536q9 -80 32.5 -136.5t63 -90.5t83 -46t93.5 -12zM420 299zM892 118z" />
<glyph unicode="&#xa1e;" horiz-adv-x="1162" d="M1009 548v-146h-419q-116 0 -154 -30.5t-38 -82.5q0 -71 66 -106t199 -35q167 0 320 48l44 -150q-167 -46 -384 -46q-199 0 -304.5 73t-105.5 201q0 94 71 151q-101 24 -164.5 87.5t-63.5 175.5q0 93 54.5 153t155.5 80q-66 116 -135 207h-166v146h1192v-146h-198v-280 l-60 -60h-483q-71 0 -111 -8.5t-62 -34t-22 -63.5q0 -54 35 -83t99 -40t204 -11h430zM348 1128q68 -104 112 -194h354v194h-466zM598 0z" />
<glyph unicode="&#xa1f;" horiz-adv-x="1178" d="M830 863v265h-845v146h1208v-146h-198v-351l-60 -60h-78q-152 0 -223.5 -8t-131 -34.5t-117 -74.5t-128.5 -135q86 -169 181.5 -242t221.5 -73q98 0 175.5 20t208.5 80l57 -145q-122 -57 -224 -81t-217 -24q-196 0 -335 111t-255 368q131 172 235 251t202.5 106t249.5 27 h73zM597 0z" />
<glyph unicode="&#xa20;" horiz-adv-x="1352" d="M594 898v230h-609v146h1382v-146h-609v-230q249 -58 381.5 -191t132.5 -294q0 -205 -150.5 -309t-445.5 -104q-293 0 -444.5 104.5t-151.5 308.5q0 164 134 295.5t380 189.5zM676 775q-209 -48 -320.5 -145t-111.5 -222q0 -129 103.5 -193.5t328.5 -64.5 q223 0 327.5 65.5t104.5 194.5q0 122 -113 219.5t-319 145.5zM758 1274zM914 0zM664 752z" />
<glyph unicode="&#xa21;" horiz-adv-x="1223" d="M856 223q44 34 66 81.5t22 109.5q0 82 -60.5 149.5t-169.5 99.5q-125 -24 -230 -24q-229 0 -229 116q0 104 179 104q148 0 297 -54q82 35 123 99.5t41 157.5q0 38 -4 66h-906v146h1253v-146h-183q6 -36 6 -67q0 -108 -41 -186t-136 -134q118 -61 173.5 -143t55.5 -193 q0 -192 -159.5 -298.5t-443.5 -106.5q-215 0 -326.5 66.5t-111.5 193.5q0 98 77.5 161.5t215.5 63.5q142 0 269 -68t222 -194zM718 162q-84 88 -170 132.5t-175 44.5q-69 0 -102.5 -22t-33.5 -62q0 -57 67.5 -85t202.5 -28q65 0 117.5 5t93.5 15zM576 0zM795 0z" />
<glyph unicode="&#xa22;" horiz-adv-x="1323" d="M207 656h-36q-52 0 -79 20.5t-27 57.5q0 46 34.5 100.5t88 93t96.5 38.5q42 0 65 -29t23 -85v-51h603v327h-990v146h1353v-146h-198v-412l-60 -60h-708v-22q0 -116 29.5 -206t89.5 -154q98 105 212.5 158t245.5 53q136 0 212.5 -63t76.5 -162q0 -127 -104.5 -193.5 t-307.5 -66.5q-191 0 -331 79.5t-214 226t-74 332.5v18zM606 191q49 -25 106.5 -37t122.5 -12q121 0 179.5 26.5t58.5 84.5q0 40 -34.5 63t-104.5 23q-85 0 -167 -37t-161 -111z" />
<glyph unicode="&#xa23;" horiz-adv-x="1274" d="M702 747l61 122q-198 121 -346 259h-432v146h1304v-146h-653q215 -163 566 -313l-72 -140q-126 57 -231 115l-86 -169l-76 -32q-74 30 -158 30q-86 0 -157 -38t-162 -144q101 -166 204.5 -226.5t248.5 -60.5q113 0 200 20t236 80l57 -145q-132 -57 -245 -81t-241 -24 q-229 0 -378 99.5t-272 349.5q138 178 251 248.5t244 70.5q72 0 137 -21z" />
<glyph unicode="&#xa24;" horiz-adv-x="1110" d="M26 132l67 150q98 -64 199.5 -98.5t215.5 -34.5q152 0 237.5 61t85.5 177q0 92 -57.5 161t-171.5 115q-125 -24 -231 -24q-229 0 -229 116q0 104 179 104q148 0 297 -54q82 33 123 93.5t41 149.5q0 44 -7 80h-790v146h1140v-146h-183q6 -43 6 -82q0 -105 -40 -177.5 t-136 -127.5q122 -67 175 -154t53 -202q0 -179 -132.5 -282t-355.5 -103q-131 0 -252.5 33t-233.5 99zM702 0z" />
<glyph unicode="&#xa25;" horiz-adv-x="1224" d="M876 338q-80 -38 -148.5 -52.5t-146.5 -14.5q-168 0 -294 102.5t-209 307.5q76 64 109.5 126t33.5 134q0 45 -13 96t-36 91h-187v146h1254v-146h-198v-1128h-165v338zM347 1128q37 -98 37 -186q0 -35 -5 -70h497v256h-529zM876 513v218h-551q-19 -29 -54 -62 q64 -132 137.5 -190t173.5 -58q73 0 141 20t153 72z" />
<glyph unicode="&#xa26;" horiz-adv-x="1263" d="M372 741h543v387h-930v146h1293v-146h-198v-472l-60 -60h-648q1 -223 97 -334.5t287 -111.5q96 0 180.5 22.5t173.5 67.5l57 -146q-187 -94 -414 -94q-263 0 -404.5 151t-141.5 423v22h-36q-52 0 -79 20.5t-27 57.5q0 46 34.5 100.5t88 93t96.5 38.5q42 0 65 -29t23 -85 v-51z" />
<glyph unicode="&#xa27;" horiz-adv-x="1214" d="M866 333q-135 -62 -285 -62q-168 0 -294 102.5t-209 307.5q76 64 109.5 126t33.5 134q0 45 -13 96t-36 91h-187v146h1244v-146h-198v-1128h-165v333zM347 1128q37 -98 37 -186q0 -171 -113 -273q64 -132 137.5 -190t173.5 -58q77 0 145.5 22t138.5 64v621h-519z" />
<glyph unicode="&#xa28;" horiz-adv-x="1328" d="M664 775q-204 -52 -312 -150t-108 -226q0 -122 66 -186t191 -64l-10 -149q-131 0 -223 51t-140 144.5t-48 201.5q0 170 130.5 303.5t371.5 197.5v230h-597v146h1358v-146h-597v-230q242 -64 372 -197.5t130 -303.5q0 -106 -46.5 -199t-139 -145.5t-225.5 -52.5l-10 149 q125 0 191 64t66 186q0 128 -108 226t-312 150zM746 1274zM664 0zM930 0zM662 752z" />
<glyph unicode="&#xa2a;" horiz-adv-x="1214" d="M866 333q-135 -62 -285 -62q-168 0 -294 102.5t-209 307.5q76 64 109.5 126t33.5 134q0 45 -13 96t-36 91h-187v146h305q44 -80 69 -167t25 -165q0 -171 -113 -273q64 -132 137.5 -190t173.5 -58q74 0 140 20t144 66v767h363v-146h-198v-1128h-165v333z" />
<glyph unicode="&#xa2b;" horiz-adv-x="1185" d="M837 861v267h-852v146h1215v-146h-198v-353l-60 -60h-361q-145 0 -208 -16.5t-97.5 -55.5t-34.5 -112q0 -63 28.5 -125t86.5 -124q98 101 211.5 152t242.5 51q135 0 212 -62.5t77 -162.5q0 -128 -101.5 -194t-302.5 -66q-171 0 -304.5 65.5t-224 195.5t-90.5 280 q0 69 27 131.5t87.5 108t143.5 63t215 17.5h288zM468 191q45 -25 101 -37t123 -12q119 0 180.5 26.5t61.5 84.5q0 42 -35.5 64t-104.5 22q-84 0 -165.5 -37t-160.5 -111z" />
<glyph unicode="&#xa2c;" horiz-adv-x="1246" d="M1261 1274v-146h-198v-1128h-165v193q-123 -51 -270 -51q-184 0 -322 92t-222 273q42 61 109.5 114.5t159.5 99.5q-117 50 -175 151.5t-58 255.5h-135v146h1276zM898 802v326h-610q0 -119 35 -191t94.5 -103.5t181.5 -31.5h299zM898 352v309h-258q-85 0 -143.5 -16.5 t-114 -52.5t-105.5 -94q60 -106 145 -156t206 -50q154 0 270 60z" />
<glyph unicode="&#xa2d;" horiz-adv-x="1182" d="M839 814q14 34 21.5 69.5t7.5 73.5q0 102 -31 171h-852v146h1212v-146h-190q23 -72 23 -180q0 -71 -20 -133.5t-59 -115.5q48 -67 72.5 -137.5t24.5 -145.5q0 -202 -136 -309t-389 -107q-137 0 -261 33t-236 99l67 150q109 -71 211.5 -102.5t223.5 -31.5q179 0 268.5 69 t89.5 207q0 43 -10.5 84t-30.5 80q-72 -63 -165.5 -94t-207.5 -31q-165 0 -255.5 64.5t-90.5 177.5q0 110 89 176.5t250 66.5q109 0 202.5 -33.5t171.5 -100.5zM756 698q-63 52 -135.5 78t-153.5 26q-88 0 -132 -26t-44 -69q0 -98 179 -98q91 0 162.5 22t123.5 67zM535 0z M759 0z" />
<glyph unicode="&#xa2e;" horiz-adv-x="1220" d="M267 1274q63 -162 95 -314t33 -280h477v594h363v-146h-198v-1128h-165v534h-479q-9 -183 -55.5 -276t-121.5 -93q-51 0 -74.5 29.5t-23.5 89.5q0 67 32 152.5t93 152.5q-14 289 -105 539h-153v146h282z" />
<glyph unicode="&#xa2f;" horiz-adv-x="1424" d="M1076 613h-266v-334q-101 -33 -229 -33q-168 0 -294 105.5t-209 317.5q77 68 110 131t33 136q0 46 -13 98.5t-36 93.5h-187v146h1454v-146h-198v-1128h-165v613zM645 759h431v369h-730q38 -102 38 -193q0 -174 -113 -278q63 -137 136.5 -199t174.5 -62q31 0 63 4v359z " />
<glyph unicode="&#xa30;" horiz-adv-x="1185" d="M837 836v292h-852v146h1215v-146h-198v-775q0 -137 -44.5 -209.5t-121 -108t-201.5 -35.5q-131 0 -253.5 62.5t-214 192.5t-91.5 273q0 107 56 177t149.5 100.5t275.5 30.5h280zM837 690h-260q-133 0 -198 -13t-101.5 -51.5t-36.5 -108.5q0 -83 65.5 -175t155 -142.5 t180.5 -50.5q85 0 125 23t55 65t15 138v315zM737 0z" />
<glyph unicode="&#xa32;" horiz-adv-x="1380" d="M1141 1128q-31 -163 -128 -316q142 -79 214.5 -185.5t72.5 -229.5q0 -108 -50 -201.5t-146 -144.5t-232 -51h-12l-10 150h22q128 0 196 64.5t68 176.5q0 93 -53 171.5t-161 134.5q-106 -114 -232 -185q-128 72 -234 185q-101 -53 -156.5 -130t-55.5 -168 q0 -117 67.5 -183t196.5 -66h22l-10 -150h-12q-137 0 -233 51.5t-145.5 144.5t-49.5 200q0 123 73.5 232t214.5 184q-102 154 -129 316h-254v146h1410v-146h-254zM407 1128q44 -274 283 -441q116 77 188.5 191t94.5 250h-566zM1141 1274zM690 0zM982 0zM448 666zM690 658z " />
<glyph unicode="&#xa33;" horiz-adv-x="1380" d="M1141 1128q-31 -163 -128 -316q142 -79 214.5 -185.5t72.5 -229.5q0 -108 -50 -201.5t-146 -144.5t-232 -51h-12l-10 150h22q128 0 196 64.5t68 176.5q0 93 -53 171.5t-161 134.5q-106 -114 -232 -185q-128 72 -234 185q-101 -53 -156.5 -130t-55.5 -168 q0 -117 67.5 -183t196.5 -66h22l-10 -150h-12q-137 0 -233 51.5t-145.5 144.5t-49.5 200q0 123 73.5 232t214.5 184q-102 154 -129 316h-254v146h1410v-146h-254zM407 1128q44 -274 283 -441q116 77 188.5 191t94.5 250h-566zM1141 1274zM690 0zM982 0zM448 666zM690 658z M248 -80q49 0 81 -32.5t32 -84.5q0 -53 -31 -85t-82 -32q-50 0 -81.5 32.5t-31.5 84.5t32 84.5t81 32.5zM248 78z" />
<glyph unicode="&#xa35;" horiz-adv-x="1162" d="M1009 548v-146h-365q-81 0 -118.5 -2.5t-66.5 -15t-45 -37t-16 -58.5q0 -71 66 -106t199 -35q167 0 320 48l44 -150q-167 -46 -384 -46q-199 0 -304.5 73t-105.5 201q0 94 71 151q-101 24 -164.5 87.5t-63.5 175.5q0 67 29 117.5t83 81t121 39t180 8.5h325v194h-829v146 h1192v-146h-198v-280l-60 -60h-483q-71 0 -111 -8.5t-62 -34t-22 -63.5q0 -54 35 -83t99 -40t204 -11h430zM598 0z" />
<glyph unicode="&#xa36;" horiz-adv-x="1235" d="M-15 1274h1265v-146h-198v-1128h-165v534h-494q-9 -183 -55.5 -276t-121.5 -93q-51 0 -74.5 29.5t-23.5 89.5q0 67 32 152.5t93 152.5q-14 289 -105 539h-153v146zM313 1128q79 -246 82 -448h492v448h-574zM575 216q49 0 81 -32.5t32 -84.5q0 -53 -31 -85t-82 -32 q-50 0 -81.5 32.5t-31.5 84.5t32 84.5t81 32.5z" />
<glyph unicode="&#xa38;" horiz-adv-x="1220" d="M-15 1274h1250v-146h-198v-1128h-165v534h-479q-9 -183 -55.5 -276t-121.5 -93q-51 0 -74.5 29.5t-23.5 89.5q0 67 32 152.5t93 152.5q-14 289 -105 539h-153v146zM313 1128q79 -246 82 -448h477v448h-559z" />
<glyph unicode="&#xa39;" horiz-adv-x="1180" d="M540 683q-35 4 -78 4q-118 0 -169.5 -42t-51.5 -127q0 -84 66 -177t155.5 -142.5t187.5 -49.5q78 0 115.5 24.5t52 65.5t14.5 136v753h-847v146h1210v-146h-198v-775q0 -144 -49 -217t-123.5 -104.5t-192.5 -31.5q-132 0 -255.5 66t-212 192t-88.5 270q0 100 44.5 169.5 t125.5 104t221 34.5q48 0 85 -6zM732 0z" />
<glyph unicode="&#xa3c;" d="M-579 -158q49 0 81 -32.5t32 -84.5q0 -53 -31 -85t-82 -32q-50 0 -81.5 32.5t-31.5 84.5t32 84.5t81 32.5zM-579 0z" />
<glyph unicode="&#xa3e;" horiz-adv-x="481" d="M496 1128h-180v-593h-165v593h-166v146h511v-146zM316 1274z" />
<glyph unicode="&#xa3f;" horiz-adv-x="530" d="M182 1128h-197v146h197v94q0 164 37.5 259.5t121.5 152t215 56.5q160 0 252 -94t92 -265q0 -54 -13 -136l-160 16q11 59 11 125q0 106 -45.5 158t-138.5 52q-77 0 -125.5 -40t-65 -106.5t-16.5 -172.5v-99h198v-146h-198v-1128h-165v1128z" />
<glyph unicode="&#xa40;" horiz-adv-x="530" d="M347 0h-165v1128h-197v146h197v65q0 148 -17 214t-60.5 102.5t-117.5 36.5q-99 0 -148 -53t-49 -163q0 -51 12 -119l-160 -16q-14 97 -14 137q0 166 98 262t266 96q136 0 216.5 -59t109.5 -152.5t29 -256.5v-94h198v-146h-198v-1128z" />
<glyph unicode="&#xa41;" d="M-1017 -268l29 138q89 -51 176.5 -74t186.5 -23t186.5 23t177.5 74l29 -138q-82 -51 -184.5 -78t-208.5 -27t-207.5 27t-184.5 78zM-624 0zM-620 -555z" />
<glyph unicode="&#xa42;" d="M-1017 -215l29 125q90 -52 177 -74.5t186 -22.5q100 0 186.5 22.5t177.5 74.5l29 -125q-82 -51 -184.5 -78t-208.5 -27t-208 27t-184 78zM-1017 -483l29 126q90 -52 177 -74.5t186 -22.5q100 0 186 22.5t178 74.5l29 -126q-83 -51 -185 -78t-208 -27t-207.5 27t-184.5 78 zM-624 0zM-610 -806z" />
<glyph unicode="&#xa47;" d="M-341 1259q-49 208 -146 314.5t-262 106.5h-37q-12 0 -20 -1l-9 155q18 2 51 2q233 0 375 -143t205 -434h-157zM-183 1274z" />
<glyph unicode="&#xa48;" d="M-325 1182q-68 113 -170.5 168t-269.5 55h-20q-11 0 -20 -1l-10 150q20 2 42 2q146 0 258.5 -50.5t191.5 -150.5q-56 168 -152.5 248.5t-260.5 80.5h-15q-8 0 -15 -1l-9 151q18 2 39 2q238 0 373.5 -141t192.5 -436l-85 -7q8 -14 15 -28zM-183 1274z" />
<glyph unicode="&#xa4b;" d="M-345 1259q-11 127 -46.5 181t-112.5 54q-20 0 -73 -5q-53 -6 -79 -6q-126 0 -197.5 78t-112.5 236l146 39q42 -134 78.5 -170.5t101.5 -36.5q26 0 76 5q49 5 76 5q143 0 215.5 -93.5t77.5 -286.5h-150zM-183 1274z" />
<glyph unicode="&#xa4c;" d="M-153 1411q26 60 26 118q0 64 -36 97.5t-103 33.5t-102.5 -34.5t-35.5 -96.5q0 -58 26 -118l-140 -21q-33 80 -33 156q0 11 1 22q-21 -4 -43 -4q-128 0 -199 61t-99 172l146 39q23 -75 55.5 -107t104.5 -32q36 0 61 6t60 28q79 62 197 62q130 0 208.5 -67t78.5 -181 q0 -74 -33 -155zM-183 1274z" />
<glyph unicode="&#xa4d;" d="M54 -503q-51 129 -139.5 202t-234.5 73h-26q-10 0 -19 -1l-9 155q18 2 51 2q192 0 320.5 -99t198.5 -289z" />
<glyph unicode="&#xa51;" d="M-200 -61q50 -211 147 -316t261 -105h17q7 0 16 1l-18 -157q-224 0 -364 132t-206 400zM-348 0z" />
<glyph unicode="&#xa59;" horiz-adv-x="1224" d="M340 216q49 0 81 -32.5t32 -84.5q0 -53 -31 -85t-82 -32q-50 0 -81.5 32.5t-31.5 84.5t32 84.5t81 32.5zM876 337q-138 -66 -295 -66q-168 0 -294 102.5t-209 307.5q76 64 109.5 126t33.5 134q0 45 -13 96t-36 91h-187v146h305q44 -80 69 -167t25 -165v-13h492v345h363 v-146h-198v-1128h-165v337zM876 513v275h-520q-27 -66 -85 -119q64 -132 137.5 -190t173.5 -58q73 0 141 20t153 72z" />
<glyph unicode="&#xa5a;" horiz-adv-x="1536" d="M718 836v292h-733v146h1566v-146h-198v-1128h-165v1128h-305v-790q0 -136 -40.5 -204.5t-107 -101t-172.5 -32.5q-118 0 -224.5 65.5t-184.5 192.5t-78 270q0 97 50.5 173t137.5 105.5t242 29.5h212zM718 690h-179q-121 0 -177.5 -11.5t-88.5 -50t-32 -111.5 q0 -81 51 -173.5t123.5 -145t146.5 -52.5q65 0 96 19t45.5 57.5t14.5 137.5v330zM258 -46q49 0 81 -32.5t32 -84.5q0 -53 -31 -85t-82 -32q-50 0 -81.5 32.5t-31.5 84.5t32 84.5t81 32.5zM258 112z" />
<glyph unicode="&#xa5b;" horiz-adv-x="1283" d="M382 741h553v387h-950v146h1313v-146h-198v-1128h-165v596h-553v-596h-165v596h-36q-52 0 -79 20.5t-27 57.5q0 46 34.5 100.5t88 93t96.5 38.5q42 0 65 -29t23 -85v-51zM658 216q49 0 81 -32.5t32 -84.5q0 -53 -31 -85t-82 -32q-50 0 -81.5 32.5t-31.5 84.5t32 84.5 t81 32.5z" />
<glyph unicode="&#xa5c;" horiz-adv-x="1165" d="M875 220q70 -85 140 -189l-152 -71q-59 106 -137 217q-69 -11 -146 -11q-123 0 -191 14.5t-118 37.5q69 -92 122 -189l-153 -67q-84 176 -187 346l75 116q119 -58 221 -84t218 -26q159 0 239 42t80 126q0 72 -59.5 123.5t-173.5 77.5q-125 -24 -227 -24q-229 0 -229 116 q0 104 179 104q148 0 297 -54q82 34 123 94.5t41 147.5q0 37 -4 61h-848v146h1195v-146h-182q5 -37 5 -63q0 -104 -40.5 -178.5t-130.5 -124.5q116 -49 169.5 -119t53.5 -168q0 -87 -45 -150.5t-135 -104.5z" />
<glyph unicode="&#xa5e;" horiz-adv-x="1185" d="M837 861v267h-852v146h1215v-146h-198v-353l-60 -60h-361q-145 0 -208 -16.5t-97.5 -55.5t-34.5 -112q0 -63 28.5 -125t86.5 -124q98 101 211.5 152t242.5 51q135 0 212 -62.5t77 -162.5q0 -128 -101.5 -194t-302.5 -66q-171 0 -304.5 65.5t-224 195.5t-90.5 280 q0 69 27 131.5t87.5 108t143.5 63t215 17.5h288zM468 191q45 -25 101 -37t123 -12q119 0 180.5 26.5t61.5 84.5q0 42 -35.5 64t-104.5 22q-84 0 -165.5 -37t-160.5 -111zM209 36q49 0 81 -32.5t32 -84.5q0 -53 -31 -85t-82 -32q-50 0 -81.5 32.5t-31.5 84.5t32 84.5t81 32.5 zM209 194z" />
<glyph unicode="&#xa66;" horiz-adv-x="1128" d="M563 1133q220 0 353.5 -133.5t133.5 -354.5t-132 -353t-353 -132q-223 0 -354.5 133t-131.5 355q0 140 60 251t171 172.5t253 61.5zM560 309q152 0 237 90.5t85 250.5q0 153 -84.5 243.5t-229.5 90.5q-150 0 -235.5 -92.5t-85.5 -249.5q0 -153 83.5 -243t229.5 -90z M557 1274z" />
<glyph unicode="&#xa67;" horiz-adv-x="1128" d="M728 672q-106 -62 -245 -62q-164 0 -262 91t-98 249q0 148 104.5 246t277.5 98q142 0 232.5 -55.5t123 -125t32.5 -199.5v-594q0 -89 14.5 -125t45.5 -50t91 -14l-20 -149q-82 0 -136.5 21t-89.5 58.5t-52.5 95t-17.5 161.5v354zM728 842v81q0 89 -28 132.5t-79 67.5 t-123 24q-100 0 -154.5 -52.5t-54.5 -143.5t51 -142.5t143 -51.5q76 0 135 20t110 65z" />
<glyph unicode="&#xa68;" horiz-adv-x="1128" d="M681 357q215 -147 345 -285l-118 -108q-209 209 -425 343q-31 -4 -73 -4q-138 0 -207 33.5t-69 101.5q0 50 41 77.5t117 27.5q128 0 254 -73q129 40 198.5 133t69.5 220q0 156 -89.5 239t-257.5 83q-173 0 -321 -69l-58 133q183 85 392 85q237 0 369 -124t132 -342 q0 -162 -77.5 -285t-222.5 -186zM410 449zM1008 110z" />
<glyph unicode="&#xa69;" horiz-adv-x="1128" d="M871 -135q-202 194 -369 291q-46 -4 -112 -4q-137 0 -205.5 31t-68.5 93q0 46 41.5 71t116.5 25q140 0 282 -71q129 13 200 61t71 123q0 65 -53 113.5t-150 71.5q-108 -27 -211 -27q-108 0 -162 30t-54 86q0 51 44 77.5t120 26.5q59 0 119.5 -10t154.5 -45 q86 23 134.5 68t48.5 109q0 81 -76.5 120.5t-231.5 39.5q-198 0 -360 -69l-58 133q201 85 429 85q223 0 343.5 -79.5t120.5 -220.5q0 -74 -46 -139.5t-135 -114.5q95 -45 142.5 -109.5t47.5 -147.5q0 -107 -69 -180t-206 -112q144 -96 270 -219zM971 11z" />
<glyph unicode="&#xa6a;" horiz-adv-x="1128" d="M301 611q-102 47 -155.5 129.5t-53.5 189.5q0 126 93 228t263 126l20 -142q-103 -17 -157.5 -76t-54.5 -147q0 -107 76.5 -166.5t224.5 -59.5q157 0 236 56.5t79 169.5q0 91 -53 146.5t-159 76.5l20 142q174 -27 265 -127.5t91 -226.5q0 -107 -54 -189.5t-155 -129.5 q85 -43 127 -113t42 -160q0 -164 -115 -259.5t-315 -95.5q-203 0 -318.5 96t-115.5 262q0 92 43.5 160.5t125.5 109.5zM561 132q132 0 199.5 53.5t67.5 156.5q0 95 -69.5 149t-189.5 54q-130 0 -199.5 -55t-69.5 -153q0 -97 67.5 -151t193.5 -54zM560 1128zM551 1274z" />
<glyph unicode="&#xa6b;" horiz-adv-x="1128" d="M797 366q-108 -44 -238 -44q-164 0 -286.5 98t-203.5 294q77 62 110 122t33 134q0 65 -18 126.5t-62 140.5l153 57q90 -169 90 -318q0 -84 -26.5 -150t-86.5 -124q62 -122 132.5 -176t168.5 -54q119 0 234 63v739h165v-1274h-165v366z" />
<glyph unicode="&#xa6c;" horiz-adv-x="1128" d="M622 1149q-57 92 -57 201q0 117 84.5 189.5t238.5 72.5q66 0 128 -9l-21 -140q-39 6 -93 6q-84 0 -128 -37.5t-44 -105.5q0 -101 69 -181q112 -11 168.5 -44.5t56.5 -90.5q0 -48 -37 -74t-102 -26q-118 0 -196 97q-182 0 -277 -48t-95 -135q0 -70 46.5 -109.5 t129.5 -59.5q107 27 219 27q108 0 162 -30t54 -86q0 -51 -44 -77.5t-120 -26.5q-130 0 -274 51q-82 -27 -127 -75.5t-45 -114.5q0 -100 76.5 -146.5t237.5 -46.5q200 0 354 69l58 -133q-197 -85 -429 -85q-225 0 -344.5 88t-119.5 250q0 79 42 145t126 119 q-85 41 -127 102.5t-42 143.5q0 139 124 223t348 97zM302 1295zM836 1836z" />
<glyph unicode="&#xa6d;" horiz-adv-x="1128" d="M274 654q-63 72 -94 145.5t-31 161.5q0 90 50 167.5t142.5 121.5t214.5 44q219 0 347 -146.5t128 -392.5q0 -213 -119.5 -381.5t-342.5 -270.5t-508 -121v150q377 30 589.5 197t212.5 424q0 178 -83.5 285.5t-231.5 107.5q-110 0 -172 -53t-62 -149q0 -119 99 -216z M161 128z" />
<glyph unicode="&#xa6e;" horiz-adv-x="1128" d="M1045 975h-655v-332q0 -216 49 -308t142 -139.5t301 -47.5q70 0 155 12l13 -149q-77 -11 -201 -11q-231 0 -359.5 64.5t-196.5 191.5t-68 352v367h-46q-52 0 -79 20.5t-27 57.5q0 51 38.5 109.5t92 95.5t98.5 37q42 0 65 -29t23 -85v-61h655v-145z" />
<glyph unicode="&#xa6f;" horiz-adv-x="1128" d="M1045 975h-655v-332q0 -216 49 -308t142 -139.5t301 -47.5q70 0 155 12l13 -149q-77 -11 -201 -11q-231 0 -359.5 64.5t-196.5 191.5t-68 352v367h-46q-52 0 -79 20.5t-27 57.5q0 51 38.5 109.5t92 95.5t98.5 37q42 0 65 -29t23 -85v-61h407q-76 106 -76 230 q0 117 84.5 189.5t238.5 72.5q66 0 128 -9l-21 -140q-39 6 -93 6q-84 0 -128 -37.5t-44 -105.5q0 -116 93 -206h66v-145zM1036 1836z" />
<glyph unicode="&#xa70;" d="M-141 1411q26 60 26 118q0 64 -39 97.5t-112 33.5t-111.5 -34t-38.5 -97q0 -58 26 -118l-140 -21q-33 80 -33 156q0 111 82 179t214 68q136 0 217.5 -67.5t81.5 -180.5q0 -74 -33 -155zM-183 1274zM-164 1836z" />
<glyph unicode="&#xa71;" d="M38 1768q-6 -183 -81 -274t-221 -91q-147 0 -223.5 91t-81.5 274l154 9q0 -126 32.5 -181t116.5 -55q85 0 117.5 56.5t32.5 179.5zM-183 1274zM-164 1836z" />
<glyph unicode="&#xa72;" horiz-adv-x="1141" d="M630 596q-95 0 -188.5 -48.5t-174.5 -149.5q78 -133 163 -190.5t205 -57.5q93 0 171.5 19.5t182.5 69.5l57 -145q-190 -94 -414 -94q-185 0 -321.5 98.5t-236.5 310.5q105 162 288 248q-126 56 -189 173.5t-63 297.5h-125v146h1171v-146h-186v-472l-60 -60h-280z M805 1128h-527q0 -124 31 -210t97.5 -131.5t195.5 -45.5h203v387zM570 0z" />
<glyph unicode="&#xa73;" horiz-adv-x="1356" d="M1287 1128q-6 -180 -88.5 -302t-240.5 -172q93 -45 144 -124t51 -171q0 -172 -107.5 -265.5t-309.5 -93.5q-293 0 -447 219t-154 644v38q0 123 14 227h-164v146h191q65 239 219 358t377 119q213 0 347.5 -123t161.5 -354h90v-146h-84zM349 1274h767q-22 158 -113.5 242.5 t-243.5 84.5q-153 0 -257 -83t-153 -244zM303 869q0 -68 3 -128h269q147 0 244 14t164 58.5t102.5 118.5t37.5 196h-804q-16 -99 -16 -240v-19zM322 595q34 -223 135.5 -334.5t269.5 -111.5q132 0 195 51t63 161q0 46 -14.5 83.5t-39.5 62t-70.5 47.5t-118 32t-200.5 9h-220 zM836 1836z" />
<glyph unicode="&#xa74;" horiz-adv-x="3039" d="M2276 1128q-6 -178 -88 -300.5t-240 -173.5q93 -45 144 -124t51 -171q0 -172 -107.5 -265.5t-309.5 -93.5q-293 0 -447 219t-154 644v38q0 123 14 227h-94v146h124q64 234 216.5 355.5t375.5 121.5q131 0 235.5 -49.5t169.5 -143.5q84 124 201.5 186t267.5 62 q202 0 332.5 -111t169.5 -311l-164 -18q-33 142 -123.5 216t-226.5 74q-135 0 -227.5 -65.5t-161.5 -211.5l-139 -13q-46 117 -132.5 176t-213.5 59q-150 0 -253 -82.5t-154 -244.5h1031v-146h-97zM2112 1128h-803q-16 -99 -16 -240v-19q0 -68 3 -128h269q182 0 271 18.5 t153 66.5t92 119.5t31 182.5zM1312 595q36 -225 136.5 -335.5t268.5 -110.5q132 0 195 51t63 161q0 46 -14.5 83.5t-39.5 62t-70.5 47.5t-118 32t-200.5 9h-220zM728 671q-106 -61 -245 -61q-164 0 -262 91t-98 249q0 148 104.5 246t277.5 98q142 0 232.5 -55.5t123 -125 t32.5 -199.5v-594q0 -89 14.5 -125t45.5 -50t91 -14l-20 -149q-82 0 -136.5 21t-89.5 58.5t-52.5 95t-17.5 161.5v353zM728 842v81q0 89 -28 132.5t-79 67.5t-123 24q-100 0 -154.5 -52.5t-54.5 -143.5t51 -142.5t143 -51.5q151 0 245 85zM836 1836z" />
<glyph unicode="&#x2000;" horiz-adv-x="927" />
<glyph unicode="&#x2001;" horiz-adv-x="1854" />
<glyph unicode="&#x2002;" horiz-adv-x="927" />
<glyph unicode="&#x2003;" horiz-adv-x="1854" />
<glyph unicode="&#x2004;" horiz-adv-x="618" />
<glyph unicode="&#x2005;" horiz-adv-x="463" />
<glyph unicode="&#x2006;" horiz-adv-x="309" />
<glyph unicode="&#x2007;" horiz-adv-x="309" />
<glyph unicode="&#x2008;" horiz-adv-x="231" />
<glyph unicode="&#x2009;" horiz-adv-x="370" />
<glyph unicode="&#x200a;" horiz-adv-x="103" />
<glyph unicode="&#x200b;" />
<glyph unicode="&#x200c;" d="M-54 -339v1952h108v-1952h-108z" />
<glyph unicode="&#x200d;" d="M74 1323l225 -220l-75 -73l-170 169v-1537h-108v1537l-170 -169l-75 73l225 220l-225 217l75 73l224 -220l224 220l75 -74z" />
<glyph unicode="&#x2010;" horiz-adv-x="696" d="M100 524v168h496v-168h-496zM453 1274z" />
<glyph unicode="&#x2011;" horiz-adv-x="696" d="M100 524v168h496v-168h-496zM453 1274z" />
<glyph unicode="&#x2012;" horiz-adv-x="696" d="M100 524v168h496v-168h-496zM453 1274z" />
<glyph unicode="&#x2013;" horiz-adv-x="1024" d="M82 535v168h860v-168h-860zM453 1274z" />
<glyph unicode="&#x2014;" horiz-adv-x="2048" d="M82 535v168h1884v-168h-1884zM453 1274z" />
<glyph unicode="&#x2018;" horiz-adv-x="639" d="M182 992l-14 22q54 208 176 479h137q-62 -255 -100 -501h-199zM453 1274zM448 1836z" />
<glyph unicode="&#x2019;" horiz-adv-x="638" d="M465 1493l14 -22q-50 -197 -176 -479h-137q70 303 100 501h199zM453 1274zM448 1836z" />
<glyph unicode="&#x201a;" horiz-adv-x="2656" d="M293 35l256 -48q-346 -181 -482 -764q130 59 260 117q154 73 251 143q126 90 197 203q39 -57 45 -210q194 32 299 201q73 121 124 365q68 329 85 381q17 -52 85 -381q51 -244 124 -365q105 -169 299 -201q2 44 7 82q12 89 38 128q71 -113 197 -203q97 -70 251 -143 q130 -58 260 -117q-136 583 -482 764l256 48q-64 200 -238 299q-121 69 -357 112q-296 54 -366 77q68 23 366 78q235 44 357 114q174 100 238 300l-256 48q346 181 482 764q-130 -59 -260 -117q-154 -73 -251 -143q-126 -90 -197 -203q-39 57 -45 210q-194 -32 -299 -201 q-73 -121 -124 -365q-68 -329 -85 -381q-17 52 -85 381q-51 244 -124 365q-105 169 -299 201q-2 -44 -7 -82q-12 -89 -38 -128q-71 113 -197 203q-97 70 -251 143q-130 58 -260 117q136 -583 482 -764l-256 -48q64 -200 238 -299q121 -69 357 -112q296 -54 366 -77 q-68 -23 -366 -78q-235 -44 -357 -114q-174 -100 -238 -300zM820 527q-321 -151 -506 -151q-166 0 -166 138q0 141 183 141q185 0 489 -128zM1836 527q321 -151 506 -151q166 0 166 138q0 141 -183 141q-185 0 -489 -128zM1322 12q150 -321 150 -506q0 -166 -138 -166 q-141 0 -141 183q0 185 129 489zM1322 1028q150 321 150 506q0 167 -138 167q-141 0 -141 -183q0 -185 129 -490z" />
<glyph unicode="&#x201c;" horiz-adv-x="1023" d="M568 992l-14 22q54 208 176 479h137q-62 -255 -100 -501h-199zM183 992l-14 22q54 208 176 479h137q-62 -255 -100 -501h-199zM453 1274zM448 1836z" />
<glyph unicode="&#x201d;" horiz-adv-x="1023" d="M465 1493l14 -22q-50 -197 -176 -479h-137q70 303 100 501h199zM850 1493l14 -22q-50 -197 -176 -479h-137q70 303 100 501h199zM453 1274zM448 1836z" />
<glyph unicode="&#x2020;" horiz-adv-x="64" d="M-206 -56h-130v-112q-64 -8 -118 -20t-100 -32q-96 -40 -182 -154q-68 -92 -72 -136q26 -80 154 -150q140 -80 212 -80q48 0 90 20q56 20 102 78q44 50 44 92q0 8 -4 20l-2 2q-2 0 -4 2q-2 0 -54 -46q-52 -48 -92 -52q-78 -8 -146 24q-48 26 -87 54t-71 56 q84 132 200 166q172 46 260 30v238z" />
<glyph unicode="&#x2026;" horiz-adv-x="1647" d="M274 250q61 0 94 -35.5t33 -103.5q0 -67 -33.5 -103.5t-93.5 -36.5t-93.5 37t-33.5 103q0 67 33 103t94 36zM823 250q61 0 94 -35.5t33 -103.5q0 -67 -33.5 -103.5t-93.5 -36.5t-93.5 37t-33.5 103q0 67 33 103t94 36zM1372 250q61 0 94 -35.5t33 -103.5 q0 -67 -33.5 -103.5t-93.5 -36.5q-54 0 -90.5 33t-36.5 107q0 70 33.5 104.5t93.5 34.5z" />
<glyph unicode="&#x202f;" horiz-adv-x="370" />
<glyph unicode="&#x2030;" horiz-adv-x="2656" d="M862 707q97 1 179 -40q51 -24 162 -105q-31 -49 -105 -49q-76 0 -186 50q-87 38 -148 83q-211 -119 -271 -149q-145 -74 -272 -120q55 -8 170 -40q111 -31 163 -38q36 16 71 31q44 25 44 63q0 10 -2 22q21 73 87 73q37 0 64.5 -29.5t27.5 -66.5q0 -78 -87 -78 q-11 0 -31 1t-31 1q-62 0 -87 -42q402 -73 927 -443q73 29 125 49q85 33 151 33q131 0 247 -121q-102 -64 -240 -64q-92 0 -167 31q36 -22 139 -102q79 -61 91 -59q34 12 71 12q102 0 197 -76q100 -80 100 -179q0 -48 -29 -82t-77 -34q-98 0 -194 113q-91 108 -95 209 l-248 184q50 -109 50 -207q0 -158 -112 -229q-75 62 -75 200q0 70 18 165l23 118q-243 153 -359 216q-237 128 -445 189q98 -65 210 -243q129 -204 129 -356q0 -15 -1 -30q246 -138 246 -288q0 -35 -16 -69q-124 21 -182 79q-36 36 -54 103q-15 56 -30 62 q-46 -120 -160 -186q-106 -60 -241 -60q-109 0 -183 55q-78 59 -90 165q-4 40 -4 86q0 187 48 175q19 -5 19 -35q0 -22 -6 -63q-7 -44 -8 -63q-4 -144 43 -192q72 -73 179 -73q15 0 41 4q264 32 324 229q-63 -85 -188 -85q-100 0 -138 73q65 128 180 128q52 0 175 -36 q-30 239 -182 435q-104 134 -221 206q-2 -9 -2 -18q0 -20 12 -57q15 -45 17 -55q78 -35 78 -103q0 -66 -75 -75q-42 -6 -76 18t-34 66q0 55 66 99q-15 62 -37 142q-309 74 -401 100q97 -65 126 -109q37 -55 37 -160q0 -25 -1 -79q-218 13 -244 330l-44 -11v86l44 22 q5 15 5 33q0 28 -16 86t-16 87q0 109 157 189q24 -118 24 -205q0 -127 -52 -176q11 2 64 24q54 90 107 234q48 128 67 223l-178 59q-141 65 -141 182q0 21 4 44q66 7 102 7q78 0 120 -45l116 -163q5 105 5 195q0 130 -11 227q-105 15 -196 87.5t-120 171.5q36 17 78 17 q72 0 152 -44q66 -36 112 -87q22 138 39 173q34 74 135 112q44 -47 44 -113q0 -80 -65 -177q-51 -76 -120 -134v-359q62 156 260 203q36 -32 36 -71q0 -80 -134 -180q-95 -71 -187 -111q-37 -177 -159 -431q144 78 436 228q-31 97 -31 174q0 131 93 217q85 -70 85 -170 q0 -77 -49 -178q41 23 161 88q75 41 137 89q175 136 181 280q8 186 -110 221q-52 15 -93 15q-58 0 -100 -25q-51 -30 -51 -84q0 -9 1 -17q-1 -5 -1 -9q0 -18 39 -45q8 -2 16 -2q11 0 33.5 7.5t31.5 7.5q14 0 18 -18q3 -17 -26 -28q-23 -8 -42 -8q-75 0 -120 82 q-31 57 -36 73q-18 48 -15 114q-55 37 -55 98q0 34 18 59q49 74 161 74q206 0 322 -258q50 -112 50 -222q0 -117 -62 -194l16 -1q115 104 288 265q-6 57 -56 107q-84 85 -92 96q-47 69 -47 173q9 2 19 2q22 0 64.5 -16.5t63.5 -16.5q20 0 37 10q0 80 47 168q43 -17 80 -87 q41 -78 65 -95q62 74 240 151q9 -102 -91 -290q19 -2 51 -2h49q114 0 168 -25q-12 -37 -92 -80q-72 -39 -72 -68q5 -21 48.5 -56.5t51.5 -66.5q-66 -22 -142 -22q-33 0 -66 5q-7 -31 -12 -117q-3 -68 -24 -102q-108 36 -160 115q-27 40 -50 127q-17 58 -44 58 q-291 -290 -614 -496q141 -15 546 -113q48 83 133 140q90 60 181 60q72 0 131 -42q-68 -171 -373 -192q166 -58 449 -189q-16 35 -16 81q0 72 33 143q37 -6 73 -59q42 -62 61 -76q35 76 154 133q31 -21 31 -65q0 -25 -11 -67l-15 -60q77 10 211 29q3 -44 -35 -92 q-11 -14 -72 -85q12 -28 67 -72q59 -46 73 -69q-16 -26 -114 -38q-122 -14 -130 -16q-4 -14 -4 -32q0 -13 3.5 -39t3.5 -39q0 -36 -26 -58q-48 -1 -78 34q-20 23 -58 70q-13 -9 -67 -78q-40 -51 -83 -51q-8 0 -16 2q-5 20 -1 58q4 51 4 58q0 22 -5 35q-10 -4 -66 -23 q-37 -13 -66 -13q-3 13 -3 26q0 31 30 76q39 60 46 74q-58 17 -173 63q56 66 225 109q-78 47 -222 104q-189 75 -222 91q8 -40 61 -138q44 -84 44 -134q0 -68 -69 -133q-128 65 -128 245q0 49 7 107q10 74 10 80q-107 29 -594 122q-32 -13 -82 -37zM2107 1462l-168 -3 q-136 -11 -155 -60q111 28 152 28q13 0 13 -4q0 -13 -145 -71q71 -6 168 18q123 30 135 92zM1759 1318q104 -99 225 -99q38 0 73 11q-38 92 -185 92q-19 0 -56.5 -2t-56.5 -2zM1974 1738q-113 -53 -187 -129q-94 -94 -94 -199q6 0 64 81q61 85 99 99q-14 -34 -54 -87 q-45 -57 -58 -84q172 91 230 319zM1740 1259q8 -21 48 -81q34 -49 34 -81q0 -9 -1 -18q-21 12 -57 84q-33 65 -55 72q0 -144 153 -221q8 26 8 60q0 61 -26 117q-33 70 -87 70q-8 0 -17 -2zM1638 1764q-27 -70 -27 -142q0 -83 35 -142q3 13 3 28q0 16 -5 46.5t-5 45.5 q0 33 18 58q18 -24 15 -68q-4 -50 4 -69q39 31 39 99q0 43 -18 87q-22 54 -59 57zM1521 1557l72 -62q0 42 -40 94t-80 52q-17 0 -29 -10q62 -174 158 -210q3 23 -38.5 69t-42.5 67zM1255 1434q-96 124 -202 124q-61 0 -109 -42q-50 -45 -50 -106q0 -14 3 -27q85 96 195 96 q75 0 163 -45zM909 1651q-71 -29 -71 -81q0 -15 9 -30q27 6 96 39q56 26 96 26q73 0 172 -72q-96 134 -226 134q-38 0 -76 -16zM1930 -435q98 -72 120 -91q65 -56 76 -107q-81 41 -219 156q30 -82 90 -148q70 -79 135 -79q30 0 56 17q9 22 9 45q0 85 -93 151q-88 63 -174 56 zM2330 251q-4 -71 140 -71q50 0 73 14zM2504 426l-80 3q-30 -11 -59 -23q-35 -18 -35 -49q0 -10 2 -19q11 -16 43 -16q30 1 49 1q80 31 80 103zM2353 571q-43 0 -79 -49.5t-30 -92.5q3 -23 55 -23q59 54 54 165zM2311 197q-17 12 -30 12q-26 0 -26 -54q0 -78 75 -124 q21 39 21 83q0 55 -40 83zM2299 308q-3 61 -75 61q-11 0 -22 -2q-35 -15 -50 -76q25 -59 73 -59q10 0 24 3q45 10 50 73zM2190 197q-75 -46 -75 -153q0 -14 1 -27q28 0 65 53q34 51 34 85q0 30 -25 42zM2114 563v-94q2 -57 38 -78q35 10 35 57q0 28 -18 74q-21 54 -43 54 q-9 0 -12 -13zM2105 247q-93 -39 -124 -121q7 -18 25 -15q41 6 30 6q30 9 63 36q38 30 38 57q0 23 -32 37zM2105 350l-90 8q-53 -19 -56 -20q-31 -16 -35 -44q83 -35 95 -35q8 0 17 2q28 0 49.5 22t21.5 50q0 9 -2 17z" />
<glyph unicode="&#x2039;" horiz-adv-x="1160" d="M46 536v162h1038v-162h-1038zM564 884q-39 0 -72 26q-40 32 -40 86q0 48 33.5 82t78.5 34q47 0 82.5 -35t35.5 -81q0 -54 -42 -86q-35 -26 -76 -26zM564 120q-39 0 -72 25q-40 31 -40 85q0 48 33.5 82t78.5 34q47 0 82.5 -35t35.5 -81q0 -52 -42 -83q-36 -27 -76 -27z " />
<glyph unicode="&#x205f;" horiz-adv-x="463" />
<glyph unicode="&#x20b9;" horiz-adv-x="1128" d="M718 824q-14 -133 -104.5 -212t-257.5 -104l433 -508h-210l-432 505l20 146h92q104 0 159.5 17.5t88.5 57t44 98.5h-404v146h402q-11 53 -43 90.5t-81.5 52.5t-141.5 15h-136v146h864v-146h-384q71 -52 90 -158h294v-146h-293z" />
<glyph unicode="&#x2212;" horiz-adv-x="1128" d="M102 585v150h924v-150h-924zM453 1274z" />
<glyph unicode="&#x2219;" horiz-adv-x="700" d="M330 712q53 0 91.5 -39t38.5 -93q0 -58 -47 -95q-39 -31 -83 -31t-82 30q-46 36 -46 96q0 55 37.5 93.5t90.5 38.5z" />
<glyph unicode="&#x25fc;" horiz-adv-x="1275" d="M0 1275h1275v-1275h-1275v1275z" />
</font>
</defs>
</svg>
