<?xml version="1.0" standalone="no"?>
<!DOCTYPE svg PUBLIC "-//W3C//DTD SVG 1.1//EN" "http://www.w3.org/Graphics/SVG/1.1/DTD/svg11.dtd" >
<svg xmlns="http://www.w3.org/2000/svg" xmlns:xlink="http://www.w3.org/1999/xlink" version="1.1">
<metadata>
Created by FontForge 20161004 at Wed Jun 14 16:18:46 2017
 By Sarabveer
Copyright (C) 2015-2017 Sarabveer Singh (https://sarabveer.me); Copyright (C) 2013 Google, Inc; Copyright (C) 2001 Kulbir S. Thind (gurbanifiles.org)
</metadata>
<defs>
<font id="NotoSansGurmukhiTrue-Regular" horiz-adv-x="0" >
  <font-face 
    font-family="NotoSansGurmukhiTrue"
    font-weight="400"
    font-stretch="normal"
    units-per-em="2048"
    panose-1="2 11 5 2 4 5 4 2 2 4"
    ascent="1638"
    descent="-410"
    x-height="1274"
    cap-height="1836"
    bbox="-1075 -806 3137 1854"
    underline-thickness="102"
    underline-position="-205"
    unicode-range="U+000D-2219"
  />
<missing-glyph horiz-adv-x="1229" 
d="M297 104h633v1254h-633v-1254zM193 1462h841v-1462h-841v1462z" />
    <glyph glyph-name=".notdef" horiz-adv-x="1229" 
d="M297 104h633v1254h-633v-1254zM193 1462h841v-1462h-841v1462z" />
    <glyph glyph-name="NULL" 
 />
    <glyph glyph-name="NULL" 
 />
    <glyph glyph-name="nonmarkingreturn" unicode="&#xd;" horiz-adv-x="532" 
 />
    <glyph glyph-name="space" unicode=" " horiz-adv-x="532" 
 />
    <glyph glyph-name="space" unicode="&#xa0;" horiz-adv-x="532" 
 />
    <glyph glyph-name="adakbindiguru" unicode="&#xa01;" 
d="M-183 1274zM116 1758q-22 -188 -119.5 -286q-96.5 -98 -262.5 -98t-265.5 100.5t-115.5 283.5l148 19q15 -136 71 -200.5t162 -64.5t163 64.5t71 200.5zM-266 1836q47 0 77 -30.5q30 -31.5 30 -81.5t-29.5 -80t-76.5 -30t-77.5 30.5t-30.5 80.5t30 80.5t77 30.5z" />
    <glyph glyph-name="bindiguru" unicode="&#xa02;" 
d="M-266 1836zM-183 1274zM-266 1710q49 0 81 -32.5q32 -33.5 32 -85.5t-31 -84q-32 -32 -82 -32t-81.5 32.5t-31.5 84.5t32 84.5t81 32.5z" />
    <glyph glyph-name="visargaguru" unicode="&#xa03;" horiz-adv-x="830" 
d="M311 167.5q38 -37.5 103.5 -37.5t104 38t38.5 99t-38.5 99t-103.5 38t-103.5 -37.5t-38.5 -99.5t38 -99.5zM205 460q79 74 210.5 74t210 -72.5t78.5 -195t-77.5 -194.5t-210.5 -72t-211.5 72t-78.5 193t79 195zM311 907.5q38 -37.5 103.5 -37.5t104 38t38.5 99t-38.5 99
t-103.5 38t-103.5 -37.5t-38.5 -99.5t38 -99.5zM205 1200q79 74 210.5 74t210 -72.5t78.5 -195t-77.5 -194.5t-210.5 -72t-211.5 72t-78.5 193t79 195z" />
    <glyph glyph-name="aguru" unicode="&#xa05;" horiz-adv-x="1520" 
d="M374 807zM1172 735zM863 600zM766 988zM603 0zM863 746q133 92 309 135v393h363v-146h-198v-1128h-165v723q-172 -45 -302 -139q-3 -173 -49 -267.5t-122 -94.5q-100 0 -100 118q0 74 36 160t94 149q-16 204 -65 304q-159 -59 -278 -154q-5 -175 -50 -269.5t-124 -94.5
q-98 0 -98 119q0 74 35.5 159t92.5 146q-12 184 -71 269h-186v146h310q79 -182 79 -321q61 53 171.5 105t220.5 76q38 -63 65 -174.5t32 -213.5z" />
    <glyph glyph-name="aaguru" unicode="&#xa06;" horiz-adv-x="2001" 
d="M374 807zM1172 735zM863 600zM766 988zM603 0zM1836 1274zM863 746q133 92 309 135v393h844v-146h-180v-593h-165v593h-334v-1128h-165v723q-172 -45 -302 -139q-3 -173 -49 -267.5t-122 -94.5q-100 0 -100 118q0 74 36 160t94 149q-16 204 -65 304q-159 -59 -278 -154
q-5 -175 -50 -269.5t-124 -94.5q-98 0 -98 119q0 74 35.5 159t92.5 146q-12 184 -71 269h-186v146h310q79 -182 79 -321q61 53 171.5 105t220.5 76q38 -63 65 -174.5t32 -213.5z" />
    <glyph glyph-name="iguru" unicode="&#xa07;" horiz-adv-x="1671" 
d="M1100 0zM1500 1274zM1335 1128h-527q0 -254 128 -342q66 -46 196 -45h203v387zM892 657q-252 112 -252 471h-293v-1128h-165v1128h-197v146h197v94q0 164 37.5 259.5t121.5 152t229.5 56.5t237.5 -94t92 -265q0 -54 -13 -136l-160 16q11 59 11 125q0 210 -184 210
q-77 0 -125.5 -40t-65 -106.5t-16.5 -172.5v-99h1339v-146h-186v-472l-60 -60h-280q-204 0 -363 -198q78 -133 163 -190.5t191.5 -57.5t185 19.5t182.5 69.5l57 -145q-190 -94 -394.5 -94t-341 98.5t-236.5 310.5q104 162 288 248z" />
    <glyph glyph-name="iiguru" unicode="&#xa08;" horiz-adv-x="1671" 
d="M570 0zM805 1128h-527q0 -254 128 -342q66 -46 196 -45h203v387zM1128 1692q-197 0 -197 -216q0 -51 12 -119l-160 -16q-14 97 -14 137q0 166 98 262t250 96t232.5 -59t109.5 -152.5t29 -256.5v-94h198v-146h-198v-1128h-165v1128h-353v-472l-60 -60h-280
q-204 0 -363 -198q78 -133 163 -190.5t191.5 -57.5t185 19.5t182.5 69.5l57 -145q-190 -94 -394.5 -94t-341 98.5t-236.5 310.5q104 162 288 248q-252 112 -252 471h-125v146h1338v65q0 148 -17 214q-36 139 -178 139z" />
    <glyph glyph-name="uguru" unicode="&#xa09;" horiz-adv-x="1356" 
d="M836 1836zM322 595q68 -446 405 -446q132 0 195 51t63 161q0 93 -54 145q-67 64 -189 80q-72 9 -200 9h-220zM303 869q0 -68 3 -128h269q147 0 244 14q97 15 164 59q136 91 140 314h-804q-16 -99 -16 -240v-19zM349 1274h767q-22 158 -113.5 242.5
q-92.5 84.5 -244.5 84.5q-310 0 -409 -327zM1287 1128q-6 -180 -88.5 -302t-240.5 -172q93 -45 144 -124t51 -171q0 -172 -107.5 -265.5t-309.5 -93.5q-293 0 -447 219t-154 644v38q0 123 14 227h-164v146h191q65 239 219 358t372 119t352.5 -123t161.5 -354h90v-146h-84z
M692 -555zM688 0zM1080 -268q-169 -105 -393 -105q-221 0 -392 105l29 138q169 -97 362.5 -97t364.5 97z" />
    <glyph glyph-name="uuguru" unicode="&#xa0a;" horiz-adv-x="1356" 
d="M836 1836zM322 595q68 -446 405 -446q132 0 195 51t63 161q0 93 -54 145q-67 64 -189 80q-72 9 -200 9h-220zM303 869q0 -68 3 -128h269q147 0 244 14q97 15 164 59q136 91 140 314h-804q-16 -99 -16 -240v-19zM349 1274h767q-22 158 -113.5 242.5
q-92.5 84.5 -244.5 84.5q-310 0 -409 -327zM1287 1128q-6 -180 -88.5 -302t-240.5 -172q93 -45 144 -124t51 -171q0 -172 -107.5 -265.5t-309.5 -93.5q-293 0 -447 219t-154 644v38q0 123 14 227h-164v146h191q65 239 219 358t372 119t352.5 -123t161.5 -354h90v-146h-84z
M702 -806zM688 0zM1080 -483q-171 -105 -393 -105q-221 0 -392 105l29 126q168 -97 361.5 -97t365.5 97zM1080 -215q-169 -105 -393 -105q-223 0 -392 105l29 125q168 -97 362.5 -97t364.5 97z" />
    <glyph glyph-name="eeguru" unicode="&#xa0f;" horiz-adv-x="1141" 
d="M570 0zM805 1128h-527q0 -254 128 -342q66 -46 196 -45h203v387zM362 657q-252 112 -252 471h-125v146h1171v-146h-186v-472l-60 -60h-280q-204 0 -363 -198q78 -133 163 -190.5t191.5 -57.5t185 19.5t182.5 69.5l57 -145q-190 -94 -394.5 -94t-341 98.5t-236.5 310.5
q105 162 288 248zM958 1274zM800 1259q-49 208 -146 314.5t-262 106.5h-37q-12 0 -20 -1l-9 155q18 2 51 2q233 0 375 -143t205 -434h-157z" />
    <glyph glyph-name="aiguru" unicode="&#xa10;" horiz-adv-x="1520" 
d="M374 807zM1172 735zM863 600zM766 988zM603 0zM863 746q133 92 309 135v393h363v-146h-198v-1128h-165v723q-172 -45 -302 -139q-3 -173 -49 -267.5t-122 -94.5q-100 0 -100 118q0 74 36 160t94 149q-16 204 -65 304q-159 -59 -278 -154q-5 -175 -50 -269.5t-124 -94.5
q-98 0 -98 119q0 74 35.5 159t92.5 146q-12 184 -71 269h-186v146h310q79 -182 79 -321q61 53 171.5 105t220.5 76q38 -63 65 -174.5t32 -213.5zM1337 1274zM1195 1182q-68 113 -170.5 168t-269.5 55h-20q-11 0 -20 -1l-10 150q20 2 42 2q291 0 450 -201
q-56 168 -152.5 248.5t-260.5 80.5h-15q-8 0 -15 -1l-9 151q18 2 39 2q238 0 373.5 -141t192.5 -436l-85 -7q8 -14 15 -28z" />
    <glyph glyph-name="ooguru" unicode="&#xa13;" horiz-adv-x="1356" 
d="M836 1836zM684 0zM322 595q68 -446 405 -446q132 0 195 51t63 161q0 93 -54 145q-67 64 -189 80q-72 9 -200 9h-220zM1122 1128h-805q-14 -97 -14 -240v-19q0 -68 3 -128h269q187 0 273.5 20t145.5 64q121 90 128 303zM1286 1128q-24 -376 -329 -474q94 -45 145 -123.5
t51 -171.5q0 -172 -107.5 -265.5t-309.5 -93.5q-293 0 -447 219t-154 644v38q0 124 14 227h-164v146h192q103 376 469 435q112 18 283 18h315l-10 -146h-285q-235 0 -339.5 -31.5t-166.5 -100t-95 -175.5h1023v-146h-85z" />
    <glyph glyph-name="auguru" unicode="&#xa14;" horiz-adv-x="1520" 
d="M374 807zM1172 735zM863 600zM766 988zM603 0zM863 746q133 92 309 135v393h363v-146h-198v-1128h-165v723q-172 -45 -302 -139q-3 -173 -49 -267.5t-122 -94.5q-100 0 -100 118q0 74 36 160t94 149q-16 204 -65 304q-159 -59 -278 -154q-5 -175 -50 -269.5t-124 -94.5
q-98 0 -98 119q0 74 35.5 159t92.5 146q-12 184 -71 269h-186v146h310q79 -182 79 -321q61 53 171.5 105t220.5 76q38 -63 65 -174.5t32 -213.5zM1337 1274zM1367 1411q26 60 26 121t-36 94.5t-103 33.5t-102.5 -34.5t-35.5 -94.5t26 -120l-140 -21q-33 80 -33 156
q0 11 1 22q-21 -4 -43 -4q-239 0 -298 233l146 39q23 -75 55.5 -107t86.5 -32t79 6t60 28q79 62 203 62t202.5 -67t78.5 -181q0 -74 -33 -155z" />
    <glyph glyph-name="kaguru" unicode="&#xa15;" horiz-adv-x="1273" 
d="M1050 1274zM848 555q-149 203 -363 203q-115 0 -180 -55.5t-65 -154t62 -154t176 -55.5q232 0 370 216zM1077 1128q19 -89 19 -189q0 -214 -85 -378q115 -196 155 -561h-166q-18 239 -84 411q-170 -218 -446 -218q-185 0 -291.5 95t-106.5 259t112 260.5t288 96.5
q264 0 433 -194q26 94 26 206.5t-20 211.5h-926v146h1303v-146h-211z" />
    <glyph glyph-name="khaguru" unicode="&#xa16;" horiz-adv-x="1224" 
d="M582 421q144 0 294 92v275h-520q-27 -66 -85 -119q64 -132 137.5 -190t173.5 -58zM290 1274q94 -171 94 -332v-13h492v345h363v-146h-198v-1128h-165v337q-138 -66 -300 -66q-332 0 -498 410q143 120 143 260q0 102 -49 187h-187v146h305z" />
    <glyph glyph-name="gaguru" unicode="&#xa17;" horiz-adv-x="1536" 
d="M718 690h-179q-121 0 -177 -12q-120 -25 -121 -161q0 -81 51 -173.5t123.5 -145t142 -52.5t100.5 19t45.5 57.5t14.5 137.5v330zM718 836v292h-733v146h1566v-146h-198v-1128h-165v1128h-305v-790q-1 -136 -41 -204q-78 -134 -279 -134q-118 0 -224.5 65.5t-184.5 192.5
t-78 247t50.5 196t137.5 105.5t242 29.5h212z" />
    <glyph glyph-name="ghaguru" unicode="&#xa18;" horiz-adv-x="1550" 
d="M1065 421q87 0 137 65v788h363v-146h-198v-1128h-165v307q-65 -35 -150 -35q-205 0 -285 184q-92 -184 -297 -184q-147 0 -232 90t-160 319q143 120 143 260q0 102 -49 187h-187v146h305q94 -171 94 -339.5t-123 -273.5q66 -240 220 -240q161 0 219 229q-33 232 -33 392
q0 203 113 203t113 -204q0 -152 -43 -396q58 -224 215 -224z" />
    <glyph glyph-name="ngaguru" unicode="&#xa19;" horiz-adv-x="1185" 
d="M848 0zM251 328q0 -111 237 -111q115 0 213 36q-139 161 -317 161q-66 0 -99.5 -23t-33.5 -63zM384 560q259 0 449 -230q111 99 111 233q0 123 -120 159q-58 18 -207 18h-374l-60 60v328h-198v146h1215v-146h-852v-242h313q166 0 255 -32q193 -68 193 -285
q0 -100 -49.5 -194.5t-140.5 -164.5q39 -59 97 -184l-159 -43q-37 90 -72 149q-136 -57 -316 -57q-181 0 -282 66.5t-101 193.5q0 98 79.5 161.5t218.5 63.5z" />
    <glyph glyph-name="caguru" unicode="&#xa1a;" horiz-adv-x="1345" 
d="M897 0zM997 596h-625q11 -121 73.5 -225t159 -163t191.5 -59t134.5 23.5t53 68t13.5 134.5v221zM284 906q88 0 88 -114v-51h625v387h-1012v146h1375v-146h-198v-775q0 -134 -43 -207q-86 -146 -322.5 -146t-400.5 170.5t-190 425.5h-35q-106 0 -106 78q0 46 34.5 100.5
t88 93t96.5 38.5z" />
    <glyph glyph-name="chaguru" unicode="&#xa1b;" horiz-adv-x="1299" 
d="M921 0zM649 0zM1094 1274zM736 447v-307q167 4 243.5 41.5t76.5 120.5q0 88 -109 126q-54 18 -170 19h-41zM581 140v307h-78q-125 0 -184.5 -41t-59.5 -115q0 -143 322 -151zM249 496q-144 64 -144 202q0 77 47 133.5t119 80.5t227 24h431v192h-944v146h1329v-146h-220
v-278l-60 -60h-565q-113 0 -156 -23.5t-43 -76t46 -78t156 -25.5h331q213 0 315 -76t102 -222.5t-139 -217.5t-430 -71t-423.5 71t-132.5 214t154 211z" />
    <glyph glyph-name="jaguru" unicode="&#xa1c;" horiz-adv-x="1253" 
d="M294 906q88 0 88 -114v-51h523v387h-920v146h1283v-146h-198v-1128h-165v596h-523v-596h-165v596h-36q-106 0 -106 78q0 46 34.5 100.5t88 93t96.5 38.5z" />
    <glyph glyph-name="jhaguru" unicode="&#xa1d;" horiz-adv-x="1216" 
d="M892 118zM420 299zM526 855q44 -12 93 -12q49 1 107 21q128 46 157 264h-536q26 -231 179 -273zM169 277q0 96 184 96q101 0 241 -63q343 26 343 210q0 94 -84 137t-292 43t-448 -80l-51 136q122 39 267 64q-125 101 -149 308h-195v146h1246v-146h-181
q-30 -225 -171 -324q227 -76 227 -284q0 -128 -93.5 -214.5t-271.5 -120.5q74 -46 144 -107l-113 -106q-142 132 -234 184q-39 -3 -138 -3t-165 33t-66 91z" />
    <glyph glyph-name="nyaguru" unicode="&#xa1e;" horiz-adv-x="1162" 
d="M598 0zM348 1128q68 -104 112 -194h354v194h-466zM398 289q0 -141 265 -141q167 0 320 48l44 -150q-167 -46 -375 -46t-313.5 73t-105.5 201q0 94 71 151q-101 24 -164.5 87.5t-63.5 165.5q0 201 210 243q-66 116 -135 207h-166v146h1192v-146h-198v-280l-60 -60h-483
q-71 0 -111 -8q-84 -18 -84 -98q0 -100 134 -123q64 -11 204 -11h430v-146h-419q-116 0 -154 -30.5t-38 -82.5z" />
    <glyph glyph-name="ttaguru" unicode="&#xa1f;" horiz-adv-x="1178" 
d="M597 0zM1101 105q-225 -105 -431 -105t-345 111t-255 368q131 172 235 251t202.5 106t249.5 27h73v265h-845v146h1208v-146h-198v-351l-60 -60h-78q-152 0 -223.5 -8q-71.5 -9 -131.5 -35q-117 -52 -245 -209q86 -169 181.5 -242t207.5 -73t189.5 20t208.5 80z" />
    <glyph glyph-name="tthaguru" unicode="&#xa20;" horiz-adv-x="1352" 
d="M664 752zM914 0zM758 1274zM676 150q432 0 432 260q0 122 -113 219.5t-319 145.5q-209 -48 -320.5 -145t-111.5 -224t103.5 -191.5t328.5 -64.5zM1272 413q0 -413 -596 -413q-293 0 -444.5 104.5t-151.5 308.5q0 164 134 295.5t380 189.5v230h-609v146h1382v-146h-609
v-230q249 -58 381.5 -191t132.5 -294z" />
    <glyph glyph-name="ddaguru" unicode="&#xa21;" horiz-adv-x="1223" 
d="M795 0zM576 0zM237 255q0 -113 270 -113q129 0 211 20q-221 159 -345 177q-136 0 -136 -84zM884 741q229 -118 229 -336q0 -192 -159.5 -298.5t-443.5 -106.5q-215 0 -326.5 66.5t-111.5 193.5q0 98 77.5 161.5t217.5 63.5t267 -68t222 -194q88 68 88 191
q0 82 -60.5 149.5t-169.5 99.5q-125 -24 -230 -24q-229 0 -229 116q0 104 179 104q148 0 297 -54q164 70 164 257q0 38 -4 66h-906v146h1253v-146h-183q6 -36 6 -67q0 -108 -41 -186t-136 -134z" />
    <glyph glyph-name="ddhaguru" unicode="&#xa22;" horiz-adv-x="1323" 
d="M1073 253q0 86 -139 86q-170 0 -328 -148q96 -49 223 -49t185.5 26.5t58.5 84.5zM491 274q197 211 458 211q136 0 212.5 -63t76.5 -162q0 -127 -104.5 -193.5t-301.5 -66.5t-337 79.5t-214 226t-74 332.5v18h-36q-106 0 -106 78q0 46 34.5 100.5t88 93t96.5 38.5
q88 0 88 -114v-51h603v327h-990v146h1353v-146h-198v-412l-60 -60h-708v-22q0 -233 119 -360z" />
    <glyph glyph-name="nnaguru" unicode="&#xa23;" horiz-adv-x="1274" 
d="M1206 105q-243 -105 -479 -105t-385 99.5t-272 349.5q138 178 251 248.5t244 70.5q72 0 137 -21l61 122q-198 121 -346 259h-432v146h1304v-146h-653q215 -163 566 -313l-72 -140q-126 57 -231 115l-86 -169l-76 -32q-74 30 -159 30t-156 -38t-162 -144
q101 -166 204.5 -226.5t232.5 -60.5t216 20t236 80z" />
    <glyph glyph-name="taguru" unicode="&#xa24;" horiz-adv-x="1110" 
d="M702 0zM618 805q164 66 164 243q0 44 -7 80h-790v146h1140v-146h-183q6 -43 6 -82q0 -105 -40 -177.5t-136 -127.5q122 -67 175 -154t53 -202q0 -179 -132.5 -282t-355.5 -103q-262 0 -486 132l67 150q204 -133 415 -133q152 0 237.5 61t85.5 165t-57.5 173t-171.5 115
q-125 -24 -231 -24q-229 0 -229 116q0 104 179 104q148 0 297 -54z" />
    <glyph glyph-name="thaguru" unicode="&#xa25;" horiz-adv-x="1224" 
d="M582 421q144 0 294 92v218h-551q-19 -29 -54 -62q64 -132 137.5 -190t173.5 -58zM347 1128q37 -98 37 -159.5t-5 -96.5h497v256h-529zM221 941q0 102 -49 187h-187v146h1254v-146h-198v-1128h-165v338q-141 -67 -302 -67q-330 0 -496 410q143 120 143 260z" />
    <glyph glyph-name="daguru" unicode="&#xa26;" horiz-adv-x="1263" 
d="M284 906q88 0 88 -114v-51h543v387h-930v146h1293v-146h-198v-472l-60 -60h-648q2 -446 384 -446q176 0 354 90l57 -146q-187 -94 -432 -94t-386.5 151t-141.5 423v22h-36q-106 0 -106 78q0 46 34.5 100.5t88 93t96.5 38.5z" />
    <glyph glyph-name="dhaguru" unicode="&#xa27;" horiz-adv-x="1214" 
d="M408.5 479q73.5 -58 194 -58t263.5 86v621h-519q37 -98 37 -186q0 -171 -113 -273q64 -132 137.5 -190zM221 941q0 102 -49 187h-187v146h1244v-146h-198v-1128h-165v333q-135 -62 -294 -62t-285 102.5t-209 307.5q143 120 143 260z" />
    <glyph glyph-name="naguru" unicode="&#xa28;" horiz-adv-x="1328" 
d="M662 752zM930 0zM664 0zM746 1274zM664 775q-204 -52 -312 -150t-108 -223t66 -189t191 -64l-10 -149q-263 0 -363 196q-48 94 -48 201q0 170 130.5 303.5t371.5 197.5v230h-597v146h1358v-146h-597v-230q242 -64 372 -197.5t130 -303.5q0 -106 -46.5 -199t-139 -145.5
t-225.5 -52.5l-10 149q125 0 191 64t66 189t-108 223t-312 150z" />
    <glyph glyph-name="paguru" unicode="&#xa2a;" horiz-adv-x="1214" 
d="M408.5 479q73.5 -58 192.5 -58t265 86v767h363v-146h-198v-1128h-165v333q-135 -62 -294 -62t-285 102.5t-209 307.5q143 120 143 260q0 102 -49 187h-187v146h305q94 -171 94 -337t-113 -268q64 -132 137.5 -190z" />
    <glyph glyph-name="phaguru" unicode="&#xa2b;" horiz-adv-x="1185" 
d="M934 253q0 86 -140 86q-168 0 -326 -148q88 -49 224 -49q242 0 242 111zM1099 260q0 -260 -404 -260q-347 0 -529 261q-90 130 -90 280q0 153 114 239q60 46 143.5 63.5t215.5 17.5h288v267h-852v146h1215v-146h-198v-353l-60 -60h-361q-145 -1 -208 -17
q-132 -35 -132 -167q0 -126 115 -249q197 203 454 203q135 0 212 -62.5t77 -162.5z" />
    <glyph glyph-name="baguru" unicode="&#xa2c;" horiz-adv-x="1246" 
d="M898 352v309h-258q-222 0 -363 -163q60 -106 145 -156t222.5 -50t253.5 60zM898 802v326h-610q0 -226 130 -294q60 -32 181 -32h299zM353 721q-233 100 -233 407h-135v146h1276v-146h-198v-1128h-165v193q-123 -51 -288.5 -51t-303.5 92t-222 273q83 121 269 214z" />
    <glyph glyph-name="bhaguru" unicode="&#xa2d;" horiz-adv-x="1182" 
d="M759 0zM535 0zM756 698q-126 104 -289 104q-88 0 -132 -26t-44 -69q0 -98 179 -98q183 0 286 89zM465 948q218 0 374 -134q29 70 29 157.5t-31 156.5h-852v146h1212v-146h-190q23 -72 23 -197t-79 -232q97 -135 97 -283q0 -202 -136 -309t-389 -107q-273 0 -497 132
l67 150q206 -134 435 -134q358 0 358 276q0 84 -41 164q-143 -125 -373 -125q-165 0 -255.5 64.5t-90.5 176t89 178t250 66.5z" />
    <glyph glyph-name="maguru" unicode="&#xa2e;" horiz-adv-x="1220" 
d="M216 165q-98 0 -98 119q0 67 32 152.5t93 152.5q-14 289 -105 539h-153v146h282q126 -324 128 -594h477v594h363v-146h-198v-1128h-165v534h-479q-9 -183 -55.5 -276t-121.5 -93z" />
    <glyph glyph-name="yaguru" unicode="&#xa2f;" horiz-adv-x="1424" 
d="M645 759h431v369h-730q38 -102 38 -193q0 -174 -113 -278q63 -137 136.5 -199t174.5 -62q31 0 63 4v359zM188 800q33 63 33 152t-49 176h-187v146h1454v-146h-198v-1128h-165v613h-266v-334q-101 -33 -229 -33q-337 0 -503 423q77 68 110 131z" />
    <glyph glyph-name="raguru" unicode="&#xa30;" horiz-adv-x="1185" 
d="M737 0zM837 690h-260q-133 0 -198 -13q-138 -28 -138 -160q0 -83 65.5 -175t155 -142.5t177.5 -50.5t128 23t55 65t15 138v315zM837 836v292h-852v146h1215v-146h-198v-775q0 -137 -44 -209q-88 -144 -323 -144q-131 0 -253.5 62.5t-214 192.5t-91.5 255t56 195
t149.5 100.5t275.5 30.5h280z" />
    <glyph glyph-name="laguru" unicode="&#xa32;" horiz-adv-x="1380" 
d="M690 658zM448 666zM982 0zM690 0zM1141 1274zM407 1128q44 -274 283 -441q116 77 188.5 191t94.5 250h-566zM1141 1128q-31 -163 -128 -316q142 -79 214.5 -185.5t72.5 -222q0 -114.5 -50 -208.5q-105 -195 -378 -196h-12l-10 150h22q128 0 196 64.5q68 65.5 68 167.5
q0 205 -214 315q-106 -114 -232 -185q-128 72 -234 185q-101 -53 -156.5 -130t-55.5 -181t67.5 -170t196.5 -66h22l-10 -150h-12q-137 0 -233 51.5t-145.5 144.5t-49.5 208t73.5 224t214.5 184q-102 154 -129 316h-254v146h1410v-146h-254z" />
    <glyph glyph-name="lanuktaguru" unicode="&#xa33;" horiz-adv-x="1380" 
d="M690 658zM448 666zM982 0zM690 0zM1141 1274zM407 1128q44 -274 283 -441q116 77 188.5 191t94.5 250h-566zM1141 1128q-31 -163 -128 -316q142 -79 214.5 -185.5t72.5 -222q0 -114.5 -50 -208.5q-105 -195 -378 -196h-12l-10 150h22q128 0 196 64.5q68 65.5 68 167.5
q0 205 -214 315q-106 -114 -232 -185q-128 72 -234 185q-101 -53 -156.5 -130t-55.5 -181t67.5 -170t196.5 -66h22l-10 -150h-12q-137 0 -233 51.5t-145.5 144.5t-49.5 208t73.5 224t214.5 184q-102 154 -129 316h-254v146h1410v-146h-254zM248 78zM248 -80q49 0 81 -32.5
q32 -33.5 32 -85.5t-31 -84t-81 -32t-82 32.5t-32 84.5t32 84.5t81 32.5z" />
    <glyph glyph-name="vaguru" unicode="&#xa35;" horiz-adv-x="1162" 
d="M598 0zM398 289q0 -141 265 -141q167 0 320 48l44 -150q-167 -46 -375 -46t-313.5 73t-105.5 201q0 94 71 151q-101 24 -164.5 87.5t-63.5 175.5q0 134 112 198q54 30 121 39t180 9h325v194h-829v146h1192v-146h-198v-280l-60 -60h-483q-71 0 -111 -8q-84 -18 -84 -98
q0 -100 134 -123q64 -11 204 -11h430v-146h-365q-144 0 -179 -15q-67 -29 -67 -98z" />
    <glyph glyph-name="sanuktaguru" unicode="&#xa36;" horiz-adv-x="1235" 
d="M575 216q49 0 81 -32.5t32 -85t-31 -84.5t-81.5 -32t-82 32.5t-31.5 84.5t32 84.5t81 32.5zM313 1128q79 -246 82 -448h492v448h-574zM216 165q-98 0 -98 119q0 67 32 152.5t93 152.5q-14 289 -105 539h-153v146h1265v-146h-198v-1128h-165v534h-494q-9 -183 -55.5 -276
t-121.5 -93z" />
    <glyph glyph-name="saguru" unicode="&#xa38;" horiz-adv-x="1220" 
d="M313 1128q79 -246 82 -448h477v448h-559zM216 165q-98 0 -98 119q0 67 32 152.5t93 152.5q-14 289 -105 539h-153v146h1250v-146h-198v-1128h-165v534h-479q-9 -183 -55.5 -276t-121.5 -93z" />
    <glyph glyph-name="haguru" unicode="&#xa39;" horiz-adv-x="1180" 
d="M732 0zM540 683q-35 4 -78 4q-118 0 -169.5 -42t-51.5 -126.5t66 -177.5t155.5 -142.5t177.5 -49.5t125.5 24.5t52 65.5t14.5 136v753h-847v146h1210v-146h-198v-775q0 -144 -49 -217t-123.5 -104.5t-199.5 -31.5t-248.5 66t-212 192t-88.5 270q0 308 391 308q48 0 85 -6
z" />
    <glyph glyph-name="nuktaguru" unicode="&#xa3c;" 
d="M-579 0zM-579 -158q49 0 81 -32.5q32 -33.5 32 -85.5t-31 -84t-81 -32t-82 32.5t-32 84.5t32 84.5t81 32.5z" />
    <glyph glyph-name="aamatraguru" unicode="&#xa3e;" horiz-adv-x="481" 
d="M316 1274zM496 1128h-180v-593h-165v593h-166v146h511v-146z" />
    <glyph glyph-name="imatraguru" unicode="&#xa3f;" horiz-adv-x="530" 
d="M738 1482q0 210 -184 210q-77 0 -125.5 -40t-65 -106.5t-16.5 -172.5v-99h198v-146h-198v-1128h-165v1128h-197v146h197v94q0 164 37.5 259.5t121.5 152t229.5 56.5t237.5 -94t92 -265q0 -54 -13 -136l-160 16q11 59 11 125z" />
    <glyph glyph-name="iimatraguru" unicode="&#xa40;" horiz-adv-x="530" 
d="M-13 1692q-197 0 -197 -216q0 -51 12 -119l-160 -16q-14 97 -14 137q0 166 98 262t250 96t232.5 -59t109.5 -152.5t29 -256.5v-94h198v-146h-198v-1128h-165v1128h-197v146h197v65q0 148 -17 214q-36 139 -178 139z" />
    <glyph glyph-name="umatraguru" unicode="&#xa41;" 
d="M-620 -555zM-624 0zM-232 -268q-169 -105 -393 -105q-221 0 -392 105l29 138q169 -97 362.5 -97t364.5 97z" />
    <glyph glyph-name="uumatraguru" unicode="&#xa42;" 
d="M-610 -806zM-624 0zM-232 -483q-171 -105 -393 -105q-221 0 -392 105l29 126q168 -97 361.5 -97t365.5 97zM-232 -215q-169 -105 -393 -105q-223 0 -392 105l29 125q168 -97 362.5 -97t364.5 97z" />
    <glyph glyph-name="eematraguru" unicode="&#xa47;" 
d="M-183 1274zM-341 1259q-49 208 -146 314.5t-262 106.5h-37q-12 0 -20 -1l-9 155q18 2 51 2q233 0 375 -143t205 -434h-157z" />
    <glyph glyph-name="aimatraguru" unicode="&#xa48;" 
d="M-183 1274zM-325 1182q-68 113 -170.5 168t-269.5 55h-20q-11 0 -20 -1l-10 150q20 2 42 2q291 0 450 -201q-56 168 -152.5 248.5t-260.5 80.5h-15q-8 0 -15 -1l-9 151q18 2 39 2q238 0 373.5 -141t192.5 -436l-85 -7q8 -14 15 -28z" />
    <glyph glyph-name="oomatraguru" unicode="&#xa4b;" 
d="M-183 1274zM-640 1629l152 10q283 0 293 -380h-150q-11 127 -46.5 181t-112.5 54l-152 -11q-126 0 -197.5 78t-112.5 236l146 39q42 -134 78.5 -170.5t101.5 -36.5z" />
    <glyph glyph-name="aumatraguru" unicode="&#xa4c;" 
d="M-183 1274zM-153 1411q26 60 26 121t-36 94.5t-103 33.5t-102.5 -34.5t-35.5 -94.5t26 -120l-140 -21q-33 80 -33 156q0 11 1 22q-21 -4 -43 -4q-239 0 -298 233l146 39q23 -75 55.5 -107t86.5 -32t79 6t60 28q79 62 203 62t202.5 -67t78.5 -181q0 -74 -33 -155z" />
    <glyph glyph-name="halantguru" unicode="&#xa4d;" 
d="M54 -503q-51 129 -139.5 202t-234.5 73h-26q-10 0 -19 -1l-9 155q18 2 51 2q376 0 519 -388z" />
    <glyph glyph-name="udaatguru" unicode="&#xa51;" 
d="M-348 0zM-200 -61q50 -211 147 -316t261 -105h17q7 0 16 1l-18 -157q-224 0 -364 132t-206 400z" />
    <glyph glyph-name="khanuktaguru" unicode="&#xa59;" horiz-adv-x="1224" 
d="M340 216q49 0 81 -32t32 -86q0 -52 -31 -84q-32 -32 -82 -32t-82 32t-31 85q0 53 32 85t81 32zM582 421q144 0 294 92v275h-520q-27 -66 -85 -119q64 -132 137.5 -190t173.5 -58zM290 1274q94 -171 94 -332v-13h492v345h363v-146h-198v-1128h-165v337q-138 -66 -300 -66
q-332 0 -498 410q143 120 143 260q0 102 -49 187h-187v146h305z" />
    <glyph glyph-name="ganuktaguru" unicode="&#xa5a;" horiz-adv-x="1536" 
d="M718 690h-179q-121 0 -177 -12q-120 -25 -121 -161q0 -81 51 -173.5t123.5 -145t142 -52.5t100.5 19t45.5 57.5t14.5 137.5v330zM718 836v292h-733v146h1566v-146h-198v-1128h-165v1128h-305v-790q-1 -136 -41 -204q-78 -134 -279 -134q-118 0 -224.5 65.5t-184.5 192.5
t-78 247t50.5 196t137.5 105.5t242 29.5h212zM258 112zM258 -46q49 0 81 -32.5q32 -33.5 32 -85.5t-31 -84t-81 -32t-82 32.5t-32 84.5t32 84.5t81 32.5z" />
    <glyph glyph-name="januktaguru" unicode="&#xa5b;" horiz-adv-x="1283" 
d="M658 216q49 0 81 -32.5t32 -85t-31 -84.5t-81.5 -32t-82 32.5t-31.5 84.5t32 84.5t81 32.5zM294 906q88 0 88 -114v-51h553v387h-950v146h1313v-146h-198v-1128h-165v596h-553v-596h-165v596h-36q-106 0 -106 78q0 46 34.5 100.5t88 93t96.5 38.5z" />
    <glyph glyph-name="rraguru" unicode="&#xa5c;" horiz-adv-x="1165" 
d="M1055 475q0 -173 -180 -255q70 -85 140 -189l-152 -71q-59 106 -137 217q-69 -11 -169 -11q-173 0 -286 52q69 -92 122 -189l-153 -67q-84 176 -187 346l75 116q226 -110 439 -110q319 0 319 168q0 148 -233 201q-125 -24 -227 -24q-229 0 -229 116q0 104 179 104
q148 0 297 -54q164 68 164 242q0 37 -4 61h-848v146h1195v-146h-182q5 -37 5 -63q0 -208 -171 -303q116 -49 169.5 -119t53.5 -168z" />
    <glyph glyph-name="phanuktaguru" unicode="&#xa5e;" horiz-adv-x="1185" 
d="M934 253q0 86 -140 86q-168 0 -326 -148q88 -49 224 -49q242 0 242 111zM1099 260q0 -260 -404 -260q-347 0 -529 261q-90 130 -90 280q0 153 114 239q60 46 143.5 63.5t215.5 17.5h288v267h-852v146h1215v-146h-198v-353l-60 -60h-361q-145 -1 -208 -17
q-132 -35 -132 -167q0 -126 115 -249q197 203 454 203q135 0 212 -62.5t77 -162.5zM209 194zM209 36q49 0 81 -32.5q32 -33.5 32 -85.5t-31 -84t-81 -32t-82 32.5t-32 84.5t32 84.5t81 32.5z" />
    <glyph glyph-name="zeroguru" unicode="&#xa66;" horiz-adv-x="1128" 
d="M557 1274zM330.5 399q83.5 -90 232.5 -90t234 90.5t85 247t-84.5 247t-232 90.5t-233 -92.5t-85.5 -247.5t83.5 -245zM563 1133q220 0 353.5 -133.5t133.5 -354.5t-132 -353t-354 -132t-353.5 133t-131.5 355q0 140 60 251t171 172.5t253 61.5z" />
    <glyph glyph-name="oneguru" unicode="&#xa67;" horiz-adv-x="1128" 
d="M483 757q149 0 245 85v81q0 89 -28 133q-59 92 -202 91q-100 0 -154.5 -52.5t-54.5 -143.5t51 -142.5t143 -51.5zM728 672q-106 -62 -257.5 -62t-249.5 91t-98 244t104.5 251t262 98t248 -55.5t123 -125t32.5 -199.5v-594q0 -89 14.5 -125t45.5 -50t91 -14l-20 -149
q-224 0 -278 174q-18 58 -18 162v354z" />
    <glyph glyph-name="twoguru" unicode="&#xa68;" horiz-adv-x="1128" 
d="M1008 110zM410 449zM410 303q-276 0 -276 135q0 50 41 77.5t117 27.5q128 0 254 -73q129 40 198.5 133t69.5 234.5t-89.5 224.5t-260 83t-318.5 -69l-58 133q183 85 406 85t355 -124t132 -342q0 -162 -77.5 -285t-222.5 -186q215 -147 345 -285l-118 -108
q-209 209 -425 343q-31 -4 -73 -4z" />
    <glyph glyph-name="threeguru" unicode="&#xa69;" horiz-adv-x="1128" 
d="M971 11zM994 483q0 -214 -275 -292q144 -96 270 -219l-118 -107q-202 194 -369 291q-46 -4 -112 -4q-274 0 -274 124q0 46 41.5 71t116.5 25q140 0 282 -71q129 13 200 61t71 118t-53 118.5t-150 71.5q-108 -27 -211 -27q-216 0 -216 116q0 51 44 77.5t145 26.5t249 -55
q183 49 183 177q0 160 -308 160q-198 0 -360 -69l-58 133q201 85 426.5 85t346 -79.5t120.5 -227t-181 -247.5q190 -90 190 -257z" />
    <glyph glyph-name="fourguru" unicode="&#xa6a;" horiz-adv-x="1128" 
d="M551 1274zM560 1128zM561 132q267 0 267 210q0 95 -69.5 149t-194.5 54t-194.5 -55t-69.5 -152.5t67.5 -151.5t193.5 -54zM247.5 79q-115.5 96 -115.5 271.5t169 260.5q-102 47 -155.5 129.5t-53.5 199t93 218.5t263 126l20 -142q-103 -17 -157.5 -76t-54.5 -156.5
t76.5 -157t224.5 -59.5q315 0 315 226q0 181 -212 223l20 142q174 -27 265 -127.5t91 -216.5q0 -231 -209 -329q169 -85 169 -261t-115 -271.5t-316.5 -95.5t-317 96z" />
    <glyph glyph-name="fiveguru" unicode="&#xa6b;" horiz-adv-x="1128" 
d="M285 1294q90 -169 90 -326t-113 -266q62 -122 132.5 -176t179 -54t223.5 63v739h165v-1274h-165v366q-108 -44 -255 -44t-269.5 98t-203.5 294q77 62 110 122t33 134q0 123 -80 267z" />
    <glyph glyph-name="sixguru" unicode="&#xa6c;" horiz-adv-x="1128" 
d="M836 1836zM302 1295zM319 583q-169 82 -169 246q0 139 124 223t348 97q-57 92 -57 205t84.5 185.5t238.5 72.5q66 0 128 -9l-21 -140q-39 6 -108 6t-113 -37.5t-44 -122t69 -164.5q225 -22 225 -135q0 -48 -37 -74t-102 -26q-118 0 -196 97q-182 0 -277 -48t-95 -126.5
t46.5 -118t129.5 -59.5q107 27 219 27q216 0 216 -116q0 -51 -44 -77.5t-147 -26.5t-247 51q-172 -57 -172 -190q0 -100 76.5 -146.5t257 -46.5t334.5 69l58 -133q-197 -85 -425.5 -85t-348 88t-119.5 248t168 266z" />
    <glyph glyph-name="sevenguru" unicode="&#xa6d;" horiz-adv-x="1128" 
d="M161 128zM274 654q-125 143 -125 307q0 90 50 167.5t142.5 121.5t214.5 44q219 0 347 -146.5t128 -376t-119.5 -398t-342.5 -270.5t-508 -121v150q377 30 589.5 197t212.5 424q0 178 -83.5 285.5t-231.5 107.5q-110 0 -172 -53t-62 -160.5t99 -204.5z" />
    <glyph glyph-name="eightguru" unicode="&#xa6e;" horiz-adv-x="1128" 
d="M302 1295q88 0 88 -114v-61h655v-145h-655v-332q0 -216 49 -308t142 -139.5t301 -47.5q70 0 155 12l13 -149q-77 -11 -201 -11q-231 0 -359.5 64.5t-196.5 191.5t-68 352v367h-46q-106 0 -106 78q0 51 38.5 109.5t92 95.5t98.5 37z" />
    <glyph glyph-name="nineguru" unicode="&#xa6f;" horiz-adv-x="1128" 
d="M1036 1836zM302 1295q88 0 88 -114v-61h407q-76 106 -76 226.5t84.5 193t238.5 72.5q66 0 128 -9l-21 -140q-39 6 -108 6t-113 -37.5t-44 -105.5q0 -116 93 -206h66v-145h-655v-332q0 -216 49 -308t142 -139.5t301 -47.5q70 0 155 12l13 -149q-77 -11 -201 -11
q-231 0 -359.5 64.5t-196.5 191.5t-68 352v367h-46q-106 0 -106 78q0 51 38.5 109.5t92 95.5t98.5 37z" />
    <glyph glyph-name="tippiguru" unicode="&#xa70;" 
d="M-164 1836zM-183 1274zM-115 1529q0 131 -151 131q-73 0 -111.5 -34t-38.5 -94.5t26 -120.5l-140 -21q-33 80 -33 156q0 111 82 179t216 68t215.5 -67.5t81.5 -180.5q0 -74 -33 -155l-140 21q26 60 26 118z" />
    <glyph glyph-name="addakguru" unicode="&#xa71;" 
d="M-164 1836zM-183 1274zM38 1768q-12 -365 -302 -365q-295 0 -305 365l154 9q0 -126 32.5 -181t117 -55t117 56.5t32.5 179.5z" />
    <glyph glyph-name="iriguru" unicode="&#xa72;" horiz-adv-x="1141" 
d="M570 0zM805 1128h-527q0 -254 128 -342q66 -46 196 -45h203v387zM362 657q-252 112 -252 471h-125v146h1171v-146h-186v-472l-60 -60h-280q-204 0 -363 -198q78 -133 163 -190.5t191.5 -57.5t185 19.5t182.5 69.5l57 -145q-190 -94 -394.5 -94t-341 98.5t-236.5 310.5
q105 162 288 248z" />
    <glyph glyph-name="uraguru" unicode="&#xa73;" horiz-adv-x="1356" 
d="M836 1836zM322 595q68 -446 405 -446q132 0 195 51t63 161q0 93 -54 145q-67 64 -189 80q-72 9 -200 9h-220zM303 869q0 -68 3 -128h269q147 0 244 14q97 15 164 59q136 91 140 314h-804q-16 -99 -16 -240v-19zM349 1274h767q-22 158 -113.5 242.5
q-92.5 84.5 -244.5 84.5q-310 0 -409 -327zM1287 1128q-6 -180 -88.5 -302t-240.5 -172q93 -45 144 -124t51 -171q0 -172 -107.5 -265.5t-309.5 -93.5q-293 0 -447 219t-154 644v38q0 123 14 227h-164v146h191q65 239 219 358t372 119t352.5 -123t161.5 -354h90v-146h-84z
" />
    <glyph glyph-name="ekonkarguru" unicode="&#xa74;" horiz-adv-x="3039" 
d="M836 1836zM728 842v81q0 89 -28 133q-59 92 -202 91q-100 0 -154.5 -52.5t-54.5 -143.5t51 -142.5t143 -51.5q151 0 245 85zM728 671q-106 -61 -257.5 -61t-249.5 91t-98 244t104.5 251t262 98t248 -55.5t123 -125t32.5 -199.5v-594q0 -89 14.5 -125t45.5 -50t91 -14
l-20 -149q-224 0 -278 174q-18 58 -18 162v353zM1312 595q71 -446 405 -446q132 0 195 51t63 161q0 93 -54 145q-67 64 -189 80q-72 9 -200 9h-220zM2112 1128h-803q-16 -99 -16 -240v-19q0 -68 3 -128h269q182 0 271 18.5t153 66.5t92 119.5t31 182.5zM2095 1366
q-92 235 -346 235q-304 0 -407 -327h1031v-146h-97q-6 -178 -88 -300.5t-240 -173.5q93 -45 144 -124t51 -171q0 -172 -107.5 -265.5t-309.5 -93.5q-293 0 -447 219t-154 644v38q0 123 14 227h-94v146h124q64 234 216.5 355.5t375.5 121.5q272 0 405 -193q168 248 469 248
q202 0 332.5 -111t169.5 -311l-164 -18q-33 142 -123.5 216t-226 74t-228 -65.5t-161.5 -211.5z" />
    <glyph glyph-name="exclam.guru" unicode="!" horiz-adv-x="785" 
d="M426 250q61 0 94 -35.5q33 -34.5 33 -102.5t-33.5 -104.5t-93.5 -36.5t-93.5 37q-33.5 38 -33.5 104t33 102t94 36zM488 414h-121l-51 1048h223z" />
    <glyph glyph-name="quotedbl.guru" unicode="&#x22;" horiz-adv-x="1028" 
d="M556 1836zM510 1274zM822 1493l-51 -528h-124l-51 528h226zM462 1493l-51 -528h-125l-51 528h227z" />
    <glyph glyph-name="numbersign.guru" unicode="#" horiz-adv-x="1337" 
d="M495 496h286l60 311h-285zM983 807l-59 -311h272v-135h-299l-69 -361h-144l71 361h-285l-70 -361h-141l66 361h-255v135h281l62 311h-269v134h293l68 354h144l-67 -354h287l69 354h141l-69 -354h257v-134h-284z" />
    <glyph glyph-name="percent.guru" unicode="%" horiz-adv-x="1695" 
d="M1278 112q153 0 153 239.5t-153 239.5q-78 0 -113 -59.5t-35 -180t35 -180t113 -59.5zM1578 351q0 -371 -300 -371q-143 0 -219.5 97t-76.5 274q0 369 296 369q146 0 223 -95t77 -274zM1324 1274l-789 -1274h-160l791 1274h158zM566 925q0 240 -153 240q-78 0 -113 -60
t-35 -180t35 -180t113 -60q153 0 153 240zM714 925q0 -371 -301 -371q-142 0 -219 95.5t-77 275.5q0 369 296 369q145 0 223 -95t78 -274z" />
    <glyph glyph-name="quotesingle.guru" unicode="'" horiz-adv-x="668" 
d="M480 1836zM487 1274zM462 1493l-51 -528h-125l-51 528h227z" />
    <glyph glyph-name="parenleft.guru" unicode="(" horiz-adv-x="724" 
d="M500 -555zM691 1836zM506 1274zM140 691q0 613 296 1012h166q-287 -456 -287 -1025t289 -1016h-168q-143 197 -219.5 462t-76.5 567z" />
    <glyph glyph-name="parenright.guru" unicode=")" horiz-adv-x="724" 
d="M350 -555zM221 1274zM215 1836zM584 674q0 -613 -296 -1012h-166q287 456 287 1025t-289 1016h168q143 -197 219.5 -462t76.5 -567z" />
    <glyph glyph-name="asterisk.guru" unicode="*" horiz-adv-x="1243" 
d="M448 1836zM453 1274zM732 1525l-43 -393l397 111l26 -193l-378 -28l245 -326l-178 -96l-176 358l-158 -358l-184 96l242 326l-375 28l29 193l391 -111l-43 393h205z" />
    <glyph glyph-name="plus.guru" unicode="+" horiz-adv-x="1128" 
d="M453 1274zM489 585h-387v150h387v388h150v-388h387v-150h-387v-386h-150v386z" />
    <glyph glyph-name="comma.guru" unicode="," horiz-adv-x="512" 
d="M414 -29zM414 250zM362 238l15 -23q-51 -197 -176 -479h-138q67 279 101 502h198z" />
    <glyph glyph-name="hyphen.guru" unicode="-" horiz-adv-x="696" 
d="M453 1274zM100 524v168h496v-168h-496z" />
    <glyph glyph-name="period.guru" unicode="." horiz-adv-x="549" 
d="M274 250q61 0 94 -35.5q33 -34.5 33 -102.5t-33.5 -104.5t-93.5 -36.5t-93.5 37q-33.5 38 -33.5 104t33 102t94 36z" />
    <glyph glyph-name="slash.guru" unicode="/" horiz-adv-x="879" 
d="M479 -548zM448 1836zM453 1274zM793 1705l-537 -2044h-170l539 2044h168z" />
    <glyph glyph-name="zero.guru" unicode="0" horiz-adv-x="1128" 
d="M557 1274zM330.5 399q83.5 -90 232.5 -90t234 90.5t85 247t-84.5 247t-232 90.5t-233 -92.5t-85.5 -247.5t83.5 -245zM563 1133q220 0 353.5 -133.5t133.5 -354.5t-132 -353t-354 -132t-353.5 133t-131.5 355q0 140 60 251t171 172.5t253 61.5z" />
    <glyph glyph-name="one.guru" unicode="1" horiz-adv-x="1128" 
d="M483 757q149 0 245 85v81q0 89 -28 133q-59 92 -202 91q-100 0 -154.5 -52.5t-54.5 -143.5t51 -142.5t143 -51.5zM728 672q-106 -62 -257.5 -62t-249.5 91t-98 244t104.5 251t262 98t248 -55.5t123 -125t32.5 -199.5v-594q0 -89 14.5 -125t45.5 -50t91 -14l-20 -149
q-224 0 -278 174q-18 58 -18 162v354z" />
    <glyph glyph-name="two.guru" unicode="2" horiz-adv-x="1128" 
d="M1008 110zM410 449zM410 303q-276 0 -276 135q0 50 41 77.5t117 27.5q128 0 254 -73q129 40 198.5 133t69.5 234.5t-89.5 224.5t-260 83t-318.5 -69l-58 133q183 85 406 85t355 -124t132 -342q0 -162 -77.5 -285t-222.5 -186q215 -147 345 -285l-118 -108
q-209 209 -425 343q-31 -4 -73 -4z" />
    <glyph glyph-name="three.guru" unicode="3" horiz-adv-x="1128" 
d="M971 11zM994 483q0 -214 -275 -292q144 -96 270 -219l-118 -107q-202 194 -369 291q-46 -4 -112 -4q-274 0 -274 124q0 46 41.5 71t116.5 25q140 0 282 -71q129 13 200 61t71 118t-53 118.5t-150 71.5q-108 -27 -211 -27q-216 0 -216 116q0 51 44 77.5t145 26.5t249 -55
q183 49 183 177q0 160 -308 160q-198 0 -360 -69l-58 133q201 85 426.5 85t346 -79.5t120.5 -227t-181 -247.5q190 -90 190 -257z" />
    <glyph glyph-name="four.guru" unicode="4" horiz-adv-x="1128" 
d="M551 1274zM560 1128zM561 132q267 0 267 210q0 95 -69.5 149t-194.5 54t-194.5 -55t-69.5 -152.5t67.5 -151.5t193.5 -54zM247.5 79q-115.5 96 -115.5 271.5t169 260.5q-102 47 -155.5 129.5t-53.5 199t93 218.5t263 126l20 -142q-103 -17 -157.5 -76t-54.5 -156.5
t76.5 -157t224.5 -59.5q315 0 315 226q0 181 -212 223l20 142q174 -27 265 -127.5t91 -216.5q0 -231 -209 -329q169 -85 169 -261t-115 -271.5t-316.5 -95.5t-317 96z" />
    <glyph glyph-name="five.guru" unicode="5" horiz-adv-x="1128" 
d="M285 1294q90 -169 90 -326t-113 -266q62 -122 132.5 -176t179 -54t223.5 63v739h165v-1274h-165v366q-108 -44 -255 -44t-269.5 98t-203.5 294q77 62 110 122t33 134q0 123 -80 267z" />
    <glyph glyph-name="six.guru" unicode="6" horiz-adv-x="1128" 
d="M836 1836zM302 1295zM319 583q-169 82 -169 246q0 139 124 223t348 97q-57 92 -57 205t84.5 185.5t238.5 72.5q66 0 128 -9l-21 -140q-39 6 -108 6t-113 -37.5t-44 -122t69 -164.5q225 -22 225 -135q0 -48 -37 -74t-102 -26q-118 0 -196 97q-182 0 -277 -48t-95 -126.5
t46.5 -118t129.5 -59.5q107 27 219 27q216 0 216 -116q0 -51 -44 -77.5t-147 -26.5t-247 51q-172 -57 -172 -190q0 -100 76.5 -146.5t257 -46.5t334.5 69l58 -133q-197 -85 -425.5 -85t-348 88t-119.5 248t168 266z" />
    <glyph glyph-name="seven.guru" unicode="7" horiz-adv-x="1128" 
d="M161 128zM274 654q-125 143 -125 307q0 90 50 167.5t142.5 121.5t214.5 44q219 0 347 -146.5t128 -376t-119.5 -398t-342.5 -270.5t-508 -121v150q377 30 589.5 197t212.5 424q0 178 -83.5 285.5t-231.5 107.5q-110 0 -172 -53t-62 -160.5t99 -204.5z" />
    <glyph glyph-name="eight.guru" unicode="8" horiz-adv-x="1128" 
d="M302 1295q88 0 88 -114v-61h655v-145h-655v-332q0 -216 49 -308t142 -139.5t301 -47.5q70 0 155 12l13 -149q-77 -11 -201 -11q-231 0 -359.5 64.5t-196.5 191.5t-68 352v367h-46q-106 0 -106 78q0 51 38.5 109.5t92 95.5t98.5 37z" />
    <glyph glyph-name="nine.guru" unicode="9" horiz-adv-x="1128" 
d="M1036 1836zM302 1295q88 0 88 -114v-61h407q-76 106 -76 226.5t84.5 193t238.5 72.5q66 0 128 -9l-21 -140q-39 6 -108 6t-113 -37.5t-44 -105.5q0 -116 93 -206h66v-145h-655v-332q0 -216 49 -308t142 -139.5t301 -47.5q70 0 155 12l13 -149q-77 -11 -201 -11
q-231 0 -359.5 64.5t-196.5 191.5t-68 352v367h-46q-106 0 -106 78q0 51 38.5 109.5t92 95.5t98.5 37z" />
    <glyph glyph-name="colon.guru" unicode=":" horiz-adv-x="603" 
d="M302 1274zM302 250q61 0 94 -35.5t33 -103t-33.5 -104t-93.5 -36.5t-93.5 37t-33.5 103.5t33 102.5t94 36zM175 987q0 139 127 139t127 -139q0 -66 -34 -102.5t-93.5 -36.5t-93 36.5t-33.5 102.5z" />
    <glyph glyph-name="semicolon.guru" unicode=";" horiz-adv-x="603" 
d="M434 -29zM434 250zM302 1274zM390 238l15 -23q-51 -197 -176 -479h-138q67 279 101 502h198zM175 987q0 139 127 139t127 -139q0 -66 -34 -102.5t-93.5 -36.5t-93 36.5t-33.5 102.5z" />
    <glyph glyph-name="less.guru" unicode="&#x3c;" horiz-adv-x="2168" 
d="M1133 550q114 -396 408 -396h10q92 4 152 48q55 41 55 113v12q-5 81 -88 157.5t-159 76.5q-8 0 -47 -5.5t-331 -5.5zM1094 1038q0 -188 14 -332q368 0 431 23q123 43 187.5 119.5t108.5 189.5h-741zM181 944q2 -85 56 -130t134 -45q80 1 169 45q91 46 91 134
q-1 175 -227 175q-224 0 -223 -171v-8zM762 395q0 -179 57 -318l70 -129q7 -11 7 -21q0 -31 -38.5 -31t-77.5 29q-94 70 -140.5 209.5t-46.5 261t22 289.5q-120 -70 -250.5 -70t-236.5 85t-106 235q0 345 377 345h26q198 -6 284 -94.5t86 -271.5q0 -78 -11 -266
q-22 -245 -22 -253zM1902 1405q-247 156 -412 156t-283 -139q-81 -97 -109 -224h957v-160h-60q-48 -146 -110 -234t-182 -160q213 -128 213 -317q0 -137 -88.5 -233t-268.5 -96q-292 0 -453 227q-132 187 -159 497q-10 108 -10 263v53h-57v160h58q19 215 172.5 367.5
t372.5 152.5t525 -195q5 -3 65.5 -49t77.5 -58v-208q-106 106 -249 197z" />
    <glyph glyph-name="equal.guru" unicode="=" horiz-adv-x="1128" 
d="M453 1274zM102 381v150h924v-150h-924zM102 791v149h924v-149h-924z" />
    <glyph glyph-name="greater.guru" unicode="&#x3e;" horiz-adv-x="1182" 
d="M321 1192q-88 -56 -177 -56t-178 82v182q9 -3 29 -15q129 -83 163 -83h2q47 5 445 352q113 96 217.5 148t233.5 52q199 0 357 -111.5t223 -293.5q32 -91 32 -123q0 -70 -61 -70q-46 0 -82 75l-51 102q-57 123 -168.5 196.5t-262 73.5t-334.5 -150q-62 -61 -220 -200
q-57 -63 -168 -161z" />
    <glyph glyph-name="question.guru" unicode="?" horiz-adv-x="1060" 
d="M469 250q61 0 94 -35.5t33 -103t-33.5 -104t-93.5 -36.5t-93.5 37t-33.5 103.5t33 102.5t94 36zM680.5 1264q-59.5 59 -177 59t-294.5 -86l-63 145q199 101 376 101t284.5 -100t107.5 -273q0 -108 -39.5 -191.5t-162 -189.5t-153 -158.5t-30.5 -138.5v-18h-139v37
q0 129 39.5 200.5t125.5 144q85 72.5 119 113.5q66 80 66 188t-59.5 167z" />
    <glyph glyph-name="bracketleft.guru" unicode="[" horiz-adv-x="776" 
d="M398 0v1274h165v-1274h-165z" />
    <glyph glyph-name="backslash.guru" unicode="\" horiz-adv-x="1162" 
d="M598 0zM348 1128q68 -104 112 -194h354v194h-466zM398 289q0 -141 265 -141q167 0 320 48l44 -150q-167 -46 -375 -46t-313.5 73t-105.5 201q0 94 71 151q-101 24 -164.5 87.5t-63.5 165.5q0 201 210 243q-66 116 -135 207h-166v146h1192v-146h-198v-280l-60 -60h-483
q-71 0 -111 -8q-84 -18 -84 -98q0 -100 134 -123q64 -11 204 -11h430v-146h-419q-116 0 -154 -30.5t-38 -82.5z" />
    <glyph glyph-name="bracketright.guru" unicode="]" horiz-adv-x="1226" 
d="M398 0v1274h165v-1274h-165zM848 0v1274h165v-1274h-165z" />
    <glyph glyph-name="asciicircum.guru" unicode="^" horiz-adv-x="1224" 
d="M340 216q49 0 81 -32t32 -86q0 -52 -31 -84q-32 -32 -82 -32t-82 32t-31 85q0 53 32 85t81 32zM582 421q144 0 294 92v275h-520q-27 -66 -85 -119q64 -132 137.5 -190t173.5 -58zM290 1274q94 -171 94 -332v-13h492v345h363v-146h-198v-1128h-165v337q-138 -66 -300 -66
q-332 0 -498 410q143 120 143 260q0 102 -49 187h-187v146h305z" />
    <glyph glyph-name="underscore.guru" unicode="_" horiz-adv-x="842" 
d="M846 -324h-850v140h850v-140z" />
    <glyph glyph-name="braceleft.guru" unicode="{" horiz-adv-x="800" 
d="M479 -548zM248 1836zM253 1274zM507 -37q0 -78 39 -115.5t145 -39.5v-147q-172 3 -261 76.5t-89 211.5v472q0 101 -64.5 143t-186.5 42v152q122 0 186.5 42t64.5 143v473q0 136 89 210t261 77v-146q-106 -2 -145 -39.5t-39 -115.5v-471q0 -203 -216 -244v-11
q216 -41 216 -243v-470z" />
    <glyph glyph-name="bar.guru" unicode="|" horiz-adv-x="1185" 
d="M848 0zM251 328q0 -111 237 -111q115 0 213 36q-139 161 -317 161q-66 0 -99.5 -23t-33.5 -63zM384 560q259 0 449 -230q111 99 111 233q0 123 -120 159q-58 18 -207 18h-374l-60 60v328h-198v146h1215v-146h-852v-242h313q166 0 255 -32q193 -68 193 -285
q0 -100 -49.5 -194.5t-140.5 -164.5q39 -59 97 -184l-159 -43q-37 90 -72 149q-136 -57 -316 -57q-181 0 -282 66.5t-101 193.5q0 98 79.5 161.5t218.5 63.5z" />
    <glyph glyph-name="braceright.guru" unicode="}" horiz-adv-x="770" 
d="M479 -548zM248 1836zM253 1274zM293 433q0 202 217 243v11q-217 41 -217 244v471q0 79 -38.5 116t-144.5 39v146q173 -3 261.5 -77t88.5 -210v-473q0 -98 61.5 -141.5t189.5 -43.5v-152q-123 0 -187 -42t-64 -143v-472q0 -137 -89 -211t-261 -77v147q106 2 144.5 39
t38.5 116v470z" />
    <glyph glyph-name="asciitilde.guru" unicode="~" horiz-adv-x="444" 
d="M356 1836zM-15 1128v146h474v-146h-474zM672 1768q-12 -365 -302 -365q-295 0 -305 365l154 9q0 -126 32.5 -181t117 -55t117 56.5t32.5 179.5z" />
    <glyph glyph-name="sfthyphen.guru" unicode="&#xad;" horiz-adv-x="696" 
d="M453 1274zM100 524v168h496v-168h-496z" />
    <glyph glyph-name="endash.guru" unicode="&#x2013;" horiz-adv-x="1024" 
d="M453 1274zM82 535v168h860v-168h-860z" />
    <glyph glyph-name="emdash.guru" unicode="&#x2014;" horiz-adv-x="2048" 
d="M453 1274zM82 535v168h1884v-168h-1884z" />
    <glyph glyph-name="quoteleft.guru" unicode="&#x2018;" horiz-adv-x="639" 
d="M448 1836zM453 1274zM182 992l-14 22q54 208 176 479h137q-62 -255 -100 -501h-199z" />
    <glyph glyph-name="quoteright.guru" unicode="&#x2019;" horiz-adv-x="638" 
d="M448 1836zM453 1274zM465 1493l14 -22q-50 -197 -176 -479h-137q70 303 100 501h199z" />
    <glyph glyph-name="quotedblleft.guru" unicode="&#x201c;" horiz-adv-x="1023" 
d="M448 1836zM453 1274zM183 992l-14 22q54 208 176 479h137q-62 -255 -100 -501h-199zM568 992l-14 22q54 208 176 479h137q-62 -255 -100 -501h-199z" />
    <glyph glyph-name="quotedblright.guru" unicode="&#x201d;" horiz-adv-x="1023" 
d="M448 1836zM453 1274zM850 1493l14 -22q-50 -197 -176 -479h-137q70 303 100 501h199zM465 1493l14 -22q-50 -197 -176 -479h-137q70 303 100 501h199z" />
    <glyph glyph-name="ellipsis.guru" unicode="&#x2026;" horiz-adv-x="1647" 
d="M1245 111q-1 139 127 139q60 0 93.5 -35.5t33.5 -103t-33.5 -104t-90.5 -36.5t-93.5 33t-36.5 107zM823 250q61 0 94 -35.5t33 -103t-33.5 -104t-93.5 -36.5t-93.5 37t-33.5 103.5t33 102.5t94 36zM274 250q61 0 94 -35.5t33 -103t-33.5 -104t-93.5 -36.5t-93.5 37
t-33.5 103.5t33 102.5t94 36z" />
    <glyph glyph-name="multiply.guru" unicode="&#xd7;" horiz-adv-x="1128" 
d="M453 1274zM459 658l-318 319l105 105l317 -318l322 318l104 -103l-321 -321l319 -320l-102 -102l-322 317l-317 -315l-103 103z" />
    <glyph glyph-name="divide.guru" unicode="&#xf7;" horiz-adv-x="1128" 
d="M453 1274zM449 320q0 125 114 125q55 0 85 -32t30 -92.5t-31 -93t-84.5 -32.5t-83.5 33.5t-30 91.5zM102 585v150h924v-150h-924zM449 1018q0 125 114 125q55 0 85 -32t30 -92.5t-31 -93t-84.5 -32.5t-83.5 33.5t-30 91.5z" />
    <glyph glyph-name="minus.guru" unicode="&#x2212;" horiz-adv-x="1128" 
d="M453 1274zM102 585v150h924v-150h-924z" />
    <glyph glyph-name="uni20B9.guru" unicode="&#x20b9;" horiz-adv-x="1128" 
d="M718 824q-28 -266 -362 -316l433 -508h-210l-432 505l20 146h92q103 -1 159 17q110 35 133 156h-404v146h402q-23 112 -125 143q-50 15 -141 15h-136v146h864v-146h-384q71 -52 90 -158h294v-146h-293z" />
    <glyph glyph-name="dbldanda.guru" unicode="&#x965;" horiz-adv-x="1226" 
d="M398 0v1274h165v-1274h-165zM848 0v1274h165v-1274h-165z" />
    <glyph glyph-name="uni200B" unicode="&#x200b;" 
 />
    <glyph glyph-name="uni200B" unicode="&#xfeff;" 
 />
    <glyph glyph-name="uni200C" unicode="&#x200c;" 
d="M-54 -339v1952h108v-1952h-108z" />
    <glyph glyph-name="uni200D" unicode="&#x200d;" 
d="M74 1323l225 -220l-75 -73l-170 169v-1537h-108v1537l-170 -169l-75 73l225 220l-225 217l75 73l224 -220l224 220l75 -74z" />
    <glyph glyph-name="A" unicode="A" horiz-adv-x="1520" 
d="M374 807zM1172 735zM863 600zM766 988zM603 0zM863 746q133 92 309 135v393h363v-146h-198v-1128h-165v723q-172 -45 -302 -139q-3 -173 -49 -267.5t-122 -94.5q-100 0 -100 118q0 74 36 160t94 149q-16 204 -65 304q-159 -59 -278 -154q-5 -175 -50 -269.5t-124 -94.5
q-98 0 -98 119q0 74 35.5 159t92.5 146q-12 184 -71 269h-186v146h310q79 -182 79 -321q61 53 171.5 105t220.5 76q38 -63 65 -174.5t32 -213.5z" />
    <glyph glyph-name="B" unicode="B" horiz-adv-x="1182" 
d="M759 0zM535 0zM756 698q-126 104 -289 104q-88 0 -132 -26t-44 -69q0 -98 179 -98q183 0 286 89zM465 948q218 0 374 -134q29 70 29 157.5t-31 156.5h-852v146h1212v-146h-190q23 -72 23 -197t-79 -232q97 -135 97 -283q0 -202 -136 -309t-389 -107q-273 0 -497 132
l67 150q206 -134 435 -134q358 0 358 276q0 84 -41 164q-143 -125 -373 -125q-165 0 -255.5 64.5t-90.5 176t89 178t250 66.5z" />
    <glyph glyph-name="ampersand" unicode="&#x26;" horiz-adv-x="1185" 
d="M934 253q0 86 -140 86q-168 0 -326 -148q88 -49 224 -49q242 0 242 111zM1099 260q0 -260 -404 -260q-347 0 -529 261q-90 130 -90 280q0 153 114 239q60 46 143.5 63.5t215.5 17.5h288v267h-852v146h1215v-146h-198v-353l-60 -60h-361q-145 -1 -208 -17
q-132 -35 -132 -167q0 -126 115 -249q197 203 454 203q135 0 212 -62.5t77 -162.5zM209 194zM209 36q49 0 81 -32.5q32 -33.5 32 -85.5t-31 -84t-81 -32t-82 32.5t-32 84.5t32 84.5t81 32.5z" />
    <glyph glyph-name="C" unicode="C" horiz-adv-x="1299" 
d="M921 0zM649 0zM1094 1274zM736 447v-307q167 4 243.5 41.5t76.5 120.5q0 88 -109 126q-54 18 -170 19h-41zM581 140v307h-78q-125 0 -184.5 -41t-59.5 -115q0 -143 322 -151zM249 496q-144 64 -144 202q0 77 47 133.5t119 80.5t227 24h431v192h-944v146h1329v-146h-220
v-278l-60 -60h-565q-113 0 -156 -23.5t-43 -76t46 -78t156 -25.5h331q213 0 315 -76t102 -222.5t-139 -217.5t-430 -71t-423.5 71t-132.5 214t154 211z" />
    <glyph glyph-name="D" unicode="D" horiz-adv-x="1214" 
d="M408.5 479q73.5 -58 194 -58t263.5 86v621h-519q37 -98 37 -186q0 -171 -113 -273q64 -132 137.5 -190zM221 941q0 102 -49 187h-187v146h1244v-146h-198v-1128h-165v333q-135 -62 -294 -62t-285 102.5t-209 307.5q143 120 143 260z" />
    <glyph glyph-name="E" unicode="E" horiz-adv-x="1356" 
d="M836 1836zM684 0zM322 595q68 -446 405 -446q132 0 195 51t63 161q0 93 -54 145q-67 64 -189 80q-72 9 -200 9h-220zM1122 1128h-805q-14 -97 -14 -240v-19q0 -68 3 -128h269q187 0 273.5 20t145.5 64q121 90 128 303zM1286 1128q-24 -376 -329 -474q94 -45 145 -123.5
t51 -171.5q0 -172 -107.5 -265.5t-309.5 -93.5q-293 0 -447 219t-154 644v38q0 124 14 227h-164v146h192q103 376 469 435q112 18 283 18h315l-10 -146h-285q-235 0 -339.5 -31.5t-166.5 -100t-95 -175.5h1023v-146h-85z" />
    <glyph glyph-name="F" unicode="F" horiz-adv-x="1323" 
d="M1073 253q0 86 -139 86q-170 0 -328 -148q96 -49 223 -49t185.5 26.5t58.5 84.5zM491 274q197 211 458 211q136 0 212.5 -63t76.5 -162q0 -127 -104.5 -193.5t-301.5 -66.5t-337 79.5t-214 226t-74 332.5v18h-36q-106 0 -106 78q0 46 34.5 100.5t88 93t96.5 38.5
q88 0 88 -114v-51h603v327h-990v146h1353v-146h-198v-412l-60 -60h-708v-22q0 -233 119 -360z" />
    <glyph glyph-name="G" unicode="G" horiz-adv-x="1550" 
d="M1065 421q87 0 137 65v788h363v-146h-198v-1128h-165v307q-65 -35 -150 -35q-205 0 -285 184q-92 -184 -297 -184q-147 0 -232 90t-160 319q143 120 143 260q0 102 -49 187h-187v146h305q94 -171 94 -339.5t-123 -273.5q66 -240 220 -240q161 0 219 229q-33 232 -33 392
q0 203 113 203t113 -204q0 -152 -43 -396q58 -224 215 -224z" />
    <glyph glyph-name="I" unicode="I" horiz-adv-x="530" 
d="M-13 1692q-197 0 -197 -216q0 -51 12 -119l-160 -16q-14 97 -14 137q0 166 98 262t250 96t232.5 -59t109.5 -152.5t29 -256.5v-94h198v-146h-198v-1128h-165v1128h-197v146h197v65q0 148 -17 214q-36 139 -178 139z" />
    <glyph glyph-name="J" unicode="J" horiz-adv-x="1216" 
d="M892 118zM420 299zM526 855q44 -12 93 -12q49 1 107 21q128 46 157 264h-536q26 -231 179 -273zM169 277q0 96 184 96q101 0 241 -63q343 26 343 210q0 94 -84 137t-292 43t-448 -80l-51 136q122 39 267 64q-125 101 -149 308h-195v146h1246v-146h-181
q-30 -225 -171 -324q227 -76 227 -284q0 -128 -93.5 -214.5t-271.5 -120.5q74 -46 144 -107l-113 -106q-142 132 -234 184q-39 -3 -138 -3t-165 33t-66 91z" />
    <glyph glyph-name="K" unicode="K" horiz-adv-x="1224" 
d="M582 421q144 0 294 92v275h-520q-27 -66 -85 -119q64 -132 137.5 -190t173.5 -58zM290 1274q94 -171 94 -332v-13h492v345h363v-146h-198v-1128h-165v337q-138 -66 -300 -66q-332 0 -498 410q143 120 143 260q0 102 -49 187h-187v146h305z" />
    <glyph glyph-name="L" unicode="L" horiz-adv-x="1380" 
d="M690 658zM448 666zM982 0zM690 0zM1141 1274zM407 1128q44 -274 283 -441q116 77 188.5 191t94.5 250h-566zM1141 1128q-31 -163 -128 -316q142 -79 214.5 -185.5t72.5 -222q0 -114.5 -50 -208.5q-105 -195 -378 -196h-12l-10 150h22q128 0 196 64.5q68 65.5 68 167.5
q0 205 -214 315q-106 -114 -232 -185q-128 72 -234 185q-101 -53 -156.5 -130t-55.5 -181t67.5 -170t196.5 -66h22l-10 -150h-12q-137 0 -233 51.5t-145.5 144.5t-49.5 208t73.5 224t214.5 184q-102 154 -129 316h-254v146h1410v-146h-254zM248 78zM248 -80q49 0 81 -32.5
q32 -33.5 32 -85.5t-31 -84t-81 -32t-82 32.5t-32 84.5t32 84.5t81 32.5z" />
    <glyph glyph-name="M" unicode="M" 
d="M-164 1836zM-183 1274zM-115 1529q0 131 -151 131q-73 0 -111.5 -34t-38.5 -94.5t26 -120.5l-140 -21q-33 80 -33 156q0 111 82 179t216 68t215.5 -67.5t81.5 -180.5q0 -74 -33 -155l-140 21q26 60 26 118z" />
    <glyph glyph-name="N" unicode="N" horiz-adv-x="298" 
d="M292 1235zM157 1724zM-3 1128v146h295v-146h-295zM157 1598q49 0 81 -32.5q32 -33.5 32 -85.5t-31 -84t-81 -32t-82 32.5t-32 84.5t32 84.5t81 32.5z" />
    <glyph glyph-name="O" unicode="O" 
d="M-183 1274zM-153 1411q26 60 26 121t-36 94.5t-103 33.5t-102.5 -34.5t-35.5 -94.5t26 -120l-140 -21q-33 80 -33 156q0 11 1 22q-21 -4 -43 -4q-239 0 -298 233l146 39q23 -75 55.5 -107t86.5 -32t79 6t60 28q79 62 203 62t202.5 -67t78.5 -181q0 -74 -33 -155z" />
    <glyph glyph-name="Q" unicode="Q" horiz-adv-x="1224" 
d="M582 421q144 0 294 92v218h-551q-19 -29 -54 -62q64 -132 137.5 -190t173.5 -58zM347 1128q37 -98 37 -159.5t-5 -96.5h497v256h-529zM221 941q0 102 -49 187h-187v146h1254v-146h-198v-1128h-165v338q-141 -67 -302 -67q-330 0 -496 410q143 120 143 260z" />
    <glyph glyph-name="T" unicode="T" horiz-adv-x="1352" 
d="M664 752zM914 0zM758 1274zM676 150q432 0 432 260q0 122 -113 219.5t-319 145.5q-209 -48 -320.5 -145t-111.5 -224t103.5 -191.5t328.5 -64.5zM1272 413q0 -413 -596 -413q-293 0 -444.5 104.5t-151.5 308.5q0 164 134 295.5t380 189.5v230h-609v146h1382v-146h-609
v-230q249 -58 381.5 -191t132.5 -294z" />
    <glyph glyph-name="U" unicode="U" 
d="M-610 -806zM-624 0zM-232 -483q-171 -105 -393 -105q-221 0 -392 105l29 126q168 -97 361.5 -97t365.5 97zM-232 -215q-169 -105 -393 -105q-223 0 -392 105l29 125q168 -97 362.5 -97t364.5 97z" />
    <glyph glyph-name="V" unicode="V" horiz-adv-x="1165" 
d="M1055 475q0 -173 -180 -255q70 -85 140 -189l-152 -71q-59 106 -137 217q-69 -11 -169 -11q-173 0 -286 52q69 -92 122 -189l-153 -67q-84 176 -187 346l75 116q226 -110 439 -110q319 0 319 168q0 148 -233 201q-125 -24 -227 -24q-229 0 -229 116q0 104 179 104
q148 0 297 -54q164 68 164 242q0 37 -4 61h-848v146h1195v-146h-182q5 -37 5 -63q0 -208 -171 -303q116 -49 169.5 -119t53.5 -168z" />
    <glyph glyph-name="W" unicode="W" horiz-adv-x="481" 
d="M232 1759zM305 1175zM496 1128h-180v-593h-165v593h-166v146h511v-146zM232 1633q49 0 81 -32.5t32 -84.5t-31 -84.5q-32 -32.5 -82 -32.5t-81.5 32.5t-31.5 84.5t32 84.5t81 32.5z" />
    <glyph glyph-name="X" unicode="X" horiz-adv-x="1424" 
d="M645 759h431v369h-730q38 -102 38 -193q0 -174 -113 -278q63 -137 136.5 -199t174.5 -62q31 0 63 4v359zM188 800q33 63 33 152t-49 176h-187v146h1454v-146h-198v-1128h-165v613h-266v-334q-101 -33 -229 -33q-337 0 -503 423q77 68 110 131z" />
    <glyph glyph-name="Y" unicode="Y" 
d="M-183 1274zM-325 1182q-68 113 -170.5 168t-269.5 55h-20q-11 0 -20 -1l-10 150q20 2 42 2q291 0 450 -201q-56 168 -152.5 248.5t-260.5 80.5h-15q-8 0 -15 -1l-9 151q18 2 39 2q238 0 373.5 -141t192.5 -436l-85 -7q8 -14 15 -28z" />
    <glyph glyph-name="Z" unicode="Z" horiz-adv-x="1536" 
d="M718 690h-179q-121 0 -177 -12q-120 -25 -121 -161q0 -81 51 -173.5t123.5 -145t142 -52.5t100.5 19t45.5 57.5t14.5 137.5v330zM718 836v292h-733v146h1566v-146h-198v-1128h-165v1128h-305v-790q-1 -136 -41 -204q-78 -134 -279 -134q-118 0 -224.5 65.5t-184.5 192.5
t-78 247t50.5 196t137.5 105.5t242 29.5h212zM258 112zM258 -46q49 0 81 -32.5q32 -33.5 32 -85.5t-31 -84t-81 -32t-82 32.5t-32 84.5t32 84.5t81 32.5z" />
    <glyph glyph-name="grave" unicode="`" 
d="M-164 1836zM-183 1274zM38 1768q-12 -365 -302 -365q-295 0 -305 365l154 9q0 -126 32.5 -181t117 -55t117 56.5t32.5 179.5z" />
    <glyph glyph-name="a" unicode="a" horiz-adv-x="1356" 
d="M836 1836zM322 595q68 -446 405 -446q132 0 195 51t63 161q0 93 -54 145q-67 64 -189 80q-72 9 -200 9h-220zM303 869q0 -68 3 -128h269q147 0 244 14q97 15 164 59q136 91 140 314h-804q-16 -99 -16 -240v-19zM349 1274h767q-22 158 -113.5 242.5
q-92.5 84.5 -244.5 84.5q-310 0 -409 -327zM1287 1128q-6 -180 -88.5 -302t-240.5 -172q93 -45 144 -124t51 -171q0 -172 -107.5 -265.5t-309.5 -93.5q-293 0 -447 219t-154 644v38q0 123 14 227h-164v146h191q65 239 219 358t372 119t352.5 -123t161.5 -354h90v-146h-84z
" />
    <glyph glyph-name="b" unicode="b" horiz-adv-x="1246" 
d="M898 352v309h-258q-222 0 -363 -163q60 -106 145 -156t222.5 -50t253.5 60zM898 802v326h-610q0 -226 130 -294q60 -32 181 -32h299zM353 721q-233 100 -233 407h-135v146h1276v-146h-198v-1128h-165v193q-123 -51 -288.5 -51t-303.5 92t-222 273q83 121 269 214z" />
    <glyph glyph-name="c" unicode="c" horiz-adv-x="1345" 
d="M897 0zM997 596h-625q11 -121 73.5 -225t159 -163t191.5 -59t134.5 23.5t53 68t13.5 134.5v221zM284 906q88 0 88 -114v-51h625v387h-1012v146h1375v-146h-198v-775q0 -134 -43 -207q-86 -146 -322.5 -146t-400.5 170.5t-190 425.5h-35q-106 0 -106 78q0 46 34.5 100.5
t88 93t96.5 38.5z" />
    <glyph glyph-name="d" unicode="d" horiz-adv-x="1263" 
d="M284 906q88 0 88 -114v-51h543v387h-930v146h1293v-146h-198v-472l-60 -60h-648q2 -446 384 -446q176 0 354 90l57 -146q-187 -94 -432 -94t-386.5 151t-141.5 423v22h-36q-106 0 -106 78q0 46 34.5 100.5t88 93t96.5 38.5z" />
    <glyph glyph-name="e" unicode="e" horiz-adv-x="1141" 
d="M570 0zM805 1128h-527q0 -254 128 -342q66 -46 196 -45h203v387zM362 657q-252 112 -252 471h-125v146h1171v-146h-186v-472l-60 -60h-280q-204 0 -363 -198q78 -133 163 -190.5t191.5 -57.5t185 19.5t182.5 69.5l57 -145q-190 -94 -394.5 -94t-341 98.5t-236.5 310.5
q105 162 288 248z" />
    <glyph glyph-name="f" unicode="f" horiz-adv-x="1223" 
d="M795 0zM576 0zM237 255q0 -113 270 -113q129 0 211 20q-221 159 -345 177q-136 0 -136 -84zM884 741q229 -118 229 -336q0 -192 -159.5 -298.5t-443.5 -106.5q-215 0 -326.5 66.5t-111.5 193.5q0 98 77.5 161.5t217.5 63.5t267 -68t222 -194q88 68 88 191
q0 82 -60.5 149.5t-169.5 99.5q-125 -24 -230 -24q-229 0 -229 116q0 104 179 104q148 0 297 -54q164 70 164 257q0 38 -4 66h-906v146h1253v-146h-183q6 -36 6 -67q0 -108 -41 -186t-136 -134z" />
    <glyph glyph-name="g" unicode="g" horiz-adv-x="1536" 
d="M718 690h-179q-121 0 -177 -12q-120 -25 -121 -161q0 -81 51 -173.5t123.5 -145t142 -52.5t100.5 19t45.5 57.5t14.5 137.5v330zM718 836v292h-733v146h1566v-146h-198v-1128h-165v1128h-305v-790q-1 -136 -41 -204q-78 -134 -279 -134q-118 0 -224.5 65.5t-184.5 192.5
t-78 247t50.5 196t137.5 105.5t242 29.5h212z" />
    <glyph glyph-name="h" unicode="h" horiz-adv-x="1180" 
d="M732 0zM540 683q-35 4 -78 4q-118 0 -169.5 -42t-51.5 -126.5t66 -177.5t155.5 -142.5t177.5 -49.5t125.5 24.5t52 65.5t14.5 136v753h-847v146h1210v-146h-198v-775q0 -144 -49 -217t-123.5 -104.5t-199.5 -31.5t-248.5 66t-212 192t-88.5 270q0 308 391 308q48 0 85 -6
z" />
    <glyph glyph-name="i" unicode="i" horiz-adv-x="530" 
d="M738 1482q0 210 -184 210q-77 0 -125.5 -40t-65 -106.5t-16.5 -172.5v-99h198v-146h-198v-1128h-165v1128h-197v146h197v94q0 164 37.5 259.5t121.5 152t229.5 56.5t237.5 -94t92 -265q0 -54 -13 -136l-160 16q11 59 11 125z" />
    <glyph glyph-name="S" unicode="S" horiz-adv-x="1235" 
d="M575 216q49 0 81 -32.5t32 -85t-31 -84.5t-81.5 -32t-82 32.5t-31.5 84.5t32 84.5t81 32.5zM313 1128q79 -246 82 -448h492v448h-574zM216 165q-98 0 -98 119q0 67 32 152.5t93 152.5q-14 289 -105 539h-153v146h1265v-146h-198v-1128h-165v534h-494q-9 -183 -55.5 -276
t-121.5 -93z" />
    <glyph glyph-name="j" unicode="j" horiz-adv-x="1253" 
d="M294 906q88 0 88 -114v-51h523v387h-920v146h1283v-146h-198v-1128h-165v596h-523v-596h-165v596h-36q-106 0 -106 78q0 46 34.5 100.5t88 93t96.5 38.5z" />
    <glyph glyph-name="k" unicode="k" horiz-adv-x="1273" 
d="M1050 1274zM848 555q-149 203 -363 203q-115 0 -180 -55.5t-65 -154t62 -154t176 -55.5q232 0 370 216zM1077 1128q19 -89 19 -189q0 -214 -85 -378q115 -196 155 -561h-166q-18 239 -84 411q-170 -218 -446 -218q-185 0 -291.5 95t-106.5 259t112 260.5t288 96.5
q264 0 433 -194q26 94 26 206.5t-20 211.5h-926v146h1303v-146h-211z" />
    <glyph glyph-name="l" unicode="l" horiz-adv-x="1380" 
d="M690 658zM448 666zM982 0zM690 0zM1141 1274zM407 1128q44 -274 283 -441q116 77 188.5 191t94.5 250h-566zM1141 1128q-31 -163 -128 -316q142 -79 214.5 -185.5t72.5 -222q0 -114.5 -50 -208.5q-105 -195 -378 -196h-12l-10 150h22q128 0 196 64.5q68 65.5 68 167.5
q0 205 -214 315q-106 -114 -232 -185q-128 72 -234 185q-101 -53 -156.5 -130t-55.5 -181t67.5 -170t196.5 -66h22l-10 -150h-12q-137 0 -233 51.5t-145.5 144.5t-49.5 208t73.5 224t214.5 184q-102 154 -129 316h-254v146h1410v-146h-254z" />
    <glyph glyph-name="m" unicode="m" horiz-adv-x="1220" 
d="M216 165q-98 0 -98 119q0 67 32 152.5t93 152.5q-14 289 -105 539h-153v146h282q126 -324 128 -594h477v594h363v-146h-198v-1128h-165v534h-479q-9 -183 -55.5 -276t-121.5 -93z" />
    <glyph glyph-name="n" unicode="n" horiz-adv-x="1328" 
d="M662 752zM930 0zM664 0zM746 1274zM664 775q-204 -52 -312 -150t-108 -223t66 -189t191 -64l-10 -149q-263 0 -363 196q-48 94 -48 201q0 170 130.5 303.5t371.5 197.5v230h-597v146h1358v-146h-597v-230q242 -64 372 -197.5t130 -303.5q0 -106 -46.5 -199t-139 -145.5
t-225.5 -52.5l-10 149q125 0 191 64t66 189t-108 223t-312 150z" />
    <glyph glyph-name="o" unicode="o" 
d="M-183 1274zM-640 1629l152 10q283 0 293 -380h-150q-11 127 -46.5 181t-112.5 54l-152 -11q-126 0 -197.5 78t-112.5 236l146 39q42 -134 78.5 -170.5t101.5 -36.5z" />
    <glyph glyph-name="p" unicode="p" horiz-adv-x="1214" 
d="M408.5 479q73.5 -58 192.5 -58t265 86v767h363v-146h-198v-1128h-165v333q-135 -62 -294 -62t-285 102.5t-209 307.5q143 120 143 260q0 102 -49 187h-187v146h305q94 -171 94 -337t-113 -268q64 -132 137.5 -190z" />
    <glyph glyph-name="q" unicode="q" horiz-adv-x="1110" 
d="M702 0zM618 805q164 66 164 243q0 44 -7 80h-790v146h1140v-146h-183q6 -43 6 -82q0 -105 -40 -177.5t-136 -127.5q122 -67 175 -154t53 -202q0 -179 -132.5 -282t-355.5 -103q-262 0 -486 132l67 150q204 -133 415 -133q152 0 237.5 61t85.5 165t-57.5 173t-171.5 115
q-125 -24 -231 -24q-229 0 -229 116q0 104 179 104q148 0 297 -54z" />
    <glyph glyph-name="r" unicode="r" horiz-adv-x="1185" 
d="M737 0zM837 690h-260q-133 0 -198 -13q-138 -28 -138 -160q0 -83 65.5 -175t155 -142.5t177.5 -50.5t128 23t55 65t15 138v315zM837 836v292h-852v146h1215v-146h-198v-775q0 -137 -44 -209q-88 -144 -323 -144q-131 0 -253.5 62.5t-214 192.5t-91.5 255t56 195
t149.5 100.5t275.5 30.5h280z" />
    <glyph glyph-name="s" unicode="s" horiz-adv-x="1220" 
d="M313 1128q79 -246 82 -448h477v448h-559zM216 165q-98 0 -98 119q0 67 32 152.5t93 152.5q-14 289 -105 539h-153v146h1250v-146h-198v-1128h-165v534h-479q-9 -183 -55.5 -276t-121.5 -93z" />
    <glyph glyph-name="t" unicode="t" horiz-adv-x="1178" 
d="M597 0zM1101 105q-225 -105 -431 -105t-345 111t-255 368q131 172 235 251t202.5 106t249.5 27h73v265h-845v146h1208v-146h-198v-351l-60 -60h-78q-152 0 -223.5 -8q-71.5 -9 -131.5 -35q-117 -52 -245 -209q86 -169 181.5 -242t207.5 -73t189.5 20t208.5 80z" />
    <glyph glyph-name="u" unicode="u" 
d="M-620 -555zM-624 0zM-232 -268q-169 -105 -393 -105q-221 0 -392 105l29 138q169 -97 362.5 -97t364.5 97z" />
    <glyph glyph-name="v" unicode="v" horiz-adv-x="1162" 
d="M598 0zM398 289q0 -141 265 -141q167 0 320 48l44 -150q-167 -46 -375 -46t-313.5 73t-105.5 201q0 94 71 151q-101 24 -164.5 87.5t-63.5 175.5q0 134 112 198q54 30 121 39t180 9h325v194h-829v146h1192v-146h-198v-280l-60 -60h-483q-71 0 -111 -8q-84 -18 -84 -98
q0 -100 134 -123q64 -11 204 -11h430v-146h-365q-144 0 -179 -15q-67 -29 -67 -98z" />
    <glyph glyph-name="w" unicode="w" horiz-adv-x="481" 
d="M316 1274zM496 1128h-180v-593h-165v593h-166v146h511v-146z" />
    <glyph glyph-name="x" unicode="x" horiz-adv-x="1274" 
d="M1206 105q-243 -105 -479 -105t-385 99.5t-272 349.5q138 178 251 248.5t244 70.5q72 0 137 -21l61 122q-198 121 -346 259h-432v146h1304v-146h-653q215 -163 566 -313l-72 -140q-126 57 -231 115l-86 -169l-76 -32q-74 30 -159 30t-156 -38t-162 -144
q101 -166 204.5 -226.5t232.5 -60.5t216 20t236 80z" />
    <glyph glyph-name="y" unicode="y" 
d="M-183 1274zM-341 1259q-49 208 -146 314.5t-262 106.5h-37q-12 0 -20 -1l-9 155q18 2 51 2q233 0 375 -143t205 -434h-157z" />
    <glyph glyph-name="z" unicode="z" horiz-adv-x="1283" 
d="M658 216q49 0 81 -32.5t32 -85t-31 -84.5t-81.5 -32t-82 32.5t-31.5 84.5t32 84.5t81 32.5zM294 906q88 0 88 -114v-51h553v387h-950v146h1313v-146h-198v-1128h-165v596h-553v-596h-165v596h-36q-106 0 -106 78q0 46 34.5 100.5t88 93t96.5 38.5z" />
    <glyph glyph-name="P" unicode="P" horiz-adv-x="1185" 
d="M934 253q0 86 -140 86q-168 0 -326 -148q88 -49 224 -49q242 0 242 111zM1099 260q0 -260 -404 -260q-347 0 -529 261q-90 130 -90 280q0 153 114 239q60 46 143.5 63.5t215.5 17.5h288v267h-852v146h1215v-146h-198v-353l-60 -60h-361q-145 -1 -208 -17
q-132 -35 -132 -167q0 -126 115 -249q197 203 454 203q135 0 212 -62.5t77 -162.5z" />
    <glyph glyph-name="dollar" unicode="$" horiz-adv-x="1143" 
d="M506 1198q-188 -34 -188 -172q0 -68 42 -111.5t146 -80.5v364zM838 426q0 70 -46 111.5t-158 80.5v-366q204 31 204 174zM506 98q-247 4 -382 66v164q73 -34 179 -59t203 -27v418q-200 63 -283 149t-83 217t98.5 214t267.5 102v176h128v-174q186 -5 352 -74l-54 -138
q-151 60 -298 70v-412q156 -54 232 -100q150 -91 150 -252q0 -134 -99.5 -221.5t-282.5 -110.5v-222h-128v214z" />
    <glyph glyph-name="at" unicode="@" 
d="M-348 0zM-200 -61q50 -211 147 -316t261 -105h17q7 0 16 1l-18 -157q-224 0 -364 132t-206 400z" />
    <glyph glyph-name="exclamdown" unicode="&#xa1;" horiz-adv-x="3039" 
d="M836 1836zM728 842v81q0 89 -28 133q-59 92 -202 91q-100 0 -154.5 -52.5t-54.5 -143.5t51 -142.5t143 -51.5q151 0 245 85zM728 671q-106 -61 -257.5 -61t-249.5 91t-98 244t104.5 251t262 98t248 -55.5t123 -125t32.5 -199.5v-594q0 -89 14.5 -125t45.5 -50t91 -14
l-20 -149q-224 0 -278 174q-18 58 -18 162v353zM1312 595q71 -446 405 -446q132 0 195 51t63 161q0 93 -54 145q-67 64 -189 80q-72 9 -200 9h-220zM2112 1128h-803q-16 -99 -16 -240v-19q0 -68 3 -128h269q182 0 271 18.5t153 66.5t92 119.5t31 182.5zM2095 1366
q-92 235 -346 235q-304 0 -407 -327h1031v-146h-97q-6 -178 -88 -300.5t-240 -173.5q93 -45 144 -124t51 -171q0 -172 -107.5 -265.5t-309.5 -93.5q-293 0 -447 219t-154 644v38q0 123 14 227h-94v146h124q64 234 216.5 355.5t375.5 121.5q272 0 405 -193q168 248 469 248
q202 0 332.5 -111t169.5 -311l-164 -18q-33 142 -123.5 216t-226 74t-228 -65.5t-161.5 -211.5z" />
    <glyph glyph-name="cent" unicode="&#xa2;" horiz-adv-x="1143" 
d="M362 726q0 -398 303 -398q146 0 287 60v-154q-110 -56 -248 -60v-194h-134v200q-199 30 -293.5 165t-94.5 379q0 496 388 556v168h136v-160q148 -6 264 -58l-52 -146q-140 52 -238 52q-163 0 -240.5 -101.5t-77.5 -308.5z" />
    <glyph glyph-name="sterling" unicode="&#xa3;" horiz-adv-x="1143" 
d="M438 432q0 -190 -136 -272h768v-160h-1006v148q197 46 198 282v210h-192v132h192v296q0 177 109.5 277.5t296 100.5t354.5 -82l-62 -140q-163 76 -288 76q-234 0 -234 -250v-278h408v-132h-408v-208z" />
    <glyph glyph-name="currency" unicode="&#xa4;" 
d="M-164 1836zM-183 1274zM38 1768q-12 -365 -302 -365q-295 0 -305 365l154 9q0 -126 32.5 -181t117 -55t117 56.5t32.5 179.5z" />
    <glyph glyph-name="yen" unicode="&#xa5;" horiz-adv-x="1143" 
d="M570 730l358 698h184l-402 -750h248v-128h-302v-164h302v-128h-302v-258h-172v258h-302v128h302v164h-302v128h244l-398 750h186z" />
    <glyph glyph-name="section" unicode="&#xa7;" 
d="M-290 -701q-171 -105 -393 -105q-221 0 -392 105l29 126q168 -97 361.5 -97t365.5 97zM-1075 -465l29 125q168 -97 353 -97l-18 17q-78 76 -78 190q0 51 31 92.5t90.5 64t185.5 22.5l-5 -130q-67 1 -93 -5q-58 -12 -58 -66.5t61 -107.5t118.5 -53q56.5 0 76.5 12
q34 21 34 88v313h165v-287q-1 -106 -29 -154q-58 -97 -213 -97q-7 0 -14 1h-15q-111 -33 -223 -33q-229 0 -398 105z" />
    <glyph glyph-name="dieresis" unicode="&#xa8;" 
d="M-232 -701q-171 -105 -393 -105q-221 0 -392 105l29 126q168 -97 361.5 -97t365.5 97zM-232 -433q-169 -105 -393 -105q-223 0 -392 105l29 125q168 -97 362.5 -97t364.5 97z" />
    <glyph glyph-name="copyright" unicode="&#xa9;" horiz-adv-x="1664" 
d="M204 714q0 -168 84 -313.5t230 -230t314 -84.5t313.5 84t230 230t84.5 314t-84 313.5t-230 230t-314 84.5t-313.5 -84t-230 -230t-84.5 -314zM193 352q-95 169 -95 363t97.5 365t268.5 269.5t367 98.5t367 -97.5t269.5 -268.5t98.5 -365.5t-94.5 -363.5t-265.5 -271
t-373.5 -102t-373.5 101.5t-266 270.5zM1080 314q-109 -48 -218 -48q-188 0 -291 117t-103 326t108.5 330t293.5 121q127 0 246 -60l-58 -122q-104 52 -186 52q-116 0 -182 -83.5t-66 -234.5t57 -233.5t189 -82.5q93 0 210 46v-128z" />
    <glyph glyph-name="ordfeminine" unicode="&#xaa;" horiz-adv-x="1208" 
 />
    <glyph glyph-name="registered" unicode="&#xae;" 
d="M-274 -345zM71 -402zM-466 -396q-185 0 -185 126t189 126q49 0 111 -11q3 20 3 41v114h165v-35q0 -117 -21 -164q149 -68 297 -269l-122 -80q-115 165 -247 232q-78 -80 -190 -80z" />
    <glyph glyph-name="degree" unicode="&#xb0;" horiz-adv-x="740" 
d="M666 782v-106h-598v106h598zM522 1322q-64 64 -154 64q-1 0 -1 1q-87 1 -151 -63t-66 -152v-5q0 -85 62 -149q64 -66 153 -67h3q86 0 150 64q64 65 66 153v6q1 85 -62 148zM367 1477q125 1 215 -91q91 -93 91 -219q0 -123 -90 -211q-91 -90 -217 -91h-2q-124 1 -214 91
q-91 92 -91 216t91.5 214.5t216.5 90.5z" />
    <glyph glyph-name="plusminus" unicode="&#xb1;" horiz-adv-x="1224" 
d="M1098 158v-138h-1038v138h1038zM1013 651h-357v-357h-154v357h-357v154h357v357h154v-357h357v-154z" />
    <glyph glyph-name="acute" unicode="&#xb4;" horiz-adv-x="64" 
d="M222 -275h-244v-182q0 -74 -52 -74q-33 0 -88 43t-50 47q-2 2 -2 13.5t30 88t32 94.5q5 46 5 85q0 59 -11 103h-136q14 -34 14 -80.5t-3 -64t-5 -40.5q-2 -22 -32 -106q-27 -76 -27 -105q0 -6 1 -10q4 -42 59.5 -89t100.5 -67q120 -52 168 -52q93 0 110 122q10 70 10 152
h121z" />
    <glyph glyph-name="mu" unicode="&#xb5;" 
d="M-164 1836zM-183 1274zM-115 1529q0 131 -151 131q-73 0 -111.5 -34t-38.5 -94.5t26 -120.5l-140 -21q-33 80 -33 156q0 111 82 179t216 68t215.5 -67.5t81.5 -180.5q0 -74 -33 -155l-140 21q26 60 26 118z" />
    <glyph glyph-name="paragraph" unicode="&#xb6;" horiz-adv-x="1309" 
d="M1098 -254h-116v1662h-204v-1662h-116v800q-61 -18 -142 -18q-211 0 -310.5 122t-99.5 372t106.5 374t333.5 124h548v-1774z" />
    <glyph glyph-name="periodcentered" unicode="&#xb7;" horiz-adv-x="700" 
d="M330 712q53 0 91.5 -39t38.5 -95t-43 -90t-87 -34t-86 33t-42 91t37.5 96t90.5 38z" />
    <glyph glyph-name="Aring" unicode="&#xc5;" horiz-adv-x="2168" 
d="M1133 -147q114 -395 408 -395h10q92 4 152 48q55 41 55 112v12q-5 80 -88 157t-159 77q-8 0 -47 -5.5t-331 -5.5zM1094 354q0 -201 14 -344q368 0 431 22q121 43 181.5 114t114.5 208h-741zM530 213q101 50 101 140q-1 174 -227 174q-224 0 -223 -171v-8q2 -84 56 -129
t134 -45t159 39zM762 -200q0 -179 57 -318l70 -128q7 -11 7 -21q0 -31 -38.5 -31t-77.5 29q-94 70 -140.5 209t-46.5 260.5t22 289.5q-120 -70 -250.5 -70t-236.5 85t-106 235q0 344 377 344h26q198 -6 284 -94.5t86 -271.5q0 -77 -11 -265q-22 -244 -22 -253zM1966 662
q-285 202 -463 202t-296 -140q-85 -100 -109 -212h957v-158h-60q-50 -151 -112 -243.5t-180 -163.5q213 -127 213 -317q0 -136 -88.5 -232t-268.5 -96q-292 0 -453 227q-132 186 -159 496q-10 109 -10 273v56h-67v158h68q19 215 177.5 361.5t374.5 146.5q87 0 187.5 -29
t330.5 -176q51 -39 146 -123l-3 -169q-57 45 -185 139z" />
    <glyph glyph-name="AE" unicode="&#xc6;" horiz-adv-x="2000" 
d="M2524 1034l2 -129v-63q-9 -53 -62 -55h-4q-72 0 -87 95q-8 52 -8 150q0 279 -197 472t-477 193q-389 0 -780 -487q-110 -136 -249 -335t-171 -237q-160 -196 -320 -196q-70 0 -176 69q-19 12 -19 24q-2 64 -2 161q135 -97 197 -97q87 1 227 172q91 112 212.5 290
t155.5 219q220 261 391 387q253 187 534 187q344 0 588.5 -238t244.5 -582z" />
    <glyph glyph-name="Ccedilla" unicode="&#xc7;" horiz-adv-x="1944" 
d="M1080 1408q-18 -132 -18 -328t59 -362q99 45 157 136.5t58 207.5t-69 212t-187 134zM825 718q59 172 59 361t-19 329q-118 -38 -187 -134t-69 -211t58 -207t158 -138zM374 -26q-250 349 -250 837q0 213 94 390t235 269q-69 -119 -97 -238.5t-28 -279.5t70 -302.5
t200.5 -228.5t302.5 -98v160q-105 13 -170 42q31 47 43 74q-134 64 -213.5 188.5t-79.5 279.5t98.5 287.5t262.5 181.5q-10 57 -32 82t-70 25v57q61 0 108 39.5t68.5 51t45.5 11.5q42 0 93.5 -37.5t82 -51t67.5 -13.5v-57q-49 0 -70.5 -25.5t-31.5 -81.5q165 -49 263 -181.5
t98 -287.5t-79.5 -279.5t-213.5 -188.5q20 -39 43 -74q-64 -29 -170 -42v-160q173 13 303 98t200.5 228.5t70.5 303.5t-27.5 277.5t-97.5 239.5q140 -92 233.5 -269t93.5 -403t-63 -440.5t-186 -383.5q-9 117 -80 188t-182 71q-60 0 -122 -23q116 -95 189 -200t73 -160.5
t-25.5 -86t-74 -30.5t-77.5 30t-29 63q0 50 12.5 69.5t12.5 27.5q0 85 -156 250q-68 -54 -68 -125t38.5 -147t38.5 -144.5t-44.5 -115.5t-104 -47t-103.5 47t-44 116t38 144t38 146.5t-68 125.5q-156 -165 -156 -250q1 -7 9 -21q16 -26 16 -67.5t-29 -71.5t-77.5 -30
t-74 30.5t-25.5 86t71.5 159t191.5 201.5q-65 23 -122 23q-112 0 -183 -71t-80 -188z" />
    <glyph glyph-name="R" unicode="R" 
d="M-274 -345zM71 -402zM-466 -396q-185 0 -185 126t189 126q49 0 111 -11q3 20 3 41v114h165v-35q0 -117 -21 -164q149 -68 297 -269l-122 -80q-115 165 -247 232q-78 -80 -190 -80z" />
    <glyph glyph-name="H" unicode="H" 
d="M-183 -387q-1 -106 -29 -154q-58 -97 -212.5 -97t-259.5 92t-105 216q0 51 31 92.5t90.5 64t185.5 22.5l-5 -130q-67 1 -93 -5q-58 -12 -58 -66.5t61 -107.5t118.5 -53q56.5 0 76.5 12q34 21 34 88v413h165v-387z" />
    <glyph glyph-name="Iacute" unicode="&#xcd;" 
d="M-613 -380q-138 36 -138 166q0 54 30 91t79.5 50.5t140.5 13.5h153v59h165v-127l-49 -49h-299q-57 0 -70.5 -14t-13.5 -36.5t21 -37t100 -14.5h319v-117h-259q-73 0 -73 -47q0 -67 155 -67q89 0 176 22l34 -112q-94 -28 -229.5 -28t-203 43t-67.5 121q0 50 29 83z" />
    <glyph glyph-name="Ntilde" unicode="&#xd1;" 
d="M-183 1274zM-608 1629l143 10q252 0 270 -380h-150q-16 134 -46.5 184.5t-97.5 50.5l-133 -11q-107 0 -171 80t-103 234l146 39q30 -114 60.5 -160.5t81.5 -46.5zM-530 1456q34 0 56.5 -21t22.5 -55t-21.5 -55t-57 -21t-57.5 21t-22 55t22.5 55t56.5 21z" />
    <glyph glyph-name="Ograve" unicode="&#xd2;" horiz-adv-x="895" 
d="M160 0v1274h165v-1274h-165zM570 0v1274h165v-1274h-165z" />
    <glyph glyph-name="Oacute" unicode="&#xd3;" horiz-adv-x="2656" 
d="M1506 1304l-8 -89q19 -54 20 -57q17 -31 44 -35q35 83 35 93.5t-1 28.5t-23 39.5t-40.5 21.5t-26.5 -2zM1609 1304q39 -93 121 -124q18 7 16 25q-7 41 -7 30q-9 30 -37.5 65.5t-53.5 35.5t-39 -32zM1294 1313h93q57 2 78 38q-10 35 -47 35t-87.5 -19.5t-50.5 -41.5
q0 -9 14 -12zM1659 1389q46 -75 153 -75q14 0 27 1q0 28 -52 63.5t-84 35.5t-44 -25zM1624 1424q0 68 -76 74q-61 -3 -61 -75q0 -11 2 -22q15 -35 76 -50q59 25 59 73zM1659 1510q-12 -17 -12 -29q0 -27 54 -27q78 0 124 75q-39 21 -88.5 21t-77.5 -40zM1285 1552
q-1 -43 49 -79q42 -31 81 -31q6 0 12 1q23 3 23 55q-50 54 -148 54h-17zM1430 1703l-3 -80q11 -30 23 -59q18 -35 49 -35q10 0 19 2q16 11 15.5 42t-0.5 50q-31 80 -103 80zM1663 1742q-27 -20 -59.5 -71.5t-32.5 -89.5t34 -52h4q67 0 67 140q0 50 -13 73zM2292 1129
q71 99 90 120q57 65 107 76q-41 -81 -156 -219q82 30 154.5 95t72.5 130q0 30 -17 56q-22 9 -45 9q-86 0 -150 -90q-57 -81 -57 -158q0 -10 1 -19zM205 108q29 -71 81 -71q15 0 30 9q-6 27 -35.5 89.5t-29.5 102.5q0 73 72 172q-133 -96 -133 -226q0 -38 15 -76zM422 455
q-124 -97 -124 -203q0 -61 43.5 -110t104.5 -49q14 0 27 3q-96 86 -96 195q0 75 45 164zM299 720l62 72q-42 0 -94 -40t-52 -80q0 -17 11 -29q173 62 209 158h-3q-23 -1 -66 -39q-46 -42 -67 -42zM348 848l-92 -10q-33 0 -58 18q20 15 56 15q7 -1 15 -1q14 -1 26 -1
q27 0 40 6q-31 39 -86.5 39t-104.5 -20t-52 -57q70 -27 147.5 -27t136.5 35q-13 3 -28 3zM597 939q21 8 75.5 45t75 37t29.5 -1q-12 -21 -80.5 -55.5t-75.5 -56.5q144 0 222 153q-27 8 -74.5 8t-110.5 -29.5t-63 -83.5q0 -8 2 -17zM119 1173q52 -113 137.5 -197t189.5 -84
q0 6 -83 65.5t-97 97.5q34 -14 89 -56.5t82 -55.5q-91 172 -318 230zM538 958q99 104 99 225q0 38 -11 73q-91 -38 -91 -185q0 -18 1.5 -56t1.5 -57zM394 1306l3 -168q11 -136 60 -155q-28 111 -28 138t4 27q13 0 71 -145q1 14 1 30q1 63 -21 151q-28 110 -90 122z
M1760 1586l78 7q36 0 58 -26q1 -48 -28 -73t-75 -63q8 -13 68 -60t60 -90q0 -8 -2 -16q-11 -3 -29 -3q-15 0 -35 2q-45 4 -59 4t-27 -5q3 -10 19.5 -56.5t16.5 -74.5q-14 -4 -36 -4t-74.5 34.5t-66.5 41.5q-17 -58 -63 -173q-66 56 -109 225q-47 -78 -112.5 -244.5
t-82.5 -199.5q40 8 131 56.5t150 48.5t124 -69q-65 -128 -245 -128q-49 0 -115 8.5t-71 8.5q-30 -107 -123 -594q13 -32 37 -82v6q0 93 32 157q33 66 114 178q48 -30 48 -105.5t-44 -174t-88 -159.5q118 -211 170 -313.5t98 -229.5q8 55 39.5 168t38.5 165q-16 37 -31 71
q-25 44 -63 44q-10 0 -22 -2q-73 21 -73 87q0 37 29.5 64.5t66.5 27.5q78 0 78 -87l-2 -61q0 -63 42 -88q73 402 443 927q-29 73 -55.5 141.5t-26.5 134.5q0 132 121 247q64 -102 64 -217t-31 -190q23 36 93 127q69 88 68 102l-12 72q0 102 78 199.5t177 97.5q48 0 82 -29
t34 -77q0 -98 -110.5 -191.5t-211.5 -97.5l-184 -248q110 50 207 50q158 0 229 -112q-62 -75 -200 -75q-70 0 -165 18l-118 23q-153 -243 -216 -359q-128 -237 -189 -445q65 98 256 218.5t343 120.5q15 0 30 -1q138 246 289 246q34 0 68 -16q-21 -124 -79 -182
q-36 -36 -97.5 -52.5t-67.5 -31.5q120 -46 183.5 -156t63.5 -232t-57.5 -198t-163.5 -88q-40 -4 -86 -4q-176 0 -176 42q0 3 1 6q5 19 31 19t68.5 -6.5t62.5 -7.5h22q125 0 169 43q73 72 73 179q0 15 -3 41q-33 264 -230 324q85 -63 85 -175.5t-73 -150.5q-127 65 -127 180
q0 52 36 175q-240 -30 -436 -182q-134 -104 -205 -221q8 -2 22.5 -2t55.5 13.5t52 15.5q34 78 101 78t76 -75q1 -8 1 -16q0 -32 -19 -60q-24 -34 -72.5 -34t-92.5 66q-62 -15 -142 -37q-74 -309 -100 -401q65 97 115 130t154 33q25 0 79 -1q-13 -218 -330 -244l11 -43h-86
l-22 43q-15 5 -38 5t-81 -16t-87 -16q-108 0 -189 157q118 24 225 24t156 -52q-2 11 -24 64q-90 54 -226 104.5t-231 69.5l-59 -178q-65 -141 -182 -141q-21 0 -44 4q-7 66 -7 102q0 78 46 120l162 116q-105 5 -215 5t-207 -11q-15 -105 -87.5 -196t-171.5 -120
q-16 36 -16 93t40.5 131.5t90.5 117.5q-139 22 -174 39q-74 34 -111 135q47 44 120 44t159 -58t144 -127h359q-156 62 -203 260q32 36 71 36q80 0 181 -134q71 -95 110 -187q177 -37 431 -159q-77 144 -228 436q-97 -31 -174 -31q-131 0 -217 93q70 85 158.5 85t189.5 -49
q-23 41 -76 139q-181 332 -374 340q-13 1 -24 0q-171 0 -204 -110q-15 -52 -15 -101.5t27.5 -96t81.5 -46.5h28.5t42.5 40q2 7 2 15l-15 65q0 14 17.5 17.5t27.5 -22.5t10 -45q0 -75 -83 -120q-57 -31 -89 -42q-27 -9 -78 -9h-20q-37 -55 -98 -55q-34 0 -59 18
q-74 49 -74 161q0 206 258 322q112 51 225.5 51t190.5 -63l1 16q-103 115 -265 288q-56 -6 -107 -56q-85 -84 -96 -92q-69 -47 -173 -47q-2 9 -2 25t16.5 58.5t16.5 63.5t-10 37q-80 0 -168 47q18 43 91.5 82t90.5 63q-74 62 -150 240q8 1 17 1q99 0 272 -92q2 19 2 51v49
q0 114 25 168q37 -12 78 -88t70 -76q21 5 56.5 48.5t66.5 51.5q22 -66 22 -120.5t-4 -87.5q31 -7 107.5 -11t110.5 -25q-36 -108 -115 -160q-40 -27 -112.5 -47t-72.5 -47q290 -291 496 -614q15 141 113 546q-83 48 -141.5 135.5t-58.5 169t42 140.5q171 -68 192 -373
q58 166 189 449q-35 -16 -94 -16t-130 33q6 37 63.5 76t71.5 58q-76 35 -133 154q21 31 55.5 31t76.5 -11l60 -15q-10 77 -29 211h7q42 0 86 -35q13 -11 84 -72q29 12 73.5 69t68.5 71q25 -16 38 -126t15 -118q14 -4 32 -4z" />
    <glyph glyph-name="Ocircumflex" unicode="&#xd4;" horiz-adv-x="2656" 
d="M1506 -251l-8 90q19 53 20 56q17 31 44 35q35 -83 35 -93t-1 -28.5t-23 -40t-40.5 -21.5t-26.5 2zM1609 -251q39 93 121 125q18 -8 16 -26q-7 -41 -7 -30q-9 -30 -37.5 -65.5t-53.5 -35.5t-39 32zM1294 -260h93q57 -1 78 -38q-10 -35 -47 -35t-87.5 19.5t-50.5 41.5
q0 9 14 12zM1659 -336q46 75 153 75q14 0 27 -1q0 -28 -52 -63.5t-84 -35.5t-44 25zM1624 -371q0 -68 -76 -74q-61 3 -61 75q0 11 2 22q15 35 76 50q59 -25 59 -73zM1659 -457q-12 17 -12 30q0 27 54 27q78 0 124 -76q-39 -21 -88.5 -21t-77.5 40zM1285 -499q-1 43 49 79
q42 31 81 31q6 0 12 -1q23 -3 23 -55q-50 -54 -148 -54h-17zM1430 -649l-3 79q11 30 23 59q18 35 49 35q10 0 19 -2q16 -11 15.5 -42t-0.5 -50q-31 -79 -103 -79zM1663 -689q-27 21 -59.5 72t-32.5 89t34 52h5q66 0 66 -140q0 -50 -13 -73zM2292 -76q71 -98 90 -120
q57 -65 107 -76q-41 81 -156 219q82 -30 154.5 -95t72.5 -130q0 -30 -17 -56q-22 -9 -45 -9q-86 1 -150 91q-57 81 -57 157q0 10 1 19zM205 945q29 71 81 71q15 0 30 -9q-6 -27 -35.5 -89t-29.5 -103q0 -73 72 -172q-133 97 -133 226q0 38 15 76zM422 599q-124 96 -124 202
q0 61 43.5 110t104.5 49q14 0 27 -3q-96 -85 -96 -195q0 -75 45 -163zM299 333l62 -72q-42 0 -94 40t-52 80q0 17 11 29q173 -61 209 -158h-2q-23 0 -67 39q-46 41 -67 42zM348 206l-92 9q-33 0 -58 -18q20 -14 57 -14h14q13 1 24 1q29 0 42 -6q-31 -39 -86.5 -39
t-104.5 20.5t-52 56.5q70 27 147.5 27t136.5 -35q-13 -2 -28 -2zM597 114q21 -8 75.5 -45t75 -37t29.5 1q-12 21 -80.5 55.5t-75.5 56.5q144 0 222 -152q-27 -9 -74.5 -9t-110.5 29.5t-63 83.5q0 8 2 17zM119 -120q52 113 137.5 197t189.5 84q0 -6 -83 -65.5t-97 -97.5
q34 14 89 56.5t82 56.5q-91 -173 -318 -231zM538 95q99 -103 99 -225q0 -38 -11 -73q-91 38 -91 185q0 19 1.5 56.5t1.5 56.5zM394 -253l3 168q11 136 60 155q-28 -111 -28 -138t4 -27q13 0 71 145q1 -14 1 -30q1 -63 -21 -151q-28 -110 -90 -122zM1760 -533l78 -7
q36 0 58 26q1 48 -28 73t-75 63q8 13 68 60t60 90q0 8 -2 16q-11 3 -29 3q-15 0 -35 -2q-45 -4 -59 -4t-27 6q3 9 19.5 55.5t16.5 75.5q-14 3 -36 3t-74.5 -34.5t-66.5 -40.5q-17 57 -63 172q-66 -56 -109 -225q-47 78 -112.5 244.5t-82.5 200.5q40 -9 131 -57.5t150 -48.5
t124 70q-65 127 -245 127q-49 0 -115 -8.5t-71 -8.5q-30 107 -123 594q13 33 37 82v-6q0 -94 32 -158q33 -66 114 -177q48 31 48 106t-44 173.5t-88 159.5q118 211 170 314t98 229q8 -55 39.5 -168t38.5 -165q-16 -36 -31 -71q-25 -44 -63 -44q-10 0 -22 2q-73 -21 -73 -87
q0 -36 29.5 -64t66.5 -28q78 0 78 87l-2 62q0 62 42 87q73 -402 443 -927q-29 -73 -55.5 -141.5t-26.5 -134.5q0 -131 121 -247q64 103 64 217.5t-31 189.5q23 -37 93 -127q69 -88 68 -102l-12 -72q0 -101 78 -199t177 -98q48 0 82 29t34 77q0 98 -110.5 191.5t-211.5 97.5
l-184 248q110 -50 207 -50q158 0 229 112q-62 76 -200 76q-70 0 -165 -19l-118 -23q-153 243 -216 359q-128 237 -189 445q65 -98 256 -218.5t343 -120.5q15 0 30 1q138 -245 289 -245q34 0 68 15q-21 124 -79 182q-36 36 -97.5 52.5t-67.5 31.5q120 46 183.5 156t63.5 232
t-57.5 198t-163.5 88q-40 4 -86 4q-176 0 -176 -42q0 -3 1 -6q5 -19 31 -19q27 1 69 7q56 9 101 8q108 0 156 -48q69 -68 69 -175q0 -15 -3 -41q-33 -264 -230 -323q85 62 85 174.5t-73 150.5q-127 -64 -127 -180q0 -52 36 -175q-240 31 -436 182q-134 104 -205 221
q8 2 22.5 2t55.5 -13.5t52 -15.5q34 -78 101 -78t76 76q1 8 1 16q0 32 -19 59q-24 34 -72.5 34t-92.5 -66q-62 15 -142 37q-74 309 -100 401q65 -97 115 -130t154 -33q25 0 79 1q-13 218 -330 244l11 44h-86l-22 -44q-15 -4 -38 -4t-81 15.5t-87 15.5q-108 0 -189 -157
q118 -24 225 -24t156 52q-2 -11 -24 -64q-90 -54 -226 -104.5t-231 -69.5l-59 178q-65 141 -182 141q-21 0 -44 -4q-7 -66 -7 -102q0 -78 46 -120l162 -116q-105 -4 -215 -4t-207 10q-15 105 -87.5 196t-171.5 121q-16 -36 -16 -93.5t40.5 -132t90.5 -117.5
q-139 -22 -174 -39q-74 -34 -111 -135q47 -44 120 -44t159 58t144 127h359q-156 -62 -203 -260q32 -36 71 -36q80 0 181 134q71 95 110 187q177 37 431 159q-77 -144 -228 -436q-97 31 -174 31q-131 0 -217 -92q70 -86 158.5 -86t189.5 50q-23 -41 -76 -139
q-180 -333 -373 -341q-13 -1 -25 0q-171 0 -204 110q-15 52 -15 101.5t27.5 96t81.5 46.5h28.5t42.5 -39q2 -8 2 -16l-15 -65q0 -14 17.5 -17.5t27.5 22.5t10 45q0 75 -83 120q-57 31 -89 43q-25 9 -72 9q-12 0 -26 -1q-37 55 -98 55q-34 0 -59 -17q-74 -50 -74 -162
q0 -206 258 -322q112 -50 225.5 -50t190.5 62l1 -15q-103 -116 -265 -289q-56 6 -107 56q-85 84 -96 92q-69 47 -173 47q-2 -9 -2 -25t16.5 -58.5t16.5 -63t-10 -37.5q-80 0 -168 -47q18 -43 91.5 -81.5t90.5 -63.5q-74 -62 -150 -240q8 -1 17 -1q99 0 272 93q2 -20 2 -52
v-49q0 -113 25 -168q37 12 78 88t70 76q21 -5 56.5 -48.5t66.5 -51.5q22 66 22 120.5t-4 87.5q31 8 107.5 11.5t110.5 24.5q-36 109 -115 160q-40 27 -112.5 47t-72.5 47q290 291 496 614q15 -141 113 -546q-83 -48 -141.5 -135.5t-58.5 -168.5t42 -140q171 67 192 372
q58 -166 189 -449q-35 17 -94 17t-130 -34q6 -37 63.5 -76t71.5 -58q-76 -35 -133 -154q21 -31 55.5 -31t76.5 11l60 15q-10 -76 -29 -211h7q42 0 86 35q13 11 84 72q29 -12 73.5 -69t68.5 -70q25 16 38 125.5t15 117.5q14 4 32 4z" />
    <glyph glyph-name="questiondown" unicode="&#xbf;" horiz-adv-x="1128" 
d="M453 1274zM459 658l-318 319l105 105l317 -318l322 318l104 -103l-321 -321l319 -320l-102 -102l-322 317l-317 -315l-103 103z" />
    <glyph glyph-name="aring" unicode="&#xe5;" horiz-adv-x="1398" 
d="M291 1520q23 -24 68 -50q41 -23 66 -23q2 1 5 1q26 2 201 114.5t303 195.5q158 95 368 95t378 -97t233 -263q15 -38 15 -68q0 -65 -59 -65q-44 0 -79 70q-140 282 -464 282h-5q-111 -1 -173 -18q-139 -38 -324 -170.5t-257 -176t-143.5 -43.5t-134 40t-147.5 116.5
t-126 101.5q-101 62 -246 62h-26l38 136q15 1 29 1q140 0 240 -53q110 -58 240 -188z" />
    <glyph glyph-name="ae" unicode="&#xe6;" 
d="M-579 -158q49 0 81 -32.5q32 -33.5 32 -85.5t-31 -84t-81 -32t-82 32.5t-32 84.5t32 84.5t81 32.5z" />
    <glyph glyph-name="ydieresis" unicode="&#xff;" horiz-adv-x="1700" 
d="M180 194q-59 0 -59 124.5t55 151.5q9 4 18 4q34 0 66 -50t32 -82q-13 -36 -80 -144q-20 -4 -32 -4zM1090 408v-162q-45 -70 -85.5 -70t-80.5 66q-11 19 -11 26t7.5 22t12.5 43.5t17 74.5h140zM1090 516h-134v15q0 54 -12 171h146v-186zM470 702v108h-426v-108h310
q0 -96 -38 -242q-8 24 -26 62q-44 66 -91 66q-82 0 -122 -98q-29 -72 -29 -174.5t36 -169t76 -66.5q64 0 83.5 16.5t72.5 121.5q26 -44 31 -126t13 -83.5t39 -1t35 2.5q0 108 -52 297q-11 37 -10 45q46 151 60 350h38zM936 886q0 261 -119 261q-56 0 -87 -59.5t-31 -123.5
v-154h-55v-108h55l1 -692h74v692q44 1 66 1t24 -1q21 -37 21 -128q0 -29 -2 -64q-9 -143 -31.5 -203t-22.5 -64q0 -29 39 -81q58 -77 122 -77q36 0 64.5 22t35.5 43v-140h78v692h340v-236h-142v58q0 57 -25 57q-25 -1 -55 -37q-46 -56 -45 -120v-5q2 -67 19 -67h50
q0 -118 15.5 -189.5t69.5 -115t92.5 -43.5t88.5 76q21 32 21 58q1 29 -3 29q-2 0 -36.5 -38.5t-54.5 -38.5t-39 6q-72 24 -72 256h200v350h52v108h-870v120q0 96 45 95h5q43 -7 43 -105q0 -16 -1 -34h70zM1152 872q51 14 51 148t-91 134q-38 0 -62 -36q-30 -45 -30 -105.5
t19 -98t37 -42.5q3 28 -4.5 49t-7.5 89t48 68q34 0 46 -72q3 -16 3 -32l-11 -86q0 -8 2 -16zM1682 -62h-1678v1258h1678v-1258z" />
    <glyph glyph-name="udieresis" unicode="&#xfc;" 
d="M-640 -806zM-232 -482q-169 -105 -393 -105q-221 0 -392 105l29 138q169 -97 362.5 -97t364.5 97z" />
    <glyph glyph-name="OE" unicode="&#x152;" horiz-adv-x="2656" 
d="M550 350l90 8q53 -19 56 -20q31 -16 35 -44q-83 -35 -93 -35t-28.5 1t-40 23t-21.5 40.5t2 26.5zM550 247q93 -39 125 -121q-8 -18 -37.5 -13.5t-18.5 4.5q-30 9 -65.5 37.5t-35.5 53.5t32 39zM541 563v-94q-1 -57 -38 -78q-35 10 -35 47.5t19.5 87.5t41.5 50q9 0 12 -13
zM465 197q75 -46 75 -153q0 -14 -1 -27q-28 0 -63.5 52t-35.5 84t25 44zM430 232q-68 0 -74 76q3 61 75 61q11 0 22 -2q35 -15 50 -76q-25 -59 -73 -59zM344 197q17 12 30 12q26 0 26 -54q0 -78 -75 -124q-21 39 -21 88.5t40 77.5zM302 571q43 1 79 -49q31 -42 31 -81
q0 -6 -1 -12q-3 -23 -55 -23q-54 50 -54 148v17zM152 426l79 3q30 -11 59 -23q35 -18 35 -49q0 -10 -2 -19q-11 -16 -42 -15.5t-50 0.5q-79 31 -79 103zM112 194q20 26 71.5 58.5t89.5 32.5t52 -34q5 -71 -140 -71q-50 0 -73 14zM725 -435q-98 -72 -120 -91
q-65 -56 -76 -107q81 41 219 156q-30 -82 -95 -154.5t-130 -72.5q-30 0 -56 17q-9 22 -9 45q0 86 90 150q82 58 160 58q9 0 17 -1zM1746 1651q71 -29 71 -81q0 -15 -9 -30q-27 6 -89 35.5t-103 29.5q-73 0 -172 -72q96 134 226 134q38 0 76 -16zM1400 1434q96 124 202 124
q61 0 110 -43.5t49 -104.5q0 -14 -3 -27q-85 96 -195 96q-75 0 -163 -45zM1134 1557l-72 -62q0 42 40 94t80 52q17 0 29 -10q-61 -174 -158 -210q-2 23 39 69t42 67zM1007 1508l9 92q0 33 -18 58q-14 -20 -14 -57v-14q1 -13 1 -24q0 -29 -6 -42q-39 31 -39 86.5t20.5 104.5
t56.5 52q27 -70 27 -147.5t-35 -136.5q-2 13 -2 28zM915 1259q-8 -21 -45 -75.5t-37 -75t1 -29.5q21 12 55.5 80.5t56.5 75.5q0 -144 -152 -221q-9 26 -9 73.5t29.5 110.5t83.5 63q8 0 17 -2zM681 1738q113 -53 197 -138t84 -190q-6 0 -65.5 83t-97.5 97q14 -34 56.5 -89
t56.5 -82q-173 91 -231 319zM896 1318q-104 -99 -225 -99q-38 0 -73 11q38 92 185 92q19 0 56.5 -2t56.5 -2zM548 1462l168 -3q136 -11 155 -60q-111 28 -138 28t-27 -4q0 -13 145 -71q-13 -1 -27 -1q-64 0 -154 22q-110 27 -122 89zM268 96l-7 -78q0 -36 26 -58h3
q46 0 70 28q25 29 63 76q13 -9 60 -69t90 -60q8 0 16 2q3 11 3 30q0 15 -2 35q-4 44 -4 58.5t6 27.5q81 -36 131 -36q3 13 3 35t-34.5 74.5t-40.5 66.5q57 17 172 63q-56 66 -225 109q78 47 244.5 113t200.5 82q-9 -40 -57.5 -131t-48.5 -150t70 -124q127 65 127 245
q0 49 -8.5 115t-8.5 72q107 29 594 122q33 -13 82 -37h-6q-93 1 -157 -31q-66 -32 -178 -114q31 -49 106 -49t173.5 44t159.5 89q211 -119 314 -171t229 -98q-55 -8 -168 -39.5t-165 -38.5q-36 16 -71 31q-44 25 -44 63q0 10 2 22q-21 73 -87 73q-36 0 -64 -29.5t-28 -66.5
q0 -78 87 -78l62 2q62 0 87 -42q-402 -73 -927 -443q-73 29 -141.5 55.5t-134.5 26.5q-131 0 -247 -121q102 -64 217 -64t190 31q-36 -23 -126 -93q-88 -69 -103 -68h-1q-34 12 -71 12q-101 0 -199 -78t-98 -177q0 -48 29 -82t77 -34q98 0 191.5 110.5t97.5 211.5l248 184
q-50 -109 -50 -207q0 -158 112 -229q75 62 75 200q0 70 -18 165l-23 118q243 153 359 216q237 128 445 189q-98 -65 -218.5 -256t-120.5 -343q0 -15 1 -30q-245 -138 -245 -288q0 -35 15 -69q124 21 182 79q36 36 52.5 97.5t31.5 67.5q46 -120 156 -183t232 -63t198 57
t88 163q4 40 4 86q0 176 -42 176q-3 0 -6 -1q-19 -5 -19 -31t6.5 -68.5t7.5 -61.5v-22q0 -126 -43 -170q-72 -73 -179 -73q-15 0 -41 4q-264 32 -323 229q62 -85 174.5 -85t150.5 73q-65 128 -180 128q-52 0 -175 -36q31 239 182 435q104 134 221 206q2 -9 2 -23.5
t-13.5 -55.5t-15.5 -51q-78 -35 -78 -102t75 -76q8 -1 16 -1q32 0 60 19q34 24 34 72.5t-66 92.5q15 62 37 142q309 74 401 100q-97 -65 -130 -114.5t-33 -154.5q0 -25 1 -79q218 13 244 330l44 -11v86l-44 22q-4 15 -4 38t15.5 81t15.5 87q0 109 -157 189
q-24 -118 -24 -225t52 -156q-11 2 -64 24q-54 90 -104.5 226t-69.5 231l178 59q141 65 141 182q0 21 -4 44q-66 7 -102 7q-78 0 -120 -45l-116 -163q-4 105 -4 215t10 207q105 15 196 87.5t121 171.5q-37 17 -94 17t-130 -40t-119 -91q-22 138 -39 173q-34 74 -135 112
q-44 -47 -44 -120t58 -159.5t127 -144.5v-359q-62 156 -260 203q-36 -32 -36 -71q0 -80 134 -180q95 -71 187 -111q37 -177 159 -431q-144 78 -436 228q31 97 31 174q0 131 -92 217q-86 -70 -86 -158.5t49 -189.5q-40 23 -138 76q-333 180 -341 373q-1 13 0 25
q0 171 110 204q52 15 101.5 15t96 -27.5t46.5 -81.5v-26q0 -18 -39 -45q-8 -2 -16 -2l-65 15q-14 0 -17.5 -17.5t22.5 -27t45 -9.5q75 0 120 82q30 57 42 89q9 25 10 72q0 12 -1 26q55 37 55 98q0 34 -17 59q-50 74 -162 74q-206 0 -322 -258q-50 -112 -50 -225.5t62 -190.5
l-15 -1q-116 104 -289 265q6 57 56 107q84 85 92 96q47 69 47 173q-9 2 -25 2t-58.5 -16.5t-63 -16.5t-37.5 10q0 80 -47 168q-43 -17 -81.5 -91t-63.5 -91q-62 74 -240 151q-1 -8 -1 -17q0 -100 93 -273q-20 -2 -52 -2h-49q-114 0 -168 -25q12 -37 88 -78t76 -70
q-5 -21 -48.5 -56.5t-51.5 -66.5q66 -22 120.5 -22t87.5 5q8 -31 11.5 -108t24.5 -111q109 36 160 115q27 40 47 112.5t47 72.5q291 -290 614 -496q-141 -15 -546 -113q-48 83 -135.5 141.5t-169 58.5t-139.5 -42q67 -171 372 -192q-166 -58 -449 -189q16 35 16 94t-33 130
q-37 -6 -76 -63.5t-58 -71.5q-35 76 -154 133q-31 -21 -31 -55.5t11 -76.5l15 -60q-76 10 -211 29v-6q0 -41 35 -86q11 -14 72 -85q-12 -28 -69 -73t-71 -68q17 -26 126.5 -39t117.5 -15q4 -14 4 -32z" />
    <glyph glyph-name="oe" unicode="&#x153;" horiz-adv-x="64" 
d="M-674 -392l158 22q50 0 113 -42t65 -84q2 -8 2 -24q0 -92 -140 -92q-102 0 -234 94q-50 26 -70 26t-20 -14q0 -40 104 -129t180 -89q314 0 314 219q0 108 -136 197q60 52 92 112t48 144h-136q-28 -108 -62 -149t-85 -41t-87 6l-60 10q-26 2 -38 2q-104 0 -106 -80v-7
q0 -81 98 -81z" />
    <glyph glyph-name="ccedilla" unicode="&#xe7;" horiz-adv-x="64" 
d="M-328 -506q0 -114 -114 -114q-75 0 -102 32q-20 17 -39 89.5t-23 98.5h278v-106zM-196 -510v456h-128v-226h-292v64q0 50 -62 50q-88 0 -136 -64q-38 -46 -38 -106t38 -60h86q14 -52 27 -106t27 -106q50 -124 206 -134q14 -1 28 -1q134 0 198 89q46 64 46 144z" />
    <glyph glyph-name="florin" unicode="&#x192;" horiz-adv-x="1328" 
d="M678 -806zM765 1836zM662 752zM1056 -483q-171 -105 -393 -105q-221 0 -392 105l29 126q168 -97 361.5 -97t365.5 97zM1056 -215q-169 -105 -393 -105q-223 0 -392 105l29 125q168 -97 362.5 -97t364.5 97zM814 1529q0 131 -151 131q-73 0 -111.5 -34t-38.5 -94.5
t26 -120.5l-140 -21q-33 80 -33 156q0 111 82 179t216 68t215.5 -67.5t81.5 -180.5q0 -74 -33 -155l-140 21q26 60 26 118zM664 775q-204 -52 -312 -150t-108 -223t66 -189t191 -64l-10 -149q-263 0 -363 196q-48 94 -48 201q0 170 130.5 303.5t371.5 197.5v230h-597v146
h1358v-146h-597v-230q242 -64 372 -197.5t130 -303.5q0 -106 -46.5 -199t-139 -145.5t-225.5 -52.5l-10 149q125 0 191 64t66 189t-108 223t-312 150z" />
    <glyph glyph-name="Icircumflex" unicode="&#xce;" horiz-adv-x="1363" 
d="M1015 613h-266v-334q-97 -33 -212 -33q-167 0 -282 92.5t-227 316.5l146 69q124 -258 240 -306q54 -22 100 -22t70 4v359h431v369h-1030v146h1393v-146h-198v-1128h-165v613z" />
    <glyph glyph-name="Idieresis" unicode="&#xcf;" horiz-adv-x="64" 
d="M-202 -54h-126v-218h-244v-182q0 -74 -52 -74q-36 0 -74 32q-70 52 -64 58q-2 2 -2 12t30 86t32 98q5 46 5 85q0 59 -11 103h-136q14 -34 14 -75q0 -63 -5 -98t-34 -115t-29 -98t2 -20q0 -36 56 -85t104 -71q120 -52 168 -52q90 0 110 122q10 70 10 152h112v-328h134v668
z" />
    <glyph glyph-name="Uacute" unicode="&#xda;" horiz-adv-x="830" 
d="M311 167.5q38 -37.5 103.5 -37.5t104 38t38.5 99t-38.5 99t-103.5 38t-103.5 -37.5t-38.5 -99.5t38 -99.5zM205 460q79 74 210.5 74t210 -72.5t78.5 -195t-77.5 -194.5t-210.5 -72t-211.5 72t-78.5 193t79 195zM311 907.5q38 -37.5 103.5 -37.5t104 38t38.5 99t-38.5 99
t-103.5 38t-103.5 -37.5t-38.5 -99.5t38 -99.5zM205 1200q79 74 210.5 74t210 -72.5t78.5 -195t-77.5 -194.5t-210.5 -72t-211.5 72t-78.5 193t79 195z" />
    <glyph glyph-name="Oslash" unicode="&#xd8;" horiz-adv-x="386" 
d="M426 1198v-160h-450v160h450z" />
    <glyph glyph-name="circumflex" unicode="&#x2c6;" 
d="M-266 1836zM-183 1274zM-266 1710q49 0 81 -32.5q32 -33.5 32 -85.5t-31 -84q-32 -32 -82 -32t-81.5 32.5t-31.5 84.5t32 84.5t81 32.5z" />
    <glyph glyph-name="tilde" unicode="&#x2dc;" horiz-adv-x="64" 
d="M-384 -54h-142v-144q-102 -16 -171 -97q-67 -79 -67 -162q0 -220 224 -293v132q-90 32 -90 158q0 64 52 102t136 38t125 -52t41 -88q0 -122 -96 -158v-132q222 74 222 293q0 82 -66 160q-68 81 -168 99v144z" />
    <glyph glyph-name="dagger" unicode="&#x2020;" horiz-adv-x="64" 
d="M-206 -550q0 16 -6 22l-4 1q-3 0 -54 -46q-52 -47 -92 -51q-16 -2 -31 -2q-61 0 -115 26q-85 46 -158 110q84 132 200 166q128 34 209 34q28 0 51 -4v238h-130v-112q-138 -17 -226 -54.5t-165 -140.5t-81 -147q26 -80 160 -155t194 -75t102 20q56 20 102 78q44 50 44 92z
" />
    <glyph glyph-name="quotesinglbase" unicode="&#x201a;" horiz-adv-x="2656" 
d="M1322 1028q150 321 150 497t-139.5 176t-139.5 -184t129 -489zM1322 12q150 -321 150 -496.5t-139.5 -175.5t-139.5 184t129 488zM1836 527q321 -151 496.5 -151t175.5 139.5t-184 139.5t-488 -128zM820 527q-321 -151 -496.5 -151t-175.5 139.5t184 139.5t488 -128z
M293 35l256 -48q-346 -181 -482 -764q130 59 272 124.5t253.5 145.5t182.5 193q39 -57 45 -210q194 32 299 201q73 121 132.5 407.5t76.5 338.5q17 -52 76.5 -338.5t132.5 -407.5q105 -169 299 -201q7 153 45 210q71 -113 182.5 -193t253.5 -145.5t272 -124.5
q-136 583 -482 764l256 48q-64 200 -238 299q-121 69 -387 117.5t-336 71.5q68 23 334.5 72.5t388.5 119.5q174 100 238 300l-256 48q346 181 482 764q-130 -59 -272 -124.5t-253.5 -145.5t-182.5 -193q-39 57 -45 210q-194 -32 -299 -201q-73 -121 -132.5 -407.5
t-76.5 -338.5q-17 52 -76.5 338.5t-132.5 407.5q-105 169 -299 201q-7 -153 -45 -210q-71 113 -182.5 193t-253.5 145.5t-272 124.5q136 -583 482 -764l-256 -48q64 -200 238 -299q121 -69 387 -117.5t336 -71.5q-68 -23 -334.5 -72.5t-388.5 -119.5q-174 -100 -238 -300z
" />
    <glyph glyph-name="perthousand" unicode="&#x2030;" horiz-adv-x="2656" 
d="M2105 350l-90 8q-53 -19 -56 -20q-31 -16 -35 -44q83 -35 93 -35t28.5 1t40 23t21.5 40.5t-2 26.5zM2105 247q-93 -39 -124 -121q7 -18 36.5 -13.5t18.5 4.5q30 9 65.5 37.5t35.5 53.5t-32 39zM2114 563v-94q2 -57 38 -78q35 10 35 47.5t-19.5 87.5t-41.5 50
q-9 0 -12 -13zM2190 197q-75 -46 -75 -153q0 -14 1 -27q28 0 63.5 52t35.5 84t-25 44zM2225 232q68 0 74 76q-3 61 -75 61q-11 0 -22 -2q-35 -15 -50 -76q25 -59 73 -59zM2311 197q-17 12 -30 12q-26 0 -26 -54q0 -78 75 -124q21 39 21 88.5t-40 77.5zM2353 571
q-43 1 -79 -49q-31 -42 -31 -81q0 -6 1 -12q3 -23 55 -23q54 50 54 148v17zM2504 426l-80 3q-30 -11 -59 -23q-35 -18 -35 -49q0 -10 2 -19q11 -16 42 -15.5t50 0.5q80 31 80 103zM2330 251q-4 -71 140 -71q50 0 73 14zM1930 -435q98 -72 120 -91q65 -56 76 -107
q-81 41 -219 156q30 -82 95 -154.5t130 -72.5q30 0 56 17q9 22 9 45q-1 86 -91 150q-82 58 -159 58q-9 0 -17 -1zM909 1651q-71 -29 -71 -81q0 -15 9 -30q27 6 89.5 35.5t102.5 29.5q73 0 172 -72q-96 134 -226 134q-38 0 -76 -16zM1255 1434q-96 124 -202 124
q-61 0 -110 -43.5t-49 -104.5q0 -14 3 -27q85 96 195 96q75 0 163 -45zM1521 1557l72 -62q0 42 -40 94t-80 52q-17 0 -29 -10q62 -174 158 -210q3 23 -38.5 69t-42.5 67zM1649 1508l-10 92q0 33 18 58q15 -20 15 -56v-15q-1 -14 -2 -26q0 -27 6 -40q39 31 39 86.5t-20 104.5
t-57 52q-27 -70 -27 -147.5t35 -136.5q3 13 3 28zM1740 1259q8 -21 45 -75.5t37 -75t-1 -29.5q-21 12 -55.5 80.5t-56.5 75.5q0 -144 153 -221q8 26 8 73.5t-29.5 110.5t-83.5 63q-8 0 -17 -2zM1974 1738q-113 -53 -197 -138t-84 -190q6 0 65.5 83t97.5 97
q-14 -34 -56.5 -89t-55.5 -82q172 91 230 319zM1759 1318q104 -99 225 -99q38 0 73 11q-38 92 -185 92q-19 0 -56.5 -2t-56.5 -2zM2107 1462l-168 -3q-136 -11 -155 -60q111 28 138 28t27 -4q0 -13 -145 -71q13 -1 27 -1q64 0 154 22q110 27 122 89zM2387 96l7 -78
q0 -36 -26 -58h-3q-46 0 -70 28q-25 29 -63 76q-13 -9 -60 -69t-90 -60q-8 0 -16 2q-3 11 -3 30q0 15 2 35q4 44 4 58.5t-5 27.5q-90 -36 -132 -36q-3 13 -3 35t34.5 74.5t41.5 66.5q-58 17 -173 63q56 66 225 109q-78 47 -244.5 113t-199.5 82q8 -40 56.5 -131t48.5 -150
t-69 -124q-128 65 -128 245q0 49 8.5 115t8.5 72q-107 29 -594 122q-32 -13 -82 -37h6q94 1 158 -31q66 -32 177 -114q-31 -49 -106 -49t-173.5 44t-159.5 89q-211 -119 -313.5 -171t-229.5 -98q55 -8 168 -39.5t165 -38.5q36 16 71 31q44 25 44 63q0 10 -2 22q21 73 87 73
q37 0 64.5 -29.5t27.5 -66.5q0 -78 -87 -78l-62 2q-62 0 -87 -42q402 -73 927 -443q73 29 141.5 55.5t134.5 26.5q131 0 247 -121q-102 -64 -217 -64t-190 31q36 -23 127 -93q88 -69 102 -68h1q34 12 71 12q102 0 199.5 -78t97.5 -177q0 -48 -29 -82t-77 -34
q-98 0 -191.5 110.5t-97.5 211.5l-248 184q50 -109 50 -207q0 -158 -112 -229q-75 62 -75 200q0 70 18 165l23 118q-243 153 -359 216q-237 128 -445 189q98 -65 218.5 -256t120.5 -343q0 -15 -1 -30q246 -138 246 -288q0 -35 -16 -69q-124 21 -182 79q-36 36 -52.5 97.5
t-31.5 67.5q-46 -120 -156 -183t-232 -63t-198 57t-88 163q-4 40 -4 86q0 176 42 176q3 0 6 -1q19 -5 19 -31t-6.5 -68.5t-7.5 -61.5v-22q0 -126 43 -170q72 -73 179 -73q15 0 41 4q264 32 324 229q-63 -85 -175.5 -85t-150.5 73q65 128 180 128q52 0 175 -36
q-30 239 -182 435q-104 134 -221 206q-2 -9 -2 -23.5t13.5 -55.5t15.5 -51q78 -35 78 -102t-75 -76q-8 -1 -16 -1q-32 0 -60 19q-34 24 -34 72.5t66 92.5q-15 62 -37 142q-309 74 -401 100q97 -65 130 -114.5t33 -154.5q0 -25 -1 -79q-218 13 -244 330l-44 -11v86l44 22
q5 15 5 38t-16 81t-16 87q0 109 157 189q24 -118 24 -225t-52 -156q11 2 64 24q54 90 104.5 226t69.5 231l-178 59q-141 65 -141 182q0 21 4 44q66 7 102 7q78 0 120 -45l116 -163q5 105 5 215t-11 207q-105 15 -196 87.5t-120 171.5q36 17 93 17t130 -40t119 -91
q22 138 39 173q34 74 135 112q44 -47 44 -120t-58 -159.5t-127 -144.5v-359q62 156 260 203q36 -32 36 -71q0 -80 -134 -180q-95 -71 -187 -111q-37 -177 -159 -431q144 78 436 228q-31 97 -31 174q0 131 93 217q85 -70 85 -158.5t-49 -189.5q40 23 138 76q332 181 341 374
q1 13 0 24q0 171 -110 204q-52 15 -101.5 15t-96 -27.5t-46.5 -81.5v-26q0 -18 39 -45q8 -2 16 -2l65 15q14 0 17.5 -17.5t-22.5 -27t-45 -9.5q-75 0 -120 82q-31 57 -43 89q-9 25 -9 72q0 12 1 26q-55 37 -55 98q0 34 18 59q49 74 161 74q206 0 322 -258q50 -112 50 -225.5
t-62 -190.5l16 -1q115 104 288 265q-6 57 -56 107q-84 85 -92 96q-47 69 -47 173q9 2 25 2t58.5 -16.5t63 -16.5t37.5 10q0 80 47 168q43 -17 82 -91t63 -91q62 74 240 151q1 -8 1 -17q0 -100 -92 -273q19 -2 51 -2h49q114 0 168 -25q-12 -37 -88 -78t-76 -70
q5 -21 48.5 -56.5t51.5 -66.5q-66 -22 -120.5 -22t-87.5 5q-7 -31 -11 -108t-25 -111q-108 36 -160 115q-27 40 -47 112.5t-47 72.5q-291 -290 -614 -496q141 -15 546 -113q48 83 135.5 141.5t169 58.5t140.5 -42q-68 -171 -373 -192q166 -58 449 -189q-16 35 -16 94t33 130
q37 -6 76 -63.5t58 -71.5q35 76 154 133q31 -21 31 -55.5t-11 -76.5l-15 -60q77 10 211 29v-6q0 -41 -35 -86q-11 -14 -72 -85q12 -28 69 -73t71 -68q-16 -26 -126 -39t-118 -15q-4 -14 -4 -32z" />
    <glyph glyph-name="guilsinglleft" unicode="&#x2039;" horiz-adv-x="1160" 
d="M646.5 311q35.5 -35 35.5 -84t-39 -78t-78.5 -29t-76 28t-36.5 79t33.5 85t79.5 34t81.5 -35zM646.5 1077q35.5 -35 35.5 -85t-38.5 -79t-78.5 -29t-76.5 29t-36.5 80t33.5 85t79.5 34t81.5 -35zM46 536v162h1038v-162h-1038z" />
    <glyph glyph-name="uni2219" unicode="&#x2219;" horiz-adv-x="700" 
d="M330 712q53 0 91.5 -39t38.5 -95t-43 -90t-87 -34t-86 33t-42 91t37.5 96t90.5 38z" />
  </font>
</defs>
</svg>
