<?xml version="1.0" standalone="no"?>
<!DOCTYPE svg PUBLIC "-//W3C//DTD SVG 1.1//EN" "http://www.w3.org/Graphics/SVG/1.1/DTD/svg11.dtd" >
<svg xmlns="http://www.w3.org/2000/svg" xmlns:xlink="http://www.w3.org/1999/xlink" version="1.1">
<metadata>
Created by FontForge 20161004 at Wed Jun 14 15:56:53 2017
 By Sarabveer
Copyright (C) 2015-2017 Sarabveer Singh (https://sarabveer.me); Copyright (C) 2001 Kulbir S. Thind (gurbanifiles.org)
</metadata>
<defs>
<font id="GurbaniAkharTrue-Regular" horiz-adv-x="20" >
  <font-face 
    font-family="GurbaniAkharTrue"
    font-weight="400"
    font-stretch="normal"
    units-per-em="2000"
    panose-1="0 0 4 0 0 0 0 0 0 0"
    ascent="1600"
    descent="-400"
    x-height="1198"
    cap-height="1744"
    bbox="-1100 -796 2648 1856"
    underline-thickness="100"
    underline-position="-650"
    unicode-range="U+0020-2039"
  />
<missing-glyph horiz-adv-x="1000" 
d="M250 125h500v950h-500v-950zM125 0v1200h750v-1200h-750z" />
    <glyph glyph-name=".notdef" horiz-adv-x="1000" 
d="M250 125h500v950h-500v-950zM125 0v1200h750v-1200h-750z" />
    <glyph glyph-name=".null" horiz-adv-x="0" 
 />
    <glyph glyph-name="controlCR" horiz-adv-x="700" 
 />
    <glyph glyph-name="space" unicode=" " horiz-adv-x="700" 
 />
    <glyph glyph-name="exclam" unicode="!" horiz-adv-x="538" 
d="M144 108q0 134 124 134q61 0 92.5 -35.5t31.5 -98t-33 -99.5t-92 -37t-91 36t-32 100zM326 402h-114l-50 1026h214z" />
    <glyph glyph-name="quotedbl" unicode="&#x22;" horiz-adv-x="816" 
d="M686 1428l-40 -516h-110l-40 516h190zM320 1428l-40 -516h-110l-40 516h190z" />
    <glyph glyph-name="numbersign" unicode="#" horiz-adv-x="1291" 
d="M470 552h286l62 320h-286zM960 872l-62 -320h274v-134h-300l-82 -418h-142l82 418h-286l-78 -418h-140l76 418h-252v134h278l64 320h-268v132h292l80 424h144l-80 -424h288l80 424h138l-80 -424h254v-132h-280z" />
    <glyph glyph-name="dollar" unicode="$" horiz-adv-x="1143" 
d="M506 1198q-188 -34 -188 -172q0 -68 42 -111.5t146 -80.5v364zM838 426q0 70 -46 111.5t-158 80.5v-366q204 31 204 174zM506 98q-247 4 -382 66v164q73 -34 179 -59t203 -27v418q-200 63 -283 149t-83 217t98.5 214t267.5 102v176h128v-174q186 -5 352 -74l-54 -138
q-151 60 -298 70v-412q156 -54 232 -100q150 -91 150 -252q0 -134 -99.5 -221.5t-282.5 -110.5v-222h-128v214z" />
    <glyph glyph-name="percent" unicode="%" horiz-adv-x="1662" 
d="M1304 1428l-792 -1428h-154l792 1428h154zM972 430q0 446 292 446q144 0 222 -115.5t78 -334t-77 -332.5t-219.5 -114t-219 117t-76.5 333zM1264 106q154 0 154 322t-154 322q-76 0 -111 -79.5t-35 -241.5t35 -242.5t111 -80.5zM98 1002q0 446 292 446q144 0 222 -115.5
t78 -334.5t-76.5 -332.5t-219.5 -113.5t-219.5 116.5t-76.5 333.5zM390 1324q-146 0 -146 -322q0 -161 34.5 -242.5t111.5 -81.5q154 0 154 323t-154 323z" />
    <glyph glyph-name="ampersand" unicode="&#x26;" horiz-adv-x="1140" 
d="M420 198q154 -83 254 -84h6q98 0 150 35q54 36 54 94q0 11 -2 23q-17 100 -162 100q-30 0 -56 -6q-160 -37 -244 -162zM980 1076v-338h-570q-132 0 -180 -72q-36 -54 -36 -122t52 -150q26 -32 88 -118q63 79 126 126q110 82 267 82q110 0 193 -65.5t83 -180.5t-113 -184
q-88 -54 -204 -54q-40 0 -78 8q-181 39 -300 136q-232 190 -232 412q0 89 43 157t84 95.5t131 51.5h528v216h-872v122h1186v-122h-196zM138 146q28 -30 28 -69.5t-30.5 -68t-70 -28.5t-68.5 30t-29 70t31 67.5t71 28.5h3q38 0 65 -30z" />
    <glyph glyph-name="quotesingle" unicode="'" horiz-adv-x="450" 
d="M320 1428l-40 -516h-110l-40 516h190z" />
    <glyph glyph-name="parenleft" unicode="(" horiz-adv-x="599" 
d="M155 71.5q-75 221.5 -75 478.5t75.5 482.5t218.5 395.5h166q-141 -188 -211.5 -414t-70.5 -462t72 -460t208 -408h-164q-144 166 -219 387.5z" />
    <glyph glyph-name="parenright" unicode=")" horiz-adv-x="599" 
d="M520 548q0 -257 -76 -478.5t-218 -385.5h-164q136 184 208 407.5q72 224.5 72 460.5t-71 461.5t-211 414.5h166q144 -171 219 -397t75 -483z" />
    <glyph glyph-name="asterisk" unicode="*" horiz-adv-x="1101" 
d="M644 1520l-40 -384l384 108l28 -184l-368 -30l238 -316l-172 -94l-170 350l-154 -350l-178 94l234 316l-364 30l28 184l380 -108l-42 384h196z" />
    <glyph glyph-name="plus" unicode="+" horiz-adv-x="1143" 
d="M642 776h398v-142h-398v-412h-144v412h-398v142h398v414h144v-414z" />
    <glyph glyph-name="comma" unicode="," horiz-adv-x="536" 
d="M370 232l14 -22q-54 -209 -172 -468h-130q63 244 100 490h188z" />
    <glyph glyph-name="hyphen" unicode="-" horiz-adv-x="643" 
d="M80 458v156h484v-156h-484z" />
    <glyph glyph-name="hyphen" unicode="&#x2010;" horiz-adv-x="643" 
d="M80 458v156h484v-156h-484z" />
    <glyph glyph-name="period" unicode="." horiz-adv-x="536" 
d="M144 108q0 64 31.5 99q30.5 35 90.5 35t93 -34.5t33 -98.5t-33.5 -100.5q-34.5 -36.5 -92.5 -36.5t-90 36t-32 100z" />
    <glyph glyph-name="slash" unicode="/" horiz-adv-x="744" 
d="M724 1428l-532 -1428h-172l532 1428h172z" />
    <glyph glyph-name="zero" unicode="0" horiz-adv-x="1280" 
d="M193 233q-159 159 -159 387.5t159 388t388 159.5t388 -159t159 -388t-159.5 -388t-388 -159t-387.5 159zM278 923q-124 -125 -124 -302.5t124.5 -302t302 -124.5t302.5 124t125 302.5t-124.5 303t-303 124.5t-302.5 -125z" />
    <glyph glyph-name="one" unicode="1" horiz-adv-x="1040" 
d="M472 1156q-115 0 -206 -52q-88 -50 -88 -145v-6q3 -100 86.5 -151.5t176 -51.5t187.5 42q124 55 124 149v7q-10 208 -280 208zM874 913v4q-2 0 -8 -139q-8 -161 -15 -250.5t-7 -141.5q0 -188 66 -334q82 -134 82 -145t-25.5 -11t-60.5 26q-140 105 -174 408q-4 36 -4 135
t26 285q-101 -119 -323 -119q-129 0 -248 83t-125 224v14q0 132 106 230q104 95 297 95q15 0 31 -1q382 -15 382 -363z" />
    <glyph glyph-name="two" unicode="2" horiz-adv-x="1196" 
d="M100 1070q-54 0 -54 54q0 64 176 102q121 26 280 26q536 0 536 -451v-5q-3 -414 -500 -542q298 -145 298 -210q0 -38 -44 -38q-21 0 -80.5 29t-140.5 71t-165 72q-71 6 -250 32q-112 20 -116 88q-1 8 -1 15q0 105 109 105q36 0 124 -34q84 -32 167 -31q150 0 297 103
q182 127 182 333v9q-6 318 -398 334q-22 1 -44 1q-123 0 -233 -29q-130 -34 -143 -34z" />
    <glyph glyph-name="three" unicode="3" horiz-adv-x="1212" 
d="M936 754q-34 -24 -33 -35.5t40 -42.5q39 -32 65 -72q23 -36 22 -92v-14q-9 -220 -352 -322q25 -16 79 -29t93 -29q110 -45 110 -76q0 -40 -46 -40q-88 0 -257 72.5t-237 87.5q-7 3 -246 52q-134 27 -134 114v10q6 78 112 78q83 0 154 -54q120 -91 227 -96h14
q101 0 225 68q132 72 132.5 164t-58.5 136t-150 44q-33 0 -175 -18t-209 -18q-176 0 -176 77q0 50 87 75q59 16 119 16t164 -15t156 -15q248 0 260 170v8q0 89 -156 136q-102 30 -246 36h-15q-71 0 -218 -24q-163 -26 -179 -26q-68 0 -68 54q0 116 492 116q199 0 344 -72
q166 -82 166 -230q0 -120 -106 -194z" />
    <glyph glyph-name="four" unicode="4" horiz-adv-x="1112" 
d="M496 496q-139 0 -200 -28q-96 -44 -96 -168q0 -180 296 -180t296 180q0 124 -96 168q-61 28 -200 28zM496 616q173 0 256.5 80.5t83.5 187.5q0 170 -198 226v120q318 -62 318 -338q0 -92 -46 -166q-22 -36 -73 -89q-48 -50 -48 -70q-1 -17 39 -57q36 -36 60 -82t24 -128
q0 -155 -137 -236q-112 -66 -279 -66t-279 66q-137 81 -137 236q0 83 23.5 128q24.5 46 60.5 82q40 40 39 57q0 20 -48 70q-51 53 -73 89q-46 74 -46 166q0 276 318 338v-120q-198 -56 -198 -226q0 -107 83.5 -187.5t256.5 -80.5z" />
    <glyph glyph-name="five" unicode="5" horiz-adv-x="1140" 
d="M942 1198v-1198h-120v328q-46 -40 -137.5 -83.5t-172.5 -44.5h-11q-189 0 -327 102q-94 69 -112 124q-2 37 65.5 210.5t72 204t4.5 51.5q0 77 -37 130.5t-111 53.5h-44v122h114q88 0 144 -99.5t56 -194.5q0 -27 -4 -52q-38 -236 -142 -398q154 -133 301 -136q4 0 8 -1
q144 0 333 133v748h120z" />
    <glyph glyph-name="six" unicode="6" horiz-adv-x="1008" 
d="M618 482l-220 18q-218 0 -244 -186q-2 -15 -2 -34q0 -160 210 -160h376q89 0 92 -64v-5q0 -36 -26 -47q-13 -4 -66 -4h-436q-122 0 -195 90.5t-73 215.5q0 82 54 164t54 86l-55 110q-57 115 -57 194q0 137 122 210q103 62 248 62q66 0 166 -20q-99 124 -102 188
q-1 11 -1 22q0 225 261 228q40 0 112 -25t72 -57q0 -18 -26 -18l-154 20q-59 0 -102.5 -37t-43.5 -106.5t80 -168.5q19 -24 88.5 -63.5t69.5 -72.5q0 -10 -6 -24q-19 -44 -68 -44q-28 0 -92 20q-137 44 -235.5 44t-150.5 -24q-116 -54 -116 -153v-7q4 -104 71.5 -163
t174.5 -59q38 0 111 16t116.5 16q42.5 0 106.5 -18q66 -19 66 -59q0 -85 -180 -85z" />
    <glyph glyph-name="seven" unicode="7" horiz-adv-x="1238" 
d="M850 352q-161 -120 -425 -236t-363 -116q-36 0 -34 20q2 24 88 61.5t194 83.5t301 163t269 208q41 50 68.5 133t27.5 151q0 146 -124 238q-89 66 -228 66h-16q-63 -2 -139 -38.5t-93.5 -84t-29.5 -85.5q-22 -48 -60 -52q-6 -1 -11 -1q-71 0 -71 95q0 126 160 213
q130 71 257 71h17q71 -2 163 -30t139 -68q150 -129 150 -308q0 -305 -240 -484z" />
    <glyph glyph-name="eight" unicode="8" horiz-adv-x="1286" 
d="M1122 904h-814q-2 -32 -2 -74q0 -238 70 -386q139 -293 546 -324q21 -2 60 2t54 4q84 0 84 -63t-213.5 -63t-390.5 108q-332 203 -332 698q0 62 4 98h-120q-42 0 -42 42t30.5 110.5t101 106t110.5 37.5t40 -44v-132h814v-120z" />
    <glyph glyph-name="nine" unicode="9" horiz-adv-x="1272" 
d="M1126 1366l-154 20q-58 0 -102 -36.5t-44 -104.5t82 -169q23 -28 86 -57q66 -30 66 -79q0 -46 -138 -46q-31 4 -106 4h-508q-2 -36 -2 -84q0 -227 70 -370q144 -295 546 -324q21 -2 60 2t54 4q84 0 84 -63t-214.5 -63t-390.5 107t-265 313q-66 152 -66 372q0 60 4 106
h-124q-44 0 -44 50q0 37 21 89.5t45 75.5t84 54t99 31t39 -42v-138h502q-45 56 -70.5 98.5t-29.5 101.5q-1 12 -1 24q0 104 64 162q71 64 195 64h4q52 0 115 -28q66 -28 66 -55q0 -19 -27 -19z" />
    <glyph glyph-name="colon" unicode=":" horiz-adv-x="536" 
d="M266 1100q126 0 126 -136q0 -62 -33.5 -99t-92 -37t-90.5 36.5t-32 99.5q0 136 122 136zM144 108q0 64 31.5 99t91 35t92.5 -34.5t33 -98.5t-33.5 -100.5t-92 -36.5t-90.5 36t-32 100z" />
    <glyph glyph-name="semicolon" unicode=";" horiz-adv-x="536" 
d="M140 964q0 136 122 136q126 0 126 -136q0 -64 -33.5 -100t-92 -36t-90.5 36.5t-32 99.5zM62 -258q71 280 102 490h188l14 -22q-51 -194 -172 -468h-132z" />
    <glyph glyph-name="less" unicode="&#x3c;" horiz-adv-x="2168" 
d="M1521 575q-11 0 -52 -5.5t-361 -5.5q35 -132 90 -224q132 -220 350 -220h12q100 2 168 54q63 47 63 128q-1 8 -1 16q-6 93 -99 175t-170 82zM1878 1076h-804q0 -240 16 -392h216q187 2 248 24q130 46 197 126t127 242zM144 946q3 -95 63.5 -146.5t148.5 -51.5t172 42
q114 57 114 163q0 197 -250 197q-248 0 -248 -196v-8zM769 917q0 -79 -11 -271q-22 -251 -22 -260q0 -188 60 -334l72 -132q4 -7 4 -12q0 -12 -25.5 -12t-60.5 26q-144 107 -178 408q-4 35 -4 113.5t28 278.5q-134 -91 -275.5 -91t-238 85.5t-96.5 221.5q0 332 364 332h26
q213 -6 296 -114q61 -79 61 -239zM2152 1264q-19 19 -158 124q-193 138 -362 188q-74 22 -134 22q-178 0 -304 -150q-99 -117 -120 -250h1000v-122h-76q-54 -166 -121 -264t-203 -172q238 -129 238 -326q0 -129 -85 -222q-84 -92 -259 -92q-289 0 -447 226
q-129 186 -157 496q-10 116 -10 293v61h-88v122h88q12 219 169 369.5t375 150.5q85 0 168 -24q146 -42 348 -172q5 -3 67.5 -50.5t72.5 -53.5z" />
    <glyph glyph-name="equal" unicode="=" horiz-adv-x="1143" 
d="M112 434v142h916v-142h-916zM112 832v142h916v-142h-916z" />
    <glyph glyph-name="greater" unicode="&#x3e;" horiz-adv-x="1182" 
d="M-16 1424q138 -92 177 -92h3q83 8 274 170q78 68 236 200q191 152 398 152t363.5 -114.5t220.5 -301.5q32 -94 32 -124q0 -54 -42 -54q-35 0 -66 68q-16 31 -52 108q-61 136 -180.5 217t-279.5 81t-354 -164q-64 -49 -179 -143.5t-217 -174.5q-85 -56 -161 -56t-161 68
q-3 1 -10 8q-2 77 -2 152z" />
    <glyph glyph-name="question" unicode="?" horiz-adv-x="868" 
d="M234 108q0 134 124 134q57 0 89.5 -33.5t32.5 -99.5t-33 -101.5t-88.5 -35.5t-90 32t-34.5 104zM648 1094q0 200 -257 200q-132 0 -305 -84l-62 140q185 99 381 99q1 -1 2 -1q197 0 303 -92t106 -258q0 -135 -78 -234q-40 -50 -147.5 -140.5t-139 -145t-31.5 -142.5v-34
h-140v54q0 116 37 189t137 157t134 123q60 70 60 169z" />
    <glyph glyph-name="at" unicode="@" 
d="M-562 -50q63 -90 229 -208q19 -14 123 -46q84 -40 84 -100q0 -53 -24 -53q-3 0 -6 1q-175 40 -356 252q-70 82 -100 154h50z" />
    <glyph glyph-name="A" unicode="A" horiz-adv-x="1430" 
d="M184 748q0 328 -132 328h-66v122h134q48 0 94 -68t66 -145t26 -217q62 80 179 208q130 130 189 130q10 0 16 -4q86 -37 138 -200q38 -120 48 -252q31 26 118 86q24 14 154 66v396h372v-122h-250v-1076h-122v676q-98 -41 -136.5 -62.5t-133.5 -117.5q-39 -40 -54.5 -101
t-37.5 -149q-34 -130 -132 -130q-24 0 -52 8q-64 18 -64 68t36 118q14 26 116 148q64 76 64 176q0 88 -29 184t-37 118t-20 34q-58 -36 -115 -101.5t-117 -137t-99.5 -131t-55.5 -150.5t-50.5 -130.5t-85.5 -39.5t-82 26.5t-31 71.5t29.5 91.5t92.5 142.5q30 47 30 136z" />
    <glyph glyph-name="B" unicode="B" horiz-adv-x="1108" 
d="M194 596q15 -90 136 -90q32 0 76 6q102 14 236 140q-118 112 -250 112q-200 0 -200 -138q0 -18 2 -30zM724 566q-87 -81 -148.5 -115.5t-137.5 -50.5t-106 -16q-97 0 -173 58q-87 66 -87 193.5t105 193.5q87 55 229 55q176 0 310 -138q140 150 140 330h-874v122h1204
v-122h-210v-16q0 -82 -36 -186q-40 -116 -140 -216q73 -87 84 -104q52 -80 52 -180q0 -190 -132 -286q-122 -88 -300 -89q-15 0 -30 1q-122 5 -255 65.5t-133 99.5q0 29 30.5 29t101 -24t134 -37t185 -13t196.5 74t75 184t-84 188z" />
    <glyph glyph-name="C" unicode="C" horiz-adv-x="1138" 
d="M486 334q-171 -2 -224 -14q-90 -21 -90 -89t90 -91q63 -16 224 -18v212zM606 334v-212q162 2 226 18q92 23 92 91t-92 89q-53 12 -226 14zM978 1076v-378h-690q-84 0 -84 -96q0 -24 30 -132q18 -29 68 -29q11 0 24 1q56 14 226 14q310 0 414 -60q78 -45 78 -161v-6
q-2 -121 -78 -167q-102 -62 -425 -62t-419 58q-69 42 -72 174v5q0 60 21 88q22 29 52.5 48.5t26.5 34.5q-63 124 -63 214q0 92 66 147q58 49 125 49h580v258h-868v122h1236v-122h-248z" />
    <glyph glyph-name="D" unicode="D" horiz-adv-x="1106" 
d="M290 1076q17 -103 17 -190q1 -48 -5 -90q-14 -120 -82 -330q118 -152 284 -152q130 0 322 112v650h-536zM946 1076v-1076h-120v306q-168 -114 -348 -114t-392 242q60 151 94 362q8 50 8 105q0 82 -18 175h-194v122h1222v-122h-252z" />
    <glyph glyph-name="E" unicode="E" horiz-adv-x="1274" 
d="M681 575q-11 0 -52 -5.5t-381 -5.5q35 -132 90 -224q132 -220 350 -220h12q100 2 168 54q63 47 63 129q-1 9 -1 17q-6 94 -89.5 174.5t-159.5 80.5zM652 1772l74 2h98q376 0 376 -90q0 -37 -212 -38q-94 2 -282 4q-280 -1 -398 -168q-62 -88 -94 -284h1104v-122h-160
q-51 -164 -112 -254q-77 -115 -212 -182q218 -129 218 -326q0 -129 -85 -222q-84 -92 -259 -92q-289 0 -447 226q-129 186 -157 496q-10 116 -10 293v61h-108v122h108q14 252 160.5 413t397.5 161zM1038 1076h-824q0 -240 16 -392h226q197 2 258 24q130 46 197 126t127 242z
" />
    <glyph glyph-name="F" unicode="F" horiz-adv-x="1140" 
d="M904 212q0 118 -140 118q-31 0 -54 -6q-68 -18 -170 -150q80 -48 118 -60q28 -9 81 -9q17 0 35 1q130 6 130 106zM980 1076v-440h-668q0 -156 68 -276q33 -58 88 -126q128 204 310 204q140 0 204 -93q40 -58 40 -137q0 -10 -1 -22q-6 -92 -80.5 -145t-184.5 -53
q-272 0 -464 274q-96 137 -100 374h-108q-58 0 -58 60q0 84 58 134q85 74 186 74q42 0 42 -28v-120h548v320h-866v122h1184v-122h-198z" />
    <glyph glyph-name="G" unicode="G" horiz-adv-x="1304" 
d="M1144 1076v-1076h-120v264q-64 -58 -176 -62h-7q-109 0 -225 122q-76 -68 -127 -99t-115 -31q-115 0 -216.5 97.5t-123.5 154.5q12 21 78 203.5t66 272.5q0 140 -116 154h-74v122h136q36 0 80 -39q94 -84 94 -217v-18q-4 -97 -134 -472q138 -138 217 -138t133 77t54 195
t-19 194t-19 121.5t34 132t82 86.5q37 0 63.5 -85.5t26.5 -133.5t-10 -79q-50 -155 -50 -266q0 -234 182 -234q71 0 110 21t56 83v772h326v-122h-206z" />
    <glyph glyph-name="H" unicode="H" 
d="M-198 -260q0 -142 -67 -218t-180 -76t-214 114t-101 202q0 142 152 142q70 0 70 -24q0 -22 -82 -44q-50 -13 -50 -60q0 -68 66 -136q91 -94 173 -94h7q62 3 93 70q25 52 25 122v214h108v-212z" />
    <glyph glyph-name="I" unicode="I" horiz-adv-x="572" 
d="M154 1076h-172v122h172v30q0 175 -22 248q-47 154 -218 154t-198 -158q-4 -21 -12 -92h-118v21q0 83 28 161q32 88 110.5 135t165.5 47q231 0 314 -134q56 -91 68 -250q2 -27 2 -162h328v-122h-328v-1076h-120v1076z" />
    <glyph glyph-name="J" unicode="J" horiz-adv-x="1140" 
d="M222 1076q49 -97 108 -148q133 -114 250.5 -114t205.5 112q56 71 82 150h-646zM988 1076q-31 -120 -82 -198.5t-154 -129.5q72 -25 132 -82q87 -83 87 -191q0 -10 -1 -21q-23 -298 -382 -298q-34 0 -64 4q4 -9 49 -62.5t45 -77.5t-28.5 -24t-83 39t-72.5 61
q-82 104 -203 104h-13h-6q-66 0 -66 82q0 42 28 77t70 35t72 -38q61 -77 116 -92q16 -4 100 -4h36q117 1 195 49.5t85 146.5q1 7 1 15q0 89 -82 152q-88 68 -166 68q-55 0 -220 -44.5t-169 -44.5q-28 0 -64 26t-36 40q0 30 90 56q13 4 160 40q-133 71 -190 156
q-29 43 -70 156h-116v122h1214v-122h-212z" />
    <glyph glyph-name="K" unicode="K" horiz-adv-x="1100" 
d="M940 1076v-1076h-120v326q-122 -112 -310 -112q-286 0 -430 212l68 182q58 161 58 296q0 72 -20 118q-16 28 -32 54h-166v122h170q108 0 150 -150q16 -57 16 -192h496v342h318v-122h-198zM820 736h-510q-18 -122 -94 -288q120 -114 340 -114q64 0 142 42t122 86v274z" />
    <glyph glyph-name="L" unicode="L" horiz-adv-x="1340" 
d="M706 600h18l230 476h-478zM706 382l-172 318q-121 0 -197.5 -87.5t-76.5 -209.5t85.5 -207.5t206.5 -85.5v-116q-170 0 -289 119t-119 279.5t93 274t241 137.5l-146 272h-348v122h1388v-122h-274l-146 -272q149 -24 240.5 -137t91.5 -274.5t-119.5 -280t-290.5 -118.5
v116q122 0 207 85t85 207.5t-75.5 210t-196.5 87.5l-172 -318h-16zM128 8q-24 -32 -67.5 -32t-71 27t-27.5 67t24 66q24 34 72 34q94 0 94 -92q0 -38 -24 -70z" />
    <glyph glyph-name="M" unicode="M" 
d="M-496 1486q2 -26 30 -86.5t28 -70.5t-12 -10t-56 51.5t-52 87t-8 60.5q0 74 59 148t201 74t201 -74t59 -148q0 -25 -8 -60.5t-52 -87t-56 -51.5t-12 10t28 70.5t30 86.5q1 7 1 13q0 65 -55 107q-60 46 -136 46t-136 -46q-55 -42 -55 -107q0 -6 1 -13z" />
    <glyph glyph-name="N" unicode="N" horiz-adv-x="246" 
d="M290 1076h-314v122h314v-122zM108 1600q52 0 90 -38t38 -90t-38 -90t-90 -38t-90 38t-38 90t38 90t90 38z" />
    <glyph glyph-name="O" unicode="O" 
d="M-288 1336q22 48 38 138q-20 136 -148 140h-5q-53 0 -94 -42q-47 -48 -47 -104q0 -23 18 -74q17 -50 17 -58q1 -6 -15 -6q-12 0 -43.5 27.5t-45 57t-15.5 103.5q-7 50 -63 50h-9q-12 -1 -24 -1q-84 1 -161 37q-115 54 -115 196v10q1 42 16 44q6 0 29 -53t29 -59
q74 -76 208 -76q93 0 186 28q72 21 134 21q18 0 36 -2q76 -8 132 -66t56 -147q0 -88 -56 -140q-29 -28 -41.5 -28t-16.5 4z" />
    <glyph glyph-name="P" unicode="P" horiz-adv-x="1140" 
d="M420 198q154 -83 254 -84h6q98 0 150 35q54 36 54 94q0 11 -2 23q-17 100 -162 100q-30 0 -56 -6q-160 -37 -244 -162zM980 1076v-338h-570q-132 0 -180 -72q-36 -54 -36 -122t52 -150q26 -32 88 -118q63 79 126 126q110 82 267 82q110 0 193 -65.5t83 -180.5t-113 -184
q-88 -54 -204 -54q-40 0 -78 8q-181 39 -300 136q-232 190 -232 412q0 89 43 157t84 95.5t131 51.5h528v216h-868v122h1176v-122h-190z" />
    <glyph glyph-name="Q" unicode="Q" horiz-adv-x="1116" 
d="M504 272q138 0 332 114v250h-562q-22 -88 -54 -212q118 -152 284 -152zM836 756v320h-552q21 -107 21 -201q0 -62 -9 -119h540zM836 0v266q-168 -116 -353 -116t-397 242q50 127 94 404q6 36 6 79q0 85 -22 201h-173v122h1161v-122h-196v-1076h-120z" />
    <glyph glyph-name="R" unicode="R" 
d="M-278 -164q54 -35 135 -136t81 -140q0 -15 -16 -22q-2 -1 -5 -1q-18 0 -61 43q-26 27 -90.5 92t-125.5 80q-66 -86 -136 -86q-45 0 -79.5 35.5t-34.5 80.5q0 124 132 124q62 0 122 -24q12 18 30 70h102q-18 -52 -54 -116z" />
    <glyph glyph-name="S" unicode="S" horiz-adv-x="1140" 
d="M858 1076h-574q68 -220 68 -436h506v436zM980 1076v-1076h-122v518h-506q-20 -83 -70 -298q-37 -162 -118 -162q-26 0 -52 14q-56 31 -56 87.5t36 132.5q78 166 88 190q44 108 48 200q1 15 1 30q0 76 -17 148q-20 86 -50 216h-216v122h1284v-122h-250zM646 128
q1 -5 1 -10q0 -34 -24 -61q-27 -31 -67 -35q-5 -1 -10 -1q-34 1 -62 25q-32 28 -36 67v10q0 33 25 61q29 32 69 36h9q35 0 61 -24q30 -28 34 -68z" />
    <glyph glyph-name="T" unicode="T" horiz-adv-x="1140" 
d="M620 1076v-208q190 -28 312 -154q124 -128 124 -323q0 -193 -142 -293q-143 -102 -352.5 -102t-345.5 95q-154 107 -154 298q0 197 126 325q124 126 312 154v208h-506v122h1177v-122h-551zM822 646q-115 102 -269 102t-262 -100t-109 -254v-1q0 -279 374 -279
q162 0 260 57q122 71 122 221q0 152 -116 254z" />
    <glyph glyph-name="U" unicode="U" 
d="M-266 -444v-120q-176 -70 -335 -74h-16q-153 0 -333 74v122q186 -76 346 -76t338 74zM-266 -164v-120q-176 -70 -335 -74h-16q-153 0 -333 74v122q186 -76 346 -76t338 74z" />
    <glyph glyph-name="V" unicode="V" horiz-adv-x="1156" 
d="M1034 1076q-12 -71 -60.5 -160t-153.5 -172q67 -22 126 -89q54 -62 54 -146v-15q-13 -225 -248 -330q10 -10 62 -60.5t52 -80t-28 -29.5t-113.5 68.5t-102.5 75.5q-106 -8 -144 -8h-12q-149 11 -226 50q82 -120 82 -151t-26 -31q-62 0 -210 234q-28 42 -30 74v8
q0 46 42 46q14 0 32 -4q210 -108 412 -108q142 0 226 58q113 78 113 185q0 163 -247 163q-126 0 -280 -22q-25 -1 -48 -1q-190 0 -190 83q0 85 223 85q22 0 45 -1q60 -2 125.5 -13t92.5 -11q100 0 206 112q67 71 108 190h-928v122h1205v-122h-159z" />
    <glyph glyph-name="W" unicode="W" horiz-adv-x="520" 
d="M234 1600q52 0 90 -38t38 -90t-38 -90t-90 -38t-90 38t-38 90t38 90t90 38zM282 1078v-610h-120v610h-186v120h570v-120h-264z" />
    <glyph glyph-name="X" unicode="X" horiz-adv-x="1244" 
d="M164 414q68 -83 136 -126q124 -78 186 -78q103 0 102 176l-2 266h380v424h-718q22 -120 22 -188t-14 -169q-14 -102 -92 -305zM1084 1076v-1076h-118v532h-258v-196q0 -106 -61 -172t-166 -66t-251 93t-196 189q40 122 98 342q18 106 18 165t-22 189h-140v122h1291v-122
h-195z" />
    <glyph glyph-name="Y" unicode="Y" 
d="M-244 1226l-186 84q-212 96 -294 113q-65 13 -122 13h-30q-70 -4 -102 -5q-122 0 -122 54t120 67q26 3 52 3q204 0 468 -161q45 -29 134 -86q6 13 -61 96.5t-171 167.5q-173 139 -332 139q-10 0 -20 -1q-46 -3 -78 -3t-50 3q-38 6 -38 50q0 51 94 70q29 6 68 6
q265 0 498 -292q82 -103 132 -205q41 -84 42 -106q0 -5 -2 -7z" />
    <glyph glyph-name="Z" unicode="Z" horiz-adv-x="1336" 
d="M528 630q-248 0 -248 -180q0 -63 35 -138.5t101 -133.5t146 -58q106 0 126 108v402h-160zM1176 1076v-1076h-120v1076h-248v-796q0 -280 -246 -280q-140 0 -243 99t-143 247q-14 51 -14 102q0 126 86 213t220 87h220v328h-720v122h1464v-122h-256zM134 10
q-24 -32 -66.5 -32t-71 27t-28.5 67t26 66q24 34 68 34t70 -26t26 -65t-24 -71z" />
    <glyph glyph-name="bracketleft" unicode="[" horiz-adv-x="1200" 
d="M686 -20h-120v1218h120v-1218z" />
    <glyph glyph-name="backslash" unicode="\" horiz-adv-x="1104" 
d="M944 1076v-342h-592q-48 0 -106 -32t-58 -80q0 -46 44 -90t78 -44h626v-120h-468q26 -94 63 -148t113 -88t146 -34t136 18l-22 -78q-110 -44 -190 -44q-24 0 -42 6q-158 37 -232 144q-50 72 -88 182q-6 20 -62 40t-104 36q-118 74 -118 204q0 192 260 246
q-42 30 -120 116q-26 38 -42 108h-182v122h1160v-122h-200zM286 1076q45 -100 127 -162t153 -62h258v224h-538z" />
    <glyph glyph-name="bracketright" unicode="]" horiz-adv-x="1140" 
d="M812 -20h-120v1218h120v-1218zM464 -20h-120v1218h120v-1218z" />
    <glyph glyph-name="asciicircum" unicode="^" horiz-adv-x="1080" 
d="M920 1076v-1076h-118v326q-118 -72 -292 -72h-14q-121 2 -253.5 52.5t-180.5 139.5q3 21 57.5 173.5t60.5 242.5q1 19 1 35q0 67 -18 117q-23 62 -43 62h-138v122h150q56 0 96.5 -45.5t55 -96.5t14.5 -200h504v342h310v-122h-192zM282 736q-5 -29 -46 -139.5t-50 -124.5
q89 -81 298 -94q20 -1 39 -1q146 0 279 69v290h-520zM194 67q-24 -31 -65 -31t-71 20q-30 28 -30 70t24 68q24 34 72 34q94 0 94 -92q0 -38 -24 -69z" />
    <glyph glyph-name="underscore" unicode="_" horiz-adv-x="887" 
d="M892 -308h-896v128h896v-128z" />
    <glyph glyph-name="grave" unicode="`" 
d="M-420.5 1371q-71.5 47 -102 108.5q-30.5 60.5 -31.5 140.5v13q0 67 10 67q7 0 28 -67.5t48 -108.5q66 -100 196 -100t196 100q27 41 48 108.5t28 67.5q10 0 10 -67v-13q-2 -160 -131 -248q-72 -48 -150 -48t-149.5 47z" />
    <glyph glyph-name="a" unicode="a" horiz-adv-x="1262" 
d="M691 575q-11 0 -52 -5.5t-381 -5.5q35 -132 90 -224q132 -220 350 -220h12q100 2 168 54q63 47 63 129q-1 9 -1 17q-6 94 -89.5 174.5t-159.5 80.5zM1048 1076h-824q0 -240 16 -392h226q197 2 258 24q130 46 197 126t127 242zM104 1198q0 251 143 387.5t396 136.5
t388 -136.5t135 -387.5h138v-122h-136q-51 -164 -112 -254q-77 -115 -212 -182q218 -129 218 -326q0 -129 -85 -222q-84 -92 -259 -92q-289 0 -447 226q-129 186 -157 496q-10 116 -10 293v61h-118v122h118zM988 1448q-93 154 -344 154t-354 -154q-66 -99 -66 -250h822
q-10 171 -58 250z" />
    <glyph glyph-name="b" unicode="b" horiz-adv-x="1084" 
d="M802 600h-332q-106 -48 -284 -256q160 -138 306 -138q90 0 193 57t117 95v242zM802 1076h-576q34 -125 91.5 -199t174.5 -157h310v356zM924 1076v-1076h-122v220q-48 -62 -169 -100q-112 -36 -153 -36h-6q-190 16 -314 126q-72 64 -102 142q61 132 234 264l74 56
q-77 62 -116.5 100t-85.5 119.5t-60 184.5h-110v122h1136v-122h-206z" />
    <glyph glyph-name="c" unicode="c" horiz-adv-x="1170" 
d="M318 560q4 -87 8 -127t20 -87q72 -209 222 -222q22 -2 56 -2q108 0 186 50t78 152v236h-570zM1010 1076v-742q0 -118 -80 -212q-104 -122 -298 -122q-29 0 -54 2q-250 20 -348 306q-22 64 -32 252h-106q-66 0 -66 75t50 127q72 76 176 76q66 0 66 -56v-102h570v396h-896
v122h1216v-122h-198z" />
    <glyph glyph-name="d" unicode="d" horiz-adv-x="1140" 
d="M980 1076v-528h-660q0 -192 58 -292q84 -144 294 -144q71 0 190.5 45t134.5 45t15 -12q0 -44 -100 -117t-244 -73q-309 0 -414 220q-54 113 -54 326h-132q-42 0 -42 44t24.5 97.5t54.5 80q29 26.5 81 52.5t92 26t40 -40v-138h544v408h-870v122h1186v-122h-198z" />
    <glyph glyph-name="e" unicode="e" horiz-adv-x="1132" 
d="M224 1076q49 -186 184 -282q54 -38 128 -52h318v334h-630zM972 622l-218 4q-171 -2 -256 -26t-185.5 -97t-142.5 -147q17 -35 96 -92q225 -162 386 -162h16q74 4 128.5 38.5t104 86t61.5 51.5t12 -22q0 -60 -87 -153.5t-187 -100.5q-9 -1 -20 -1q-56 -1 -160 17
q-124 20 -230 86q-202 124 -250 248q20 83 130 183t184 143q-58 52 -156 166q-74 112 -94 232h-108v122h1180v-122h-204v-454z" />
    <glyph glyph-name="f" unicode="f" horiz-adv-x="1140" 
d="M590 284q-97 60 -228 60q-168 0 -168 -99q0 -67 107 -101q75 -23 171.5 -23t247.5 55q-83 79 -130 108zM992 1076q-88 -198 -246 -320q104 -42 174.5 -131.5t70.5 -196.5q0 -225 -174 -335q-144 -91 -383 -93h-5q-133 0 -227 49q-119 61 -128 181q-1 13 -1 25
q0 101 68 154q76 59 195 59q63 0 130 -14q169 -35 342 -210q59 96 60 180v6q0 113 -103 180q-106 68 -259 68q-85 0 -149 -17t-111 -17q-148 0 -148 90q0 53 57 79.5t107 26.5t127 -21t117 -21q212 0 364 278h-886v122h1188v-122h-180z" />
    <glyph glyph-name="g" unicode="g" horiz-adv-x="1220" 
d="M402 630q-248 0 -248 -180q0 -62 35 -138t101 -134t146 -58q106 0 126 108v402h-160zM1060 1076v-1076h-120v1076h-258v-796q0 -280 -246 -280q-140 0 -243 99t-143 247q-14 51 -14 102q0 126 86 213t220 87h220v328h-570v122h1268v-122h-200z" />
    <glyph glyph-name="h" unicode="h" horiz-adv-x="1076" 
d="M916 1076v-772q0 -135 -75 -219.5t-209 -84.5q-99 0 -208 58t-186 144q-140 157 -140 318q0 77 66.5 148.5t177.5 71.5h92v-120h-76q-140 0 -140 -111v-9q6 -105 136 -242.5t270 -137.5q174 0 174 180v776h-812v122h1126v-122h-196z" />
    <glyph glyph-name="i" unicode="i" horiz-adv-x="572" 
d="M344 1076v-1076h-120v1076h-228v122h228q0 135 2 162q12 159 68 250q83 134 314 134q87 0 165.5 -47t110.5 -135q28 -79 28 -161v-21h-118q-2 32 -12 92q-26 158 -208 158q-161 0 -208 -154q-22 -73 -22 -248v-30h292v-122h-292z" />
    <glyph glyph-name="j" unicode="j" horiz-adv-x="1140" 
d="M980 1076v-1076h-120v518h-534v-518h-122v518h-98q-70 0 -70 70q0 93 66 156.5t160 63.5q64 0 64 -52v-118h534v438h-872v122h1240v-122h-248z" />
    <glyph glyph-name="k" unicode="k" horiz-adv-x="1220" 
d="M636 638q-102 80 -218.5 80t-184 -72t-67.5 -171.5t61 -170t157 -82.5q11 -1 22 -1q47 -1 104 23q71 30 129.5 84t132.5 176q-132 132 -136 134zM1084 1076l-12 -120q-8 -78 -43.5 -206.5t-118.5 -251.5q117 -254 192 -498h-126q-21 50 -60.5 167t-79.5 223
q-80 -139 -180 -202q-135 -84 -254 -84q-168 0 -271 131q-83 106 -83 237q0 167 116 269q109 95 263 95h21q195 -9 390 -228q35 58 78.5 196t47.5 272h-980v122h1272v-122h-172z" />
    <glyph glyph-name="l" unicode="l" horiz-adv-x="1234" 
d="M596 600h18l230 476h-478zM596 382l-172 318q-122 0 -198 -88t-76 -209q0 -122 85.5 -207.5t206.5 -85.5v-116q-170 0 -289 119t-119 279t93 274t241 138l-146 272h-232v122h1272v-122h-274l-146 -272q149 -24 240.5 -137t91.5 -275t-119.5 -280t-290.5 -118v116
q122 0 207 85t85 207t-76 210t-196 88l-172 -318h-16z" />
    <glyph glyph-name="m" unicode="m" horiz-adv-x="1140" 
d="M980 1076v-1076h-120v524h-522q-24 -205 -50 -304q-42 -160 -128 -160q-100 0 -100 106q0 50 30 115t100 227q42 105 42 266.5t-14 221.5q-19 80 -80 80h-144v122h166q145 0 186 -222q9 -46 9 -150q0 -76 -5 -182h510v554h320v-122h-200z" />
    <glyph glyph-name="n" unicode="n" horiz-adv-x="1104" 
d="M530 682q-129 0 -238.5 -91t-109.5 -204t33.5 -168.5t122.5 -100.5v-122q-140 61 -196 124q-80 90 -80 251t122.5 282.5t283.5 150.5v272h-480v122h1160v-122h-560v-272q162 -29 286 -150.5t124 -282.5t-80 -251q-56 -63 -196 -124v122q89 45 122.5 100.5t33.5 155.5
q0 127 -109.5 217.5t-238.5 90.5z" />
    <glyph glyph-name="o" unicode="o" 
d="M-252 1344h-2q-24 0 -52 79q-30 82 -36 89q-30 27 -118 28l-128 -2h-19q-72 0 -207 6q-56 8 -83.5 70t-29.5 152v30q0 60 7 60q24 0 35.5 -38.5t25 -89.5t51.5 -72q18 -10 137.5 -10t236 -5.5t156.5 -60.5q16 -22 27 -87.5t11 -106.5t-12 -42z" />
    <glyph glyph-name="p" unicode="p" horiz-adv-x="1138" 
d="M1183 1076h-205v-1076h-120v328q-46 -40 -137.5 -83.5t-172.5 -44.5h-11q-189 0 -327 102q-94 69 -112 124q-2 37 65.5 210.5t72 204t4.5 51.5q0 77 -37 130.5t-111 53.5h-104v122h174q88 0 144 -99.5t56 -194.5q0 -27 -4 -52q-38 -236 -142 -398q154 -133 301 -136
q4 0 8 -1q144 0 333 133v748h325v-122z" />
    <glyph glyph-name="q" unicode="q" horiz-adv-x="1140" 
d="M928 850q-56 -125 -168 -214q92 -52 134 -94q90 -90 90 -227t-94 -223t-246 -86q-65 0 -144 16t-252.5 84.5t-173.5 107.5q0 22 42 22t176.5 -48t171.5 -54q108 -16 168 -16q231 0 231 209q0 10 -1 21q-6 124 -134 183q-97 45 -219 45t-176 -13t-79 -13q-142 0 -142 98
q0 88 116 88q54 0 160 -25t160 -25q151 0 240 152q41 71 78 238h-878v122h1200v-122h-202q-23 -148 -58 -226z" />
    <glyph glyph-name="r" unicode="r" horiz-adv-x="1076" 
d="M366 672q-142 0 -142 -76q0 -113 169 -296.5t281 -183.5q62 0 92 48t30 112v396h-430zM916 308q0 -130 -50 -210q-63 -100 -199 -100t-284 136t-229 292q-44 85 -44 166q0 200 242 200h444v284h-824v122h1194v-122h-250v-768z" />
    <glyph glyph-name="s" unicode="s" horiz-adv-x="1140" 
d="M858 1076h-574q68 -220 68 -436h506v436zM980 1076v-1076h-122v518h-506q-20 -83 -70 -298q-37 -162 -118 -162q-26 0 -52 14q-56 31 -56 87.5t36 132.5q78 166 88 190q44 108 48 200q1 15 1 30q0 76 -17 148q-20 86 -50 216h-166v122h1187v-122h-203z" />
    <glyph glyph-name="t" unicode="t" horiz-adv-x="1100" 
d="M940 1076v-364q-25 1 -53 1q-87 0 -195 -14q-144 -19 -234 -75q-176 -110 -302 -280q32 -42 130 -104q210 -134 346 -134q50 0 102.5 15.5t127.5 77t93.5 61.5t18.5 -22q0 -53 -85.5 -124t-152.5 -95.5t-134 -24.5q-116 0 -342 118q-53 28 -132.5 94t-97.5 132
q11 67 115.5 179t209 185.5t243.5 97.5q10 2 222 32v244h-828v122h1148v-122h-200z" />
    <glyph glyph-name="u" unicode="u" 
d="M-266 -164v-120q-176 -70 -335 -74h-16q-153 0 -333 74v122q186 -76 346 -76t338 74z" />
    <glyph glyph-name="v" unicode="v" horiz-adv-x="1100" 
d="M940 1076v-342h-606q-58 0 -112 -28t-54 -78q0 -48 40.5 -92t83.5 -44h624v-120h-468q23 -120 101.5 -191t198.5 -71q68 0 160 22l-24 -94q-110 -44 -190 -44q-18 0 -42 6q-239 60 -324 330q-8 30 -86 58t-110 56q-66 56 -82 164q-2 13 -2 26q0 78 79 148t193 70h502v224
h-840v122h1160v-122h-202z" />
    <glyph glyph-name="w" unicode="w" horiz-adv-x="520" 
d="M282 1076v-608h-120v608h-186v122h570v-122h-264z" />
    <glyph glyph-name="x" unicode="x" horiz-adv-x="1174" 
d="M836 148q171 64 199 64t28 -11q0 -19 -58.5 -65t-162 -91t-196.5 -45q-199 0 -362 84q-190 98 -244 252q56 131 138 242q117 156 249 156h9q138 -6 236 -88v164q-96 38 -250 112q-120 76 -172 154h-254v122h1222v-122h-808q63 -72 330 -170q162 -59 276 -82v-112
q-136 22 -226 60v-374h-28q-60 112 -130 150q-126 68 -194 68q-136 0 -268 -280q69 -103 205 -162.5t263 -65.5h4q43 0 194 40z" />
    <glyph glyph-name="y" unicode="y" 
d="M-536 1592q63 -46 176.5 -180t113.5 -186q0 -7 -5 -7q-11 0 -49 44q-152 176 -332 273q-112 60 -348 68q-32 24 -32 60q0 72 96 72q14 0 30 -2q180 -18 350 -142z" />
    <glyph glyph-name="z" unicode="z" horiz-adv-x="1148" 
d="M988 1076v-1076h-120v518h-534v-518h-122v518h-98q-70 0 -70 70q0 93 66 156.5t160 63.5q64 0 64 -52v-118h534v438h-892v122h1260v-122h-248zM658 54q-26 -32 -69 -32t-73 25.5t-30 70t27 72.5t69.5 28t72 -25.5t29.5 -66t-26 -72.5z" />
    <glyph glyph-name="braceleft" unicode="{" horiz-adv-x="759" 
d="M256 552q218 -39 218 -244v-294q0 -98 57.5 -141t164.5 -45v-144q-195 2 -295.5 84t-100.5 234v294q0 102 -63 145t-181 43v146q129 2 186.5 47.5t57.5 138.5v296q0 151 105 233.5t291 82.5v-144q-113 -4 -167.5 -50t-54.5 -138v-288q0 -205 -218 -244v-12z" />
    <glyph glyph-name="bar" unicode="|" horiz-adv-x="1110" 
d="M644 314q-142 142 -283.5 142t-158.5 -108q-2 -12 -2 -24q0 -65 64 -97q55 -28 129 -28q11 0 23 1q125 7 228 114zM218 1076v-220h462q175 0 250 -104q60 -83 60 -152q0 -160 -178 -304q104 -100 182 -296h-128q-66 134 -140 230q-163 -146 -308 -151h-19q-133 0 -222 63
q-93 66 -93 178v8q3 118 68.5 179t191.5 68q13 1 25 1q112 0 209 -56q70 -40 166 -138l81 97q41 49 41 117q0 140 -232 140h-536v340h-116v122h1166v-122h-930z" />
    <glyph glyph-name="braceright" unicode="}" horiz-adv-x="759" 
d="M704 484q-119 -2 -181.5 -44t-62.5 -142v-298q0 -150 -104 -233t-292 -83v144q222 4 222 188v290q0 206 218 244v12q-218 38 -218 244v292q0 98 -57.5 141t-164.5 45v144q193 -2 294.5 -82.5t101.5 -235.5v-292q0 -103 62.5 -145.5t181.5 -42.5v-146z" />
    <glyph glyph-name="asciitilde" unicode="~" horiz-adv-x="400" 
d="M438 1076h-462v122h462v-122zM-16 1488q-13 32 -14 122v20q0 70 6 70q8 0 30 -54q10 -40 40 -122q48 -100 171 -100t171 100q16 59 38 117.5t30 58.5t8 -53v-13q-1 -66 -14 -146q-62 -164 -232.5 -164t-233.5 164z" />
    <glyph glyph-name="Aring" unicode="&#xc5;" horiz-adv-x="2168" 
d="M1521 -123q-11 0 -52 -5.5t-361 -5.5q35 -132 90 -224q132 -220 350 -220h12q100 2 168 54q63 47 63 128q-1 8 -1 16q-6 93 -99 175t-170 82zM1878 378h-804q0 -240 16 -392h216q187 2 248 24q130 46 197 126t127 242zM144 352q3 -95 63.5 -146.5t148.5 -51.5t172 42
q114 57 114 163q0 197 -250 197q-248 0 -248 -196v-8zM769 323q0 -79 -11 -271q-22 -251 -22 -260q0 -188 60 -334l72 -132q4 -7 4 -12q0 -12 -25.5 -12t-60.5 26q-144 107 -178 408q-4 35 -4 113.5t28 278.5q-134 -91 -275.5 -91t-238 85.5t-96.5 221.5q0 332 364 332h26
q213 -6 296 -114q61 -79 61 -239zM2152 572q-415 328 -654 328q-178 0 -304 -150q-99 -117 -120 -250h1000v-122h-76q-54 -166 -121 -264t-203 -172q238 -129 238 -326q0 -129 -85 -222q-84 -92 -259 -92q-289 0 -447 226q-129 186 -157 496q-10 116 -10 293v61h-88v122h88
q12 219 169 369.5t375 150.5q86 0 185.5 -29t330.5 -177q48 -37 140 -118z" />
    <glyph glyph-name="Ccedilla" unicode="&#xc7;" horiz-adv-x="2112" 
d="M1236 1388q-96 -319 -100 -522v-17q0 -197 88 -439q174 46 288 182t114 310t-110 305.5t-280 180.5zM1302 218q-60 -25 -94.5 -46t-103.5 -88v-198q633 344 746 672q70 204 70 316.5t-48.5 206.5t-165.5 239q158 -61 250 -207.5t92 -352.5q0 -102 -22 -202
q-44 -200 -140 -336q-72 -95 -214 -284q-92 -123 -104 -228l-228 210q-116 -37 -204 -106q93 -37 180 -92q118 -75 118 -156q0 -28 -22 -49t-50 -21q-62 0 -62 64q0 28 24 62q-40 35 -74 58.5t-150 67.5v-232q54 -50 54 -89t-31 -69t-73 -30t-68 29.5t-26 69t54 89.5v232
q-52 -18 -130 -54l-94 -72q24 -34 24 -62q0 -64 -62 -64q-28 0 -50 21t-22 49q0 81 118 156q87 55 180 92q-94 76 -204 106l-228 -210q-12 105 -94.5 213t-223.5 299q-96 136 -140 336q-22 100 -22 202q0 206 92 352.5t250 207.5q-117 -145 -165.5 -239t-48.5 -206.5
t70 -316.5q113 -328 746 -672v198q-32 32 -110 92q-30 18 -88 42q20 44 44 112q-196 54 -322 213.5t-126 359t126 357t316 212.5q-16 46 -30 76q75 54 154 126q23 21 52 70.5t38 61.5q20 -46 80 -132q78 -72 154 -126q-14 -30 -30 -76q196 -57 322 -212.5t126 -357
t-129.5 -359.5t-328.5 -213q10 -30 48 -112zM884 410q90 248 90 443v17q-4 200 -100 518q-166 -46 -274 -179t-108 -307.5t109.5 -309.5t282.5 -182z" />
    <glyph glyph-name="aring" unicode="&#xe5;" horiz-adv-x="1398" 
d="M68 1676q91 -61 198 -174q28 -30 78 -58q45 -26 76 -26h7q34 3 101 52q205 149 418 284q156 98 354 98h16q208 -4 370 -100.5t228 -271.5q14 -37 14 -66q0 -50 -40 -50q-32 0 -62 64q-70 151 -200 233q-128 81 -268 81h-4q-142 -1 -206 -20q-142 -42 -376 -218
q-135 -102 -212 -151t-144 -49t-129 42t-145 121.5t-130 110.5q-109 70 -241 70h-21l28 106h22q151 0 268 -78z" />
    <glyph glyph-name="ccedilla" unicode="&#xe7;" 
d="M-288 -372h-324q10 -54 36 -142q28 -58 57 -74t97 -16q134 0 134 134v98zM-646 -572q-22 48 -52 200h-60q-58 0 -58 36t30 72t70.5 55t65.5 19q34 0 34 -36v-58h328v224h92v-424q0 -65 -42 -122q-62 -84 -182 -84q-173 0 -226 118z" />
    <glyph glyph-name="udieresis" unicode="&#xfc;" 
d="M-798 -552q186 -68 347 -68t337 68v-80q-190 -66 -340 -68h-9q-147 0 -335 68v80z" />
    <glyph glyph-name="dagger" unicode="&#x2020;" 
d="M-472 -274q-120 -30 -232 -190q58 -51 145.5 -101.5q88.5 -50.5 128.5 -50.5q113 0 174 66q30 31 38 36q14 0 14 -16q0 -37 -50 -82q-83 -74 -163.5 -74t-211 73.5t-159.5 140.5q10 65 102.5 152.5t169.5 113.5t226 40v104h84v-170q-9 1 -18 1q-80 0 -248 -43z" />
    <glyph glyph-name="degree" unicode="&#xb0;" horiz-adv-x="740" 
d="M666 782v-106h-598v106h598zM522 1342q-64 63 -156 64h-2q-89 0 -150 -62q-62 -64 -64 -152v-6q0 -85 62 -149q64 -66 152 -67h3q86 0 150 64q65 66 67 156v5q1 86 -62 147zM366 1496q125 0 216 -90q92 -92 92 -219q0 -123 -90 -211q-92 -88 -218 -90h-3q-125 0 -215 89
q-90 90 -90 216t91.5 215.5t216.5 89.5z" />
    <glyph glyph-name="cent" unicode="&#xa2;" horiz-adv-x="1143" 
d="M362 726q0 -398 303 -398q146 0 287 60v-154q-110 -56 -248 -60v-194h-134v200q-199 30 -293.5 165t-94.5 379q0 496 388 556v168h136v-160q148 -6 264 -58l-52 -146q-140 52 -238 52q-163 0 -240.5 -101.5t-77.5 -308.5z" />
    <glyph glyph-name="sterling" unicode="&#xa3;" horiz-adv-x="1143" 
d="M438 432q0 -190 -136 -272h768v-160h-1006v148q197 46 198 282v210h-192v132h192v296q0 177 109.5 277.5t296 100.5t354.5 -82l-62 -140q-163 76 -282.5 76t-179.5 -59t-60 -191v-278h408v-132h-408v-208z" />
    <glyph glyph-name="section" unicode="&#xa7;" 
d="M-748 -658q186 -64 347 -64t337 64v-74q-170 -59 -330 -64h-22q-151 0 -332 64v74zM-748 -500q186 -68 347 -68t337 68v-74q-190 -66 -340 -68h-9q-147 0 -335 68v74zM-650 -396q-78 78 -78 196q0 74 56 106q28 16 90 16q64 0 64 -22q0 -20 -82 -36q-44 -8 -44 -48
q0 -102 60 -154q81 -70 172 -70h8q56 2 87 57t31 133v178h108v-176q0 -143 -60 -214q-78 -72 -192 -72q-3 -1 -7 -1q-43 0 -213 107z" />
    <glyph glyph-name="bullet" unicode="&#x2022;" horiz-adv-x="860" 
d="M94 596l340 340l340 -340l-340 -340z" />
    <glyph glyph-name="paragraph" unicode="&#xb6;" horiz-adv-x="1309" 
d="M1098 -254h-116v1662h-204v-1662h-116v800q-61 -18 -142 -18q-211 0 -310.5 122t-99.5 372t106.5 374t333.5 124h548v-1774z" />
    <glyph glyph-name="registered" unicode="&#xae;" 
d="M-668 -84q54 -35 135 -136t81 -140q0 -15 -16 -22q-2 -1 -5 -1q-18 0 -61 43q-26 27 -90.5 92t-125.5 80q-66 -86 -136 -86q-45 0 -79.5 35.5t-34.5 80.5q0 124 132 124q62 0 122 -24q12 18 30 70h102q-18 -52 -54 -116z" />
    <glyph glyph-name="acute" unicode="&#xb4;" horiz-adv-x="26" 
d="M262 -294h-234v-176q0 -72 -50 -72q-29 0 -89.5 33t-96.5 69q22 60 32 96q20 47 28 119q3 29 3 56q0 42 -7 81h-88q9 -34 9 -74t-9 -86q-20 -64 -42 -124q-17 -47 -17 -68q0 -6 1 -10q0 -26 56 -72q119 -98 236 -98q110 0 110 130v108h158v88z" />
    <glyph glyph-name="dieresis" unicode="&#xa8;" 
d="M-798 -652q186 -64 347 -64t337 64v-80q-170 -59 -330 -64h-22q-151 0 -332 64v80zM-798 -482q186 -68 347 -68t337 68v-80q-190 -66 -340 -68h-9q-147 0 -335 68v80z" />
    <glyph glyph-name="AE" unicode="&#xc6;" horiz-adv-x="2000" 
d="M2536 898l-2 132q0 343 -241.5 583.5t-584.5 240.5q-279 0 -530 -188q-172 -129 -394 -396q-103 -132 -374 -472q-148 -183 -246 -184h-2q-70 0 -178 80q0 -60 2 -126q1 -2 10 -8q103 -68 168 -68q153 0 310 194q114 144 426 538q403 508 808 508q294 0 499 -205
t205 -499q0 -99 8 -152q12 -80 69 -80h3q38 2 44 38v64z" />
    <glyph glyph-name="Oslash" unicode="&#xd8;" horiz-adv-x="386" 
d="M424 1076h-448v122h448v-122z" />
    <glyph glyph-name="plusminus" unicode="&#xb1;" horiz-adv-x="1224" 
d="M1098 20h-1038v102h1038v-102zM638 674v-370h-118v370h-372v118h372v370h118v-370h372v-118h-372z" />
    <glyph glyph-name="yen" unicode="&#xa5;" horiz-adv-x="1143" 
d="M570 730l358 698h184l-402 -750h248v-128h-302v-164h302v-128h-302v-258h-172v258h-302v128h302v164h-302v128h244l-398 750h186z" />
    <glyph glyph-name="mu" unicode="&#xb5;" 
d="M-816 1486q2 -26 30 -86.5t28 -70.5t-12 -10t-56 51.5t-52 87t-8 60.5q0 74 59 148t201 74t201 -74t59 -148q0 -25 -8 -60.5t-52 -87t-56 -51.5t-12 10t28 70.5t30 86.5q1 7 1 13q0 65 -55 107q-60 46 -136 46t-136 -46q-55 -42 -55 -107q0 -6 1 -13z" />
    <glyph glyph-name="mu" unicode="&#x3bc;" 
d="M-816 1486q2 -26 30 -86.5t28 -70.5t-12 -10t-56 51.5t-52 87t-8 60.5q0 74 59 148t201 74t201 -74t59 -148q0 -25 -8 -60.5t-52 -87t-56 -51.5t-12 10t28 70.5t30 86.5q1 7 1 13q0 65 -55 107q-60 46 -136 46t-136 -46q-55 -42 -55 -107q0 -6 1 -13z" />
    <glyph glyph-name="ordfeminine" unicode="&#xaa;" horiz-adv-x="1208" 
 />
    <glyph glyph-name="ae" unicode="&#xe6;" horiz-adv-x="26" 
d="M-600 -124q48 0 82 -34t34 -82t-34 -82t-82 -34t-82 34t-34 82t34 82t82 34z" />
    <glyph glyph-name="questiondown" unicode="&#xbf;" horiz-adv-x="1332" 
d="M714 614l322 -324l-82 -82l-322 322l-322 -322l-84 82l322 324l-322 322l84 82l322 -322l322 322l82 -82z" />
    <glyph glyph-name="exclamdown" unicode="&#xa1;" horiz-adv-x="1820" 
d="M254 694q-67 0 -120 -30q-52 -29 -52 -88q0 -62 52 -96q50 -34 103 -34t109 28q72 36 72 93q0 127 -164 127zM756 328q61 -272 257 -272h7q58 0 104 34q43 31 42 84v9q-4 59 -61 109q-50 44 -96 43q-5 -1 -11 -1q-50 -6 -242 -6zM736 622v-110q2 -33 6 -122q49 -1 90 -1
q164 0 198 13q75 28 119 80t79 140h-492zM486 526v-12q0 -48 -6 -131q-8 -94 -8 -139q0 -188 70 -274q0 -8 -4 -10q-13 0 -34 16q-80 62 -100 236q-2 19 -2 45q0 71 16 197q-116 -68 -192.5 -68t-139 55t-62.5 139t69 133q64 45 156 45h15q219 -9 222 -232zM1100 366
q124 -73 124 -184q0 -88 -57 -140q-56 -50 -145 -50q-305 0 -348 428q-6 57 -6 113q0 45 4 89h-68v64h66q32 164 102.5 250t217.5 100q18 2 50 2q48 0 128 -4q182 257 369.5 498.5t447.5 241.5t365 -222q45 -96 46 -190v-8q0 -86 -20 -86q-13 0 -28.5 57.5t-43.5 152.5
q-102 232 -310 232q-116 0 -234 -72.5t-194 -175.5l-364 -492q-100 0 -216 -2q-194 -3 -248 -282h622v-64h-72q-46 -165 -188 -256z" />
    <glyph glyph-name="florin" unicode="&#x192;" horiz-adv-x="1218" 
d="M648 1076v-272q161 -29 285.5 -160t124.5 -285.5t-64.5 -228t-211.5 -132.5v120q86 44 121 94t35 142q0 128 -110.5 228t-239.5 100t-237.5 -100t-108.5 -228q0 -92 35 -142t121 -94v-120q-147 59 -211.5 132.5t-64.5 228.5t122.5 285.5t283.5 159.5v272h-550v122h1264
v-122h-594zM918 -356v-106q-174 -61 -326 -64h-13q-147 0 -325 64v108q180 -62 336 -62t328 60zM588 1652q-76 0 -136 -46q-55 -42 -55 -107q0 -6 1 -13q2 -26 30 -86.5t28 -70.5t-12 -10t-56 51.5t-52 87t-8 60.5q0 74 59 148t201 74t201 -74t59 -148q0 -25 -8 -60.5
t-52 -87t-56 -51.5t-12 10t28 70.5t30 86.5q1 7 1 13q0 65 -55 107q-60 46 -136 46zM918 -116v-106q-174 -61 -326 -64h-13q-147 0 -325 64v108q180 -62 336 -62t328 60z" />
    <glyph glyph-name="ellipsis" unicode="&#x2026;" horiz-adv-x="2074" 
d="M1675.5 -171.5q-27.5 26.5 -27.5 64t27 64.5t64.5 27t64 -27.5t26.5 -64t-27 -63.5t-63.5 -27t-64 26.5zM965.5 -171.5q-27.5 26.5 -27.5 64t27 64.5t64.5 27t64 -27.5t26.5 -64t-27 -63.5t-63.5 -27t-64 26.5zM255.5 -171.5q-27.5 26.5 -27.5 64t27 64.5t64.5 27
t64 -27.5t26.5 -64t-27 -63.5t-63.5 -27t-64 26.5z" />
    <glyph glyph-name="nonbreakingspace" unicode="&#xa0;" horiz-adv-x="800" 
 />
    <glyph glyph-name="OE" unicode="&#x152;" horiz-adv-x="2656" 
d="M550 350l90 8q53 -19 56 -20q31 -16 35 -44q-83 -35 -93 -35t-28.5 1t-40 23t-21.5 40.5t2 26.5zM550 247q93 -39 125 -121q-8 -18 -37.5 -13.5t-18.5 4.5q-30 9 -65.5 37.5t-35.5 53.5t32 39zM541 563v-94q-1 -57 -38 -78q-35 10 -35 47.5t19.5 87.5t41.5 50q9 0 12 -13
zM465 197q75 -46 75 -153q0 -14 -1 -27q-28 0 -63.5 52t-35.5 84t25 44zM430 232q-68 0 -74 76q3 61 75 61q11 0 22 -2q35 -15 50 -76q-25 -59 -73 -59zM344 197q17 12 30 12q26 0 26 -54q0 -78 -75 -124q-21 39 -21 88.5t40 77.5zM302 571q43 1 79 -49q31 -42 31 -81
q0 -6 -1 -12q-3 -23 -55 -23q-54 50 -54 148v17zM152 426l79 3q30 -11 59 -23q35 -18 35 -49q0 -10 -2 -19q-11 -16 -42 -15.5t-50 0.5q-79 31 -79 103zM112 194q20 26 71.5 58.5t89.5 32.5t52 -34q5 -71 -140 -71q-50 0 -73 14zM725 -435q-98 -72 -120 -91
q-65 -56 -76 -107q81 41 219 156q-30 -82 -95 -154.5t-130 -72.5q-30 0 -56 17q-9 22 -9 45q0 86 90 150q82 58 160 58q9 0 17 -1zM1746 1651q71 -29 71 -81q0 -15 -9 -30q-27 6 -89 35.5t-103 29.5q-73 0 -172 -72q96 134 226 134q38 0 76 -16zM1400 1434q96 124 202 124
q61 0 110 -43.5t49 -104.5q0 -14 -3 -27q-85 96 -195 96q-75 0 -163 -45zM1134 1557l-72 -62q0 42 40 94t80 52q17 0 29 -10q-61 -174 -158 -210q-2 23 39 69t42 67zM1007 1508l9 92q0 33 -18 58q-14 -20 -14 -57v-14q1 -13 1 -24q0 -29 -6 -42q-39 31 -39 86.5t20.5 104.5
t56.5 52q27 -70 27 -147.5t-35 -136.5q-2 13 -2 28zM915 1259q-8 -21 -45 -75.5t-37 -75t1 -29.5q21 12 55.5 80.5t56.5 75.5q0 -144 -152 -221q-9 26 -9 73.5t29.5 110.5t83.5 63q8 0 17 -2zM681 1738q113 -53 197 -138t84 -190q-6 0 -65.5 83t-97.5 97q14 -34 56.5 -89
t56.5 -82q-173 91 -231 319zM896 1318q-104 -99 -225 -99q-38 0 -73 11q38 92 185 92q19 0 56.5 -2t56.5 -2zM548 1462l168 -3q136 -11 155 -60q-111 28 -138 28t-27 -4q0 -13 145 -71q-13 -1 -27 -1q-64 0 -154 22q-110 27 -122 89zM268 96l-7 -78q0 -36 26 -58h3
q46 0 70 28q25 29 63 76q13 -9 60 -69t90 -60q8 0 16 2q3 11 3 30q0 15 -2 35q-4 44 -4 58.5t6 27.5q81 -36 131 -36q3 13 3 35t-34.5 74.5t-40.5 66.5q57 17 172 63q-56 66 -225 109q78 47 244.5 113t200.5 82q-9 -40 -57.5 -131t-48.5 -150t70 -124q127 65 127 245
q0 49 -8.5 115t-8.5 72q107 29 594 122q33 -13 82 -37h-6q-93 1 -157 -31q-66 -32 -178 -114q31 -49 106 -49t173.5 44t159.5 89q211 -119 314 -171t229 -98q-55 -8 -168 -39.5t-165 -38.5q-36 16 -71 31q-44 25 -44 63q0 10 2 22q-21 73 -87 73q-36 0 -64 -29.5t-28 -66.5
q0 -78 87 -78l62 2q62 0 87 -42q-402 -73 -927 -443q-73 29 -141.5 55.5t-134.5 26.5q-131 0 -247 -121q102 -64 217 -64t190 31q-36 -23 -126 -93q-88 -69 -103 -68h-1q-34 12 -71 12q-101 0 -199 -78t-98 -177q0 -48 29 -82t77 -34q98 0 191.5 110.5t97.5 211.5l248 184
q-50 -109 -50 -207q0 -158 112 -229q75 62 75 200q0 70 -18 165l-23 118q243 153 359 216q237 128 445 189q-98 -65 -218.5 -256t-120.5 -343q0 -15 1 -30q-245 -138 -245 -288q0 -35 15 -69q124 21 182 79q36 36 52.5 97.5t31.5 67.5q46 -120 156 -183t232 -63t198 57
t88 163q4 40 4 86q0 176 -42 176q-3 0 -6 -1q-19 -5 -19 -31t6.5 -68.5t7.5 -61.5v-22q0 -126 -43 -170q-72 -73 -179 -73q-15 0 -41 4q-264 32 -323 229q62 -85 174.5 -85t150.5 73q-65 128 -180 128q-52 0 -175 -36q31 239 182 435q104 134 221 206q2 -9 2 -23.5
t-13.5 -55.5t-15.5 -51q-78 -35 -78 -102t75 -76q8 -1 16 -1q32 0 60 19q34 24 34 72.5t-66 92.5q15 62 37 142q309 74 401 100q-97 -65 -130 -114.5t-33 -154.5q0 -25 1 -79q218 13 244 330l44 -11v86l-44 22q-4 15 -4 38t15.5 81t15.5 87q0 109 -157 189
q-24 -118 -24 -225t52 -156q-11 2 -64 24q-54 90 -104.5 226t-69.5 231l178 59q141 65 141 182q0 21 -4 44q-66 7 -102 7q-78 0 -120 -45l-116 -163q-4 105 -4 215t10 207q105 15 196 87.5t121 171.5q-37 17 -94 17t-130 -40t-119 -91q-22 138 -39 173q-34 74 -135 112
q-44 -47 -44 -120t58 -159.5t127 -144.5v-359q-62 156 -260 203q-36 -32 -36 -71q0 -80 134 -180q95 -71 187 -111q37 -177 159 -431q-144 78 -436 228q31 97 31 174q0 131 -92 217q-86 -70 -86 -158.5t49 -189.5q-40 23 -138 76q-333 180 -341 373q-1 13 0 25
q0 171 110 204q52 15 101.5 15t96 -27.5t46.5 -81.5v-26q0 -18 -39 -45q-8 -2 -16 -2l-65 15q-14 0 -17.5 -17.5t22.5 -27t45 -9.5q75 0 120 82q30 57 42 89q9 25 10 72q0 12 -1 26q55 37 55 98q0 34 -17 59q-50 74 -162 74q-206 0 -322 -258q-50 -112 -50 -225.5t62 -190.5
l-15 -1q-116 104 -289 265q6 57 56 107q84 85 92 96q47 69 47 173q-9 2 -25 2t-58.5 -16.5t-63 -16.5t-37.5 10q0 80 -47 168q-43 -17 -81.5 -91t-63.5 -91q-62 74 -240 151q-1 -8 -1 -17q0 -100 93 -273q-20 -2 -52 -2h-49q-114 0 -168 -25q12 -37 88 -78t76 -70
q-5 -21 -48.5 -56.5t-51.5 -66.5q66 -22 120.5 -22t87.5 5q8 -31 11.5 -108t24.5 -111q109 36 160 115q27 40 47 112.5t47 72.5q291 -290 614 -496q-141 -15 -546 -113q-48 83 -135.5 141.5t-169 58.5t-139.5 -42q67 -171 372 -192q-166 -58 -449 -189q16 35 16 94t-33 130
q-37 -6 -76 -63.5t-58 -71.5q-35 76 -154 133q-31 -21 -31 -55.5t11 -76.5l15 -60q-76 10 -211 29v-6q0 -41 35 -86q11 -14 72 -85q-12 -28 -69 -73t-71 -68q17 -26 126.5 -39t117.5 -15q4 -14 4 -32z" />
    <glyph glyph-name="oe" unicode="&#x153;" 
d="M-782 -533q0 13 21 13t56 -18.5t93.5 -46t109.5 -27.5t94 12q111 31 111 113q0 59 -62 101q-78 53 -169 53q-48 0 -100 -15q-21 -6 -46 -6q-78 0 -78 68q0 52 90 52q19 0 85 -14q54 -11 93 -11q9 0 16 1q120 9 174 200h94q-21 -84 -47 -130.5t-101 -107.5
q138 -82 140 -184v-5q0 -97 -73 -149q-75 -54 -190 -54t-213 65t-98 90z" />
    <glyph glyph-name="endash" unicode="&#x2013;" horiz-adv-x="1040" 
d="M924 544h-812v114h812v-114z" />
    <glyph glyph-name="emdash" unicode="&#x2014;" horiz-adv-x="1800" 
d="M100 660h1600v-118h-1600v118z" />
    <glyph glyph-name="quotedblleft" unicode="&#x201c;" horiz-adv-x="1250" 
d="M706 1054q-76 54 -76 162.5t89.5 203t172.5 132.5l18 -42q-160 -99 -172 -220q-2 -20 -6 -62q16 -18 82 -20t86 -8q47 -13 52 -67q1 -6 1 -12q0 -45 -35 -73q-39 -30 -100.5 -30t-111.5 36zM186 1054q-76 54 -76 162.5t89.5 203t172.5 132.5l18 -42q-160 -99 -172 -220
q-2 -20 -6 -62q16 -18 82 -20t86 -8q47 -13 52 -67q1 -6 1 -12q0 -45 -35 -73q-39 -30 -100.5 -30t-111.5 36z" />
    <glyph glyph-name="quotedblright" unicode="&#x201d;" horiz-adv-x="1230" 
d="M536 1516q76 -54 76 -162.5t-89.5 -203t-172.5 -132.5l-18 42q160 99 172 220q2 20 6 62q-17 19 -81.5 20t-86.5 8q-47 15 -52 68q-1 6 -1 12q0 46 35 72q39 30 100.5 30t111.5 -36zM1056 1516q76 -54 76 -162.5t-89.5 -203t-172.5 -132.5l-18 42q160 99 172 220
q2 20 6 62q-17 19 -81.5 20t-86.5 8q-47 15 -52 68q-1 6 -1 12q0 46 35 72q39 30 100.5 30t111.5 -36z" />
    <glyph glyph-name="quoteleft" unicode="&#x2018;" horiz-adv-x="846" 
d="M246 1054q-76 54 -76 162.5t89.5 203t172.5 132.5l18 -42q-160 -99 -172 -220q-2 -20 -6 -62q16 -18 82 -20t86 -8q47 -13 52 -67q1 -6 1 -12q0 -45 -35 -73q-39 -30 -100.5 -30t-111.5 36z" />
    <glyph glyph-name="quoteright" unicode="&#x2019;" horiz-adv-x="806" 
d="M536 1516q76 -54 76 -162.5t-89.5 -203t-172.5 -132.5l-18 42q160 99 172 220q2 20 6 62q-17 19 -81.5 20t-86.5 8q-47 15 -52 68q-1 6 -1 12q0 46 35 72q39 30 100.5 30t111.5 -36z" />
    <glyph glyph-name="ydieresis" unicode="&#xff;" horiz-adv-x="1700" 
d="M180 234q-58 0 -58 140t72 140q33 0 65.5 -48.5t32.5 -83.5q-12 -36 -80 -144q-20 -4 -32 -4zM1090 448v-162q-44 -70 -84.5 -70t-81.5 66q-12 19 -12 26t9 27t14 48.5t15 64.5h140zM1090 556h-134v14q0 54 -12 172h146v-186zM470 742v108h-426v-108h310q0 -96 -38 -242
q-8 24 -26 62q-44 66 -90 66q-94 0 -131 -121q-21 -67 -21 -160.5t35.5 -160t76.5 -66.5q70 0 100 35q7 8 56 103q26 -45 31 -121.5t8 -82.5t39 -6t40 2q0 107 -52 296q-10 37 -10 46q46 150 60 350h38zM1592 208q-65 -78 -96 -78q-13 0 -32 6q-72 21 -72 256h200v350h52
v108h-870v118q1 96 44 96h6q43 -6 43 -104q0 -16 -1 -34h70q0 261 -120 261q-53 0 -84.5 -56t-31.5 -127v-154h-56v-108h56v-692h74v692q43 1 65.5 1t24.5 -1q21 -38 21 -130q1 -28 -1 -61q-8 -142 -32 -203.5t-24 -63.5q0 -30 40 -82q58 -76 122 -76q29 0 60.5 18.5
t39.5 45.5v-140h78v692h340v-236h-142v58q0 56 -26.5 56t-55.5 -38.5q-29 -37.5 -36 -67.5q-6 -26 -6 -65v-11q1 -46 18 -46h50q0 -116 15 -189t70.5 -116t84.5 -43q46 0 96 76q21 32 21 57q0 28 -5 31zM1160 1014l-10 -86q0 -10 2 -16q33 9 44 68q8 41 8 75q0 16 -2 31
q-10 108 -90 108q-39 0 -62.5 -35t-29.5 -89q-1 -12 -1 -24q0 -42 16 -80q21 -50 41 -54v11q0 21 -5 57q-7 46 -7 66q0 72 48 72q35 0 46 -72q2 -13 2 -32zM1682 -22h-1678v1258h1678v-1258z" />
    <glyph glyph-name="currency" unicode="&#xa4;" horiz-adv-x="434" 
d="M478 1076h-502v122h502v-122zM59.5 1371q-71.5 47 -102 108.5q-30.5 60.5 -31.5 140.5v13q0 67 10 67q7 0 28 -67.5t48 -108.5q66 -100 196 -100t196 100q27 41 48 108.5t28 67.5q10 0 10 -67v-13q-2 -160 -131 -248q-72 -48 -150 -48t-149.5 47z" />
    <glyph glyph-name="guilsinglleft" unicode="&#x2039;" horiz-adv-x="1160" 
d="M504 172q-24 24 -24 58.5t23.5 59t59 24.5t59.5 -24t24 -59.5t-24.5 -59t-59 -23.5t-58.5 24zM504 906q-24 24 -24 58.5t23.5 59t59 24.5t59.5 -24t24 -59.5t-24.5 -59t-59 -23.5t-58.5 24zM66 538v122h998v-122h-998z" />
    <glyph glyph-name="periodcentered" unicode="&#xb7;" horiz-adv-x="700" 
d="M239 673q37 39 90.5 39t92 -39.5t38.5 -96t-42 -89.5t-91 -33t-87 37t-38 90t37 92z" />
    <glyph glyph-name="periodcentered" unicode="&#x2219;" horiz-adv-x="700" 
d="M239 673q37 39 90.5 39t92 -39.5t38.5 -96t-42 -89.5t-91 -33t-87 37t-38 90t37 92z" />
    <glyph glyph-name="quotesinglbase" unicode="&#x201a;" horiz-adv-x="2656" 
d="M1322 1028q150 321 150 497t-139.5 176t-139.5 -184t129 -489zM1322 12q150 -321 150 -496.5t-139.5 -175.5t-139.5 184t129 488zM1836 527q321 -151 496.5 -151t175.5 139.5t-184 139.5t-488 -128zM820 527q-321 -151 -496.5 -151t-175.5 139.5t184 139.5t488 -128z
M293 35l256 -48q-346 -181 -482 -764q130 59 272 124.5t253.5 145.5t182.5 193q39 -57 45 -210q194 32 299 201q73 121 132.5 407.5t76.5 338.5q17 -52 76.5 -338.5t132.5 -407.5q105 -169 299 -201q7 153 45 210q71 -113 182.5 -193t253.5 -145.5t272 -124.5
q-136 583 -482 764l256 48q-64 200 -238 299q-121 69 -387 117.5t-336 71.5q68 23 334.5 72.5t388.5 119.5q174 100 238 300l-256 48q346 181 482 764q-130 -59 -272 -124.5t-253.5 -145.5t-182.5 -193q-39 57 -45 210q-194 -32 -299 -201q-73 -121 -132.5 -407.5
t-76.5 -338.5q-17 52 -76.5 338.5t-132.5 407.5q-105 169 -299 201q-7 -153 -45 -210q-71 113 -182.5 193t-253.5 145.5t-272 124.5q136 -583 482 -764l-256 -48q64 -200 238 -299q121 -69 387 -117.5t336 -71.5q-68 -23 -334.5 -72.5t-388.5 -119.5q-174 -100 -238 -300z
" />
    <glyph glyph-name="perthousand" unicode="&#x2030;" horiz-adv-x="2656" 
d="M2105 350l-90 8q-53 -19 -56 -20q-31 -16 -35 -44q83 -35 93 -35t28.5 1t40 23t21.5 40.5t-2 26.5zM2105 247q-93 -39 -124 -121q7 -18 36.5 -13.5t18.5 4.5q30 9 65.5 37.5t35.5 53.5t-32 39zM2114 563v-94q2 -57 38 -78q35 10 35 47.5t-19.5 87.5t-41.5 50
q-9 0 -12 -13zM2190 197q-75 -46 -75 -153q0 -14 1 -27q28 0 63.5 52t35.5 84t-25 44zM2225 232q68 0 74 76q-3 61 -75 61q-11 0 -22 -2q-35 -15 -50 -76q25 -59 73 -59zM2311 197q-17 12 -30 12q-26 0 -26 -54q0 -78 75 -124q21 39 21 88.5t-40 77.5zM2353 571
q-43 1 -79 -49q-31 -42 -31 -81q0 -6 1 -12q3 -23 55 -23q54 50 54 148v17zM2504 426l-80 3q-30 -11 -59 -23q-35 -18 -35 -49q0 -10 2 -19q11 -16 42 -15.5t50 0.5q80 31 80 103zM2330 251q-4 -71 140 -71q50 0 73 14zM1930 -435q98 -72 120 -91q65 -56 76 -107
q-81 41 -219 156q30 -82 95 -154.5t130 -72.5q30 0 56 17q9 22 9 45q-1 86 -91 150q-82 58 -159 58q-9 0 -17 -1zM909 1651q-71 -29 -71 -81q0 -15 9 -30q27 6 89.5 35.5t102.5 29.5q73 0 172 -72q-96 134 -226 134q-38 0 -76 -16zM1255 1434q-96 124 -202 124
q-61 0 -110 -43.5t-49 -104.5q0 -14 3 -27q85 96 195 96q75 0 163 -45zM1521 1557l72 -62q0 42 -40 94t-80 52q-17 0 -29 -10q62 -174 158 -210q3 23 -38.5 69t-42.5 67zM1649 1508l-10 92q0 33 18 58q15 -20 15 -56v-15q-1 -14 -2 -26q0 -27 6 -40q39 31 39 86.5t-20 104.5
t-57 52q-27 -70 -27 -147.5t35 -136.5q3 13 3 28zM1740 1259q8 -21 45 -75.5t37 -75t-1 -29.5q-21 12 -55.5 80.5t-56.5 75.5q0 -144 153 -221q8 26 8 73.5t-29.5 110.5t-83.5 63q-8 0 -17 -2zM1974 1738q-113 -53 -197 -138t-84 -190q6 0 65.5 83t97.5 97
q-14 -34 -56.5 -89t-55.5 -82q172 91 230 319zM1759 1318q104 -99 225 -99q38 0 73 11q-38 92 -185 92q-19 0 -56.5 -2t-56.5 -2zM2107 1462l-168 -3q-136 -11 -155 -60q111 28 138 28t27 -4q0 -13 -145 -71q13 -1 27 -1q64 0 154 22q110 27 122 89zM2387 96l7 -78
q0 -36 -26 -58h-3q-46 0 -70 28q-25 29 -63 76q-13 -9 -60 -69t-90 -60q-8 0 -16 2q-3 11 -3 30q0 15 2 35q4 44 4 58.5t-5 27.5q-90 -36 -132 -36q-3 13 -3 35t34.5 74.5t41.5 66.5q-58 17 -173 63q56 66 225 109q-78 47 -244.5 113t-199.5 82q8 -40 56.5 -131t48.5 -150
t-69 -124q-128 65 -128 245q0 49 8.5 115t8.5 72q-107 29 -594 122q-32 -13 -82 -37h6q94 1 158 -31q66 -32 177 -114q-31 -49 -106 -49t-173.5 44t-159.5 89q-211 -119 -313.5 -171t-229.5 -98q55 -8 168 -39.5t165 -38.5q36 16 71 31q44 25 44 63q0 10 -2 22q21 73 87 73
q37 0 64.5 -29.5t27.5 -66.5q0 -78 -87 -78l-62 2q-62 0 -87 -42q402 -73 927 -443q73 29 141.5 55.5t134.5 26.5q131 0 247 -121q-102 -64 -217 -64t-190 31q36 -23 127 -93q88 -69 102 -68h1q34 12 71 12q102 0 199.5 -78t97.5 -177q0 -48 -29 -82t-77 -34
q-98 0 -191.5 110.5t-97.5 211.5l-248 184q50 -109 50 -207q0 -158 -112 -229q-75 62 -75 200q0 70 18 165l23 118q-243 153 -359 216q-237 128 -445 189q98 -65 218.5 -256t120.5 -343q0 -15 -1 -30q246 -138 246 -288q0 -35 -16 -69q-124 21 -182 79q-36 36 -52.5 97.5
t-31.5 67.5q-46 -120 -156 -183t-232 -63t-198 57t-88 163q-4 40 -4 86q0 176 42 176q3 0 6 -1q19 -5 19 -31t-6.5 -68.5t-7.5 -61.5v-22q0 -126 43 -170q72 -73 179 -73q15 0 41 4q264 32 324 229q-63 -85 -175.5 -85t-150.5 73q65 128 180 128q52 0 175 -36
q-30 239 -182 435q-104 134 -221 206q-2 -9 -2 -23.5t13.5 -55.5t15.5 -51q78 -35 78 -102t-75 -76q-8 -1 -16 -1q-32 0 -60 19q-34 24 -34 72.5t66 92.5q-15 62 -37 142q-309 74 -401 100q97 -65 130 -114.5t33 -154.5q0 -25 -1 -79q-218 13 -244 330l-44 -11v86l44 22
q5 15 5 38t-16 81t-16 87q0 109 157 189q24 -118 24 -225t-52 -156q11 2 64 24q54 90 104.5 226t69.5 231l-178 59q-141 65 -141 182q0 21 4 44q66 7 102 7q78 0 120 -45l116 -163q5 105 5 215t-11 207q-105 15 -196 87.5t-120 171.5q36 17 93 17t131.5 -41t117.5 -90
q22 138 39 173q34 74 135 112q44 -47 44 -120t-58 -159.5t-127 -144.5v-359q62 156 260 203q36 -32 36 -71q0 -80 -134 -180q-95 -71 -187 -111q-37 -177 -159 -431q144 78 436 228q-31 97 -31 174q0 131 93 217q85 -70 85 -158.5t-49 -189.5q40 23 138 76q332 181 341 374
q1 13 0 24q0 171 -110 204q-52 15 -101.5 15t-96 -27.5t-46.5 -81.5v-26q0 -18 39 -45q8 -2 16 -2l65 15q14 0 17.5 -17.5t-22.5 -27t-45 -9.5q-75 0 -120 82q-31 57 -43 89q-9 25 -9 72q0 12 1 26q-55 37 -55 98q0 34 18 59q49 74 161 74q206 0 322 -258q50 -112 50 -225.5
t-62 -190.5l16 -1q115 104 288 265q-6 57 -56 107q-84 85 -92 96q-47 69 -47 173q9 2 25 2t58.5 -16.5t63 -16.5t37.5 10q0 80 47 168q43 -17 82 -91t63 -91q62 74 240 151q1 -8 1 -17q0 -100 -92 -273q19 -2 51 -2h49q114 0 168 -25q-12 -37 -88 -78t-76 -70
q5 -21 48.5 -56.5t51.5 -66.5q-66 -22 -120.5 -22t-87.5 5q-7 -31 -11 -108t-25 -111q-108 36 -160 115q-27 40 -47 112.5t-47 72.5q-291 -290 -614 -496q141 -15 546 -113q48 83 135.5 141.5t169 58.5t140.5 -42q-68 -171 -373 -192q166 -58 449 -189q-16 35 -16 94t33 130
q37 -6 76 -63.5t58 -71.5q35 76 154 133q31 -21 31 -55.5t-11 -76.5l-15 -60q77 10 211 29v-6q0 -41 -35 -86q-11 -14 -72 -85q12 -28 69 -73t71 -68q-16 -26 -126 -39t-118 -15q-4 -14 -4 -32z" />
    <glyph glyph-name="Iacute" unicode="&#xcd;" 
d="M-542 -238q-98 0 -98 -72q0 -26 33.5 -50t60.5 -24h326v-84h-238q22 -156 138 -156q19 0 40 4q6 2 54 14q-2 -14 -14 -42q-30 -40 -86 -40q-104 0 -156 68q-9 11 -44 78q-13 34 -23 56t-40 35t-67 31q-62 32 -67 102q-1 7 -1 15q0 61 40 101q44 46 104 46h292v98h82v-180
h-336z" />
    <glyph glyph-name="Icircumflex" unicode="&#xce;" horiz-adv-x="1086" 
d="M868 1076v-1076h-122v532h-262q0 -261 -16 -342q-21 -108 -170 -108q-56 0 -83 12t-165 100q4 28 22 120q16 -10 92 -66t124 -56q76 0 76 152v308h382v424h-766v122h1144v-122h-256z" />
    <glyph glyph-name="Idieresis" unicode="&#xcf;" horiz-adv-x="26" 
d="M-278 -686v316h-158v-108q0 -130 -110 -130q-117 0 -236 98q-56 46 -56 72q-1 4 -1 10q0 22 17 68q22 60 42 124q9 46 9 86t-9 74h88q7 -39 7 -81q0 -28 -3 -56q-8 -72 -28 -119q-10 -36 -32 -96q36 -36 96.5 -69t89.5 -33q50 0 50 72v176h234v224h88v-628h-88z" />
    <glyph glyph-name="Oacute" unicode="&#xd3;" horiz-adv-x="2656" 
d="M1506 1304l-8 -89q19 -54 20 -57q17 -31 44 -35q35 83 35 93.5t-2 18.5q0 28 -22 49.5t-40.5 21.5t-26.5 -2zM1609 1304q39 -93 121 -124q18 7 16 25q-7 41 -7 30q-9 30 -37.5 65.5t-53.5 35.5t-39 -32zM1294 1313h93q57 2 78 38q-10 35 -47 35t-87.5 -19.5t-50.5 -41.5
q0 -9 14 -12zM1659 1389q46 -75 153 -75q14 0 27 1q0 28 -52 63.5t-84 35.5t-44 -25zM1624 1424q0 68 -76 74q-61 -3 -61 -75q0 -11 2 -22q15 -35 76 -50q59 25 59 73zM1659 1510q-12 -17 -12 -29q0 -27 54 -27q78 0 124 75q-39 21 -88.5 21t-77.5 -40zM1285 1552
q-1 -43 49 -79q42 -31 81 -31q6 0 12 1q23 3 23 55q-50 54 -148 54h-17zM1430 1703l-3 -80q11 -30 23 -59q18 -35 49 -35q10 0 19 2q16 11 15.5 42t-0.5 50q-31 80 -103 80zM1663 1742q-27 -20 -59.5 -71.5t-32.5 -89.5t34 -52h4q67 0 67 140q0 50 -13 73zM2292 1129
q71 99 90 120q57 65 107 76q-41 -81 -156 -219q82 30 154.5 95t72.5 130q0 30 -17 56q-22 9 -45 9q-86 0 -150 -90q-57 -81 -57 -158q0 -10 1 -19zM205 108q29 -71 81 -71q15 0 30 9q-6 27 -35.5 89.5t-29.5 102.5q0 73 72 172q-133 -96 -133 -226q0 -38 15 -76zM422 455
q-124 -97 -124 -203q0 -61 43.5 -110t104.5 -49q14 0 27 3q-96 86 -96 195q0 75 45 164zM299 720l62 72q-42 0 -94 -40t-52 -80q0 -17 11 -29q173 62 209 158h-3q-23 -1 -66 -39q-46 -42 -67 -42zM348 848l-92 -10q-33 0 -58 18q20 15 56 15q7 -1 15 -1q14 -1 26 -1
q27 0 40 6q-31 39 -86.5 39t-104.5 -20t-52 -57q70 -27 147.5 -27t136.5 35q-13 3 -28 3zM597 939q21 8 75.5 45t75 37t29.5 -1q-12 -21 -80.5 -55.5t-75.5 -56.5q144 0 222 153q-27 8 -74.5 8t-110.5 -29.5t-63 -83.5q0 -8 2 -17zM119 1173q52 -113 137.5 -197t189.5 -84
q0 6 -83 65.5t-97 97.5q34 -14 89 -56.5t82 -55.5q-91 172 -318 230zM538 958q99 104 99 225q0 38 -11 73q-91 -38 -91 -185q0 -18 1.5 -56t1.5 -57zM394 1306l3 -168q11 -136 60 -155q-28 111 -28 138t4 27q13 0 71 -145q1 14 1 30q1 63 -21 151q-28 110 -90 122z
M1760 1586l78 7q36 0 58 -26q1 -48 -28 -73t-75 -63q8 -13 68 -60t60 -90q0 -8 -2 -16q-11 -3 -29 -3q-15 0 -35 2q-45 4 -59 4t-27 -5q3 -10 19.5 -56.5t16.5 -74.5q-14 -4 -36 -4t-74.5 34.5t-66.5 41.5q-17 -58 -63 -173q-66 56 -109 225q-47 -78 -112.5 -244.5
t-82.5 -199.5q40 8 131 56.5t150 48.5t124 -69q-65 -128 -245 -128q-49 0 -115 8.5t-71 8.5q-30 -107 -123 -594q13 -32 37 -82v6q0 93 32 157q33 66 114 178q48 -30 48 -105.5t-44 -174t-88 -159.5q118 -211 170 -313.5t98 -229.5q8 55 39.5 168t38.5 165q-16 37 -31 71
q-25 44 -63 44q-10 0 -22 -2q-73 21 -73 87q0 37 29.5 64.5t66.5 27.5q78 0 78 -87l-2 -61q0 -63 42 -88q73 402 443 927q-29 73 -55.5 141.5t-26.5 134.5q0 132 121 247q64 -102 64 -217t-31 -190q23 36 93 127q69 88 68 102l-12 72q0 102 78 199.5t177 97.5q48 0 82 -29
t34 -77q0 -98 -110.5 -191.5t-211.5 -97.5l-184 -248q110 50 207 50q158 0 229 -112q-62 -75 -200 -75q-70 0 -165 18l-118 23q-153 -243 -216 -359q-128 -237 -189 -445q65 98 256 218.5t343 120.5q15 0 30 -1q138 246 289 246q34 0 68 -16q-21 -124 -79 -182
q-36 -36 -97.5 -52.5t-67.5 -31.5q120 -46 183.5 -156t63.5 -232t-57.5 -198t-163.5 -88q-40 -4 -86 -4q-176 0 -176 42q0 3 1 6q5 19 31 19t68.5 -6.5t62.5 -7.5h22q125 0 169 43q73 72 73 179q0 15 -3 41q-33 264 -230 324q85 -63 85 -175.5t-73 -150.5q-127 65 -127 180
q0 52 36 175q-240 -30 -436 -182q-134 -104 -205 -221q8 -2 22.5 -2t55.5 13.5t52 15.5q34 78 101 78t76 -75q1 -8 1 -16q0 -32 -19 -60q-24 -34 -72.5 -34t-92.5 66q-62 -15 -142 -37q-74 -309 -100 -401q65 97 115 130t154 33q25 0 79 -1q-13 -218 -330 -244l11 -43h-86
l-22 43q-15 5 -38 5t-81 -16t-87 -16q-108 0 -189 157q118 24 225 24t156 -52q-2 11 -24 64q-90 54 -226 104.5t-231 69.5l-59 -178q-65 -141 -182 -141q-21 0 -44 4q-7 66 -7 102q0 78 46 120l162 116q-105 5 -215 5t-207 -11q-15 -105 -87.5 -196t-171.5 -120
q-16 36 -16 93t40.5 131.5t90.5 117.5q-139 22 -174 39q-74 34 -111 135q47 44 120 44t159 -58t144 -127h359q-156 62 -203 260q32 36 71 36q80 0 181 -134q71 -95 110 -187q177 -37 431 -159q-77 144 -228 436q-97 -31 -174 -31q-131 0 -217 93q70 85 158.5 85t189.5 -49
q-23 41 -76 139q-181 332 -374 340q-13 1 -24 0q-171 0 -204 -110q-15 -52 -15 -101.5t27.5 -96t81.5 -46.5h28.5t42.5 40q2 7 2 15l-15 65q0 14 17.5 17.5t27.5 -22.5t10 -45q0 -75 -83 -120q-57 -31 -89 -42q-27 -9 -78 -9h-20q-37 -55 -98 -55q-34 0 -59 18
q-74 49 -74 161q0 206 258 322q112 51 225.5 51t190.5 -63l1 16q-103 115 -265 288q-56 -6 -107 -56q-85 -84 -96 -92q-69 -47 -173 -47q-2 9 -2 25t16.5 58.5t16.5 63.5t-10 37q-80 0 -168 47q18 43 91.5 82t90.5 63q-74 62 -150 240q8 1 17 1q99 0 272 -92q2 19 2 51v49
q0 114 25 168q37 -12 78 -88t70 -76q21 5 56.5 48.5t66.5 51.5q22 -66 22 -120.5t-4 -87.5q31 -7 107.5 -11t110.5 -25q-36 -108 -115 -160q-40 -27 -112.5 -47t-72.5 -47q290 -291 496 -614q15 141 113 546q-83 48 -141.5 135.5t-58.5 169t42 140.5q171 -68 192 -373
q58 166 189 449q-35 -16 -94 -16t-130 33q6 37 63.5 76t71.5 58q-76 35 -133 154q21 31 55.5 31t76.5 -11l60 -15q-10 77 -29 211h7q42 0 86 -35q13 -11 84 -72q29 12 73.5 69t68.5 71q25 -16 38 -126t15 -118q14 -4 32 -4z" />
    <glyph glyph-name="Ocircumflex" unicode="&#xd4;" horiz-adv-x="2656" 
d="M1506 -251l-8 90q19 53 20 56q17 31 44 35q35 -83 35 -93t-1 -28.5t-23 -40t-40.5 -21.5t-26.5 2zM1609 -251q39 93 121 125q18 -8 16 -26q-7 -41 -7 -30q-9 -30 -37.5 -65.5t-53.5 -35.5t-39 32zM1294 -260h93q57 -1 78 -38q-10 -35 -47 -35t-87.5 19.5t-50.5 41.5
q0 9 14 12zM1659 -336q46 75 153 75q14 0 27 -1q0 -28 -52 -63.5t-84 -35.5t-44 25zM1624 -371q0 -68 -76 -74q-61 3 -61 75q0 11 2 22q15 35 76 50q59 -25 59 -73zM1659 -457q-12 17 -12 30q0 27 54 27q78 0 124 -76q-39 -21 -88.5 -21t-77.5 40zM1285 -499q-1 43 49 79
q42 31 81 31q6 0 12 -1q23 -3 23 -55q-50 -54 -148 -54h-17zM1430 -649l-3 79q11 30 23 59q18 35 49 35q10 0 19 -2q16 -11 15.5 -42t-0.5 -50q-31 -79 -103 -79zM1663 -689q-27 21 -59.5 72t-32.5 89t34 52h5q66 0 66 -140q0 -50 -13 -73zM2292 -76q71 -98 90 -120
q57 -65 107 -76q-41 81 -156 219q82 -30 154.5 -95t72.5 -130q0 -30 -17 -56q-22 -9 -45 -9q-86 1 -150 91q-57 81 -57 157q0 10 1 19zM205 945q29 71 81 71q15 0 30 -9q-6 -27 -35.5 -89t-29.5 -103q0 -73 72 -172q-133 97 -133 226q0 38 15 76zM422 599q-124 96 -124 202
q0 61 43.5 110t104.5 49q14 0 27 -3q-96 -85 -96 -195q0 -75 45 -163zM299 333l62 -72q-42 0 -94 40t-52 80q0 17 11 29q173 -61 209 -158h-2q-23 0 -67 39q-46 41 -67 42zM348 206l-92 9q-33 0 -58 -18q20 -14 57 -14h14q13 1 24 1q29 0 42 -6q-31 -39 -86.5 -39
t-104.5 20.5t-52 56.5q70 27 147.5 27t136.5 -35q-13 -2 -28 -2zM597 114q21 -8 75.5 -45t75 -37t29.5 1q-12 21 -80.5 55.5t-75.5 56.5q144 0 222 -152q-27 -9 -74.5 -9t-110.5 29.5t-63 83.5q0 8 2 17zM119 -120q52 113 137.5 197t189.5 84q0 -6 -83 -65.5t-97 -97.5
q34 14 89 56.5t82 56.5q-91 -173 -318 -231zM538 95q99 -103 99 -225q0 -38 -11 -73q-91 38 -91 185q0 19 1.5 56.5t1.5 56.5zM394 -253l3 168q11 136 60 155q-28 -111 -28 -138t4 -27q13 0 71 145q1 -14 1 -30q1 -63 -21 -151q-28 -110 -90 -122zM1760 -533l78 -7
q36 0 58 26q1 48 -28 73t-75 63q8 13 68 60t60 90q0 8 -2 16q-11 3 -29 3q-15 0 -35 -2q-45 -4 -59 -4t-27 6q3 9 19.5 55.5t16.5 75.5q-14 3 -36 3t-74.5 -34.5t-66.5 -40.5q-17 57 -63 172q-66 -56 -109 -225q-47 78 -112.5 244.5t-82.5 200.5q40 -9 131 -57.5t150 -48.5
t124 70q-65 127 -245 127q-49 0 -115 -8.5t-71 -8.5q-30 107 -123 594q13 33 37 82v-6q0 -94 32 -158q33 -66 114 -177q48 31 48 106t-44 173.5t-88 159.5q118 211 170 314t98 229q8 -55 39.5 -168t38.5 -165q-16 -36 -31 -71q-25 -44 -63 -44q-10 0 -22 2q-73 -21 -73 -87
q0 -36 29.5 -64t66.5 -28q78 0 78 87l-2 62q0 62 42 87q73 -402 443 -927q-29 -73 -55.5 -141.5t-26.5 -134.5q0 -131 121 -247q64 103 64 217.5t-31 189.5q23 -37 93 -127q69 -88 68 -102l-12 -72q0 -101 78 -199t177 -98q48 0 82 29t34 77q0 98 -110.5 191.5t-211.5 97.5
l-184 248q110 -50 207 -50q158 0 229 112q-62 76 -200 76q-70 0 -165 -19l-118 -23q-153 243 -216 359q-128 237 -189 445q65 -98 256 -218.5t343 -120.5q15 0 30 1q138 -245 289 -245q34 0 68 15q-21 124 -79 182q-36 36 -97.5 52.5t-67.5 31.5q120 46 183.5 156t63.5 232
t-57.5 198t-163.5 88q-40 4 -86 4q-176 0 -176 -42q0 -3 1 -6q5 -19 31 -19t68.5 6.5t62.5 7.5h26q121 0 165 -43q73 -72 73 -179q0 -15 -3 -41q-33 -264 -230 -323q85 62 85 174.5t-73 150.5q-127 -64 -127 -180q0 -52 36 -175q-240 31 -436 182q-134 104 -205 221
q8 2 22.5 2t55.5 -13.5t52 -15.5q34 -78 101 -78t76 76q1 8 1 16q0 32 -19 59q-24 34 -72.5 34t-92.5 -66q-62 15 -142 37q-74 309 -100 401q65 -97 115 -130t154 -33q25 0 79 1q-13 218 -330 244l11 44h-86l-22 -44q-15 -4 -38 -4t-81 15.5t-87 15.5q-108 0 -189 -157
q118 -24 225 -24t156 52q-2 -11 -24 -64q-90 -54 -226 -104.5t-231 -69.5l-59 178q-65 141 -182 141q-21 0 -44 -4q-7 -66 -7 -102q0 -78 46 -120l162 -116q-105 -4 -215 -4t-207 10q-15 105 -87.5 196t-171.5 121q-16 -36 -16 -93.5t40.5 -132t90.5 -117.5
q-139 -22 -174 -39q-74 -34 -111 -135q47 -44 120 -44t159 58t144 127h359q-156 -62 -203 -260q32 -36 71 -36q80 0 181 134q71 95 110 187q177 37 431 159q-77 -144 -228 -436q-97 31 -174 31q-131 0 -217 -92q70 -86 158.5 -86t189.5 50q-23 -41 -76 -139
q-180 -333 -373 -341q-13 -1 -25 0q-171 0 -204 110q-15 52 -15 101.5t27.5 96t81.5 46.5h28.5t42.5 -39q2 -8 2 -16l-15 -65q0 -14 17.5 -17.5t27.5 22.5t10 45q0 75 -83 120q-57 31 -89 43q-25 9 -72 9q-12 0 -26 -1q-37 55 -98 55q-34 0 -59 -17q-74 -50 -74 -162
q0 -206 258 -322q112 -50 225.5 -50t190.5 62l1 -15q-103 -116 -265 -289q-56 6 -107 56q-85 84 -96 92q-69 47 -173 47q-2 -9 -2 -25t16.5 -58.5t16.5 -63t-10 -37.5q-80 0 -168 -47q18 -43 91.5 -81.5t90.5 -63.5q-74 -62 -150 -240q8 -1 17 -1q99 0 272 93q2 -20 2 -52
v-49q0 -113 25 -168q37 12 78 88t70 76q21 -5 56.5 -48.5t66.5 -51.5q22 66 22 120.5t-4 87.5q31 8 107.5 11.5t110.5 24.5q-36 109 -115 160q-40 27 -112.5 47t-72.5 47q290 291 496 614q15 -141 113 -546q-83 -48 -141.5 -135.5t-58.5 -168.5t42 -140q171 67 192 372
q58 -166 189 -449q-35 17 -94 17t-130 -34q6 -37 63.5 -76t71.5 -58q-76 -35 -133 -154q21 -31 55.5 -31t76.5 11l60 15q-10 -76 -29 -211h7q42 0 86 35q13 11 84 72q29 -12 73.5 -69t68.5 -70q25 16 38 125.5t15 117.5q14 4 32 4z" />
    <glyph glyph-name="Ograve" unicode="&#xd2;" horiz-adv-x="700" 
d="M566 -20h-120v1218h120v-1218zM236 -20h-120v1218h120v-1218z" />
    <glyph glyph-name="Uacute" unicode="&#xda;" horiz-adv-x="910" 
d="M499 395.5q-39 40.5 -94 40.5t-96 -40.5t-41 -95.5t38.5 -93.5t93.5 -38.5q90 0 126 74q12 24 12 68.5t-39 85zM502 508q130 -61 130 -210q0 -52 -20 -96q-59 -130 -210 -130q-52 0 -96 20q-132 59 -132 210q0 49 22 96q62 132 210 132q49 0 96 -22zM493 1025.5
q-39 40.5 -94 40.5t-96 -40.5t-41 -95.5t38.5 -93.5t93.5 -38.5q90 0 126 74q12 24 12 68.5t-39 85zM496 1138q130 -61 130 -210q0 -52 -20 -96q-59 -130 -210 -130q-52 0 -96 20q-132 59 -132 210q0 49 22 96q62 132 210 132q49 0 96 -22z" />
    <glyph glyph-name="circumflex" unicode="&#x2c6;" 
d="M-230 1604q52 0 91 -39t39 -91t-39 -91t-91 -39t-91 39t-39 91t39 91t91 39z" />
    <glyph glyph-name="tilde" unicode="&#x2dc;" 
d="M-402 -684v84q112 44 112 168q0 47 -38 92q-55 66 -168 66t-168 -66q-38 -45 -38 -92q0 -124 112 -168v-84q-198 66 -198 256q0 81 66 155q67 75 180 79v134h90v-134q115 -4 182 -79q66 -74 66 -155q0 -190 -198 -256z" />
    <glyph glyph-name="Ntilde" unicode="&#xd1;" 
d="M-252 1344h-2q-24 0 -52 79q-30 82 -36 89q-30 27 -118 28l-128 -2h-19q-72 0 -207 6q-56 8 -83.5 70t-29.5 152v30q0 60 7 60q24 0 35.5 -38.5t25 -89.5t51.5 -72q18 -10 137.5 -10t236 -5.5t156.5 -60.5q16 -22 27 -87.5t11 -106.5t-12 -42zM-573 1470q35 0 61 -26
t26 -61t-26 -61t-61 -26t-61 26t-26 61t26 61t61 26z" />
    <glyph glyph-name="copyright" unicode="&#xa9;" horiz-adv-x="1664" 
d="M204 714q0 -168 84 -313.5t230 -230t314 -84.5t313.5 84t230 230t84.5 314t-84 313.5t-230 230t-314 84.5t-313.5 -84t-230 -230t-84.5 -314zM193 352q-95 169 -95 363t97.5 365t268.5 269.5t367 98.5t367 -97.5t269.5 -268.5t98.5 -365.5t-94.5 -363.5t-265.5 -271
t-373.5 -102t-373.5 101.5t-266 270.5zM1080 314q-109 -48 -218 -48q-188 0 -291 117t-103 326t108.5 330t293.5 121q127 0 246 -60l-58 -122q-104 52 -186 52q-116 0 -182 -83.5t-66 -234.5t57 -233.5t189 -82.5q93 0 210 46v-128z" />
  </font>
</defs>
</svg>
