<?xml version="1.0" standalone="no"?>
<!DOCTYPE svg PUBLIC "-//W3C//DTD SVG 1.1//EN" "http://www.w3.org/Graphics/SVG/1.1/DTD/svg11.dtd" >
<svg xmlns="http://www.w3.org/2000/svg" xmlns:xlink="http://www.w3.org/1999/xlink" version="1.1">
<metadata>
Created by FontForge 20161004 at Wed Jun 14 16:15:39 2017
 By Sarabveer
Copyright (C) 2016-2017 Sarabveer Singh (https://sarabveer.me); Copyright (C) 2009 Albel Singh, 64 Cranbrook Road, Handsworth, Birmingham, B21 8PG
</metadata>
<defs>
<font id="PrabhkiTrue-Regular" horiz-adv-x="20" >
  <font-face 
    font-family="PrabhkiTrue"
    font-weight="400"
    font-stretch="normal"
    units-per-em="2000"
    panose-1="3 0 5 7 0 0 0 2 0 4"
    ascent="1600"
    descent="-400"
    x-height="50"
    cap-height="1850"
    bbox="-1086 -823.211 2648 1882.03"
    underline-thickness="100"
    underline-position="-650"
    unicode-range="U+0020-2039"
  />
<missing-glyph horiz-adv-x="1000" 
d="M250 125h500v950h-500v-950zM125 0v1200h750v-1200h-750z" />
    <glyph glyph-name=".notdef" horiz-adv-x="1000" 
d="M250 125h500v950h-500v-950zM125 0v1200h750v-1200h-750z" />
    <glyph glyph-name="space" unicode=" " horiz-adv-x="700" 
 />
    <glyph glyph-name="exclam" unicode="!" horiz-adv-x="964" 
d="M460 -28l-29 66q-2 -1 -4 -1h-6q-4 9 -4 17q0 23 31 45q3 5 7 11q16 25 33.5 37t28 20q11.5 7 25.5 17q32 21 59 27h6q2 -2 1 -5q10 -9 18.5 -21q8.5 -13 15.5 -21q8 -10 8 -21.5t-5 -17.5q4 1 11.5 4t16.5 6t13 3q5 -1 -21 -25l-10 -16q-3 -10 -18 -21q-15 -10 -31 -24
q-65 -53 -104 -62q-42 -25 -42 -18zM668 118q6 7 3.5 4.5t-3.5 -4.5zM615 77l6 4zM626 84q-1 0 -2 -1q1 1 2 1zM404 1463q-17 -82 -17 -182q0 -212 75 -505q4 102 4 192q0 338 -62 495zM586 381v-52q0 -35 -134 -93q-12 -6 -12 -3v54q-164 401 -202 823q-5 51 -5 97
q0 234 115 366q15 18 54 44q64 41 81 41q4 0 6 -2q64 -57 90 -183q26 -127 29 -238.5t3 -202.5t-4 -178q-5 -87 -9 -174q-12 -213 -12 -299z" />
    <glyph glyph-name="quotedbl" unicode="&#x22;" horiz-adv-x="860" 
d="M415 1661q-2 2 24.5 28t46.5 42.5t39 28.5q32 21 47 21q6 0 10 -3q133 -108 133 -287q0 -53 -12 -113q-44 -224 -193 -401q-45 -62 -148 -103q-10 -4 -14 -2.5t21.5 32t62 93.5t63.5 133t41 143q9 48 8 95q0 24 -2 48q-15 152 -127 245zM104 1576q-7 0 21.5 24.5t44 37.5
t28 22.5t26.5 17.5q33 20 46 14q146 -44 166 -181q3 -20 2 -41q0 -98 -58 -226q-59 -128 -148 -221q-55 -48 -101.5 -69t-48 -17.5t15.5 23.5q80 78 130 204q39 100 39 180q-1 96 -57 164q-38 44 -106 68z" />
    <glyph glyph-name="numbersign" unicode="#" horiz-adv-x="1550" 
d="M1047 1052v-34q0 -142 -14 -294q171 -20 307 -145q7 -5 -28 -44.5t-38 -43t-14.5 -15q-11.5 -10.5 -23.5 -22.5q-31 -28 -42 -20q-87 76 -183 111q-49 -339 -73 -371q-19 -27 -43 -44.5t-28.5 -22t-14.5 -13t-21 -16.5q-31 -21 -27 -6q58 278 79 503q-27 3 -53 2
q-41 0 -82 -6q-9 -67 -28 -174.5t-43 -245.5q-6 -36 -87 -99q0 -5 -21.5 -19t-31 -17.5t-7.5 4.5q24 138 47 269.5t35 248.5q-164 -54 -368 -196q-23 -15 -26 -10q-2 5 18 32q28 37 104 103q159 111 280 169q5 71 5 141q0 58 -3 114q-205 -106 -495 -312q-23 -15 -26 -10.5
t17 31.5q24 32 106 103q212 156 392 261q-13 106 -46 206q-1 3 -1 6q0 27 69 86q40 34 59.5 44.5t19.5 7.5q44 -128 53 -266q56 29 118 56l-26 201q0 24 49 69q11 10 13.5 12.5t16 14t28.5 23.5q40 31 40 22q26 -139 34 -280q120 39 219 39q74 0 137 -22q3 1 -20 -27
q-44 -53 -44 -58q-52 -60 -77 -60q-3 0 -6 1q-60 18 -128 18q-37 0 -77 -5zM894 1015q-50 -17 -120 -50v-42q0 -110 -12 -232q73 23 132 31q4 78 3 154q0 71 -3 139z" />
    <glyph glyph-name="dollar" unicode="$" horiz-adv-x="986" 
d="M687 369q4 -107 4 -178q0 -127 -12 -143q-25 -34 -95 -71q-10 -5 -10 -4q3 74 3 157q0 90 -4 190q-66 -20 -129 -20q-120 0 -230 70q-55 35 -97 100q-70 109 -70 278q0 24 1 49q0 20 22 36l25 19q9 9 35 23.5t26 13.5v-17v-20q0 -281 180 -396q98 -63 218 -63q8 0 16 1
q-6 130 -16.5 270.5t-14.5 203.5l-28 7t-55 18t-48.5 22.5t-31.5 24.5q-29 29 -35 82q-1 10 -1 21q0 43 18 87q35 89 149 176q12 9 24 17q8 182 17 195q9 12 17 20q15 14 22.5 19t17 11.5q9.5 7.5 20.5 13.5q30 18 30 15q-13 -114 -16 -228q19 4 37 3q81 0 140 -71
q6 -6 -27.5 -37t-46.5 -40q-31 -21 -34.5 -16.5t-8.5 8t-18.5 17.5t-42.5 29q1 -129 12 -302q60 -15 87.5 -31t55.5 -43q27 -27 51 -60q67 -93 67 -176q0 -89 -78 -165q-66 -70 -146 -116zM660 812q18 -238 25 -397q7 2 18 5q23 5 51 21l-1 -2l1 1q7 5 11.5 13.5t9.5 17.5
t7 22q13 34 13 70q0 103 -107 223q-13 14 -28 26zM533 996q-4 102 -4 194q0 45 1 87q-21 -5 -35 -12q-7 -12 -14 -23q-7 -12 -15 -32q-16 -40 -16 -75q0 -13 2 -25q14 -79 81 -114z" />
    <glyph glyph-name="percent" unicode="%" horiz-adv-x="1628" 
d="M761.5 380.5q42.5 35.5 80.5 67.5q52 43 172 104q36 14 40 6q5 -9 -34 -39q27 8 55 13h9q0 -24 0.5 -48.5t-2.5 -49.5q-7 -55 -37 -94q-67 -74 -204 -143l-72 -36q-43 -29 -61 -29q-8 0 -11 5q-12 17 -22.5 38.5q-10.5 20.5 -14.5 42.5q-1 9 -1 18q0 37 26 66
q34 43 76.5 78.5zM560 1396q9 27 13.5 42.5t9.5 21.5t12 12q16 12 28 16q23 20 46 32t46 26q0 8 33.5 22t48 17t11.5 -7q-9 -25 -17 -51q47 20 80 21q27 0 44 -14q20 -17 20 -40q0 -51 -101 -132q-100 -81 -249 -136q-39 -18 -39 -14q-10 29 -10 63q0 24 5 50
q-14 -8 -30 -16.5t-33 -19.5q-12 -1 -18 -1q-16 0 -6 8q47 53 106 100zM1252 1553q37 47 138 96q0 5 35 19q46 18 56 18q3 0 3 -1t-2 -4q-141 -188 -283.5 -376t-279.5 -379q-309 -430 -510 -784q-22 -34 -71 -60q-139 -75 -158 -75q-3 0 -3 2t2 4q289 508 787 1164
q142 188 286 376zM957 442q23 16 29 26.5q6 9.5 -4 7.5q-13 -4 -25 -34z" />
    <glyph glyph-name="ampersand" unicode="&#x26;" horiz-adv-x="1140" 
d="M182 1058l-49 11h-180l114 100h174q15 -11 55 -11h270q16 11 57 11h106q42 0 57 10h132l15 10v-10h16l57 10q34 0 57 10l-114 -99q-11 -9 -24 -10v-42q-9 -18 -9 -60q-8 -21 -8 -50q15 -17 -3 -37.5t-34.5 -29.5t-33.5 -15t-33.5 -6t-24 7t-13.5 9.5t-12 10.5
q-10 12 -42 12l-48 9q-13 8 -32 4t-42.5 -4t-41.5 -9q-46 0 -73 -13q-18 0 -35.5 -6t-36.5 -13t-37.5 -11t-35.5 -19q-36 0 -60 -40q-14 -18 -25.5 -46.5t-18 -44t-12.5 -30.5q0 -47 -7 -71v-59l7 -71q6 -14 8 -28.5t8 -30.5q13 -16 21 -25.5t19 -25.5q14 -6 26 -19.5
t25 -22.5q18 -6 33 -12t32 -6h74q25 -8 44.5 -8t43.5 8q26 0 71 11q-37 18 -62 59q-32 37 -32 81q-7 21 -7 38.5t7 37t16.5 34.5t15.5 30q45 31 84 59.5t88 50.5q15 11 49 11h57q41 0 55 -9t31 -16.5t28 -15.5q5 -7 16 -16.5t17 -23t7.5 -30.5t8.5 -39q-7 -15 -9.5 -36
t-12 -32t-16 -20t-12.5 -17q-13 -17 -32 -25q-48 -39 -92.5 -72t-94.5 -71q-24 -6 -45 -19t-45 -20.5t-48.5 -15t-49.5 -15t-49.5 -10t-48.5 -9.5h-90q-58 0 -83 10q-20 0 -48 13.5t-40 26t-25 20.5q-57 66 -57 120q-7 21 -7 70v140q6 17 11 31.5t12 29.5q19 41 34 61
q14 41 56 75q10 8 17 15q78 56 96 66t24.5 14t22.5 15q19 14 53.5 28.5t52 17t36.5 10t37 10t36 10.5l75 10q38 0 65 9h49q19 -6 33 -8v50q6 14 7 40h-24q-12 0 -25.5 3.5t-31.5 -3.5h-50q-14 -10 -56 -10h-108q-40 0 -55 -11h-278zM79 298q23 -25 23 -58t-25.5 -57t-58 -24
t-56.5 25t-24 58.5t26 56t59 23.5h3q31 0 53 -24zM788 882l-10 -6q0 -7 0.5 -8.5t7.5 -1.5q0 5 2 16zM778 607q-32 0 -49 10h-59q-8 -5 -16 -8q-15 -27 -15 -83q15 -59 31 -80q39 -39 67 -51q41 0 55 11l-68 -67q11 4 28 9t33 15q28 18 40.5 33t25.5 31q6 14 12.5 29
t11.5 30l-7 60q-7 8 -16.5 15.5q-9.5 6.5 -19.5 14.5q-14 12 -54 31zM792 406q6 4 11 10zM674 635l14 10q-7 -4 -14 -10zM830 392q10 6 24 18zM313 838h-2l-2 -2z" />
    <glyph glyph-name="quotesingle" unicode="'" horiz-adv-x="500" 
d="M104 1576q-7 0 21.5 24.5t44 37.5t28 22.5t26.5 17.5q33 20 46 14q146 -44 166 -181q3 -20 2 -41q0 -98 -58 -226q-59 -128 -148 -221q-55 -48 -101.5 -69t-48 -17.5t15.5 23.5q80 78 130 204q39 100 39 180q-1 96 -57 164q-38 44 -106 68z" />
    <glyph glyph-name="parenleft" unicode="(" horiz-adv-x="772" 
d="M552 1672q0 6 27.5 22t38 19.5t6.5 -5.5q-16 -38 -78 -84q-5 -3 -9 -7q0 -1 -6 -7q-56 -60 -90 -139q-38 -70 -99 -252q-84 -293 -84 -584q0 -117 13 -231q53 -456 291 -620q66 -46 148 -61q6 0 6 -5q0 -12 -39 -52q-97 -101 -127 -101h-4q-174 30 -288 187
q-147 202 -175 562q-5 70 -5 143q0 190 36 398q60 346 230 595q86 128 208 222z" />
    <glyph glyph-name="parenright" unicode=")" horiz-adv-x="772" 
d="M238 1702q256 -180 392 -508q120 -288 138 -662q1 -30 1 -59q1 -317 -103 -553q-84 -194 -238 -290q-80 -50 -183 -66q-3 -1 -5 -1q-30 0 -100 64q-18 16 -24 21.5t-18 17t-24 24.5q-30 34 -12 34q172 30 294 176q152 182 196 516q15 118 15 236q0 293 -94 590
q-111 306 -216 401q-3 4 -16.5 13.5q-14.5 9.5 -30.5 23.5q-39 32 -52 60q-9 14 21 -1q59 -30 59 -37z" />
    <glyph glyph-name="asterisk" unicode="*" horiz-adv-x="802" 
d="M660 1211q-7 63 -40 63h-3q-8 0 -17 -4l2 1q4 8 -4.5 0t-11 -11t-7.5 -6q-52 -48 -115 -128q3 0 21 2q23 3 43 3q45 0 77 -14q45 -19 61 -54.5t18.5 -57.5t-1.5 -27q-5 -4 -11 -10q-11 -9 -16.5 -12.5t-12.5 -8t-15.5 -9t-15 -8t-6.5 -1.5q-16 102 -80 128q-29 11 -60 13
l4 -20.5q4 -20.5 7 -62.5q1 -17 1 -33q0 -75 -27 -128q-7 -13 -40.5 -32t-37.5 -20.5t-2 1.5q23 45 23 122q0 57 -13 133q-140 -146 -280 -146q-27 0 -53 5q-3 0 10 11t18.5 16t10.5 8t18 13t35 6q26 -5 50 -5q54 0 96 26q28 18 89 101l-18.5 -1.5q-18.5 -1.5 -58.5 -3.5
h-18q-31 0 -59 5q-85 16 -118 84q-5 9 23 27q48 31 56 31h1q44 -89 173 -89h10q-11 72 -11 122q0 42 7 69q17 61 48.5 95.5t51.5 48.5t27 19q7 6 15 10q21 12 22.5 8.5t-3.5 -8.5t-11.5 -10.5q-7.5 -5.5 -13.5 -10.5q-9 -7 -9.5 -7.5t-2.5 -3t-5.5 -6.5t-7.5 -10
q-33 -54 -33 -109q-2 -17 -2 -38q0 -53 13 -126q96 107 214 165q21 10 42 6q34 -7 34 -63q2 -9 -15.5 -20.5t-19.5 -13t-9 -6t-15.5 -9t-15 -8t-6.5 -1.5z" />
    <glyph glyph-name="plus" unicode="+" horiz-adv-x="1242" 
d="M524 618q-172 -25 -312 -26q-67 0 -126 6q-19 0 1 28q38 52 46 52q70 85 119 85q61 -5 124 -5q68 0 139 6q-2 49 -2 88q0 70 7 107q11 58 28.5 99t47 82t64.5 76q70 70 152 110q26 17 33.5 7.5t-15.5 -36.5q-37 -64 -102 -104q-2 -4 -6.5 -13.5t-11.5 -37.5
q-16 -63 -16 -148.5t5 -137.5t6 -69q117 19 236 45t232 48q10 0 10 -8q1 -16 -43 -66q-70 -82 -133 -92q-115 -25 -187.5 -40.5t-101.5 -21.5q8 -91 8 -147q0 -109 -15.5 -164t-35.5 -94.5q-21 -39.5 -47 -73.5q-47 -61 -117 -115q-2 0 -16 -8.5t-29 -17t-25.5 -11.5t-6.5 8
q9 41 70 92q7 10 7 23q17 31 17 65q12 51 12 151t-6.5 161t-9.5 97z" />
    <glyph glyph-name="comma" unicode="," horiz-adv-x="700" 
d="M416 176q76 -54 76 -162.5t-89.5 -203t-172.5 -132.5l-18 42q160 99 172 220q2 20 6 62q-17 19 -81.5 20t-86.5 8q-47 15 -52 68q-1 6 -1 12q0 46 35 72q39 30 100.5 30t111.5 -36z" />
    <glyph glyph-name="hyphen" unicode="-" horiz-adv-x="1048" 
d="M132 538v122h772v-122h-772z" />
    <glyph glyph-name="hyphen" unicode="&#x2010;" horiz-adv-x="1048" 
d="M132 538v122h772v-122h-772z" />
    <glyph glyph-name="period" unicode="." horiz-adv-x="580" 
d="M381.5 192.5q38.5 -39.5 38.5 -92t-39 -89.5t-91 -37t-90 37t-38 90t37 92t90.5 39t92 -39.5z" />
    <glyph glyph-name="slash" unicode="/" horiz-adv-x="644" 
d="M110 -30h-120l546 1440h120z" />
    <glyph glyph-name="zero" unicode="0" horiz-adv-x="1280" 
d="M638 1115q-166 -74 -254 -223q-62 -105 -63 -217q0 -54 15 -110q53 -204 233 -264q63 -21 109 -21q17 0 32 3q56 10 88.5 34t60 61.5t46.5 83t30.5 95.5q12.5 49 16.5 99q3 34 3 66q0 232 -166 342q-76 47 -151 51zM456 1042q-22 -8 -28.5 -4.5t16.5 26.5q90 77 151 103
q78 33 144 33q35 0 65 -9q154 -46 226 -183q42 -81 42 -203q0 -37 -4 -77q-19 -195 -135 -337q-88 -107 -231 -160q-81 -30 -150 -30q-71 0 -130 31q-98 44 -156 142q-54 93 -56 203q0 4 -1 7q0 266 247 458z" />
    <glyph glyph-name="one" unicode="1" horiz-adv-x="1040" 
d="M604 754q18 27 59 60q1 23 1 44q0 206 -85 251q-43 23 -87 23q-36 0 -72 -16q-82 -35 -100 -130q-3 -20 -3 -39q0 -76 50 -139q33 -41 75.5 -61.5q41.5 -20.5 69.5 -24.5q12 -2 23 -2q47 0 69 34zM658 746q-76 -77 -182 -97q-25 -5 -47 -5q-70 0 -128 42q-39 28 -66 80
q-26 49 -26 98q1 3 1 6q2 53 23.5 102.5t59.5 92.5q39 43 85 76q99 70 178 74q10 1 20 1q64 0 100 -24q40 -27 63 -73.5t31 -106.5q6 -45 5 -93q-1 -16 -1 -31q-4 -105 -19.5 -175t-25.5 -110.5t-19.5 -89.5t-14.5 -99q-2 -21 -2 -40q0 -26 4 -48q12 -63 59 -64q17 0 37 8
q19 9 14 0.5t-19 -22.5q-38 -38 -57 -45t-38 -13t-37 -6q-1 0 -2 -1q-68 0 -69 115q1 6 1 13q2 80 22 169q40 181 50 266z" />
    <glyph glyph-name="two" unicode="2" horiz-adv-x="1196" 
d="M329 858q6 -11 -30 -37q-54 -40 -68 -40q-3 0 -4 2q-25 45 -25 89q0 50 32 102q48 75 148 130q132 87 257 87q17 0 35 -2q52 -5 105 -37.5t86 -84.5t42 -112q4 -26 4 -54q-1 -35 -7 -71q-12 -64 -36 -127q-54 -137 -154 -249q39 -50 79 -96q85 -72 133 -72q8 0 16 15.5
t16.5 29.5t29 30t35.5 28q3 0 9.5 2q6.5 3 12.5 3q14 1 7 -13q-38 -69 -104 -127q-60 -47 -115 -47q-45 0 -86 32q-51 36 -84.5 76t-40.5 50q-87 -73 -187 -119q-43 -16 -83 -16q-39 0 -77 15q-52 21 -70 77q-6 19 -6 42q-1 50 27 117q61 148 185 198q18 6 37 6
q72 0 151 -88q47 -53 91 -112q126 183 126 343q0 21 -2 42q-10 104 -92 174q-73 63 -173 63q-40 0 -85 -10q-18 -6 -39 -12t-41 -15q-86 -39 -86 -112q0 -44 31 -100zM358 606q-3 -3 -7 -8t-9 -16.5t-13.5 -27q-8.5 -14.5 -13.5 -34.5q-16 -62 -16 -96q0 -8 1 -14
q17 -51 53 -78t82 -27q88 10 169 82q-7 9 -21.5 28.5t-33 43q-19.5 23.5 -41.5 51.5q-78 97 -137 97q-7 0 -13 -1zM925 276l-3 -2zM947 290l1 1z" />
    <glyph glyph-name="three" unicode="3" horiz-adv-x="1212" 
d="M547 807l100 1q120 14 171 62q25 23 25 52q0 31 -31 69q-88 105 -262 119q-27 2 -52 3q-72 0 -123 -20q-68 -26 -102 -55q-3 0 -12 -5.5t-19 -11.5q-26 -16 -29.5 -10t2.5 14q6 9 15 17q22 20 29 20q157 132 360 132q18 0 36 -1q273 -48 287 -185v-7q0 -99 -165 -202
q157 -23 208 -123q20 -39 20 -82q0 -37 -16 -76q-54 -158 -206 -246q-125 -73 -259 -74q-20 0 -40 2q-35 0 -59 4q-45 -72 -113 -128q-106 -88 -189 -125q-33 -16 5 24q36 38 72 53.5t80 60.5q62 64 80 138q-35 21 -68 75q-15 25 -15 45q0 8 2 14q8 25 30 48.5
q23 23.5 49 37.5q27 14 47 14q29 0 46 -28q22 -44 22 -75v-8q-3 -33 -6 -46q20 -11 45 -11q56 -12 114 -12q41 0 84 6q62 4 118 56q72 67 71 181q0 99 -66 142q-93 55 -250 56q-35 -6 -69 -6q-29 0 -57 4q-11 0 17 30q53 57 73 57z" />
    <glyph glyph-name="four" unicode="4" horiz-adv-x="1112" 
d="M312 710q-148 27 -148 152v9q0 117 88 221q85 99 183 100q9 0 17 -1q13 0 -4 -20t-17 -23q-11 -4 -27 -15q-28 -20 -40 -20q-25 5 -37 -1t-25 -28q-19 -31 -30 -79q-9 -36 -9 -67q0 -102 98 -140q59 -23 115 -24q10 0 20 1q81 6 141 15q-3 -3 -5.5 -5t-10 -9
q-7.5 -6 -13.5 -14q-15 -18 0.5 -19.5t32.5 -4.5q-90 -32 -201 -37q5 3 13 9q59 46 58 57q0 4 -6 4q-98 0 -193 -61zM440 701q-24 -1 -44 -1q-35 0 -55 4l-31 4q-95 -62 -139 -158q-32 -64 -32 -128q1 -30 7 -60q23 -100 110 -147q42 -21 110 -21q57 0 133 15
q145 29 293 163q94 90 118 195q6 26 5 51q1 54 -29 102q-39 62 -114 86q-57 -43 -131 -68q103 -22 147 -104q23 -43 22 -90q0 -60 -36 -129q-54 -99 -195 -135q-57 -15 -107 -15q-70 0 -128 29q-58 32 -86 98q-18 42 -18 87q0 21 4 43q0 66 46 128q24 40 92 42q18 0 31 1
q14 0 27 8zM776 809q-3 -3 -14.5 0.5t-30.5 7.5q44 23 58 56q32 74 32 118q3 25 3 44q0 38 -12 56q-20 29 -51 29q-22 0 -49 -15q-5 -5 -15.5 -8t-13 -1.5q-2.5 0.5 5.5 16.5q15 28 95 68q42 21 72 21q32 0 52 -23q19 -35 19 -82q0 -40 -14 -89q-32 -118 -137 -198zM731 817
q-19 4 -33 4q-22 0 -33 -9q-18 -13 -28 -22q59 9 94 27z" />
    <glyph glyph-name="five" unicode="5" horiz-adv-x="1140" 
d="M855 1116q-1 20 51 50q52 31 53 17v-194q1 -361 -51 -568q-96 -386 -392 -640q-7 -3 -15.5 -9t-17.5 -12t-18 -11t-17 -5t-5.5 6t9 13.5t14 15.5t9.5 11q238 198 321 550q-87 -105 -210 -121q-17 -2 -34 -2q-112 1 -212 87q-102 88 -155 223q-1 3 -1 7q0 23 48 49
q0 1 2.5 4t6.5 8t8 12q8 14 18 26q11 23 21 45.5t24 56.5q39 97 45 149t6 90.5q-1 37.5 -11 67.5q-17 47 -55 48q-19 0 -43 -12q-15 -11 -19.5 -3.5t7.5 21.5q40 44 104 66q26 9 46 9q44 0 63 -40q13 -35 13 -84q0 -89 -42 -219q-46 -141 -135 -227q63 -173 195 -257
q75 -48 162 -48h16q48 2 67 24.5t33 51.5t24 60q13 44 26 125q0 12 22 30q19 177 19 529z" />
    <glyph glyph-name="six" unicode="6" horiz-adv-x="1008" 
d="M921 1415q2 -3 -9.5 -19t-28.5 -32q-32 -30 -49 -30q-6 0 -10 4q-36 26 -56 26q-8 0 -14 -4q-26 -22 -26 -47q-20 -51 -33 -102q110 -20 129 -112q4 -17 4 -34q0 -55 -41 -111q-46 -63 -100 -64q-9 0 -18 2q-93 8 -93 141q0 23 3 49q4 23 10 45q-26 5 -55 5
q-83 0 -190 -44q-64 -26 -88 -78q-6 -14 -6 -32q0 -17 6 -39q32 -117 164 -137q103 46 195 46q45 0 88 -11q9 -6 -19 -33q-50 -49 -70 -56q-140 -41 -235 -41q-22 0 -42 2q-79 -53 -95 -157q-3 -20 -3 -38q0 -96 84 -162q60 -48 116.5 -48.5t95 15t72.5 41.5q55 43 121 135
q15 23 43.5 39.5q28.5 17.5 36.5 19.5q19 6 3 -20q-121 -174 -261 -262q-84 -53 -168 -52q-68 0 -137 34q-107 54 -107 167v11q9 166 151 287q-73 23 -111 84q-26 42 -26 87q0 30 12 62q15 38 64.5 89.5t129.5 100.5q121 74 259 75q35 91 92 144q58 58 93 71q26 10 49 10
q38 0 70 -27zM728 982l-5 44q-15 35 -41 58q7 -86 46 -102z" />
    <glyph glyph-name="seven" unicode="7" horiz-adv-x="1238" 
d="M413 891q5 -12 -28 -37q-47 -37 -63 -37q-5 0 -7 4q-34 49 -34 96q-1 91 123 181q140 102 302 101q150 0 218 -90q24 -33 36 -91q5 -25 6 -51q0 -35 -10 -73q-16 -67 -50 -130q-72 -138 -252 -318q-163 -163 -320 -233q-14 -10 -17 -5q-11 14 22.5 39.5t53.5 30.5
q137 61 293 258q132 136 171 277q12 43 12 82q-1 66 -35 120q-51 79 -148 101q-33 7 -59 8q-11 0 -21 -2q-34 -4 -60.5 -7.5q-26.5 -4.5 -53.5 -10.5q-110 -26 -110 -118v-12q2 -40 31 -83z" />
    <glyph glyph-name="eight" unicode="8" horiz-adv-x="1286" 
d="M642 1008q213 11 462 135q37 10 12 -17q-45 -45 -78 -63q-223 -97 -331 -119q-95 -19 -173 -19q-23 0 -46 2q-15 -80 -58 -156q-56 -99 -111 -150q53 -39 127 -165q46 -78 80.5 -108.5t60.5 -44.5q46 -25 94 -25q47 0 95 22q64 30 113 94q24 31 47 67q10 23 29.5 37
t29.5 19.5t18 9t15.5 5.5t11.5 1t-11 -25.5t-48 -67t-72.5 -82.5t-84.5 -74t-92 -57q-70 -34 -133 -34q-121 0 -219 123q-56 70 -78 107q-67 118 -129 131q-10 0 -21 2q-8 0 23 30q59 57 76.5 57t30.5 -4q4 2 17 28q17 17 28 40.5q11 24.5 25 56.5q25 56 43 148v31
q-127 36 -152 104q-2 6 -2 13q1 36 67 85q39 29 71 29q11 2 21 2q58 0 82 -56q16 -37 16 -93q68 -19 144 -19zM300 1090q-10 2 -9 1q1 -2 9 -1z" />
    <glyph glyph-name="nine" unicode="9" horiz-adv-x="1272" 
d="M783 1039q-31 40 -35 100q0 193 184 357q79 71 120 75h11q33 0 53 -19q22 -22 32 -79q0 -28 -40 -57.5t-70 -44.5q-18 105 -59 105q-6 0 -13 -3q-11 -4 -15 -5t-5.5 -1.5t-2.5 -3q-1 -3.5 -12 -13.5q-22 -21 -46 -79.5t-26 -110.5v-10q-1 -44 15 -80q36 -82 143 -105
q9 -1 -22 -35q-61 -66 -80 -66q-77 0 -212.5 -21.5t-163 -23t-31.5 -2.5q-11 -178 -132 -283q9 -21 25 -73q34 -105 63 -141q115 -121 284 -121q82 7 135 53.5t76 150.5q8 26 32.5 46t35 28.5t20.5 13.5t16.5 5t3.5 -11q-31 -147 -145 -255q-132 -126 -292 -125q-32 1 -64 5
q-171 26 -242 186q-22 49 -40.5 102.5t-29.5 72.5q-21 -4 -43 -4q-12 0 -25 1q-4 5 3.5 21.5t28 44t44.5 46.5q29 23 52 23q25 0 42 -28q4 1 5 2q2 1 4 4t6 11q12 24 12 41q16 37 16 102q2 22 2 44q0 15 -1 31q-157 1 -205 92q-2 2 -2 5q0 14 34 58q43 55 73 81q51 45 91 44
q39 0 69 -42q29 -42 35.5 -83.5t8.5 -55.5h2q88 0 277 30zM294 1083q-3 -3 -6 -8q4 4 6 8zM362 1040q-20 33 -44 44h-3q19 -29 47 -44z" />
    <glyph glyph-name="colon" unicode=":" horiz-adv-x="800" 
d="M359 31q-33 33 -33 80.5t33.5 80t80 32.5t79.5 -33t33 -79.5t-32.5 -80t-80 -33.5t-80.5 33zM359 871q-33 33 -33 80.5t33.5 80t80 32.5t79.5 -33t33 -79.5t-32.5 -80t-80 -33.5t-80.5 33z" />
    <glyph glyph-name="semicolon" unicode=";" horiz-adv-x="700" 
d="M259 871q-33 33 -33 80.5t33.5 80t80 32.5t79.5 -33t33 -79.5t-32.5 -80t-80 -33.5t-80.5 33zM396 176q76 -54 76 -162.5t-89.5 -203t-172.5 -132.5l-18 42q160 99 172 220q2 20 6 62q-17 19 -81.5 20t-86.5 8q-47 15 -52 68q-1 6 -1 12q0 46 35 72q39 30 100.5 30
t111.5 -36z" />
    <glyph glyph-name="less" unicode="&#x3c;" horiz-adv-x="2168" 
d="M1019 1100q-37 -134 -37 -248q0 -152 66 -271q104 -154 252 -217q70 -30 148 -30q43 0 87 10q115 24 175 106q42 58 41 136q0 26 -4 54q-16 102 -86 177q-64 69 -152 74q-89 -30 -175 -49q-22 -5 12 22q35 28 42 28q108 62 202 67q146 57 180 141q6 13 -39 19
q-80 10 -161 9q-33 0 -66 -1q-114 -5 -196 -11q-210 -14 -289 -16zM1035 1151q27 21 51 21q99 0 199 7t200 13t199.5 6t197.5 -14q5 -5 0 -5q-46 -130 -224 -224q27 -6 52 -18q137 -79 150 -232q4 -27 4 -52q0 -127 -103 -211q-126 -122 -279 -164q-64 -17 -126 -17
q-76 0 -148 26q-211 75 -297 313q-41 113 -41 213q0 27 3 53q14 124 52 225.5q39 101.5 103 189.5q196 268 574 344q88 18 169 18q131 -1 247 -47q96 -38 166 -120q9 -11 -26 -34q-56 -35 -75 -35q-4 0 -6 2q-145 157 -403 165h-28q-233 0 -402 -125q-143 -109 -209 -298z
M846 170q37 29 64.5 35t27 3t-4 -8t-8 -10t-4.5 -8q-126 -82 -188 -82q-10 0 -19 2q-54 14 -76 104q-10 39 -10 91q-10 72 -10 166q0 109 14 248q6 69 9.5 109t4.5 52q-138 -88 -249 -88q-45 0 -85 14q-58 20 -90.5 71.5q-31.5 51.5 -39.5 99.5q-4 23 -4 47q0 26 4 50
q17 102 86 175q106 102 222 128q25 6 50 6q58 -1 112 -31q72 -40 107 -106q20 -38 20 -91q0 -15 -2 -32q-7 -73 -14 -114q-5 -70 -11.5 -140q-6.5 -69 -11.5 -139q-9 -129 -9 -234q0 -86 6 -156q5 -56 35 -103q15 -45 44 -52q7 -7 30 -7zM650 901q1 10 5.5 35t7.5 65
q2 27 2 53q-1 13 -1 26q-2 38 -13 74q-33 98 -143 138q-38 14 -68 13q-10 0 -19 -1q-35 -7 -49 -24q-81 -83 -81 -200q0 -90 47 -151q17 -22 42 -37q56 -38 120 -42h11q57 0 109 34q13 9 30 17z" />
    <glyph glyph-name="equal" unicode="=" horiz-adv-x="1244" 
d="M112 288v120h956v-120h-956zM112 792v120h956v-120h-956z" />
    <glyph glyph-name="greater" unicode="&#x3e;" horiz-adv-x="1182" 
d="M1 1448q-5 -19 -53 -51q-28 -13 -37 -13q-6 0 -4 6q69 231 363 356q224 96 477 96q87 0 177 -12q211 -26 323 -135q71 -76 71 -171.5t-71 -209.5q-33 -42 -89 -58q-6 -2 -9 1t12 28t32.5 70t21.5 90q1 11 1 22q0 84 -58 152q-96 96 -276 134q-52 11 -103 19q-62 5 -121 5
q-180 -1 -336 -49q-255 -80 -321 -280z" />
    <glyph glyph-name="question" unicode="?" horiz-adv-x="1200" 
d="M591 -27q-35 35 -35 86.5t35.5 86t86 34.5t85.5 -35t35 -85.5t-34.5 -86t-86 -35.5t-86.5 35zM938 1274q68 -80 68 -218q0 -62 -74 -160q-7 -9 -120 -140q-78 -90 -106 -226q-4 -84 -22 -252h-32q1 27 1 54q0 81 -7 161q-8 96 -8 112q0 88 54 175q8 13 116 156
q64 85 64 144q0 288 -230 288q-76 0 -165 -51.5t-89 -114.5q0 -18 59 -81.5t59 -100t-48 -60.5q-28 -14 -52 -14q-86 0 -86 158q0 302 334 302q75 0 155.5 -37.5t128.5 -94.5z" />
    <glyph glyph-name="at" unicode="@" 
d="M-562 -50q63 -90 229 -208q19 -14 123 -46q84 -40 84 -100q0 -53 -24 -53q-3 0 -6 1q-175 40 -356 252q-70 82 -100 154h50z" />
    <glyph glyph-name="A" unicode="A" horiz-adv-x="1430" 
d="M1008 931q181 79 224 104q-5 35 -10 59t13 38h-6q-21 0 21 35q10 8 17 15t29 19.5t41 12.5q112 -7 319 -7q28 0 -20 -37q-9 -7 -13 -7q-38 -38 -72 -38q-128 0 -198 2q16 -114 16 -256q0 -179 -25 -402q-44 -440 -290 -733q-230 -274 -659 -499q-33 -16 -41.5 -14.5
q-7.5 1.5 -1.5 11.5q18 28 98 67.5t188 111t200 157.5q194 181 282 405q81 206 109 480q16 214 16 363q0 109 -9 184q-51 -27 -108.5 -50t-114.5 -48q10 -60 10 -122q0 -104 -29 -214q-58 -223 -252 -311q-62 -29 -116 -29q-39 0 -74 16q-71 31 -71 114v10q3 61 46 148
q95 191 249 297q50 33 105 60q-45 159 -160 213q-43 20 -89 20q-74 0 -157 -52q14 -57 14 -123q0 -104 -36 -227q-51 -129 -162 -197q-74 -45 -140 -45q-13 0 -27 2q-80 12 -98 76q-2 10 -3 21q1 29 15 71q44 129 190 271q53 52 114 97q-36 94 -121 112q-35 5 -74 5
q-20 0 -40 -1q-82 -5 -128 -5q-23 0 -37 1q-22 7 22 38q8 6 12.5 8.5t13 10t18.5 13.5q25 16 41 11q16 -1 34 -1q23 0 45 2q42 2 83 2q5 0 10 1q37 1 73 -3q130 -11 171 -110q163 99 287 99q40 1 74 -9q50 -14 89 -56q67 -72 93 -187zM273 543q3 4 8 8.5t11.5 13.5t13.5 15
q5 11 11 21.5t8.5 27t8.5 38.5t12 58q16 86 16 182q-3 25 -9 53q-79 -74 -111.5 -123.5t-47 -71t-26.5 -43.5q-22 -43 -21 -76q0 -8 1 -15q0 -47 42 -73q28 -16 63 -17q9 1 20 2zM783 316q-13 -8 -15 -10q2 1 7 4t8 6zM683 316q37 -11 62 -11t38 11q7 12 13 23l12 22
q35 42 51.5 96.5t28.5 115.5q14 72 14 140t-14 132q-22 -12 -65.5 -38t-90.5 -83q-123 -176 -123 -290q-2 -12 -2 -24q0 -46 36 -75q16 -13 40 -19z" />
    <glyph glyph-name="B" unicode="B" horiz-adv-x="1108" 
d="M-114 1119q-16 0 27 39q7 6 15.5 14t17.5 16q21 18 36 17h1296q23 0 -20 -47q-16 -11 -34.5 -25t-35.5 -14h-145q7 -28 7 -56q0 -109 -100 -211q-12 -10 -23 -20q71 -64 87 -154q3 -19 3 -38q-1 -84 -61 -182q-98 -158 -266 -226q-123 -41 -224.5 -41t-181.5 41
q-151 71 -161 330q0 22 53 52.5t53 17.5q0 -236 133 -306q69 -43 172 -43q24 1 50 3q39 4 79 9q208 16 245 252q3 18 3 35q0 95 -86 172q-117 -80 -220 -99q-21 -2 -51 -5.5t-63 -4.5h-17l-49 2q-33 3 -60 14q-62 25 -67 89q-1 6 -1 13q0 55 70 103q55 38 128 56
q69 10 130 10q168 0 273 -77q48 57 48 127q0 26 -8 56q-10 42 -37 81h-1015zM403 837q-1 0 -2.5 -7t4.5 -19l17 -30q45 -47 135 -47q140 0 236 44q-99 68 -263 73h-18q-63 0 -109 -14z" />
    <glyph glyph-name="C" unicode="C" horiz-adv-x="1138" 
d="M441 695q66 25 121 25q57 0 101 -26q37 2 67 1q60 0 87 -7q39 -11 64 -20t49.5 -21.5t45.5 -29.5t33 -38t12 -47q0 -56 -59 -132q-75 -96 -181 -145q-128 -60 -242 -60h-21q-32 -9 -61 -8q-23 0 -46 5q-2 3 10 19q-18 5 -52 17t-72.5 47.5t-57.5 81.5q-17 41 -17 81
q0 61 39 122q22 33 54 61q-46 13 -70.5 37.5t-25 53.5q-0.5 30 11.5 58q21 51 78 105q117 114 309 138q61 5 108 5q68 0 105 -11v106h-957q-22 0 20 46q46 39 68 39h1265q19 0 -20 -39q-9 -6 -18 -13.5t-18 -15.5q-21 -18 -34 -17h-212v-169q1 -14 -29 -37q-45 -34 -60 -34
q-3 0 -5 2q-71 64 -191 64q-65 0 -145 -19q-124 -16 -143 -53q-33 -45 -33 -79q0 -20 11 -36q34 -45 111 -57zM576 608q-45 -1 -115 -1t-101 5q-35 -29 -35 -95q0 -133 108 -196q73 -36 162 -45q7 1 11 3q-3 -2 -4 -3q2 0 9 7q-3 -2 -5 -4q3 1 5 4q41 69 41 140q1 11 1 22
q0 105 -77 163zM652 275q138 4 226 86q44 41 44 83q0 12 -4 23q-16 55 -52 80q-47 32 -123 48q15 -43 15 -86q0 -79 -48 -161q-24 -40 -58 -73z" />
    <glyph glyph-name="D" unicode="D" horiz-adv-x="1106" 
d="M852 1092q-3 12 16 30h-468q17 -38 17 -83q0 -67 -38 -150q-66 -192 -193 -282q21 -20 48.5 -51q27.5 -32 63.5 -70q87 -93 162 -113q59 -17 107 -17q30 0 56 7q67 17 100.5 46t39.5 81q5 26 53 49q31 15 46 16q8 106 11 239v32q0 121 -21 266zM1190 1159
q-37 -37 -66 -37h-173q18 -123 18 -288q0 -168 -19 -380q-34 -317 -97.5 -472.5t-134 -258.5t-154.5 -191q-153 -160 -375 -306q-51 -28 -37 -2q14 27 44 46q442 296 567 691q68 191 97 570q-26 -95 -134 -167q-101 -66 -221 -85q-16 -2 -33 -2q-110 1 -212 89
q-50 44 -97.5 96.5t-99.5 99.5q-11 7 20 34q46 42 64 42q5 0 8 -3q7 -6 15 -12l6 4q-5 -1 5 11q21 23 25 34q24 24 34 57q56 107 65 151.5q9 43.5 11 79.5v13q0 28 -7 54q-19 67 -88 87q-2 0 3 8h-327q-23 0 16 36q7 6 10 7q14 21 33 29t26 8h1235q8 0 -3 -14
q-24 -28 -24 -29z" />
    <glyph glyph-name="E" unicode="E" horiz-adv-x="1274" 
d="M762 1103q-6 6 -27 6h-22q0 5 4.5 7t9.5 8h-533q-59 -180 -59 -363q0 -202 92 -318q124 -161 346 -161q193 0 239 81q61 82 61 179q0 28 -5 57q-50 176 -220 237q-25 9 -51 14q-102 -29 -257 -44q-9 0 3 13l17 21q6 8 7 10q17 11 33 22q23 15 86.5 21t93.5 11l25 17.5
t37 10.5t50 -5q183 53 184 188q0 5 -1 9h-62q-26 -13 -51 -21zM972 1124q-44 -128 -222 -211q98 -33 160 -113q64 -81 64 -186v-14q-4 -102 -64 -190t-178 -148q-131 -67 -261 -67q-63 0 -125 16q-138 35 -218 145q-96 125 -98 327v11q0 203 87 430h-215q-20 0 18 31
q8 6 9 6q34 37 66 37h152q127 287 348 436q163 112 273 112t186 -49q11 3 15.5 -4t12.5 -15l6 -6v-2q39 -42 67 -42h2q29 2 44 21q46 35 99 112q15 16 35.5 28t35.5 24q16 5 21 0.5t-12 -24t-47.5 -55.5t-65.5 -70q-101 -100 -179 -106v-19q-11 14 -42 14q-8 8 -16 14
q-12 5 -24 14q-7 2 -15 2q-43 50 -107 71q-42 14 -87 14q-24 0 -50 -4q-144 -21 -251 -169q-105 -121 -175 -297h653q9 6 17 14h55q-9 -7 -19 -14h27q29 11 29 7.5v-7.5h322q14 0 -27 -37q-15 -11 -33 -24t-38 -13h-235z" />
    <glyph glyph-name="F" unicode="F" horiz-adv-x="1140" 
d="M398 789q45 -10 108 -10q156 0 295 69q79 35 100 105q7 23 7 48q0 50 -28 107q-2 4 0 8h-984q-22 0 20 46q16 11 34.5 24.5t33.5 13.5h1244q9 0 -9 -21t-18 -24q-16 -12 -33.5 -25.5t-32.5 -13.5h-131q2 -11 6 -40q1 -5 1 -10q-1 -26 -15 -62q-18 -44 -42.5 -76.5
t-55.5 -59.5q-54 -47 -131 -82q-141 -77 -308 -92q-55 0 -83 2q-3 -10 -9.5 -34t-10.5 -63q-2 -20 -2 -43q0 -24 2 -50q4 -54 20 -100q49 -144 205 -144q69 0 158 28q15 6 29 15q-52 2 -92 53q-36 44 -36 92q0 68 72 144q82 86 155 86h9q28 -2 54.5 -26.5
q27.5 -25.5 37.5 -57.5q7 -23 7 -47q0 -63 -49 -136q9 -5 -12 -29q-22 -24 -32 -31.5t-23.5 -21.5t-42 -37t-71.5 -45.5t-90 -37.5t-95 -21q-25 -3 -50 -3q-22 1 -44 3q-46 6 -85.5 23.5q-39.5 16.5 -68.5 50.5q-59 68 -59 188q0 64 17 143q12 55 27 112q-68 17 -105 54
q-40 41 -40 84q0 63 86 129q38 30 71 29h9q37 -5 59 -28q31 -32 31 -99q0 -38 -10 -87zM254 911q0 -57 59 -92q-4 33 -41 83q-9 5 -18 9zM849 388q25 44 25 84q0 37 -20 71q-30 55 -76 55q-8 0 -17 -2q-20 -15 -20 -65q0 -10 1 -21q2 -26 22 -56q41 -57 85 -66z" />
    <glyph glyph-name="G" unicode="G" horiz-adv-x="1304" 
d="M700 562q78 -150 213 -242q5 1 30.5 5.5q26.5 4.5 60.5 34.5q50 42 78 110q16 185 16 337l-23 325q-1 21 53 46q48 22 57 22q2 0 2 -1q0 -6 1 -11q7 2 21 2t31 5q27 8 35 8h121q14 0 1.5 -15t-27.5 -26q-46 -34 -72 -34h-101q15 -112 15 -251q0 -98 -7 -210q16 4 16 -2
q0 -65 -26 -128q-31 -345 -135 -576q-155 -335 -521 -589q-110 -76 -185 -120t-83 -44q-7 0 -1 10q19 29 57 46q495 294 655 712q61 190 88 387q-54 -49 -117 -80q-69 -69 -98 -69q-5 0 -9 2q-111 51 -204 179q-42 -73 -106.5 -117q-63.5 -44 -115.5 -46h-7q-48 0 -90 23
q-45 24 -84 67t-75.5 91t-72 94t-71.5 76q-8 8 30 37q60 47 78 47q3 0 6 -2l4 -4l8.5 8.5t14.5 20.5q34 59 50 124.5q15 65.5 17 101.5q0 10 1 20q0 26 -3 52q-4 34 -18 62q-33 64 -112 64h-207q-10 0 13.5 21.5t32 29.5t18.5 15q24 17 44 17h215q41 0 73 -28.5
q31 -28.5 45 -70.5q12 -39 13 -86q0 -44 -11 -94q-40 -189 -168 -283q25 -27 54 -66q126 -177 188 -223q51 -39 95 -38q16 0 31 5q-12 -3 -14 -3t0 2t7 6t9.5 13t9 16t4.5 18q21 47 39 120q-48 95 -48 182q1 28 5 56q14 78 70 122q40 31 63 42.5t23 2.5q24 -60 24 -142
t-24 -186z" />
    <glyph glyph-name="H" unicode="H" 
d="M-503 -318q-18 117 -18 207q0 37 106 83q37 16 37 6q0 -41 5 -84.5t9 -87.5q3 -34 2 -62q0 -56 -11 -89q-16 -50 -37 -81.5t-48 -57.5q-52 -50 -122 -80q-53 -31 -103 -31q-63 1 -119 49q-59 51 -85 135q-14 44 -14 72q-1 23 9 33q32 35 72 51q44 18 56 18q5 0 5 -3
q-1 -90 57 -172q60 -85 142 -85h10q14 5 17.5 9t11.5 12l8 49q10 27 10 109z" />
    <glyph glyph-name="I" unicode="I" horiz-adv-x="572" 
d="M-354 1166q36 36 59 36h146q-5 7 -20 33q-15 25 -20 85q-2 21 -2 41q1 37 7 71q10 52 28 103q53 145 172 243q84 70 168 72h4q42 0 82 -28q42 -29 68.5 -71.5t43 -93.5t24.5 -107q11 -78 11 -196q0 -41 -1 -87q4 -33 7 -65h221q12 0 -11.5 -21.5t-30.5 -29.5
q-6 -7 -14 -15q-18 -18 -36 -18q-61 2 -123 3q4 -69 4 -154q0 -184 -19 -443q-34 -343 -113 -542q-129 -343 -445 -607q-94 -79 -158.5 -124t-71.5 -45q-8 0 -2 10q15 27 78.5 71t148.5 121q85 78 157 168q154 192 230 422q66 249 84 510q15 214 15 376q0 137 -11 238
l-220 2q-19 -10 -55 -10q-25 0 -61 5q-12 2 -24 5q-174 -1 -348 -6q-16 0 20 40q6 8 8 8zM74 1202h242q-1 7 1 30t3 84v14q0 56 -8 127q-21 184 -108 264q-51 47 -104 47q-8 0 -15 -1q-60 -8 -103 -77q-74 -126 -77 -254v-10q0 -156 111 -207q28 -12 58 -17z" />
    <glyph glyph-name="J" unicode="J" horiz-adv-x="1140" 
d="M626 776q-108 -54 -186 -54q-31 0 -57 9q-99 -51 -141 -153q-12 -19 -53 -54l-26 -13q-26 -14 -20 -1q61 144 206 238q-51 36 -69 80q-19 48 -18 114q0 75 24 173h-414q-12 0 28 47q16 11 33.5 24.5t31.5 13.5h917q26 17 33.5 10.5t11.5 -10.5h254q18 0 -20 -38
q-7 -6 -15.5 -14t-17.5 -16q-21 -18 -33 -17h-132q-5 -112 -212 -262q155 -29 194 -146q13 -38 13 -77q0 -88 -63 -184q-25 -39 -58 -72q17 -24 30 -41.5t23 -31.5t20 -27q23 -29 48 -40q10 0 23.5 -3t22.5 2.5t15 16.5q6 12 16 26q19 27 60 57q3 0 9.5 3q5.5 4 11.5 6
q15 7 7 -9q-93 -166 -204 -183q-10 -3 -20 -3q-61 0 -127 102q-17 22 -32 44q-122 -78 -250 -85h-13q-113 0 -148 110q-10 33 -10 64q0 92 86 174q31 30 79 62q33 22 73 22q17 0 35 -4q60 -13 109 -65q49 -59 75 -101.5t39 -62.5q48 84 48 154q-1 61 -37 113
q-62 86 -200 102zM720 323q-11 16 -32.5 52.5t-47.5 68.5t-41.5 47.5t-34.5 30.5t-40 26.5t-40 14.5q-6 1 -11 1q-34 0 -47 -40q-12 -37 -11 -70q0 -54 30 -98q53 -67 138 -67q27 0 58 7q55 16 79 27zM479 816q104 44 199 44q12 0 24 -1q118 67 152 148q10 23 10 44
q0 35 -28 64h-470q-8 -52 -8 -95q0 -167 121 -204z" />
    <glyph glyph-name="K" unicode="K" horiz-adv-x="1100" 
d="M277 1185q101 -60 101 -215q0 -77 -42 -167q73 -32 162 -33q124 0 278 64q64 27 122 53l-21 257q-1 22 47 50q20 12 37 18t17.5 2t0.5 -8q6 1 12 1h89q9 0 5 -7h123q17 0 -13 -35q-6 -7 -6 -10q-17 -11 -34.5 -24t-33.5 -13h-131q11 -119 11 -230q0 -70 -5 -136
q-11 -173 -21.5 -286t-35 -244t-75.5 -254t-122 -227q-70 -104 -156 -193q-150 -156 -384 -308q-29 -20 -36 -19.5q-8 -0.5 -2 9.5q15 26 81 69t153.5 117.5t162.5 161.5q158 184 234 405q63 217 87 475q-96 -134 -238 -206q-96 -49 -174 -49q-34 -1 -66 9q-80 26 -160 108
q-36 36 -72 73q-90 94 -154 123q-11 7 16 34q49 49 64 49h3q13 -5 21 -9q94 66 136 202q20 64 20 119q0 75 -36 134q-38 64 -126 73q-32 3 -58 3h-9q-29 -1 -48 0q-9 -3 -17 -3h-113q-21 0 19 44q16 12 33.5 25t34.5 13h71q15 10 33 7t47 -2.5q29 -0.5 58 -0.5
q67 -2 110 -19zM280 708q-52 -71 -130 -134q43 -28 98.5 -89t92.5 -99t92 -68.5t122 -30.5t125 29q127 63 170 215q7 21 40 44q9 153 9 255q0 13 -1 25q-26 -21 -48 -27q-186 -93 -280 -117q-89 -23 -163 -23q-70 0 -127 20z" />
    <glyph glyph-name="L" unicode="L" horiz-adv-x="1340" 
d="M-87 1116q-12 0 3.5 16t27.5 28q17 11 34.5 23.5t40.5 12.5h1111q14 5 19 0h283q22 0 -20 -34l-16 -14q-34 -32 -63 -32h-141q7 -25 7 -51q0 -128 -180 -263q-53 -39 -108 -71q163 -46 225.5 -84.5q61.5 -38.5 95.5 -88.5q31 -46 32 -110v-10q-2 -70 -29.5 -134
t-68.5 -124q-57 -83 -183 -213q-277 -287 -753 -608q-128 -86 -229 -130q-18 -8 -21.5 -4t4.5 18.5t28.5 25.5t44 24.5t52 30t57.5 34.5q81 52 112 77q311 205 543 426q145 142 198 209q114 145 130 276q2 15 2 29q0 115 -113 183q-70 43 -138.5 63t-96 28t-43.5 14
q-26 -8 -69 -18.5t-96.5 -31.5t-95.5 -55t-56 -86q-10 -38 -10 -69q0 -11 1 -21q6 -38 26 -62q26 -30 65 -30q33 0 75 20q17 5 18 -0.5t-10 -23.5q-15 -23 -63 -44.5q-47 -21.5 -85 -28.5q-19 -4 -36.5 -3.5t-33.5 3.5q-73 16 -73 104v16q1 117 113 213q77 66 137.5 91
t91 37t33.5 13q-236 87 -300 201q-26 46 -25 95q0 59 36 123q1 5 3 10h-493zM716.5 105.5q38.5 -39.5 38.5 -92t-39 -89.5t-91 -37t-90 37t-38 90t37 92t90.5 39t92 -39.5zM849 750q187 84 229 172q14 29 14 60q0 63 -57 134h-550q-9 -29 -9 -58q0 -54 33 -104
q49 -74 181 -140q62 -32 159 -64z" />
    <glyph glyph-name="M" unicode="M" 
d="M-496 1486q2 -26 30 -86.5t28 -70.5t-12 -10t-56 51.5t-52 87t-8 60.5q0 74 59 148t201 74t201 -74t59 -148q0 -25 -8 -60.5t-52 -87t-56 -51.5t-12 10t28 70.5t30 86.5q1 7 1 13q0 65 -55 107q-60 46 -136 46t-136 -46q-55 -42 -55 -107q0 -6 1 -13z" />
    <glyph glyph-name="N" unicode="N" horiz-adv-x="246" 
d="M290 1076h-314v122h314v-122zM108 1600q52 0 90 -38t38 -90t-38 -90t-90 -38t-90 38t-38 90t38 90t90 38z" />
    <glyph glyph-name="O" unicode="O" 
d="M-962 1758q5 19 20 29q48 32 61 32q4 0 5 -4q0 -1 -1 -3q-19 -46 -19 -82q0 -62 56 -98q75 -48 249 -48q43 0 93 2q101 6 194 17.5t121.5 12.5t56.5 -3q64 -9 88.5 -45t24.5 -70t-13.5 -67t-38 -64.5q-24.5 -32.5 -53.5 -58.5q-57 -52 -98 -71t-41.5 -14.5
q-0.5 5.5 9.5 15.5q22 25 44.5 38t45 38t36.5 56q18 38 18 70q0 28 -14 51q-26 41 -66 49q-25 5 -70 5q-69 0 -184 -11q-47 -70 -47 -133q0 -39 18 -75q1 -2 1 -5q0 -15 -40 -41q-46 -30 -53 -21q-15 38 -15 77q0 68 46 140q17 27 35 52q-119 -11 -204 -11q-83 1 -133 11
q-130 26 -150 112q-4 16 -3 33q0 40 21 85z" />
    <glyph glyph-name="P" unicode="P" horiz-adv-x="1140" 
d="M908 1113q-8 -17 1 -17q13 0 31 17h-32zM880 993q0 80 23 120h-1012q-16 0 27 39q7 6 14.5 14t15.5 16q20 18 36 18h1233q21 0 -17 -40q-7 -8 -9 -8q-39 -39 -61 -39h-148q-2 -21 -2 -41l4 -103q0 -21 -28 -44q-43 -36 -60 -36q-3 0 -5 1q-51 7 -104 15t-92 9.5t-73 2.5
h-9q-29 0 -58 -5q-79 -14 -118 -62q-81 -87 -100 -231q-4 -29 -4 -56q1 -96 49 -167q77 -112 217 -112q42 0 91 10q58 14 80 23q-96 7 -153 59q-44 40 -44 94q0 25 10 54q31 84 109 134q55 35 105 35q59 1 109 -47q55 -51 55 -124q-1 -4 -1 -8q-2 -50 -43 -109q14 1 -5 -23
q-47 -59 -77 -64q-135 -110 -305 -122q-15 -1 -29 -1q-177 1 -241 169q-24 63 -23 130q0 37 7 76q20 108 80.5 196t145.5 147q121 91 288 91q43 0 90 -6q16 -2 32 -5zM686 606q-9 -30 -9 -58q-1 -8 -1 -15q0 -43 41 -80q46 -36 81.5 -42.5t54.5 -7.5q8 28 7 53q0 52 -32 93
q-39 48 -105 54q-9 0 -18 3t-19 0zM916 1128q13 13 37 34q-13 -9 -24 -17q-8 -9 -13 -17zM982 1181h2h-2zM1001 1183q-8 -14 -11 -23q17 19 11 23z" />
    <glyph glyph-name="Q" unicode="Q" horiz-adv-x="1116" 
d="M799 802q-1 155 -20 288q-3 12 17 29h-406q8 -29 7 -63q0 -89 -52 -214q-18 -41 -40 -78q142 -45 205 -46h11q56 0 94 7q84 22 127.5 46t56.5 31zM898 862q54 35 57 35q3 -1 -2 -11q-16 -34 -56 -59q-9 -399 -57 -639q-100 -491 -522 -831q-94 -76 -195 -142
q-28 -16 -35 -14q-7 3 -2 13q13 27 49 46q211 142 339 290q155 179 226 401q54 179 79 415q-73 -62 -156 -87t-146 -27h-8q-129 0 -229 101q-50 51 -97 97t-107 79q57 73 86 73q5 0 8 -2q12 7 25 15l-10 -5l17 20q6 6 10 12q12 14 21.5 30.5t10.5 20.5q5 13 21 33
q56 109 73 223q4 25 4 48q0 84 -55 122h-329q-20 0 19 43q50 37 66 37h321q9 4 14 0h887q10 0 -7.5 -20.5t-17.5 -23.5q-16 -11 -33.5 -23.5t-32.5 -12.5h-251q15 -127 15 -257zM799 764q-132 -82 -229 -105q-68 -19 -128 -19q-24 0 -47 3q-80 11 -149 32q-39 -50 -90 -89
q45 -28 103.5 -88t95.5 -93t81 -52q60 -18 122 -18q71 -1 145 23q54 17 63 36q8 19 12 34q6 28 7 44t4 44q8 89 10 248z" />
    <glyph glyph-name="R" unicode="R" 
d="M-278 -164q54 -35 135 -136t81 -140q0 -15 -16 -22q-2 -1 -5 -1q-18 0 -61 43q-26 27 -90.5 92t-125.5 80q-66 -86 -136 -86q-45 0 -79.5 35.5t-34.5 80.5q0 124 132 124q62 0 122 -24q12 18 30 70h102q-18 -52 -54 -116z" />
    <glyph glyph-name="S" unicode="S" horiz-adv-x="1140" 
d="M652 876q155 0 217 39q-3 95 -14 181q-2 11 6 22h-321q25 -78 25 -233v-11q14 -1 28 -1q29 0 59 3zM472 886q-8 147 -65 225q-2 3 -1 7h-424q-21 0 19 36q7 6 15.5 13.5q8.5 8.5 17.5 14.5q23 16 34 16h1213q20 0 -20 -44q-46 -36 -67 -36h-239q14 -110 14 -245
q1 -109 -9 -235q-22 -298 -45.5 -431.5t-73 -254t-119 -223.5q-70.5 -103 -154.5 -191q-154 -161 -376 -307q-24 -17 -30 -15t0 12q15 28 42 47q434 277 565 692q62 174 86 480q5 82 9 164q6 118 6 218q0 28 -1 55q-37 -38 -113 -60q-97 -28 -190 -31q0 -27 1 -78v-12
q0 -47 -7 -105q-8 -66 -32 -124.5q-24 -57.5 -62 -103.5q-82 -97 -189 -97h-12q-123 0 -191 79q-41 48 -49 138q-1 14 -1 27q0 94 56 170q96 137 320 165q2 0 8 5q32 28 47 28h13q1 0 4 1zM488 15q-33 33 -33 80.5t33.5 80t80 32.5t79.5 -33t33 -79.5t-32.5 -80t-80 -33.5
t-80.5 33zM473 794l-30 2q-47 -10 -90.5 -14t-78.5 -12t-58.5 -11t-38.5 -11t-22.5 -21.5q-7.5 -14.5 -12.5 -30.5q-18 -61 -18 -113q0 -93 56 -160q62 -74 153 -74q17 0 35 3q34 0 43 7q13 10 23 44q11 24 27 95q7 70 7 197q3 46 5 99z" />
    <glyph glyph-name="T" unicode="T" horiz-adv-x="1140" 
d="M1205 1149q-48 -38 -67 -38h-454q0 -19 1 -45q99 -10 169 -94q88 -104 88 -258q0 -170 -100 -308q-132 -182 -334 -212q-35 -5 -67 -6q-123 0 -208 76q-81 68 -115 182q-15 52 -16 106q0 114 68 232q69 123 176 206q101 79 199 79q20 0 39 -4l-4 46h-693q-18 0 21 46
q16 11 34 24.5t33 13.5h690q7 4 15 7q0 -4 1 -7h545q12 0 1.5 -14t-16.5 -21.5t-6 -10.5zM451 960q0 11 15 26q-98 -5 -170 -100q-78 -100 -88 -234q-1 -16 -1 -31q0 -93 48 -181q92 -168 274 -168q37 0 78 6q87 15 130 59t68.5 100q24.5 56 34.5 118q6 40 7 78
q0 87 -32 165q-53 133 -167 169q-34 -27 -49 -28q-5 0 -7 4q-29 22 -57 33q-36 -5 -60 -12.5t-24 -3.5z" />
    <glyph glyph-name="U" unicode="U" 
d="M-949 -161q60 -72 165 -85q16 -2 31 -6q229 22 353 71q42 17 78 29l-117 -75q-45 -19 -84 -35t-83 -22q-140 -41 -275 -41q-119 0 -175 62q-16 17 -30 36zM-469 -29q-155 -50 -245 -50q-36 -6 -73 -6t-74 6q-88 27 -116 44.5t-51 29.5l147 66q15 -12 30.5 -19t33.5 -16.5
t41.5 -12.5t45.5 -9q32 -9 72 -10l72 1q59 6 117.5 22t118.5 28q30 16 48 16l-118 -73q-34 -17 -49 -17z" />
    <glyph glyph-name="V" unicode="V" horiz-adv-x="1156" 
d="M637 708q-107 -33 -207 -33q-15 0 -30 1q-14 0 26 44q87 64 266 64q49 0 124.5 37t109.5 77q38 44 39 97q0 53 -40 115q-1 2 1 7h-1018q-22 0 22 44q47 37 65 37h1252q7 0 -4 -14q-24 -27 -24 -30q-46 -37 -66 -37h-97q6 -22 6 -45q0 -53 -34 -107q-64 -103 -230 -190
q188 -31 224 -149q8 -25 7 -51q0 -95 -105 -199q-39 -38 -83 -69q31 -42 30 -90q0 -105 -154 -235q-78 -66 -156 -108q-15 -6 -19.5 -0.5q-4.5 6.5 8.5 22.5q15 19 56 41.5t65.5 42t45 44q19.5 24.5 33.5 52.5q19 39 19 75q0 51 -37 95q-115 -48 -237 -49q-39 0 -79 5
q-18 -95 -88 -185t-152 -154q-150 -116 -349 -188q-10 -3 -11 1t2 10q8 18 16 18q17 17 32 31.5t58 28t113 48.5t129 85q156 132 156 308q0 11 -1 23q-96 37 -104 101q0 40 89 89q18 8 34 8q28 0 48 -28q23 -33 31 -97q44 -17 107 -24q131 0 180 11.5t77 25.5t59 37t55 53
q41 51 41 97q0 16 -5 32q-19 61 -55 93q-84 76 -241 82z" />
    <glyph glyph-name="W" unicode="W" horiz-adv-x="520" 
d="M-28 1202q-15 -39 -15 -57.5t-9 -26.5h250q4 -40 4 -82q0 -171 -70 -371q-3 -8 4 -8q24 0 61 29.5t44 46.5q74 184 74 348q0 19 -1 37h226v23q5 17 14.5 30t16.5 31h-266q-1 7 -2 13q-1 9 -46 -13h-285zM290 1613l2 3zM341 1639q23 -48 23 -70v-28q0 -17 -97 -93
q-84 -65 -122 -65q-11 0 -18 5q-11 7 -21 16t-24 10q-4 1 -4 4q0 10 40 45v17q0 21 17 36.5t43 39.5t60 45q61 37 97 39q2 -1 6 -1z" />
    <glyph glyph-name="X" unicode="X" horiz-adv-x="1244" 
d="M563 753q-7 7 23.5 32.5q30.5 24.5 42.5 32.5q29 18 38 8q57 -36 125 -36q109 0 132 23q49 49 89 58q11 3 11 -1q1 -8 -30 -38q-30 -30 -86 -62q-90 -52 -179 -59q3 -24 3 -68.5t-17 -107.5t-49 -121.5q-32 -57.5 -76 -105.5q-97 -104 -217 -131q-19 -4 -37 -4
q-102 0 -168 129q-61 119 -90 157t-65 57q48 61 85 75q85 86 106 237q6 43 6 82q0 115 -51 205h-198q-20 0 22 45q56 36 75 36h194q14 5 18 0h811q26 12 26.5 8t0.5 -8h308q16 0 -16 -34q-6 -7 -6 -10q-17 -11 -37 -24t-37 -13h-200q12 -102 13 -222q-1 -109 -11 -231
q-8 -92 -16 -204q-25 -291 -115 -495q-151 -332 -509 -589q-108 -76 -177 -118q-68 -40 -76 -41l-1 1q-6 2 0 12q16 26 50 47q358 218 525 482q64 101 105 220q71 187 96 487q19 193 19 359q0 158 -17 292h-702q19 -62 19 -127q1 -66 -19 -135q-44 -159 -166 -272
q60 -39 106 -147q54 -125 114 -162q33 -22 66 -22q36 0 72 26q70 52 110 198q17 60 17 116q0 65 -22 125q-2 7 3 14q-21 10 -41 24z" />
    <glyph glyph-name="Y" unicode="Y" 
d="M-229 1220l-7 29q-30 75 -125 147q-14 9 -47 23q-136 79 -348 87q-18 1 -33 1q-51 0 -85 -7l-54 -12q13 6 23 11l-96 -27q156 88 317 88h26q138 -6 222 -34t137 -54q6 -8 17 -14q55 -28 109 -88q-38 102 -134 166q-94 71 -249 100h-48q-27 2 -53 2q-79 0 -149 -19l102 57
q69 21 146 21q24 0 49 -2q15 -7 54 -7q138 -25 250 -99q11 -9 19 -18t38 -35.5t58 -78t33 -108.5q6 -14 4 -23t4 -18q-8 -19 -8 -41l-79 -31l-93 -40v24zM-928 1488q-10 -2 -19 -4q0 -4 -7 -7t-9 -4t1 -1q19 9 34 16z" />
    <glyph glyph-name="Z" unicode="Z" horiz-adv-x="1336" 
d="M547 839q-6 123 -19 273h-495q-17 0 30 40q9 6 18.5 15t19.5 17q25 18 37 18h483q8 4 17 8q0 -4 1 -8h509q16 6 16 0h357q7 0 7 -6q0 -11 -28 -44q-57 -40 -75 -40h-261q1 -93 5 -209q5 -116 5 -254v-17q0 -307 -42 -529q-109 -526 -544 -840q0 -6 -19 -17
q-36 -21 -42 -15q-1 3 -1 6q0 16 34 45q8 7 12 7q298 215 406 592q82 285 84 743q0 22 1 44q0 105 -2 207q-2 123 -3 237h-412q12 -147 15 -238q1 0 9.5 7t12.5 -1q5 -11 -22 -37q0 -24 1 -47q0 -362 -108 -534q-86 -137 -229 -159q-28 -5 -54 -5q-99 0 -173 70
q-86 82 -96 214l-2 28q0 192 195 328q65 46 123 60t100 20q76 10 129 21zM576 -173q-33 33 -33 80.5t33.5 80t80 32.5t79.5 -33t33 -79.5t-32.5 -80t-80 -33.5t-80.5 33zM358 182q9 -1 19 0q27 0 46 6q25 8 26 9l11 11q5 14 10.5 26.5t14.5 33.5q41 95 50 195.5t16 168.5
q0 75 -2 147q-81 -32 -186 -42q-33 -6 -66 -11q-33 -6 -62 -16q-66 -24 -89 -86q-35 -81 -35 -156q0 -47 14 -90q12 -39 37 -73q69 -115 196 -123z" />
    <glyph glyph-name="bracketleft" unicode="[" horiz-adv-x="1200" 
d="M623 875q19 33 19 67q7 8 9.5 21t8.5 27v49q0 32 -24 22t-26 -10q-6 0 46 31l-89 -43q12 24 42 41t50.5 29.5t31 20.5t16 12.5t10.5 7.5q10 6 36 14q22 -7 31 -20.5t16 -27.5v-58q-7 -14 -9.5 -27.5t-9.5 -20.5q-7 -22 -9.5 -38t-8.5 -30q0 -21 -6 -38t-13 -42.5
t-9 -48.5t-10 -45q-6 -35 -13.5 -66.5t-14.5 -68t-14.5 -78.5t-22.5 -86q-18 -108 -18 -154v-6l83 35q-18 -58 -49 -83q-38 -29 -127 -62q-47 0 -47 48q0 37 11 77.5t17.5 80.5t13.5 78t14 78.5t14 72t14 60.5t13 52t6 52q18 36 18 77zM651 288q7 -1 19 7l15 13
q-2 0 -34 -20z" />
    <glyph glyph-name="backslash" unicode="\" horiz-adv-x="1104" 
d="M837 897q-85 31 -265 31t-258 -47q-2 0 -6 -3q-6 -4 -7.5 -6.5t-7.5 -13t-8 -31.5t0 -41q6 -64 66 -102q36 -22 72 -27.5t57 -8.5q48 0 97.5 5.5q49.5 4.5 99.5 10.5q57 6 103 7q52 0 90 -8q9 0 -17 -29q-51 -56 -67 -56h-160q-23 -7 -51 -9t-45 -4.5t-27 -4
q-11 -1.5 -21 -4.5q-27 -8 -34 -17q-30 -62 -30 -113v-14q5 -56 22 -85t62 -41q25 -7 55 -7q23 1 51 5q62 10 122 31q94 35 214 107q18 10 23.5 10t4 -5.5t-9.5 -15.5t-17.5 -20t-31.5 -32q-124 -79 -342 -146q-66 -20 -115 -20q-70 0 -105 41q-32 43 -32 96q-1 48 25 104
q35 76 95 129q-9 0 -19 -1q-79 0 -147 31q-66 30 -80 117q-5 19 -5 37q0 60 51 111q39 45 89 76q-49 37 -49 115q0 32 10 67h-370q-21 0 16 40q7 8 10 7q14 21 32 29.5t25 8.5h1185q3 0 3 -2q0 -10 -55 -66q-17 -17 -37 -17h-169l-3 -142q0 -28 -67 -68q-15 -9 -22 -9z
M832 1005q1 29 2 50q0 20 -2 32q-2 25 -1 29h-457q2 -64 39 -98q19 -18 49 -20q6 -3 5 -8q100 23 232 23q27 1 57 -1q38 -2 76 -7zM294 868.5q0 -0.5 4 3.5q-4 -2 -4 -3.5z" />
    <glyph glyph-name="bracketright" unicode="]" horiz-adv-x="1140" 
d="M649 903l8 110q0 16 -3 34q-5 27 -5 48q0 35 14 50q-58 -59 -102 -69q-7 -2 -9.5 0.5t10.5 19.5t34.5 42q21.5 24 45.5 44q53 43 107 49h8q10 -69 10 -141q0 -59 -7 -120q-15 -136 -27 -214q-25 -167 -25 -292q0 -85 11 -151q26 45 49.5 66t40.5 35q3 0 11.5 2t16.5 2
q19 1 10 -14q-84 -136 -198 -194q1 -7 -11 -13q-21 -10 -28 -3q-14 73 -14 174q0 166 38 408q10 64 15 127zM424 304q8 12 50 42q30 14 41 14q7 0 5 -7q-59 -129 -169 -176q-23 -7 -23 0q-42 78 -42 208q0 102 26 236q39 200 39 383q0 68 -8 93q-4 4 -6 7q-47 -48 -81 -54
q-8 -2 -10.5 0.5t6 15.5t30 42q22.5 29 48.5 55q50 49 85 49q11 0 21 -5q34 -18 34 -115q0 -21 -2 -46q-11 -183 -26 -274.5q-16 -91.5 -26 -153.5q-16 -92 -15 -165q0 -88 23 -149z" />
    <glyph glyph-name="asciicircum" unicode="^" horiz-adv-x="1080" 
d="M332 972q0 -91 -43 -180q75 -33 165 -33q127 0 285 64q66 27 125 54l-22 254q0 22 50 49q54 29 54.5 22.5t0.5 -10.5q6 1 13 1h90q8 0 4 -8h128q14 0 -4.5 -20t-18.5 -23q-49 -36 -67 -36h-135q9 -96 9 -216q0 -179 -20 -413q-29 -240 -60.5 -348t-70 -199.5t-111 -194.5
t-160.5 -191q-155 -157 -393 -308q-28 -19 -35 -19t-1 10q18 29 51 46q446 291 594 703q63 213 88 475q-96 -134 -244 -208q-98 -49 -178 -49q-35 0 -67 10q-83 26 -165 106q-36 36 -72 74q-90 92 -158 124q-12 5 16 32q49 48 66 48h2q14 -5 23 -9q97 65 140 201
q20 63 20 118q0 74 -37 133q-40 65 -130 74q-31 3 -62 3h-16h-12q-34 0 -65 5q-7 7 20 34q48 48 71 48q2 0 4 -1q24 -4 53.5 -3.5q28.5 0.5 58.5 -0.5q72 -2 112 -19q104 -58 104 -199zM297 95q52 0 90 -38t38 -90t-38 -90t-90 -38t-90 38t-38 90t38 90t90 38zM231 697
q-53 -70 -134 -133q47 -29 103.5 -89t95 -97.5t94 -68t124 -30.5t128.5 28.5t106 84t67 130.5q8 21 40 42q9 164 9 262v17q-26 -21 -49 -27q-189 -91 -287 -116q-93 -23 -169 -23q-72 0 -128 20z" />
    <glyph glyph-name="underscore" unicode="_" horiz-adv-x="1160" 
d="M1160 -124h-1160v116h1160v-116z" />
    <glyph glyph-name="grave" unicode="`" 
d="M-420.5 1371q-71.5 47 -102 108.5q-30.5 60.5 -31.5 140.5v13q0 67 10 67q7 0 28 -67.5t48 -108.5q66 -100 196 -100t196 100q27 41 48 108.5t28 67.5q10 0 10 -67v-13q-2 -160 -131 -248q-72 -48 -150 -48t-149.5 47z" />
    <glyph glyph-name="a" unicode="a" horiz-adv-x="1262" 
d="M1045 1117q-47 -114 -230 -206q105 -32 169 -109q69 -81 68 -188v-13q-6 -155 -147 -263q-163 -128 -394 -134h-17q-140 0 -254 64q-60 34 -110 97.5t-73.5 147q-22.5 83.5 -24.5 171.5q0 7 -1 14q0 197 89 419h-231q-21 0 19 37q8 7 9 7q44 37 72 37h167
q135 281 374 431q178 112 308 112q148 0 241 -90q31 -30 52 -79q20 -47 20 -100v-5q-3 -150 -147 -269h36q9 4 19 7v-7h352q11 0 -3 -14q-28 -28 -28 -31q-33 -36 -75 -36h-260zM636 850q-86 -21 -264 -49q-16 0 -2.5 16t25.5 29q49 36 82 38q68 5 138 16q16 10 33 22
q15 10 46 10q21 0 51 -5q201 56 201 190h-74q-48 -21 -78 -27.5t-31 -2t3 10.5q10 18 17 19h-574q-66 -182 -66 -354q0 -201 97 -321q70 -84 169 -122q88 -34 182 -34q12 0 25 1q208 0 261 80q65 83 65 177q0 25 -5 52q-35 118 -133 188q-74 54 -168 66zM944 1198
q58 36 77 110q21 59 21 108.5t-21 88.5q-71 126 -221 152q-30 5 -59 5q-233 0 -431 -333q-38 -64 -68 -131h702z" />
    <glyph glyph-name="b" unicode="b" horiz-adv-x="1084" 
d="M872 478q16 203 17 350q0 116 -10 199q-10 86 -10 89h-625q8 -93 74 -151q97 -84 365 -86q19 2 37 2q19 0 37 -2q19 1 -17 -35q-8 -8 -13.5 -15t-23.5 -20t-44 -13q-129 0 -183.5 -17.5t-87 -34t-54 -46t-30.5 -65.5q-7 -29 -7 -56q0 -85 67 -159q93 -102 260 -102h8
q133 2 171 100q25 40 59 52q0 4 10 10zM-138 1116q-4 0 -4 3q0 10 64 63q21 17 34 17h1225q21 0 -20 -45q-52 -38 -67 -38h-122q13 -112 13 -246q-1 -108 -9 -232q-21 -302 -45.5 -442.5t-74.5 -264t-120.5 -229.5t-155.5 -196q-155 -165 -379 -314q-25 -17 -31 -15
q-6 3 0 13q15 28 43 47q442 301 570 709q41 118 57.5 237.5t26.5 233.5q-68 -101 -190 -151q-78 -33 -156 -33q-71 -1 -143 27q-115 44 -158 148q-24 58 -24 111q0 143 168 251q32 21 66 37q-141 21 -208 83q-72 66 -72 177q0 24 3 49h-291z" />
    <glyph glyph-name="c" unicode="c" horiz-adv-x="1170" 
d="M775 832q45 48 65 48q39 -9 70 -28q5 41 5 82q0 32 -3 65q-9 84 -9 110q0 9 1 11h-1031q-21 0 19 47q17 11 35.5 24.5t33.5 13.5h1271q21 0 -21 -38q-8 -6 -16.5 -14q-8.5 -7 -17.5 -15q-21 -18 -35 -18h-133q12 -80 12 -139q0 -92 -30 -133q-15 -22 -32 -39
q66 -77 67 -179q0 -24 -4 -50q-22 -152 -215 -286q-137 -94 -291 -100q-7 0 -14 -1q-159 0 -231 121q-51 83 -51 195q0 68 18 146q12 48 26.5 85t21.5 62q-49 31 -63 64q-7 17 -7 33q0 15 8 31q14 30 45 57.5t59.5 38q27.5 10.5 41.5 -6.5q24 -30 24 -81q0 -24 -5 -53
q69 -48 257 -51q57 -1 90.5 -1t38.5 -1zM738 740q-73 7 -192 7q-52 6 -101 9.5t-90 14.5q-32 -99 -32 -185q1 -88 33 -160q14 -32 46.5 -68.5t87 -58t112.5 -23.5h11q111 0 208 60q83 55 99 162q4 25 3 50q1 72 -33 136q-19 37 -51 65q-41 -9 -101 -9z" />
    <glyph glyph-name="d" unicode="d" horiz-adv-x="1140" 
d="M860 1103q-4 5 4 15h-985q-13 0 26 46q37 37 69 37h1262q16 0 -5 -21l-24 -24q-35 -38 -61 -38h-159q9 -29 9 -58q0 -90 -87 -180q-122 -122 -322 -151q-98 -10 -158 -10q-21 0 -38 1q-31 -115 -31 -177v-10q5 -117 70 -178q94 -83 216 -85h3q39 0 71 17q34 17 65 30
t62 30q47 17 68.5 43.5t27.5 77.5q5 24 53 50q48 25 48 16q-27 -154 -225 -247q-41 -20 -83 -40.5t-84 -34.5q-66 -23 -116 -23q-23 0 -42 5q-61 15 -100 37q-39 23 -68 55q-68 76 -68 178q0 28 6 58q8 50 23.5 104.5t19 74.5t5.5 32q-65 17 -88 58q-19 33 -20 62
q0 35 28 63q54 54 92 54q6 0 13 -2q77 -19 77 -119q0 -17 -3 -36q50 -14 116 -14h11q73 1 114 10t76.5 14.5t67.5 17.5q99 38 98 146q0 17 -2 37q-6 42 -32 79z" />
    <glyph glyph-name="e" unicode="e" horiz-adv-x="1132" 
d="M878 974q0 62 -9 96t1 47h-547q-4 -25 -4 -47q0 -70 34 -120q24 -36 59 -39q161 97 304 96q84 1 162 -33zM-93 1154q38 45 61 45h1244q14 0 -11 -28q-48 -54 -82 -54h-147q6 -38 6 -90v-121q0 -17 -30 -41q-44 -35 -63 -35q-5 0 -8 2q-93 86 -241 92h-19q-99 0 -182 -39
q-3 -12 -27.5 -26.5t-35 -17t-11.5 -2.5q-105 -86 -113 -225q-1 -14 -1 -27q0 -118 77 -203q93 -103 251 -103q13 0 27 1q127 7 192 67t108.5 123.5t71.5 103.5t46 52t26.5 19t15.5 10.5q7 2.5 14 4.5q17 4 9 -11q-138 -198 -218 -273q-194 -183 -378 -183q-70 0 -138 27
q-157 62 -197 210q-9 33 -8 73q0 23 2 47q17 157 161 285q-55 15 -76 90q-12 42 -12 80q0 58 27 110h-367q-19 0 17 31q7 6 9 6z" />
    <glyph glyph-name="f" unicode="f" horiz-adv-x="1140" 
d="M407 799q38 38 65 39q179 7 320 59q15 6 32.5 12t33.5 14q39 19 56 42q7 21 7 43q0 50 -34 110h-994q-14 0 -2.5 16t22.5 29q52 38 67 38h993q11 5 15 0h250q8 0 -4 -14q-23 -29 -23 -32q-50 -37 -67 -37h-125q2 -12 2 -24q0 -54 -33 -98q-82 -110 -257 -176
q251 -51 250 -227q-1 -19 -3 -39q-18 -128 -133 -226q-143 -126 -336 -130h-12q-195 0 -313 138q-59 70 -59 138q1 20 5 38q15 62 107 112q79 43 155 44q92 0 182 -64q93 -66 93 -165q0 -35 -11 -73q-15 -45 -51 -85q213 0 254 138q19 60 19 108q0 79 -52 127
q-115 102 -361 102h-21q-49 -2 -64 -2q-13 0 -2 16q21 30 29 29zM233 585l1 1q-1 0 -1 -1zM228 575q-5 -12 -5 -30q0 -21 7 -50q23 -39 75 -99q74 -74 175 -101q40 38 58 37q6 0 10 -4l10 -10q6 20 6 44q0 23 -6 50q-11 54 -37 83q-65 61 -154 83q-36 9 -69 8q-37 1 -70 -11
z" />
    <glyph glyph-name="g" unicode="g" horiz-adv-x="1220" 
d="M472 838q-5 132 -16 273h-455q-12 0 26 41q8 6 17 14.5q8 7.5 18 15.5q23 18 36 19h443l16 8v-8h467q15 6 15 0h328q20 0 -21 -49q-16 -13 -33.5 -27t-34.5 -14h-239q1 -93 5 -209t4 -254q0 -8 1 -17q0 -314 -44 -553q-45 -245 -172.5 -453.5t-322.5 -360.5q0 -7 -18 -18
q-33 -21 -36.5 -15t2 15.5q4.5 9.5 12.5 19.5q18 22 25 22q273 215 374 593q77 287 79 742v44q0 105 -2 207q-2 123 -3 237h-380q2 -34 6 -93q4 -60 6 -145q1 1 5.5 4.5t10 4t7.5 -2.5q4 -8 -5.5 -18.5t-16.5 -18.5v-50q0 -140 -12 -251q-42 -273 -174 -384
q-52 -43 -118 -55q-27 -5 -51 -5q-37 -1 -69 11q-52 18 -91.5 58.5t-62.5 96.5q-23 57 -27 119q-1 14 -1 27q0 195 178 329q60 46 113.5 59.5q54.5 12.5 92.5 18.5q70 10 118 22zM383 197q18 27 29 59.5t20.5 57.5t17.5 71q14 83 25 246q0 76 -2 147q-71 -30 -166 -44
t-121 -24q-60 -24 -83 -86q-32 -89 -32 -163q0 -88 45 -156q70 -115 184 -123q6 0 12 -1q37 1 71 16z" />
    <glyph glyph-name="h" unicode="h" horiz-adv-x="1076" 
d="M435 806q-31 8 -54 8t-38 -8q-7 0 -12 -2l-4 -8l-15 -30q-26 -51 -27 -167q20 -163 124 -246q48 -38 137 -49q24 -3 46 -3q41 0 70 11q45 16 65 38t32.5 50t20.5 60q24 95 24 194q0 12 -1 24q-3 112 -5 178q-2 51 -2 96q0 97 9 162h-910q-21 0 16 40q7 8 9 7q38 38 59 38
h1211q15 0 -27 -38q-5 -6 -12 -14.5t-15 -15.5q-21 -17 -38 -17h-203q-1 -20 -1 -43q0 -33 3 -75q3 -70 7 -162q1 -35 1 -68q0 -181 -41 -284q-67 -145 -209 -221q-89 -48 -170 -48q-56 0 -108 23q-103 40 -153 160q-33 77 -33 158q0 45 10 91q31 123 124 195q74 57 154 57
q24 0 48 -5q7 0 -19 -30q-51 -56 -73 -56zM331 804q4 4 7 10q-4 -5 -7 -10z" />
    <glyph glyph-name="i" unicode="i" horiz-adv-x="572" 
d="M17 1116q-20 0 17 44q44 38 60 38h143q-7 65 -7 124q0 234 116 375q82 97 178 151q62 35 114 34q48 0 88 -29q66 -57 86 -173q7 -43 7 -86q-1 -118 -55 -230q-47 -99 -126 -169q86 1 173 3q12 0 -25 -45q-43 -37 -60 -37h-393q11 -111 11 -258q0 -171 -15 -390
q-14 -135 -35 -266.5t-66 -255.5t-107 -229t-136 -196q-130 -160 -329 -313q-25 -17 -31.5 -15q-6.5 3 -2.5 13q10 27 39 48q395 304 502 707q35 118 50.5 243t24 228.5t12.5 187.5q6 114 7 214q0 159 -16 282h-224zM339 1197q57 -1 119 -2q54 -1 112 0h19q8 5 29.5 16.5
t48 52t42.5 93t22 111.5q3 28 3 56q0 30 -4 58q-14 123 -78 180q-41 38 -92 38q-28 0 -62 -12q-83 -32 -131 -120q-53 -125 -53 -268q0 -97 25 -203z" />
    <glyph glyph-name="j" unicode="j" horiz-adv-x="1140" 
d="M842 794q-1 67 0 121q0 152 4 205h-908q-21 0 18 43q46 37 62 37h1159q4 0 4 -3q0 -10 -59 -61q-18 -16 -31 -16h-154v-30q0 -36 1 -84q2 -69 2 -160q0 -7 1 -14q0 -84 -6 -166q-7 -90 -27 -172q-45 -181 -166 -273q-33 -33 -44 -33q-4 0 -6 4q-12 12 26 44q8 6 11 8
q91 72 105 318q8 135 9 181q-188 -87 -355 -101q-3 -17 -7 -50q-41 -311 -132 -480q-178 -345 -573 -524q-15 -5 -18 -0.5t11 16.5q20 40 62 51q341 164 462 471q56 136 86 331q14 119 21 145t10 39q-84 1 -112 53q-8 15 -8 34q0 36 29 85q47 81 110 89q32 4 53 -20.5
q20 -24.5 26 -45.5q5 -20 6 -40q0 -15 -3 -29q-7 -34 -10 -51h2q145 -1 339 78zM385 807q-2 -7 -2 -15q0 -24 22 -48q8 -7 17 -12q1 47 -37 75z" />
    <glyph glyph-name="k" unicode="k" horiz-adv-x="1220" 
d="M1043 1121q16 -80 16 -156q0 -244 -160 -462q79 -186 157 -249q50 -41 106 -41q43 0 89 24q16 5 17 -0.5t-9 -22.5q-31 -31 -78 -54.5t-91 -25.5q-6 0 -12 -1q-36 1 -68 13q-38 14 -68 43q-58 55 -89 116t-46 92q-168 -166 -370 -198q-27 -4 -51 -4q-106 1 -172 71
q-58 62 -70 180q-2 22 -3 43q0 145 102 263q71 80 167 120q65 28 124 27q151 0 262 -179q47 -75 78 -155q76 156 76 346q0 25 -1 49q-4 80 -14 118.5t-10 42.5h-1049q-26 0 22 44q54 37 70 37h1334q16 0 -16 -34q-6 -7 -6 -10q-54 -37 -71 -37h-166zM790 436q-28 64 -57 130
t-59 108t-55.5 64t-57 40t-66 30t-67.5 12q-2 0 -3 1q-71 0 -105 -48t-52 -103t-20 -113q0 -9 -1 -19q0 -118 68 -191q50 -61 136 -71q15 -2 30 -2q61 0 122 29q107 41 187 133z" />
    <glyph glyph-name="l" unicode="l" horiz-adv-x="1234" 
d="M-88 1121q-9 0 4.5 16t24.5 29q17 12 33 25.5t38 13.5h1019q12 5 16 0h259q18 0 -28 -46q-38 -38 -62 -38h-129q6 -25 5 -49q0 -132 -166 -270q-48 -40 -98 -72q143 -45 195.5 -80.5t77.5 -65.5q52 -62 52 -138v-8q-3 -80 -28 -145.5t-63 -126.5q-51 -82 -167 -218
q-204 -236 -506 -476q-91 -74 -185 -146t-148.5 -101t-61 -32t-12 -4t-8 1.5q-2.5 3.5 5.5 17.5q9 17 48 41t65 41t53 35q52 35 104 78q277 206 496 436q134 146 183 215q104 148 118 280q1 13 1 26q0 181 -254 263q-79 25 -105 35q-23 -8 -62 -18.5q-39 -9.5 -89 -31.5
q-151 -65 -150 -202q0 -16 2 -34q10 -82 76 -93q6 -1 13 -1q29 0 65 19q15 5 16 -0.5q0 -4.5 -10 -22.5q-13 -22 -70 -54q-58 -25 -100 -25q-50 -1 -78 35q-18 24 -18 74v12q0 124 102 222q68 65 125.5 92.5t85.5 39.5t30 13q-300 123 -300 309q0 55 34 121q1 4 3 8h-452z
M773 748q168 84 207 174q13 30 13 63q0 64 -51 136h-503q-8 -29 -8 -58q0 -55 30 -107q71 -122 312 -208z" />
    <glyph glyph-name="m" unicode="m" horiz-adv-x="1140" 
d="M487 808q28 2 170.5 2t223.5 25q-1 153 -11 216.5t-9 67.5h-8q-10 0 27 37q50 37 68 37l281 7q13 0 -12 -28q-49 -54 -83 -53h-165q11 -102 11 -238q0 -179 -19 -417q-30 -247 -59.5 -350.5t-67.5 -194.5t-109 -195t-157 -194q-158 -165 -378 -309q-28 -17 -35 -15t-2 12
q13 27 44 47q451 299 575 699q76 220 89 485q18 218 20 351q-82 -65 -302 -65q-7 1 -15 1h-77q-4 -176 -74 -308q-67 -127 -182 -162q-22 -7 -45 -7q-40 0 -82 19q-71 32 -90 79q-17 40 -17 71q1 6 1 12q4 36 18 68q25 57 69.5 98.5t78.5 71.5q116 99 215 115
q-33 245 -135 318q-2 0 5 9q-6 -1 -12 -1h-343q-18 0 18 31q7 6 10 6q37 44 67 44h341q10 0 4 -13q6 1 11 -2q89 -64 124 -229q16 -72 18 -148zM292 339l20 9q73 102 73 327q0 28 -1 59q-183 -11 -262 -149q-30 -52 -30 -95q0 -52 44 -92q78 -53 120 -59h36z" />
    <glyph glyph-name="n" unicode="n" horiz-adv-x="1104" 
d="M760 1116q10 -26 9 -53q0 -100 -129 -222h16q62 0 119 -32q120 -67 187 -204q45 -88 45 -191q1 -213 -193 -493q-214 -309 -543 -519q-19 -19 -25.5 -14q-7.5 5 0.5 21q11 23 65 52q166 109 363 343q164 196 219 408q19 73 19 138q0 90 -36 165q-60 111 -158 191
q-75 60 -141 61q-14 0 -26 -3q-43 -34 -90.5 -66.5t-81.5 -58.5q-35 -26 -61 -59q-50 -62 -50 -136q0 -17 3 -34q17 -117 130 -117q23 1 49 5q56 10 113 38q17 5 17 -2q0 -28 -74 -71q-102 -54 -182 -54q-44 -1 -80 15q-40 18 -58 65q-14 37 -14 73q0 10 1 20q5 46 23 87
q50 115 152 187q33 24 66 46q62 43 63 45q21 44 98 77q97 89 96 169q0 60 -56 115q-1 2 3 8h-700q-22 0 15 37q7 7 10 7q38 38 65 38h1207q11 0 -7 -21t-18 -24q-37 -37 -66 -37h-364z" />
    <glyph glyph-name="o" unicode="o" 
d="M-285 1505l-104 9q-67 0 -100 -8t-60 -10t-52 -9q-111 -31 -152.5 -34t-66.5 -10t-47 -7t-51 7q-38 0 -66 26q-42 13 -57 54q-28 40 -28 74q0 51 19 115l141 63q-18 -69 -18 -94q0 -34 18 -86q14 -14 25 -26t32 -19q27 -27 75.5 -27t85.5 9q31 0 103 18l114 27
q29 7 55.5 9t65.5 12q17 4 37 5q27 0 59 -8q86 0 122 -15.5t57 -29.5q38 -35 38 -87q0 -87 -66 -164q-14 -20 -33 -36t-33 -36l-142 -54q14 14 33 31.5t41 41.5q52 58 68 143q0 44 -38 80q-17 16 -75 36z" />
    <glyph glyph-name="p" unicode="p" horiz-adv-x="1138" 
d="M238 1199q16 2 32.5 2t31.5 -2h66q8 0 -3 -18q81 -40 80 -157q0 -55 -18 -128q-60 -206 -210 -325q49 -28 101 -88l85 -97q79 -90 185 -108q17 -3 34 -3q41 0 83 16q64 17 103 64.5t64 120.5q6 16 20.5 25.5t22.5 16.5q7 129 10 277v37q0 131 -19 277q0 4 2 9h-2
q-17 0 19 36q15 12 32.5 28.5t33.5 16.5h236q22 0 -19 -45q-45 -36 -64 -36h-134q11 -97 11 -232q0 -180 -19 -426q-42 -682 -552 -1104q-92 -76 -156 -118q-61 -40 -69 -39h-1q-6 3 0 13q18 31 79 71t146 112.5t157 158.5q151 182 221 406q40 117 56 233t26 225
q-87 -128 -220 -188q-79 -36 -149 -36q-61 0 -115 27q-79 40 -165 145q-89 109 -157 138q-14 5 12 30q48 46 59 46q68 30 120 137q46 95 53 170q3 28 2 52q1 39 -7 65q-30 101 -134 114h-261q-22 0 18 36q16 12 33.5 28.5t32.5 16.5h207z" />
    <glyph glyph-name="q" unicode="q" horiz-adv-x="1140" 
d="M404 799q31 38 60 38h46q133 11 276 61q13 6 29.5 12t33.5 14q38 19 58 50q8 20 8 43q0 46 -32 102h-990q-17 0 21 45q44 38 67 38h984q11 5 15 0h249q14 0 -10.5 -22t-33 -29.5t-17.5 -14.5q-22 -17 -34 -17h-122q1 -10 1 -20q0 -54 -33 -99q-73 -100 -221 -159
q-20 -8 -40 -19q19 0 27 -8q186 -35 222 -167q5 -29 5 -57q-1 -104 -73 -198q-82 -105 -216 -157q-94 -36 -184 -36q-86 -1 -170 33t-147 112q-61 72 -61 134q0 50 40 93q16 11 27 22t26 17q0 -10 21 -31h-14v-22q0 -37 10 -60q31 -66 72 -100q74 -77 173 -98q25 -15 48 -15
h100q89 8 128 27q77 38 99 108q17 52 17 96q0 129 -141 195q-84 39 -165.5 45.5t-132.5 6.5l-53 -8q-23 0 17 38q8 7 10 7z" />
    <glyph glyph-name="r" unicode="r" horiz-adv-x="1076" 
d="M-93 1117q-11 -1 12 29q43 54 76 55h906q15 8 33 16v-8q0 -4 1 -8h218q11 0 -6 -21q-17 -20 -23 -28q-28 -34 -58 -35h-125q8 -111 10 -167q14 4 26 7q12 4 12 -2q0 -15 -36 -50v-40q0 -457 -197 -603q-66 -49 -135 -49q-58 0 -118 35q-153 100 -215 228q-30 61 -30 118
q0 72 47 134q34 46 101 92t138 64q85 22 193 33.5t119 12.5q-3 94 -9 187h-940zM370 592q63 -162 217 -256q70 -42 114.5 -42t50 3t6.5 3.5t5 3t9 4.5l7 24q42 77 67 252q12 119 12 235v42q-48 -11 -147 -20t-157 -17t-98 -23.5t-61 -26t-33 -44.5q-9 -27 -9 -56
q0 -39 17 -82zM757 300q5 3 9 8q-8 -6 -9 -8z" />
    <glyph glyph-name="s" unicode="s" horiz-adv-x="1140" 
d="M615 875q156 0 209 38q-3 93 -15 185q-2 11 6 22h-306q24 -76 24 -238v-10q12 -1 24 -1q29 0 58 4zM442 883q-6 151 -59 229q-2 3 -1 8h-409q-22 0 18 36q15 12 31.5 28t31.5 16h1165q19 0 -18 -44q-15 -11 -31.5 -23.5t-32.5 -12.5h-230q13 -117 13 -254q0 -112 -8 -236
q-20 -294 -44 -434t-71 -262t-114 -227.5q-67 -106.5 -148 -196.5q-149 -166 -362 -313q-23 -17 -28.5 -15t-0.5 12q14 30 41 48q420 285 543 706q59 180 76 417q21 313 21 473v44q-38 -39 -110 -61q-91 -28 -181 -32q0 -28 1 -80v-11q0 -48 -7 -108q-8 -68 -31 -127
t-60 -105q-79 -100 -183 -100h-11q-119 0 -183 82q-40 50 -46 140q-1 13 0 25q0 98 53 177q69 104 194 142q55 16 85 20.5t33 4.5q33 33 46 33h12q2 0 5 1zM442 790q-14 1 -27 2q-46 -10 -88 -14t-75 -12.5t-56 -11.5t-37 -11t-21 -22t-12 -30.5t-8.5 -33.5t-9.5 -55
q-2 -11 -2 -24q0 -30 10 -70q16 -56 48 -96q60 -75 144 -75q17 0 35 3q44 0 54 24q18 45 24 73.5t11 51.5q5 62 5 200q3 47 5 101z" />
    <glyph glyph-name="t" unicode="t" horiz-adv-x="1100" 
d="M1161 1158q-41 -41 -62 -41h-138q1 -23 1 -69t-5 -120q1 -18 -29 -45q-45 -41 -61 -41q-3 0 -5 2q-66 143 -183 143q-4 -1 -9 -1q-109 -6 -210 -118q-102 -114 -120 -252q-6 -37 -6 -72q0 -96 48 -170q61 -94 173 -112q40 -4 73 -4q118 0 164 54q57 75 126 230
q18 29 59 65q2 0 9 2q8 2 14 3q16 2 9 -12q-104 -203 -170 -277q-67 -74 -131 -111q-73 -42 -178 -42q-19 0 -38 2q-138 9 -202 107q-55 78 -55 181q0 43 10 90q38 182 203 356q106 112 218 154q47 18 89 18q60 0 111 -35q-1 36 -3 74h-943q-21 0 19 47q44 41 62 41h936
q9 5 20 10q0 -5 1 -10h224q15 0 -3 -22.5t-18 -24.5z" />
    <glyph glyph-name="u" unicode="u" 
d="M-908 0q13 -23 34 -39.5t39 -31.5t40 -18.5t45 -11.5q15 -3 35 -3q37 0 91 11q134 28 266 113q11 7 26.5 14.5t28.5 15.5l-94 -90q-11 -8 -27 -20.5t-28 -20.5q-65 -30 -126.5 -57.5t-114.5 -38.5t-89 -17q-14 -2 -30 -2q-23 0 -47 5q-61 1 -125 67q-20 22 -32 43z" />
    <glyph glyph-name="v" unicode="v" horiz-adv-x="1100" 
d="M1152 1155q-48 -38 -65 -38h-131v-166q0 -16 -26 -38q-48 -38 -65 -38q-196 38 -261 41q-21 1 -39 1q-40 0 -72 -4q-135 0 -162 -90q-12 -25 -12 -48q0 -32 23 -58q68 -74 263 -74q35 -3 71 -3q19 0 39 1q70 18 125 18q17 0 32 -2q20 0 -18 -35q-8 -7 -13 -14
q-21 -25 -49 -34q-88 -18 -196 -19q-68 -21 -75 -79q0 -34 3 -65.5t22 -55.5q24 -39 70 -59q42 -18 87 -18h7q117 4 162 92q11 17 28 29.5t25 20t14.5 10.5q6.5 2 12.5 4q15 4 10 -10q-33 -70 -115 -131q-99 -75 -216 -91q-20 -3 -39 -2q-58 0 -104 28q-32 20 -52 72
q-15 36 -15 73q0 17 3 35q16 87 100 148q-143 3 -197 27.5q-53 24.5 -79 52.5q-23 25 -24 68v8q2 50 30.5 96.5q29.5 45.5 69.5 81.5q121 106 331 106q93 0 203 -20v127q0 6 6 14h-992q-14 0 27 45q48 38 67 38h1206q16 0 -14 -35q-6 -7 -6 -10z" />
    <glyph glyph-name="w" unicode="w" horiz-adv-x="520" 
d="M-52 1118q9 8 9 26.5t15 57.5h285q45 22 45.5 14.5t2.5 -14.5h266q-7 -18 -16.5 -31t-14.5 -30v-23h-226q1 -18 1 -37q0 -164 -74 -348q-9 -22 -63 -60q-30 -16 -42 -16q-7 0 -4 8q70 199 70 371q0 42 -4 82h-250z" />
    <glyph glyph-name="x" unicode="x" horiz-adv-x="1174" 
d="M1238 1154q-32 -38 -68 -38h-925q-3 -24 -4 -44q0 -71 38 -108q80 -79 196 -91q36 -3 72 -3q99 0 197 25q128 21 177 62q31 38 59 38q12 0 2 -14q-44 -63 -176 -123v-99q0 -19 -29 -42q-44 -36 -59 -36q-4 0 -6 2q-53 63 -139 63q-53 0 -118 -24q-159 -57 -181 -194
q-4 -22 -3 -42q0 -73 47 -126q59 -68 122 -84q49 -12 88 -12h21q46 4 73 8q28 4 54 11q61 16 97 51q69 62 109 144q14 30 15 52q1 25 -17 42t-60 21q-15 0 16.5 29.5t41.5 36.5q23 17 36 17q87 -9 87 -68q0 -62 -98 -180q-99 -117 -191 -171q-138 -79 -263 -79q-21 0 -42 2
q-114 12 -174 93q-57 70 -57 147q0 48 22 100q68 152 271 255q14 7 29 14q-26 -1 -49 -1q-83 0 -124 11q-92 26 -134 74q-51 52 -51 136q0 48 17 107h-234q-12 0 -2 16q20 30 28 30q30 37 61 37h1254q8 1 -3 -13l-17 -22q-6 -8 -6 -10zM712 820v3l-6 -2q3 0 6 -1z" />
    <glyph glyph-name="y" unicode="y" 
d="M-765 1468q-11 -21 -28.5 -33t-26 -19t-16 -10t-14.5 -4.5t-11 0.5t1 10q78 118 212 160q62 20 129.5 19.5t127.5 -18.5t119 -49.5t106 -76.5q101 -96 101 -213q0 -10 -1 -19q-2 -10 -15 -21h89q6 0 -5 -13t-19 -20t-15 -14.5q-7 -8.5 -16 -14.5q-21 -16 -39 -15h-206
q-18 0 20 42q45 35 66 35h41q-6 77 -50 132q-71 87 -171 135q-136 62 -240 62q-32 0 -62 -6q-50 -10 -77 -49z" />
    <glyph glyph-name="z" unicode="z" horiz-adv-x="1148" 
d="M-51 1121q-22 0 18 40q46 34 63 34h1177q5 0 5 -3q0 -10 -61 -56q-20 -15 -32 -15h-156v-28q0 -33 1 -77q2 -63 2 -147q0 -6 1 -13q0 -78 -6 -154q-6 -82 -27 -158q-46 -167 -169 -251q-23 -23 -36 -27.5t-16.5 0.5t1 12q4.5 6 12.5 14q12 12 38 31t47.5 67.5t33 104.5
t15.5 112q8 123 8 167q-195 -82 -361 -93q-3 -16 -7 -46q-40 -282 -134 -443q-183 -319 -582 -482q-15 -5 -18 -1t11 15q19 35 63 47q342 149 469 434q54 118 88 305q13 108 20.5 133t10.5 37q-86 0 -114 48q-8 14 -8 32q0 32 30 78q47 72 111 82q32 4 53.5 -18.5
q21.5 -21.5 27.5 -41.5q6 -21 5 -40q0 -13 -3 -26q-7 -29 -10 -45h3q148 0 344 72l-1 98v44q0 102 5 158h-922zM698 82q0 -32 -32.5 -54.5t-76 -22.5t-75 22.5t-31.5 55t31 56t75.5 23.5t76.5 -24t32 -56zM403 832q-2 -7 -2 -13q0 -22 22 -44q8 -6 17 -10q0 42 -37 67z" />
    <glyph glyph-name="braceleft" unicode="{" horiz-adv-x="714" 
d="M201 904q27 51 28 113q0 38 -11 81q-10 40 -22 78t-21.5 71t-16.5 66q-11 51 -11 102q-1 82 27 165q24 73 59 109q75 80 149 100q17 5 35 5q40 0 85 -27q4 -2 -12 -14t-23.5 -17.5t-14 -10.5t-14.5 -9q-20 -12 -28 -7t-23 11q-39 15 -59 15q-14 1 -20 -7
q-4 -6 -9.5 -16.5t-13.5 -25t-21 -49.5q-30 -81 -30 -164q0 -65 18 -133q10 -38 24 -74q41 -123 41 -203q0 -54 -19 -88q-22 -42 -66 -74q85 -22 89 -144v-28q0 -78 -14 -149q-18 -86 -30 -154q-8 -48 -8 -94q0 -94 34 -183q44 -88 101 -88q0 1 2 1q19 1 25 15q56 66 67 74
t19.5 13t14.5 7.5t13 5.5t11.5 4.5t2.5 -0.5q-94 -132 -200 -172q-21 -8 -40 -8q-39 0 -69 33q-65 70 -67 236v10q0 72 16 148q17 81 23 116q12 69 12 121q0 175 -129 179q-10 0 9.5 15.5t26.5 22t15 12.5q17 12 27.5 11t17.5 -1zM417 60q-11 -6 -11 -8q-2 -5 11 8zM430 68
q1 0 1 1q0 -1 -1 -1zM297 1727q-1 -1 -2 -1q1 0 2 1z" />
    <glyph glyph-name="bar" unicode="|" horiz-adv-x="1110" 
d="M166 1000v11q0 38 -3 62q-3 28 5 41h-249q-22 0 18 40q7 6 15.5 14q9.5 8 17.5 16q21 18 31 18h1189q14 0 -27 -48q-43 -40 -63 -40h-840v-48q0 -33 -2.5 -107t-2.5 -79q138 128 338 137q13 1 26 1q127 0 231 -56q66 -35 94 -118q14 -42 13 -88q0 -42 -11 -87
q-40 -154 -175 -276q23 -88 60 -117q35 -28 65 -29q2 1 3 1q31 2 59 20q38 27 69.5 76.5t48.5 64.5q18 15 34 25q44 28 22 -9q-25 -28 -45 -65q-80 -107 -137.5 -149q-57.5 -41 -104.5 -53q-14 -4 -28 -4q-29 0 -55 18q-59 42 -89 148q-135 -88 -277 -111q-28 -5 -52 -5
q-45 0 -76 16q-48 25 -69 61t-28 79q-4 23 -4 46q0 20 3 40q16 122 124 214q84 72 171 72q17 0 34 -3q89 -7 136 -41q85 -64 107 -159q7 -30 12 -56.5t9 -42.5q103 115 103 240q0 21 -3 43q-13 104 -94 158q-64 43 -161 50q-57 8 -105 8q-182 0 -248 -107l1 -28
q0 -22 -48 -55q-13 -9 -19.5 -12.5t-12 -7.5t-14.5 -7.5q-10 -3.5 -16 -3.5q-10 -1 14 46v12q0 33 2 104q4 84 4 130zM665 355q-3 13 -8.5 40.5q-4.5 27.5 -16.5 66.5q-27 92 -78 131q-70 46 -159 56q-98 0 -120 -47q-23 -54 -23 -108q0 -42 14 -84q39 -117 167 -117
q48 0 109 17q56 15 115 45z" />
    <glyph glyph-name="braceright" unicode="}" horiz-adv-x="762" 
d="M692 967q4 1 0.5 -2.5t-9 -8t-11.5 -8.5q-11 -8 -16 -11.5t-12 -8.5q-26 -17 -44 -23q-38 -51 -39 -137v-17q0 -76 8 -145q9 -78 14 -140q7 -83 7 -135q0 -31 -3 -52q-6 -54 -16.5 -92.5t-33.5 -63.5t-47 -43t-52 -32q-89 -45 -186 -46q-36 0 -73 6q-69 12 -130 29
q-3 0 4 5q71 51 93 51q3 0 5 -1q139 -33 189 -33h6q77 4 81 8q60 65 60 179q-1 3 -1 7q-2 105 -13 206q-17 151 -17 213q0 10 1 18q3 55 9 93q11 66 83 120q-57 7 -87 51q-26 40 -26 88v12q4 56 13.5 101t22.5 89.5t26.5 89.5q13.5 46 23.5 92q21 94 22 151q0 87 -48 93
q-21 -20 -56.5 -32.5t-36.5 -10.5t16 15q43 33 98 58.5t79 25.5q50 0 50 -98q0 -42 -7.5 -82t-14.5 -74q-10 -47 -31 -116t-31 -104t-17 -75t-7 -80q0 -88 56 -123q23 -15 61 -17q19 6 37 10zM447 72q-2 0 -1.5 0h1.5zM487 1670q-3 0 -6 -2q-27 -10 6 2z" />
    <glyph glyph-name="asciitilde" unicode="~" horiz-adv-x="400" 
d="M-7 1469.5q-25 56.5 -33.5 93t-1.5 48t18.5 24t25.5 25t26 21.5q30 21 30 18q66 -225 163 -225q5 0 10 1q39 8 42.5 13.5t5.5 13.5q41 56 65 150q9 32 32 50l31 23q-1 5 15 15q29 19 28 8q-52 -186 -180 -306q-86 -80 -150 -80q-33 0 -60 20q-42 31 -67 87.5zM527 1144
q-49 -57 -71 -57q-49 4 -106 4q-70 0 -150 -6q-196 -13 -307 -13q-47 0 -79 2q-8 0 13.5 29t30.5 39t19 19q23 21 37 21q32 -2 73 -2q72 0 172 6q197 12 310 13q51 0 85 -3q12 -2 -7.5 -26t-19.5 -26z" />
    <glyph glyph-name="Aring" unicode="&#xc5;" horiz-adv-x="2168" 
d="M1019 1100q-37 -134 -37 -248q0 -152 66 -271q104 -154 252 -217q70 -30 148 -30q43 0 87 10q115 24 175 106q42 58 41 136q0 26 -4 54q-16 102 -86 177q-64 69 -152 74q-89 -30 -175 -49q-22 -5 12 22q35 28 42 28q108 62 202 67q146 57 180 141q6 13 -39 19
q-80 10 -161 9q-33 0 -66 -1q-114 -5 -196 -11q-210 -14 -289 -16zM1035 1151q27 21 51 21q99 0 199 7t200 13t199.5 6t197.5 -14q5 -5 0 -5q-46 -130 -224 -224q27 -6 52 -18q137 -79 150 -232q4 -27 4 -52q0 -127 -103 -211q-126 -122 -279 -164q-64 -17 -126 -17
q-76 0 -148 26q-211 75 -297 313q-41 113 -41 213q0 27 3 53q14 124 52 225.5q39 101.5 103 189.5q196 268 574 344q88 18 169 18q131 -1 247 -47q96 -38 166 -120q9 -11 -26 -34q-56 -35 -75 -35q-4 0 -6 2q-145 157 -403 165h-28q-233 0 -402 -125q-143 -109 -209 -298z
M846 170q37 29 64.5 35t27 3t-4 -8t-8 -10t-4.5 -8q-126 -82 -188 -82q-10 0 -19 2q-54 14 -76 104q-10 39 -10 91q-10 72 -10 166q0 109 14 248q6 69 9.5 109t4.5 52q-138 -88 -249 -88q-45 0 -85 14q-58 20 -90.5 71.5q-31.5 51.5 -39.5 99.5q-4 23 -4 47q0 26 4 50
q17 102 86 175q106 102 222 128q25 6 50 6q58 -1 112 -31q72 -40 107 -106q20 -38 20 -91q0 -15 -2 -32q-7 -73 -14 -114q-5 -70 -11.5 -140q-6.5 -69 -11.5 -139q-9 -129 -9 -234q0 -86 6 -156q5 -56 35 -103q15 -45 44 -52q7 -7 30 -7zM650 901q1 10 5.5 35t7.5 65
q2 27 2 53q-1 13 -1 26q-2 38 -13 74q-33 98 -143 138q-38 14 -68 13q-10 0 -19 -1q-35 -7 -49 -24q-81 -83 -81 -200q0 -90 47 -151q17 -22 42 -37q56 -38 120 -42h11q57 0 109 34q13 9 30 17z" />
    <glyph glyph-name="Ccedilla" unicode="&#xc7;" horiz-adv-x="2112" 
d="M1236 1388q-96 -319 -100 -522v-17q0 -197 88 -439q174 46 288 182t114 310t-110 305.5t-280 180.5zM1302 218q-60 -25 -94.5 -46t-103.5 -88v-198q633 344 746 672q70 204 70 316.5t-48.5 206.5t-165.5 239q158 -61 250 -207.5t92 -352.5q0 -102 -22 -202
q-44 -200 -140 -336q-72 -95 -214 -284q-92 -123 -104 -228l-228 210q-116 -37 -204 -106q93 -37 180 -92q118 -75 118 -156q0 -28 -22 -49t-50 -21q-62 0 -62 64q0 28 24 62q-40 35 -74 58.5t-150 67.5v-232q54 -50 54 -89t-31 -69t-73 -30t-68 29.5t-26 69t54 89.5v232
q-52 -18 -130 -54l-94 -72q24 -34 24 -62q0 -64 -62 -64q-28 0 -50 21t-22 49q0 81 118 156q87 55 180 92q-94 76 -204 106l-228 -210q-12 105 -94.5 213t-223.5 299q-96 136 -140 336q-22 100 -22 202q0 206 92 352.5t250 207.5q-117 -145 -165.5 -239t-48.5 -206.5
t70 -316.5q113 -328 746 -672v198q-32 32 -110 92q-30 18 -88 42q20 44 44 112q-196 54 -322 213.5t-126 359t126 357t316 212.5q-16 46 -30 76q75 54 154 126q23 21 52 70.5t38 61.5q20 -46 80 -132q78 -72 154 -126q-14 -30 -30 -76q196 -57 322 -212.5t126 -357
t-129.5 -359.5t-328.5 -213q10 -30 48 -112zM884 410q90 248 90 443v17q-4 200 -100 518q-166 -46 -274 -179t-108 -307.5t109.5 -309.5t282.5 -182z" />
    <glyph glyph-name="aring" unicode="&#xe5;" horiz-adv-x="1398" 
d="M68 1676q91 -61 198 -174q28 -30 78 -58q45 -26 76 -26h7q34 3 101 52q205 149 418 284q156 98 354 98h16q208 -4 370 -100.5t228 -271.5q14 -37 14 -66q0 -50 -40 -50q-32 0 -62 64q-70 151 -200 233q-128 81 -268 81h-4q-142 -1 -206 -20q-142 -42 -376 -218
q-135 -102 -212 -151t-144 -49t-129 42t-145 121.5t-130 110.5q-109 70 -241 70h-21l28 106h22q151 0 268 -78z" />
    <glyph glyph-name="ccedilla" unicode="&#xe7;" 
d="M-288 -372h-324q10 -54 36 -142q28 -58 57 -74t97 -16q134 0 134 134v98zM-646 -572q-22 48 -52 200h-60q-58 0 -58 36t30 72t70.5 55t65.5 19q34 0 34 -36v-58h328v224h92v-424q0 -65 -42 -122q-62 -84 -182 -84q-173 0 -226 118z" />
    <glyph glyph-name="udieresis" unicode="&#xfc;" 
d="M-798 -552q186 -68 347 -68t337 68v-80q-190 -66 -340 -68h-9q-147 0 -335 68v80z" />
    <glyph glyph-name="dagger" unicode="&#x2020;" 
d="M-611 -290q3 20 4 34.5t12 24.5t25.5 20t29 18.5t19.5 12t15.5 10t22.5 11.5q32 13 32 -1q0 -41 -8 -81t-10.5 -64.5t-13 -35t-25 -20.5t-29 -18.5t-21.5 -12.5t-15.5 -9t-17.5 -9q-22 -10 -50 -2q-78 20 -133 20h-11q-11 -29 -11 -61q0 -56 36 -120q39 -71 102 -85
q12 0 22 -1q18 -2 26 8q24 28 37.5 50t24 32t22.5 19t25 16.5t19.5 11t19 9t25.5 10.5t22.5 7t5.5 -5q-70 -112 -160 -175q-22 -13 -45.5 -28t-47.5 -28q-59 -31 -111 -31q-57 0 -105 40q-44 37 -65 95q-13 38 -13 76q0 22 4 42q12 60 60 100q145 121 277 120h4zM-597 -657
q3 1 7 3q-4 -1 -7 -3zM-771 -363q6 4 9 5q-6 0 -9 -5zM-834 -400h-1q-1 0 -4 -2q2 1 5 2z" />
    <glyph glyph-name="degree" unicode="&#xb0;" horiz-adv-x="740" 
d="M666 782v-106h-598v106h598zM522 1342q-64 63 -156 64h-2q-89 0 -150 -62q-62 -64 -64 -152v-6q0 -85 62 -149q64 -66 152 -67h3q86 0 150 64q65 66 67 156v5q1 86 -62 147zM366 1496q125 0 216 -90q92 -92 92 -219q0 -123 -90 -211q-92 -88 -218 -90h-3q-125 0 -215 89
q-90 90 -90 216t91.5 215.5t216.5 89.5z" />
    <glyph glyph-name="cent" unicode="&#xa2;" horiz-adv-x="1056" 
d="M474 278v808q-159 -25 -256.5 -134.5t-97.5 -263.5t92 -270q92 -114 262 -140zM840 1104v-98q-114 70 -296 80v-808q176 10 292 80v-102q-104 -72 -292 -80v-168h-70v170q-210 19 -342 158t-132 340q0 202 124 350t350 170v158h70v-158q188 -10 296 -92z" />
    <glyph glyph-name="sterling" unicode="&#xa3;" horiz-adv-x="1180" 
d="M908 912q-77 182 -242 182q-236 0 -236 -172q0 -39 20.5 -115.5q21.5 -76.5 39.5 -150.5q11 -45 11 -66q0 -13 -5 -16h248v-50h-242q-10 -94 -26 -182.5t-118 -185.5q136 -61 250 -61q179 0 326 91l52 -80q-143 -90 -350 -106q-11 -1 -24 -1q-75 0 -190 31
q-134 36 -209 36t-157 -68l-56 96q36 21 77 44t96 35.5t71 24.5q101 79 124 170q10 38 18 152h-244v54h250q2 33 -32 158.5t-34 191.5q0 137 92 205q89 65 222 65h12q174 -4 286 -136q20 -23 80 -146h-110z" />
    <glyph glyph-name="section" unicode="&#xa7;" 
d="M-748 -658q186 -64 347 -64t337 64v-74q-170 -59 -330 -64h-22q-151 0 -332 64v74zM-748 -500q186 -68 347 -68t337 68v-74q-190 -66 -340 -68h-9q-147 0 -335 68v74zM-650 -396q-78 78 -78 196q0 74 56 106q28 16 90 16q64 0 64 -22q0 -20 -82 -36q-44 -8 -44 -48
q0 -102 60 -154q81 -70 172 -70h8q56 2 87 57t31 133v178h108v-176q0 -143 -60 -214q-78 -72 -192 -72q-3 -1 -7 -1q-43 0 -213 107z" />
    <glyph glyph-name="bullet" unicode="&#x2022;" horiz-adv-x="860" 
d="M94 596l340 340l340 -340l-340 -340z" />
    <glyph glyph-name="paragraph" unicode="&#xb6;" horiz-adv-x="1309" 
d="M1098 -254h-116v1662h-204v-1662h-116v800q-61 -18 -142 -18q-211 0 -310.5 122t-99.5 372t106.5 374t333.5 124h548v-1774z" />
    <glyph glyph-name="registered" unicode="&#xae;" 
d="M-553 -149q-61 -29 -101 -29q-86 0 -119 95q-5 18 30 43q54 38 88 51q26 10 56 10q45 0 97 -23q1 13 1 23q0 37 -10 60q-13 31 -5.5 43t22.5 24t33.5 22.5q18.5 9.5 36.5 17.5q40 17 44 9q21 -44 21 -88q0 -77 -63 -155q73 -45 113.5 -63t78.5 -20q8 -3 8 -9
q0 -14 -35 -47q-22 -14 -47 -30q-24 -16 -60 -16q-67 0 -175 74q-6 3 -14 8z" />
    <glyph glyph-name="acute" unicode="&#xb4;" horiz-adv-x="26" 
d="M262 -294h-234v-176q0 -72 -50 -72q-29 0 -89.5 33t-96.5 69q22 60 32 96q20 47 28 119q3 29 3 56q0 42 -7 81h-88q9 -34 9 -74t-9 -86q-20 -64 -42 -124q-17 -47 -17 -68q0 -6 1 -10q0 -26 56 -72q119 -98 236 -98q110 0 110 130v108h158v88z" />
    <glyph glyph-name="dieresis" unicode="&#xa8;" 
d="M-798 -652q186 -64 347 -64t337 64v-80q-170 -59 -330 -64h-22q-151 0 -332 64v80zM-798 -482q186 -68 347 -68t337 68v-80q-190 -66 -340 -68h-9q-147 0 -335 68v80z" />
    <glyph glyph-name="AE" unicode="&#xc6;" horiz-adv-x="2000" 
d="M1 1448q-5 -19 -53 -51q-28 -13 -37 -13q-6 0 -4 6q69 231 363 356q224 96 477 96q87 0 177 -12q211 -26 323 -135q71 -76 71 -171.5t-71 -209.5q-33 -42 -89 -58q-6 -2 -9 1t12 28t32.5 70t21.5 90q1 11 1 22q0 84 -58 152q-96 96 -276 134q-52 11 -103 19q-62 5 -121 5
q-180 -1 -336 -49q-255 -80 -321 -280z" />
    <glyph glyph-name="Oslash" unicode="&#xd8;" horiz-adv-x="386" 
d="M424 1076h-448v122h448v-122z" />
    <glyph glyph-name="plusminus" unicode="&#xb1;" horiz-adv-x="1224" 
d="M1098 20h-1038v102h1038v-102zM638 674v-370h-118v370h-372v118h372v370h118v-370h372v-118h-372z" />
    <glyph glyph-name="yen" unicode="&#xa5;" horiz-adv-x="1112" 
d="M688 750h340v-76h-402v-216h402v-76h-402v-382h-140v382h-400v76h400v216h-400v76h338l-400 626h156l376 -628l376 628h156z" />
    <glyph glyph-name="mu" unicode="&#xb5;" 
d="M-816 1486q2 -26 30 -86.5t28 -70.5t-12 -10t-56 51.5t-52 87t-8 60.5q0 74 59 148t201 74t201 -74t59 -148q0 -25 -8 -60.5t-52 -87t-56 -51.5t-12 10t28 70.5t30 86.5q1 7 1 13q0 65 -55 107q-60 46 -136 46t-136 -46q-55 -42 -55 -107q0 -6 1 -13z" />
    <glyph glyph-name="mu" unicode="&#x3bc;" 
d="M-816 1486q2 -26 30 -86.5t28 -70.5t-12 -10t-56 51.5t-52 87t-8 60.5q0 74 59 148t201 74t201 -74t59 -148q0 -25 -8 -60.5t-52 -87t-56 -51.5t-12 10t28 70.5t30 86.5q1 7 1 13q0 65 -55 107q-60 46 -136 46t-136 -46q-55 -42 -55 -107q0 -6 1 -13z" />
    <glyph glyph-name="ordfeminine" unicode="&#xaa;" horiz-adv-x="1208" 
 />
    <glyph glyph-name="ae" unicode="&#xe6;" horiz-adv-x="26" 
d="M-600 -124q48 0 82 -34t34 -82t-34 -82t-82 -34t-82 34t-34 82t34 82t82 34z" />
    <glyph glyph-name="questiondown" unicode="&#xbf;" horiz-adv-x="1332" 
d="M714 614l322 -324l-82 -82l-322 322l-322 -322l-84 82l322 324l-322 322l84 82l322 -322l322 322l82 -82z" />
    <glyph glyph-name="exclamdown" unicode="&#xa1;" horiz-adv-x="1820" 
d="M437 619q4 70 4 120q0 95 -15 117q-53 63 -133 63q-25 0 -55 -7q-25 -6 -36.5 -13.5t-12.5 -7.5l-6 -5q-34 -24 -52 -74t-18 -88q0 -84 58 -134q54 -46 124 -46q40 0 55 6q18 7 30 22q16 28 57 47zM1180 764q31 10 37.5 16.5l14 14t7.5 24t-18 35.5t-50.5 30
q-32.5 10 -68.5 12q-8 0 -17 1q-108 -1 -268 -55q-38 -13 -76 -24q-33 -107 -32 -189q0 -33 5 -62q28 -147 146 -233q84 -61 189 -60q43 0 90 10q46 11 100 39q-5 -2 -4.5 -1t8.5 7q6 6 9.5 12.5t15 25t13 49.5t-8.5 60q-20 58 -83 104q-85 62 -198 61q-33 0 -67 -5
q-22 -5 -45 -9q-12 -8 9 13l15 15q32 27 56.5 34t81.5 20.5t139 54.5zM1389 1183q-21 27 -50.5 59.5q-29.5 31.5 -79.5 55.5q-44 21 -90 21q-62 0 -128 -37q-58 -29 -162 -178q-81 -121 -123 -241q86 26 171 52.5t151 35.5q53 7 93 7q56 0 90 -13q9 -5 20.5 -11t21.5 -14
q24 -18 23 -41t-19.5 -42.5t-43.5 -41.5q-51 -45 -148 -91q91 -8 171 -66q78 -57 83 -137v-11q0 -70 -66 -136q-89 -87 -229 -127q-58 -16 -112 -16q-89 0 -167 44q-80 50 -126.5 130t-48.5 159q0 8 -1 16q0 176 117 396q136 258 366 382q80 44 153 43q74 0 139 -47
q34 191 206 351q201 187 426 187q28 0 54 -2q102 -10 198 -72q125 -80 133 -189q1 -10 1 -20q0 -119 -136 -225q-83 -64 -111 -72q-5 -2 -2 1q6 14 21.5 24.5t39.5 26.5t52 50.5t39 75.5q7 27 7 53q0 13 -2 25q-6 38 -22 71q-34 67 -104 109q-76 53 -170 72q-46 9 -91 9
q-90 0 -177 -37q-74 -32 -144 -111q-96 -108 -128 -259q-10 -49 -10 -99q0 -28 4 -57q10 -14 16 -24q7 -11 -6 -22t-19.5 -16t-13 -9.5t-8 -6t-9.5 -6.5t-17 -10q-24 -13 -24 -10q-5 20 -8 41zM435 592q-57 -59 -143 -98q-36 -16 -72 -16q-17 0 -34 4q-51 12 -79 28
q-59 35 -74 92q-9 36 -9 66q0 17 3 31q8 41 29 77q55 94 191 168q75 41 136 42q63 0 111 -44q34 -32 36 -102q0 -12 1 -24q0 -48 -5 -115q-4 -83 -8 -145q-5 -86 -5 -156q-1 -306 91 -322q22 -4 45 8t25 8.5q2 -4.5 -10 -16.5q-15 -16 -38.5 -29t-24.5 -14v-1h-1
q-43 -20 -74 -20q-37 0 -58 29q-32 51 -36.5 104t-7.5 95q-2 23 -2 58q0 98 13 292z" />
    <glyph glyph-name="florin" unicode="&#x192;" horiz-adv-x="1104" 
d="M424 1495q2 -26 30 -86.5t28 -70.5t-12 -10t-56 51.5t-52 87t-8 60.5q0 74 59 148t201 74t201 -74t59 -148q0 -25 -8 -60.5t-52 -87t-56 -51.5t-12 10t28 70.5t30 86.5q1 7 1 13q0 65 -55 107q-60 46 -136 46t-136 -46q-55 -42 -55 -107q0 -6 1 -13zM-20 -156
q60 -72 165 -85q16 -2 31 -6q229 22 353 71q42 17 78 29l-117 -75q-45 -19 -84 -35t-83 -22q-140 -41 -275 -41q-119 0 -175 62q-16 17 -30 36zM460 -24q-155 -50 -245 -50q-36 -6 -73 -6t-74 6q-88 27 -116 44.5t-51 29.5l147 66q15 -12 30.5 -19t33.5 -16.5t41.5 -12.5
t45.5 -9q32 -9 72 -10l72 1q59 6 117.5 22t118.5 28q30 16 48 16l-118 -73q-34 -17 -49 -17zM760 1116q10 -26 9 -53q0 -100 -129 -222h16q62 0 119 -32q120 -67 187 -204q45 -88 45 -191q1 -213 -193 -493q-214 -309 -543 -519q-19 -19 -25.5 -14q-7.5 5 0.5 21
q11 23 65 52q166 109 363 343q164 196 219 408q19 73 19 138q0 90 -36 165q-60 111 -158 191q-75 60 -141 61q-14 0 -26 -3q-43 -34 -90.5 -66.5t-81.5 -58.5q-35 -26 -61 -59q-50 -62 -50 -136q0 -17 3 -34q17 -117 130 -117q23 1 49 5q56 10 113 38q17 5 17 -2
q0 -28 -74 -71q-102 -54 -182 -54q-44 -1 -80 15q-40 18 -58 65q-14 37 -14 73q0 10 1 20q5 46 23 87q50 115 152 187q33 24 66 46q62 43 63 45q21 44 98 77q97 89 96 169q0 60 -56 115q-1 2 3 8h-700q-22 0 15 37q7 7 10 7q38 38 65 38h1207q11 0 -7 -21t-18 -24
q-37 -37 -66 -37h-364z" />
    <glyph glyph-name="ellipsis" unicode="&#x2026;" horiz-adv-x="2074" 
d="M1675.5 -171.5q-27.5 26.5 -27.5 64t27 64.5t64.5 27t64 -27.5t26.5 -64t-27 -63.5t-63.5 -27t-64 26.5zM965.5 -171.5q-27.5 26.5 -27.5 64t27 64.5t64.5 27t64 -27.5t26.5 -64t-27 -63.5t-63.5 -27t-64 26.5zM255.5 -171.5q-27.5 26.5 -27.5 64t27 64.5t64.5 27
t64 -27.5t26.5 -64t-27 -63.5t-63.5 -27t-64 26.5z" />
    <glyph glyph-name="nonbreakingspace" unicode="&#xa0;" horiz-adv-x="800" 
 />
    <glyph glyph-name="OE" unicode="&#x152;" horiz-adv-x="2656" 
d="M550 350l90 8q53 -19 56 -20q31 -16 35 -44q-83 -35 -93 -35t-28.5 1t-40 23t-21.5 40.5t2 26.5zM550 247q93 -39 125 -121q-8 -18 -37.5 -13.5t-18.5 4.5q-30 9 -65.5 37.5t-35.5 53.5t32 39zM541 563v-94q-1 -57 -38 -78q-35 10 -35 47.5t19.5 87.5t41.5 50q9 0 12 -13
zM465 197q75 -46 75 -153q0 -14 -1 -27q-28 0 -63.5 52t-35.5 84t25 44zM430 232q-68 0 -74 76q3 61 75 61q11 0 22 -2q35 -15 50 -76q-25 -59 -73 -59zM344 197q17 12 30 12q26 0 26 -54q0 -78 -75 -124q-21 39 -21 88.5t40 77.5zM302 571q43 1 79 -49q31 -42 31 -81
q0 -6 -1 -12q-3 -23 -55 -23q-54 50 -54 148v17zM152 426l79 3q30 -11 59 -23q35 -18 35 -49q0 -10 -2 -19q-11 -16 -42 -15.5t-50 0.5q-79 31 -79 103zM112 194q20 26 71.5 58.5t89.5 32.5t52 -34q5 -71 -140 -71q-50 0 -73 14zM725 -435q-98 -72 -120 -91
q-65 -56 -76 -107q81 41 219 156q-30 -82 -95 -154.5t-130 -72.5q-30 0 -56 17q-9 22 -9 45q0 86 90 150q82 58 160 58q9 0 17 -1zM1746 1651q71 -29 71 -81q0 -15 -9 -30q-27 6 -89 35.5t-103 29.5q-73 0 -172 -72q96 134 226 134q38 0 76 -16zM1400 1434q96 124 202 124
q61 0 110 -43.5t49 -104.5q0 -14 -3 -27q-85 96 -195 96q-75 0 -163 -45zM1134 1557l-72 -62q0 42 40 94t80 52q17 0 29 -10q-61 -174 -158 -210q-2 23 39 69t42 67zM1007 1508l9 92q0 33 -18 58q-14 -20 -14 -57v-14q1 -13 1 -24q0 -29 -6 -42q-39 31 -39 86.5t20.5 104.5
t56.5 52q27 -70 27 -147.5t-35 -136.5q-2 13 -2 28zM915 1259q-8 -21 -45 -75.5t-37 -75t1 -29.5q21 12 55.5 80.5t56.5 75.5q0 -144 -152 -221q-9 26 -9 73.5t29.5 110.5t83.5 63q8 0 17 -2zM681 1738q113 -53 197 -138t84 -190q-6 0 -65.5 83t-97.5 97q14 -34 56.5 -89
t56.5 -82q-173 91 -231 319zM896 1318q-104 -99 -225 -99q-38 0 -73 11q38 92 185 92q19 0 56.5 -2t56.5 -2zM548 1462l168 -3q136 -11 155 -60q-111 28 -138 28t-27 -4q0 -13 145 -71q-13 -1 -27 -1q-64 0 -154 22q-110 27 -122 89zM268 96l-7 -78q0 -36 26 -58h3
q46 0 70 28q25 29 63 76q13 -9 60 -69t90 -60q8 0 16 2q3 11 3 30q0 15 -2 35q-4 44 -4 58.5t6 27.5q81 -36 131 -36q3 13 3 35t-34.5 74.5t-40.5 66.5q57 17 172 63q-56 66 -225 109q78 47 244.5 113t200.5 82q-9 -40 -57.5 -131t-48.5 -150t70 -124q127 65 127 245
q0 49 -8.5 115t-8.5 72q107 29 594 122q33 -13 82 -37h-6q-93 1 -157 -31q-66 -32 -178 -114q31 -49 106 -49t173.5 44t159.5 89q211 -119 314 -171t229 -98q-55 -8 -168 -39.5t-165 -38.5q-36 16 -71 31q-44 25 -44 63q0 10 2 22q-21 73 -87 73q-36 0 -64 -29.5t-28 -66.5
q0 -78 87 -78l62 2q62 0 87 -42q-402 -73 -927 -443q-73 29 -141.5 55.5t-134.5 26.5q-131 0 -247 -121q102 -64 217 -64t190 31q-36 -23 -126 -93q-88 -69 -103 -68h-1q-34 12 -71 12q-101 0 -199 -78t-98 -177q0 -48 29 -82t77 -34q98 0 191.5 110.5t97.5 211.5l248 184
q-50 -109 -50 -207q0 -158 112 -229q75 62 75 200q0 70 -18 165l-23 118q243 153 359 216q237 128 445 189q-98 -65 -218.5 -256t-120.5 -343q0 -15 1 -30q-245 -138 -245 -288q0 -35 15 -69q124 21 182 79q36 36 52.5 97.5t31.5 67.5q46 -120 156 -183t232 -63t198 57
t88 163q4 40 4 86q0 176 -42 176q-3 0 -6 -1q-19 -5 -19 -31t6.5 -68.5t7.5 -61.5v-22q0 -126 -43 -170q-72 -73 -179 -73q-15 0 -41 4q-264 32 -323 229q62 -85 174.5 -85t150.5 73q-65 128 -180 128q-52 0 -175 -36q31 239 182 435q104 134 221 206q2 -9 2 -23.5
t-13.5 -55.5t-15.5 -51q-78 -35 -78 -102t75 -76q8 -1 16 -1q32 0 60 19q34 24 34 72.5t-66 92.5q15 62 37 142q309 74 401 100q-97 -65 -130 -114.5t-33 -154.5q0 -25 1 -79q218 13 244 330l44 -11v86l-44 22q-4 15 -4 38t15.5 81t15.5 87q0 109 -157 189
q-24 -118 -24 -225t52 -156q-11 2 -64 24q-54 90 -104.5 226t-69.5 231l178 59q141 65 141 182q0 21 -4 44q-66 7 -102 7q-78 0 -120 -45l-116 -163q-4 105 -4 215t10 207q105 15 196 87.5t121 171.5q-37 17 -94 17t-130 -40t-119 -91q-22 138 -39 173q-34 74 -135 112
q-44 -47 -44 -120t58 -159.5t127 -144.5v-359q-62 156 -260 203q-36 -32 -36 -71q0 -80 134 -180q95 -71 187 -111q37 -177 159 -431q-144 78 -436 228q31 97 31 174q0 131 -92 217q-86 -70 -86 -158.5t49 -189.5q-40 23 -138 76q-333 180 -341 373q-1 13 0 25
q0 171 110 204q52 15 101.5 15t96 -27.5t46.5 -81.5v-26q0 -18 -39 -45q-8 -2 -16 -2l-65 15q-14 0 -17.5 -17.5t22.5 -27t45 -9.5q75 0 120 82q30 57 42 89q9 25 10 72q0 12 -1 26q55 37 55 98q0 34 -17 59q-50 74 -162 74q-206 0 -322 -258q-50 -112 -50 -225.5t62 -190.5
l-15 -1q-116 104 -289 265q6 57 56 107q84 85 92 96q47 69 47 173q-9 2 -25 2t-58.5 -16.5t-63 -16.5t-37.5 10q0 80 -47 168q-43 -17 -81.5 -91t-63.5 -91q-62 74 -240 151q-1 -8 -1 -17q0 -100 93 -273q-20 -2 -52 -2h-49q-114 0 -168 -25q12 -37 88 -78t76 -70
q-5 -21 -48.5 -56.5t-51.5 -66.5q66 -22 120.5 -22t87.5 5q8 -31 11.5 -108t24.5 -111q109 36 160 115q27 40 47 112.5t47 72.5q291 -290 614 -496q-141 -15 -546 -113q-48 83 -135.5 141.5t-169 58.5t-139.5 -42q67 -171 372 -192q-166 -58 -449 -189q16 35 16 94t-33 130
q-37 -6 -76 -63.5t-58 -71.5q-35 76 -154 133q-31 -21 -31 -55.5t11 -76.5l15 -60q-76 10 -211 29v-6q0 -41 35 -86q11 -14 72 -85q-12 -28 -69 -73t-71 -68q17 -26 126.5 -39t117.5 -15q4 -14 4 -32z" />
    <glyph glyph-name="oe" unicode="&#x153;" 
d="M-654 -101q73 42 151 42q25 0 50 -4q33 8 33 35q0 33 -51 94q-2 2 -2 6q-1 15 47 50q41 30 60 30q8 0 11 -5q50 -54 50 -103q0 -36 -29 -72q-23 -29 -62 -52q56 -27 73 -65q15 -33 16 -60q-1 -4 -1 -8q-5 -62 -62 -111q-123 -105 -275 -105q-213 19 -273 96q-2 2 -2 6
q0 15 47 49q40 29 59 29q8 0 11 -5q60 -57 166 -71q85 -16 125 -16t67 8q12 0 13 1t-5 7q8 22 8 42q1 39 -29 73q-40 47 -119 60q-91 -23 -159 -23q-11 1 17 25q54 48 65 47z" />
    <glyph glyph-name="endash" unicode="&#x2013;" horiz-adv-x="1040" 
d="M924 544h-812v114h812v-114z" />
    <glyph glyph-name="emdash" unicode="&#x2014;" horiz-adv-x="1800" 
d="M100 660h1600v-118h-1600v118z" />
    <glyph glyph-name="quotedblleft" unicode="&#x201c;" horiz-adv-x="1250" 
d="M706 1054q-76 54 -76 162.5t89.5 203t172.5 132.5l18 -42q-160 -99 -172 -220q-2 -20 -6 -62q16 -18 82 -20t86 -8q47 -13 52 -67q1 -6 1 -12q0 -45 -35 -73q-39 -30 -100.5 -30t-111.5 36zM186 1054q-76 54 -76 162.5t89.5 203t172.5 132.5l18 -42q-160 -99 -172 -220
q-2 -20 -6 -62q16 -18 82 -20t86 -8q47 -13 52 -67q1 -6 1 -12q0 -45 -35 -73q-39 -30 -100.5 -30t-111.5 36z" />
    <glyph glyph-name="quotedblright" unicode="&#x201d;" horiz-adv-x="1230" 
d="M536 1516q76 -54 76 -162.5t-89.5 -203t-172.5 -132.5l-18 42q160 99 172 220q2 20 6 62q-17 19 -81.5 20t-86.5 8q-47 15 -52 68q-1 6 -1 12q0 46 35 72q39 30 100.5 30t111.5 -36zM1056 1516q76 -54 76 -162.5t-89.5 -203t-172.5 -132.5l-18 42q160 99 172 220
q2 20 6 62q-17 19 -81.5 20t-86.5 8q-47 15 -52 68q-1 6 -1 12q0 46 35 72q39 30 100.5 30t111.5 -36z" />
    <glyph glyph-name="quoteleft" unicode="&#x2018;" horiz-adv-x="846" 
d="M246 1054q-76 54 -76 162.5t89.5 203t172.5 132.5l18 -42q-160 -99 -172 -220q-2 -20 -6 -62q16 -18 82 -20t86 -8q47 -13 52 -67q1 -6 1 -12q0 -45 -35 -73q-39 -30 -100.5 -30t-111.5 36z" />
    <glyph glyph-name="quoteright" unicode="&#x2019;" horiz-adv-x="806" 
d="M536 1516q76 -54 76 -162.5t-89.5 -203t-172.5 -132.5l-18 42q160 99 172 220q2 20 6 62q-17 19 -81.5 20t-86.5 8q-47 15 -52 68q-1 6 -1 12q0 46 35 72q39 30 100.5 30t111.5 -36z" />
    <glyph glyph-name="ydieresis" unicode="&#xff;" horiz-adv-x="1700" 
d="M180 234q-58 0 -58 140t72 140q33 0 65.5 -48.5t32.5 -83.5q-12 -36 -80 -144q-20 -4 -32 -4zM1090 448v-162q-44 -70 -84.5 -70t-81.5 66q-12 19 -12 26t9 27t14 48.5t15 64.5h140zM1090 556h-134v14q0 54 -12 172h146v-186zM470 742v108h-426v-108h310q0 -96 -38 -242
q-8 24 -26 62q-44 66 -90 66q-94 0 -131 -121q-21 -67 -21 -160.5t35.5 -160t76.5 -66.5q70 0 100 35q7 8 56 103q26 -45 31 -121.5t8 -82.5t39 -6t40 2q0 107 -52 296q-10 37 -10 46q46 150 60 350h38zM1592 208q-65 -78 -96 -78q-13 0 -32 6q-72 21 -72 256h200v350h52
v108h-870v118q1 96 44 96h6q43 -6 43 -104q0 -16 -1 -34h70q0 261 -120 261q-53 0 -84.5 -56t-31.5 -127v-154h-56v-108h56v-692h74v692q43 1 65.5 1t24.5 -1q21 -38 21 -130q1 -28 -1 -61q-8 -142 -32 -203.5t-24 -63.5q0 -30 40 -82q58 -76 122 -76q29 0 60.5 18.5
t39.5 45.5v-140h78v692h340v-236h-142v58q0 56 -26.5 56t-55.5 -38.5q-29 -37.5 -36 -67.5q-6 -26 -6 -65v-11q1 -46 18 -46h50q0 -116 15 -189t70.5 -116t84.5 -43q46 0 96 76q21 32 21 57q0 28 -5 31zM1160 1014l-10 -86q0 -10 2 -16q33 9 44 68q8 41 8 75q0 16 -2 31
q-10 108 -90 108q-39 0 -62.5 -35t-29.5 -89q-1 -12 -1 -24q0 -42 16 -80q21 -50 41 -54v11q0 21 -5 57q-7 46 -7 66q0 72 48 72q35 0 46 -72q2 -13 2 -32zM1682 -22h-1678v1258h1678v-1258z" />
    <glyph glyph-name="currency" unicode="&#xa4;" horiz-adv-x="434" 
d="M478 1076h-502v122h502v-122zM59.5 1371q-71.5 47 -102 108.5q-30.5 60.5 -31.5 140.5v13q0 67 10 67q7 0 28 -67.5t48 -108.5q66 -100 196 -100t196 100q27 41 48 108.5t28 67.5q10 0 10 -67v-13q-2 -160 -131 -248q-72 -48 -150 -48t-149.5 47z" />
    <glyph glyph-name="guilsinglleft" unicode="&#x2039;" horiz-adv-x="1160" 
d="M504 172q-24 24 -24 58.5t23.5 59t59 24.5t59.5 -24t24 -59.5t-24.5 -59t-59 -23.5t-58.5 24zM504 906q-24 24 -24 58.5t23.5 59t59 24.5t59.5 -24t24 -59.5t-24.5 -59t-59 -23.5t-58.5 24zM66 538v122h998v-122h-998z" />
    <glyph glyph-name="periodcentered" unicode="&#xb7;" horiz-adv-x="700" 
d="M239 673q37 39 90.5 39t92 -39.5t38.5 -96t-42 -89.5t-91 -33t-87 37t-38 90t37 92z" />
    <glyph glyph-name="periodcentered" unicode="&#x2219;" horiz-adv-x="700" 
d="M239 673q37 39 90.5 39t92 -39.5t38.5 -96t-42 -89.5t-91 -33t-87 37t-38 90t37 92z" />
    <glyph glyph-name="quotesinglbase" unicode="&#x201a;" horiz-adv-x="2656" 
d="M1322 1028q150 321 150 497t-139.5 176t-139.5 -184t129 -489zM1322 12q150 -321 150 -496.5t-139.5 -175.5t-139.5 184t129 488zM1836 527q321 -151 496.5 -151t175.5 139.5t-184 139.5t-488 -128zM820 527q-321 -151 -496.5 -151t-175.5 139.5t184 139.5t488 -128z
M293 35l256 -48q-346 -181 -482 -764q130 59 272 124.5t253.5 145.5t182.5 193q39 -57 45 -210q194 32 299 201q73 121 132.5 407.5t76.5 338.5q17 -52 76.5 -338.5t132.5 -407.5q105 -169 299 -201q7 153 45 210q71 -113 182.5 -193t253.5 -145.5t272 -124.5
q-136 583 -482 764l256 48q-64 200 -238 299q-121 69 -387 117.5t-336 71.5q68 23 334.5 72.5t388.5 119.5q174 100 238 300l-256 48q346 181 482 764q-130 -59 -272 -124.5t-253.5 -145.5t-182.5 -193q-39 57 -45 210q-194 -32 -299 -201q-73 -121 -132.5 -407.5
t-76.5 -338.5q-17 52 -76.5 338.5t-132.5 407.5q-105 169 -299 201q-7 -153 -45 -210q-71 113 -182.5 193t-253.5 145.5t-272 124.5q136 -583 482 -764l-256 -48q64 -200 238 -299q121 -69 387 -117.5t336 -71.5q-68 -23 -334.5 -72.5t-388.5 -119.5q-174 -100 -238 -300z
" />
    <glyph glyph-name="perthousand" unicode="&#x2030;" horiz-adv-x="2656" 
d="M2105 350l-90 8q-53 -19 -56 -20q-31 -16 -35 -44q83 -35 93 -35t28.5 1t40 23t21.5 40.5t-2 26.5zM2105 247q-93 -39 -124 -121q7 -18 36.5 -13.5t18.5 4.5q30 9 65.5 37.5t35.5 53.5t-32 39zM2114 563v-94q2 -57 38 -78q35 10 35 47.5t-19.5 87.5t-41.5 50
q-9 0 -12 -13zM2190 197q-75 -46 -75 -153q0 -14 1 -27q28 0 63.5 52t35.5 84t-25 44zM2225 232q68 0 74 76q-3 61 -75 61q-11 0 -22 -2q-35 -15 -50 -76q25 -59 73 -59zM2311 197q-17 12 -30 12q-26 0 -26 -54q0 -78 75 -124q21 39 21 88.5t-40 77.5zM2353 571
q-43 1 -79 -49q-31 -42 -31 -81q0 -6 1 -12q3 -23 55 -23q54 50 54 148v17zM2504 426l-80 3q-30 -11 -59 -23q-35 -18 -35 -49q0 -10 2 -19q11 -16 42 -15.5t50 0.5q80 31 80 103zM2330 251q-4 -71 140 -71q50 0 73 14zM1930 -435q98 -72 120 -91q65 -56 76 -107
q-81 41 -219 156q30 -82 95 -154.5t130 -72.5q30 0 56 17q9 22 9 45q-1 86 -91 150q-82 58 -159 58q-9 0 -17 -1zM909 1651q-71 -29 -71 -81q0 -15 9 -30q27 6 89.5 35.5t102.5 29.5q73 0 172 -72q-96 134 -226 134q-38 0 -76 -16zM1255 1434q-96 124 -202 124
q-61 0 -110 -43.5t-49 -104.5q0 -14 3 -27q85 96 195 96q75 0 163 -45zM1521 1557l72 -62q0 42 -40 94t-80 52q-17 0 -29 -10q62 -174 158 -210q3 23 -38.5 69t-42.5 67zM1649 1508l-10 92q0 33 18 58q15 -20 15 -56v-15q-1 -14 -2 -26q0 -27 6 -40q39 31 39 86.5t-20 104.5
t-57 52q-27 -70 -27 -147.5t35 -136.5q3 13 3 28zM1740 1259q8 -21 45 -75.5t37 -75t-1 -29.5q-21 12 -55.5 80.5t-56.5 75.5q0 -144 153 -221q8 26 8 73.5t-29.5 110.5t-83.5 63q-8 0 -17 -2zM1974 1738q-113 -53 -197 -138t-84 -190q6 0 65.5 83t97.5 97
q-14 -34 -56.5 -89t-55.5 -82q172 91 230 319zM1759 1318q104 -99 225 -99q38 0 73 11q-38 92 -185 92q-19 0 -56.5 -2t-56.5 -2zM2107 1462l-168 -3q-136 -11 -155 -60q111 28 138 28t27 -4q0 -13 -145 -71q13 -1 27 -1q64 0 154 22q110 27 122 89zM2387 96l7 -78
q0 -36 -26 -58h-3q-46 0 -70 28q-25 29 -63 76q-13 -9 -60 -69t-90 -60q-8 0 -16 2q-3 11 -3 30q0 15 2 35q4 44 4 58.5t-5 27.5q-90 -36 -132 -36q-3 13 -3 35t34.5 74.5t41.5 66.5q-58 17 -173 63q56 66 225 109q-78 47 -244.5 113t-199.5 82q8 -40 56.5 -131t48.5 -150
t-69 -124q-128 65 -128 245q0 49 8.5 115t8.5 72q-107 29 -594 122q-32 -13 -82 -37h6q94 1 158 -31q66 -32 177 -114q-31 -49 -106 -49t-173.5 44t-159.5 89q-211 -119 -313.5 -171t-229.5 -98q55 -8 168 -39.5t165 -38.5q36 16 71 31q44 25 44 63q0 10 -2 22q21 73 87 73
q37 0 64.5 -29.5t27.5 -66.5q0 -78 -87 -78l-62 2q-62 0 -87 -42q402 -73 927 -443q73 29 141.5 55.5t134.5 26.5q131 0 247 -121q-102 -64 -217 -64t-190 31q36 -23 127 -93q88 -69 102 -68h1q34 12 71 12q102 0 199.5 -78t97.5 -177q0 -48 -29 -82t-77 -34
q-98 0 -191.5 110.5t-97.5 211.5l-248 184q50 -109 50 -207q0 -158 -112 -229q-75 62 -75 200q0 70 18 165l23 118q-243 153 -359 216q-237 128 -445 189q98 -65 218.5 -256t120.5 -343q0 -15 -1 -30q246 -138 246 -288q0 -35 -16 -69q-124 21 -182 79q-36 36 -52.5 97.5
t-31.5 67.5q-46 -120 -156 -183t-232 -63t-198 57t-88 163q-4 40 -4 86q0 176 42 176q3 0 6 -1q19 -5 19 -31t-6.5 -68.5t-7.5 -61.5v-22q0 -126 43 -170q72 -73 179 -73q15 0 41 4q264 32 324 229q-63 -85 -175.5 -85t-150.5 73q65 128 180 128q52 0 175 -36
q-30 239 -182 435q-104 134 -221 206q-2 -9 -2 -23.5t13.5 -55.5t15.5 -51q78 -35 78 -102t-75 -76q-8 -1 -16 -1q-32 0 -60 19q-34 24 -34 72.5t66 92.5q-15 62 -37 142q-309 74 -401 100q97 -65 130 -114.5t33 -154.5q0 -25 -1 -79q-218 13 -244 330l-44 -11v86l44 22
q5 15 5 38t-16 81t-16 87q0 109 157 189q24 -118 24 -225t-52 -156q11 2 64 24q54 90 104.5 226t69.5 231l-178 59q-141 65 -141 182q0 21 4 44q66 7 102 7q78 0 120 -45l116 -163q5 105 5 215t-11 207q-105 15 -196 87.5t-120 171.5q36 17 93 17t131.5 -41t117.5 -90
q22 138 39 173q34 74 135 112q44 -47 44 -120t-58 -159.5t-127 -144.5v-359q62 156 260 203q36 -32 36 -71q0 -80 -134 -180q-95 -71 -187 -111q-37 -177 -159 -431q144 78 436 228q-31 97 -31 174q0 131 93 217q85 -70 85 -158.5t-49 -189.5q40 23 138 76q332 181 341 374
q1 13 0 24q0 171 -110 204q-52 15 -101.5 15t-96 -27.5t-46.5 -81.5v-26q0 -18 39 -45q8 -2 16 -2l65 15q14 0 17.5 -17.5t-22.5 -27t-45 -9.5q-75 0 -120 82q-31 57 -43 89q-9 25 -9 72q0 12 1 26q-55 37 -55 98q0 34 18 59q49 74 161 74q206 0 322 -258q50 -112 50 -225.5
t-62 -190.5l16 -1q115 104 288 265q-6 57 -56 107q-84 85 -92 96q-47 69 -47 173q9 2 25 2t58.5 -16.5t63 -16.5t37.5 10q0 80 47 168q43 -17 82 -91t63 -91q62 74 240 151q1 -8 1 -17q0 -100 -92 -273q19 -2 51 -2h49q114 0 168 -25q-12 -37 -88 -78t-76 -70
q5 -21 48.5 -56.5t51.5 -66.5q-66 -22 -120.5 -22t-87.5 5q-7 -31 -11 -108t-25 -111q-108 36 -160 115q-27 40 -47 112.5t-47 72.5q-291 -290 -614 -496q141 -15 546 -113q48 83 135.5 141.5t169 58.5t140.5 -42q-68 -171 -373 -192q166 -58 449 -189q-16 35 -16 94t33 130
q37 -6 76 -63.5t58 -71.5q35 76 154 133q31 -21 31 -55.5t-11 -76.5l-15 -60q77 10 211 29v-6q0 -41 -35 -86q-11 -14 -72 -85q12 -28 69 -73t71 -68q-16 -26 -126 -39t-118 -15q-4 -14 -4 -32z" />
    <glyph glyph-name="Iacute" unicode="&#xcd;" 
d="M-542 -238q-98 0 -98 -72q0 -26 33.5 -50t60.5 -24h326v-84h-238q22 -156 138 -156q19 0 40 4q6 2 54 14q-2 -14 -14 -42q-30 -40 -86 -40q-104 0 -156 68q-9 11 -44 78q-13 34 -23 56t-40 35t-67 31q-62 32 -67 102q-1 7 -1 15q0 61 40 101q44 46 104 46h292v98h82v-180
h-336z" />
    <glyph glyph-name="Icircumflex" unicode="&#xce;" horiz-adv-x="1086" 
d="M892 658l-39 447q0 15 26.5 32t39.5 25.5q13 7.5 28 15.5q38 19 38 12q9 -134 22 -267.5t21 -267.5q6 -104 5 -199q0 -189 -23 -337q-3 -15 -23 -29t-31.5 -21.5t-15.5 -9.5t-13.5 -6.5t-20 -9t-18.5 -6.5t-6 3q21 150 21 332q0 94 -5 196q-27 -16 -41 -13
q-60 13 -101 13q-12 0 -22 -1q-46 -5 -59 -6q12 -60 12 -113q0 -134 -76 -221q-109 -125 -267 -175q-51 -16 -104 -17q-48 -1 -96 13q-99 27 -132 96q-21 34 -21 75q0 70 63 160q26 35 96 68q36 17 23 -6q0 -4 -12 -20.5t-23 -44.5t-14 -56q-1 -10 -1 -20q0 -51 31 -89
q69 -84 188 -84h18q86 0 118 19q4 3 8 7q5 5 25.5 34.5t32.5 73.5q12 43 13 89v11q0 81 -27 167q-4 16 32 38q8 4 16 12q61 51 235 76q32 4 63 4h16zM486 153q3 1 2.5 0t-1.5 -2q2 1 5.5 3t-6.5 -1z" />
    <glyph glyph-name="Idieresis" unicode="&#xcf;" horiz-adv-x="26" 
d="M-278 -686v316h-158v-108q0 -130 -110 -130q-117 0 -236 98q-56 46 -56 72q-1 4 -1 10q0 22 17 68q22 60 42 124q9 46 9 86t-9 74h88q7 -39 7 -81q0 -28 -3 -56q-8 -72 -28 -119q-10 -36 -32 -96q36 -36 96.5 -69t89.5 -33q50 0 50 72v176h234v224h88v-628h-88z" />
    <glyph glyph-name="Oacute" unicode="&#xd3;" horiz-adv-x="2656" 
d="M1506 1304l-8 -89q19 -54 20 -57q17 -31 44 -35q35 83 35 93.5t-2 18.5q0 28 -22 49.5t-40.5 21.5t-26.5 -2zM1609 1304q39 -93 121 -124q18 7 16 25q-7 41 -7 30q-9 30 -37.5 65.5t-53.5 35.5t-39 -32zM1294 1313h93q57 2 78 38q-10 35 -47 35t-87.5 -19.5t-50.5 -41.5
q0 -9 14 -12zM1659 1389q46 -75 153 -75q14 0 27 1q0 28 -52 63.5t-84 35.5t-44 -25zM1624 1424q0 68 -76 74q-61 -3 -61 -75q0 -11 2 -22q15 -35 76 -50q59 25 59 73zM1659 1510q-12 -17 -12 -29q0 -27 54 -27q78 0 124 75q-39 21 -88.5 21t-77.5 -40zM1285 1552
q-1 -43 49 -79q42 -31 81 -31q6 0 12 1q23 3 23 55q-50 54 -148 54h-17zM1430 1703l-3 -80q11 -30 23 -59q18 -35 49 -35q10 0 19 2q16 11 15.5 42t-0.5 50q-31 80 -103 80zM1663 1742q-27 -20 -59.5 -71.5t-32.5 -89.5t34 -52h4q67 0 67 140q0 50 -13 73zM2292 1129
q71 99 90 120q57 65 107 76q-41 -81 -156 -219q82 30 154.5 95t72.5 130q0 30 -17 56q-22 9 -45 9q-86 0 -150 -90q-57 -81 -57 -158q0 -10 1 -19zM205 108q29 -71 81 -71q15 0 30 9q-6 27 -35.5 89.5t-29.5 102.5q0 73 72 172q-133 -96 -133 -226q0 -38 15 -76zM422 455
q-124 -97 -124 -203q0 -61 43.5 -110t104.5 -49q14 0 27 3q-96 86 -96 195q0 75 45 164zM299 720l62 72q-42 0 -94 -40t-52 -80q0 -17 11 -29q173 62 209 158h-3q-23 -1 -66 -39q-46 -42 -67 -42zM348 848l-92 -10q-33 0 -58 18q20 15 56 15q7 -1 15 -1q14 -1 26 -1
q27 0 40 6q-31 39 -86.5 39t-104.5 -20t-52 -57q70 -27 147.5 -27t136.5 35q-13 3 -28 3zM597 939q21 8 75.5 45t75 37t29.5 -1q-12 -21 -80.5 -55.5t-75.5 -56.5q144 0 222 153q-27 8 -74.5 8t-110.5 -29.5t-63 -83.5q0 -8 2 -17zM119 1173q52 -113 137.5 -197t189.5 -84
q0 6 -83 65.5t-97 97.5q34 -14 89 -56.5t82 -55.5q-91 172 -318 230zM538 958q99 104 99 225q0 38 -11 73q-91 -38 -91 -185q0 -18 1.5 -56t1.5 -57zM394 1306l3 -168q11 -136 60 -155q-28 111 -28 138t4 27q13 0 71 -145q1 14 1 30q1 63 -21 151q-28 110 -90 122z
M1760 1586l78 7q36 0 58 -26q1 -48 -28 -73t-75 -63q8 -13 68 -60t60 -90q0 -8 -2 -16q-11 -3 -29 -3q-15 0 -35 2q-45 4 -59 4t-27 -5q3 -10 19.5 -56.5t16.5 -74.5q-14 -4 -36 -4t-74.5 34.5t-66.5 41.5q-17 -58 -63 -173q-66 56 -109 225q-47 -78 -112.5 -244.5
t-82.5 -199.5q40 8 131 56.5t150 48.5t124 -69q-65 -128 -245 -128q-49 0 -115 8.5t-71 8.5q-30 -107 -123 -594q13 -32 37 -82v6q0 93 32 157q33 66 114 178q48 -30 48 -105.5t-44 -174t-88 -159.5q118 -211 170 -313.5t98 -229.5q8 55 39.5 168t38.5 165q-16 37 -31 71
q-25 44 -63 44q-10 0 -22 -2q-73 21 -73 87q0 37 29.5 64.5t66.5 27.5q78 0 78 -87l-2 -61q0 -63 42 -88q73 402 443 927q-29 73 -55.5 141.5t-26.5 134.5q0 132 121 247q64 -102 64 -217t-31 -190q23 36 93 127q69 88 68 102l-12 72q0 102 78 199.5t177 97.5q48 0 82 -29
t34 -77q0 -98 -110.5 -191.5t-211.5 -97.5l-184 -248q110 50 207 50q158 0 229 -112q-62 -75 -200 -75q-70 0 -165 18l-118 23q-153 -243 -216 -359q-128 -237 -189 -445q65 98 256 218.5t343 120.5q15 0 30 -1q138 246 289 246q34 0 68 -16q-21 -124 -79 -182
q-36 -36 -97.5 -52.5t-67.5 -31.5q120 -46 183.5 -156t63.5 -232t-57.5 -198t-163.5 -88q-40 -4 -86 -4q-176 0 -176 42q0 3 1 6q5 19 31 19t68.5 -6.5t62.5 -7.5h22q125 0 169 43q73 72 73 179q0 15 -3 41q-33 264 -230 324q85 -63 85 -175.5t-73 -150.5q-127 65 -127 180
q0 52 36 175q-240 -30 -436 -182q-134 -104 -205 -221q8 -2 22.5 -2t55.5 13.5t52 15.5q34 78 101 78t76 -75q1 -8 1 -16q0 -32 -19 -60q-24 -34 -72.5 -34t-92.5 66q-62 -15 -142 -37q-74 -309 -100 -401q65 97 115 130t154 33q25 0 79 -1q-13 -218 -330 -244l11 -43h-86
l-22 43q-15 5 -38 5t-81 -16t-87 -16q-108 0 -189 157q118 24 225 24t156 -52q-2 11 -24 64q-90 54 -226 104.5t-231 69.5l-59 -178q-65 -141 -182 -141q-21 0 -44 4q-7 66 -7 102q0 78 46 120l162 116q-105 5 -215 5t-207 -11q-15 -105 -87.5 -196t-171.5 -120
q-16 36 -16 93t40.5 131.5t90.5 117.5q-139 22 -174 39q-74 34 -111 135q47 44 120 44t159 -58t144 -127h359q-156 62 -203 260q32 36 71 36q80 0 181 -134q71 -95 110 -187q177 -37 431 -159q-77 144 -228 436q-97 -31 -174 -31q-131 0 -217 93q70 85 158.5 85t189.5 -49
q-23 41 -76 139q-181 332 -374 340q-13 1 -24 0q-171 0 -204 -110q-15 -52 -15 -101.5t27.5 -96t81.5 -46.5h28.5t42.5 40q2 7 2 15l-15 65q0 14 17.5 17.5t27.5 -22.5t10 -45q0 -75 -83 -120q-57 -31 -89 -42q-27 -9 -78 -9h-20q-37 -55 -98 -55q-34 0 -59 18
q-74 49 -74 161q0 206 258 322q112 51 225.5 51t190.5 -63l1 16q-103 115 -265 288q-56 -6 -107 -56q-85 -84 -96 -92q-69 -47 -173 -47q-2 9 -2 25t16.5 58.5t16.5 63.5t-10 37q-80 0 -168 47q18 43 91.5 82t90.5 63q-74 62 -150 240q8 1 17 1q99 0 272 -92q2 19 2 51v49
q0 114 25 168q37 -12 78 -88t70 -76q21 5 56.5 48.5t66.5 51.5q22 -66 22 -120.5t-4 -87.5q31 -7 107.5 -11t110.5 -25q-36 -108 -115 -160q-40 -27 -112.5 -47t-72.5 -47q290 -291 496 -614q15 141 113 546q-83 48 -141.5 135.5t-58.5 169t42 140.5q171 -68 192 -373
q58 166 189 449q-35 -16 -94 -16t-130 33q6 37 63.5 76t71.5 58q-76 35 -133 154q21 31 55.5 31t76.5 -11l60 -15q-10 77 -29 211h7q42 0 86 -35q13 -11 84 -72q29 12 73.5 69t68.5 71q25 -16 38 -126t15 -118q14 -4 32 -4z" />
    <glyph glyph-name="Ocircumflex" unicode="&#xd4;" horiz-adv-x="2656" 
d="M1506 -251l-8 90q19 53 20 56q17 31 44 35q35 -83 35 -93t-1 -28.5t-23 -40t-40.5 -21.5t-26.5 2zM1609 -251q39 93 121 125q18 -8 16 -26q-7 -41 -7 -30q-9 -30 -37.5 -65.5t-53.5 -35.5t-39 32zM1294 -260h93q57 -1 78 -38q-10 -35 -47 -35t-87.5 19.5t-50.5 41.5
q0 9 14 12zM1659 -336q46 75 153 75q14 0 27 -1q0 -28 -52 -63.5t-84 -35.5t-44 25zM1624 -371q0 -68 -76 -74q-61 3 -61 75q0 11 2 22q15 35 76 50q59 -25 59 -73zM1659 -457q-12 17 -12 30q0 27 54 27q78 0 124 -76q-39 -21 -88.5 -21t-77.5 40zM1285 -499q-1 43 49 79
q42 31 81 31q6 0 12 -1q23 -3 23 -55q-50 -54 -148 -54h-17zM1430 -649l-3 79q11 30 23 59q18 35 49 35q10 0 19 -2q16 -11 15.5 -42t-0.5 -50q-31 -79 -103 -79zM1663 -689q-27 21 -59.5 72t-32.5 89t34 52h5q66 0 66 -140q0 -50 -13 -73zM2292 -76q71 -98 90 -120
q57 -65 107 -76q-41 81 -156 219q82 -30 154.5 -95t72.5 -130q0 -30 -17 -56q-22 -9 -45 -9q-86 1 -150 91q-57 81 -57 157q0 10 1 19zM205 945q29 71 81 71q15 0 30 -9q-6 -27 -35.5 -89t-29.5 -103q0 -73 72 -172q-133 97 -133 226q0 38 15 76zM422 599q-124 96 -124 202
q0 61 43.5 110t104.5 49q14 0 27 -3q-96 -85 -96 -195q0 -75 45 -163zM299 333l62 -72q-42 0 -94 40t-52 80q0 17 11 29q173 -61 209 -158h-2q-23 0 -67 39q-46 41 -67 42zM348 206l-92 9q-33 0 -58 -18q20 -14 57 -14h14q13 1 24 1q29 0 42 -6q-31 -39 -86.5 -39
t-104.5 20.5t-52 56.5q70 27 147.5 27t136.5 -35q-13 -2 -28 -2zM597 114q21 -8 75.5 -45t75 -37t29.5 1q-12 21 -80.5 55.5t-75.5 56.5q144 0 222 -152q-27 -9 -74.5 -9t-110.5 29.5t-63 83.5q0 8 2 17zM119 -120q52 113 137.5 197t189.5 84q0 -6 -83 -65.5t-97 -97.5
q34 14 89 56.5t82 56.5q-91 -173 -318 -231zM538 95q99 -103 99 -225q0 -38 -11 -73q-91 38 -91 185q0 19 1.5 56.5t1.5 56.5zM394 -253l3 168q11 136 60 155q-28 -111 -28 -138t4 -27q13 0 71 145q1 -14 1 -30q1 -63 -21 -151q-28 -110 -90 -122zM1760 -533l78 -7
q36 0 58 26q1 48 -28 73t-75 63q8 13 68 60t60 90q0 8 -2 16q-11 3 -29 3q-15 0 -35 -2q-45 -4 -59 -4t-27 6q3 9 19.5 55.5t16.5 75.5q-14 3 -36 3t-74.5 -34.5t-66.5 -40.5q-17 57 -63 172q-66 -56 -109 -225q-47 78 -112.5 244.5t-82.5 200.5q40 -9 131 -57.5t150 -48.5
t124 70q-65 127 -245 127q-49 0 -115 -8.5t-71 -8.5q-30 107 -123 594q13 33 37 82v-6q0 -94 32 -158q33 -66 114 -177q48 31 48 106t-44 173.5t-88 159.5q118 211 170 314t98 229q8 -55 39.5 -168t38.5 -165q-16 -36 -31 -71q-25 -44 -63 -44q-10 0 -22 2q-73 -21 -73 -87
q0 -36 29.5 -64t66.5 -28q78 0 78 87l-2 62q0 62 42 87q73 -402 443 -927q-29 -73 -55.5 -141.5t-26.5 -134.5q0 -131 121 -247q64 103 64 217.5t-31 189.5q23 -37 93 -127q69 -88 68 -102l-12 -72q0 -101 78 -199t177 -98q48 0 82 29t34 77q0 98 -110.5 191.5t-211.5 97.5
l-184 248q110 -50 207 -50q158 0 229 112q-62 76 -200 76q-70 0 -165 -19l-118 -23q-153 243 -216 359q-128 237 -189 445q65 -98 256 -218.5t343 -120.5q15 0 30 1q138 -245 289 -245q34 0 68 15q-21 124 -79 182q-36 36 -97.5 52.5t-67.5 31.5q120 46 183.5 156t63.5 232
t-57.5 198t-163.5 88q-40 4 -86 4q-176 0 -176 -42q0 -3 1 -6q5 -19 31 -19t68.5 6.5t62.5 7.5h26q121 0 165 -43q73 -72 73 -179q0 -15 -3 -41q-33 -264 -230 -323q85 62 85 174.5t-73 150.5q-127 -64 -127 -180q0 -52 36 -175q-240 31 -436 182q-134 104 -205 221
q8 2 22.5 2t55.5 -13.5t52 -15.5q34 -78 101 -78t76 76q1 8 1 16q0 32 -19 59q-24 34 -72.5 34t-92.5 -66q-62 15 -142 37q-74 309 -100 401q65 -97 115 -130t154 -33q25 0 79 1q-13 218 -330 244l11 44h-86l-22 -44q-15 -4 -38 -4t-81 15.5t-87 15.5q-108 0 -189 -157
q118 -24 225 -24t156 52q-2 -11 -24 -64q-90 -54 -226 -104.5t-231 -69.5l-59 178q-65 141 -182 141q-21 0 -44 -4q-7 -66 -7 -102q0 -78 46 -120l162 -116q-105 -4 -215 -4t-207 10q-15 105 -87.5 196t-171.5 121q-16 -36 -16 -93.5t40.5 -132t90.5 -117.5
q-139 -22 -174 -39q-74 -34 -111 -135q47 -44 120 -44t159 58t144 127h359q-156 -62 -203 -260q32 -36 71 -36q80 0 181 134q71 95 110 187q177 37 431 159q-77 -144 -228 -436q-97 31 -174 31q-131 0 -217 -92q70 -86 158.5 -86t189.5 50q-23 -41 -76 -139
q-180 -333 -373 -341q-13 -1 -25 0q-171 0 -204 110q-15 52 -15 101.5t27.5 96t81.5 46.5h28.5t42.5 -39q2 -8 2 -16l-15 -65q0 -14 17.5 -17.5t27.5 22.5t10 45q0 75 -83 120q-57 31 -89 43q-25 9 -72 9q-12 0 -26 -1q-37 55 -98 55q-34 0 -59 -17q-74 -50 -74 -162
q0 -206 258 -322q112 -50 225.5 -50t190.5 62l1 -15q-103 -116 -265 -289q-56 6 -107 56q-85 84 -96 92q-69 47 -173 47q-2 -9 -2 -25t16.5 -58.5t16.5 -63t-10 -37.5q-80 0 -168 -47q18 -43 91.5 -81.5t90.5 -63.5q-74 -62 -150 -240q8 -1 17 -1q99 0 272 93q2 -20 2 -52
v-49q0 -113 25 -168q37 12 78 88t70 76q21 -5 56.5 -48.5t66.5 -51.5q22 66 22 120.5t-4 87.5q31 8 107.5 11.5t110.5 24.5q-36 109 -115 160q-40 27 -112.5 47t-72.5 47q290 291 496 614q15 -141 113 -546q-83 -48 -141.5 -135.5t-58.5 -168.5t42 -140q171 67 192 372
q58 -166 189 -449q-35 17 -94 17t-130 -34q6 -37 63.5 -76t71.5 -58q-76 -35 -133 -154q21 -31 55.5 -31t76.5 11l60 15q-10 -76 -29 -211h7q42 0 86 35q13 11 84 72q29 -12 73.5 -69t68.5 -70q25 16 38 125.5t15 117.5q14 4 32 4z" />
    <glyph glyph-name="Ograve" unicode="&#xd2;" horiz-adv-x="1140" 
d="M649 903l8 110q0 16 -3 34q-5 27 -5 48q0 35 14 50q-58 -59 -102 -69q-7 -2 -9.5 0.5t10.5 19.5t34.5 42q21.5 24 45.5 44q53 43 107 49h8q10 -69 10 -141q0 -59 -7 -120q-15 -136 -27 -214q-25 -167 -25 -292q0 -85 11 -151q26 45 49.5 66t40.5 35q3 0 11.5 2t16.5 2
q19 1 10 -14q-84 -136 -198 -194q1 -7 -11 -13q-21 -10 -28 -3q-14 73 -14 174q0 166 38 408q10 64 15 127zM424 304q8 12 50 42q30 14 41 14q7 0 5 -7q-59 -129 -169 -176q-23 -7 -23 0q-42 78 -42 208q0 102 26 236q39 200 39 383q0 68 -8 93q-4 4 -6 7q-47 -48 -81 -54
q-8 -2 -10.5 0.5t6 15.5t30 42q22.5 29 48.5 55q50 49 85 49q11 0 21 -5q34 -18 34 -115q0 -21 -2 -46q-11 -183 -26 -274.5q-16 -91.5 -26 -153.5q-16 -92 -15 -165q0 -88 23 -149z" />
    <glyph glyph-name="Uacute" unicode="&#xda;" horiz-adv-x="910" 
d="M499 395.5q-39 40.5 -94 40.5t-96 -40.5t-41 -95.5t38.5 -93.5t93.5 -38.5q90 0 126 74q12 24 12 68.5t-39 85zM502 508q130 -61 130 -210q0 -52 -20 -96q-59 -130 -210 -130q-52 0 -96 20q-132 59 -132 210q0 49 22 96q62 132 210 132q49 0 96 -22zM493 1025.5
q-39 40.5 -94 40.5t-96 -40.5t-41 -95.5t38.5 -93.5t93.5 -38.5q90 0 126 74q12 24 12 68.5t-39 85zM496 1138q130 -61 130 -210q0 -52 -20 -96q-59 -130 -210 -130q-52 0 -96 20q-132 59 -132 210q0 49 22 96q62 132 210 132q49 0 96 -22z" />
    <glyph glyph-name="circumflex" unicode="&#x2c6;" 
d="M-230 1604q52 0 91 -39t39 -91t-39 -91t-91 -39t-91 39t-39 91t39 91t91 39z" />
    <glyph glyph-name="tilde" unicode="&#x2dc;" 
d="M-402 -684v84q112 44 112 168q0 47 -38 92q-55 66 -168 66t-168 -66q-38 -45 -38 -92q0 -124 112 -168v-84q-198 66 -198 256q0 81 66 155q67 75 180 79v134h90v-134q115 -4 182 -79q66 -74 66 -155q0 -190 -198 -256z" />
    <glyph glyph-name="copyright" unicode="&#xa9;" horiz-adv-x="1664" 
d="M204 714q0 -168 84 -313.5t230 -230t314 -84.5t313.5 84t230 230t84.5 314t-84 313.5t-230 230t-314 84.5t-313.5 -84t-230 -230t-84.5 -314zM193 352q-95 169 -95 363t97.5 365t268.5 269.5t367 98.5t367 -97.5t269.5 -268.5t98.5 -365.5t-94.5 -363.5t-265.5 -271
t-373.5 -102t-373.5 101.5t-266 270.5zM1080 314q-109 -48 -218 -48q-188 0 -291 117t-103 326t108.5 330t293.5 121q127 0 246 -60l-58 -122q-104 52 -186 52q-116 0 -182 -83.5t-66 -234.5t57 -233.5t189 -82.5q93 0 210 46v-128z" />
    <glyph glyph-name="Ntilde" unicode="&#xd1;" 
d="M-285 1505l-104 9q-67 0 -100 -8t-60 -10t-52 -9q-111 -31 -152.5 -34t-66.5 -10t-47 -7t-51 7q-38 0 -66 26q-42 13 -57 54q-28 40 -28 74q0 51 19 115l141 63q-18 -69 -18 -94q0 -34 18 -86q14 -14 25 -26t32 -19q27 -27 75.5 -27t85.5 9q31 0 103 18l114 27
q29 7 55.5 9t65.5 12q17 4 37 5q27 0 59 -8q86 0 122 -15.5t57 -29.5q38 -35 38 -87q0 -87 -66 -164q-14 -20 -33 -36t-33 -36l-142 -54q14 14 33 31.5t41 41.5q52 58 68 143q0 44 -38 80q-17 16 -75 36zM-385 1442q36 0 62 -27t26 -63.5t-26 -63.5t-62 -27t-62 27t-26 63.5
t26 63.5t62 27z" />
  </font>
</defs>
</svg>
