<?xml version="1.0" standalone="no"?>
<!DOCTYPE svg PUBLIC "-//W3C//DTD SVG 1.1//EN" "http://www.w3.org/Graphics/SVG/1.1/DTD/svg11.dtd" >
<svg xmlns="http://www.w3.org/2000/svg" xmlns:xlink="http://www.w3.org/1999/xlink" version="1.1">
<metadata>
Created by FontForge 20190413 at Tue Jul 23 18:33:19 2019
 By Sarabveer
Copyright (C) 2015-2019 GurbaniNow Dev Team (https://gurbaninow.com); Copyright (C) 1991-1992 Summit Information Technologies Pvt Ltd.
</metadata>
<defs>
<font id="OpenSatlujUni-Bold" horiz-adv-x="10" >
  <font-face 
    font-family="OpenSatlujUni"
    font-weight="700"
    font-stretch="normal"
    units-per-em="1000"
    panose-1="2 11 8 2 4 5 5 2 2 4"
    ascent="800"
    descent="-200"
    bbox="-542 -534 2167 1285"
    underline-thickness="50"
    underline-position="-143"
    unicode-range="U+0020-2BAA"
  />
<missing-glyph horiz-adv-x="500" 
d="M125 63h250v581h-250v-581zM63 0v706h375v-706h-375z" />
    <glyph glyph-name="uni0A02_uni0A40" unicode="&#xa02;&#x25cc;&#xa40;" horiz-adv-x="250" 
d="M-400 722c0 39 30 69 69 69c37 0 69 -31 69 -69c0 -36 -33 -69 -69 -69c-38 0 -69 32 -69 69zM164 503v-505l-107 -1v506h-59v96h58v66c0 47 -21 70 -64 70c-35 0 -61 -22 -77 -65l-88 57c38 72 98 108 181 108c35 0 69 -14 103 -42s51 -67 51 -116v-78h139v-96h-137z
" />
    <glyph glyph-name="uni0A70_uni0A40" unicode="&#xa70;&#x25cc;&#xa40;" horiz-adv-x="250" 
d="M-362 776c-29 0 -58 -23 -58 -49c0 -10 2 -21 7 -33c5 -13 7 -21 7 -26c0 -10 -7 -15 -21 -15c-5 0 -13 8 -26 24c-15 20 -22 44 -22 71c0 28 10 54 30 78c19 23 46 35 82 35c69 0 112 -52 112 -122c0 -17 -6 -35 -20 -55c-12 -21 -28 -31 -45 -31c-7 0 -10 2 -10 6
s3 13 9 28c7 15 10 27 10 38c0 27 -25 51 -55 51zM164 503v-505l-107 -1v506h-59v96h58v66c0 47 -21 70 -64 70c-35 0 -61 -22 -77 -65l-88 57c38 72 98 108 181 108c35 0 69 -14 103 -42s51 -67 51 -116v-78h139v-96h-137z" />
    <glyph glyph-name="uni0A4D_uni0A30_uni0A2D_uni0A42" unicode="&#xa4d;&#xa30;&#xa2d;&#xa42;" horiz-adv-x="706" 
d="M-7 503v96h177h43h523v-96h-132c1 -9 1 -17 1 -25c0 -57 -17 -108 -50 -153c15 -29 23 -45 24 -48c10 -24 15 -50 15 -77c0 -51 -19 -96 -56 -136c-38 -40 -86 -60 -144 -60c-57 0 -109 11 -155 32c-46 22 -69 46 -69 73c0 22 5 27 26 27c10 0 34 -9 72 -28
c39 -19 75 -28 109 -28s63 10 87 30c25 21 37 53 37 98c0 11 -5 24 -16 38c-51 -37 -100 -56 -149 -56c-31 0 -60 7 -87 20c-46 23 -69 62 -69 116c0 36 14 66 43 89s63 35 102 35s75 -9 107 -26l46 -30c10 23 15 46 15 72c0 24 -1 37 -3 37h-277h-43h-177zM272 319
c0 -34 29 -35 72 -35c24 0 51 12 82 35c-34 21 -62 32 -84 32c-47 0 -70 -11 -70 -32zM186 -27c63 -20 128 -30 193 -30s130 10 194 30v-80c-58 -21 -121 -31 -189 -31s-134 9 -198 27v84zM186 -153c63 -20 128 -30 193 -30s130 10 194 30v-80c-58 -21 -121 -31 -189 -31
s-134 9 -198 27v84zM-240 -136c0 40 27 67 63 71v35h81v-47c68 -19 129 -63 184 -132c19 -25 28 -42 28 -51c0 -3 -2 -4 -4 -4c-4 0 -19 11 -48 32c-28 21 -53 39 -74 52c-22 14 -49 22 -80 23c-15 -35 -39 -52 -73 -52c-40 0 -77 34 -77 73z" />
    <glyph glyph-name="uni0A75_uni0A30_uni0A41" unicode="&#xa75;&#xa30;&#xa41;" horiz-adv-x="704" 
d="M-7 503v96h174h46h521v-96h-130v-376c0 -96 -52 -126 -154 -126h-2c-66 0 -129 29 -188 87c-60 59 -90 124 -91 196c0 32 10 57 29 74s39 26 59 26h241v119h-285h-46h-174zM221 -27c63 -20 128 -30 193 -30s130 10 194 30v-80c-58 -21 -121 -31 -189 -31s-134 9 -198 27
v84zM-121 -175c18 9 32 51 32 84v5c0 24 -4 43 -12 56h-75c7 -17 10 -33 10 -48c0 -40 -18 -68 -55 -85c55 -86 123 -129 204 -129c35 0 65 10 90 29v96h44v59h-120v-106c-3 -8 -14 -12 -31 -12c-27 0 -56 17 -87 51zM324 280c-20 0 -30 -10 -30 -31c0 -39 17 -73 51 -101
s78 -42 131 -42c15 0 22 9 22 27v147h-174z" />
    <glyph glyph-name="uni0A01" unicode="&#xa01;" horiz-adv-x="0" 
d="M-187 831c0 39 30 69 69 69c37 0 69 -31 69 -69c0 -36 -33 -69 -69 -69c-38 0 -69 32 -69 69zM-236 828c7 0 12 -5 15 -15l9 -25c16 -25 31 -43 44 -53s30 -15 51 -15c49 0 82 34 101 102c3 8 8 12 16 12c13 0 20 -14 20 -42c0 -27 -11 -55 -32 -84
c-28 -37 -63 -55 -104 -55s-76 15 -104 45c-27 31 -41 60 -41 88s8 42 25 42z" />
    <glyph glyph-name="uni0A02" unicode="&#xa02;" horiz-adv-x="100" 
d="M-47 503v96h195v-96h-195zM-45 722c0 39 30 69 69 69c37 0 69 -31 69 -69c0 -36 -33 -69 -69 -69c-38 0 -69 32 -69 69z" />
    <glyph glyph-name="uni0A03" unicode="&#xa03;" horiz-adv-x="450" 
d="M221 351c-70 0 -127 57 -127 127c0 69 58 126 127 126s127 -57 127 -126c0 -70 -57 -127 -127 -127zM221 535c-31 0 -57 -26 -57 -57c0 -32 26 -58 57 -58s57 26 57 58c0 31 -26 57 -57 57zM221 21c-70 0 -127 57 -127 127c0 69 58 126 127 126s127 -57 127 -126
c0 -70 -57 -127 -127 -127zM221 205c-31 0 -57 -26 -57 -57c0 -32 26 -58 57 -58s57 26 57 58c0 31 -26 57 -57 57z" />
    <glyph glyph-name="uni0A05" unicode="&#xa05;" horiz-adv-x="744" 
d="M61 157c-43 0 -59 42 -59 85c0 47 29 98 87 154c-15 71 -38 107 -70 107h-25v96h82c19 0 39 -13 60 -39s34 -57 40 -92c33 26 130 76 175 90c25 -19 43 -93 56 -222l129 76v187h239v-96h-132v-503h-107v296c-88 -49 -132 -76 -132 -81c0 -31 -7 -63 -20 -95
c-21 -50 -54 -75 -98 -75c-41 0 -62 30 -62 90c0 48 28 90 85 125v9c0 31 -9 141 -31 141c-8 0 -26 -10 -55 -30c-29 -21 -45 -35 -50 -44c-6 -59 -21 -104 -45 -134s-46 -45 -67 -45z" />
    <glyph glyph-name="uni0A06" unicode="&#xa06;" horiz-adv-x="994" 
d="M61 157c-43 0 -59 42 -59 85c0 47 29 98 87 154c-15 71 -38 107 -70 107h-25v96h82c19 0 39 -13 60 -39s34 -57 40 -92c33 26 130 76 175 90c25 -19 43 -93 56 -222l129 76v187h206h33h260v-96h-138v-271l-107 -1v272h-15h-33h-99v-503h-107v296
c-88 -49 -132 -76 -132 -81c0 -31 -7 -63 -20 -95c-21 -50 -54 -75 -98 -75c-41 0 -62 30 -62 90c0 48 28 90 85 125v9c0 31 -9 141 -31 141c-8 0 -26 -10 -55 -30c-29 -21 -45 -35 -50 -44c-6 -59 -21 -104 -45 -134s-46 -45 -67 -45z" />
    <glyph glyph-name="uni0A19" unicode="&#xa19;" horiz-adv-x="528" 
d="M265 115c-26 31 -53 47 -82 47c-38 0 -57 -10 -57 -29c0 -25 19 -37 57 -37c21 0 39 3 55 10c17 6 26 9 27 9zM342 219c0 57 -41 97 -98 97h-224v187h-25v96h585v-96h-448v-73h136c51 0 94 -19 130 -58c36 -38 54 -86 54 -143s-20 -106 -60 -145c8 -8 17 -36 28 -84h-102
c0 5 -4 25 -4 29c-39 -19 -81 -29 -126 -29c-82 0 -167 51 -167 131c0 41 14 72 46 95c31 24 67 35 109 35c57 0 109 -27 156 -82c7 18 10 31 10 40z" />
    <glyph glyph-name="uni0A3E" unicode="&#xa3e;" horiz-adv-x="250" 
d="M-2 503v96h293v-96h-138v-271l-107 -1v272h-48z" />
    <glyph glyph-name="uni0A72" unicode="&#xa72;" horiz-adv-x="534" 
d="M144 503c7 -41 42 -82 105 -125h93v125h-198zM274 7h-6c-47 1 -99 25 -154 73s-83 80 -83 97s11 41 32 75c21 32 47 59 78 78c-63 47 -103 105 -121 174l-25 -1v96h569v-96h-112v-233h-150c-69 0 -113 -28 -134 -83c29 -63 76 -95 139 -95c27 0 53 9 81 27
c26 18 41 27 42 27c16 0 24 -10 24 -30c0 -15 -21 -37 -64 -66c-42 -28 -80 -43 -116 -43z" />
    <glyph glyph-name="uni0A73" unicode="&#xa73;" horiz-adv-x="670" 
d="M133 599h349c-13 121 -72 181 -175 181c-94 0 -152 -60 -174 -181zM413 157c0 46 -67 79 -115 79h-130c4 -23 20 -50 49 -81c38 -41 80 -61 127 -61c46 0 69 21 69 63zM123 503c0 -5 0 -12 -1 -19c0 -8 0 -17 1 -27l1 -34c0 -23 4 -52 13 -89h215c90 0 135 56 135 169
h-364zM21 599c22 156 119 277 288 277c158 0 250 -92 275 -277h116v-96h-110c-2 -117 -42 -195 -121 -234c35 -43 53 -82 53 -118c0 -98 -78 -153 -179 -153c-93 0 -170 43 -231 128c-65 93 -98 218 -98 377h-20v96h27z" />
    <glyph glyph-name="uni0A74" unicode="&#xa74;" horiz-adv-x="1287" 
d="M616 599c26 173 128 279 321 279c83 0 153 -42 211 -125c95 160 182 277 261 350c130 121 279 182 447 182c109 0 194 -60 254 -180c25 -50 44 -110 57 -180h-97c-9 51 -22 94 -39 131c-42 87 -102 131 -181 131c-145 0 -285 -70 -418 -210c-80 -84 -151 -185 -213 -303
h-133c-19 71 -75 106 -166 106c-59 0 -103 -15 -132 -46s-49 -76 -60 -135h555v-96h-98c-2 -119 -42 -199 -121 -238c35 -43 53 -81 53 -116c0 -97 -79 -151 -179 -151c-93 0 -170 43 -231 128c-65 93 -98 218 -98 377h-90v96h97zM103 434c0 -44 61 -66 110 -66
c53 0 103 29 122 62c-17 48 -58 72 -122 72c-50 0 -110 -21 -110 -68zM1008 157c0 56 -52 79 -115 79h-130c4 -23 20 -50 49 -81c38 -41 80 -61 126 -61c47 0 70 21 70 63zM718 503v-46l1 -34c0 -23 4 -52 13 -89h215c90 0 135 56 135 169h-364zM3 438c0 104 99 157 206 157
c58 0 109 -17 154 -51c45 -33 67 -78 67 -134c0 -54 -23 -210 -23 -266c0 -33 6 -56 18 -69c3 -3 13 -9 28 -17s23 -19 23 -33c0 -31 -27 -32 -62 -32h-5c-23 0 -46 15 -69 45c-22 30 -33 67 -33 110c0 62 6 117 18 165c-31 -16 -61 -38 -105 -38c-55 0 -105 15 -150 45
s-67 69 -67 118z" />
    <glyph glyph-name="uni0A75" unicode="&#xa75;" 
d="M-121 -175c18 9 32 51 32 84v5c0 24 -4 43 -12 56h-75c7 -17 10 -33 10 -48c0 -40 -18 -68 -55 -85c55 -86 123 -129 204 -129c35 0 65 10 90 29v96h44v59h-120v-106c-3 -8 -14 -12 -31 -12c-27 0 -56 17 -87 51z" />
    <glyph glyph-name="uni0A76" unicode="&#xa76;" horiz-adv-x="300" 
d="M70 331l82 82l81 -81l-82 -82z" />
    <glyph glyph-name="uni0A07" unicode="&#xa07;" horiz-adv-x="784" 
d="M-2 503v96h35v80c0 49 17 88 51 116s68 42 103 42c83 0 143 -36 181 -108l-80 -51c-14 33 -42 49 -85 49s-64 -33 -64 -98v-30h106h64h505v-96h-112v-233h-150c-69 0 -113 -28 -134 -83c29 -63 76 -95 139 -95c27 0 53 9 81 27c26 18 41 27 42 27c16 0 24 -10 24 -30
c0 -15 -21 -37 -64 -66c-42 -28 -80 -43 -116 -43h-6c-47 1 -99 25 -154 73s-83 80 -83 97s11 41 32 75c21 32 47 59 78 78c-62.6954 46.7728 -102.613 104.439 -120.737 173h-25.2626h-107v-503h-107v503h-33zM394 503c7 -41 42 -82 105 -125h93v125h-198z" />
    <glyph glyph-name="uni0A3F" unicode="&#xa3f;" horiz-adv-x="250" 
d="M-2 503v96h35v80c0 49 17 88 51 116s68 42 103 42c83 0 143 -36 181 -108l-80 -51c-14 33 -42 49 -85 49s-64 -33 -64 -98v-30h170v-96h-171v-503h-107v503h-33z" />
    <glyph glyph-name="uni0A08" unicode="&#xa08;" horiz-adv-x="784" 
d="M698 503v-505l-107 -1v506h-27h-32h-80v-233h-150c-69 0 -113 -28 -134 -83c29 -63 76 -95 139 -95c27 0 53 9 81 27c26 18 41 27 42 27c16 0 24 -10 24 -30c0 -15 -21 -37 -64 -66c-42 -28 -80 -43 -116 -43h-6c-47 1 -99 25 -154 73s-83 80 -83 97s11 41 32 75
c21 32 47 59 78 78c-63 47 -103 105 -121 174l-25 -1v96h537h32h26v66c0 47 -21 70 -64 70c-35 0 -61 -22 -77 -65l-88 57c38 72 98 108 181 108c35 0 69 -14 103 -42s51 -67 51 -116v-78h139v-96h-137zM144 503c7 -41 42 -82 105 -125h93v125h-198z" />
    <glyph glyph-name="uni0A40" unicode="&#xa40;" horiz-adv-x="250" 
d="M164 503v-505l-107 -1v506h-59v96h58v66c0 47 -21 70 -64 70c-35 0 -61 -22 -77 -65l-88 57c38 72 98 108 181 108c35 0 69 -14 103 -42s51 -67 51 -116v-78h139v-96h-137z" />
    <glyph glyph-name="uni0A09" unicode="&#xa09;" horiz-adv-x="670" 
d="M143 -27c63 -20 128 -30 193 -30s130 10 194 30v-80c-58 -21 -121 -31 -189 -31s-134 9 -198 27v84zM133 599h349c-13 121 -72 181 -175 181c-94 0 -152 -60 -174 -181zM413 157c0 46 -67 79 -115 79h-130c4 -23 20 -50 49 -81c38 -41 80 -61 127 -61c46 0 69 21 69 63z
M123 503c0 -5 0 -12 -1 -19c0 -8 0 -17 1 -27l1 -34c0 -23 4 -52 13 -89h215c90 0 135 56 135 169h-364zM21 599c22 156 119 277 288 277c158 0 250 -92 275 -277h116v-96h-110c-2 -117 -42 -195 -121 -234c35 -43 53 -82 53 -118c0 -98 -78 -153 -179 -153
c-93 0 -170 43 -231 128c-65 93 -98 218 -98 377h-20v96h27z" />
    <glyph glyph-name="uni0A41" unicode="&#xa41;" 
d="M-513 -27c63 -20 128 -30 193 -30s130 10 194 30v-80c-58 -21 -121 -31 -189 -31s-134 9 -198 27v84z" />
    <glyph glyph-name="uni0A0A" unicode="&#xa0a;" horiz-adv-x="670" 
d="M143 -153c63 -20 128 -30 193 -30s130 10 194 30v-80c-58 -21 -121 -31 -189 -31s-134 9 -198 27v84zM143 -27c63 -20 128 -30 193 -30s130 10 194 30v-80c-58 -21 -121 -31 -189 -31s-134 9 -198 27v84zM133 599h349c-13 121 -72 181 -175 181c-94 0 -152 -60 -174 -181
zM413 157c0 46 -67 79 -115 79h-130c4 -23 20 -50 49 -81c38 -41 80 -61 127 -61c46 0 69 21 69 63zM123 503c0 -5 0 -12 -1 -19c0 -8 0 -17 1 -27l1 -34c0 -23 4 -52 13 -89h215c90 0 135 56 135 169h-364zM21 599c22 156 119 277 288 277c158 0 250 -92 275 -277h116v-96
h-110c-2 -117 -42 -195 -121 -234c35 -43 53 -82 53 -118c0 -98 -78 -153 -179 -153c-93 0 -170 43 -231 128c-65 93 -98 218 -98 377h-20v96h27z" />
    <glyph glyph-name="uni0A42" unicode="&#xa42;" 
d="M-513 -153c63 -20 128 -30 193 -30s130 10 194 30v-80c-58 -21 -121 -31 -189 -31s-134 9 -198 27v84zM-513 -27c63 -20 128 -30 193 -30s130 10 194 30v-80c-58 -21 -121 -31 -189 -31s-134 9 -198 27v84z" />
    <glyph glyph-name="uni0A0F" unicode="&#xa0f;" horiz-adv-x="534" 
d="M-3 806c0 50 42 54 103 54c99 0 196 -73 290 -220h-36c-61 77 -125 116 -192 116l-72 -2c-62 0 -93 17 -93 52zM144 503c7 -41 42 -82 105 -125h93v125h-198zM274 7h-6c-47 1 -99 25 -154 73s-83 80 -83 97s11 41 32 75c21 32 47 59 78 78c-63 47 -103 105 -121 174
l-25 -1v96h569v-96h-112v-233h-150c-69 0 -113 -28 -134 -83c29 -63 76 -95 139 -95c27 0 53 9 81 27c26 18 41 27 42 27c16 0 24 -10 24 -30c0 -15 -21 -37 -64 -66c-42 -28 -80 -43 -116 -43z" />
    <glyph glyph-name="uni0A10" unicode="&#xa10;" horiz-adv-x="744" 
d="M202 891c2 49 31 54 86 54c75 0 152 -51 231 -153c33 -43 65 -94 96 -153h-75c-47 41 -91 61 -132 61c-23 0 -44 -3 -65 -10c-20 -6 -39 -9 -57 -9c-27 0 -67 18 -67 42c0 34 27 51 80 51c63 0 131 -20 202 -61h29c-64 85 -138 128 -222 128c-71 0 -106 17 -106 50z
M61 157c-43 0 -59 42 -59 85c0 47 29 98 87 154c-15 71 -38 107 -70 107h-25v96h82c19 0 39 -13 60 -39s34 -57 40 -92c33 26 130 76 175 90c25 -19 43 -93 56 -222l129 76v187h239v-96h-132v-503h-107v296c-88 -49 -132 -76 -132 -81c0 -31 -7 -63 -20 -95
c-21 -50 -54 -75 -98 -75c-41 0 -62 30 -62 90c0 48 28 90 85 125v9c0 31 -9 141 -31 141c-8 0 -26 -10 -55 -30c-29 -21 -45 -35 -50 -44c-6 -59 -21 -104 -45 -134s-46 -45 -67 -45z" />
    <glyph glyph-name="uni0A14" unicode="&#xa14;" horiz-adv-x="744" 
d="M535 788c-31 0 -58 -26 -58 -56c0 -16 4 -28 13 -38c8 -11 12 -16 12 -17c0 -16 -8 -24 -25 -24c-9 0 -21 10 -36 31c-15 20 -23 39 -23 56s1 31 4 42c-11 -8 -28 -12 -50 -12c-21 0 -45 10 -70 28c-25 20 -38 39 -38 59c0 12 6 18 19 18c1 0 14 -7 39 -19
c26 -14 48 -20 66 -20c35 0 59 2 71 5c25 18 51 27 79 27c27 0 53 -11 76 -32c24 -22 36 -51 36 -87c0 -33 -26 -91 -58 -91c-15 0 -22 6 -22 19c0 4 4 11 10 21c8 11 11 22 11 36c0 27 -28 54 -56 54zM61 157c-43 0 -59 42 -59 85c0 47 29 98 87 154
c-15 71 -38 107 -70 107h-25v96h82c19 0 39 -13 60 -39s34 -57 40 -92c33 26 130 76 175 90c25 -19 43 -93 56 -222l129 76v187h239v-96h-132v-503h-107v296c-88 -49 -132 -76 -132 -81c0 -31 -7 -63 -20 -95c-21 -50 -54 -75 -98 -75c-41 0 -62 30 -62 90
c0 48 28 90 85 125v9c0 31 -9 141 -31 141c-8 0 -26 -10 -55 -30c-29 -21 -45 -35 -50 -44c-6 -59 -21 -104 -45 -134s-46 -45 -67 -45z" />
    <glyph glyph-name="uni0A13" unicode="&#xa13;" horiz-adv-x="678" 
d="M32 599c22 156 119 277 288 277h231v-97c-58 1 -135 1 -231 1c-95 0 -154 -60 -176 -181h565v-96h-108c-2 -119 -42 -199 -121 -238c35 -43 53 -81 53 -116c0 -97 -79 -151 -179 -151c-93 0 -170 43 -231 128c-65 93 -98 218 -98 377h-29v96h36zM134 503v-46l1 -34
c0 -23 4 -52 13 -89h215c90 0 135 56 135 169h-364zM424 157c0 56 -52 79 -115 79h-130c4 -23 20 -50 49 -81c38 -41 80 -61 126 -61c47 0 70 21 70 63z" />
    <glyph glyph-name="uni0A47" unicode="&#xa47;" 
d="M-527 806c0 50 42 54 103 54c99 0 196 -73 290 -220h-36c-61 77 -125 116 -192 116l-72 -2c-62 0 -93 17 -93 52z" />
    <glyph glyph-name="uni0A48" unicode="&#xa48;" 
d="M-533 891c2 49 31 54 86 54c75 0 152 -51 231 -153c33 -43 65 -94 96 -153h-75c-47 41 -91 61 -132 61c-23 0 -44 -3 -65 -10c-20 -6 -39 -9 -57 -9c-27 0 -67 18 -67 42c0 34 27 51 80 51c63 0 131 -20 202 -61h29c-64 85 -138 128 -222 128c-71 0 -106 17 -106 50z" />
    <glyph glyph-name="uni0A4C" unicode="&#xa4c;" 
d="M-199 788c-31 0 -58 -26 -58 -56c0 -16 4 -28 13 -38c8 -11 12 -16 12 -17c0 -16 -8 -24 -25 -24c-9 0 -21 10 -36 31c-15 20 -23 39 -23 56s1 31 4 42c-11 -8 -28 -12 -50 -12c-21 0 -45 10 -70 28c-25 20 -38 39 -38 59c0 12 6 18 19 18c1 0 14 -7 39 -19
c26 -14 48 -20 66 -20c35 0 59 2 71 5c25 18 51 27 79 27c27 0 53 -11 76 -32c24 -22 36 -51 36 -87c0 -33 -26 -91 -58 -91c-15 0 -22 6 -22 19c0 4 4 11 10 21c8 11 11 22 11 36c0 27 -28 54 -56 54z" />
    <glyph glyph-name="uni0A15" unicode="&#xa15;" horiz-adv-x="630" 
d="M111 258c0 -54 48 -92 109 -92c65 0 85 34 113 87c-37 58 -81 87 -130 87c-46 0 -92 -35 -92 -82zM385 345c10 19 30 102 30 131c0 13 0 22 -1 27h-415v96h660v-96h-130v-20c0 -93 -22 -176 -65 -251c47 -89 71 -166 70 -233l-114 1c-9 72 -20 118 -33 139
c-31 -25 -57 -43 -81 -55c-22 -11 -51 -17 -86 -17c-55 0 -104 15 -146 46c-49 37 -74 86 -74 149c0 43 18 84 54 120c35 38 84 56 147 56s124 -31 184 -93z" />
    <glyph glyph-name="uni0A16" unicode="&#xa16;" horiz-adv-x="560" 
d="M119 246c21 -43 57 -64 106 -64c59 0 102 14 129 41v124h-192c-7 -35 -22 -68 -43 -101zM169 446h184v153h237v-96h-130v-503h-107v108c-32 -19 -74 -28 -126 -28c-92 0 -168 56 -227 169c44 51 66 112 66 184c0 32 -8 55 -23 70h-48v96h129c30 -65 45 -114 45 -147v-6z
" />
    <glyph glyph-name="uni0A17" unicode="&#xa17;" horiz-adv-x="741" 
d="M250 97c28 0 47 17 49 41v173h-141c-33 0 -50 -20 -50 -61c0 -29 16 -62 48 -98s63 -54 94 -55zM640 503v-503h-106v503h-128v-381c0 -81 -51 -121 -154 -121c-69 0 -128 30 -178 91s-75 131 -75 210c0 31 10 58 31 80s40 33 59 33h211v88h-305v96h777v-96h-132z" />
    <glyph glyph-name="uni0A18" unicode="&#xa18;" horiz-adv-x="723" 
d="M430 180c28 0 85 20 85 44v375h237v-96h-128v-503h-109v97c-27 -16 -55 -24 -83 -24s-52 7 -72 22s-34 29 -41 42l-39 -33c-23 -15 -54 -22 -92 -22c-85 0 -150 48 -196 145c40 65 60 134 60 206c0 32 -6 55 -17 70h-40v96h121c31 -57 47 -114 47 -171
c0 -73 -19 -138 -58 -196c24 -32 51 -48 82 -48c40 0 95 41 95 79c0 3 -6 29 -17 77c-11 49 -17 81 -17 98c0 72 16 167 74 167c57 0 76 -91 76 -162c0 -36 -6 -73 -20 -113c-12 -38 -19 -62 -19 -69c0 -42 29 -81 71 -81z" />
    <glyph glyph-name="uni0A1A" unicode="&#xa1a;" horiz-adv-x="614" 
d="M407 154v105h-213c0 -29 16 -62 48 -101c32 -38 71 -57 116 -57c33 0 49 18 49 53zM-7 259l-2 42c0 75 45 132 106 142c15 3 44 5 87 5v-86h223v141h-409v96h645v-96h-129v-360c0 -96 -53 -144 -160 -144c-109 0 -193 84 -236 163c-23 43 -34 75 -34 97h-91z" />
    <glyph glyph-name="uni0A1B" unicode="&#xa1b;" horiz-adv-x="633" 
d="M425 152c0 29 -29 42 -61 42h-49v-94h39c37 0 71 20 71 52zM107 155c0 -34 33 -56 70 -56h32v95h-46c-25 0 -56 -13 -56 -39zM-4 503v96h666v-96h-129v-152h-360c-23 0 -35 -11 -35 -32c0 -19 15 -29 46 -29h229c23 0 48 -10 73 -29c31 -25 47 -57 47 -96
c0 -67 -25 -113 -74 -136c-40 -19 -105 -29 -195 -29c-91 0 -154 9 -191 28c-49 25 -73 70 -73 137c0 29 9 51 27 66c3 3 16 10 39 21c-14 13 -24 26 -30 36c-7 12 -10 28 -10 51c0 35 11 63 34 84s50 31 81 31h285v49h-430z" />
    <glyph glyph-name="uni0A1C" unicode="&#xa1c;" horiz-adv-x="615" 
d="M-4 503v96h648v-96h-130v-503h-107v222h-215v-219h-107v219h-85c-1 6 -1 13 -1 22c0 52 14 92 43 120c23 24 44 39 61 46s47 10 89 10v-96h215v179h-411z" />
    <glyph glyph-name="uni0A1D" unicode="&#xa1d;" horiz-adv-x="552" 
d="M152 503c18 -37 33 -62 46 -76c17 -21 38 -31 62 -31c55 0 66 48 78 107h-186zM44 150c0 39 36 66 76 66c36 0 61 -17 76 -50l40 2c39 0 80 24 80 62c0 37 -23 56 -70 56h-192l-52 100h98l-76 117h-27v96h584v-96h-129c-13 -77 -44 -130 -92 -159c37 -26 56 -65 56 -118
c0 -80 -58 -127 -136 -136l68 -84h-108l-71 83c-14 -10 -29 -15 -45 -15c-28 0 -48 8 -61 24s-19 34 -19 52z" />
    <glyph glyph-name="uni0A1E" unicode="&#xa1e;" horiz-adv-x="525" 
d="M157 503l57 -62h124v62h-181zM182 336c-35 0 -49 -6 -49 -39c0 -21 19 -32 57 -32h218v-104h-103c-23 0 -35 -9 -35 -26c0 -30 27 -45 80 -45c19 0 36 4 51 11v-90c-13 -7 -42 -11 -85 -11c-89 0 -145 51 -167 152h-8c-81 0 -121 49 -121 147c0 76 26 120 78 133l-74 71
h-27v96h558v-96h-110v-167h-263z" />
    <glyph glyph-name="uni0A1F" unicode="&#xa1f;" horiz-adv-x="549" 
d="M404 154c29 0 30 -3 30 -33c0 -15 -22 -38 -64 -69c-44 -30 -84 -45 -120 -45c-38 0 -75 13 -113 41c-38 26 -71 57 -97 90c-28 33 -41 54 -41 63s19 32 55 70c38 38 80 72 127 101s91 44 131 44h10v87h-325v96h582v-96h-131v-174c-64 -2 -122 -13 -173 -32
s-100 -57 -147 -114c57 -58 104 -87 143 -87c27 0 55 10 85 29c31 19 47 29 48 29z" />
    <glyph glyph-name="uni0A20" unicode="&#xa20;" horiz-adv-x="621" 
d="M264 85c78 0 149 25 149 95c0 37 -16 66 -48 86c-33 20 -68 30 -107 30s-72 -9 -101 -27c-35 -21 -52 -51 -52 -90c0 -63 53 -94 159 -94zM519 195c0 -136 -109 -201 -253 -201c-178 0 -267 67 -267 201c0 45 22 87 65 129c44 40 90 61 138 62v117h-206v96h651v-96h-331
v-117c47 -1 92 -22 136 -63c45 -41 67 -84 67 -128z" />
    <glyph glyph-name="uni0A21" unicode="&#xa21;" horiz-adv-x="591" 
d="M113 138c0 -23 39 -37 65 -37c33 0 64 9 91 26c-29 30 -62 45 -99 45s-56 -11 -57 -34zM31 372c0 36 69 63 110 63c27 0 55 -5 83 -16s50 -16 66 -16s34 13 54 37c19 26 28 46 26 63h-369v96h621v-96h-134c-3 -63 -33 -110 -91 -139c13 -1 29 -16 49 -44s30 -59 30 -92
c0 -70 -32 -127 -96 -170c-55 -37 -113 -55 -176 -55s-112 14 -149 42c-36 28 -54 59 -54 95c0 83 81 128 174 128c56 0 115 -27 176 -80c8 7 12 22 12 43c0 25 -9 45 -27 61c-17 16 -34 24 -49 24c-27 0 -49 -3 -67 -9c-19 -6 -43 -9 -72 -9c-51 0 -117 26 -117 74z" />
    <glyph glyph-name="uni0A22" unicode="&#xa22;" horiz-adv-x="640" 
d="M410 81c27 0 56 15 56 40c0 21 -18 32 -55 32c-17 0 -36 -8 -56 -24l-32 -30c17 -12 46 -18 87 -18zM408 0c-195 0 -299 125 -335 293h-75c-1 9 -1 17 -1 25c1 53 15 91 44 114s67 34 114 34c7 0 17 0 30 -1v-67h232v105h-418v96h670v-96h-145v-208h-337
c2 -31 11 -61 27 -91c16 -28 30 -44 41 -47c52 57 111 85 177 85c70 0 121 -46 121 -118c0 -76 -64 -124 -145 -124z" />
    <glyph glyph-name="uni0A23" unicode="&#xa23;" horiz-adv-x="678" 
d="M414 314l3 -49c0 -21 -7 -32 -22 -32s-36 11 -65 33c-28 21 -55 32 -80 32s-50 -11 -75 -32c-25 -22 -37 -39 -37 -50c0 -25 28 -51 82 -79c56 -28 101 -42 136 -42c36 0 78 10 126 31c47 21 70 31 67 31c14 0 21 -6 21 -18c0 -29 -29 -59 -86 -89
c-58 -29 -113 -44 -166 -44c-69 0 -139 25 -210 75s-107 94 -107 133s28 84 85 136c56 52 109 78 158 78c25 0 42 -4 51 -12c9 -9 18 -13 26 -13c3 0 4 8 4 16c0 9 -1 18 0 21c-33 24 -60 45 -80 63h-249v96h711v-96h-293c53 -43 106 -75 160 -94l-22 -97
c-43 18 -83 38 -122 59c-11 -23 -16 -42 -16 -57z" />
    <glyph glyph-name="uni0A24" unicode="&#xa24;" horiz-adv-x="645" 
d="M336 259c-44 0 -90 -17 -135 -17c-98 0 -147 26 -147 79c0 46 47 69 142 69c29 0 59 -6 89 -19s51 -19 63 -19c22 0 41 14 57 41c15 25 23 47 23 68s-3 35 -10 42h-422v96h678v-96h-130c1 -9 2 -18 2 -27c0 -41 -12 -78 -34 -110c-24 -33 -43 -53 -60 -62
c11 -1 28 -14 48 -38c22 -24 32 -48 32 -71c0 -144 -76 -200 -224 -200c-66 0 -122 11 -168 33c-44 23 -79 48 -102 76c-24 29 -36 50 -36 64c0 24 2 26 22 26c9 0 24 -10 47 -31c55 -51 125 -76 210 -76c93 0 140 35 140 106c0 38 -46 66 -85 66z" />
    <glyph glyph-name="uni0A25" unicode="&#xa25;" horiz-adv-x="560" 
d="M151 312c-3 -11 -13 -33 -32 -66c21 -43 58 -64 111 -64c52 0 93 14 124 42v88h-203zM169 405h185v98h-192c5 -15 7 -33 7 -56v-42zM596 599v-96h-136v-503h-107v107c-32 -18 -74 -27 -126 -27c-91 0 -166 56 -227 169c44 51 66 112 66 184c0 32 -8 55 -23 70h-46v96h599
z" />
    <glyph glyph-name="uni0A26" unicode="&#xa26;" horiz-adv-x="635" 
d="M139 443l55 -4v-101h234v165h-432v96h669v-96h-130v-268h-346c8 -43 18 -74 30 -94c29 -47 75 -70 139 -70c37 0 71 7 104 21s48 21 45 21c12 0 18 -4 18 -13c0 -13 -16 -31 -49 -54c-43 -31 -92 -47 -147 -47s-104 13 -149 40s-74 59 -87 96c-7 21 -13 53 -17 98h-58
c-5 0 -10 8 -15 23c-5 16 -8 35 -8 57s6 42 18 59c32 47 74 71 126 71z" />
    <glyph glyph-name="uni0A27" unicode="&#xa27;" horiz-adv-x="560" 
d="M119 246c21 -43 58 -64 111 -64c52 0 93 14 124 42v279h-192c5 -20 7 -46 7 -79c0 -68 -17 -127 -50 -178zM590 599v-96h-130v-503h-107v107c-32 -18 -74 -27 -126 -27c-91 0 -166 56 -227 169c44 51 66 112 66 184c0 32 -8 55 -23 70h-46v96h593z" />
    <glyph glyph-name="uni0A28" unicode="&#xa28;" horiz-adv-x="618" 
d="M-4 503v96h666v-96h-346v-117c47 -1 92 -22 136 -63c45 -41 67 -84 67 -128c0 -67 -25 -119 -76 -156c-35 -26 -69 -39 -101 -39v93c47 7 71 35 71 86c0 37 -20 67 -60 90c-31 18 -62 27 -93 27s-62 -9 -94 -27c-41 -23 -61 -53 -61 -90c0 -51 24 -80 73 -88v-91
c-34 0 -69 13 -104 39c-50 36 -75 88 -75 156c0 44 22 87 67 128c44 41 89 62 136 63v117h-206z" />
    <glyph glyph-name="uni0A2A" unicode="&#xa2a;" horiz-adv-x="556" 
d="M208 178c58 0 121 15 142 46v375h237v-96h-130v-503h-107v112c-30 -24 -71 -36 -123 -36c-92 0 -168 58 -227 173c44 51 66 112 66 184c0 32 -8 55 -23 70h-47v96h128c31 -57 47 -118 47 -183s-17 -122 -52 -170c23 -45 53 -68 89 -68z" />
    <glyph glyph-name="uni0A2B" unicode="&#xa2b;" horiz-adv-x="525" 
d="M274 92c24 0 53 22 53 44c0 29 -18 43 -55 43c-24 0 -83 -30 -95 -41c3 -6 16 -15 40 -28c24 -12 43 -18 57 -18zM426 134c0 -80 -67 -134 -149 -134c-75 0 -139 30 -195 92c-54 60 -82 130 -82 209c0 44 13 81 38 112s60 46 103 46h178v44h-323v96h559v-96h-130v-153
h-238c-57 0 -86 -24 -86 -73c0 -20 13 -60 24 -69c64 43 117 64 159 64c81 0 142 -60 142 -138z" />
    <glyph glyph-name="uni0A2C" unicode="&#xa2c;" horiz-adv-x="532" 
d="M346 503h-200c3 -20 12 -42 28 -65c27 -39 66 -58 117 -58h54zM256 160c30 0 77 13 90 26v88h-74c-43 0 -78 -18 -104 -54c9 -32 47 -60 88 -60zM145 330c-67 49 -84 67 -118 173h-31v96h566v-96h-110v-503h-107v85c-25 -15 -59 -23 -103 -23s-88 19 -132 56
c-43 38 -71 70 -82 95c40 59 79 98 117 117z" />
    <glyph glyph-name="uni0A2D" unicode="&#xa2d;" horiz-adv-x="536" 
d="M102 319c0 -34 29 -35 72 -35c24 0 51 12 82 35c-34 21 -62 32 -84 32c-47 0 -70 -11 -70 -32zM0 109c0 22 5 27 26 27c10 0 34 -9 72 -28c39 -19 75 -28 109 -28s63 10 87 30c25 21 37 53 37 98c0 11 -5 24 -16 38c-51 -37 -100 -56 -149 -56c-31 0 -60 7 -87 20
c-46 23 -69 62 -69 116c0 36 14 66 43 89s63 35 102 35s75 -9 107 -26l46 -30c10 23 15 46 15 72c0 24 -1 37 -3 37h-320v96h566v-96h-132c1 -9 1 -17 1 -25c0 -57 -17 -108 -50 -153c15 -29 23 -45 24 -48c10 -24 15 -50 15 -77c0 -51 -19 -96 -56 -136
c-38 -40 -86 -60 -144 -60c-57 0 -109 11 -155 32c-46 22 -69 46 -69 73z" />
    <glyph glyph-name="uni0A2E" unicode="&#xa2e;" horiz-adv-x="549" 
d="M149 448c6 -21 11 -56 16 -105h170v256h243v-96h-131v-503h-112v242h-169v-18c0 -47 -7 -91 -22 -132s-38 -61 -69 -61h-2c-49 0 -74 23 -74 68c0 2 11 28 31 77c22 49 32 103 32 160c0 58 -10 114 -31 167h-34v96h102c11 -29 27 -79 50 -151z" />
    <glyph glyph-name="uni0A2F" unicode="&#xa2f;" horiz-adv-x="654" 
d="M146 503c10 -25 15 -65 15 -118s-16 -97 -48 -131c13 -21 31 -37 54 -48c23 -12 42 -18 57 -18c31 0 46 5 46 15v161h177v139h-301zM29 301c18 35 27 68 27 101s-4 66 -13 101h-47v96h688v-96h-130v-504h-107v258h-82v-84c0 -27 -9 -47 -26 -61s-35 -21 -52 -21
c-57 0 -96 4 -119 12c-59 21 -116 69 -169 146z" />
    <glyph glyph-name="uni0A30" unicode="&#xa30;" horiz-adv-x="534" 
d="M154 280c-20 0 -30 -10 -30 -31c0 -39 17 -73 51 -101s78 -42 131 -42c15 0 22 9 22 27v147h-174zM434 127c0 -96 -52 -126 -154 -126h-2c-66 0 -129 29 -188 87c-60 59 -90 124 -91 196c0 32 10 57 29 74s39 26 59 26h241v119h-331v96h567v-96h-130v-376z" />
    <glyph glyph-name="uni0A32" unicode="&#xa32;" horiz-adv-x="670" 
d="M292 361c34 0 58 47 72 142l-35 1h-27c-21 0 -47 0 -78 -1c3 -35 11 -67 26 -97s29 -45 42 -45zM215 1c-131 0 -213 83 -213 214c0 42 16 80 48 113c33 33 65 51 97 52c-27 34 -42 75 -46 123h-105v96h720v-96h-229c-11 -58 -27 -99 -46 -123c32 -1 64 -19 97 -52
c32 -33 48 -71 48 -113c0 -72 -23 -127 -70 -166c-39 -32 -86 -48 -141 -48v93c15 0 32 5 50 16c30 17 45 45 45 83c0 62 -23 93 -70 93c-22 0 -40 -9 -53 -27c-2 -3 -10 -20 -24 -50c-8 -18 -18 -27 -29 -27c-12 0 -22 9 -30 27c-14 31 -22 47 -23 50c-13 18 -30 27 -53 27
c-47 0 -70 -31 -70 -93c0 -38 16 -66 47 -83c18 -11 35 -16 50 -16v-93z" />
    <glyph glyph-name="uni0A33" unicode="&#xa33;" horiz-adv-x="670" 
d="M292 361c34 0 58 47 72 142l-35 1h-27c-21 0 -47 0 -78 -1c3 -35 11 -67 26 -97s29 -45 42 -45zM215 1c-131 0 -213 83 -213 214c0 42 16 80 48 113c33 33 65 51 97 52c-27 34 -42 75 -46 123h-105v96h720v-96h-229c-11 -58 -27 -99 -46 -123c32 -1 64 -19 97 -52
c32 -33 48 -71 48 -113c0 -72 -23 -127 -70 -166c-39 -32 -86 -48 -141 -48v93c15 0 32 5 50 16c30 17 45 45 45 83c0 62 -23 93 -70 93c-22 0 -40 -9 -53 -27c-2 -3 -10 -20 -24 -50c-8 -18 -18 -27 -29 -27c-12 0 -22 9 -30 27c-14 31 -22 47 -23 50c-13 18 -30 27 -53 27
c-47 0 -70 -31 -70 -93c0 -38 16 -66 47 -83c18 -11 35 -16 50 -16v-93zM226 -124c0 39 30 69 68 71h3c36 0 69 -31 69 -67c0 -40 -30 -69 -68 -71h-3c-36 0 -69 31 -69 67z" />
    <glyph glyph-name="uni0A35" unicode="&#xa35;" horiz-adv-x="634" 
d="M0 313c0 104 64 138 176 138h251v52h-427v96h664v-96h-130v-159h-356c-53 0 -79 -13 -79 -40c0 -38 40 -39 87 -39h329v-104h-220c-11 0 -16 -4 -16 -13c0 -32 88 -59 123 -59c43 0 104 13 125 34l-23 -102c-35 -14 -68 -21 -99 -21c-60 0 -115 17 -165 50
c-49 33 -77 68 -84 104h-6c-40 0 -75 13 -105 39s-45 66 -45 120z" />
    <glyph glyph-name="uni0A36" unicode="&#xa36;" horiz-adv-x="571" 
d="M379 503h-243c5 -7 14 -25 27 -55c8 -21 15 -56 22 -105h194v160zM202 84c0 37 29 70 68 70c37 0 70 -29 70 -68c0 -37 -31 -70 -68 -70c-38 0 -70 28 -70 68zM601 599v-96h-110v-503h-112v242h-193v-18c0 -47 -7 -91 -22 -132s-38 -61 -69 -61h-2c-49 0 -74 23 -74 68
c0 2 11 28 31 77c22 49 32 98 32 145c0 68 -20 129 -59 182h-26v96h604z" />
    <glyph glyph-name="uni0A38" unicode="&#xa38;" horiz-adv-x="549" 
d="M355 503h-219c5 -7 14 -25 27 -55c8 -21 15 -56 22 -105h170v160zM578 599v-96h-111v-503h-112v242h-169v-18c0 -47 -7 -91 -22 -132s-38 -61 -69 -61h-2c-49 0 -74 23 -74 68c0 2 11 28 31 77c22 49 32 98 32 145c0 68 -20 129 -59 182h-28v96h583z" />
    <glyph glyph-name="uni0A39" unicode="&#xa39;" horiz-adv-x="537" 
d="M211 262h-66c-13 0 -21 -1 -21 -13c0 -39 17 -73 51 -101s78 -42 131 -42c15 0 22 9 22 27v370h-333v96h572v-96h-133v-376c0 -96 -52 -126 -154 -126h-2c-66 0 -129 29 -188 87c-60 59 -90 124 -91 196c0 55 31 82 92 82h120v-104z" />
    <glyph glyph-name="uni0A3C" unicode="&#xa3c;" 
d="M-418 -124c0 39 30 69 68 71h3c36 0 69 -31 69 -67c0 -40 -30 -69 -68 -71h-3c-36 0 -69 31 -69 67z" />
    <glyph glyph-name="uni0A4B" unicode="&#xa4b;" 
d="M-236 786c47 0 97 -34 97 -79l-3 -44h-43c0 26 -19 39 -56 39l-77 -6c-52 -4 -93 -6 -124 -6c-1 0 -1 0 -2 -1c-29 0 -51 9 -64 28s-20 41 -20 68c0 9 1 19 2 28h39c2 -27 21 -40 58 -40c46 0 146 13 193 13z" />
    <glyph glyph-name="uni0A4D" unicode="&#xa4d;" 
d="M-248 -79c0 47 37 54 92 54c104 0 198 -64 281 -191h-30c-61 62 -122 93 -181 93l-67 -8c-63 0 -95 17 -95 52z" />
    <glyph glyph-name="uni0A51" unicode="&#xa51;" 
d="M0 -162c0 -47 -37 -54 -92 -54c-104 0 -198 64 -281 191h30c61 -62 122 -93 181 -93l67 8c63 0 95 -17 95 -52z" />
    <glyph glyph-name="uni0A59" unicode="&#xa59;" horiz-adv-x="642" 
d="M201 246c21 -43 57 -64 106 -64c59 0 102 14 129 41v124h-192c-7 -35 -22 -68 -43 -101zM0 68c0 37 29 70 68 70c37 0 70 -29 70 -68c0 -37 -31 -70 -68 -70s-70 31 -70 68zM251 446h184v153h237v-96h-130v-503h-107v108c-32 -19 -74 -28 -126 -28
c-92 0 -168 56 -227 169c44 51 66 112 66 184c0 32 -8 55 -23 70h-125v96h206c30 -65 45 -114 45 -147v-6z" />
    <glyph glyph-name="uni0A5A" unicode="&#xa5a;" horiz-adv-x="876" 
d="M385 97c27 0 49 16 49 41v173h-141c-33 0 -50 -20 -50 -61c0 -29 16 -62 47 -98c32 -37 64 -55 95 -55zM-4 91c0 38 31 69 68 71h3c36 0 68 -30 68 -68c0 -37 -31 -70 -69 -70c-36 0 -70 31 -70 67zM775 503v-503h-106v503h-128v-381c0 -81 -51 -121 -154 -121
c-69 0 -128 30 -178 91s-75 130 -75 207c0 33 10 60 32 83c20 22 41 33 60 33h209v88h-439v96h910v-96h-131z" />
    <glyph glyph-name="uni0A5B" unicode="&#xa5b;" horiz-adv-x="620" 
d="M232 94c0 37 29 70 68 70c37 0 70 -29 70 -68c0 -37 -31 -70 -68 -70c-38 0 -70 28 -70 68zM-4 503v96h654v-96h-130v-503h-107v222h-221v-222h-107v222h-85c-5 13 -8 28 -8 45c0 31 10 60 30 85c35 45 92 68 170 68v-96h221v179h-417z" />
    <glyph glyph-name="uni0A5C" unicode="&#xa5c;" horiz-adv-x="665" 
d="M444 247c0 39 -34 69 -72 69c-17 0 -41 -6 -70 -17s-59 -17 -88 -17s-59 6 -89 18c-39 16 -58 38 -58 66c0 47 50 70 150 70c14 0 36 -6 65 -16c29 -12 56 -17 79 -17s42 10 55 30s20 40 21 59c0 4 0 8 -1 11h-440v96h699v-96h-130c-1 -25 -11 -53 -28 -86
s-35 -53 -53 -61c51 -30 77 -71 77 -122c0 -75 -34 -119 -101 -132c18 -18 38 -39 61 -64c3 -5 5 -9 5 -12c0 -15 -15 -22 -45 -22c-19 0 -34 4 -44 13c-25 22 -49 45 -73 70c-8 -1 -17 -1 -26 -1c-70 0 -129 10 -178 29c13 -13 26 -26 39 -41s20 -28 21 -40
c0 -24 -16 -25 -41 -25h-11c-19 1 -51 25 -98 73c-45 48 -68 86 -68 113c0 32 18 40 52 40c15 0 50 -9 106 -25c54 -18 98 -26 129 -26c54 0 93 5 118 16c25 10 37 26 37 47z" />
    <glyph glyph-name="uni0A5E" unicode="&#xa5e;" horiz-adv-x="648" 
d="M396 92c24 0 53 22 53 44c0 29 -18 43 -55 43c-24 0 -83 -30 -95 -41c3 -6 16 -15 40 -28c24 -12 43 -18 57 -18zM2 92c0 39 32 68 68 70h2c37 0 68 -31 68 -68s-31 -70 -68 -70s-70 31 -70 68zM548 134c0 -80 -67 -134 -149 -134c-75 0 -139 30 -195 92
c-54 60 -82 130 -82 209c0 44 13 81 38 112s60 46 103 46h178v44h-445v96h681v-96h-130v-153h-238c-57 0 -86 -24 -86 -73c0 -20 13 -60 24 -69c64 43 117 64 159 64c81 0 142 -60 142 -138z" />
    <glyph glyph-name="uni0964" unicode="&#x964;" horiz-adv-x="300" 
d="M252 624v-624h-107v624h107z" />
    <glyph glyph-name="uni0965" unicode="&#x965;" horiz-adv-x="550" 
d="M449 624v-624h-107v624h107zM202 624v-624h-107v624h107z" />
    <glyph glyph-name="uni0A66" unicode="&#xa66;" horiz-adv-x="600" 
d="M306 431c-73 0 -135 -61 -135 -135c0 -72 63 -135 135 -135c74 0 135 62 135 135c0 75 -60 135 -135 135zM306 530c65 0 120 -23 166 -68c45 -46 68 -101 68 -166s-23 -120 -68 -166c-46 -45 -101 -68 -166 -68s-120 23 -166 68c-45 46 -68 101 -68 166s23 120 68 166
c46 45 101 68 166 68z" />
    <glyph glyph-name="uni0A67" unicode="&#xa67;" horiz-adv-x="600" 
d="M168 434c0 -44 61 -66 110 -66c53 0 104 28 122 62c-18 51 -59 76 -122 76c-49 0 -110 -25 -110 -72zM541 25c0 -31 -27 -33 -61 -33h-6c-23 0 -45 15 -68 46c-23 30 -34 70 -34 121s6 100 18 148c-41 -21 -76 -32 -105 -32c-55 0 -105 15 -150 45s-67 69 -67 118
c0 102 98 161 204 161c1 -1 1 -1 2 -1c57 0 108 -17 154 -52c44 -35 67 -80 67 -136c0 -55 -23 -211 -23 -266c0 -33 6 -56 18 -69c3 -3 13 -9 28 -17s23 -19 23 -33z" />
    <glyph glyph-name="uni0A68" unicode="&#xa68;" horiz-adv-x="600" 
d="M423 382c0 77 -44 116 -125 116c-45 0 -82 -8 -112 -23c-31 -15 -52 -23 -66 -23c-25 0 -53 15 -53 39c0 37 32 66 97 85c43 12 84 18 124 18c59 0 115 -18 166 -55c59 -42 88 -94 88 -156s-23 -113 -70 -152c-33 -28 -63 -43 -89 -45c19 -7 49 -29 87 -68
c40 -39 68 -79 86 -120l-122 1c-74 115 -123 173 -148 173c-22 0 -81 -25 -103 -25c-76 0 -114 22 -114 66c0 48 44 71 93 71c24 0 50 -6 75 -18c25 -11 48 -17 69 -17c36 0 64 13 86 40c20 27 31 57 31 93z" />
    <glyph glyph-name="uni0A69" unicode="&#xa69;" horiz-adv-x="600" 
d="M72 366c0 49 58 51 123 51l146 -11c66 0 99 15 99 45c0 22 -12 37 -36 45c-24 9 -63 13 -117 13s-119 -5 -195 -16l-29 79c37 17 122 31 183 31c151 0 290 -23 290 -150c0 -63 -20 -83 -63 -106c43 -24 65 -58 65 -101c0 -99 -94 -145 -197 -150c59 -16 99 -24 121 -24
c50 0 75 -11 75 -32c0 -9 -7 -17 -22 -24s-35 -10 -62 -10c-73 0 -144 23 -213 69c-121 15 -182 42 -182 81c0 32 27 48 82 48c25 0 51 -4 78 -12c27 -7 57 -11 91 -11c84 0 126 20 126 59c0 27 -13 49 -39 64c-27 15 -57 23 -90 23c-39 0 -83 -11 -128 -11
c-53 0 -106 7 -106 50z" />
    <glyph glyph-name="uni0A6A" unicode="&#xa6a;" horiz-adv-x="600" 
d="M297 92c63 0 140 16 140 69c0 60 -44 90 -133 90s-134 -30 -134 -91c0 -19 11 -35 32 -48s51 -20 92 -20h3zM264 509c-50 0 -105 -28 -105 -77c0 -32 20 -57 59 -76c28 -13 55 -20 82 -20s55 7 86 20c41 19 62 44 62 76c0 24 -12 43 -36 56s-47 20 -70 21v88
c136 0 204 -55 204 -165c0 -36 -10 -66 -30 -90s-41 -41 -64 -50c29 -7 52 -22 68 -47s24 -53 24 -85c0 -115 -117 -160 -244 -160c-125 0 -238 46 -238 160c0 43 13 78 40 103c16 16 33 26 51 29c-19 7 -40 23 -61 48s-32 55 -32 92c0 110 68 165 204 165v-88z" />
    <glyph glyph-name="uni0A6B" unicode="&#xa6b;" horiz-adv-x="600" 
d="M425 156c-36 -12 -68 -18 -95 -18c-95 0 -190 51 -283 152c49 50 73 93 73 130s-23 79 -70 127l88 65c60 -68 90 -132 90 -192c0 -46 -14 -86 -43 -120c44 -40 93 -60 147 -60c32 0 63 7 93 21v338h105v-600h-105v157z" />
    <glyph glyph-name="uni0A6C" unicode="&#xa6c;" horiz-adv-x="600" 
d="M168 158c0 -56 99 -69 170 -69c42 0 100 12 175 36l18 -84c-87 -26 -160 -39 -221 -39c-60 0 -114 11 -161 33c-59 27 -89 68 -89 123c0 39 11 70 32 92c13 8 25 16 37 25c-44 31 -66 71 -66 119c0 47 29 83 86 107c41 17 87 26 140 26h17c-20 21 -30 48 -30 81
c0 73 68 118 204 135l42 -87c-94 0 -141 -22 -141 -66c0 -37 6 -58 18 -63c45 -5 75 -9 90 -13c34 -11 51 -28 51 -53c0 -39 -22 -59 -66 -59c-27 0 -56 6 -90 19c-32 13 -56 19 -69 19c-90 0 -135 -21 -135 -63c0 -48 34 -72 102 -72c15 0 38 3 67 9s55 9 77 9
s45 -6 69 -17c24 -12 36 -28 36 -49s-14 -36 -41 -46c-21 -7 -42 -11 -64 -11s-46 4 -73 12s-48 12 -65 12c-80 0 -120 -22 -120 -66z" />
    <glyph glyph-name="uni0A6D" unicode="&#xa6d;" horiz-adv-x="600" 
d="M445 359c0 95 -16 144 -103 144c-56 0 -84 -47 -84 -140c0 -9 0 -19 1 -29h-99v8c0 49 6 90 17 125c29 89 87 133 175 133c120 0 188 -105 188 -231c0 -243 -160 -365 -481 -365v98c94 0 172 13 235 39c101 42 151 115 151 218z" />
    <glyph glyph-name="uni0A6E" unicode="&#xa6e;" horiz-adv-x="600" 
d="M398 14c-156 0 -253 73 -253 224v160h-70c-20 16 -30 39 -30 70s13 60 39 88c26 29 54 43 83 43h75v-96h292v-104h-292v-135c0 -104 53 -156 158 -156h133v-94h-135z" />
    <glyph glyph-name="uni0A6F" unicode="&#xa6f;" horiz-adv-x="600" 
d="M56 434c0 66 53 124 120 124h76v-105h136c-51 31 -77 73 -77 126c0 73 38 121 115 146c32 11 70 16 114 16v-83c-93 -2 -139 -31 -139 -88c0 -45 43 -84 130 -117v-96h-279v-178c0 -31 18 -60 54 -87s79 -40 129 -41h96v-87h-104c-83 0 -150 27 -203 80
c-45 45 -68 95 -68 148v159h-58c-28 21 -42 49 -42 83z" />
    <glyph glyph-name="uni0A71" unicode="&#xa71;" horiz-adv-x="0" 
d="M-236 828c7 0 12 -5 15 -15l9 -25c16 -25 31 -43 44 -53s30 -15 51 -15c49 0 82 34 101 102c3 8 8 12 16 12c13 0 20 -14 20 -42c0 -27 -11 -55 -32 -84c-28 -37 -63 -55 -104 -55s-76 15 -104 45c-27 31 -41 60 -41 88s8 42 25 42z" />
    <glyph glyph-name="uni0A70" unicode="&#xa70;" 
d="M-187 776c-29 0 -58 -23 -58 -49c0 -10 2 -21 7 -33c5 -13 7 -21 7 -26c0 -10 -7 -15 -21 -15c-5 0 -13 8 -26 24c-15 20 -22 44 -22 71c0 28 10 54 30 78c19 23 46 35 82 35c69 0 112 -52 112 -122c0 -17 -6 -35 -20 -55c-12 -21 -28 -31 -45 -31c-7 0 -10 2 -10 6
s3 13 9 28c7 15 10 27 10 38c0 27 -25 51 -55 51z" />
    <glyph glyph-name="uni262C" unicode="&#x262c;" horiz-adv-x="855" 
d="M359 741c-81 -22 -153 -95 -153 -194c0 -102 74 -174 157 -197c24 66 36 125 36 177v7c-1 53 -15 122 -40 207zM694 548c0 -117 -88 -203 -183 -230c3 -8 9 -23 19 -45c-41 -18 -45 -19 -79 -53v-79c169 92 268 181 298 268c19 55 28 97 28 127s-7 58 -19 82
c-14 26 -36 57 -67 96c82 -31 137 -112 137 -224c0 -87 -30 -164 -65 -215c-19 -25 -45 -59 -75 -101c-32 -41 -49 -76 -52 -104l-91 84c-31 -10 -58 -24 -82 -42c25 -10 51 -24 79 -41c27 -17 41 -37 41 -58c0 -14 -15 -28 -29 -28c-17 0 -25 8 -25 25c0 7 3 16 10 25
c-32 26 -36 31 -90 50v-92c15 -13 22 -25 22 -36c0 -21 -20 -40 -42 -40s-38 19 -38 40c0 11 7 23 22 36v92c-14 -5 -31 -12 -52 -21l-38 -29c7 -9 10 -18 10 -25c0 -17 -8 -25 -23 -25h-2c-15 0 -29 13 -29 28c0 21 14 41 41 58s54 31 79 41c-25 20 -53 34 -82 42l-91 -84
c-3 28 -16 56 -38 86c-22 28 -52 68 -89 119c-35 51 -65 128 -65 215c0 113 54 193 137 224c-31 -39 -53 -70 -67 -96c-12 -24 -19 -52 -19 -82s9 -72 28 -127c30 -87 129 -177 298 -268v79c-9 9 -23 21 -44 37c-8 5 -20 10 -35 16c5 12 11 27 18 45c-52 15 -95 43 -128 86
c-34 42 -51 90 -51 143c0 114 84 201 176 228c-4 12 -8 22 -12 30c42 30 70 56 83 79l15 25c5 -12 16 -30 32 -53c21 -19 41 -36 62 -51c-4 -8 -8 -18 -12 -30c94 -27 179 -111 179 -227zM499 350c85 22 160 96 160 197s-75 170 -156 194c-25 -85 -39 -155 -40 -208v-7
c0 -53 12 -111 36 -176z" />
    <glyph glyph-name="uni25CC" unicode="&#x25cc;" horiz-adv-x="423" 
d="M72 315c2 -12 4 -24 8 -34l-31 -18c-7 16 -12 34 -14 52h37zM340 282c4 10 7 21 9 33h36c-2 -19 -7 -35 -14 -51zM296 224c9 7 18 15 25 24l31 -18c-10 -14 -23 -26 -38 -37zM99 248c8 -10 16 -18 25 -25l-18 -31c-15 11 -27 23 -38 38zM125 444c-9 -7 -18 -15 -25 -24
l-31 18c11 15 23 28 38 38zM36 354c2 18 6 35 13 51l31 -18c-4 -11 -6 -22 -8 -33h-36zM191 472c-12 -2 -23 -4 -33 -8l-18 31c17 7 33 12 51 14v-37zM230 196c12 2 23 5 33 9l18 -32c-15 -7 -32 -10 -51 -13v36zM157 204c12 -5 23 -8 34 -9v-35c-18 2 -36 6 -52 13z
M349 354c-2 12 -5 22 -9 32l31 19c7 -15 12 -32 14 -51h-36zM320 420c-8 9 -15 17 -24 24l18 31c15 -12 27 -24 37 -37zM263 463c-11 4 -22 7 -33 9v36c18 -2 35 -7 51 -14z" />
    <glyph glyph-name=".notdef" horiz-adv-x="500" 
d="M125 63h250v581h-250v-581zM63 0v706h375v-706h-375z" />
    <glyph glyph-name="uni0A4D_uni0A30" 
d="M-240 -136c0 40 27 67 63 71v35h81v-47c68 -19 129 -63 184 -132c19 -25 28 -42 28 -51c0 -3 -2 -4 -4 -4c-4 0 -19 11 -48 32c-28 21 -53 39 -74 52c-22 14 -49 22 -80 23c-15 -35 -39 -52 -73 -52c-40 0 -77 34 -77 73z" />
    <glyph glyph-name="uni0A4D_uni0A35" 
d="M-341 -167c-29 2 -55 27 -55 60c0 45 24 67 73 67h142v14h40v-70h-179c-11 0 -17 -5 -17 -14c0 -11 5 -16 16 -16h194v-38h-135c-18 0 -27 -5 -27 -14s9 -14 27 -14h135v-48h-140c-41 0 -74 25 -76 61c0 4 1 8 2 12z" />
    <glyph glyph-name="uni0A4D_uni0A39" 
d="M-120 -128c0 -83 -42 -141 -121 -141c-37 0 -71 16 -103 49c-31 33 -47 65 -47 96c0 51 27 77 81 77c31 0 47 -8 47 -23s-9 -24 -28 -27s-28 -10 -28 -21c0 -15 9 -32 27 -50c19 -17 37 -26 54 -26c26 0 39 22 39 65v99h79v-98z" />
    <glyph glyph-name="uni0A4D_uni0A1A" 
d="M-211 -308c-56 0 -98 19 -127 56c-20 26 -30 53 -30 80h-51c0 23 0 36 -1 39c8 64 46 71 120 71v-47h117v79h76v-188c0 -36 -15 -62 -46 -77c-18 -9 -37 -13 -58 -13zM-183 -213v41h-113c0 -17 6 -33 17 -48s30 -22 57 -22c26 0 39 10 39 29z" />
    <glyph glyph-name="uni0A4D_uni0A24" 
d="M-177 -133c16 0 24 22 24 41c0 24 -9 45 -27 62h75c18 -19 27 -40 27 -63s-6 -41 -18 -52c-1 -1 -10 -5 -25 -14c6 0 15 -5 26 -17c11 -10 17 -23 17 -36c0 -71 -44 -87 -122 -87c-35 0 -67 9 -94 29c-28 18 -42 36 -42 53c0 8 8 12 23 12c4 -1 10 -5 18 -13
c19 -20 48 -30 85 -30c38 0 57 14 57 43c0 19 -9 29 -27 29c-23 0 -45 -8 -67 -8c-43 0 -64 11 -64 34s21 34 64 34c13 0 27 -3 41 -8c13 -6 23 -9 29 -9z" />
    <glyph glyph-name="uni0A4D_uni0A28" 
d="M-174 -360c-94 0 -156 49 -156 141c0 33 16 64 48 93c33 30 66 45 100 46v50h83v-50c34 -1 67 -16 99 -46c31 -29 47 -60 47 -93c0 -92 -61 -141 -155 -141v65c53 0 80 22 80 65c0 27 -13 47 -40 62s-51 22 -72 23c-21 -1 -45 -8 -72 -23s-40 -35 -40 -61s11 -45 34 -56
c14 -7 29 -10 44 -10v-65z" />
    <glyph glyph-name="uni0A4D_uni0A1F" 
d="M-189 -68h8v38h75v-104h-15c-63 0 -119 -25 -167 -74c31 -30 56 -45 74 -45c17 0 35 6 54 19c18 12 27 18 28 18c13 0 19 -7 19 -21s-13 -30 -39 -49c-25 -18 -52 -27 -80 -27c-27 0 -58 17 -92 49c-34 34 -51 56 -51 68c0 11 23 36 67 72c44 37 84 56 119 56z" />
    <glyph glyph-name="uni0A4D_uni0A2F" horiz-adv-x="615" 
d="M-4 503v96h648v-96h-139v-503h-107v288l-77 14l-59 -248l-262 112l48 92l142 -62l52 220l156 -28v115h-402z" />
    <glyph glyph-name="uni0A15_uni0A4D_uni0A30" horiz-adv-x="647" 
d="M53 -84c0 46 47 83 93 83c6 0 12 -1 17 -2v77c-108 27 -162 90 -162 188c0 43 18 84 53 120c36 38 85 56 148 56s124 -31 184 -93c10 20 30 102 30 131c0 12 0 22 -1 27h-419v96h688v-96h-154v-20c0 -93 -22 -176 -65 -251c47 -89 71 -166 70 -233l-114 1
c-9 72 -20 118 -33 139c-45 -37 -84 -59 -118 -67v-114c51 -29 108 -79 171 -150l-45 -25c-75 59 -131 88 -167 88h-4c-19 -25 -44 -37 -75 -37c-52 0 -97 31 -97 82zM112 258c0 -55 49 -92 109 -92c65 0 85 34 113 87c-37 58 -81 87 -130 87c-46 0 -92 -35 -92 -82z" />
    <glyph glyph-name="uni0A28_uni0A42_uni0A70" horiz-adv-x="621" 
d="M67 0c63 -20 127 -30 193 -30c64 0 129 10 194 30v-80c-58 -21 -121 -31 -189 -31s-134 9 -198 27v84zM67 -126c63 -20 127 -30 193 -30c64 0 129 10 194 30v-80c-58 -21 -121 -31 -189 -31s-134 9 -198 27v84zM382 774c0 -41 -19 -108 -57 -108c-11 0 -16 6 -16 19
c0 3 2 11 5 24c4 13 6 25 6 37c0 29 -17 43 -50 43s-50 -12 -50 -36c0 -15 3 -27 9 -39c6 -10 9 -19 9 -24c0 -14 -6 -21 -19 -21c-36 2 -63 62 -63 103c0 55 59 94 116 94h4c56 0 106 -39 106 -92zM-4 503v96h657v-96h-334v-96c47 -1 92 -22 137 -63c44 -41 66 -84 66 -128
c0 -76 -28 -131 -85 -164c-33 -19 -64 -29 -95 -29v92c11 0 24 4 38 13c24 15 36 40 36 76c0 34 -20 63 -60 86c-31 18 -62 27 -93 27s-62 -9 -94 -27c-41 -23 -61 -53 -61 -90c0 -30 11 -53 33 -69c13 -10 25 -15 35 -15v-92c-28 0 -58 10 -90 29c-56 33 -84 88 -84 163
c0 44 22 87 66 128c45 41 90 62 137 63v96h-209z" />
    <glyph glyph-name="_uni0A02" horiz-adv-x="0" 
d="M-229 722c0 39 30 69 69 69c37 0 69 -31 69 -69c0 -36 -33 -69 -69 -69c-38 0 -69 32 -69 69z" />
    <glyph glyph-name="uni0A09_uni0A02" horiz-adv-x="824" 
d="M41 599c22 156 119 277 288 277c158 0 250 -92 275 -277h301v-96h-295c-2 -117 -42 -195 -121 -234c35 -43 53 -82 53 -118c0 -98 -78 -153 -179 -153c-93 0 -170 43 -231 128c-65 93 -98 218 -98 377h-40v96h47zM143 503c0 -5 0 -12 -1 -19c0 -8 0 -17 1 -27l1 -34
c0 -23 4 -52 13 -89h215c90 0 135 56 135 169h-364zM433 157c0 46 -67 79 -115 79h-130c4 -23 20 -50 49 -81c38 -41 80 -61 127 -61c46 0 69 21 69 63zM153 599h349c-13 121 -72 181 -175 181c-94 0 -152 -60 -174 -181zM163 -27c63 -20 127 -30 193 -30
c64 0 129 10 194 30v-80c-58 -21 -121 -31 -189 -31s-134 9 -198 27v84zM641 724c0 36 32 68 69 68c38 0 69 -31 69 -68c0 -39 -30 -70 -69 -70c-38 0 -69 32 -69 70z" />
    <glyph glyph-name="space" unicode=" " horiz-adv-x="300" 
 />
    <glyph glyph-name="exclam" unicode="!" horiz-adv-x="480" 
d="M476 55l-76 -76l-75 75l76 76zM325 837h151l-54 -636h-43z" />
    <glyph glyph-name="comma" unicode="," horiz-adv-x="293" 
d="M234 15c0 -43 -16 -98 -56 -98c-19 0 -33 4 -43 12c22 31 33 70 33 115c0 12 -3 22 -8 31l-44 44l81 81l86 -87l-49 -49v-49z" />
    <glyph glyph-name="period" unicode="." horiz-adv-x="300" 
d="M213 166l86 -86l-81 -81l-86 86z" />
    <glyph glyph-name="colon" unicode=":" horiz-adv-x="300" 
d="M70 461l82 82l81 -81l-82 -82zM74 113l81 81l81 -81l-81 -81z" />
    <glyph glyph-name="semicolon" unicode=";" horiz-adv-x="293" 
d="M193 546l86 -87l-81 -80l-86 86zM254 58c0 -2 -7 -50 -7 -54c0 -21 -10 -46 -30 -72c-20 -28 -36 -41 -49 -41s-19 5 -19 15c0 7 6 21 19 44s19 49 19 78c-1 7 -6 18 -15 35l-44 44l81 81l73 -73c-1 -9 -6 -20 -14 -33c-10 -13 -14 -21 -14 -24z" />
    <glyph glyph-name="question" unicode="?" horiz-adv-x="500" 
d="M224 511c116 21 174 69 174 142c0 78 -32 117 -96 117c-25 0 -45 -12 -58 -35c-14 -23 -33 -35 -57 -35c-40 0 -60 25 -60 75c1 24 19 45 55 62s71 26 105 26h4c57 0 105 -23 145 -67c41 -45 61 -97 61 -156s-21 -110 -63 -153c-35 -37 -73 -60 -114 -70l-18 -230h-62z
M341 37l-76 -76l-75 75l76 76z" />
    <glyph glyph-name="less" unicode="&#x3c;" horiz-adv-x="314" 
d="M248 455v-104l-159 -124l159 -123v-104l-248 189v78z" />
    <glyph glyph-name="_uni0A42" 
d="M-350 -264c38 -12 77 -18 116 -18s78 6 116 18v-48c-35 -13 -72 -19 -113 -19s-80 6 -119 17v50zM-350 -340c38 -12 77 -18 116 -18s78 6 116 18v-48c-32 -12 -66 -18 -104 -18h-9c-41 0 -80 5 -119 16v50z" />
    <glyph glyph-name="_uni0A41" 
d="M-350 -264c38 -12 77 -18 116 -18s78 6 116 18v-48c-35 -13 -72 -19 -113 -19s-80 6 -119 17v50z" />
    <glyph glyph-name="uni0A4D_uni0A30_uni0A41" 
d="M-324 -230c38 -12 77 -18 116 -18s78 6 116 18v-48c-35 -13 -72 -19 -113 -19s-80 6 -119 17v50zM-240 -136c0 40 27 67 63 71v35h81v-47c68 -19 129 -63 184 -132c19 -25 28 -42 28 -51c0 -3 -2 -4 -4 -4c-4 0 -19 11 -48 32c-28 21 -53 39 -74 52c-22 14 -49 22 -80 23
c-15 -35 -39 -52 -73 -52c-40 0 -77 34 -77 73z" />
    <glyph glyph-name="uni0A4D_uni0A35_uni0A41" 
d="M-350 -264c38 -12 77 -18 116 -18s78 6 116 18v-48c-35 -13 -72 -19 -113 -19s-80 6 -119 17v50zM-341 -167c-29 2 -55 27 -55 60c0 45 24 67 73 67h142v14h40v-70h-179c-11 0 -17 -5 -17 -14c0 -11 5 -16 16 -16h194v-38h-135c-18 0 -27 -5 -27 -14s9 -14 27 -14h135
v-48h-140c-41 0 -74 25 -76 61c0 4 1 8 2 12z" />
    <glyph glyph-name="uni0A4D_uni0A39_uni0A41" 
d="M-350 -286c38 -12 77 -18 116 -18s78 6 116 18v-48c-35 -13 -72 -19 -113 -19s-80 6 -119 17v50zM-120 -128c0 -83 -42 -141 -121 -141c-37 0 -71 16 -103 49c-31 33 -47 65 -47 96c0 51 27 77 81 77c31 0 47 -8 47 -23s-9 -24 -28 -27s-28 -10 -28 -21
c0 -15 9 -32 27 -50c19 -17 37 -26 54 -26c26 0 39 22 39 65v99h79v-98z" />
    <glyph glyph-name="uni0A4D_uni0A1A_uni0A41" 
d="M-333 -324c38 -12 77 -18 116 -18s78 6 116 18v-48c-35 -13 -72 -19 -113 -19s-80 6 -119 17v50zM-211 -308c-56 0 -98 19 -127 56c-20 26 -30 53 -30 80h-51c0 23 0 36 -1 39c8 64 46 71 120 71v-47h117v79h76v-188c0 -36 -15 -62 -46 -77c-18 -9 -37 -13 -58 -13z
M-183 -213v41h-113c0 -17 6 -33 17 -48s30 -22 57 -22c26 0 39 10 39 29z" />
    <glyph glyph-name="uni0A4D_uni0A24_uni0A41" 
d="M-307 -311c38 -12 77 -18 116 -18s78 6 116 18v-48c-35 -13 -72 -19 -113 -19s-80 6 -119 17v50zM-177 -133c16 0 24 22 24 41c0 24 -9 45 -27 62h75c18 -19 27 -40 27 -63s-6 -41 -18 -52c-1 -1 -10 -5 -25 -14c6 0 15 -5 26 -17c11 -10 17 -23 17 -36
c0 -71 -44 -87 -122 -87c-35 0 -67 9 -94 29c-28 18 -42 36 -42 53c0 8 8 12 23 12c4 -1 10 -5 18 -13c19 -20 48 -30 85 -30c38 0 57 14 57 43c0 19 -9 29 -27 29c-23 0 -45 -8 -67 -8c-43 0 -64 11 -64 34s21 34 64 34c13 0 27 -3 41 -8c13 -6 23 -9 29 -9z" />
    <glyph glyph-name="uni0A4D_uni0A28_uni0A41" 
d="M-255 -392c38 -12 77 -18 116 -18s78 6 116 18v-48c-35 -13 -72 -19 -113 -19s-80 6 -119 17v50zM-174 -360c-94 0 -156 49 -156 141c0 33 16 64 48 93c33 30 66 45 100 46v50h83v-50c34 -1 67 -16 99 -46c31 -29 47 -60 47 -93c0 -92 -61 -141 -155 -141v65
c53 0 80 22 80 65c0 27 -13 47 -40 62s-51 22 -72 23c-21 -1 -45 -8 -72 -23s-40 -35 -40 -61s11 -45 34 -56c14 -7 29 -10 44 -10v-65z" />
    <glyph glyph-name="uni0A4D_uni0A1F_uni0A41" 
d="M-350 -329c38 -12 77 -18 116 -18s78 6 116 18v-48c-35 -13 -72 -19 -113 -19s-80 6 -119 17v50zM-189 -68h8v38h75v-104h-15c-63 0 -119 -25 -167 -74c31 -30 56 -45 74 -45c17 0 35 6 54 19c18 12 27 18 28 18c13 0 19 -7 19 -21s-13 -30 -39 -49
c-25 -18 -52 -27 -80 -27c-27 0 -58 17 -92 49c-34 34 -51 56 -51 68c0 11 23 36 67 72c44 37 84 56 119 56z" />
    <glyph glyph-name="uni0A4D_uni0A30_uni0A42" 
d="M-324 -230c38 -12 77 -18 116 -18s78 6 116 18v-48c-35 -13 -72 -19 -113 -19s-80 6 -119 17v50zM-324 -306c38 -12 77 -18 116 -18s78 6 116 18v-48c-32 -12 -66 -18 -104 -18h-9c-41 0 -80 5 -119 16v50zM-240 -136c0 40 27 67 63 71v35h81v-47
c68 -19 129 -63 184 -132c19 -25 28 -42 28 -51c0 -3 -2 -4 -4 -4c-4 0 -19 11 -48 32c-28 21 -53 39 -74 52c-22 14 -49 22 -80 23c-15 -35 -39 -52 -73 -52c-40 0 -77 34 -77 73z" />
    <glyph glyph-name="uni0A4D_uni0A35_uni0A42" 
d="M-350 -264c38 -12 77 -18 116 -18s78 6 116 18v-48c-35 -13 -72 -19 -113 -19s-80 6 -119 17v50zM-350 -340c38 -12 77 -18 116 -18s78 6 116 18v-48c-32 -12 -66 -18 -104 -18h-9c-41 0 -80 5 -119 16v50zM-341 -167c-29 2 -55 27 -55 60c0 45 24 67 73 67h142v14h40
v-70h-179c-11 0 -17 -5 -17 -14c0 -11 5 -16 16 -16h194v-38h-135c-18 0 -27 -5 -27 -14s9 -14 27 -14h135v-48h-140c-41 0 -74 25 -76 61c0 4 1 8 2 12z" />
    <glyph glyph-name="uni0A4D_uni0A39_uni0A42" 
d="M-350 -286c38 -12 77 -18 116 -18s78 6 116 18v-48c-35 -13 -72 -19 -113 -19s-80 6 -119 17v50zM-350 -362c38 -12 77 -18 116 -18s78 6 116 18v-48c-32 -12 -66 -18 -104 -18h-9c-41 0 -80 5 -119 16v50zM-120 -128c0 -83 -42 -141 -121 -141c-37 0 -71 16 -103 49
c-31 33 -47 65 -47 96c0 51 27 77 81 77c31 0 47 -8 47 -23s-9 -24 -28 -27s-28 -10 -28 -21c0 -15 9 -32 27 -50c19 -17 37 -26 54 -26c26 0 39 22 39 65v99h79v-98z" />
    <glyph glyph-name="uni0A4D_uni0A1A_uni0A42" 
d="M-333 -324c38 -12 77 -18 116 -18s78 6 116 18v-48c-35 -13 -72 -19 -113 -19s-80 6 -119 17v50zM-333 -400c38 -12 77 -18 116 -18s78 6 116 18v-48c-32 -12 -66 -18 -104 -18h-9c-41 0 -80 5 -119 16v50zM-211 -308c-56 0 -98 19 -127 56c-20 26 -30 53 -30 80h-51
c0 23 0 36 -1 39c8 64 46 71 120 71v-47h117v79h76v-188c0 -36 -15 -62 -46 -77c-18 -9 -37 -13 -58 -13zM-183 -213v41h-113c0 -17 6 -33 17 -48s30 -22 57 -22c26 0 39 10 39 29z" />
    <glyph glyph-name="uni0A4D_uni0A24_uni0A42" 
d="M-307 -311c38 -12 77 -18 116 -18s78 6 116 18v-48c-35 -13 -72 -19 -113 -19s-80 6 -119 17v50zM-307 -387c38 -12 77 -18 116 -18s78 6 116 18v-48c-32 -12 -66 -18 -104 -18h-9c-41 0 -80 5 -119 16v50zM-177 -133c16 0 24 22 24 41c0 24 -9 45 -27 62h75
c18 -19 27 -40 27 -63s-6 -41 -18 -52c-1 -1 -10 -5 -25 -14c6 0 15 -5 26 -17c11 -10 17 -23 17 -36c0 -71 -44 -87 -122 -87c-35 0 -67 9 -94 29c-28 18 -42 36 -42 53c0 8 8 12 23 12c4 -1 10 -5 18 -13c19 -20 48 -30 85 -30c38 0 57 14 57 43c0 19 -9 29 -27 29
c-23 0 -45 -8 -67 -8c-43 0 -64 11 -64 34s21 34 64 34c13 0 27 -3 41 -8c13 -6 23 -9 29 -9z" />
    <glyph glyph-name="uni0A4D_uni0A28_uni0A42" 
d="M-255 -392c38 -12 77 -18 116 -18s78 6 116 18v-48c-35 -13 -72 -19 -113 -19s-80 6 -119 17v50zM-255 -468c38 -12 77 -18 116 -18s78 6 116 18v-48c-32 -12 -66 -18 -104 -18h-9c-41 0 -80 5 -119 16v50zM-174 -360c-94 0 -156 49 -156 141c0 33 16 64 48 93
c33 30 66 45 100 46v50h83v-50c34 -1 67 -16 99 -46c31 -29 47 -60 47 -93c0 -92 -61 -141 -155 -141v65c53 0 80 22 80 65c0 27 -13 47 -40 62s-51 22 -72 23c-21 -1 -45 -8 -72 -23s-40 -35 -40 -61s11 -45 34 -56c14 -7 29 -10 44 -10v-65z" />
    <glyph glyph-name="uni0A4D_uni0A1F_uni0A42" 
d="M-350 -329c38 -12 77 -18 116 -18s78 6 116 18v-48c-35 -13 -72 -19 -113 -19s-80 6 -119 17v50zM-350 -405c38 -12 77 -18 116 -18s78 6 116 18v-48c-32 -12 -66 -18 -104 -18h-9c-41 0 -80 5 -119 16v50zM-189 -68h8v38h75v-104h-15c-63 0 -119 -25 -167 -74
c31 -30 56 -45 74 -45c17 0 35 6 54 19c18 12 27 18 28 18c13 0 19 -7 19 -21s-13 -30 -39 -49c-25 -18 -52 -27 -80 -27c-27 0 -58 17 -92 49c-34 34 -51 56 -51 68c0 11 23 36 67 72c44 37 84 56 119 56z" />
    <glyph glyph-name="uni0A75_uni0A41" 
d="M-170 -313c38 -12 77 -18 116 -18s78 6 116 18v-48c-35 -13 -72 -19 -113 -19s-80 6 -119 17v50zM-121 -175c18 9 32 51 32 84v5c0 24 -4 43 -12 56h-75c7 -17 10 -33 10 -48c0 -40 -18 -68 -55 -85c55 -86 123 -129 204 -129c35 0 65 10 90 29v96h44v59h-120v-106
c-3 -8 -14 -12 -31 -12c-27 0 -56 17 -87 51z" />
    <glyph glyph-name="uni0A75_uni0A42" 
d="M-170 -313c38 -12 77 -18 116 -18s78 6 116 18v-48c-35 -13 -72 -19 -113 -19s-80 6 -119 17v50zM-170 -389c38 -12 77 -18 116 -18s78 6 116 18v-48c-32 -12 -66 -18 -104 -18h-9c-41 0 -80 5 -119 16v50zM-121 -175c18 9 32 51 32 84v5c0 24 -4 43 -12 56h-75
c7 -17 10 -33 10 -48c0 -40 -18 -68 -55 -85c55 -86 123 -129 204 -129c35 0 65 10 90 29v96h44v59h-120v-106c-3 -8 -14 -12 -31 -12c-27 0 -56 17 -87 51z" />
    <glyph glyph-name="uni0A51_uni0A41" 
d="M-231 -264c38 -12 77 -18 116 -18s78 6 116 18v-48c-35 -13 -72 -19 -113 -19s-80 6 -119 17v50zM0 -162c0 -47 -37 -54 -92 -54c-104 0 -198 64 -281 191h30c61 -62 122 -93 181 -93l67 8c63 0 95 -17 95 -52z" />
    <glyph glyph-name="uni0A51_uni0A42" 
d="M-231 -264c38 -12 77 -18 116 -18s78 6 116 18v-48c-35 -13 -72 -19 -113 -19s-80 6 -119 17v50zM-231 -340c38 -12 77 -18 116 -18s78 6 116 18v-48c-32 -12 -66 -18 -104 -18h-9c-41 0 -80 5 -119 16v50zM0 -162c0 -47 -37 -54 -92 -54c-104 0 -198 64 -281 191h30
c61 -62 122 -93 181 -93l67 8c63 0 95 -17 95 -52z" />
    <glyph glyph-name="uni0A4D_uni0A41" 
d="M-283 -176c38 -12 77 -18 116 -18s78 6 116 18v-48c-35 -13 -72 -19 -113 -19s-80 6 -119 17v50zM-248 -79c0 47 37 54 92 54c104 0 198 -64 281 -191h-30c-61 62 -122 93 -181 93l-67 -8c-63 0 -95 17 -95 52z" />
    <glyph glyph-name="uni0A4D_uni0A42" 
d="M-283 -176c38 -12 77 -18 116 -18s78 6 116 18v-48c-35 -13 -72 -19 -113 -19s-80 6 -119 17v50zM-283 -252c38 -12 77 -18 116 -18s78 6 116 18v-48c-32 -12 -66 -18 -104 -18h-9c-41 0 -80 5 -119 16v50zM-248 -79c0 47 37 54 92 54c104 0 198 -64 281 -191h-30
c-61 62 -122 93 -181 93l-67 -8c-63 0 -95 17 -95 52z" />
    <glyph glyph-name="uni0A32_uni0A3C" horiz-adv-x="670" 
d="M292 361c34 0 58 47 72 142l-35 1h-27c-21 0 -47 0 -78 -1c3 -35 11 -67 26 -97s29 -45 42 -45zM215 1c-131 0 -213 83 -213 214c0 42 16 80 48 113c33 33 65 51 97 52c-27 34 -42 75 -46 123h-105v96h720v-96h-229c-11 -58 -27 -99 -46 -123c32 -1 64 -19 97 -52
c32 -33 48 -71 48 -113c0 -72 -23 -127 -70 -166c-39 -32 -86 -48 -141 -48v93c15 0 32 5 50 16c30 17 45 45 45 83c0 62 -23 93 -70 93c-22 0 -40 -9 -53 -27c-2 -3 -10 -20 -24 -50c-8 -18 -18 -27 -29 -27c-12 0 -22 9 -30 27c-14 31 -22 47 -23 50c-13 18 -30 27 -53 27
c-47 0 -70 -31 -70 -93c0 -38 16 -66 47 -83c18 -11 35 -16 50 -16v-93zM226 -124c0 39 30 69 68 71h3c36 0 69 -31 69 -67c0 -40 -30 -69 -68 -71h-3c-36 0 -69 31 -69 67z" />
    <glyph glyph-name="uni0A38_uni0A3C" horiz-adv-x="571" 
d="M379 503h-243c5 -7 14 -25 27 -55c8 -21 15 -56 22 -105h194v160zM202 84c0 37 29 70 68 70c37 0 70 -29 70 -68c0 -37 -31 -70 -68 -70c-38 0 -70 28 -70 68zM601 599v-96h-110v-503h-112v242h-193v-18c0 -47 -7 -91 -22 -132s-38 -61 -69 -61h-2c-49 0 -74 23 -74 68
c0 2 11 28 31 77c22 49 32 98 32 145c0 68 -20 129 -59 182h-26v96h604z" />
    <glyph glyph-name="uni0A16_uni0A3C" horiz-adv-x="642" 
d="M201 246c21 -43 57 -64 106 -64c59 0 102 14 129 41v124h-192c-7 -35 -22 -68 -43 -101zM0 68c0 37 29 70 68 70c37 0 70 -29 70 -68c0 -37 -31 -70 -68 -70s-70 31 -70 68zM251 446h184v153h237v-96h-130v-503h-107v108c-32 -19 -74 -28 -126 -28
c-92 0 -168 56 -227 169c44 51 66 112 66 184c0 32 -8 55 -23 70h-125v96h206c30 -65 45 -114 45 -147v-6z" />
    <glyph glyph-name="uni0A17_uni0A3C" horiz-adv-x="876" 
d="M385 97c27 0 49 16 49 41v173h-141c-33 0 -50 -20 -50 -61c0 -29 16 -62 47 -98c32 -37 64 -55 95 -55zM-4 91c0 38 31 69 68 71h3c36 0 68 -30 68 -68c0 -37 -31 -70 -69 -70c-36 0 -70 31 -70 67zM775 503v-503h-106v503h-128v-381c0 -81 -51 -121 -154 -121
c-69 0 -128 30 -178 91s-75 130 -75 207c0 33 10 60 32 83c20 22 41 33 60 33h209v88h-439v96h910v-96h-131z" />
    <glyph glyph-name="uni0A1C_uni0A3C" horiz-adv-x="620" 
d="M232 94c0 37 29 70 68 70c37 0 70 -29 70 -68c0 -37 -31 -70 -68 -70c-38 0 -70 28 -70 68zM-4 503v96h654v-96h-130v-503h-107v222h-221v-222h-107v222h-85c-5 13 -8 28 -8 45c0 31 10 60 30 85c35 45 92 68 170 68v-96h221v179h-417z" />
    <glyph glyph-name="uni0A2B_uni0A3C" horiz-adv-x="648" 
d="M396 92c24 0 53 22 53 44c0 29 -18 43 -55 43c-24 0 -83 -30 -95 -41c3 -6 16 -15 40 -28c24 -12 43 -18 57 -18zM2 92c0 39 32 68 68 70h2c37 0 68 -31 68 -68s-31 -70 -68 -70s-70 31 -70 68zM548 134c0 -80 -67 -134 -149 -134c-75 0 -139 30 -195 92
c-54 60 -82 130 -82 209c0 44 13 81 38 112s60 46 103 46h178v44h-445v96h681v-96h-130v-153h-238c-57 0 -86 -24 -86 -73c0 -20 13 -60 24 -69c64 43 117 64 159 64c81 0 142 -60 142 -138z" />
    <glyph glyph-name="_uni0A71" horiz-adv-x="176" 
d="M-81 828c7 0 12 -5 15 -15l9 -25c16 -25 31 -43 44 -53s30 -15 51 -15c48 0 81 34 100 102c3 8 8 12 17 12c13 0 20 -14 20 -42c0 -27 -11 -55 -32 -84c-28 -37 -63 -55 -104 -55s-76 15 -103 45c-28 31 -42 60 -42 88s8 42 25 42zM-2 599h219v-96h-219v96z" />
    <glyph glyph-name="uni0A09_uni0A71" horiz-adv-x="846" 
d="M589 828c7 0 12 -5 15 -15l9 -25c16 -25 31 -43 44 -53s30 -15 51 -15c48 0 81 34 100 102c3 8 8 12 17 12c13 0 20 -14 20 -42c0 -27 -11 -55 -32 -84c-28 -37 -63 -55 -104 -55s-76 15 -103 45c-28 31 -42 60 -42 88s8 42 25 42zM21 599c22 156 119 277 288 277
c158 0 250 -92 275 -277h84h32h187v-96h-187h-32h-78c-2 -117 -42 -195 -121 -234c35 -43 53 -82 53 -118c0 -98 -78 -153 -179 -153c-93 0 -170 43 -231 128c-65 93 -98 218 -98 377h-20v96h27zM123 503c0 -5 0 -12 -1 -19c0 -8 0 -17 1 -27l1 -34c0 -23 4 -52 13 -89h215
c90 0 135 56 135 169h-364zM413 157c0 46 -67 79 -115 79h-130c4 -23 20 -50 49 -81c38 -41 80 -61 127 -61c46 0 69 21 69 63zM133 599h349c-13 121 -72 181 -175 181c-94 0 -152 -60 -174 -181zM143 -27c63 -20 128 -30 193 -30s130 10 194 30v-80
c-58 -21 -121 -31 -189 -31s-134 9 -198 27v84z" />
    <glyph glyph-name="uni0A0A_uni0A71" horiz-adv-x="846" 
d="M589 828c7 0 12 -5 15 -15l9 -25c16 -25 31 -43 44 -53s30 -15 51 -15c48 0 81 34 100 102c3 8 8 12 17 12c13 0 20 -14 20 -42c0 -27 -11 -55 -32 -84c-28 -37 -63 -55 -104 -55s-76 15 -103 45c-28 31 -42 60 -42 88s8 42 25 42zM143 -27c63 -20 128 -30 193 -30
s130 10 194 30v-80c-58 -21 -121 -31 -189 -31s-134 9 -198 27v84zM143 -153c63 -20 128 -30 193 -30s130 10 194 30v-80c-58 -21 -121 -31 -189 -31s-134 9 -198 27v84zM21 599c22 156 119 277 288 277c158 0 250 -92 275 -277h84h32h187v-96h-187h-32h-78
c-2 -117 -42 -195 -121 -234c35 -43 53 -82 53 -118c0 -98 -78 -153 -179 -153c-93 0 -170 43 -231 128c-65 93 -98 218 -98 377h-20v96h27zM123 503c0 -5 0 -12 -1 -19c0 -8 0 -17 1 -27l1 -34c0 -23 4 -52 13 -89h215c90 0 135 56 135 169h-364zM413 157
c0 46 -67 79 -115 79h-130c4 -23 20 -50 49 -81c38 -41 80 -61 127 -61c46 0 69 21 69 63zM133 599h349c-13 121 -72 181 -175 181c-94 0 -152 -60 -174 -181z" />
    <glyph glyph-name="_uni0A75" 
d="M-101 -30v-294h-76v157h-71v-96c-25 -19 -55 -29 -90 -29c-81 0 -149 43 -204 129c37 17 55 45 55 85c0 15 -3 31 -10 48h75c8 -13 12 -31 12 -54s-4 -43 -12 -60s-15 -28 -20 -31c31 -34 60 -51 87 -51c17 0 28 4 31 12v106h147v78h76z" />
    <glyph glyph-name="uni0A32_uni0A42" horiz-adv-x="670" 
d="M101 -27c63 -20 127 -30 193 -30c64 0 129 10 194 30v-80c-58 -21 -121 -31 -189 -31s-134 9 -198 27v84zM101 -153c63 -20 127 -30 193 -30c64 0 129 10 194 30v-80c-58 -21 -121 -31 -189 -31s-134 9 -198 27v84zM215 1c-131 0 -213 83 -213 214c0 42 16 80 48 113
c33 33 65 51 97 52c-27 34 -42 75 -46 123h-105v96h720v-96h-229c-11 -58 -27 -99 -46 -123c32 -1 64 -19 97 -52c32 -33 48 -71 48 -113c0 -72 -23 -127 -70 -166c-39 -32 -86 -48 -141 -48v93c15 0 32 5 50 16c30 17 45 45 45 83c0 62 -23 93 -70 93c-22 0 -40 -9 -53 -27
c-2 -3 -10 -20 -24 -50c-8 -18 -18 -27 -29 -27c-12 0 -22 9 -30 27c-14 31 -22 47 -23 50c-13 18 -30 27 -53 27c-47 0 -70 -31 -70 -93c0 -38 16 -66 47 -83c18 -11 35 -16 50 -16v-93zM292 361c34 0 58 47 72 142l-35 1h-27c-21 0 -47 0 -78 -1c3 -35 11 -67 26 -97
s29 -45 42 -45z" />
    <glyph glyph-name="uni0A32_uni0A70" horiz-adv-x="670" 
d="M215 1c-131 0 -213 83 -213 214c0 42 16 80 48 113c33 33 65 51 97 52c-27 34 -42 75 -46 123h-105v96h720v-96h-229c-11 -58 -27 -99 -46 -123c32 -1 64 -19 97 -52c32 -33 48 -71 48 -113c0 -72 -23 -127 -70 -166c-39 -32 -86 -48 -141 -48v93c15 0 32 5 50 16
c30 17 45 45 45 83c0 62 -23 93 -70 93c-22 0 -40 -9 -53 -27c-2 -3 -10 -20 -24 -50c-8 -18 -18 -27 -29 -27c-12 0 -22 9 -30 27c-14 31 -22 47 -23 50c-13 18 -30 27 -53 27c-47 0 -70 -31 -70 -93c0 -38 16 -66 47 -83c18 -11 35 -16 50 -16v-93zM292 361
c34 0 58 47 72 142l-35 1h-27c-21 0 -47 0 -78 -1c3 -35 11 -67 26 -97s29 -45 42 -45zM301 776c-29 0 -58 -23 -58 -49c0 -10 2 -21 7 -33c5 -13 7 -21 7 -26c0 -10 -7 -15 -21 -15c-5 0 -14 9 -28 27c-13 18 -20 41 -20 68c0 28 10 54 30 78c19 23 46 35 82 35
c69 0 112 -52 112 -122c0 -17 -6 -35 -20 -55c-12 -21 -28 -31 -45 -31c-7 0 -10 2 -10 6s3 13 9 28c7 15 10 27 10 38c0 27 -25 51 -55 51z" />
    <glyph glyph-name="uni0A32_uni0A41" horiz-adv-x="670" 
d="M101 -47c63 -20 127 -30 193 -30c64 0 129 10 194 30v-80c-58 -21 -121 -31 -189 -31s-134 9 -198 27v84zM215 1c-131 0 -213 83 -213 214c0 42 16 80 48 113c33 33 65 51 97 52c-27 34 -42 75 -46 123h-105v96h720v-96h-229c-11 -58 -27 -99 -46 -123
c32 -1 64 -19 97 -52c32 -33 48 -71 48 -113c0 -72 -23 -127 -70 -166c-39 -32 -86 -48 -141 -48v93c15 0 32 5 50 16c30 17 45 45 45 83c0 62 -23 93 -70 93c-22 0 -40 -9 -53 -27c-2 -3 -10 -20 -24 -50c-8 -18 -18 -27 -29 -27c-12 0 -22 9 -30 27c-14 31 -22 47 -23 50
c-13 18 -30 27 -53 27c-47 0 -70 -31 -70 -93c0 -38 16 -66 47 -83c18 -11 35 -16 50 -16v-93zM292 361c34 0 58 47 72 142l-35 1h-27c-21 0 -47 0 -78 -1c3 -35 11 -67 26 -97s29 -45 42 -45z" />
    <glyph glyph-name="uni0A1A_uni0A41" horiz-adv-x="614" 
d="M354 -1c-108 0 -194 84 -236 163c-23 43 -34 75 -34 97h-85v64c0 33 12 61 35 83c31 29 81 44 150 44v-88h223v141h-408v96h645v-96h-130v-360c0 -96 -53 -144 -160 -144zM152 -20c63 -20 127 -30 192 -30s130 10 195 30v-80c-58 -21 -121 -31 -189 -31s-134 9 -198 27
v84zM407 154v105h-213c0 -29 16 -62 48 -101c31 -38 69 -57 114 -57h2c33 0 49 18 49 53z" />
    <glyph glyph-name="_uni0A70" 
d="M-352 776c-29 0 -58 -24 -58 -49c0 -10 2 -21 7 -33c5 -13 7 -21 7 -26c0 -10 -7 -15 -21 -15c-5 0 -13 8 -26 24c-15 20 -22 44 -22 71c0 28 10 54 29 78c20 23 48 35 82 35c70 0 113 -51 113 -122c0 -17 -7 -35 -19 -55c-14 -21 -29 -31 -46 -31c-7 0 -10 2 -10 6
s3 13 10 28c6 15 9 27 9 38c0 27 -25 51 -55 51z" />
    <glyph glyph-name="uni0A28_uni0A70" horiz-adv-x="618" 
d="M273 776c-29 0 -58 -24 -58 -49c0 -10 2 -21 7 -33c5 -13 7 -21 7 -26c0 -10 -7 -15 -21 -15c-5 0 -13 8 -26 24c-15 20 -22 44 -22 71c0 28 10 54 29 78c20 23 48 35 82 35c70 0 113 -51 113 -122c0 -17 -7 -35 -19 -55c-14 -21 -29 -31 -46 -31c-7 0 -10 2 -10 6
s3 13 10 28c6 15 9 27 9 38c0 27 -25 51 -55 51zM-4 503v96h666v-96h-346v-117c47 -1 92 -22 136 -63c45 -41 67 -84 67 -128c0 -67 -25 -119 -76 -156c-35 -26 -69 -39 -101 -39v93c47 7 71 35 71 86c0 37 -20 67 -60 90c-31 18 -62 27 -93 27s-62 -9 -94 -27
c-41 -23 -61 -53 -61 -90c0 -51 24 -80 73 -88v-91c-34 0 -69 13 -104 39c-50 36 -75 88 -75 156c0 44 22 87 67 128c44 41 89 62 136 63v117h-206z" />
    <glyph glyph-name="uni0A15_uni0A4D_uni0A30_uni0A41" horiz-adv-x="647" 
d="M24 -184c38 -12 77 -18 116 -18s78 6 116 18v-48c-35 -13 -72 -19 -113 -19s-80 6 -119 17v50zM53 -84c0 46 47 83 93 83c6 0 12 -1 17 -2v77c-108 27 -162 90 -162 188c0 43 18 84 53 120c36 38 85 56 148 56s124 -31 184 -93c10 20 30 102 30 131c0 12 0 22 -1 27h-419
v96h688v-96h-154v-20c0 -93 -22 -176 -65 -251c47 -89 71 -166 70 -233l-114 1c-9 72 -20 118 -33 139c-45 -37 -84 -59 -118 -67v-114c51 -29 108 -79 171 -150l-45 -25c-75 59 -131 88 -167 88h-4c-19 -25 -44 -37 -75 -37c-52 0 -97 31 -97 82zM112 258
c0 -55 49 -92 109 -92c65 0 85 34 113 87c-37 58 -81 87 -130 87c-46 0 -92 -35 -92 -82z" />
    <glyph glyph-name="uni0A15_uni0A4D_uni0A30_uni0A42" horiz-adv-x="647" 
d="M24 -184c38 -12 77 -18 116 -18s78 6 116 18v-48c-35 -13 -72 -19 -113 -19s-80 6 -119 17v50zM24 -260c38 -12 77 -18 116 -18s78 6 116 18v-48c-32 -12 -66 -18 -104 -18h-9c-41 0 -80 5 -119 16v50zM53 -84c0 46 47 83 93 83c6 0 12 -1 17 -2v77
c-108 27 -162 90 -162 188c0 43 18 84 53 120c36 38 85 56 148 56s124 -31 184 -93c10 20 30 102 30 131c0 12 0 22 -1 27h-419v96h688v-96h-154v-20c0 -93 -22 -176 -65 -251c47 -89 71 -166 70 -233l-114 1c-9 72 -20 118 -33 139c-45 -37 -84 -59 -118 -67v-114
c51 -29 108 -79 171 -150l-45 -25c-75 59 -131 88 -167 88h-4c-19 -25 -44 -37 -75 -37c-52 0 -97 31 -97 82zM112 258c0 -55 49 -92 109 -92c65 0 85 34 113 87c-37 58 -81 87 -130 87c-46 0 -92 -35 -92 -82z" />
    <glyph glyph-name="numbersign" unicode="#" horiz-adv-x="684" 
d="M234 234h162l30 177h-162zM300 613l-24 -120h163l23 120h83l-23 -120h106v-82h-120l-30 -177h106v-82h-118l-26 -143h-80l25 143h-171l-28 -143h-79l25 143h-104v82h124l30 177h-130v82h143l24 120h81z" />
    <glyph glyph-name="percent" unicode="%" horiz-adv-x="524" 
d="M185 349c0 49 -22 91 -69 91c-17 0 -26 -13 -26 -40c0 -60 21 -90 63 -90c21 0 32 13 32 39zM455 109c0 49 -22 91 -69 91c-17 0 -26 -13 -26 -40c0 -60 21 -90 63 -90c21 0 32 13 32 39zM46 367c0 75 31 143 101 143c55 0 82 -41 82 -122c0 -51 -12 -91 -37 -118
c-19 -20 -39 -30 -61 -30s-40 8 -54 23c-21 22 -31 57 -31 104zM316 127c0 75 31 143 101 143c55 0 82 -41 82 -122c0 -51 -12 -91 -37 -118c-19 -20 -39 -30 -61 -30s-40 8 -54 23c-21 22 -31 57 -31 104zM483 510l-357 -510h-60l357 510h60z" />
    <glyph glyph-name="at" unicode="@" horiz-adv-x="700" 
d="M172 282c0 100 66 193 163 193c43 0 75 -17 98 -50l8 43h76l-40 -208c-3 -17 -5 -29 -5 -34c0 -14 5 -20 15 -19c15 2 32 17 49 46s27 60 29 93v15c0 120 -90 195 -214 195c-135 0 -228 -107 -228 -243c0 -141 101 -242 242 -242c61 0 108 11 143 32l65 -53
c-69 -36 -141 -54 -215 -54c-87 0 -160 30 -220 90s-90 136 -90 227c0 90 29 166 88 227s132 91 217 91c73 0 136 -23 188 -70c60 -54 90 -116 90 -187c0 -69 -17 -125 -50 -170c-36 -47 -75 -71 -119 -71h-4c-25 1 -42 16 -49 47c-27 -31 -62 -47 -103 -47
c-35 0 -67 15 -94 44s-40 64 -40 105zM268 295c0 -40 21 -74 61 -74c43 0 68 29 75 88c0 4 1 8 1 12c0 37 -22 66 -59 66c-44 0 -78 -48 -78 -92z" />
    <glyph glyph-name="asterisk" unicode="*" horiz-adv-x="385" 
d="M155 368l21 148l-98 -109l-71 97l142 54l-146 38l61 106l110 -102l-29 149h105l-24 -153l106 107l55 -91l-142 -54l141 -53l-56 -91l-108 104l31 -150h-98z" />
    <glyph glyph-name="plus" unicode="+" horiz-adv-x="498" 
d="M438 231h-162v-168h-60v168h-162v60h162v168h60v-168h162v-60z" />
    <glyph glyph-name="hyphen" unicode="-" horiz-adv-x="356" 
d="M316 333v-80h-267v80h267z" />
    <glyph glyph-name="slash" unicode="/" horiz-adv-x="550" 
d="M420 642h88l-379 -740h-88z" />
    <glyph glyph-name="zero" unicode="0" horiz-adv-x="600" 
d="M194 294c0 -164 34 -246 102 -246c75 0 112 81 112 244c0 175 -37 262 -110 262c-69 0 -104 -87 -104 -260zM520 302c0 -80 -19 -149 -58 -207c-43 -65 -99 -97 -169 -97c-66 0 -119 31 -159 93c-36 55 -55 122 -56 199v8c0 78 18 147 54 204c42 67 98 100 168 100
c68 0 123 -32 164 -96c37 -57 56 -125 56 -204z" />
    <glyph glyph-name="one" unicode="1" horiz-adv-x="502" 
d="M95 455v76c30 4 64 17 102 38c35 20 54 30 57 30h48v-489c0 -35 33 -55 100 -61v-49h-307v49c67 7 100 27 100 61v367c-14 -11 -62 -22 -92 -22h-8z" />
    <glyph glyph-name="two" unicode="2" horiz-adv-x="600" 
d="M480 435c0 -118 -147 -276 -231 -345h200l41 75l51 -45l-57 -121h-407l-12 24c79 57 149 125 211 203s94 140 94 185c0 70 -32 105 -96 105c-36 0 -65 -11 -86 -33c-9 -9 -21 -29 -38 -60c-12 -22 -24 -33 -37 -33c-25 0 -38 12 -38 36c0 35 21 73 63 113
c47 45 98 67 154 67c98 0 188 -74 188 -171z" />
    <glyph glyph-name="three" unicode="3" horiz-adv-x="600" 
d="M461 481c0 -56 -35 -104 -77 -123c72 -35 108 -86 108 -152c0 -62 -24 -114 -72 -156s-105 -62 -170 -62c-45 0 -101 27 -168 80l72 64c10 -14 29 -29 57 -45c33 -19 64 -29 91 -29c53 0 102 40 102 94c0 47 -18 81 -53 100c-17 9 -51 18 -100 25c-35 5 -53 15 -53 29
c0 13 14 25 41 35c42 15 68 26 77 31c27 17 41 42 41 73c0 55 -25 83 -76 83c-27 0 -48 -7 -63 -20c-3 -3 -13 -16 -29 -39c-10 -13 -22 -20 -35 -20c-18 0 -27 9 -27 28c0 27 15 54 46 81c36 32 79 48 130 48c85 0 158 -44 158 -125z" />
    <glyph glyph-name="four" unicode="4" horiz-adv-x="600" 
d="M335 229v247l-187 -247h187zM442 0h-107v140h-262v96l283 363h86v-370h79v-89h-79v-140z" />
    <glyph glyph-name="five" unicode="5" horiz-adv-x="600" 
d="M294 63c66 0 112 66 112 132c0 101 -95 152 -285 152l113 252h266l-43 -96h-198l-29 -56h58c42 0 85 -23 130 -68c49 -51 74 -107 74 -169c0 -55 -26 -105 -80 -151s-109 -69 -165 -69c-61 0 -114 23 -160 70l51 75c39 -48 91 -72 156 -72z" />
    <glyph glyph-name="six" unicode="6" horiz-adv-x="600" 
d="M198 191c0 -72 34 -138 102 -138c65 0 97 44 97 131c0 88 -34 132 -102 132c-65 0 -97 -42 -97 -125zM506 190c0 -126 -80 -205 -207 -205c-63 0 -115 25 -158 75s-64 110 -64 180c0 156 118 275 230 339c54 31 97 46 129 46l33 -50c-108 -39 -194 -109 -258 -210
c22 19 58 28 108 28c53 0 97 -20 134 -60c35 -40 53 -87 53 -143z" />
    <glyph glyph-name="seven" unicode="7" horiz-adv-x="600" 
d="M424 503h-209c-41 0 -52 -27 -70 -61c-7 -14 -14 -21 -20 -21c-15 0 -22 11 -22 33c0 29 11 60 32 92c24 35 51 53 82 53h307l-190 -597h-123z" />
    <glyph glyph-name="eight" unicode="8" horiz-adv-x="600" 
d="M298 56c46 0 92 37 92 82c0 24 -16 49 -47 76l-69 54c-28 -19 -47 -36 -58 -52c-12 -18 -18 -39 -18 -64c0 -53 46 -96 100 -96zM308 562c-44 0 -97 -34 -97 -77c0 -37 34 -74 102 -111c57 33 85 67 85 101c0 52 -38 87 -90 87zM101 471c0 92 102 141 201 141
c92 0 183 -54 183 -141c0 -33 -9 -60 -26 -82c-15 -18 -40 -38 -77 -61c69 -49 103 -106 103 -172c0 -97 -88 -165 -186 -165c-102 0 -205 60 -205 156c0 58 41 112 122 163c-41 36 -65 58 -72 66c-29 32 -43 64 -43 95z" />
    <glyph glyph-name="nine" unicode="9" horiz-adv-x="473" 
d="M25 387c0 133 73 216 206 216c142 0 213 -103 213 -310c0 -108 -23 -189 -69 -242c-39 -45 -89 -67 -151 -67c-104 0 -177 61 -187 155h119c6 -40 29 -60 69 -60c28 0 51 12 68 37c21 29 31 72 32 131l-2 2c-23 -34 -61 -51 -115 -51c-107 0 -183 81 -183 189zM230 506
c-57 0 -86 -43 -86 -102c0 -74 30 -111 90 -111c55 0 87 45 87 101c0 75 -30 112 -91 112z" />
    <glyph glyph-name="equal" unicode="=" horiz-adv-x="426" 
d="M382 227v-50h-318v50h318zM382 345v-50h-318v50h318z" />
    <glyph glyph-name="greater" unicode="&#x3e;" horiz-adv-x="314" 
d="M314 267v-78l-248 -189v104l159 123l-159 124v104z" />
    <glyph glyph-name="bracketleft" unicode="[" horiz-adv-x="500" 
d="M73 626h239l32 -50h-179v-622h147l32 -50h-271v722z" />
    <glyph glyph-name="backslash" unicode="\" horiz-adv-x="550" 
d="M507 -98h-88l-379 740h88z" />
    <glyph glyph-name="bracketright" unicode="]" horiz-adv-x="500" 
d="M427 -96h-271l32 50h147v622h-179l32 50h239v-722z" />
    <glyph glyph-name="dollar" unicode="$" horiz-adv-x="508" 
d="M313 192v-127c31 20 46 39 46 58c0 22 -15 45 -46 69zM231 44h10c12 0 21 1 28 3v175l-38 23v-201zM187 524c-16 -5 -40 -27 -40 -46c0 -20 13 -41 40 -64v110zM231 535v-150l38 -21v171c-4 1 -9 1 -15 1s-14 0 -23 -1zM313 595c21 0 105 -36 120 -45v-110h-25
c-11 0 -24 11 -39 33c-18 26 -37 43 -56 51v-187c96 -54 144 -119 144 -195c0 -69 -48 -122 -144 -158v-44h-44v35c-3 -1 -10 -1 -20 -1h-18v-34h-44v36h-6c-42 0 -110 27 -132 44v112h38l8 -18c18 -34 49 -56 92 -65v224c-87 50 -130 108 -130 173c0 86 43 137 130 154v86
h44v-80l38 -1v79h44v-89z" />
    <glyph glyph-name="copyright" unicode="&#xa9;" horiz-adv-x="736" 
d="M207 320c0 107 67 183 174 183c80 0 137 -50 150 -120h-72c-7 39 -33 58 -79 58c-62 0 -98 -57 -98 -120c0 -62 42 -122 101 -122c39 0 73 25 76 62h72c-9 -71 -69 -124 -148 -124c-104 0 -176 79 -176 183zM128 317c0 -139 103 -242 241 -242c69 0 127 23 173 69
s69 103 69 173c0 71 -23 129 -69 175s-104 68 -173 68s-127 -22 -173 -68s-68 -104 -68 -175zM52 317c0 88 30 163 92 225s137 93 225 93s163 -31 225 -93s92 -137 92 -225s-30 -163 -92 -225s-137 -92 -225 -92c-89 0 -164 30 -225 92s-92 137 -92 225z" />
    <glyph glyph-name="registered" unicode="&#xae;" horiz-adv-x="734" 
d="M402 340c40 0 58 11 58 49c0 23 -25 34 -75 34h-71v-83h88zM400 480c87 0 128 -19 128 -100c0 -56 -30 -86 -89 -90l80 -139h-80l-74 139h-51v-139h-74v329h160zM125 312c0 -139 103 -242 242 -242c69 0 126 22 172 68s69 104 69 174c0 71 -23 128 -69 174
s-103 69 -172 69c-140 0 -242 -103 -242 -243zM50 312c0 88 30 163 92 225s137 93 225 93s163 -31 225 -93s92 -137 92 -225s-30 -162 -92 -224s-137 -93 -225 -93c-89 0 -164 31 -225 93s-92 136 -92 224z" />
    <glyph glyph-name="quoteleft" unicode="&#x2018;" horiz-adv-x="300" 
d="M118 598c33 0 64 -35 64 -68c0 -42 -36 -78 -78 -78c-56 0 -105 52 -105 108c0 31 13 65 40 102c20 29 45 56 76 81c27 22 44 33 52 33c16 0 24 -10 24 -30c0 -3 -20 -23 -59 -60s-59 -67 -58 -90c15 1 30 2 44 2z" />
    <glyph glyph-name="quoteright" unicode="&#x2019;" horiz-adv-x="300" 
d="M181 620c-33 0 -64 35 -64 68c0 42 36 78 78 78c56 0 105 -52 105 -108c0 -30 -13 -63 -40 -100c-20 -29 -45 -57 -76 -82c-27 -23 -45 -34 -52 -34c-16 0 -24 10 -24 30c0 3 20 23 60 60s58 67 57 90c-15 -1 -30 -2 -44 -2z" />
    <glyph glyph-name="quotedblleft" unicode="&#x201c;" horiz-adv-x="550" 
d="M344 598c33 0 64 -35 64 -68c0 -42 -36 -78 -78 -78c-56 0 -105 52 -105 108c0 30 13 63 40 100c20 29 45 57 76 82c27 23 45 34 52 34c16 0 24 -10 24 -30c0 -3 -19 -23 -59 -60s-59 -67 -58 -90c15 1 30 2 44 2zM119 598c33 0 64 -35 64 -68c0 -42 -36 -78 -78 -78
c-56 0 -105 52 -105 108c0 30 13 63 40 100c20 29 45 57 76 82c27 23 45 34 52 34c16 0 24 -10 24 -30c0 -3 -20 -23 -60 -60s-58 -67 -57 -90c15 1 30 2 44 2z" />
    <glyph glyph-name="quotedblright" unicode="&#x201d;" horiz-adv-x="550" 
d="M203 620c-33 0 -64 35 -64 68c0 42 36 78 78 78c56 0 105 -52 105 -108c0 -30 -13 -63 -40 -100c-20 -29 -45 -57 -76 -82c-27 -23 -45 -34 -52 -34c-16 0 -24 10 -24 30c0 3 20 23 60 60s58 67 57 90c-15 -1 -30 -2 -44 -2zM428 620c-33 0 -64 35 -64 68
c0 42 36 78 78 78c56 0 105 -52 105 -108c0 -30 -13 -63 -40 -100c-20 -29 -45 -57 -76 -82c-27 -23 -45 -34 -52 -34c-16 0 -24 10 -24 30c0 3 19 23 59 60s59 67 58 90c-15 -1 -30 -2 -44 -2z" />
    <glyph glyph-name="trademark" unicode="&#x2122;" horiz-adv-x="658" 
d="M382 643v-147h-58v304h51l91 -224l90 224h51v-304h-58v147l-63 -147h-41zM136 495v247h-86v58h230v-58h-86v-247h-58z" />
    <glyph glyph-name="sterling" unicode="&#xa3;" horiz-adv-x="550" 
d="M108 76c0 -15 19 -27 34 -27c27 0 45 14 54 42c-10 11 -27 17 -50 17c-25 0 -38 -11 -38 -32zM131 474c0 99 81 180 180 180h5c95 -1 175 -79 175 -175l-95 -35c0 100 -30 150 -90 150c-44 0 -67 -47 -67 -95c0 -21 5 -48 14 -80c13 -43 19 -67 20 -72h129v-48h-123v-18
c0 -56 -6 -112 -17 -167c38 -23 75 -35 111 -35c39 0 66 19 80 58c9 25 21 38 35 38s21 -14 21 -42c0 -23 -10 -49 -31 -78c-28 -37 -64 -56 -108 -56c-47 0 -91 19 -132 57c-22 -38 -56 -57 -102 -57c-45 0 -86 35 -86 80c0 49 44 90 94 90c15 0 35 -6 59 -17
c0 38 -8 85 -25 142h-91v50h76c-13 38 -32 83 -32 130z" />
    <glyph glyph-name="divide" unicode="&#xf7;" horiz-adv-x="686" 
d="M343 551c40 0 72 -32 72 -72s-32 -72 -72 -72s-72 32 -72 72s32 72 72 72zM343 167c40 0 72 -32 72 -72s-32 -72 -72 -72s-72 32 -72 72s32 72 72 72zM599 334v-112h-512v112h512z" />
    <glyph glyph-name="uni2721" unicode="&#x2721;" horiz-adv-x="692" 
d="M458 215h125l-62 115zM185 360l77 -145h159l82 149l-77 145h-159zM230 509h-125l62 -115zM166 325l-61 -110h120zM639 180h-200l-99 -180l-96 180h-195l99 179l-99 185h200l99 180l96 -180h195l-99 -179zM281 180l59 -111l61 111h-120zM348 655l-61 -111h120zM583 509
h-120l59 -111z" />
    <glyph glyph-name="uni2605" unicode="&#x2605;" horiz-adv-x="604" 
d="M52 447l197 -46l54 192l56 -194l188 65l-122 -154l131 -172l-189 55l-66 -190l-56 186l-194 -49l130 170z" />
    <glyph glyph-name="uni2713" unicode="&#x2713;" horiz-adv-x="762" 
d="M293 0l418 590c-17 4 -35 6 -53 6c-41 0 -69 -11 -84 -33l-138 -222c-82 -129 -141 -213 -177 -250c-30 11 -75 64 -135 157c-37 0 -62 -16 -74 -47c0 -36 21 -78 64 -127c40 -46 73 -71 99 -74h80z" />
    <glyph glyph-name="uni26AB" unicode="&#x26ab;" horiz-adv-x="600" 
d="M256 505c57 0 107 -20 148 -61s61 -89 61 -146s-21 -107 -61 -148s-88 -61 -145 -61c-58 0 -108 21 -149 61s-61 89 -61 146s20 107 61 148s89 61 146 61z" />
    <glyph glyph-name="uni2606" unicode="&#x2606;" horiz-adv-x="729" 
d="M259 378l-123 -151l178 48l51 -183l64 181l174 -51l-126 156l112 139l-173 -68l-49 185l-47 -181l-168 46zM52 554l247 -57l68 241l71 -243l235 81l-153 -194l165 -215l-239 67l-81 -237l-69 234l-246 -62l164 213z" />
    <glyph glyph-name="uni261B" unicode="&#x261b;" horiz-adv-x="1036" 
d="M182 157c5 0 17 9 24 9h8c21 0 51 -6 90 -20c13 -5 47 -25 102 -60c43 -28 96 -42 159 -42c27 0 60 18 60 45c0 17 -6 31 -18 42c39 1 59 19 59 56c0 20 -7 35 -21 45c36 9 54 25 54 49c0 29 -30 57 -55 61c7 1 16 1 27 1c32 0 197 -15 230 -15c57 0 85 11 85 32
c0 23 -68 46 -203 70c-124 22 -228 33 -311 33c-79 0 -145 -7 -197 -21c-30 -8 -49 -15 -55 -21l-31 11c-45 -31 -67 -81 -67 -152c0 -52 12 -93 35 -122c4 -2 12 -2 25 -1zM88 294c0 -55 11 -102 33 -143h-37c-23 39 -35 83 -35 131c0 59 19 110 58 156l41 -4
c-40 -37 -60 -83 -60 -140z" />
    <glyph glyph-name="uni27A3" unicode="&#x27a3;" horiz-adv-x="900" 
d="M296 344l-194 -220l699 220h-505zM275 344l-218 257l793 -257l-794 -248z" />
    <glyph glyph-name="uni27AD" unicode="&#x27ad;" horiz-adv-x="666" 
d="M322 486v-59h-211v13h198l1 142l296 -273l-296 -273v20l234 215zM111 427l-62 -60v-242h198l1 -126l62 57l-1 122h-198v249z" />
    <glyph glyph-name="uni2702" unicode="&#x2702;" horiz-adv-x="819" 
d="M567 211l88 -46c22 -11 33 -27 33 -48c0 -23 -13 -35 -38 -35c-15 0 -32 6 -51 18c-36 23 -54 48 -54 76c0 15 7 27 22 35zM578 389c0 39 24 74 62 77h5c40 0 79 -25 79 -62c0 -9 -3 -15 -10 -17l-124 -37c-8 9 -12 22 -12 39zM653 46c45 0 82 24 82 66
c0 32 -16 56 -47 73l-162 88l201 67c29 9 43 29 43 60c0 17 -4 34 -13 51c-19 35 -53 53 -102 53c-58 0 -115 -33 -115 -90c0 -15 3 -51 3 -58c0 -25 -8 -39 -24 -42l-41 -9l-336 195l-86 3l357 -221l-359 -102l84 -16l335 84l52 -18c-9 -18 -13 -37 -13 -56
c0 -45 19 -79 58 -104c25 -16 52 -24 83 -24z" />
    <glyph glyph-name="uni272A" unicode="&#x272a;" horiz-adv-x="846" 
d="M246 366l-91 -163h176l86 -162l89 162h181l-88 167l88 160h-175l-87 163l-94 -163h-176zM50 368c0 103 36 190 108 262s161 108 265 108s193 -36 265 -108s108 -159 108 -262s-36 -190 -108 -262s-161 -108 -265 -108s-193 36 -265 108s-108 159 -108 262z" />
    <glyph glyph-name="uni2B8F" unicode="&#x2b8f;" horiz-adv-x="918" 
d="M654 481v-481h213v541c0 49 -22 95 -66 139c-58 58 -140 87 -246 87c-100 0 -181 -30 -242 -91c-47 -47 -71 -91 -71 -134v-338h-190l282 -337l292 338l-195 -1v276c0 18 10 38 31 59c23 23 48 34 76 34h5c74 -4 111 -35 111 -92z" />
    <glyph glyph-name="uni2BAA" unicode="&#x2baa;" horiz-adv-x="957" 
d="M704 255v-2v2zM703 260v-33v-227h204v319c0 45 -14 86 -42 125c-19 27 -64 40 -133 40h-340v190l-337 -283l337 -291v195h251h11c25 0 24 -1 40 -18c5 -5 8 -11 9 -17z" />
    <glyph glyph-name="spade" unicode="&#x2660;" horiz-adv-x="592" 
d="M330 104c0 -46 62 -75 113 -77v-28l-292 1v29c4 -1 9 -1 13 -1c22 0 44 8 64 22c24 17 36 34 36 52c0 25 -4 46 -11 64c-25 -27 -50 -40 -73 -40c-85 0 -128 41 -128 122c0 44 82 161 245 350c163 -191 245 -307 245 -350c0 -90 -42 -122 -135 -122c-17 0 -39 13 -67 40
c-7 -17 -10 -38 -10 -62z" />
    <glyph glyph-name="club" unicode="&#x2663;" horiz-adv-x="678" 
d="M628 284c0 -76 -40 -137 -111 -137c-49 0 -92 23 -129 69c-11 -25 -17 -57 -17 -96c0 -20 14 -41 43 -63c26 -20 47 -30 64 -30v-27h-292v29c19 0 42 8 69 25c31 20 47 43 47 68c0 37 -4 68 -13 93c-20 -49 -65 -77 -129 -78h-2c-62 0 -109 72 -109 138
c0 91 36 136 107 136c25 0 58 -15 99 -45c-40 36 -60 78 -60 125c0 73 62 112 140 112c76 0 136 -41 136 -112c0 -35 -16 -72 -49 -109c30 24 106 41 112 41c1 0 0 -1 -1 -1c68 0 95 -63 95 -138z" />
    <glyph glyph-name="heart" unicode="&#x2665;" horiz-adv-x="694" 
d="M49 438c0 82 56 148 137 148c67 0 119 -44 155 -132c39 88 97 132 172 132c87 0 130 -46 130 -138c0 -81 -49 -177 -148 -289c-41 -47 -91 -96 -149 -145c-198 179 -297 321 -297 424z" />
    <glyph glyph-name="diamond" unicode="&#x2666;" horiz-adv-x="538" 
d="M269 598c25 -37 49 -71 72 -104c57 -78 106 -139 149 -182c-69 -76 -142 -180 -221 -312c-15 31 -48 83 -99 155s-91 124 -122 157c29 29 67 74 114 134s82 111 107 152z" />
    <glyph glyph-name="uni2010" unicode="&#x2010;" horiz-adv-x="356" 
d="M316 333v-80h-267v80h267z" />
    <glyph glyph-name="endash" unicode="&#x2013;" horiz-adv-x="356" 
d="M316 333v-80h-267v80h267z" />
    <glyph glyph-name="emdash" unicode="&#x2014;" horiz-adv-x="1000" 
d="M56 240v96h888v-96h-888z" />
    <glyph glyph-name="uni200C" unicode="&#x200c;" horiz-adv-x="0" 
d="M-11.7002 598.85h23.4004v-596.699h-23.4004v596.699z" />
    <glyph glyph-name="uni200D" unicode="&#x200d;" horiz-adv-x="0" 
d="M11.7002 561.8v-555.6h-23.4004v555.6l-42.8994 -43.7998l-15.6006 15.9004l54.9004 54.2998l-54.9004 53.7002l15.6006 15.8994l54.5996 -54.8994l54.5996 54.8994l15.6006 -15.8994l-54.9004 -53.7002l54.9004 -54.2998l-15.6006 -15.9004z" />
    <glyph glyph-name="uni0A28_uni0A3F_uni0A70" horiz-adv-x="868" 
d="M672 776c-29 0 -58 -23 -58 -49c0 -10 2 -21 7 -33c5 -13 7 -21 7 -26c0 -10 -7 -15 -21 -15c-5 0 -13 8 -26 24c-15 20 -22 44 -22 71c0 28 10 54 30 78c19 23 46 35 82 35c69 0 112 -52 112 -122c0 -17 -6 -35 -20 -55c-12 -21 -28 -31 -45 -31c-7 0 -10 2 -10 6
s3 13 9 28c7 15 10 27 10 38c0 27 -25 51 -55 51zM-2 503v96h35v80c0 49 17 88 51 116s68 42 103 42c83 0 143 -36 181 -108l-80 -51c-14 33 -42 49 -85 49s-64 -33 -64 -98v-30h107h63h603v-96h-346v-117c47 -1 92 -22 136 -63c45 -41 67 -84 67 -128
c0 -67 -25 -119 -76 -156c-35 -26 -69 -39 -101 -39v93c47 7 71 35 71 86c0 37 -20 67 -60 90c-31 18 -62 27 -93 27s-62 -9 -94 -27c-41 -23 -61 -53 -61 -90c0 -51 24 -80 73 -88v-91c-34 0 -69 13 -104 39c-50 36 -75 88 -75 156c0 44 22 87 67 128c44 41 89 62 136 63
v117h-143h-63h-108v-503h-107v503h-33z" />
    <glyph glyph-name="uni0A32_uni0A3F_uni0A70" horiz-adv-x="920" 
d="M723 776c-29 0 -58 -23 -58 -49c0 -10 2 -21 7 -33c5 -13 7 -21 7 -26c0 -10 -7 -15 -21 -15c-5 0 -13 8 -26 24c-15 20 -22 44 -22 71c0 28 10 54 30 78c19 23 46 35 82 35c69 0 112 -52 112 -122c0 -17 -6 -35 -20 -55c-12 -21 -28 -31 -45 -31c-7 0 -10 2 -10 6
s3 13 9 28c7 15 10 27 10 38c0 27 -25 51 -55 51zM-2 503v96h35v80c0 49 17 88 51 116s68 42 103 42c83 0 143 -36 181 -108l-80 -51c-14 33 -42 49 -85 49s-64 -33 -64 -98v-30h107h63h657v-96h-229c-11 -58 -27 -99 -46 -123c32 -1 64 -19 97 -52c32 -33 48 -71 48 -113
c0 -72 -23 -127 -70 -166c-39 -32 -86 -48 -141 -48v93c15 0 32 5 50 16c30 17 45 45 45 83c0 62 -23 93 -70 93c-22 0 -40 -9 -53 -27c-2 -3 -10 -20 -24 -50c-8 -18 -18 -27 -29 -27c-12 0 -22 9 -30 27c-14 31 -22 47 -23 50c-13 18 -30 27 -53 27c-47 0 -70 -31 -70 -93
c0 -38 16 -66 47 -83c18 -11 35 -16 50 -16v-93c-131 0 -213 83 -213 214c0 42 16 80 48 113c33 33 65 51 97 52c-27 34 -42 75 -46 123h-42h-63h-108v-503h-107v503h-33zM542 361c34 0 58 47 72 142l-35 1h-27c-21 0 -47 0 -78 -1c3 -35 11 -67 26 -97s29 -45 42 -45z" />
  </font>
</defs>
</svg>
