<?xml version="1.0" standalone="no"?>
<!DOCTYPE svg PUBLIC "-//W3C//DTD SVG 1.1//EN" "http://www.w3.org/Graphics/SVG/1.1/DTD/svg11.dtd" >
<svg xmlns="http://www.w3.org/2000/svg" xmlns:xlink="http://www.w3.org/1999/xlink" version="1.1">
<metadata>
Created by FontForge 20161116 at Thu Jun  8 22:09:59 2017
 By Jimmy Warting
Copyright (C) 2015-2017 Sarabveer Singh (https://sarabveer.me); Copyright (C) 2001 Kulbir S. Thind (gurbanifiles.org)
</metadata>
<defs>
<font id="GurbaniAkharTrue-Thick-1.6" horiz-adv-x="20" >
  <font-face 
    font-family="GurbaniAkharTrue"
    font-weight="900"
    font-stretch="normal"
    units-per-em="2000"
    panose-1="0 0 4 0 0 0 0 0 0 0"
    ascent="1600"
    descent="-400"
    x-height="1201"
    cap-height="1715"
    bbox="-981 -792 2621 1819"
    underline-thickness="100"
    underline-position="-650"
    unicode-range="U+0020-2202"
  />
<missing-glyph horiz-adv-x="1000" 
d="M125 0v1200h750v-1200h-750zM250 125h500v950h-500v-950z" />
    <glyph glyph-name=".notdef" horiz-adv-x="1000" 
d="M125 0v1200h750v-1200h-750zM250 125h500v950h-500v-950z" />
    <glyph glyph-name="space" unicode=" " horiz-adv-x="700" 
 />
    <glyph glyph-name="exclam" unicode="!" horiz-adv-x="572" 
d="M406 474h-238l-50 954h338zM114 140c0 110.667 57.333 166 172 166c54 0 95.833 -14.333 125.5 -43s44.5 -69.167 44.5 -121.5s-15 -93.333 -45 -123s-72 -44.5 -126 -44.5s-96 14.5 -126 43.5s-45 69.833 -45 122.5z" />
    <glyph glyph-name="quotedbl" unicode="&#x22;" horiz-adv-x="944" 
d="M402 1428l-40 -516h-192l-40 516h272zM814 1428l-40 -516h-192l-40 516h272z" />
    <glyph glyph-name="numbersign" unicode="#" horiz-adv-x="1291" 
d="M976 824l-46 -226h252v-202h-290l-76 -396h-214l76 396h-190l-74 -396h-210l72 396h-232v202h270l46 226h-246v204h282l76 400h214l-76 -400h194l76 400h210l-76 -400h234v-204h-272zM526 598h192l46 226h-192z" />
    <glyph glyph-name="dollar" unicode="$" horiz-adv-x="1143" 
d="M954 197c-74.667 -62.667 -179.334 -100.332 -314.001 -112.999v-200h-134v196c-158.667 3.33301 -298 31.333 -418 84v258c56.667 -28 124.834 -52.833 204.501 -74.5s150.834 -34.167 213.501 -37.5v302l-66 26c-128.667 50.667 -219.834 105.834 -273.501 165.501
s-80.5 135 -80.5 226s37 167 111 228s177 97.833 309 110.5v150h134v-146c149.333 -6.66699 284 -36.667 404 -90l-92 -228c-101.333 41.333 -205.333 66.666 -312 75.999v-288c126.667 -48.667 216.667 -91 270 -127c104 -69.333 156 -157.333 156 -264
s-37.333 -191.334 -112 -254.001zM772 432.002c0 27.333 -11 50.332 -33 68.999s-55 38.334 -99 59.001v-244c88 15.333 132 54 132 116zM380 1024c0 -28.667 9.83203 -52.167 29.499 -70.5s51.834 -37.5 96.501 -57.5v230c-84 -12.667 -126 -46.667 -126 -102z" />
    <glyph glyph-name="percent" unicode="%" horiz-adv-x="1801" 
d="M308 1000c0 -164 31 -246 93 -246s93 81.667 93 245s-31.333 245 -94 245c-32.667 0 -56.167 -20 -70.5 -60s-21.5 -101.333 -21.5 -184zM651.5 1332.5c59 -77 88.5 -188.833 88.5 -335.5s-29 -257.5 -87 -332.5s-141.833 -112.5 -251.5 -112.5s-193.667 38.5 -252 115.5
s-87.5 188.5 -87.5 334.5c0 297.333 112 446 336 446c110 0 194.5 -38.5 253.5 -115.5zM1412 1428l-792 -1428h-234l792 1428h234zM1308 430c0 -164 31 -246 93 -246s93 81.667 93 245s-31.333 245 -94 245c-32.667 0 -56.167 -20 -70.5 -60s-21.5 -101.333 -21.5 -184z
M1651.5 762.5c59 -77 88.5 -188.667 88.5 -335s-29 -257.166 -87 -332.499s-141.833 -113 -251.5 -113s-193.667 38.667 -252 116s-87.5 188.666 -87.5 333.999c0 297.333 112 446 336 446c110 0 194.5 -38.5 253.5 -115.5z" />
    <glyph glyph-name="ampersand" unicode="&#x26;" horiz-adv-x="1132" 
d="M972 987v-349.998h-526c-98 0 -147 -36.333 -147 -109c0 -32 12.667 -67.333 38 -106c8 -10 22.333 -28.333 43 -55c129.333 97.333 241.333 146 336 146c71.333 0 137.833 -23.833 199.5 -71.5s92.5 -110.834 92.5 -189.501s-26.667 -138.667 -80 -180
c-80 -62.667 -162.667 -94 -248 -94c-154 0 -298 68.667 -432 206c-106.667 109.333 -160 223.333 -160 342s46.667 208.667 140 270c29.333 19.333 76.333 37.666 141 54.999h392v136h-770v214h1174v-214h-193zM183 17.002c-26.667 -26.667 -58.834 -40 -96.501 -40
s-69.834 13.333 -96.501 40s-40 58.834 -40 96.501s13.333 69.834 40 96.501s58.834 40 96.501 40s69.834 -13.333 96.501 -40s40 -58.834 40 -96.501s-13.333 -69.834 -40 -96.501zM799 260.002c-7.33301 41.333 -36.332 62 -86.999 62s-109.334 -33 -176.001 -99
c68.667 -30.667 117.667 -46 147 -46c78 0 117 23.333 117 70c0 4 -0.333008 8.33301 -1 13z" />
    <glyph glyph-name="quotesingle" unicode="'" horiz-adv-x="532" 
d="M402 1428l-40 -516h-192l-40 516h272z" />
    <glyph glyph-name="parenleft" unicode="(" horiz-adv-x="677" 
d="M155 71.5c-50 147.667 -75 307.168 -75 478.501s25.167 332.166 75.5 482.499s123.166 282.166 218.499 395.499h244c-92 -125.333 -161.333 -263.333 -208 -414s-70 -305.5 -70 -464.5s23.833 -313 71.5 -462s115.834 -283.5 204.501 -403.5h-242
c-96 110.667 -169 239.834 -219 387.501z" />
    <glyph glyph-name="parenright" unicode=")" horiz-adv-x="677" 
d="M598 548c0 -171.333 -25.332 -330.833 -75.999 -478.5s-123.334 -276.167 -218.001 -385.5h-242c88 120 156 254.333 204 403s72 302.667 72 462c0 330 -92.667 623 -278 879h244c96 -114 169 -246.333 219 -397s75 -311.667 75 -483z" />
    <glyph glyph-name="asterisk" unicode="*" horiz-adv-x="1089" 
d="M672 1520l-40 -360l364 102l32 -246l-332 -24l218 -290l-222 -118l-152 306l-134 -304l-230 116l216 290l-330 26l38 244l356 -102l-40 360h256z" />
    <glyph glyph-name="plus" unicode="+" horiz-adv-x="1143" 
d="M464 598h-378v214h378v380h214v-380h378v-214h-378v-376h-214v376z" />
    <glyph glyph-name="comma" unicode="," horiz-adv-x="570" 
d="M448 210c-34 -131.333 -91.333 -287.332 -172 -467.999h-214c42 173.333 74.667 336.666 98 489.999h274z" />
    <glyph glyph-name="hyphen" unicode="-" horiz-adv-x="643" 
d="M60 414v244h524v-244h-524z" />
    <glyph glyph-name="hyphen" unicode="&#x2010;" horiz-adv-x="643" 
d="M60 414v244h524v-244h-524z" />
    <glyph glyph-name="period" unicode="." horiz-adv-x="570" 
d="M114 140c0 110.667 57.333 166 172 166c54 0 95.833 -14.333 125.5 -43s44.5 -69.167 44.5 -121.5s-15 -93.333 -45 -123s-72 -44.5 -126 -44.5s-96 14.5 -126 43.5s-45 69.833 -45 122.5z" />
    <glyph glyph-name="slash" unicode="/" horiz-adv-x="826" 
d="M816 1428l-532 -1428h-270l532 1428h270z" />
    <glyph glyph-name="zero" unicode="0" horiz-adv-x="1233" 
d="M583 70c-153.333 0 -283.501 53.501 -390.501 160.501s-160.5 237.167 -160.5 390.5s53.5 283.666 160.5 390.999s237.333 161 391 161s284 -53.5 391 -160.5s160.5 -237.5 160.5 -391.5s-53.667 -284.333 -161 -391s-237.666 -160 -390.999 -160zM824.499 862.001
c-65.667 66 -146 98.998 -241 98.998s-175.333 -33.167 -241 -99.5s-98.5 -146.666 -98.5 -240.999s33 -174.333 99 -240s146.167 -98.5 240.5 -98.5s174.5 32.833 240.5 98.5s99 145.834 99 240.501s-32.833 175 -98.5 241z" />
    <glyph glyph-name="one" unicode="1" horiz-adv-x="1008" 
d="M922 -98c-92 0 -164.334 69.999 -217.001 209.999c-40 105.333 -60 199.833 -60 283.5s3.33301 160.834 10 231.501c-62.667 -31.333 -140.5 -47 -233.5 -47s-179.5 28.667 -259.5 86c-84.667 60.667 -127 147.834 -127 261.501s42.833 200 128.5 259
s183.834 88.5 294.501 88.5c166.667 0 282.667 -45.333 348 -136c45.333 -64.667 68 -164.334 68 -299.001c0 -80 -3.5 -165 -10.5 -255s-10.5 -150.333 -10.5 -181c0 -106.667 18 -201 54 -283c54 -88.667 81 -140.667 81 -156c0 -42 -22 -63 -66 -63zM462.999 1061
c-70 0 -123.668 -13.167 -161.001 -39.5s-56 -57.833 -56 -94.5s17.333 -68.5 52 -95.5s77.834 -40.5 129.501 -40.5s104.5 11.333 158.5 34s81 52.667 81 90c0 97.333 -68 146 -204 146z" />
    <glyph glyph-name="two" unicode="2" horiz-adv-x="1154" 
d="M1051 787c0 -245.333 -124.667 -416.67 -374 -514.003c126 -70.667 189 -131 189 -181c0 -57.333 -30.333 -86 -91 -86c-23.333 0 -85.666 25.833 -186.999 77.5s-160 80.834 -176 87.501c-126.667 10.667 -200.334 18.334 -221.001 23.001
c-98 22.667 -149 65.334 -153 128.001c-0.666992 7.33301 -1 14.333 -1 21c0 96 50 144 150 144c30 0 72.833 -10.167 128.5 -30.5s98.5 -30.5 128.5 -30.5c102.667 0.666992 194.167 35 274.5 103s120.5 150.333 120.5 247c0 177.333 -112.667 266 -338 266
c-74 0 -149 -10 -225 -30s-120.333 -30 -133 -30c-66.667 0 -100 33.667 -100 101c0 62 64 108 192 138c86 20.667 177.667 31 275 31c360.667 0 541 -155 541 -465z" />
    <glyph glyph-name="three" unicode="3" horiz-adv-x="1169" 
d="M1044 515c0 -126.667 -73.668 -226.331 -221.001 -298.998c104.667 -37.333 157 -79.333 157 -126c0 -58.667 -31.167 -88 -93.5 -88s-146.666 22.833 -252.999 68.5s-178.166 72.5 -215.499 80.5c-5.33301 3.33301 -42.333 11.666 -111 24.999l-106 22
c-52.667 10.667 -93.5 30.834 -122.5 60.501s-43.5 62.5 -43.5 98.5s14.167 66.333 42.5 91s68.333 37 120 37s112.667 -23.333 183 -70s129.666 -70 177.999 -70s105.333 19 171 57s98.5 75 98.5 111c0 3.33301 -0.333008 6.66602 -1 9.99902c-10 66 -56.333 99 -139 99
c-39.333 0 -97.833 -5.5 -175.5 -16.5s-136.167 -16.5 -175.5 -16.5c-141.333 0 -212 41 -212 123c0 48 31.333 84 94 108c46 17.333 91 26 135 26s97.5 -4.5 160.5 -13.5s112.167 -13.5 147.5 -13.5s71.666 6.66699 108.999 20c50 18 75 43.333 75 76
c0 39.333 -34.667 69.333 -104 90s-136.166 31 -200.499 31s-142.5 -7.5 -234.5 -22.5s-144 -22.5 -156 -22.5c-75.333 0 -113 33.667 -113 101c0 105.333 166.667 158 500 158c122.667 0 231.667 -22 327 -66c126.667 -58.667 190 -146 190 -262
c0 -82 -36.667 -152 -110 -210c66 -56.667 99 -122.334 99 -197.001z" />
    <glyph glyph-name="four" unicode="4" horiz-adv-x="1075" 
d="M184 575c-47.333 44.667 -84.168 88.499 -110.501 131.499s-39.5 97.5 -39.5 163.5c0 114.667 37.667 202.334 113 263.001c60.667 48.667 153.334 85.334 278.001 110.001v-212c-61.333 -17.333 -106.666 -37.666 -135.999 -60.999s-44 -63.333 -44 -120
s25.167 -101.167 75.5 -133.5s111.5 -48.5 183.5 -48.5s133.167 16.167 183.5 48.5s75.5 76.833 75.5 133.5s-14.833 96.667 -44.5 120s-75.167 43.666 -136.5 60.999v212c125.333 -24.667 218 -61.334 278 -110.001c76 -60.667 114 -148.334 114 -263.001
c0 -94 -43.667 -186.667 -131 -278c-7.33301 -7.33301 -13 -13.666 -17 -18.999c50.667 -62.667 78 -97.667 82 -105c17.333 -31.333 26 -78.333 26 -141c0 -112 -47.333 -197.333 -142 -256c-78.667 -48.667 -174.834 -73 -288.501 -73s-209.5 24.333 -287.5 73
c-94.667 58.667 -142 144 -142 256c0 62.667 9.33301 110 28 142zM654.998 437.999c-28 11.333 -79.332 17 -153.999 17s-129.334 -7.83301 -164.001 -23.5s-52 -50.5 -52 -104.5c0 -76 72.833 -114 218.5 -114s218.5 38 218.5 114c0 56 -22.333 93 -67 111z" />
    <glyph glyph-name="five" unicode="5" horiz-adv-x="1102" 
d="M749 0l-0.00195312 255.997c-87.333 -48.667 -180.666 -73 -279.999 -73s-195.666 34.667 -288.999 104c-66 48.667 -107 97 -123 145v9c0 38 12.333 88 37 150c25.333 62.667 49.333 122.334 72 179.001c13.333 40 20 73 20 99c0 78.667 -28 118 -84 118h-91v214h155
c70.667 0 127.167 -35.667 169.5 -107s63.5 -142.666 63.5 -213.999c0 -125.333 -39 -258.666 -117 -399.999c76 -56.667 149 -85 219 -85s152.667 32 248 96v710h212v-1201h-212z" />
    <glyph glyph-name="six" unicode="6" horiz-adv-x="978" 
d="M854 1337l-139.997 17.999c-22.667 0 -44.334 -8.16699 -65.001 -24.5s-31 -34.5 -31 -54.5c0 -43.333 19.667 -81.666 59 -114.999c37.333 -24.667 75.333 -50.334 114 -77.001s58 -56.5 58 -89.5s-10.833 -58.333 -32.5 -76s-40.667 -26.5 -57 -26.5
s-35.166 1.5 -56.499 4.5s-66.166 10.833 -134.499 23.5s-122.333 19 -162 19s-77.167 -9.66699 -112.5 -29s-53 -46.666 -53 -81.999c0 -107.333 57.667 -161 173 -161c22.667 0 56.167 5 100.5 15s78.166 15 101.499 15c65.333 0 117.333 -13.333 156 -40
s58 -57.167 58 -91.5s-18.5 -63.166 -55.5 -86.499s-90.5 -35 -160.5 -35l-200 17c-115.333 0 -173 -50.333 -173 -151c0 -64 46.667 -96 140 -96h342c44.667 0 78.5 -11.667 101.5 -35s34.5 -53 34.5 -89s-14.667 -61.333 -44 -76c-18 -9.33301 -48.667 -14 -92 -14h-396
c-89.333 0 -160.833 33 -214.5 99s-80.5 144.333 -80.5 235c0 46 9.66699 87.667 29 125l66 108c-22.667 43.333 -44.834 87.166 -66.501 131.499s-32.5 92.833 -32.5 145.5c0 101.333 43 179.333 129 234c71.333 46 157.666 69 258.999 69
c13.333 0 27.666 -0.666992 42.999 -2c-26 48 -39 94.667 -39 140c0 71.333 27.5 130.333 82.5 177s120.833 70 197.5 70c48.667 0 97.667 -11.333 147 -34c54.667 -24.667 82 -59.667 82 -105c0 -37.333 -25 -56 -75 -56z" />
    <glyph glyph-name="seven" unicode="7" horiz-adv-x="1184" 
d="M86 -2c-51.333 0 -76.999 20 -76.999 60c0 44.667 51.5 88.5 154.5 131.5s221.667 102.833 356 179.5s226.833 145.667 277.5 207s76 137.333 76 228c0 68 -26.167 123.167 -78.5 165.5s-108 63.5 -167 63.5s-105.5 -9.83301 -139.5 -29.5s-54.5 -35.834 -61.5 -48.501
s-17.167 -39.667 -30.5 -81c-25.333 -55.333 -64 -83 -116 -83c-31.333 0 -58 12.167 -80 36.5s-33 58.833 -33 103.5c0 94.667 55.333 173.334 166 236.001c89.333 50.667 178.333 76 267 76c154.667 -2.66699 274 -48.167 358 -136.5s126 -193.5 126 -315.5
c0 -184 -81.333 -336.667 -244 -458c-72.667 -54 -174.334 -113.333 -305.001 -178s-248.667 -111.667 -354 -141c-37.333 -10.667 -69 -16 -95 -16z" />
    <glyph glyph-name="eight" unicode="8" horiz-adv-x="1239" 
d="M383 829c-0.666992 -192.667 38.332 -340 116.999 -442s211.667 -160 399 -174c18.667 1.33301 40 2 64 2s48 -0.333008 72 -1c62 -7.33301 93 -42 93 -104c0 -73.333 -78.333 -110 -235 -110s-291 35.667 -403 107c-214 136 -321 364 -321 684
c0 13.333 0.333008 26 1 38h-56c-60 0 -90 33 -90 99s27.833 128.333 83.5 187s115.834 88 180.501 88s97 -30.667 97 -92v-69h745v-213h-747z" />
    <glyph glyph-name="nine" unicode="9" horiz-adv-x="1226" 
d="M1083 1258l-141.002 18.998c-51.333 0 -77 -23 -77 -69c0 -35.333 14.333 -69.666 43 -102.999c4 -3.33301 33 -29.5 87 -78.5s81 -85.5 81 -109.5c0 -11.333 -3 -22 -9 -32c-24 -39.333 -81 -59 -171 -59l-513 1v-7c0 -265.333 79.667 -442.666 239 -531.999
c78.667 -44.667 170.667 -70.667 276 -78c-4.66699 0.666992 30.5 1 105.5 1s115.833 -23 122.5 -69c0.666992 -7.33301 1 -14.333 1 -21c0 -42.667 -18.333 -73.5 -55 -92.5s-96 -28.5 -178 -28.5c-149.333 -0 -281.333 34.333 -396 103c-220 132 -329.667 358 -329 678
c0 16 0.333008 31.333 1 46h-60c-60.667 0 -91 32.667 -91 98c0 107.333 53 188.666 159 243.999c48 24.667 87.667 37 119 37c58.667 0 88 -30 88 -90v-75h307c-32 54 -48 113.5 -48 178.5s25.333 121 76 168s108.834 70.5 174.501 70.5s124.834 -11.333 177.501 -34
c58.667 -25.333 88 -61.666 88 -108.999c0 -38 -25.667 -57 -77 -57z" />
    <glyph glyph-name="colon" unicode=":" horiz-adv-x="570" 
d="M114 140c0 110.667 57.333 166 172 166c54 0 95.833 -14.333 125.5 -43s44.5 -69.167 44.5 -121.5s-15 -93.333 -45 -123s-72 -44.5 -126 -44.5s-96 14.5 -126 43.5s-45 69.833 -45 122.5zM114 946c0 110.667 57.333 166 172 166c54 0 95.833 -14.333 125.5 -43
s44.5 -69.5 44.5 -122.5s-15.167 -94 -45.5 -123s-72.333 -43.5 -126 -43.5s-95.5 14.333 -125.5 43s-45 69.667 -45 123z" />
    <glyph glyph-name="semicolon" unicode=";" horiz-adv-x="570" 
d="M434 232l14 -21.999c-34 -131.333 -91.333 -287.333 -172 -468h-214c42 173.333 74.667 336.666 98 489.999h274zM114 946.001c0 110.667 57.333 166 172 166c54 0 95.833 -14.333 125.5 -43s44.5 -69.5 44.5 -122.5s-15.167 -94 -45.5 -123s-72.333 -43.5 -126 -43.5
s-95.5 14.333 -125.5 43s-45 69.667 -45 123z" />
    <glyph glyph-name="less" unicode="&#x3c;" horiz-adv-x="2080" 
d="M1761 633c123.333 -84 184.998 -191.335 184.998 -322.002c0 -104.667 -33.667 -185.667 -101 -243s-151.666 -86 -252.999 -86c-64 0 -131.333 12.167 -202 36.5s-125.667 57.833 -165 100.5c-108 114.667 -174 228.334 -198 341.001
c-35.333 162.667 -53 338.334 -53 527.001h-40v214h45c43.333 327.333 213.666 491 510.999 491c94.667 0 181.834 -15 261.501 -45s142.834 -61.5 189.501 -94.5s92 -67.167 136 -102.5v-221c-119.333 84.667 -219.333 147.5 -300 188.5s-176.334 61.5 -287.001 61.5
c-159.333 0 -258.333 -92.667 -297 -278h863v-214h-75c-27.333 -76.667 -56.666 -144 -87.999 -202s-75.333 -108.667 -132 -152zM766.998 -73.002c-80.667 42 -141.333 134.669 -182 278.002c-22.667 79.333 -34 152.5 -34 219.5s4 136.833 12 209.5
c-63.333 -27.333 -130 -41 -200 -41c-99.333 -0.666992 -184.333 27 -255 83c-72.667 57.333 -109 145 -109 263s31.333 207 94 267s173.667 90 333 90c248 0 372 -132 372 -396c0 -52.667 -3.66699 -138.334 -11 -257.001c-13.333 -153.333 -20 -232 -20 -236
c0 -114.667 17 -210.334 51 -287.001c2.66699 -6 17.5 -30 44.5 -72s40.5 -69.667 40.5 -83c0 -42 -18.667 -63 -56 -63c-22 0 -48.667 8.33301 -80 25zM1188 987c0.666992 -77.333 4.66797 -161.667 12.001 -253h142h83c31.333 0.666992 68.666 7.66699 111.999 21
c96.667 30 172.667 107.333 228 232h-577zM1581 197.999c104 0 156 32.667 156 98c0 48.667 -24.5 97.5 -73.5 146.5s-92.167 73.5 -129.5 73.5c-4 0 -17 -1.5 -39 -4.5s-107.667 -4.83301 -257 -5.5c70 -205.333 184.333 -308 343 -308zM388 1079
c-73.333 0 -122.669 -11.168 -148.002 -33.501s-38 -56.166 -38 -101.499c0 -52.667 12.333 -87.667 37 -105c30.667 -22 74.334 -33 131.001 -33s100.334 7.33301 131.001 22c56 28 84 65 84 111c0 93.333 -65.667 140 -197 140z" />
    <glyph glyph-name="equal" unicode="=" horiz-adv-x="1143" 
d="M86 788v212h970v-212h-970zM86 408v214h970v-214h-970z" />
    <glyph glyph-name="greater" unicode="&#x3e;" horiz-adv-x="1182" 
d="M1646 1332c0 -68 -25.334 -102.001 -76.001 -102.001s-98.667 49 -144 147c-32.667 72 -83.167 129.833 -151.5 173.5s-143.666 65.5 -225.999 65.5s-177.833 -39 -286.5 -117c-21.333 -15.333 -96.333 -75.666 -225 -180.999s-236.834 -158 -324.501 -158
s-159.834 27.667 -216.501 83v217c21.333 -13.333 57.333 -30.833 108 -52.5s79 -32.5 85 -32.5c50.667 0 118 32.667 202 98c68 56 152.333 123.333 253 202c136.667 96 267.834 144 393.501 144s236.834 -28.833 333.501 -86.5s171 -136.167 223 -235.5
c15.333 -28.667 27.833 -60.167 37.5 -94.5s14.5 -57.833 14.5 -70.5z" />
    <glyph glyph-name="question" unicode="?" horiz-adv-x="954" 
d="M270 474l-0.00195312 71.998c0 62.667 13.333 117 40 163s74.834 94.167 144.501 144.5s115.334 90.833 137.001 121.5s32.5 66 32.5 106s-15.667 71.167 -47 93.5s-75 33.5 -131 33.5c-97.333 0 -208.666 -32 -333.999 -96l-106 214
c145.333 81.333 292.166 122 440.499 122s262 -32.167 341 -96.5s118.5 -150.166 118.5 -257.499c0 -71.333 -16.167 -133.166 -48.5 -185.499s-87 -106.333 -164 -162s-123.833 -95.5 -140.5 -119.5s-25 -55.667 -25 -95v-58h-258zM237.998 139.998
c0 110.667 57.333 166 172 166c54 0 95.833 -14.333 125.5 -43s44.5 -69.167 44.5 -121.5s-15 -93.333 -45 -123s-72 -44.5 -126 -44.5s-96 14.5 -126 43.5s-45 69.833 -45 122.5z" />
    <glyph glyph-name="at" unicode="@" 
d="M-429.5 -138.5c35.667 -25 66.168 -46 91.501 -63s56.166 -29 92.499 -36s56.833 -11.5 61.5 -13.5c68.667 -32.667 103 -76.667 103 -132s-20.667 -83 -62 -83c-32 0 -87.667 23 -167 69c-146 84 -250 200 -312 348h103c24 -34.667 53.833 -64.5 89.5 -89.5z" />
    <glyph glyph-name="A" unicode="A" horiz-adv-x="1430" 
d="M1270 987v-987h-216v594c-52 -22 -94.167 -45.5 -126.5 -70.5s-60 -80.667 -83 -167s-38.167 -137.166 -45.5 -152.499c-31.333 -65.333 -80.666 -98 -147.999 -98c-41.333 0 -78.166 10.667 -110.499 32s-48.5 57.166 -48.5 107.499s33.333 114.666 100 192.999
s100 143.166 100 194.499c0 78 -17.667 156.333 -53 235c-59.333 -43.333 -122.5 -109.166 -189.5 -197.499s-101.333 -159.166 -103 -212.499s-18.667 -100.166 -51 -140.499s-72.166 -60.5 -119.499 -60.5s-85.833 13 -115.5 39s-44.5 60.667 -44.5 104
s23.5 97.833 70.5 163.5s70.5 123.5 70.5 173.5c0 166.667 -23.667 250 -71 250h-99v214h162c60 0 110.333 -40.667 151 -122c30.667 -60 51.667 -130.667 63 -212c48 54.667 95.667 109 143 163c63.333 64 118.333 96 165 96h8
c67.333 -14.667 122.666 -78.334 165.999 -191.001c23.333 -61.333 40.666 -127 51.999 -197c55.333 36.667 107.666 64.667 156.999 84v379h403v-214h-187z" />
    <glyph glyph-name="B" unicode="B" horiz-adv-x="1108" 
d="M156 834c58 40.667 138.501 60.999 241.501 60.999s201.5 -35.333 295.5 -106c40.667 51.333 66.667 117.333 78 198h-788v214h1155v-214h-152c-12 -140.667 -59.667 -258.667 -143 -354c72 -87.333 108 -173.666 108 -258.999c0 -132.667 -44.333 -231.667 -133 -297
s-193.334 -98 -314.001 -98h-1c-67.333 0 -142.333 14 -225 42c-138.667 46.667 -208 102 -208 166c0 49.333 27.667 74 83 74c26.667 0 62.667 -8.66699 108 -26c96 -36.667 187.333 -55 274 -55c65.333 0 117 25 155 75c27.333 36 41 74.667 41 116s-10 77 -30 107
c-111.333 -94.667 -225.5 -142 -342.5 -142s-202.833 33 -257.5 99c-40.667 49.333 -61 105.333 -61 168c0 99.333 38.667 176.333 116 231zM262.001 604.999c0 -40 31.666 -60 94.999 -60s128 27.667 194 83c-51.333 37.333 -101.666 56 -150.999 56
c-92 0 -138 -26.333 -138 -79z" />
    <glyph glyph-name="C" unicode="C" horiz-adv-x="1108" 
d="M269 608c0 -9.33301 8.33301 -46.002 25 -110.002l226 11c189.333 0 320.333 -20.5 393 -61.5s109 -107 109 -198s-35.5 -158.5 -106.5 -202.5s-203 -66 -396 -66s-327.167 22.333 -402.5 67c-60.667 36.667 -91 98.334 -91 185.001s28.333 149.334 85 188.001
c-34 72 -51 140.5 -51 205.5s24 119 72 162s100 64.5 156 64.5h447v134h-750v214h1145v-214h-183v-347h-649c-19.333 0 -29 -10.667 -29 -32zM606 282.998v-89.001c126 4 189 20 189 48c0 6 -2 11 -6 15c-15.333 14.667 -76.333 23.334 -183 26.001zM428 282.997
c-124 -2 -186 -16.333 -186 -43s62 -42 186 -46v89z" />
    <glyph glyph-name="D" unicode="D" horiz-adv-x="1102" 
d="M942 987v-986.999h-213v238c-64.667 -41.333 -153 -62 -265 -62c-81.333 0 -161 26.667 -239 80s-139 115 -183 185c66.667 166 100 313.667 100 443c0 35.333 -2.33301 69.666 -7 102.999h-144v214h1131v-214h-180zM729 987.001h-382c4.66699 -42 7 -81.667 7 -119
c0 -97.333 -24.333 -223.333 -73 -378c58.667 -66 123.5 -99 194.5 -99s155.5 27 253.5 81v515z" />
    <glyph glyph-name="E" unicode="E" horiz-adv-x="1274" 
d="M958 1521c-72.667 2 -164.5 2.99805 -275.5 2.99805s-195.333 -25.5 -253 -76.5s-98.5 -133.167 -122.5 -246.5h999v-214h-155c-53.333 -158 -132.666 -273.333 -237.999 -346c112 -79.333 168 -188 168 -326c0 -90.667 -31.833 -166.5 -95.5 -227.5
s-157.5 -91.5 -281.5 -91.5c-248 0 -421.667 114.667 -521 344c-66.667 154.667 -100 370.334 -100 647.001h-87v214h91c18 158.667 76.667 288.334 176 389.001s227.666 151 384.999 151l158 2c265.333 0 398 -45 398 -135c0 -57.333 -82 -86.333 -246 -87zM297 986.998
c0.666992 -94.667 4.00098 -178.667 10.001 -252c76 -0.666992 134.667 -1 176 -1s70 0.333008 86 1c165.333 4 284.666 88 357.999 252h-630zM682.001 213.998c110.667 0 166 37.333 166 112c0 48 -20.5 94.167 -61.5 138.5s-79.833 66.5 -116.5 66.5
c-4.66699 0 -18.167 -1.5 -40.5 -4.5s-116.833 -4.83301 -283.5 -5.5c68.667 -204.667 180.667 -307 336 -307z" />
    <glyph glyph-name="F" unicode="F" horiz-adv-x="1140" 
d="M457 352c68.667 85.333 169.002 127.998 301.002 127.998c110 0 188.667 -41.333 236 -124c22.667 -40.667 34 -88.167 34 -142.5s-17 -103.166 -51 -146.499c-50.667 -65.333 -135.334 -98 -254.001 -98c-175.333 0 -331.333 97.667 -468 293
c-58.667 82.667 -92 186.334 -100 311.001h-49c-70 0 -105 35 -105 105s28.667 128.167 86 174.5s118.166 69.5 182.499 69.5s96.5 -25.667 96.5 -77v-59h401v201h-783v214h1189v-214h-193v-414h-611c6.66699 -73.333 36 -147 88 -221zM817.002 216.998
c0 39.333 -23.333 58.999 -70 58.999c-53.333 0 -101.333 -23.667 -144 -71c42 -21.333 88.167 -32.166 138.5 -32.499s75.5 14.5 75.5 44.5z" />
    <glyph glyph-name="G" unicode="G" horiz-adv-x="1300" 
d="M364 914c0 -64.667 -38.665 -209.335 -115.998 -434.002c63.333 -59.333 108 -89 134 -89c90.667 0 136 71.333 136 214c0 30 -5.83301 73.833 -17.5 131.5s-17.5 105.834 -17.5 144.501s15.167 89.834 45.5 153.501s68.166 95.5 113.499 95.5c40 0 73.667 -35 101 -105
c22 -55.333 33 -102.833 33 -142.5s-9.16699 -94.167 -27.5 -163.5s-27.5 -128.333 -27.5 -177c0 -96 35.667 -144 107 -144c32 0 54.667 3 68 9s23.333 20 30 42v752h400v-214h-186v-987h-214v205c-36.667 -13.333 -72 -20 -106 -20c-68.667 0 -138 31.333 -208 94
c-78.667 -67.333 -155.334 -101 -230.001 -101s-153.167 31.333 -235.5 94s-126.5 127.334 -132.5 194.001c28.667 53.333 58.5 126.666 89.5 219.999s46.5 165.333 46.5 216s-19.333 79 -58 85h-105v214h165c33.333 0 67.333 -14.667 102 -44
c73.333 -62.667 110 -143.667 110 -243z" />
    <glyph glyph-name="H" unicode="H" 
d="M-177 -264c0 -98.667 -24.3311 -175.667 -72.998 -231s-113.834 -83 -195.501 -83s-157.834 36.333 -228.501 109s-106 144 -106 214c0 114 60 171 180 171c69.333 0 104 -17.167 104 -51.5s-20.667 -54.5 -62 -60.5s-62 -21.333 -62 -46
c0 -34.667 20.5 -71.667 61.5 -111s80.5 -59 118.5 -59c58 0 87 48.667 87 146v219h176v-217z" />
    <glyph glyph-name="I" unicode="I" horiz-adv-x="500" 
d="M310 987l0.00390625 -986.998h-211v987h-109v214h109c0 91.333 -6 156.666 -18 195.999c-22.667 72.667 -69.667 109 -141 109c-48.667 0 -83.334 -10.333 -104.001 -31s-34 -54.667 -40 -102c-2 -12 -5.66699 -38 -11 -78h-202c-0.666992 17.333 -1 33.666 -1 48.999
c0 150.667 49.667 257 149 319c55.333 34.667 114.666 52 177.999 52c159.333 0 269.666 -52 330.999 -156c45.333 -76 68.666 -195.333 69.999 -358h218v-214h-218z" />
    <glyph glyph-name="J" unicode="J" horiz-adv-x="1140" 
d="M243 163l-16.001 0.00195312c-73.333 0 -110 42.333 -110 127c0 40 13.5 72.667 40.5 98s59.833 38 98.5 38s76.667 -17.333 114 -52s73.333 -52.334 108 -53.001h74c132.667 0 202.334 43.333 209.001 130v7c0 40 -19.667 77.667 -59 113s-77 53 -113 53
c-29.333 0 -85.833 -11.333 -169.5 -34s-147.5 -38.667 -191.5 -48c-29.333 4 -60.5 15.667 -93.5 35s-49.5 43 -49.5 71c0 47.333 57.667 83.666 173 108.999c-74 58 -129.333 134.667 -166 230h-105v214h1179v-214h-187c-34 -114 -86 -198.667 -156 -254
c104 -62.667 156 -154.167 156 -274.5s-50.333 -212.5 -151 -276.5c-58 -36.667 -129.667 -55 -215 -55h-22c30.667 -44 46 -75 46 -93c0 -41.333 -21.833 -62 -65.5 -62s-97.167 31.833 -160.5 95.5s-119.333 95.5 -168 95.5zM307.999 987.002
c51.333 -68.667 80 -106 86 -112c42 -38 90.667 -57 146 -57c63.333 0 113.333 19.667 150 59c18 19.333 42 56 72 110h-454z" />
    <glyph glyph-name="K" unicode="K" horiz-adv-x="1112" 
d="M951 987l-0.000976562 -987h-212v251c-68 -36.667 -145.667 -55 -233 -55c-209.333 0 -360 80 -452 240c26.667 72 53.334 144.333 80.001 217c27.333 84.667 41 153.5 41 206.5s-1.66699 85.167 -5 96.5c-6 20.667 -19.667 31 -41 31h-142v214h196
c128 0 195.333 -104.333 202 -313h354v313h404v-214h-192zM738.999 675h-374.002c-13.333 -59.333 -35.666 -125.333 -66.999 -198c62 -45.333 145.333 -68 250 -68c58.667 0 122.334 29.333 191.001 88v178z" />
    <glyph glyph-name="L" unicode="L" horiz-adv-x="1340" 
d="M1092 987l-89.002 -165.002c86 -28 154.333 -79 205 -153s76 -157 76 -249c0 -118.667 -41.667 -219.334 -125 -302.001s-184.666 -124 -303.999 -124h-52v209h52c60.667 0 112 21 154 63s63 91.833 63 149.5s-15.5 107.667 -46.5 150s-71.833 67.166 -122.5 74.499
l-157 -290h-76l-158 290c-51.333 -7.33301 -92.666 -32.166 -123.999 -74.499s-47 -92.166 -47 -149.499s21.333 -107.166 64 -149.499s93.667 -63.5 153 -63.5h52v-209h-52c-118 0 -218.667 41.333 -302 124s-125 183.334 -125 302.001c0 91.333 25.667 174 77 248
s120 125.333 206 154l-89 165h-341v214h1381v-214h-273zM57.998 -65.002c-38 0 -70.333 13.333 -97 40s-40 58.834 -40 96.501s13.333 69.834 40 96.501s59 40 97 40s70.333 -13.333 97 -40s40 -58.834 40 -96.501s-13.333 -69.834 -40 -96.501s-59 -40 -97 -40z
M560.998 986.998l148 -285l147 285h-295z" />
    <glyph glyph-name="M" unicode="M" 
d="M-252 1603c-47.333 0 -81.667 -11.832 -103 -35.499s-32 -47 -32 -70s6.33301 -53.833 19 -92.5c20.667 -44.667 31 -67.667 31 -69c0 -26.667 -13 -40 -39 -40c-14.667 0 -28.667 4.66699 -42 14c-76 53.333 -114 119.333 -114 198s27.667 142 83 190s121 72 197 72
s141.667 -24 197 -72s83 -111.333 83 -190s-38 -144.667 -114 -198c-13.333 -9.33301 -27.333 -14 -42 -14c-26 0 -39 13.333 -39 40c0 1.33301 7 16.666 21 45.999c20 42 30 77.333 30 106s-10.833 55 -32.5 79s-56.167 36 -103.5 36z" />
    <glyph glyph-name="N" unicode="N" horiz-adv-x="246" 
d="M-23 987v214h291v-214h-291zM19 1369c-28.667 28.667 -43 63.167 -43 103.5s14.333 74.833 43 103.5s63.167 43 103.5 43s74.666 -14.333 102.999 -43s42.5 -63.167 42.5 -103.5s-14.167 -74.833 -42.5 -103.5s-62.666 -43 -102.999 -43s-74.833 14.333 -103.5 43z" />
    <glyph glyph-name="O" unicode="O" 
d="M-309 1303c30 54.667 45 96.502 45 125.502s-9.33301 54.833 -28 77.5s-43.667 34 -75 34s-56.833 -10 -76.5 -30s-29.5 -42.333 -29.5 -67s5 -50.334 15 -77.001s15 -45 15 -55s-0.666992 -17.333 -2 -22c-14 -14 -29.5 -21 -46.5 -21s-38.667 10.5 -65 31.5
s-43.333 40.333 -51 58s-14 43.167 -19 76.5s-7.5 50.666 -7.5 51.999c-3.33301 2 -31.833 5.66699 -85.5 11s-98.667 17.166 -135 35.499s-66.5 45.666 -90.5 81.999s-36 73.833 -36 112.5c0 56.667 17.667 87.334 53 92.001h3c16.667 0 32.667 -17.667 48 -53
s24 -53.666 26 -54.999c27.333 -34.667 86 -52 176 -52c32.667 0 84.667 8.66699 156 26s117 25.666 137 24.999h33c83.333 -3.33301 147 -35.333 191 -96c30 -40.667 45 -85.667 45 -135s-14.833 -96.666 -44.5 -141.999s-64.167 -68 -103.5 -68
c-21.333 0 -37.333 11.333 -48 34z" />
    <glyph glyph-name="P" unicode="P" horiz-adv-x="1140" 
d="M972 987l0.000976562 -349.998h-546c-98 0 -147 -36.333 -147 -109c0 -32 12.667 -67.333 38 -106c8 -10 22.333 -28.333 43 -55c129.333 97.333 244.666 146 345.999 146c71.333 0 137.833 -23.833 199.5 -71.5s92.5 -110.834 92.5 -189.501s-26.667 -138.667 -80 -180
c-80 -62.667 -162.667 -94 -248 -94c-160.667 0 -308 68.667 -442 206c-106.667 109.333 -160 223.333 -160 342s46.667 208.667 140 270c29.333 19.333 76.333 37.666 141 54.999h412v136h-770v214h1174v-214h-193zM789.001 260.002c-7.33301 41.333 -36.332 62 -86.999 62
s-109.334 -33 -176.001 -99c68.667 -30.667 117.667 -46 147 -46c78 0 117 23.333 117 70c0 4 -0.333008 8.33301 -1 13z" />
    <glyph glyph-name="Q" unicode="Q" horiz-adv-x="1112" 
d="M951 987v-987h-212v205c-87.333 -44.667 -175.333 -67 -264 -67s-172 28 -250 84c-77.333 56 -137.333 116 -180 180c64 162.667 96 315.334 96 458.001c0 43.333 -3 85.666 -9 126.999h-143v214h1149v-214h-187zM739 987l-392 0.000976562
c7.33301 -47.333 11 -86.333 11 -117s-1 -55.334 -3 -74.001h384v191zM739 583.001h-423l-33 -130c58 -67.333 123.5 -101 196.5 -101s159.5 27.667 259.5 83v148z" />
    <glyph glyph-name="R" unicode="R" 
d="M-356 -307c-44.667 -51.333 -91 -77.001 -139 -77.001s-84.667 13.333 -110 40s-38 61.667 -38 105c0 47.333 15.333 85.833 46 115.5s65 44.5 103 44.5s74.667 -5.33301 110 -16c4 9.33301 11 28.333 21 57h175c-20.667 -59.333 -39 -104.333 -55 -135
c62 -50 117 -115.333 165 -196c18 -30.667 27 -57 27 -79s-13.5 -33 -40.5 -33s-69.833 25.333 -128.5 76s-104 83.334 -136 98.001z" />
    <glyph glyph-name="S" unicode="S" horiz-adv-x="1140" 
d="M979 987l-0.00195312 -987.001h-214v475h-373c-20 -82.667 -38.333 -160.334 -55 -233.001c-28.667 -126 -81.667 -189 -159 -189c-41.333 0 -76.666 14.833 -105.999 44.5s-44 65.334 -44 107.001s26.5 117.334 79.5 227.001s79.5 200.167 79.5 271.5
c0 38 -3.16699 72.667 -9.5 104s-20.166 91.333 -41.499 180h-149v214h1185v-214h-193zM650.998 70.999c-26.667 -26.667 -58.834 -40 -96.501 -40s-70 13.333 -97 40s-40.5 58.834 -40.5 96.501s13.5 69.834 40.5 96.501s59.333 40 97 40s69.834 -13.333 96.501 -40
s40 -58.834 40 -96.501s-13.333 -69.834 -40 -96.501zM764.998 986.999h-408c26 -100 41 -199 45 -297h363v297z" />
    <glyph glyph-name="T" unicode="T" horiz-adv-x="1140" 
d="M639 987l1 -127.001c117.333 -25.333 213.333 -78 288 -158c76 -81.333 114 -177.333 114 -288c0 -136.667 -52.667 -242.667 -158 -318c-92.667 -66.667 -209.5 -100 -350.5 -100s-258.167 33.333 -351.5 100c-105.333 75.333 -158 181.333 -158 318
c0 110.667 37.5 206.334 112.5 287.001s171.833 133.667 290.5 159v127h-431v214h1164v-214h-521zM237 410.999c0 -136 98.667 -204 296 -204s296 68 296 204v1c0 59.333 -28.333 114.833 -85 166.5s-127 77.5 -211 77.5s-154.333 -26 -211 -78s-85 -107.667 -85 -167z" />
    <glyph glyph-name="U" unicode="U" 
d="M-246 -262c-124.667 -45.333 -239.167 -68 -343.5 -68s-217.833 22.667 -340.5 68v178c124 -45.333 239.5 -68 346.5 -68s219.5 22.667 337.5 68v-178zM-246 -562c-130.667 -42.667 -247.167 -64 -349.5 -64s-213.833 21.333 -334.5 64v178
c124 -42.667 239.5 -64 346.5 -64s219.5 21.333 337.5 64v-178z" />
    <glyph glyph-name="V" unicode="V" horiz-adv-x="1160" 
d="M603 590l-292.003 -22.0029c-59.333 0 -110 8.33301 -152 25c-55.333 22 -83 56.333 -83 103c0 86.667 83 130 249 130c34 0 77.833 -4 131.5 -12s92.834 -12 117.501 -12c77.333 0 147.666 61.667 210.999 185h-790v214h1188v-214h-172c-29.333 -102 -78 -186 -146 -252
c86 -60 129 -138.667 129 -236c0 -71.333 -20.167 -137.5 -60.5 -198.5s-93.166 -105.5 -158.499 -133.5c47.333 -61.333 71 -111 71 -149c0 -26.667 -15.167 -40 -45.5 -40s-66.5 16.167 -108.5 48.5s-79.333 61.833 -112 88.5c-18 -1.33301 -47.667 -2 -89 -2
s-99.666 7 -174.999 21c4 -11.333 10 -26.666 18 -45.999s12 -36.666 12 -51.999c0 -36 -15.667 -54 -47 -54c-54.667 0 -124 63 -208 189c-46 68.667 -69 124.334 -69 167.001c0 56.667 29.667 85 89 85c18.667 0 53 -11.333 103 -34c104 -46 199.333 -69 286 -69
s155.334 18 206.001 54s76 74.667 76 116c0 66.667 -59.667 100 -179 100z" />
    <glyph glyph-name="W" unicode="W" horiz-adv-x="480" 
d="M301 1355c-30 -30.667 -66.167 -46 -108.5 -46s-78.5 15.333 -108.5 46s-45 67.667 -45 111s15 80.333 45 111s66.167 46 108.5 46s78.5 -15.333 108.5 -46s45 -67.667 45 -111s-15 -80.333 -45 -111zM292 987v-547h-208v547h-107v214h531v-214h-216z" />
    <glyph glyph-name="X" unicode="X" horiz-adv-x="1220" 
d="M4 396c74 224 111 379.332 111 465.999c0 30.667 -4.33301 72.334 -13 125.001h-114v214h1269v-214h-198v-987h-211v488h-133v-129c0 -79.333 -23.833 -144.5 -71.5 -195.5s-112 -76.5 -193 -76.5s-167.833 32 -260.5 96s-154.667 135 -186 213zM505 455.999
l-5.99805 245.001h349v286h-531c7.33301 -46.667 11 -83.334 11 -110.001c0 -130 -30 -275.333 -90 -436c31.333 -35.333 71.666 -68.5 120.999 -99.5s82.666 -46.5 99.999 -46.5c30.667 0 46 53.667 46 161z" />
    <glyph glyph-name="Y" unicode="Y" 
d="M-739 1632l-95.001 -5c-62.667 0 -94 24.667 -94 74c0 35.333 17.167 62.833 51.5 82.5s67.833 29.5 100.5 29.5c128.667 0 239.334 -48 332.001 -144c67.333 -70 132 -174.667 194 -314c21.333 -48 32 -82.667 32 -104s-9 -32 -27 -32
c-0.666992 0 -11.667 5.83301 -33 17.5s-62.333 32.834 -123 63.501c-92 46.667 -188 70 -288 70l-142 -7c-77.333 0 -116 25 -116 75c0 29.333 12.333 53.5 37 72.5s49.334 30 74.001 33s47.667 4.5 69 4.5c123.333 0 261.666 -56 414.999 -168
c-29.333 45.333 -78 98.666 -146 159.999s-148.333 92 -241 92z" />
    <glyph glyph-name="Z" unicode="Z" horiz-adv-x="1352" 
d="M1192 987v-987h-213v987h-175v-679c0 -205.333 -92.667 -308 -278 -308c-116 0 -215 48 -297 144s-123 196.5 -123 301.5s32 188.333 96 250s143 92.5 237 92.5h152v199h-602v214h1393v-214h-190zM85 -89c-38 0 -70.333 13.333 -97 40s-40 58.834 -40 96.501
s13.333 69.834 40 96.501s59 40 97 40s70.333 -13.333 97 -40s40 -58.834 40 -96.501s-13.333 -69.834 -40 -96.501s-59 -40 -97 -40zM591 578l-96 -0.000976562c-118 0 -177 -38 -177 -114c0 -55.333 21.833 -111.166 65.5 -167.499s91.167 -84.5 142.5 -84.5
c35.333 0 57 17.667 65 53v313z" />
    <glyph glyph-name="bracketleft" unicode="[" horiz-adv-x="1200" 
d="M514 -19v1220h188v-1220h-188z" />
    <glyph glyph-name="backslash" unicode="\" horiz-adv-x="1120" 
d="M960 987l0.000976562 -333.997h-595c-16 0 -34.833 -5.5 -56.5 -16.5s-32.834 -22.667 -33.501 -35s5.5 -29.333 18.5 -51s24.167 -32.5 33.5 -32.5h625v-211h-409c41.333 -96.667 118.333 -145 231 -145c33.333 0 97.333 13 192 39l-52 -176
c-101.333 -40.667 -173.666 -61 -216.999 -61c-94 0 -178.667 37.667 -254 113c-60.667 59.333 -105.334 130 -134.001 212c-26 17.333 -59.5 33.166 -100.5 47.499s-75.5 45.666 -103.5 93.999s-42 100.5 -42 156.5c0 116 59 197 177 243c-10 13.333 -25.667 32.333 -47 57
c-8 11.333 -20.667 44.666 -38 99.999h-167v214h1152v-214h-180zM752.001 987.003h-378c2 -15.333 13 -38.333 33 -69c45.333 -40 90.333 -60 135 -60h210v129z" />
    <glyph glyph-name="bracketright" unicode="]" horiz-adv-x="1140" 
d="M652 -19v1220h206v-1220h-206zM271 -19v1220h206v-1220h-206z" />
    <glyph glyph-name="asciicircum" unicode="^" horiz-adv-x="1112" 
d="M951 987l-0.00195312 -987.001h-211v282c-64.667 -32 -143.5 -48 -236.5 -48s-181.667 18.5 -266 55.5s-147.166 90.833 -188.499 161.5c6 34.667 21.667 81.334 47 140.001s40 93.667 44 105c20 58.667 30 124 30 196c0 14 -0.333008 28.333 -1 43
c-1.33301 34.667 -26 52 -74 52h-104v214h189c46.667 0 86.834 -17.5 120.501 -52.5s55.5 -70.5 65.5 -106.5s15.667 -87.333 17 -154h357v313h403v-214h-192zM126.998 -34.001c-38 0 -70.5 13.5 -97.5 40.5s-40.5 59.667 -40.5 98s13.5 71 40.5 98s59.5 40.5 97.5 40.5
s70.5 -13.5 97.5 -40.5s40.5 -59.667 40.5 -98s-13.5 -71 -40.5 -98s-59.5 -40.5 -97.5 -40.5zM739.998 674.999h-383c-16.667 -50.667 -38 -108.667 -64 -174c55.333 -33.333 126.333 -50 213 -50s164.667 15.333 234 46v178z" />
    <glyph glyph-name="underscore" unicode="_" horiz-adv-x="822" 
d="M826 -316h-830v136h830v-136z" />
    <glyph glyph-name="grave" unicode="`" 
d="M-382 1344c-92 62.667 -138.001 152.332 -138.001 268.999c0 62 12.667 93 38 93c18 0 35.5 -27.333 52.5 -82s39.667 -97.834 68 -129.501s72 -47.5 131 -47.5s102.667 15.833 131 47.5s51 74.834 68 129.501s34.5 82 52.5 82c25.333 0 38 -29.667 38 -89
s-11 -111.666 -33 -156.999s-56.667 -84 -104 -116s-98.166 -48 -152.499 -48s-104.833 16 -151.5 48z" />
    <glyph glyph-name="a" unicode="a" horiz-adv-x="1262" 
d="M1141 987c-56 -167.333 -136 -286.333 -240 -357c105.333 -84 158 -186 158 -306c0 -92 -33.167 -170.667 -99.5 -236s-156.5 -98 -270.5 -98c-410.667 0 -616 332.333 -616 997h-86v214h88c10 156 64 277.167 162 363.5s225.833 129.5 383.5 129.5
s283.167 -43.167 376.5 -129.5s145 -207.5 155 -363.5h132v-214h-143zM619 1480c-202 0 -311.998 -92.999 -329.998 -278.999h646c-10.667 97.333 -39.834 168.166 -87.501 212.499s-123.834 66.5 -228.501 66.5zM287.002 987.001c0.666992 -102.667 4 -190.001 10 -262.001
c93.333 -0.666992 163.333 -1 210 -1h53c160.667 2.66699 279.667 90.334 357 263.001h-630zM672.002 204c112.667 0 169.001 38 169.001 114c0 48 -20.167 93.833 -60.5 137.5s-78.833 65.5 -115.5 65.5c-4.66699 0 -18.167 -1.5 -40.5 -4.5s-118.833 -4.83301 -289.5 -5.5
c69.333 -204.667 181.666 -307 336.999 -307z" />
    <glyph glyph-name="b" unicode="b" horiz-adv-x="1090" 
d="M933 987l0.000976562 -986.999h-215v148c-82 -45.333 -166 -68 -252 -68c-118.667 0 -225.334 42 -320.001 126c-50 44 -88.333 100.667 -115 170c30 64.667 63.667 116.667 101 156s90 84.666 158 135.999c-102 84 -166.667 190.333 -194 319h-105v214h1121v-214h-179z
M718.001 987.001h-407c30.667 -80 94 -154.667 190 -224h217v224zM718.001 550.001h-240.998c-48.667 -27.333 -115 -86.333 -199 -177c73.333 -54 142.333 -81 207 -81c37.333 0 81.166 6.33301 131.499 19s84.166 30 101.499 52v187z" />
    <glyph glyph-name="c" unicode="c" horiz-adv-x="1146" 
d="M985 987l0.000976562 -629c0 -118 -35.5 -207.167 -106.5 -267.5s-161.833 -90.5 -272.5 -90.5c-205.333 0 -344.333 105.667 -417 317c-12.667 38 -22.334 103.667 -29.001 197h-49c-74.667 0 -112 39.667 -112 119c0 68.667 26 125.5 78 170.5s113.833 67.5 185.5 67.5
s107.5 -34.333 107.5 -103v-42h400v261h-781v214h1178v-214h-182zM770.001 514h-397c4.66699 -94.667 19.334 -163.667 44.001 -207c35.333 -61.333 95.666 -92 180.999 -92c114.667 0 172 44.333 172 133v166z" />
    <glyph glyph-name="d" unicode="d" horiz-adv-x="1140" 
d="M980 987v-484h-605c4.66699 -98 27 -172.167 67 -222.5s108 -75.5 204 -75.5c34.667 0 73 7.83301 115 23.5s79 29.5 111 41.5s55.667 18 71 18c44 0 66 -20.667 66 -62c0 -44.667 -36.333 -93.5 -109 -146.5s-158.667 -79.5 -258 -79.5c-305.333 0 -464 167 -476 501
h-75c-56 0 -84 33.333 -84 100s28.5 129.5 85.5 188.5s117.833 88.5 182.5 88.5s97 -29.333 97 -88v-75h397v272h-778v214h1173v-214h-184z" />
    <glyph glyph-name="e" unicode="e" horiz-adv-x="1136" 
d="M924 570l-201.998 4.00098c-102.667 0 -190.834 -12.833 -264.501 -38.5s-142.167 -77.834 -205.5 -156.501c47.333 -47.333 109.166 -89.666 185.499 -126.999s140.833 -56 193.5 -56c58.667 0 116.167 27 172.5 81s93.5 81 111.5 81c39.333 0 59 -26.667 59 -80
s-31.833 -111.333 -95.5 -174s-130.5 -96.667 -200.5 -102c-12 -0.666992 -24.333 -1 -37 -1c-123.333 0 -248.333 35 -375 105s-210.667 158.333 -252 265c24.667 100.667 111.667 204 261 310c-24 24 -58.333 61.667 -103 113c-39.333 53.333 -68.333 117.666 -87 192.999
h-94v214h1171v-214h-187v-417h-51zM764.002 987.001h-456.001c14.667 -39.333 32.334 -70.333 53.001 -93c56.667 -62.667 112.667 -99.667 168 -111h235v204z" />
    <glyph glyph-name="f" unicode="f" horiz-adv-x="1140" 
d="M962 987c-28 -57.333 -57.334 -105.001 -88.001 -143.001c-26.667 -25.333 -64 -61 -112 -107c67.333 -28 119.166 -70.667 155.499 -128s54.5 -120 54.5 -188c0 -138.667 -63.333 -248 -190 -328c-128 -80.667 -245.667 -121 -353 -121s-194.666 17.333 -261.999 52
c-90.667 48 -136 121 -136 219c0 82.667 27.333 144.834 82 186.501s126 62.5 214 62.5c158.667 0 296.667 -52.333 414 -157c17.333 33.333 26 65 26 95c0 58 -28.667 104.5 -86 139.5s-123.333 52.5 -198 52.5c-27.333 0 -67.166 -5.16699 -119.499 -15.5
s-92.166 -15.5 -119.499 -15.5c-124.667 0 -187 44.333 -187 133c0 50.667 22.667 88.167 68 112.5s86.666 36.5 123.999 36.5s79.5 -6.5 126.5 -19.5s82.833 -19.5 107.5 -19.5c96 0 180 51 252 153h-745v214l1170 1v-215h-198zM577.999 204.999
c-74.667 60.667 -148.333 91.001 -221 91.001s-109 -17 -109 -51c0 -14.667 12.167 -30.834 36.5 -48.501s57.333 -26.5 99 -26.5s106.5 11.667 194.5 35z" />
    <glyph glyph-name="g" unicode="g" horiz-adv-x="1236" 
d="M1258 987h-183v-987h-213v987h-164v-679c0 -205.333 -92 -308 -276 -308c-114 0 -207.667 47.5 -281 142.5s-110 195.833 -110 302.5s28.833 190.667 86.5 252s133.167 92 226.5 92h141v198h-490v214h1263v-214zM485 578l-95.999 0.000976562
c-64.667 0 -105.334 -8.66699 -122.001 -26s-25 -50.833 -25 -100.5s17.167 -101.834 51.5 -156.501s76.5 -82 126.5 -82c35.333 0 57 17.333 65 52v313z" />
    <glyph glyph-name="h" unicode="h" horiz-adv-x="1072" 
d="M912 987l0.000976562 -656.999c0 -96 -27.833 -175 -83.5 -237s-131.834 -93 -228.501 -93c-128 0 -250.167 56.167 -366.5 168.5s-174.5 232.166 -174.5 359.499c0 72 28 132.167 84 180.5s119.667 72.5 191 72.5h136v-212h-121c-52.667 0 -79 -19.667 -79 -59
c0 -52 38 -114.5 114 -187.5s145.667 -109.5 209 -109.5c72 0 108 37.667 108 113v661h-706v214h1100v-214h-183z" />
    <glyph glyph-name="i" unicode="i" horiz-adv-x="490" 
d="M497 1715c234 0 351.002 -115.669 351.002 -347.002c0 -23.333 -1.33301 -47.666 -4 -72.999h-203c-2.66699 42 -5.16699 72.167 -7.5 90.5s-8.5 37.5 -18.5 57.5c-20 42 -63.833 63 -131.5 63s-112.834 -36.333 -135.501 -109c-12 -39.333 -18 -104.666 -18 -195.999
h179v-214h-179v-987h-211v987h-128v214h128c1.33301 164.667 24.666 285.667 69.999 363c58 100.667 160.667 151 308 151z" />
    <glyph glyph-name="j" unicode="j" horiz-adv-x="1140" 
d="M980 987v-987h-213v475h-387v-475h-215v475h-39c-76.667 0 -115 38.667 -115 116c0 71.333 25.167 131.333 75.5 180s111.833 73 184.5 73s109 -33 109 -99v-57h387v299h-772v214h1166v-214h-181z" />
    <glyph glyph-name="k" unicode="k" horiz-adv-x="1192" 
d="M385 874c132.667 0 259.669 -58.665 381.002 -175.998c42.667 103.333 68 199.666 76 288.999h-847v214h1218v-214h-160c-10.667 -102.667 -27.167 -191.5 -49.5 -266.5s-55.166 -147.167 -98.499 -216.5c71.333 -160.667 134 -328.667 188 -504h-220
c-4.66699 10.667 -40.334 109.667 -107.001 297c-106.667 -134.667 -237.334 -202 -392.001 -202c-112 0 -203.667 36.667 -275 110s-107 164.333 -107 273c0 121.333 39.167 217.666 117.5 288.999s170.166 107 275.499 107zM569.002 591.002
c-57.333 44.667 -115.168 67 -173.501 67s-103.166 -17 -134.499 -51s-47 -76 -47 -126s16 -91.333 48 -124s72 -49 120 -49c96 0 186.667 66 272 198z" />
    <glyph glyph-name="l" unicode="l" horiz-adv-x="1224" 
d="M980 987l-88 -165c85.333 -28 153.333 -79 204 -153s76 -157 76 -249c0 -118.667 -41.667 -219.334 -125 -302.001s-184.333 -124 -303 -124h-52v209h52c60 0 111.167 21 153.5 63s63.5 91.833 63.5 149.5s-15.5 107.667 -46.5 150s-71.833 67.166 -122.5 74.499
l-167 -290h-56l-167 290c-51.333 -7.33301 -92.666 -32.166 -123.999 -74.499s-47 -92.166 -47 -149.499s21.167 -107.166 63.5 -149.499s93.5 -63.5 153.5 -63.5h51v-209h-51c-118.667 0 -219.5 41.5 -302.5 124.5s-124.5 183.5 -124.5 301.5
c0 91.333 25.667 174.166 77 248.499s119.666 125.5 204.999 153.5l-88 165h-222v214h1258v-214h-271zM450 987l148 -285l147 285h-295z" />
    <glyph glyph-name="m" unicode="m" horiz-adv-x="1140" 
d="M980 987v-987.001h-213v481h-379c-13.333 -118 -28.666 -203.667 -45.999 -257c-36 -112.667 -90.333 -169 -163 -169c-95.333 0 -143 49.667 -143 149c0 45.333 14.167 98.5 42.5 159.5s55.166 118.5 80.499 172.5c23.333 58 35 138.333 35 241s-5 163.334 -15 182.001
s-30 28 -60 28h-129v214h189c154 0 231 -134.667 231 -404c0 -27.333 -0.666992 -62 -2 -104h359v508h396v-214h-183z" />
    <glyph glyph-name="n" unicode="n" horiz-adv-x="1140" 
d="M531 631c-64 0 -124 -23.833 -180 -71.5s-84 -103 -84 -166s10.833 -109.833 32.5 -140.5s58.5 -51.667 110.5 -63v-221c-114.667 15.333 -202.834 60.166 -264.501 134.499s-92.5 169.833 -92.5 286.5c0 122 45 226 135 312c62 60 141.333 102.667 238 128v157h-438v214
h1176v-214h-525v-157c96.667 -25.333 176.334 -68 239.001 -128c89.333 -85.333 134 -187.833 134 -307.5s-30.667 -216.667 -92 -291s-149.333 -119.166 -264 -134.499v221c51.333 11.333 88 32.333 110 63s33 77.5 33 140.5s-28.667 118.333 -86 166s-118 71.5 -182 71.5z
" />
    <glyph glyph-name="o" unicode="o" 
d="M-620 1626l163 3c127.333 0 210 -26 248 -78c20 -27.333 30 -62 30 -104c0 -42.667 -7.5 -80 -22.5 -112s-32.167 -48 -51.5 -48c-2 0 -4.83301 0.166992 -8.5 0.5s-8.5 12.333 -14.5 36s-11.167 41.334 -15.5 53.001s-16.5 30.167 -36.5 55.5
c-8.66699 11.333 -53.5 18 -134.5 20s-175.833 4 -284.5 6c-44 6 -78.833 31.833 -104.5 77.5s-38.5 89.167 -38.5 130.5c0 47.333 8.33301 84.666 25 111.999s34 41 52 41c23.333 0 36.333 -11.667 39 -35c2 -26 4 -51.667 6 -77c9.33301 -36.667 25.333 -61 48 -73
c24.667 -5.33301 58 -8 100 -8z" />
    <glyph glyph-name="p" unicode="p" horiz-adv-x="1134" 
d="M974 987l0.000976562 -987h-213v256c-88 -48.667 -182 -73 -282 -73s-197.333 34.667 -292 104c-66 48.667 -107 97 -123 145v9c0 38 12.333 88 37 150c25.333 62.667 47.166 118.167 65.499 166.5s27.5 85.5 27.5 111.5c0 78.667 -28.333 118 -85 118h-117v214h182
c67.333 0 123.5 -32.667 168.5 -98s67.5 -132 67.5 -200c0 -8.66699 -0.666992 -16.667 -2 -24c-16.667 -153.333 -56 -286.333 -118 -399c80.667 -60 156.5 -90 227.5 -90s152.167 30.333 243.5 91v720h394v-214h-181z" />
    <glyph glyph-name="q" unicode="q" horiz-adv-x="1140" 
d="M978 987c-27.333 -147.333 -82.3301 -262.333 -164.997 -345c114 -76 171 -170 171 -282s-34 -200.333 -102 -265s-155.333 -97 -262 -97c-42 0 -116 14.333 -222 43c-22.667 6 -68 24.667 -136 56c-144 66 -215.667 122 -215 168c0 10.667 5.33301 20.834 16 30.501
s25.5 14.5 44.5 14.5s72 -14.667 159 -44s146.167 -46.333 177.5 -51s80.166 -7 146.499 -7s113.666 13.333 141.999 40s42.5 59 42.5 97c0 63.333 -28 109.666 -84 138.999s-126.667 44 -212 44c-25.333 0 -61.666 -4 -108.999 -12s-83 -12 -107 -12
c-121.333 0 -182 47.333 -182 142c0 88 52.667 132 158 132c33.333 0 82.166 -7.66699 146.499 -23s113.166 -23 146.499 -23c107.333 0 183 85 227 255h-767v214l1172 1v-215h-186z" />
    <glyph glyph-name="r" unicode="r" horiz-adv-x="1054" 
d="M894 987l-0.000976562 -653.001c0 -94.667 -22 -174.334 -66 -239.001s-112 -97 -204 -97c-64.667 0 -134.167 21.833 -208.5 65.5s-141.833 99.834 -202.5 168.501c-106.667 120.667 -160 232.334 -160 335.001c0 68 25.333 125.333 76 172s116.334 70 197.001 70h355
v178h-685v214h1081v-214h-183zM680.999 595.999h-343c-46 0 -69 -15 -69 -45c0 -11.333 3.33301 -24 10 -38c26 -55.333 60.667 -106 104 -152c94.667 -101.333 174 -152 238 -152c40 0 60 31.667 60 95v292z" />
    <glyph glyph-name="s" unicode="s" horiz-adv-x="1140" 
d="M979 987l-0.00195312 -987.001h-214v475h-373c-20 -82.667 -38.333 -160.334 -55 -233.001c-28.667 -126 -81.667 -189 -159 -189c-41.333 0 -76.666 14.833 -105.999 44.5s-44 65.334 -44 107.001s26.5 117.334 79.5 227.001s79.5 200.167 79.5 271.5
c0 38 -3.16699 72.667 -9.5 104s-20.166 91.333 -41.499 180h-149v214h1185v-214h-193zM764.998 986.999h-408c26 -100 41 -199 45 -297h363v297z" />
    <glyph glyph-name="t" unicode="t" horiz-adv-x="1122" 
d="M962 987l0.00390625 -337.001c-38.667 2 -74.334 3 -107.001 3c-132 0 -243.167 -20.667 -333.5 -62s-177.833 -114.666 -262.5 -219.999c46.667 -41.333 107.667 -80.166 183 -116.499s142.666 -54.5 201.999 -54.5s112 16.333 158 49
c21.333 17.333 45 36.666 71 57.999s48.333 32 67 32c28 0 42 -19.667 42 -59c0 -74.667 -40.333 -141 -121 -199s-167.334 -87 -260.001 -87s-206 38.333 -340 115s-213.667 159.667 -239 249c10.667 60.667 50.334 127.5 119.001 200.5s133.667 131 195 174
s119.666 71.333 174.999 85s134.666 27.5 237.999 41.5v128h-754v214h1149v-214h-182z" />
    <glyph glyph-name="u" unicode="u" 
d="M-246 -312c-127.333 -44 -242.5 -66 -345.5 -66s-215.833 22 -338.5 66v190c124 -46.667 239.5 -70 346.5 -70s219.5 23.333 337.5 70v-190z" />
    <glyph glyph-name="v" unicode="v" horiz-adv-x="1096" 
d="M935 987l-0.00195312 -339.001h-607c-67.333 0 -101 -16.333 -101 -49c0 -13.333 7.5 -29.166 22.5 -47.499s28.5 -27.5 40.5 -27.5h623v-213h-412c37.333 -92 106.333 -138 207 -138c52.667 0 125.334 11 218.001 33l-50 -183c-88 -35.333 -160.667 -53 -218 -53
c-92.667 0 -172.167 32.333 -238.5 97s-114.833 144.334 -145.5 239.001c-7.33301 8.66699 -21.333 16.667 -42 24s-49 18.666 -85 33.999c-71.333 38 -114.666 108.667 -129.999 212c-2 11.333 -3 22 -3 32c0 72 32 131.833 96 179.5s132.333 71.5 205 71.5h409v128h-730
v214h1121v-214h-180z" />
    <glyph glyph-name="w" unicode="w" horiz-adv-x="480" 
d="M292 987v-547h-208v547h-107v214h531v-214h-216z" />
    <glyph glyph-name="x" unicode="x" horiz-adv-x="1160" 
d="M525 987c50 -24 128.334 -56.332 235.001 -96.999c60.667 -18.667 151.667 -39 273 -61v-185c-94 15.333 -163.333 29.666 -208 42.999v-322h-58c-36 68 -73.667 112.667 -113 134c-60 32 -116 48 -168 48c-12 -0.666992 -24 -1.66699 -36 -3
c-61.333 -9.33301 -123 -75.666 -185 -198.999c39.333 -47.333 94 -85.666 164 -114.999c80 -33.333 155.833 -49.833 227.5 -49.5s144.5 14.833 218.5 43.5s124.833 43 152.5 43s41.5 -10.667 41.5 -32c0 -38 -36.667 -84.333 -110 -139
c-44.667 -32.667 -81 -55.334 -109 -68.001c-74.667 -32 -144 -48 -208 -48c-132.667 0 -257.334 30.5 -374.001 91.5s-196 150.833 -238 269.5c112 263.333 250.333 395 415 395c56.667 0 116.334 -16 179.001 -48v72c-52.667 15.333 -127 42.666 -223 81.999
c-40.667 22.667 -90.334 71 -149.001 145h-259v214l1187 1v-215h-655z" />
    <glyph glyph-name="y" unicode="y" 
d="M-933 1599c0 80 39.3311 120 117.998 120c110.667 0 220.667 -39.333 330 -118c52.667 -38 110.5 -97.833 173.5 -179.5s94.5 -142.167 94.5 -181.5c0 -16.667 -5.66699 -25 -17 -25c-5.33301 0 -26.166 20.833 -62.499 62.5s-80.833 78.167 -133.5 109.5
c-14.667 8.66699 -57.167 30.667 -127.5 66s-168.166 53 -293.499 53h-14l-46 28c-14.667 14 -22 35.667 -22 65z" />
    <glyph glyph-name="z" unicode="z" horiz-adv-x="1140" 
d="M980 987v-987h-213v475h-387v-475h-215v475h-39c-76.667 0 -115 38.667 -115 116c0 71.333 25.167 131.333 75.5 180s111.833 73 184.5 73s109 -33 109 -99v-57h387v299h-773v214h1172v-214h-186zM677.5 71c-27 -26.667 -59.333 -40 -97 -40s-69.834 13.333 -96.501 40
s-40 58.834 -40 96.501s13.333 69.834 40 96.501s58.834 40 96.501 40s70 -13.333 97 -40s40.5 -58.834 40.5 -96.501s-13.5 -69.834 -40.5 -96.501z" />
    <glyph glyph-name="braceleft" unicode="{" horiz-adv-x="788" 
d="M280 264c0 63.333 -21.333 108.17 -64 134.503s-104.667 39.5 -186 39.5v234c81.333 0 143.333 13.167 186 39.5s64 71.166 64 134.499v310c0 72 13.333 126.667 40 164s70.5 64.666 131.5 81.999s146.5 26 256.5 26v-220
c-64.667 -1.33301 -109.167 -12.833 -133.5 -34.5s-36.5 -56.167 -36.5 -103.5v-292c0 -122 -76 -194 -228 -216v-12c152.667 -22.667 228.667 -94.667 228 -216v-292c0 -47.333 12.333 -81.833 37 -103.5s69 -33.167 133 -34.5v-220c-108 0 -192.833 8.33301 -254.5 25
s-106 43.667 -133 81s-40.5 92.666 -40.5 165.999v308z" />
    <glyph glyph-name="bar" unicode="|" horiz-adv-x="1110" 
d="M275 987l0.000976562 -118.999h373c108 0 191.667 -30.333 251 -91s89 -135 89 -223c0 -120 -48.333 -220.333 -145 -301c40 -62 68.667 -108.667 86 -140s35 -72.333 53 -123h-225c-12 24.667 -37 70 -75 136c-86.667 -82.667 -194.334 -124 -323.001 -124
c-87.333 0 -163.333 25 -228 75s-97 115.5 -97 196.5c0 81.667 25.333 150.5 76 206.5c54.667 60 131.334 90 230.001 90c72 0 135.167 -12.5 189.5 -37.5s112.166 -66.167 173.499 -123.5c42.667 48.667 64 91.167 64 127.5s-17.5 65.166 -52.5 86.499
s-71.167 32 -108.5 32h-544v332h-74v214h1151v-214h-864zM253.001 285.001c0 -46.667 43.666 -70 130.999 -70c54.667 0 106.334 19 155.001 57c-62.667 52.667 -126 79 -190 79s-96 -22 -96 -66z" />
    <glyph glyph-name="braceright" unicode="}" horiz-adv-x="788" 
d="M508 -44c0 -72.667 -13.3311 -127.667 -39.998 -165s-70.834 -64.5 -132.501 -81.5s-146.834 -25.5 -255.501 -25.5v220c64.667 1.33301 109.167 13.333 133.5 36s36.5 56.667 36.5 102v292c0 121.333 76 193.333 228 216v12c-152 22.667 -228 94.667 -228 216v292
c0 45.333 -12 79.166 -36 101.499s-68.667 34.5 -134 36.5v220c206.667 0 336 -35.333 388 -106c26.667 -37.333 40 -92.666 40 -165.999v-310c0 -63.333 21.333 -108.166 64 -134.499s104.667 -39.5 186 -39.5v-234c-81.333 0 -143.333 -13.333 -186 -40
s-64 -71.334 -64 -134.001v-308z" />
    <glyph glyph-name="asciitilde" unicode="~" horiz-adv-x="400" 
d="M-5 987v214h463v-214h-463zM439 1710c28 0 42.002 -29.332 42.002 -87.999s-7.66699 -108.334 -23 -149.001c-44 -115.333 -124.833 -173 -242.5 -173s-198.5 57.667 -242.5 173c-16 40 -24 89.5 -24 148.5s14 88.5 42 88.5c17.333 0 31.666 -18.167 42.999 -54.5
s28 -79.5 50 -129.5s65.667 -75 131 -75s109 25 131 75s38.667 93.167 50 129.5s25.666 54.5 42.999 54.5z" />
    <glyph glyph-name="nonbreakingspace" unicode="&#xa0;" horiz-adv-x="700" 
 />
    <glyph glyph-name="exclamdown" unicode="&#xa1;" horiz-adv-x="1820" 
d="M662 710c45.333 229.333 171.669 344.002 379.002 344.002c30 0 69 -1.33301 117 -4c37.333 70 158 232 362 486c126.667 158 276.167 237 448.5 237s298.166 -75.667 377.499 -227c32 -62 48 -128.5 48 -199.5s-12.667 -106.5 -38 -106.5c-16.667 0 -32 25.5 -46 76.5
s-26.667 97.5 -38 139.5c-60.667 142 -157.334 213 -290.001 213c-70.667 0 -142.667 -20.833 -216 -62.5s-136 -95.834 -188 -162.501c-98.667 -135.333 -220.667 -300.333 -366 -495c-42.667 0 -116.667 -1 -222 -3c-72 -1.33301 -129.333 -37.333 -172 -108
c-22.667 -38 -38.667 -80.667 -48 -128h608v-102h-82c-30 -106.667 -82 -183.334 -156 -230.001c69.333 -40 104 -100.667 104 -182c0 -54 -18.5 -101.5 -55.5 -142.5s-91.167 -61.5 -162.5 -61.5c-212 0 -332.667 145.333 -362 436c-4.66699 43.333 -7 79.333 -7 108
s1 52.667 3 72h-66v102h68zM261.003 776.002c171.333 0 256.999 -80.666 256.999 -241.999c0 -44.667 -2.33301 -88 -7 -130s-7 -90.667 -7 -146c0 -117.333 22.667 -204 68 -260c1.33301 -4.66699 2 -9 2 -13c0 -16 -10.667 -24 -32 -24s-47.666 22.5 -78.999 67.5
s-49.666 91.667 -54.999 140s-8 91.833 -8 130.5s2 81 6 127c-59.333 -32 -115 -48 -167 -48s-100.833 19 -146.5 57s-68.5 84.667 -68.5 140s20.167 102.666 60.5 141.999s99.166 59 176.499 59zM1198 608.003l-434 -0.000976562v-56.5c0 -27.667 1.33301 -71.5 4 -131.5
c22.667 -0.666992 65.667 -1 129 -1s112.333 6.5 147 19.5s65.5 35.333 92.5 67s47.5 65.834 61.5 102.501zM1016 94.002c87.333 0 130.667 32.333 130 97c0 33.333 -15.833 64.333 -47.5 93s-61.5 43 -89.5 43c-4 0 -14.833 -1.16699 -32.5 -3.5s-80.5 -3.5 -188.5 -3.5
c32.667 -150.667 108.667 -226 228 -226zM412.003 575.002c0 68.667 -48.334 103 -145.001 103s-145 -32.333 -145 -97c0 -32.667 13.833 -58.334 41.5 -77.001s57.334 -28 89.001 -28s66.167 8.33301 103.5 25s56 41.334 56 74.001z" />
    <glyph glyph-name="cent" unicode="&#xa2;" horiz-adv-x="1143" 
d="M676 1056c-154.667 0 -232 -108.167 -232 -324.5s77.333 -324.833 232 -325.5c53.333 0 101.5 5.16699 144.5 15.5s96.833 29.833 161.5 58.5v-248c-82.667 -40 -168.667 -62.667 -258 -68v-184h-174v192c-273.333 38.667 -410 224 -410 556s136.667 518 410 558v162h174
v-154c108 -6 205.333 -30 292 -72l-88 -230c-106.667 42.667 -190.667 64 -252 64z" />
    <glyph glyph-name="sterling" unicode="&#xa3;" horiz-adv-x="1143" 
d="M368 1342c74.667 70.667 177.668 106 309.001 106s260.333 -26.667 387 -80l-90 -224c-102.667 41.333 -185.334 62 -248.001 62c-117.333 0 -176 -56 -176 -168v-188h366v-214h-366v-140c0 -110.667 -49.333 -191.334 -148 -242.001h702v-254h-1024v242
c67.333 28.667 113.5 61.5 138.5 98.5s37.5 88.167 37.5 153.5v142h-174v214h174v190c0 130.667 37.333 231.334 112 302.001z" />
    <glyph glyph-name="currency" unicode="&#xa4;" horiz-adv-x="434" 
d="M-5 987v214h463v-214h-463zM58 1348c-92 62.667 -138.001 152.332 -138.001 268.999c0 62 12.667 93 38 93c18 0 35.5 -27.333 52.5 -82s39.667 -97.834 68 -129.501s72 -47.5 131 -47.5s102.667 15.833 131 47.5s51 74.834 68 129.501s34.5 82 52.5 82
c25.333 0 38 -29.667 38 -89s-11 -111.666 -33 -156.999s-56.667 -84 -104 -116s-98.166 -48 -152.499 -48s-104.833 16 -151.5 48z" />
    <glyph glyph-name="yen" unicode="&#xa5;" horiz-adv-x="1143" 
d="M570 840l258 588h306l-374 -730h190v-174h-240v-134h240v-174h-240v-216h-280v216h-242v174h242v134h-242v174h186l-368 730h308z" />
    <glyph glyph-name="section" unicode="&#xa7;" 
d="M-582 -77c56 0 83.835 -11.166 83.502 -33.499s-30.5 -38.833 -90.5 -49.5c-21.333 -4 -32 -16 -32 -36c-0.666992 -9.33301 1.66602 -20.666 6.99902 -33.999c65.333 -88.667 133 -142.334 203 -161.001c33.333 0 59 15.833 77 47.5s27 71.5 27 119.5v184h132v-182
c0 -82.667 -20.333 -154.334 -61 -215.001c-12 -17.333 -36.833 -33.833 -74.5 -49.5s-74.834 -23.5 -111.501 -23.5c-74 0 -148 37 -222 111c-56.667 55.333 -85 114.333 -85 177c0 96 49 144.333 147 145zM-63.998 -576.999c-124.667 -43.333 -240.167 -65 -346.5 -65
s-218.833 21.667 -337.5 65v93c128 -46.667 243.5 -70 346.5 -70s215.5 23.333 337.5 70v-93zM-63.998 -730.999c-114.667 -40 -228.999 -60 -342.999 -60s-227.667 20 -341 60v93c128 -44 243.667 -66 347 -66s215.666 22 336.999 66v-93z" />
    <glyph glyph-name="dieresis" unicode="&#xa8;" 
d="M-162 -572c-100 -43.333 -192.333 -65 -277 -65s-175 21.667 -271 65v90c99.333 -45.333 192 -68 278 -68s176 22.667 270 68v-90zM-710 -642c99.333 -42.667 192 -64 278 -64s176 21.333 270 64v-90c-92 -40 -183.667 -60 -275 -60s-182.333 20 -273 60v90z" />
    <glyph glyph-name="copyright" unicode="&#xa9;" horiz-adv-x="1664" 
d="M1080 314c-72.667 -32 -145.332 -47.999 -217.999 -47.999c-125.333 0 -222.333 39 -291 117s-103 186.667 -103 326s36.167 249.333 108.5 330s170.166 121 293.499 121c84.667 0 166.667 -20 246 -60l-58 -122c-69.333 34.667 -131.333 52 -186 52
c-77.333 0 -138 -27.833 -182 -83.5s-66 -133.834 -66 -234.501s19 -178.5 57 -233.5s101 -82.5 189 -82.5c62 0 132 15.333 210 46v-128zM193.002 352.001c-63.333 112.667 -95 233.667 -95 363s32.5 251 97.5 365s154.5 203.833 268.5 269.5s236.333 98.5 367 98.5
s253 -32.5 367 -97.5s203.833 -154.5 269.5 -268.5s98.5 -235.833 98.5 -365.5s-31.5 -250.834 -94.5 -363.501s-151.5 -203 -265.5 -271s-238.5 -102 -373.5 -102s-259.5 33.833 -373.5 101.5s-202.667 157.834 -266 270.501zM204.002 714.001c0 -112 28 -216.5 84 -313.5
s132.667 -173.667 230 -230s202 -84.5 314 -84.5s216.5 28 313.5 84s173.667 132.667 230 230s84.5 202 84.5 314s-28 216.5 -84 313.5s-132.667 173.667 -230 230s-202 84.5 -314 84.5s-216.5 -28 -313.5 -84s-173.667 -132.667 -230 -230s-84.5 -202 -84.5 -314z" />
    <glyph glyph-name="ordfeminine" unicode="&#xaa;" horiz-adv-x="1208" 
 />
    <glyph glyph-name="registered" unicode="&#xae;" 
d="M-672 -230c-44.667 -50.667 -90.998 -76.001 -138.998 -76.001s-84.667 13.167 -110 39.5s-38 61.166 -38 104.499c0 48 15.333 86.833 46 116.5s65 44.5 103 44.5s74.667 -5.33301 110 -16c4 9.33301 11 28.333 21 57h175c-20.667 -59.333 -39 -104.666 -55 -135.999
c62 -50 117 -115.333 165 -196c18 -30 27 -54.667 27 -74c0 -38 -18.333 -57 -55 -57c-12.667 0 -28.334 5.33301 -47.001 16s-49.334 39.334 -92.001 86.001s-79.667 77 -111 91z" />
    <glyph glyph-name="degree" unicode="&#xb0;" horiz-adv-x="780" 
d="M686 822v-176h-598v176h598zM155.5 998.5c-63.667 63.667 -95.5 140.667 -95.5 231s31.833 167.333 95.5 231s140.5 95.5 230.5 95.5s167 -31.833 231 -95.5s96 -140.667 96 -231s-32 -167.333 -96 -231s-141 -95.5 -231 -95.5s-166.833 31.833 -230.5 95.5zM270.5 1345
c-31.667 -32 -47.5 -70.5 -47.5 -115.5s15.833 -83.5 47.5 -115.5s70.167 -48 115.5 -48s83.833 16 115.5 48s47.5 70.5 47.5 115.5s-15.833 83.5 -47.5 115.5s-70.167 48 -115.5 48s-83.833 -16 -115.5 -48z" />
    <glyph glyph-name="plusminus" unicode="&#xb1;" horiz-adv-x="1324" 
d="M754 698v-326h-210v326h-326v210h326v326h210v-326h326v-210h-326zM1168 20h-1038v210h1038v-210z" />
    <glyph glyph-name="acute" unicode="&#xb4;" horiz-adv-x="26" 
d="M-236 -381c39.333 101.333 59 173.833 59 217.5s-3.33301 84.5 -10 122.5h-149c8 -42.667 12 -74.167 12 -94.5s-2.66699 -43.833 -8 -70.5c-12.667 -32.667 -26 -67 -40 -103s-20.667 -59.333 -20 -70v-20c11.333 -32 34 -60 68 -84c91.333 -64.667 178.333 -97 261 -97
c96 0 144 49 144 147v71h104v133h-242v-188c0 -25.333 -8 -38 -24 -38c-69.333 22 -121 46.667 -155 74z" />
    <glyph glyph-name="mu" unicode="&#xb5;" 
d="M-564 1603c-47.333 0 -81.667 -11.832 -103 -35.499s-32 -47 -32 -70s6.33301 -53.833 19 -92.5c20.667 -44.667 31 -67.667 31 -69c0 -26.667 -13 -40 -39 -40c-14.667 0 -28.667 4.66699 -42 14c-76 53.333 -114 119.333 -114 198s27.667 142 83 190s121 72 197 72
s141.667 -24 197 -72s83 -111.333 83 -190s-38 -144.667 -114 -198c-13.333 -9.33301 -27.333 -14 -42 -14c-26 0 -39 13.333 -39 40c0 1.33301 7 16.666 21 45.999c20 42 30 77.333 30 106s-10.833 55 -32.5 79s-56.167 36 -103.5 36z" />
    <glyph glyph-name="mu" unicode="&#x3bc;" 
d="M-564 1603c-47.333 0 -81.667 -11.832 -103 -35.499s-32 -47 -32 -70s6.33301 -53.833 19 -92.5c20.667 -44.667 31 -67.667 31 -69c0 -26.667 -13 -40 -39 -40c-14.667 0 -28.667 4.66699 -42 14c-76 53.333 -114 119.333 -114 198s27.667 142 83 190s121 72 197 72
s141.667 -24 197 -72s83 -111.333 83 -190s-38 -144.667 -114 -198c-13.333 -9.33301 -27.333 -14 -42 -14c-26 0 -39 13.333 -39 40c0 1.33301 7 16.666 21 45.999c20 42 30 77.333 30 106s-10.833 55 -32.5 79s-56.167 36 -103.5 36z" />
    <glyph glyph-name="paragraph" unicode="&#xb6;" horiz-adv-x="1309" 
d="M1140 -254l-158 -0.000976562v1578h-162v-1578h-158v800c-40.667 -12 -88 -18 -142 -18c-140.667 0 -244.167 40.667 -310.5 122s-99.5 205.333 -99.5 372s35.5 291.334 106.5 374.001s182.167 124 333.5 124h590v-1774z" />
    <glyph glyph-name="periodcentered" unicode="&#xb7;" horiz-adv-x="700" 
d="M330 712c35.333 0 65.833 -13 91.5 -39s38.5 -57.667 38.5 -95s-14.333 -67.333 -43 -90s-57.667 -34 -87 -34s-58 11 -86 33s-42 52.167 -42 90.5s12.5 70.333 37.5 96s55.167 38.5 90.5 38.5z" />
    <glyph glyph-name="periodcentered" unicode="&#x2219;" horiz-adv-x="700" 
d="M330 712c35.333 0 65.833 -13 91.5 -39s38.5 -57.667 38.5 -95s-14.333 -67.333 -43 -90s-57.667 -34 -87 -34s-58 11 -86 33s-42 52.167 -42 90.5s12.5 70.333 37.5 96s55.167 38.5 90.5 38.5z" />
    <glyph glyph-name="questiondown" unicode="&#xbf;" horiz-adv-x="1332" 
d="M780 617l293 -294l-146 -147l-293 293l-292 -292l-149 145l293 295l-293 293l149 146l292 -292l293 292l146 -146z" />
    <glyph glyph-name="Aring" unicode="&#xc5;" horiz-adv-x="2168" 
d="M1809 701c-66 34 -166.333 51.001 -301 51.001c-68 0 -132.5 -34 -193.5 -102s-104.833 -142.667 -131.5 -224h902v-216h-75c-56 -160.667 -135.667 -277.667 -239 -351c116 -82 174 -179.5 174 -292.5s-34.833 -199.667 -104.5 -260s-158.5 -90.5 -266.5 -90.5
c-413.333 0 -620.333 331.333 -621 994h-42v216h48c19.333 142 82.166 267.5 188.499 376.5s230.333 163.5 372 163.5s251.834 -18.333 330.501 -55c50.667 -24 116.667 -61.667 198 -113c26.667 -22 66 -54.333 118 -97v-244c-38.667 31.333 -91.667 71.666 -159 120.999
c-42.667 28.667 -108.667 69.667 -198 123zM835 -783.999c-92.667 0 -166.667 69.335 -222 208.002c-42.667 106 -64 210.333 -64 313c0 53.333 4.66699 119.666 14 198.999c-60 -25.333 -123.667 -38 -191 -38c-100 0 -185.333 28.667 -256 86s-106 139.333 -106 246
c0 239.333 129.667 359 389 359c146.667 0 251.167 -32.333 313.5 -97s93.5 -159 93.5 -283c0 -46.667 -3.33301 -131 -10 -253c-14 -152.667 -21 -231 -21 -235c0 -108 17 -203.667 51 -287c50 -90.667 75 -142.334 75 -155.001c0 -42 -22 -63 -66 -63zM1169 210.003
c0.666992 -100 4 -186.333 10 -259h167h79c163.333 2 283.333 88.333 360 259h-616zM1558 -569.997c112.667 0 168.999 35.998 168.999 107.998c0 48.667 -22.667 95.834 -68 141.501s-87 68.5 -125 68.5c-4.66699 0 -18.667 -1.66699 -42 -5s-114.666 -5.33301 -273.999 -6
c108.667 -169.333 222 -271.666 340 -306.999zM226.999 245.001c0 -92 50.667 -138 152 -138c41.333 0 86 11.833 134 35.5s72 56.5 72 98.5c0 88.667 -59.667 133 -179 133s-179 -43 -179 -129z" />
    <glyph glyph-name="AE" unicode="&#xc6;" horiz-adv-x="1880" 
d="M2290 845l1.00098 16.999c0 19.333 -3.5 44.166 -10.5 74.499s-11.5 55.5 -13.5 75.5c-15.333 164 -88.333 303.167 -219 417.5s-267.667 171.5 -411 171.5c-186.667 0 -416.334 -161.333 -689.001 -484c-74 -88 -160.5 -197.667 -259.5 -329
s-154.167 -204.333 -165.5 -219c-106.667 -130 -216.667 -195 -330 -195c-24 0 -58.667 11.333 -104 34s-84 46.334 -116 71.001v237c35.333 -25.333 81.333 -57.333 138 -96c33.333 -19.333 60.333 -29 81 -29c45.333 0 108.333 49.333 189 148c93.333 128 243 320 449 576
c134 153.333 254.667 267.666 362 342.999c145.333 102 290.333 153 435 153c227.333 -0.666992 423.333 -76.334 588 -227.001c184.667 -169.333 277 -394.666 277 -675.999c0 -46.667 -3.33301 -80.667 -10 -102c-10 -31.333 -37.333 -47 -82 -47
c-6.66699 0 -18.167 0.833008 -34.5 2.5s-33 11.334 -50 29.001s-25.5 35.834 -25.5 54.501z" />
    <glyph glyph-name="Ccedilla" unicode="&#xc7;" horiz-adv-x="2287" 
d="M1767 -384l-311.002 247.007c-41.333 -10.667 -79.666 -25.667 -114.999 -45c185.333 -66.667 278 -152 278 -256c0 -69.333 -36.667 -104 -110 -104c-41.333 0 -73.833 11.333 -97.5 34s-35.5 46 -35.5 70s5.66699 48 17 72c-52 32 -99 49.667 -141 53v-146
c40 -32 60 -66.5 60 -103.5s-16.5 -69 -49.5 -96s-72.167 -40.5 -117.5 -40.5s-84.166 13.667 -116.499 41s-48.5 58.833 -48.5 94.5s20 70.167 60 103.5v147c-42 -3.33301 -89 -21 -141 -53c12 -26 18 -48.667 18 -68c0 -38 -22 -68.667 -66 -92
c-22 -11.333 -46.667 -17 -74 -17s-51.5 9.33301 -72.5 28s-31.5 44.334 -31.5 77.001c0 104 92.667 189.333 278 256c-35.333 19.333 -74 34.333 -116 45l-311 -247c0 80.667 -32.667 170 -98 268c-67.333 92 -134.333 184 -201 276
c-128.667 185.333 -193 360.666 -193 525.999s49.833 303.166 149.5 413.499s230.834 186.5 393.501 228.5c-33.333 -36.667 -66.833 -73.5 -100.5 -110.5s-64 -78.833 -91 -125.5s-43.5 -77 -49.5 -91c-23.333 -54 -35 -117.5 -35 -190.5s22.333 -165.5 67 -277.5
c84 -211.333 307 -407 669 -587v101c-26 20 -64 45.667 -114 77c-8 4.66699 -53 21.334 -135 50.001c10 16 28.333 51 55 105c-125.333 50 -227 126.167 -305 228.5s-117 214.833 -117 337.5s38.333 235.167 115 337.5s177 180.166 301 233.499
c-8.66699 19.333 -19.334 41.666 -32.001 66.999c32.667 18.667 98.667 63.667 198 135c20 16 46.5 44.5 79.5 85.5s55.167 67.167 66.5 78.5c30.667 -40.667 78.667 -95.334 144 -164.001c61.333 -48.667 127 -93.667 197 -135c-4.66699 -10 -14.667 -31.667 -30 -65
c127.333 -50.667 230.5 -127.334 309.5 -230.001s118.5 -216.5 118.5 -341.5s-40 -239 -120 -342s-185 -179.5 -315 -229.5c15.333 -30.667 33 -64.334 53 -101.001c-29.333 -9.33301 -72.333 -25.333 -129 -48c-12 -6 -51.667 -32.333 -119 -79v-101
c136.667 68 259 144 367 228c152.667 119.333 252.167 237 298.5 353s69.5 210.5 69.5 283.5s-11.667 136.5 -35 190.5c-6 14 -22.5 44.333 -49.5 91s-57.333 88.5 -91 125.5s-67.167 73.833 -100.5 110.5c162 -42 292.833 -118.333 392.5 -229
s149.5 -248.334 149.5 -413.001s-63.667 -340.334 -191 -527.001c-67.333 -92 -134.333 -183.667 -201 -275c-65.333 -98 -98 -187.333 -98 -268zM1393 1259.01c-60.667 -194.667 -90.999 -351.335 -90.999 -470.002c0 -69.333 27.333 -188.333 82 -357
c83.333 46 155.166 107.333 215.499 184s90.5 156.334 90.5 239.001s-27 160.834 -81 234.501s-126 130.167 -216 169.5zM908.999 435.006c54 134.667 81.001 257.333 81.001 368c0 116 -31 266.333 -93 451c-86 -39.333 -155 -95.5 -207 -168.5s-78 -153.5 -78 -241.5
s27.167 -168.5 81.5 -241.5s126.166 -128.833 215.499 -167.5z" />
    <glyph glyph-name="Iacute" unicode="&#xcd;" 
d="M-196 -34v-242.002h-336c-49.333 0 -74 -15 -74 -45c0 -17.333 8.83301 -33.666 26.5 -48.999s32.834 -23 45.501 -23h324v-137h-224c3.33301 -20 7.16602 -39.5 11.499 -58.5s17.333 -35.167 39 -48.5s42.167 -20 61.5 -20s41.5 2.83301 66.5 8.5s39.5 8.16699 43.5 7.5
c-4 -25.333 -12 -55.333 -24 -90c-23.333 -28.667 -64.333 -43 -123 -43c-6 0 -17.667 0.333008 -35 1s-41.333 11 -72 31c-51.333 33.333 -83 82.333 -95 147c-6.66699 35.333 -10.667 54.333 -12 57c-0.666992 2.66699 -30.334 27.334 -89.001 74.001
c-61.333 48.667 -92 97.167 -92 145.5s16.333 89.833 49 124.5s74.334 52 125.001 52h246v108h138z" />
    <glyph glyph-name="Icircumflex" unicode="&#xce;" horiz-adv-x="1078" 
d="M917 987l0.000976562 -987.001h-214v488h-168c-0.666992 -134 -5.66699 -224.667 -15 -272c-18.667 -94 -87.334 -141 -206.001 -141c-48.667 0 -98.667 14.333 -150 43c-44.667 28.667 -89 57.334 -133 86.001c6 39.333 20.667 119.333 44 240l67 -68
c88.667 -64.667 143 -97 163 -97c12 0 18 29.333 18 88v334h380v286h-722v214h1126v-214h-190z" />
    <glyph glyph-name="Idieresis" unicode="&#xcf;" horiz-adv-x="26" 
d="M-927 -434v18.001c0 13.333 20 71.666 60 174.999c5.33301 26.667 8 50.167 8 70.5s-4 51.833 -12 94.5h149c6.66699 -38 10 -78.833 10 -122.5s-19.667 -116.167 -59 -217.5c34 -27.333 85.667 -52 155 -74c16 0 24 12.667 24 38v188h242v223h150v-645h-150v289h-104
v-71c0 -98 -48 -147 -144 -147c-85.333 0 -172.333 32.333 -261 97c-34 24 -56.667 52 -68 84z" />
    <glyph glyph-name="Ntilde" unicode="&#xd1;" 
d="M-607 1334c0 22 7.66699 40.833 23 56.5s33.666 23.5 54.999 23.5s39.666 -7.83301 54.999 -23.5s23 -34.5 23 -56.5s-7.66699 -40.833 -23 -56.5s-33.666 -23.5 -54.999 -23.5s-39.666 7.83301 -54.999 23.5s-23 34.5 -23 56.5zM-620 1626l163 3
c127.333 0 210 -26 248 -78c20 -27.333 30 -62 30 -104c0 -42.667 -7.5 -80 -22.5 -112s-32.167 -48 -51.5 -48c-2 0 -4.83301 0.166992 -8.5 0.5s-8.5 12.333 -14.5 36s-11.167 41.334 -15.5 53.001s-16.5 30.167 -36.5 55.5c-8.66699 11.333 -53.5 18 -134.5 20
s-175.833 4 -284.5 6c-44 6 -78.833 31.833 -104.5 77.5s-38.5 89.167 -38.5 130.5c0 47.333 8.33301 84.666 25 111.999s34 41 52 41c23.333 0 36.333 -11.667 39 -35c2 -26 4 -51.667 6 -77c9.33301 -36.667 25.333 -61 48 -73c24.667 -5.33301 58 -8 100 -8z" />
    <glyph glyph-name="Ograve" unicode="&#xd2;" horiz-adv-x="806" 
d="M100 1206h210v-1226h-210v1226zM496 1206h210v-1226h-210v1226z" />
    <glyph glyph-name="Oacute" unicode="&#xd3;" horiz-adv-x="2656" 
d="M1860 -86c50 0 75.0127 -28.998 75.0127 -86.998c0 -22 -7.16699 -43 -21.5 -63s-37.333 -30 -69 -30s-61.834 21.333 -90.501 64c-40.667 -10 -87 -22.333 -139 -37c-48.667 -201.333 -81.334 -332 -98.001 -392c42.667 63.333 80.167 105.666 112.5 126.999
s82.833 32 151.5 32c16.667 0 42.334 -0.333008 77.001 -1c-8.66699 -142 -116.334 -221.667 -323.001 -239l11 -42h-85l-21 42c-10 3.33301 -22.5 5 -37.5 5s-41.333 -5.16699 -79 -15.5s-66.167 -15.5 -85.5 -15.5c-70.667 0 -132.667 51.333 -186 154
c77.333 15.333 151 23 221 23s121 -17 153 -51c-1.33301 7.33301 -9.33301 28.333 -24 63c-58 35.333 -131.667 69.5 -221 102.5s-164.666 55.5 -225.999 67.5l-58 -174c-42.667 -92 -102 -138 -178 -138c-14 0 -28.333 1.33301 -43 4c-5.33301 42.667 -8 76 -8 100
c0 51.333 15 90.333 45 117l160 114c-69.333 3.33301 -139.833 5 -211.5 5s-139.5 -3.66699 -203.5 -11c-9.33301 -68.667 -37.666 -132.667 -84.999 -192s-103.333 -98.666 -168 -117.999c-10.667 23.333 -16 53.666 -16 90.999s13 80 39 128s55.667 87 89 117
c-90.667 14.667 -147.334 27.334 -170.001 38.001c-48.667 22 -85 66 -109 132c30.667 28.667 69.834 43 117.501 43s99.667 -18.833 156 -56.5s103.5 -79.167 141.5 -124.5h352c-102 40.667 -168.333 125.667 -199 255c20.667 23.333 44 35 70 35
c52 0 110.667 -43.667 176 -131c46.667 -62 82.667 -123 108 -183c116 -24.667 257 -77 423 -157c-50.667 94.667 -125.334 237.334 -224.001 428.001c-63.333 -20.667 -120 -31 -170 -31c-85.333 0 -156.333 30.333 -213 91c46 56 97.833 84 155.5 84
s119.834 -16 186.501 -48c-15.333 26 -40.333 71 -75 135c-118 216.667 -240.333 328 -367 334c-8 0.666992 -16 0.666992 -24 0c-111.333 0 -177.666 -36 -198.999 -108c-10 -34 -15 -67 -15 -99s9 -63.167 27 -93.5s44.667 -45.5 80 -45.5h28c10 0 24 12.667 42 38
c1.33301 5.33301 2 10.333 2 15l-15 64c0 9.33301 5.66699 15 17 17s20.166 -5.33301 26.499 -22s9.5 -31.334 9.5 -44.001c0 -49.333 -27 -88.666 -81 -117.999c-37.333 -20 -65.5 -33.333 -84.5 -40s-38.5 -10 -58.5 -10h-40c-24 -35.333 -56 -53 -96 -53
c-22 0 -41.333 5.66699 -58 17c-48 32.667 -72 85.334 -72 158.001c0 134.667 84.333 240 253 316c72.667 32.667 146.167 49 220.5 49s136.833 -20.333 187.5 -61l1 15c-68 75.333 -154.667 169.666 -260 282.999c-37.333 -4 -72.333 -22.333 -105 -55
c-55.333 -54.667 -86.666 -84.667 -93.999 -90c-45.333 -30.667 -102 -46 -170 -46c-1.33301 6 -2 14 -2 24s5.33301 29 16 57s16 48.833 16 62.5s-3 25.834 -9 36.501c-52 0 -107 15.333 -165 46c11.333 28 41.166 54.667 89.499 80s78.166 46 89.499 62
c-48.667 40.667 -98 119.334 -148 236.001c5.33301 0.666992 10.666 1 15.999 1c65.333 0 154.666 -30.333 267.999 -91c1.33301 12.667 2 29.334 2 50.001v48c0 74 8 129 24 165c24 -8 49.5 -36.833 76.5 -86.5s49.833 -74.5 68.5 -74.5
c14 3.33301 32.5 19.166 55.5 47.499s44.833 45.166 65.5 50.499c14 -42.667 21 -81.834 21 -117.501s-1.33301 -64.167 -4 -85.5c20 -5.33301 55.167 -9.33301 105.5 -12s86.5 -10.667 108.5 -24c-23.333 -70.667 -60.666 -123 -111.999 -157
c-26.667 -17.333 -63.667 -32.5 -111 -45.5s-71 -28.5 -71 -46.5c189.333 -190 351.333 -390.667 486 -602c9.33301 92 46.333 270.667 111 536c-54.667 31.333 -101 75.5 -139 132.5s-57 112 -57 165s13.667 98.833 41 137.5c112 -44 174.667 -165.667 188 -365
c38 108.667 99.667 255.334 185 440.001c-22.667 -10.667 -53.334 -16 -92.001 -16s-81 11 -127 33c4 24 24.667 48.667 62 74s60.666 44.333 69.999 57c-50 22.667 -93.333 73 -130 151c13.333 20.667 31.333 31 54 31s47.667 -3.66699 75 -11l59 -15
c-6.66699 50 -16.334 118.667 -29.001 206h8c26.667 0 49.5 -7.5 68.5 -22.5s51.5 -42.167 97.5 -81.5c18.667 8 42.667 30.5 72 67.5s51.666 59.833 66.999 68.5c16.667 -10 29.167 -50.833 37.5 -122.5s13.166 -110.167 14.499 -115.5
c9.33301 -2.66699 19.666 -4 30.999 -4l77 7c24 0 43 -8.66699 57 -26c0.666992 -31.333 -8.5 -55 -27.5 -71s-43.833 -36.667 -74.5 -62c5.33301 -8.66699 27.833 -28.334 67.5 -59.001s59.5 -60 59.5 -88c0 -4.66699 -1 -10 -3 -16c-6.66699 -1.33301 -15.667 -2 -27 -2
l-93 5c-9.33301 0 -18.333 -1.66699 -27 -5c2 -6.66699 8.33301 -25.167 19 -55.5s16 -54.833 16 -73.5c-8.66699 -2 -20.334 -3 -35.001 -3s-39 11.167 -73 33.5s-55.667 35.833 -65 40.5c-10.667 -38 -31 -94.333 -61 -169c-44 36.667 -79.667 110 -107 220
c-30.667 -50.667 -67.5 -130.334 -110.5 -239.001s-70.167 -174 -81.5 -196c26.667 5.33301 69.667 24 129 56s108.333 48 147 48s79 -23 121 -69c-42 -83.333 -122 -125 -240 -125c-32 0 -69.5 2.83301 -112.5 8.5s-66.5 8.5 -70.5 8.5
c-18.667 -70 -58.334 -264 -119.001 -582c8 -21.333 20 -48 36 -80v6c0 60.667 10.5 112.334 31.5 155.001s57.833 100.334 110.5 173.001c31.333 -20 47 -54.667 47 -104s-14.333 -106.166 -43 -170.499s-57.334 -116.5 -86.001 -156.5c77.333 -138 133 -240.5 167 -307.5
s66 -141.5 96 -223.5c5.33301 35.333 18.333 90 39 164s33 128 37 162c-10 23.333 -20 46.333 -30 69c-16 28.667 -36.667 43 -62 43c-6.66699 0 -13.667 -0.666992 -21 -2c-48 13.333 -72 42 -72 86c0 23.333 9.66699 44.166 29 62.499s41 27.5 65 27.5
c51.333 0 77 -28.667 77 -86l-2 -60c0 -40.667 13.667 -69 41 -85c47.333 262 192 564.667 434 908c-19.333 48 -37.5 94.333 -54.5 139s-25.5 88.667 -25.5 132c0 85.333 39.667 166 119 242c41.333 -67.333 62 -138.5 62 -213.5s-10 -137.167 -30 -186.5
c14 24 43.667 65.167 89 123.5s68 92.166 68 101.499l-12 71c0 66 25.667 131 77 195s109.333 96 174 96c31.333 0 58 -9.66699 80 -29s33 -44.333 33 -75c0 -64.667 -36 -127.5 -108 -188.5s-141 -92.5 -207 -94.5l-180 -243c71.333 32.667 138.666 49 201.999 49
c103.333 0 178.333 -36.667 225 -110c-40.667 -49.333 -106 -74 -196 -74c-46 0 -100 6 -162 18l-115 22c-100.667 -158.667 -171.334 -276 -212.001 -352c-84 -154.667 -145.667 -299.667 -185 -435c42 63.333 125.333 134.5 250 213.5s236.667 118.5 336 118.5
c10 0 20 -0.666992 30 -2c90 160.667 184.333 241 283 241c22.667 0 45 -5 67 -15c-13.333 -80.667 -39.333 -140 -78 -178c-23.333 -23.333 -55 -40.5 -95 -51.5s-62.333 -21.5 -67 -31.5c78.667 -29.333 138.667 -80 180 -152s62 -148 62 -228
s-18.667 -144.833 -56 -194.5s-90.666 -78.167 -159.999 -85.5c-26 -2.66699 -54.333 -4 -85 -4c-114.667 0 -172 14 -172 42c0 16 10.667 24 32 24l150 -14c81.333 0 136.333 14 165 42c48 47.333 72 105.666 72 174.999c0 10 -1.33301 23.667 -4 41
c-20.667 172 -95.334 277.667 -224.001 317c55.333 -40.667 83 -97.834 83 -171.501s-24 -122.834 -72 -147.501c-83.333 42 -125 100.667 -125 176c0 34 12 91.333 36 172c-156.667 -20 -299 -79.667 -427 -179c-88 -68 -155.333 -140 -202 -216
c6 -1.33301 13.667 -2 23 -2s27.333 4.33301 54 13s43.667 13.667 51 15c22.667 50.667 56 76 100 76zM412.013 1291l3.99902 -165.001c6.66699 -89.333 26.334 -140 59.001 -152c-18.667 72.667 -28 117.667 -28 135s1.33301 26 4 26c8.66699 0 32 -47.333 70 -142
c0.666992 8.66699 1 25.834 1 51.501s-8.16699 71.167 -24.5 136.5s-44.833 102 -85.5 110zM554.012 949.001c64.667 68 97 141.668 97 221.001c0 24.667 -3.66699 48.334 -11 71.001c-59.333 -24.667 -89 -84.667 -89 -180c0 -12.667 0.5 -31.334 1.5 -56.001
s1.5 -43.334 1.5 -56.001zM143.012 1160c34 -74 78.8301 -138.333 134.497 -193s117.834 -82 186.501 -82c0 3.33301 -27.167 24.5 -81.5 63.5s-86.166 71.167 -95.499 96.5c22.667 -9.33301 51.834 -27.833 87.501 -55.5s62.5 -46.167 80.5 -55.5
c-60 112.667 -164 188 -312 226zM611.009 931.002c14 4.66699 38.832 19.167 74.499 43.5s60.334 36.5 74.001 36.5s23.167 -0.333008 28.5 -1c-8 -13.333 -34.333 -31.333 -79 -54s-69.334 -41.334 -74.001 -56.001c94 0 166.333 50 217 150
c-16.667 5.33301 -40.667 8 -72 8s-67.666 -9.66699 -108.999 -29s-62 -46.666 -62 -81.999c0 -4.66699 0.666992 -10 2 -16zM275.008 864.002l40.001 -2c17.333 0 30.666 2 39.999 6c-20 25.333 -48.167 38 -84.5 38s-70.5 -6.5 -102.5 -19.5s-49 -31.833 -51 -56.5
c46 -16.667 94.333 -25 145 -25s95 11.333 133 34c-8.66699 1.33301 -17.667 2 -27 2l-90 -9c-21.333 0 -40.333 6 -57 18c12.667 9.33301 30.667 14 54 14zM319.009 716.002l61.001 71c-27.333 0 -58 -13 -92 -39s-51 -52.333 -51 -79c0 -10.667 3.66699 -20 11 -28
c113.333 40 181.666 91.333 204.999 154h-3c-15.333 0 -37.5 -13 -66.5 -39s-50.5 -39.333 -64.5 -40zM440.01 456.002c-81.333 -62.667 -122 -128.665 -122 -197.998c0 -40.667 14.333 -76.834 43 -108.501s63 -47.5 103 -47.5c9.33301 0 18.333 1 27 3
c-63.333 55.333 -95 118.666 -95 189.999c0 49.333 14.667 103 44 161zM227.01 117.004c19.333 -46.667 46 -70 80 -70c9.33301 0 19 3 29 9c-4 17.333 -15.667 46.333 -35 87s-29 74.334 -29 101.001c0 48 23.667 104 71 168c-87.333 -62.667 -131 -136.334 -131 -221.001
c0 -25.333 5 -50 15 -74zM2272.01 1117c46.667 64 76.333 103.334 89 118.001c36.667 42 71.667 66.667 105 74c-27.333 -52.667 -78.333 -124 -153 -214c53.333 19.333 103.833 50.333 151.5 93s71.5 85 71.5 127c0 19.333 -6 37.666 -18 54.999
c-14 5.33301 -28.333 8 -43 8c-56 0 -104 -27.833 -144 -83.5s-60 -109.167 -60 -160.5c0 -6 0.333008 -11.667 1 -17zM1656.01 1718c-17.333 -13.333 -36.667 -36.832 -58 -70.499s-32 -62.834 -32 -87.501s11 -41.667 33 -51h4c44 0 66 45.667 66 137
c0 32.667 -4.33301 56.667 -13 72zM1428.01 1679.01l-3.00098 -78c6.66699 -19.333 14 -38.666 22 -57.999c12 -22.667 28 -34 48 -34c6.66699 0 13.334 0.666992 20.001 2c10 7.33301 14.833 21.166 14.5 41.499s-0.5 36.5 -0.5 48.5c-20 52 -53.667 78 -101 78z
M1286.01 1531.01c0 -27.333 15.1699 -52.167 45.5029 -74.5s58.166 -33.5 83.499 -33.5c3.33301 0 6.66602 0.333008 9.99902 1c14.667 2 22 20.333 22 55c-31.333 35.333 -78.333 53 -141 53c-6.66699 0 -13.334 -0.333008 -20.001 -1zM1653.01 1491
c-8 -12 -12.001 -22 -12.001 -30c0 -17.333 17.333 -26 52 -26c51.333 0 92 24.667 122 74c-25.333 13.333 -54.166 20 -86.499 20s-57.5 -12.667 -75.5 -38zM1618.01 1406c0 44.667 -24.667 68.999 -74 72.999c-40 -2 -60 -26.667 -60 -74
c0 -7.33301 0.666992 -14.333 2 -21c10 -23.333 35 -39.666 75 -48.999c38 16 57 39.667 57 71zM1653.01 1372c30 -49.333 79.999 -74 149.999 -74c8.66699 0 17.334 0.333008 26.001 1c0 18.667 -17 39.667 -51 63s-61.5 35 -82.5 35s-35.167 -8.33301 -42.5 -25z
M1294.01 1297l92.001 0.000976562c37.333 1.33301 62.666 14 75.999 38c-6 22.667 -21.167 34 -45.5 34s-53 -6.33301 -86 -19s-49.5 -26.334 -49.5 -41.001c0 -6 4.33301 -10 13 -12zM1603.01 1288c26 -60 65.666 -100.666 118.999 -121.999
c12 5.33301 16.5 17.666 13.5 36.999s-4.5 25.333 -4.5 18c-6 20 -18.333 41.5 -37 64.5s-36.167 34.5 -52.5 34.5s-29.166 -10.667 -38.499 -32zM1503.01 1288.01l-9.00098 -87c12.667 -35.333 19.667 -54 21 -56c10.667 -20 24.667 -31.333 42 -34
c23.333 54 35 84.5 35 91.5s-0.666992 13.167 -2 18.5c0 18.667 -7.16699 35 -21.5 49s-27.666 21 -39.999 21s-20.833 -1 -25.5 -3z" />
    <glyph glyph-name="Ocircumflex" unicode="&#xd4;" horiz-adv-x="2656" 
d="M2176.5 1436c-19 0 -28.5117 8.00488 -28.5117 24.0049c0 28.667 57.333 43 172 43c30.667 0 59 -1.66699 85 -5c69.333 -7.33301 122.666 -35.833 159.999 -85.5s56 -114.5 56 -194.5s-20.667 -156 -62 -228s-101.333 -122.667 -180 -152c4.66699 -10 27 -20.5 67 -31.5
s71.667 -27.833 95 -50.5c38.667 -38 64.667 -97.667 78 -179c-22 -10 -44.333 -15 -67 -15c-98.667 0 -193 80.333 -283 241c-10 -0.666992 -20 -1 -30 -1c-99.333 0 -211.333 39.333 -336 118s-208 149.667 -250 213c39.333 -135.333 101 -280.333 185 -435
c40.667 -76 111.334 -193.333 212.001 -352c0.666992 0 35.5 6.66699 104.5 20s126.5 20 172.5 20c90 0 155.333 -24.333 196 -73c-46.667 -74 -121.667 -111 -225 -111c-63.333 0 -130.666 16.667 -201.999 50l180 -243c66 -2.66699 135 -34.5 207 -95.5
s108 -123.833 108 -188.5c0 -30.667 -11 -55.667 -33 -75s-48.667 -29 -80 -29c-64.667 0 -122.667 32 -174 96s-77 129 -77 195l12 71c0 9.33301 -22.667 43.333 -68 102s-75 99.667 -89 123c20 -49.333 30 -111.5 30 -186.5s-20.667 -145.833 -62 -212.5
c-79.333 75.333 -119 155.666 -119 240.999c0 43.333 8.5 87.5 25.5 132.5s35.167 91.167 54.5 138.5c-242 343.333 -386.667 646.333 -434 909c-27.333 -16.667 -41 -45.334 -41 -86.001l2 -60c0 -57.333 -25.667 -86 -77 -86c-24 0 -45.667 9.16699 -65 27.5
s-29 39.166 -29 62.499c0 44 24 72.667 72 86c7.33301 -1.33301 14.333 -2 21 -2c25.333 0 46 14.333 62 43c10 22.667 20 45.667 30 69c-4 34 -16.333 88 -37 162s-33.667 129 -39 165c-30 -82.667 -62 -157.5 -96 -224.5s-89.667 -169.5 -167 -307.5
c28.667 -40 57.334 -92.167 86.001 -156.5s43 -121 43 -170s-15.667 -83.5 -47 -103.5c-52.667 72 -89.5 129.333 -110.5 172s-31.5 94.334 -31.5 155.001v6c-16 -32 -28 -58.667 -36 -80c60.667 -318 100.334 -512 119.001 -582c4 0 27.5 2.83301 70.5 8.5
s80.5 8.5 112.5 8.5c118 0 198 -41.667 240 -125c-42 -46 -82.333 -69 -121 -69s-87.667 16 -147 48s-102.333 50.667 -129 56c11.333 -22 38.5 -87.333 81.5 -196s79.833 -188.334 110.5 -239.001c27.333 110.667 63 184 107 220c30 -74.667 50.333 -131 61 -169
c9.33301 4.66699 31 18.167 65 40.5s58.333 33.5 73 33.5s26.334 -1 35.001 -3c0 -18.667 -4.33301 -40 -13 -64l-22 -65c8.66699 -3.33301 17.667 -5 27 -5l93 5c11.333 0 20.333 -0.666992 27 -2c2 -5.33301 3 -10.666 3 -15.999c0 -28 -19.833 -57.333 -59.5 -88
s-62.167 -50 -67.5 -58l69 -57c22.667 -20 33.667 -45.667 33 -77c-14 -17.333 -33 -26 -57 -26l-77 8c-11.333 0 -21.666 -1.66699 -30.999 -5c-1.33301 -5.33301 -6.16602 -43.833 -14.499 -115.5s-20.833 -112.5 -37.5 -122.5c-15.333 8.66699 -37.666 31.5 -66.999 68.5
s-53.333 59.833 -72 68.5c-18 -16 -43.5 -37.5 -76.5 -64.5s-62.833 -40.5 -89.5 -40.5h-8c12.667 87.333 22.334 156 29.001 206c-72 -16.667 -113.333 -25 -124 -25c-29.333 0 -50.666 10.333 -63.999 31c36.667 77.333 80 127.666 130 150.999
c-9.33301 12 -32.666 30.667 -69.999 56s-58 50 -62 74c46 22 88.333 33 127 33s69.334 -5.33301 92.001 -16c-85.333 184.667 -147 331.334 -185 440.001c-13.333 -199.333 -76 -321 -188 -365c-27.333 38.667 -41 84.5 -41 137.5s19 108 57 165s84.333 101.5 139 133.5
c-64.667 264.667 -101.667 443 -111 535c-134.667 -211.333 -296.667 -412 -486 -602c0 -18 23.667 -33.5 71 -46.5s84.333 -28.167 111 -45.5c51.333 -33.333 88.666 -85.666 111.999 -156.999c-22 -13.333 -58.167 -21.333 -108.5 -24s-85.5 -6.33398 -105.5 -11.001
c2.66699 -21.333 4 -49.833 4 -85.5s-7 -75.167 -21 -118.5c-20.667 5.33301 -42.5 22.166 -65.5 50.499s-41.5 44.166 -55.5 47.499c-18.667 0 -41.5 -24.833 -68.5 -74.5s-52.5 -78.5 -76.5 -86.5c-16 36 -24 91 -24 165v48c0 20.667 -0.666992 37.334 -2 50.001
c-112.667 -60 -201.667 -90 -267 -90c-6 0 -11.667 0.333008 -17 1c50 116 99.333 194.333 148 235c-11.333 16 -41.166 36.667 -89.499 62s-78.166 52 -89.499 80c58 30.667 113 46 165 46c6 10.667 9 22.834 9 36.501s-5.33301 34.5 -16 62.5s-16 47.167 -16 57.5
s0.666992 18.166 2 23.499c68 0 124.667 -15.333 170 -46c7.33301 -5.33301 38.666 -35.333 93.999 -90c32.667 -32.667 67.667 -50.667 105 -54c105.333 112.667 192 206.667 260 282l-1 15c-50.667 -40.667 -112.667 -61 -186 -61s-146 15.667 -218 47
s-132.833 74.833 -182.5 130.5s-74.5 119.167 -74.5 190.5s24 123 72 155c16.667 12 36 18 58 18c40 0 72 -18 96 -54h40c32.667 0 78.167 -15.667 136.5 -47s87.5 -71.666 87.5 -120.999c0 -12.667 -3.16699 -27.334 -9.5 -44.001s-15.166 -24 -26.499 -22
s-17 7.66699 -17 17l15 64c0 4.66699 -0.666992 9.66699 -2 15c-18 25.333 -32 38 -42 38h-28c-35.333 0 -62 -15.167 -80 -45.5s-27 -61.5 -27 -93.5s5 -65 15 -99c21.333 -72.667 85.666 -109 192.999 -109c7.33301 0 15 0.333008 23 1c94.667 4 186.334 63 275.001 177
c31.333 40.667 60.333 85.334 87 134.001l87 159c-66.667 -32.667 -128.834 -49 -186.501 -49s-109.5 28 -155.5 84c56.667 60.667 127.667 91 213 91c50 0 106.667 -10.333 170 -31c98.667 191.333 173.334 334 224.001 428c-166 -80 -307 -132 -423 -156
c-25.333 -60.667 -61.333 -121.667 -108 -183c-65.333 -88 -124 -132 -176 -132c-26 0 -49.333 11.667 -70 35c30.667 129.333 97 214.333 199 255h-352c-38 -45.333 -85.167 -86.833 -141.5 -124.5s-108.333 -56.5 -156 -56.5s-86.834 14.333 -117.501 43
c24 66 60.333 110.333 109 133c22.667 10 79.334 22.333 170.001 37c-33.333 30 -63 69 -89 117s-39 90.667 -39 128s5.33301 67.666 16 90.999c64.667 -19.333 120.667 -58.666 168 -117.999s75.666 -123.333 84.999 -192c64 -6.66699 131.833 -10 203.5 -10
s142.167 1.33301 211.5 4l-160 114c-30 27.333 -45 66.666 -45 117.999c0 23.333 2.66699 56.333 8 99c14.667 2.66699 29 4 43 4c76 0 135.333 -46 178 -138l58 -174c61.333 12.667 136.666 35.5 225.999 68.5s163 66.833 221 101.5c14.667 34.667 22.667 55.667 24 63
c-32 -34 -83 -51 -153 -51s-143.667 7.66699 -221 23c53.333 102.667 115.333 154 186 154c19.333 0 47.833 -5.16699 85.5 -15.5s64 -15.5 79 -15.5s27.5 1.66699 37.5 5l21 42h85l-11 -42c206.667 -17.333 314.334 -97 323.001 -239
c-34.667 -0.666992 -60.334 -1 -77.001 -1c-68.667 0 -119.167 10.667 -151.5 32s-69.833 63.666 -112.5 126.999c16.667 -59.333 49.334 -190 98.001 -392c52 -14.667 98.333 -27 139 -37c28.667 43.333 58.834 65 90.501 65s54.667 -10.167 69 -30.5
s21.5 -41.166 21.5 -62.499c0.666992 -58.667 -24.333 -88 -75 -88c-44 0 -77.333 25.333 -100 76c-7.33301 1.33301 -24.333 6.5 -51 15.5s-44.667 13.5 -54 13.5s-17 -1 -23 -3c46.667 -76 114 -148 202 -216c128 -99.333 270.333 -158.666 427 -177.999
c-24 80 -36 137 -36 171c0 75.333 41.667 134 125 176c48 -24.667 72 -73.834 72 -147.501s-27.667 -130.834 -83 -171.501c128.667 39.333 203.334 145 224.001 317c2.66699 17.333 4 31 4 41c0 69.333 -24 127.666 -72 174.999c-28 28 -81.667 42 -161 42
c-24.667 0 -52.334 -2.33301 -83.001 -7s-55.5 -7 -74.5 -7z" />
    <glyph glyph-name="Oslash" unicode="&#xd8;" horiz-adv-x="386" 
d="M-17 987v214h451v-214h-451z" />
    <glyph glyph-name="Uacute" unicode="&#xda;" horiz-adv-x="910" 
d="M250.5 750c-49.667 49.333 -74.5 109.166 -74.5 179.499s24.833 130.166 74.5 179.499s109.5 74 179.5 74s129.833 -24.667 179.5 -74s74.5 -109.166 74.5 -179.499s-24.833 -130.166 -74.5 -179.499s-109.5 -74 -179.5 -74s-129.833 24.667 -179.5 74zM348.5 1011
c-22.333 -22.667 -33.5 -49.834 -33.5 -81.501s11.167 -58.834 33.5 -81.501s49.5 -34 81.5 -34s59.167 11.333 81.5 34s33.5 49.834 33.5 81.501s-11.167 58.834 -33.5 81.501s-49.5 34 -81.5 34s-59.167 -11.333 -81.5 -34zM250.5 90
c-49.667 49.333 -74.5 109.166 -74.5 179.499s24.833 130.166 74.5 179.499s109.5 74 179.5 74s129.833 -24.667 179.5 -74s74.5 -109.166 74.5 -179.499s-24.833 -130.166 -74.5 -179.499s-109.5 -74 -179.5 -74s-129.833 24.667 -179.5 74zM348.5 351
c-22.333 -22.667 -33.5 -49.834 -33.5 -81.501s11.167 -58.834 33.5 -81.501s49.5 -34 81.5 -34s59.167 11.333 81.5 34s33.5 49.834 33.5 81.501s-11.167 58.834 -33.5 81.501s-49.5 34 -81.5 34s-59.167 -11.333 -81.5 -34z" />
    <glyph glyph-name="aring" unicode="&#xe5;" horiz-adv-x="1398" 
d="M1839 1291c-13.333 -6.66699 -26.3262 -10 -38.9932 -10c-38 0 -71 29 -99 87c-10.667 21.333 -33.667 53.833 -69 97.5s-71 76.167 -107 97.5c-65.333 38 -148 57 -248 57c-104.667 0 -209.334 -29.333 -314.001 -88c-36.667 -20 -118.334 -76.333 -245.001 -169
s-223 -139 -289 -139c-38.667 0 -76.334 10 -113.001 30s-70 38.833 -100 56.5s-65.833 46.5 -107.5 86.5s-64.834 62 -69.501 66c-42.667 36.667 -116.667 55 -222 55c-13.333 0 -27.666 -0.333008 -42.999 -1l2 196c12.667 0.666992 25 1 37 1
c132 0 240.333 -23.333 325 -70c16.667 -9.33301 40 -29.833 70 -61.5s55 -54.5 75 -68.5s44.667 -31.5 74 -52.5s52.166 -31.5 68.499 -31.5s61.166 25.833 134.499 77.5s184 122.5 332 212.5c106.667 65.333 226.667 98 360 98c157.333 0 288.166 -32.833 392.499 -98.5
s178.166 -154.5 221.499 -266.5c12 -32 18 -63 18 -93s-15 -53 -45 -69z" />
    <glyph glyph-name="ae" unicode="&#xe6;" horiz-adv-x="26" 
d="M-600 -97c38.667 0 72.167 -14.167 100.5 -42.5s42.5 -61.833 42.5 -100.5s-14.167 -72.167 -42.5 -100.5s-61.833 -42.5 -100.5 -42.5s-72.167 14.167 -100.5 42.5s-42.5 61.833 -42.5 100.5s14.167 72.167 42.5 100.5s61.833 42.5 100.5 42.5z" />
    <glyph glyph-name="ccedilla" unicode="&#xe7;" 
d="M-736 -393l-35 -0.000976562c-57.333 0 -86 22 -86 66c0 50.667 25.667 95 77 133c34 25.333 72 38 114 38s63 -21.667 63 -65v-27h262v209h149v-434c0 -67.333 -24.167 -122.666 -72.5 -165.999s-106.833 -65 -175.5 -65c-104 0 -177.667 29.667 -221 89
c-27.333 37.333 -52.333 111.333 -75 222zM-592 -393.001c4 -20.667 12.667 -53.667 26 -99c13.333 -32 27.333 -51.5 42 -58.5s42 -10.5 82 -10.5c67.333 0 101 34 101 102v66h-251z" />
    <glyph glyph-name="udieresis" unicode="&#xfc;" 
d="M-166 -652c-104.667 -45.333 -197 -68 -277 -68s-170.333 22.667 -271 68v110c99.333 -45.333 192 -68 278 -68s176 22.667 270 68v-110z" />
    <glyph glyph-name="ydieresis" unicode="&#xff;" horiz-adv-x="1700" 
d="M1682 -62h-1678v1258h1678v-1258zM1152 872c34 9.33301 51 58.668 51 148.001s-30.333 134 -91 134c-26 0 -47.833 -13.333 -65.5 -40s-26.5 -60.334 -26.5 -101.001s6.33301 -73.5 19 -98.5s25 -39.167 37 -42.5c2 18.667 0.5 35 -4.5 49s-7.5 43.667 -7.5 89
s16 68 48 68c22.667 0 38 -24 46 -72c2 -10.667 3 -21.334 3 -32.001l-11 -86c0 -5.33301 0.666992 -10.666 2 -15.999zM819 1025c32 0 48 -34.9971 48 -104.997c0 -10.667 -0.333008 -22 -1 -34h70c0 174 -39.667 261 -119 261c-37.333 0 -66.333 -19.833 -87 -59.5
s-31 -80.834 -31 -123.501v-154h-55v-108h55l1 -692h74v692c29.333 0.666992 51.333 1 66 1s22.667 -0.333008 24 -1c14 -24.667 21 -57 21 -97s-1.83301 -89.667 -5.5 -149s-13 -109 -28 -149s-22.5 -61.333 -22.5 -64c0 -19.333 13 -46.333 39 -81
c38.667 -51.333 79.334 -77 122.001 -77c24 0 45.5 7.33301 64.5 22s30.833 29 35.5 43v-140h78v692h340v-236h-142v58c0 38 -8.33301 57 -25 57s-37.5 -15.5 -62.5 -46.5s-37.5 -69.167 -37.5 -114.5s6.33301 -68 19 -68h50c0 -78.667 5.16699 -141.834 15.5 -189.501
s33.5 -86 69.5 -115s66.833 -43.5 92.5 -43.5s55.167 25.333 88.5 76c14 21.333 21 41.166 21 59.499s-1 27.5 -3 27.5s-14.333 -12.833 -37 -38.5s-40.667 -38.5 -54 -38.5s-26.333 2 -39 6c-48 16 -72 101.333 -72 256h200v350h52v108h-870
c0 12 0.166992 50.833 0.5 116.5s15.166 98.5 44.499 98.5zM470 702.005v107.999h-426v-108h310c0 -64 -12.667 -144.667 -38 -242c-5.33301 16 -14 36.667 -26 62c-29.333 44 -59.666 66 -90.999 66c-54.667 0 -95.334 -32.667 -122.001 -98
c-19.333 -48 -29 -106.167 -29 -174.5s12 -124.666 36 -168.999s49.333 -66.5 76 -66.5c42.667 0 70.5 5.5 83.5 16.5s37.167 51.5 72.5 121.5c17.333 -29.333 27.666 -71.333 30.999 -126s7.66602 -82.5 12.999 -83.5s18.333 -1.33301 39 -1s32.334 1.16602 35.001 2.49902
c0 72 -17.333 171 -52 297c-7.33301 24.667 -10.666 39.667 -9.99902 45c30.667 100.667 50.667 217.334 60 350.001h38zM1090 516.004h-134v38c0 20.667 -4 70 -12 148h146v-186zM1090 408.004v-162.001c-30 -46.667 -58.5 -70 -85.5 -70s-53.833 22 -80.5 66
c-7.33301 12.667 -11 21.334 -11 26.001s2.5 12 7.5 22s9.16699 24.5 12.5 43.5s9 43.833 17 74.5h140zM180 194.003c-39.333 0 -58.999 41.499 -58.999 124.499s18.333 133.5 55 151.5c6 2.66699 12 4 18 4c22.667 0 44.667 -16.667 66 -50s32 -60.666 32 -81.999
c-8.66699 -24 -35.334 -72 -80.001 -144c-13.333 -2.66699 -24 -4 -32 -4z" />
    <glyph glyph-name="OE" unicode="&#x152;" horiz-adv-x="2656" 
d="M2251 -486c0 29.333 -2.33203 59.5137 -6.99902 90.5137s-7 56 -7 75s8 28.5 24 28.5c28 0 42 -57.333 42 -172c0 -30.667 -1.33301 -59 -4 -85c-7.33301 -69.333 -35.833 -122.666 -85.5 -159.999s-114.5 -56 -194.5 -56s-156 20.667 -228 62s-122.667 101.333 -152 180
c-10 -4.66699 -20.5 -27 -31.5 -67s-27.833 -71.667 -50.5 -95c-38 -38 -97.667 -64 -179 -78c-10 22 -15 44.667 -15 68c0 98 80.333 192 241 282c-0.666992 10 -1 20 -1 30c0 99.333 39.333 211.333 118 336s149.667 208 213 250
c-135.333 -39.333 -280.333 -101 -435 -185c-76 -40.667 -193.333 -111.334 -352 -212.001c0 -0.666992 6.66699 -35.5 20 -104.5s20 -126.5 20 -172.5c0 -90 -24.333 -155.333 -73 -196c-74 46.667 -111 121.667 -111 225c0 63.333 16.667 130.666 50 201.999l-243 -179
c-2.66699 -66.667 -34.5 -136 -95.5 -208s-123.833 -108 -188.5 -108c-30.667 0 -55.667 11 -75 33s-29 48.667 -29 80c0 64.667 32 122.667 96 174s129 77 195 77c24.667 0 42.5 -2 53.5 -6s16.833 -6 17.5 -6c9.33301 0 43.333 22.667 102 68s99.667 75 123 89
c-49.333 -20 -111.5 -30 -186.5 -30s-146.167 20.667 -213.5 62c76 79.333 156.667 119 242 119c43.333 0 87.5 -8.5 132.5 -25.5s91.167 -35.167 138.5 -54.5c343.333 242 646.333 386.667 909 434c-16.667 27.333 -45.334 41 -86.001 41l-60 -2
c-57.333 0 -86 25.667 -86 77c0 24 9.16699 45.667 27.5 65s39.166 29 62.499 29c44 0 72.667 -24 86 -72c-1.33301 -7.33301 -2 -14.333 -2 -21c0 -24.667 14.333 -45.334 43 -62.001c22.667 -10 45.667 -20 69 -30c34 4 88 16.333 162 37s129 33.667 165 39
c-82.667 30 -157.5 62 -224.5 96s-169.5 89.667 -307.5 167c-40 -28.667 -92.167 -57.334 -156.5 -86.001s-121.166 -43 -170.499 -43s-83.666 15.667 -102.999 47c72 52.667 129.333 89.5 172 110.5s94.334 31.5 155.001 31.5h6c-32 16 -58.667 28.333 -80 37
c-318 -60.667 -512 -100.667 -582 -120c0 -4 2.83301 -27.5 8.5 -70.5s8.5 -80.5 8.5 -112.5c0 -118 -41.667 -198 -125 -240c-46 42 -69 82.333 -69 121s16 87.834 48 147.501s50.667 102.5 56 128.5c-22 -11.333 -87.333 -38.5 -196 -81.5
s-188.334 -79.833 -239.001 -110.5c110.667 -27.333 184 -63 220 -107c-74.667 -30 -131 -50.333 -169 -61c4.66699 -9.33301 18.167 -31 40.5 -65s33.5 -58.333 33.5 -73s-1 -26.334 -3 -35.001c-18.667 0 -40.334 4.33301 -65.001 13l-64 22
c-3.33301 -8 -5 -16.667 -5 -26l5 -94c0 -11.333 -0.666992 -20.333 -2 -27c-5.33301 -1.33301 -10.666 -2 -15.999 -2c-28 0 -57.333 19.667 -88 59s-50.334 61.666 -59.001 66.999c-12 -15.333 -29.167 -36.166 -51.5 -62.499s-48.833 -39.5 -79.5 -39.5h-2
c-17.333 14.667 -26 33.667 -26 57l8 77c0 11.333 -1.66699 21.666 -5 30.999c-5.33301 1.33301 -43.833 6.16602 -115.5 14.499s-112.5 20.833 -122.5 37.5c8.66699 15.333 31.5 37.666 68.5 66.999s59.833 53.666 68.5 72.999c-16 18 -37.5 43.333 -64.5 76
s-40.5 62.334 -40.5 89.001v8c87.333 -12.667 156 -22.334 206 -29.001c-16.667 72 -25 113.333 -25 124c0 29.333 10.333 50.666 31 63.999c77.333 -36.667 127.333 -80 150 -130c12.667 9.33301 31.667 32.666 57 69.999s50 58 74 62c22 -46 33 -88.333 33 -127
s-5.33301 -69.334 -16 -92.001c184.667 86 331.334 147.667 440.001 185c-199.333 14 -321 77 -365 189c38.667 26.667 84.5 40 137.5 40s108 -19 165 -57s101.5 -84.333 133.5 -139c264.667 64.667 443 101.667 535 111c-211.333 134.667 -412 297 -602 487
c-18 0 -33.5 -23.833 -46.5 -71.5s-28.167 -84.5 -45.5 -110.5c-34 -52 -86.333 -89.667 -157 -113c-13.333 22 -21.333 58.167 -24 108.5s-6.33398 85.5 -11.001 105.5c-21.333 -2.66699 -50 -4 -86 -4s-75.333 7 -118 21c5.33301 20.667 22.166 42.5 50.499 65.5
s44.166 41.5 47.499 55.5c0 19.333 -24.833 42.333 -74.5 69s-78.5 52 -86.5 76c36 16 91 24 165 24h48c20.667 0 37.334 1 50.001 3c-60 112.667 -90 201.334 -90 266.001c0 6 0.333008 11.667 1 17c116 -50 194.333 -99.333 235 -148c16 11.333 36.667 41.166 62 89.499
s52 78.166 80 89.499c30.667 -58 46 -113 46 -165c10.667 -6 22.834 -9 36.501 -9s34.5 5.33301 62.5 16s47 16 57 16s18 -0.666992 24 -2c0 -68 -15.333 -124.333 -46 -169c-5.33301 -8 -35.333 -39.667 -90 -95c-32.667 -32.667 -50.667 -67.334 -54 -104.001
c112.667 -106 206.667 -192.667 282 -260l15 1c-40.667 50.667 -61 112.667 -61 186s15.667 145.833 47 217.5s74.833 132.334 130.5 182.001s119.167 74.5 190.5 74.5s123 -24 155 -72c11.333 -16.667 17 -36 17 -58c0 -40 -17.667 -72 -53 -96v-39
c0 -33.333 -15.667 -79.166 -47 -137.499s-71.666 -87.5 -120.999 -87.5c-12.667 0 -27.334 3.16699 -44.001 9.5s-24 15.166 -22 26.499s7.66699 17 17 17l64 -15c4.66699 0 9.66699 0.666992 15 2c25.333 18 38 30.667 38 38v32c0 35.333 -15.167 62 -45.5 80
s-61.5 27 -93.5 27s-65 -5 -99 -15c-72.667 -21.333 -109 -85.666 -109 -192.999c0 -7.33301 0.333008 -15 1 -23c4 -94.667 63 -186.334 177 -275.001c40.667 -31.333 85.334 -60.333 134.001 -87l159 -87c-32.667 66.667 -49 128.834 -49 186.501s28 109.5 84 155.5
c60.667 -56.667 91 -127.667 91 -213c0 -50 -10.333 -106.667 -31 -170c191.333 -98.667 334 -173.334 428 -224.001c-80 166 -132 307 -156 423c-60.667 25.333 -121.667 61.333 -183 108c-88 66 -132 124.667 -132 176c0 26 11.667 49.333 35 70
c129.333 -30.667 214.333 -97 255 -199v352c-45.333 38 -86.833 85.167 -124.5 141.5s-56.5 108.333 -56.5 156s14.333 86.834 43 117.501c66 -24 110.333 -60.333 133 -109c10 -22.667 22.333 -79.334 37 -170.001c30 33.333 69 63 117 89s90.667 39 128 39
s67.666 -5.33301 90.999 -16c-19.333 -64.667 -58.666 -120.667 -117.999 -168s-123.333 -75.666 -192 -84.999c-6.66699 -63.333 -10 -131 -10 -203s1.33301 -142.333 4 -211l114 159c26.667 30 66 45 118 45c23.333 0 56.333 -2.66699 99 -8
c2.66699 -14.667 4 -28.667 4 -42c0 -76.667 -46 -136.334 -138 -179.001l-174 -58c12.667 -61.333 35.334 -136.666 68.001 -225.999s66.667 -163 102 -221c34.667 -14.667 55.667 -22.667 63 -24c-34 32 -51 83 -51 153s7.66699 143.667 23 221
c102.667 -52.667 154 -114.334 154 -185.001c0 -20 -5.16699 -48.833 -15.5 -86.5s-15.5 -64 -15.5 -79s1.66699 -27.5 5 -37.5l42 -21v-85l-42 11c-17.333 -206.667 -97 -314.334 -239 -323.001c-0.666992 34.667 -1 60.334 -1 77.001c0 68.667 10.667 119.167 32 151.5
s63.666 69.833 126.999 112.5c-59.333 -16.667 -190 -49.334 -392 -98.001c-14.667 -52 -27 -98.333 -37 -139c42.667 -28.667 64 -58.834 64 -90.501s-10 -54.667 -30 -69s-41 -21.5 -63 -21.5c-58 -0.666992 -87 24.333 -87 75c0 44 25.333 77.333 76 100
c1.33301 7.33301 6.5 24.333 15.5 51s13.5 44.667 13.5 54s-1 17 -3 23c-76 -46.667 -148 -113.667 -216 -201c-99.333 -128.667 -158.666 -271 -177.999 -427c80 23.333 137 35 171 35c75.333 0 134 -41.667 176 -125c-24.667 -48 -73.834 -72 -147.501 -72
s-130.834 27.667 -171.501 83c39.333 -128.667 145 -203.334 317 -224.001c17.333 -2 31 -3 41 -3c69.333 0 126 22 170 66c31.333 32 47 84.667 47 158z" />
    <glyph glyph-name="oe" unicode="&#x153;" 
d="M-723 -668.5c-72.667 48.333 -109 86.1641 -109 113.497s16.667 41 50 41c17.333 0 55.333 -15 114 -45s108.667 -45 150 -45c106.667 0 160 31.333 160 94c0 39.333 -22 70.833 -66 94.5s-87.333 35.5 -130 35.5l-144 -20c-70 0 -105 31.667 -105 95c0 54 39 81 117 81
c30 0 65 -2.83301 105 -8.5s66.333 -8.5 79 -8.5c34.667 0 63.167 13.833 85.5 41.5s45.166 81.834 68.499 162.501h151c-18.667 -77.333 -35.167 -133 -49.5 -167s-42.166 -69.667 -83.499 -107c82 -57.333 123 -122.166 123 -194.499s-26.833 -129.666 -80.5 -171.999
s-121.5 -63.5 -203.5 -63.5s-159.333 24.167 -232 72.5z" />
    <glyph glyph-name="florin" unicode="&#x192;" horiz-adv-x="1218" 
d="M944 -272c-124.667 -45.333 -239.167 -68 -343.5 -68s-217.833 22.667 -340.5 68v188c124 -45.333 239.5 -68 346.5 -68s219.5 22.667 337.5 68v-188zM604 631c-64 0 -124 -23.833 -180 -71.5s-84 -103 -84 -166s10.833 -109.833 32.5 -140.5s58.5 -51.667 110.5 -63
v-221c-114.667 15.333 -202.834 60.166 -264.501 134.499s-92.5 169.833 -92.5 286.5c0 122 45 226 135 312c62 60 141.333 102.667 238 128v157h-508v214h1246v-214h-525v-157c96.667 -25.333 176.334 -68 239.001 -128c89.333 -85.333 134 -187.833 134 -307.5
s-30.667 -216.667 -92 -291s-149.333 -119.166 -264 -134.499v221c51.333 11.333 88 32.333 110 63s33 77.5 33 140.5s-28.667 118.333 -86 166s-118 71.5 -182 71.5zM944 -581c-124.667 -45.333 -239.167 -68 -343.5 -68s-217.833 22.667 -340.5 68v188
c124 -45.333 239.5 -68 346.5 -68s219.5 22.667 337.5 68v-188zM607 1603c-47.333 0 -81.667 -11.832 -103 -35.499s-32 -47 -32 -70s6.33301 -53.833 19 -92.5c20.667 -44.667 31 -67.667 31 -69c0 -26.667 -13 -40 -39 -40c-14.667 0 -28.667 4.66699 -42 14
c-76 53.333 -114 119.333 -114 198s27.667 142 83 190s121 72 197 72s141.667 -24 197 -72s83 -111.333 83 -190s-38 -144.667 -114 -198c-13.333 -9.33301 -27.333 -14 -42 -14c-26 0 -39 13.333 -39 40c0 1.33301 7 16.666 21 45.999c20 42 30 77.333 30 106
s-10.833 55 -32.5 79s-56.167 36 -103.5 36z" />
    <glyph glyph-name="circumflex" unicode="&#x2c6;" 
d="M-321.5 1565.5c25.667 25.667 56 38.5 91 38.5s65.5 -12.833 91.5 -38.5s39 -56 39 -91s-13 -65.5 -39 -91.5s-56.5 -39 -91.5 -39s-65.333 13 -91 39s-38.5 56.5 -38.5 91.5s12.833 65.333 38.5 91z" />
    <glyph glyph-name="tilde" unicode="&#x2dc;" 
d="M-395 -40l-158.996 -0.00195312v-125c-68.667 -8 -128.334 -37.333 -179.001 -88s-75.667 -109.334 -75 -176.001c0 -66.667 20.667 -127.667 62 -183s97.666 -83 168.999 -83h13v133c-38 13.333 -63.5 29.666 -76.5 48.999s-19.5 48.333 -19.5 87s21 71.334 63 98.001
s82.333 40 121 40s79.667 -13.5 123 -40.5s65 -59.667 65 -98s-6.5 -67.166 -19.5 -86.499s-38.5 -35.666 -76.5 -48.999v-133h13c71.333 0 127.666 27.667 168.999 83s62 116 62 182c0 66.667 -25.333 125.334 -76 176.001c-50.667 51.333 -110.334 81 -179.001 89v125z
" />
    <glyph glyph-name="endash" unicode="&#x2013;" horiz-adv-x="1146" 
d="M1018 704v-210h-900v210h900z" />
    <glyph glyph-name="emdash" unicode="&#x2014;" horiz-adv-x="1800" 
d="M1658 704v-210h-1540v210h1540z" />
    <glyph glyph-name="quoteleft" unicode="&#x2018;" horiz-adv-x="950" 
d="M403.5 998c-63.667 0 -117.332 23.168 -160.999 69.501s-65.5 97.5 -65.5 153.5s13.667 108.667 41 158c54.667 102 154 175.333 298 220l37 -79c-57.333 -35.333 -98.833 -68.833 -124.5 -100.5s-40.834 -75.5 -45.501 -131.5h55c108.667 0 163 -45.667 163 -137
c0 -44.667 -17 -81.334 -51 -110.001s-82.833 -43 -146.5 -43z" />
    <glyph glyph-name="quoteright" unicode="&#x2019;" horiz-adv-x="950" 
d="M554.5 1599c63.667 0 117.331 -23.1699 160.998 -69.5029s65.5 -97.166 65.5 -152.499s-15.167 -110.666 -45.5 -165.999s-80.166 -105 -149.499 -149c-38 -24.667 -86 -46 -144 -64l-37 79c56.667 35.333 97.834 68.833 123.501 100.5s41.167 75.5 46.5 131.5h-55
c-108.667 0 -163 45.667 -163 137c0 44.667 17 81.334 51 110.001s82.833 43 146.5 43z" />
    <glyph glyph-name="quotesinglbase" unicode="&#x201a;" horiz-adv-x="2656" 
d="M345 40l243 -47c-219.333 -114 -372 -355.667 -458 -725c241.333 113.333 364.666 171.333 369.999 174c138.667 77.333 239.667 166 303 266c24.667 -36 39 -102.667 43 -200c122.667 20.667 217 84.667 283 192c46.667 76 88.834 204.833 126.501 386.5
s61.834 288.834 72.501 321.501c10.667 -32.667 34.834 -139.834 72.501 -321.501s79.834 -310.5 126.501 -386.5c66 -107.333 160.333 -171.333 283 -192c4.66699 98 19 164.667 43 200c63.333 -100 164.333 -188.667 303 -266
c5.33301 -2.66699 128.666 -60.667 369.999 -174c-86 369.333 -238.667 611 -458 725l243 47c-40.667 126 -116 220.667 -226 284c-76.667 43.333 -199.167 80.5 -367.5 111.5s-274.5 53.5 -318.5 67.5c42.667 14.667 148.5 37.667 317.5 69s291.833 69.333 368.5 114
c110 63.333 185.333 158 226 284l-243 47c219.333 114 372 355.667 458 725c-241.333 -113.333 -364.666 -171.333 -369.999 -174c-138.667 -77.333 -239.667 -166 -303 -266c-24.667 36 -39 102.667 -43 200c-122.667 -20.667 -217 -84.667 -283 -192
c-46.667 -76 -88.834 -204.833 -126.501 -386.5s-61.834 -288.834 -72.501 -321.501c-10.667 32.667 -34.834 139.834 -72.501 321.501s-79.834 310.5 -126.501 386.5c-66 107.333 -160.333 171.333 -283 192c-4.66699 -98 -19 -164.667 -43 -200
c-63.333 100 -164.333 188.667 -303 266c-5.33301 2.66699 -128.666 60.667 -369.999 174c86 -369.333 238.667 -611 458 -725l-243 -47c40.667 -126 116 -220.667 226 -284c76.667 -43.333 199.167 -80.5 367.5 -111.5s274.5 -53.5 318.5 -67.5
c-42.667 -14.667 -148.5 -37.667 -317.5 -69s-291.833 -69.333 -368.5 -114c-110 -63.333 -185.333 -158 -226 -284zM846 507c-203.333 -95.333 -360.666 -143 -471.999 -143s-167 43.333 -167 130c0 90 58.167 135 174.5 135s271.166 -40.667 464.499 -122zM1810 507
c203.333 -95.333 360.666 -143 471.999 -143s167 43.333 167 130c0 90 -58.167 135 -174.5 135s-271.166 -40.667 -464.499 -122zM1322 18c95.333 -203.333 143 -360.668 143 -472.001s-44.167 -167 -132.5 -167s-132.5 58.333 -132.5 175s40.667 271.334 122 464.001z
M1322 982.998c95.333 203.333 143 360.668 143 472.001s-44.167 167 -132.5 167s-132.5 -58.333 -132.5 -175s40.667 -271.334 122 -464.001z" />
    <glyph glyph-name="quotedblleft" unicode="&#x201c;" horiz-adv-x="1412" 
d="M325.5 998c-63.667 0 -117.332 23.168 -160.999 69.501s-65.5 97.5 -65.5 153.5s13.667 108.667 41 158c54.667 102 154 175.333 298 220l37 -79c-57.333 -35.333 -98.833 -68.833 -124.5 -100.5s-40.834 -75.5 -45.501 -131.5h55c108.667 0 163 -45.667 163 -137
c0 -44.667 -17 -81.334 -51 -110.001s-82.833 -43 -146.5 -43zM915.502 998.001c-63.667 0 -117.332 23.168 -160.999 69.501s-65.5 97.5 -65.5 153.5s13.667 108.667 41 158c54.667 102 154 175.333 298 220l37 -79c-57.333 -35.333 -98.833 -68.833 -124.5 -100.5
s-40.834 -75.5 -45.501 -131.5h55c108.667 0 163 -45.667 163 -137c0 -44.667 -17 -81.334 -51 -110.001s-82.833 -43 -146.5 -43z" />
    <glyph glyph-name="quotedblright" unicode="&#x201d;" horiz-adv-x="1412" 
d="M1086.5 1599c63.667 0 117.331 -23.1699 160.998 -69.5029s65.5 -97.166 65.5 -152.499s-15.167 -110.666 -45.5 -165.999s-80.166 -105 -149.499 -149c-38 -24.667 -86 -46 -144 -64l-37 79c56.667 35.333 97.834 68.833 123.501 100.5s41.167 75.5 46.5 131.5h-55
c-108.667 0 -163 45.667 -163 137c0 44.667 17 81.334 51 110.001s82.833 43 146.5 43zM496.497 1599c63.667 0 117.331 -23.1699 160.998 -69.5029s65.5 -97.166 65.5 -152.499s-15.167 -110.666 -45.5 -165.999s-80.166 -105 -149.499 -149c-38 -24.667 -86 -46 -144 -64
l-37 79c56.667 35.333 97.834 68.833 123.501 100.5s41.167 75.5 46.5 131.5h-55c-108.667 0 -163 45.667 -163 137c0 44.667 17 81.334 51 110.001s82.833 43 146.5 43z" />
    <glyph glyph-name="dagger" unicode="&#x2020;" 
d="M-668 -449c109.333 -89.333 184.333 -134.002 225 -134.002c55.333 0 100.5 16 135.5 48s57.167 48 66.5 48c22.667 0 34 -13.667 34 -41s-11.667 -54.666 -35 -81.999s-55.833 -51.833 -97.5 -73.5s-77.834 -32.5 -108.501 -32.5c-60 0 -133.833 27.167 -221.5 81.5
s-143.167 108.833 -166.5 163.5c8 53.333 43 111.333 105 174s119.5 102.834 172.5 120.501s122.833 31.167 209.5 40.5v98h150v-220c-12 0.666992 -31.167 1 -57.5 1s-95.166 -14 -206.499 -42c-76.667 -19.333 -145 -69.333 -205 -150z" />
    <glyph glyph-name="bullet" unicode="&#x2022;" horiz-adv-x="860" 
d="M94 596l340 339l340 -339l-340 -340z" />
    <glyph glyph-name="ellipsis" unicode="&#x2026;" horiz-adv-x="2074" 
d="M168 -170c0 43.333 15.333 80.333 46 111s67.667 46 111 46s80.333 -15.333 111 -46s46 -67.667 46 -111s-15.333 -80.333 -46 -111s-67.667 -46 -111 -46s-80.333 15.333 -111 46s-46 67.667 -46 111zM871 -170c0 43.333 15.333 80.333 46 111s67.667 46 111 46
s80.333 -15.333 111 -46s46 -67.667 46 -111s-15.333 -80.333 -46 -111s-67.667 -46 -111 -46s-80.333 15.333 -111 46s-46 67.667 -46 111zM1582 -170c0 43.333 15.333 80.333 46 111s67.667 46 111 46s80.333 -15.333 111 -46s46 -67.667 46 -111
s-15.333 -80.333 -46 -111s-67.667 -46 -111 -46s-80.333 15.333 -111 46s-46 67.667 -46 111z" />
    <glyph glyph-name="perthousand" unicode="&#x2030;" horiz-adv-x="2656" 
d="M715 -4c0 -50 -28.9971 -75.0156 -86.9971 -75.0156c-22 0 -43 7.16699 -63 21.5s-30 37.333 -30 69s21.333 61.834 64 90.501c-10 40.667 -22.333 87 -37 139c-201.333 48.667 -332 81.334 -392 98.001c63.333 -42.667 105.666 -80.167 126.999 -112.5
s32 -82.833 32 -151.5c0 -16.667 -0.333008 -42.334 -1 -77.001c-142 8.66699 -221.667 116.334 -239 323.001l-42 -11v85l42 21c3.33301 10 5 22.5 5 37.5s-5.16699 41.333 -15.5 79s-15.5 66.5 -15.5 86.5c0 70.667 51.333 132.334 154 185.001
c15.333 -77.333 23 -151 23 -221s-17 -121 -51 -153c7.33301 1.33301 28.333 9.33301 63 24c35.333 58 69.5 131.667 102.5 221s55.5 164.666 67.5 225.999l-174 58c-92 42.667 -138 102.334 -138 179.001c0 13.333 1.33301 27.333 4 42c42.667 5.33301 76 8 100 8
c51.333 0 90.333 -15 117 -45l114 -159c2.66699 68.667 4 139 4 211s-3.33301 139.667 -10 203c-68.667 9.33301 -132.667 37.666 -192 84.999s-98.666 103.333 -117.999 168c23.333 10.667 53.666 16 90.999 16s80 -13 128 -39s87 -55.667 117 -89
c14.667 90.667 27 147.334 37 170.001c22.667 48.667 67 85 133 109c28.667 -30.667 43 -69.834 43 -117.501s-18.833 -99.667 -56.5 -156s-79.167 -103.5 -124.5 -141.5v-352c40.667 102 125.667 168.333 255 199c23.333 -20.667 35 -44 35 -70
c0 -51.333 -43.667 -110 -131 -176c-62 -46.667 -123 -82.667 -183 -108c-24.667 -116 -77 -257 -157 -423c94.667 50.667 237.334 125.334 428.001 224.001c-20.667 63.333 -31 120 -31 170c0 85.333 30.333 156.333 91 213c56 -46 84 -97.833 84 -155.5
s-16 -119.834 -48 -186.501c26.667 15.333 72 40.333 136 75c216.667 118 327.667 240.333 333 367c0.666992 8 0.666992 16 0 24c0 111.333 -36 177.666 -108 198.999c-34 10 -67 15 -99 15s-63.167 -9 -93.5 -27s-45.5 -44.667 -45.5 -80v-26c0 -11.333 12.667 -26 38 -44
c5.33301 -1.33301 10.333 -2 15 -2l64 15c9.33301 0 15 -5.66699 17 -17s-5.33301 -20.166 -22 -26.499s-31.334 -9.5 -44.001 -9.5c-49.333 0 -88.666 27 -117.999 81c-20 37.333 -33.333 65.666 -40 84.999s-10 38.833 -10 58.5v39.5c-35.333 24 -53 56 -53 96
c0 22 5.66699 41.333 17 58c32.667 48 85.334 72 158.001 72c134.667 0 240 -84.333 316 -253c32.667 -72.667 49 -146 49 -220s-20.333 -136.333 -61 -187l15 -1c75.333 67.333 169.666 154 282.999 260c-4 36.667 -27.833 77 -71.5 121s-68.167 70 -73.5 78
c-30.667 44.667 -46 101 -46 169c6 1.33301 14 2 24 2s29 -5.33301 57 -16s48.833 -16 62.5 -16s25.834 3 36.501 9c0 52 15.333 107 46 165c28 -11.333 54.667 -41.166 80 -89.499s46 -78.166 62 -89.499c40.667 48.667 119.334 98 236.001 148
c0.666992 -4.66699 1 -9.66699 1 -15c0 -64.667 -30.333 -154 -91 -268c12.667 -2 29.334 -3 50.001 -3h48c74 0 129 -8 165 -24c-8 -24 -36.833 -49.333 -86.5 -76s-74.5 -49.667 -74.5 -69c3.33301 -14 19.166 -32.5 47.499 -55.5s45.166 -44.833 50.499 -65.5
c-42.667 -14 -81.834 -21 -117.501 -21s-64.5 1.33301 -86.5 4c-4.66699 -20 -8.33398 -55.167 -11.001 -105.5s-10.667 -86.5 -24 -108.5c-70.667 23.333 -123 61 -157 113c-17.333 26 -32.5 62.833 -45.5 110.5s-28.5 71.5 -46.5 71.5
c-190 -190 -390.667 -352.333 -602 -487c92 -9.33301 270.333 -46.333 535 -111c32 54.667 76.5 101 133.5 139s112 57 165 57s98.833 -13.333 137.5 -40c-44 -112 -165.667 -175 -365 -189c108.667 -37.333 255.334 -99 440.001 -185c-10.667 22.667 -16 53.334 -16 92.001
s11 81 33 127c24 -4 48.667 -24.667 74 -62s44.333 -60.666 57 -69.999c22.667 50 72.667 93.333 150 130c21.333 -13.333 32 -31.333 32 -54s-3.66699 -47.667 -11 -75l-15 -59c50 6.66699 118.667 16.334 206 29.001v-8c0 -26.667 -7.5 -49.5 -22.5 -68.5
s-42.5 -51.167 -82.5 -96.5c8.66699 -19.333 31.5 -43.666 68.5 -72.999s59.833 -51.666 68.5 -66.999c-10 -16.667 -50.833 -29.167 -122.5 -37.5s-110.167 -13.166 -115.5 -14.499c-2.66699 -9.33301 -4 -19.666 -4 -30.999l7 -77c0 -23.333 -8.66699 -42.333 -26 -57h-3
c-30 0 -52.833 9.33301 -68.5 28s-36.167 43.334 -61.5 74.001c-8.66699 -5.33301 -28.334 -27.666 -59.001 -66.999s-60 -59 -88 -59c-5.33301 0 -10.666 0.666992 -15.999 2c-1.33301 6.66699 -2 15.667 -2 27l5 94c0 9.33301 -1.66699 18 -5 26
c-6.66699 -2 -25.167 -8.33301 -55.5 -19s-54.833 -16 -73.5 -16c-2 8.66699 -3 20.334 -3 35.001s11.167 39 33.5 73s35.833 55.667 40.5 65c-38 10.667 -94.333 31 -169 61c36.667 44 110 79.667 220 107c-50.667 30.667 -130.334 67.5 -239.001 110.5
s-174 70.167 -196 81.5c5.33301 -26 24 -68.833 56 -128.5s48 -108.834 48 -147.501s-23 -79 -69 -121c-83.333 42 -125 122 -125 240c0 32 2.83301 69.5 8.5 112.5s8.5 66.5 8.5 70.5c-70 19.333 -264 59.333 -582 120c-21.333 -8.66699 -48 -21 -80 -37h6
c60.667 0 112.334 -10.5 155.001 -31.5s100.334 -57.833 173.001 -110.5c-20 -31.333 -54.667 -47 -104 -47s-106.166 14.333 -170.499 43s-116.5 57.334 -156.5 86.001c-138 -77.333 -240.5 -133 -307.5 -167s-141.5 -66 -223.5 -96c35.333 -5.33301 90 -18.333 164 -39
s128 -33 162 -37c23.333 10 46.333 20 69 30c28.667 16.667 43 37.334 43 62.001c0 6.66699 -0.666992 13.667 -2 21c13.333 48 42 72 86 72c23.333 0 44.166 -9.66699 62.499 -29s27.5 -41 27.5 -65c0 -51.333 -28.667 -77 -86 -77l-60 2
c-40.667 0 -69.334 -13.667 -86.001 -41c262.667 -47.333 565.667 -192 909 -434c47.333 19.333 93.5 37.5 138.5 54.5s89.167 25.5 132.5 25.5c85.333 0 166 -39.667 242 -119c-67.333 -41.333 -138.5 -62 -213.5 -62s-137.167 10 -186.5 30
c23.333 -14 64.333 -43.667 123 -89s92.667 -68 102 -68l17 6c11.333 4 29.333 6 54 6c66 0 131 -25.667 195 -77s96 -109.333 96 -174c0 -31.333 -9.66699 -58 -29 -80s-44.333 -33 -75 -33c-64.667 0 -127.5 36 -188.5 108s-92.833 141.333 -95.5 208l-242 179
c32.667 -71.333 49 -138.666 49 -201.999c0 -103.333 -36.667 -178.333 -110 -225c-49.333 40.667 -74 106 -74 196c0 46 6 100 18 162l22 115c-158.667 100.667 -276 171.334 -352 212.001c-154.667 84 -299.667 145.667 -435 185c63.333 -42 134.5 -125.333 213.5 -250
s118.5 -236.667 118.5 -336c0 -10 -0.666992 -20 -2 -30c160.667 -90 241 -184 241 -282c0 -23.333 -5 -46 -15 -68c-80.667 14 -140 40 -178 78c-23.333 23.333 -40.5 55 -51.5 95s-21.5 62.333 -31.5 67c-29.333 -78.667 -80 -138.667 -152 -180s-148 -62 -228 -62
s-144.833 18.667 -194.5 56s-78.167 90.666 -85.5 159.999c-2.66699 26 -4 54.333 -4 85c0 114.667 14 172 42 172c16 0 24 -10.667 24 -32l-14 -150c0 -81.333 14 -136.333 42 -165c47.333 -47.333 105.666 -71 174.999 -71c10 0 23.667 1 41 3
c172 20.667 277.667 95.334 317 224.001c-40.667 -55.333 -97.834 -83 -171.501 -83s-122.834 24 -147.501 72c42 83.333 100.667 125 176 125c34 0 91.333 -11.667 172 -35c-20 156 -79.667 298.333 -179 427c-68 87.333 -140 154.333 -216 201
c-1.33301 -6 -2 -13.667 -2 -23s4.33301 -27.333 13 -54s13.667 -43.667 15 -51c50.667 -22.667 76 -56 76 -100zM2092 1443.98l-165 -4c-89.333 -6.66699 -140 -26 -152 -58c72.667 18 117.667 27 135 27s26 -1.33301 26 -4c0 -8.66699 -47.333 -31.667 -142 -69
c9.33301 -0.666992 27 -1 53 -1s71.333 8 136 24s101 44.333 109 85zM1750 1301.98c68 -64.667 141.668 -97 221.001 -97c24.667 0 48.334 3.66699 71.001 11c-24.667 60 -84.667 90 -180 90c-12.667 0 -31.334 -0.666992 -56.001 -2s-43.334 -2 -56.001 -2zM1961 1712.98
c-74 -34 -138.332 -78.8301 -192.999 -134.497s-82 -117.834 -82 -186.501c3.33301 0 24.5 27.167 63.5 81.5s70.833 86.166 95.5 95.499c-8.66699 -22.667 -26.834 -51.834 -54.501 -87.501s-46.167 -62.5 -55.5 -80.5c112.667 60 188 164 226 312zM1732 1244.99
c4.66699 -14 19.167 -38.834 43.5 -74.501s36.5 -60.167 36.5 -73.5s-0.333008 -23 -1 -29c-13.333 8 -31.333 34.333 -54 79s-41.334 69.334 -56.001 74.001c0 -94 50 -166.333 150 -217c5.33301 17.333 8 41.5 8 72.5s-9.66699 67.167 -29 108.5s-46.666 62 -81.999 62
c-4.66699 0 -10 -0.666992 -16 -2zM1665 1580.99l-2 -39.998c0 -17.333 2 -30.666 6 -39.999c25.333 20 38 48.167 38 84.5s-6.5 70.666 -19.5 102.999s-31.833 49.166 -56.5 50.499c-16.667 -45.333 -25 -93.333 -25 -144s11.333 -95.334 34 -134.001
c1.33301 8.66699 2 18 2 28l-9 89c0 22 6 41 18 57c9.33301 -12.667 14 -30.667 14 -54zM1517 1536.99l71 -61.001c0 27.333 -13 58 -39 92s-52.333 51 -79 51c-10.667 0 -20 -3.66699 -28 -11c40 -113.333 91.333 -181.666 154 -204.999c2 15.333 -10.5 38 -37.5 68
s-40.833 52 -41.5 66zM1257 1415.99c-62.667 81.333 -128.665 122 -197.998 122c-40.667 0 -76.834 -14.333 -108.501 -43s-47.5 -63 -47.5 -103c0 -9.33301 1 -18 3 -26c55.333 62.667 118.666 94 189.999 94c49.333 0 103 -14.667 161 -44zM918.007 1628.99
c-46.667 -19.333 -70 -45.667 -70 -79c0 -10 3 -20 9 -30c17.333 4 46.333 15.667 87 35s74.334 29 101.001 29c48 0 104 -23.667 168 -71c-62.667 87.333 -136.334 131 -221.001 131c-25.333 0 -50 -5 -74 -15zM1918.01 -416.014
c64 -46.667 103.334 -76.334 118.001 -89.001c42 -36.667 66.667 -71.667 74 -105c-52.667 27.333 -124 78.333 -214 153c19.333 -53.333 50.333 -103.666 93 -150.999s85 -71 127 -71c19.333 0 37.666 5.66699 54.999 17c5.33301 14 8 28.667 8 44
c0 55.333 -27.833 103 -83.5 143s-109.167 60 -160.5 60c-6 0 -11.667 -0.333008 -17 -1zM2310.01 256.986c-2.66699 -46.667 43 -70 137 -70c32.667 0 56.667 4.33301 72 13zM2480.01 427.986l-78 3.00195c-19.333 -6.66699 -38.666 -14 -57.999 -22
c-22.667 -12 -34 -28 -34 -48c0 -6.66699 0.666992 -13.334 2 -20.001c7.33301 -10 21.166 -14.833 41.499 -14.5s36.5 0.833008 48.5 1.5c52 19.333 78 52.666 78 99.999zM2332.01 569.988c-27.333 0 -52.167 -15.1699 -74.5 -45.5029s-33.5 -58.166 -33.5 -83.499
c0 -3.33301 0.333008 -6.66602 1 -9.99902c2 -14.667 20.333 -22 55 -22c35.333 31.333 53 78.333 53 141c0 6.66699 -0.333008 13.334 -1 20.001zM2292.01 202.985c-12 8 -22 12.001 -30 12.001c-17.333 0 -26 -17.333 -26 -52c0 -51.333 24.667 -92 74 -122
c13.333 25.333 20 54.166 20 86.499s-12.667 57.5 -38 75.5zM2207.01 237.986c44.667 0 69 25 73 75c-2 39.333 -26.667 59 -74 59c-7.33301 0 -14.333 -0.666992 -21 -2c-23.333 -10 -40 -35 -50 -75c16.667 -38 40.667 -57 72 -57zM2173.01 202.986
c-49.333 -30 -74 -79.667 -74 -149c0 -9.33301 0.333008 -18.333 1 -27c18.667 0 39.667 17 63 51s35 61.5 35 82.5s-8.33301 35.167 -25 42.5zM2098.01 561.986l0.00195312 -92.001c1.33301 -37.333 13.666 -62.666 36.999 -75.999c23.333 6.66699 35 22.167 35 46.5
s-6.33301 52.833 -19 85.5s-26.334 49 -41.001 49c-6 0 -10 -4.33301 -12 -13zM2089.01 252.985c-60.667 -26 -101.332 -65.666 -121.999 -118.999c5.33301 -12 17.666 -16.5 36.999 -13.5s25.333 4.5 18 4.5c20 6 41.333 18.333 64 37s34 36.167 34 52.5
s-10.333 29.166 -31 38.499zM2089.01 352.986l-87 9c-35.333 -12.667 -54 -19.667 -56 -21c-20 -10 -31.333 -24 -34 -42c54 -23.333 84.333 -35 91 -35s13 1 19 3c18.667 0 35 7.16699 49 21.5s21 27.5 21 39.5s-1 20.333 -3 25z" />
    <glyph glyph-name="guilsinglleft" unicode="&#x2039;" horiz-adv-x="1220" 
d="M82 703h1046v-209h-1046v209zM447 234c0 43.333 15.333 80.333 46 111s67.667 46 111 46s80.333 -15.333 111 -46s46 -67.667 46 -111s-15.333 -80.333 -46 -111s-67.667 -46 -111 -46s-80.333 15.333 -111 46s-46 67.667 -46 111zM447 962
c0 43.333 15.333 80.333 46 111s67.667 46 111 46s80.333 -15.333 111 -46s46 -67.667 46 -111s-15.333 -80.333 -46 -111s-67.667 -46 -111 -46s-80.333 15.333 -111 46s-46 67.667 -46 111z" />
    <glyph glyph-name="partialdiff" unicode="&#x2202;" horiz-adv-x="1140" 
 />
    <glyph glyph-name=".null" horiz-adv-x="0" 
 />
    <glyph glyph-name="nonmarkingreturn" horiz-adv-x="700" 
 />
  </font>
</defs>
</svg>
