<?xml version="1.0" standalone="no"?>
<!DOCTYPE svg PUBLIC "-//W3C//DTD SVG 1.1//EN" "http://www.w3.org/Graphics/SVG/1.1/DTD/svg11.dtd" >
<svg xmlns="http://www.w3.org/2000/svg" xmlns:xlink="http://www.w3.org/1999/xlink" version="1.1">
<metadata>
Created by FontForge 20170731 at Sun Apr 15 22:24:57 2018
 By Aleksey,,,
Copyright (C) 2016-2018 GurbaniNow Dev Team (https://gurbaninow.com); Copyright (C) 2005 PunjabiOnline.
</metadata>
<defs>
<font id="OpenAnmolUni-Regular" horiz-adv-x="12" >
  <font-face 
    font-family="OpenAnmolUni"
    font-weight="400"
    font-stretch="normal"
    units-per-em="2048"
    panose-1="0 0 6 0 0 0 0 0 0 0"
    ascent="1638"
    descent="-410"
    x-height="1012"
    cap-height="1441"
    bbox="-1642 -1156 3651 1981"
    underline-thickness="64"
    underline-position="-894"
    unicode-range="U+0020-F051"
  />
<missing-glyph horiz-adv-x="1024" 
d="M934 1976v-1951h-772v1951h772zM847 1889h-598v-1777h598v1777z" />
    <glyph glyph-name=".notdef" horiz-adv-x="1024" 
d="M934 1976v-1951h-772v1951h772zM847 1889h-598v-1777h598v1777z" />
    <glyph glyph-name=".null" horiz-adv-x="0" 
 />
    <glyph glyph-name="nonmarkingreturn" horiz-adv-x="682" 
 />
    <glyph glyph-name="space" unicode=" " horiz-adv-x="649" 
 />
    <glyph glyph-name="exclam" unicode="!" horiz-adv-x="845" 
d="M479 586q-40 422 -40 596q0 166 8 192q7 25 29 38q19 12 58 12q71 0 89 -50q7 -25 7 -180q0 -159 -64 -848h-65zM448 28q-35 34 -35 85t35 85q33 35 84 35q50 0 85 -35t35 -85t-35 -85t-85 -35q-51 0 -84 35z" />
    <glyph glyph-name="quotedbl" unicode="&#x22;" horiz-adv-x="882" 
d="M209 957q-79 401 -79 462q0 58 23 79t78 21t78 -21t23 -78q0 -54 -80 -463h-43zM633 972q-77 403 -77 452q0 53 23 74t78 21t78 -21t23 -78q0 -56 -78 -463h-45z" />
    <glyph glyph-name="numbersign" unicode="#" horiz-adv-x="1513" 
d="M1022 474h290v-144h-331l-77 -299h-144l75 299h-32h-282l-75 -299h-147l76 299h-32h-298v144h371l78 314h-291v145h327l76 303h148l-81 -303h33h284l79 303h146l-76 -303h32h295v-145h-367zM560 474h319l76 314h-32h-286z" />
    <glyph glyph-name="dollar" unicode="$" horiz-adv-x="877" 
d="M435 746q180 -107 235 -151q120 -97 126 -216v-14q0 -145 -98 -232q-98 -86 -263 -108v-141h-72v141q-136 22 -211 84q-76 61 -132 175l131 47q31 -67 73 -107q40 -40 113 -59l26 -7v474l-12 7q-169 84 -230 134q-112 94 -115 232v7q0 130 106 203q104 73 251 94v129h72
v-132l16 -5q128 -38 269 -203l-106 -85q-82 101 -148 138l-31 18v-423zM158 1007q0 -103 130 -173q3 -2 9 -5.5t16 -9.5t19 -12l31 -19v383l-24 -4q-79 -13 -130 -54t-51 -106zM435 153l24 4q85 14 139 57q56 43 56 149q0 58 -52 109q-52 53 -136 102l-31 19v-440z" />
    <glyph glyph-name="percent" unicode="%" horiz-adv-x="1584" 
d="M416 -5h-152l828 1522h130zM184 996q-96 96 -96 232t96 232q95 95 224 95q130 0 222 -95q92 -97 92 -232t-92 -232q-92 -95 -222 -95q-129 0 -224 95zM410 1415q-73 0 -128 -55q-54 -56 -54 -132t54 -131q55 -55 128 -55q74 0 126 55t52 131q0 77 -52 132t-126 55z
M1390 203q-94 -96 -226 -96q-130 0 -221 96q-91 95 -91 231t91 230q91 96 221 96q132 0 226 -96q96 -95 96 -230t-96 -231zM1037 566q-52 -56 -52 -133t52 -132t125 -55q74 0 129 55t55 132t-55 133q-57 55 -129 55t-125 -55z" />
    <glyph glyph-name="ampersand" unicode="&#x26;" horiz-adv-x="1751" 
d="M1258 789q0 115 -100 137v6h414v-4q-88 -9 -128 -42q-42 -31 -182 -259q-138 -224 -175 -269l-12 -17l13 -15q175 -208 334 -208q157 0 214 150l7 -6q-79 -271 -313 -271q-175 0 -364 202l-16 18l-19 -16q-229 -204 -455 -204q-150 0 -256 76q-112 85 -112 228
q0 277 433 512l20 11l-9 21q-84 185 -84 311q0 176 127 267q101 71 225 71q125 0 200 -66q77 -65 77 -184t-107 -218q-67 -62 -233 -149l-22 -12l12 -22q133 -235 282 -438l19 -26l20 25q190 229 190 391zM1010 1249q-1 133 -109 184q-33 16 -78 16q-88 0 -148 -62
q-60 -61 -60 -159q0 -95 89 -306l10 -24l24 12q272 132 272 339zM905 261q-205 280 -313 497l-12 24l-23 -13q-265 -156 -265 -376q0 -133 84 -221q86 -90 216 -90q131 0 309 145l18 15z" />
    <glyph glyph-name="quotesingle" unicode="'" horiz-adv-x="495" 
d="M227 972q-76 398 -76 453q0 52 23 73q22 21 78 21t78 -21q23 -22 22 -76q0 -58 -78 -464h-45z" />
    <glyph glyph-name="parenleft" unicode="(" horiz-adv-x="904" 
d="M751 -267l-14 -47q-283 142 -459 401q-177 258 -177 581q0 578 644 929l7 -49q-259 -178 -358 -358q-102 -182 -102 -507q0 -327 105 -562q106 -233 354 -388z" />
    <glyph glyph-name="parenright" unicode=")" horiz-adv-x="864" 
d="M87 -268q250 155 354 389q104 237 104 562t-102 507q-102 181 -355 358l5 49q646 -351 646 -929q0 -324 -178 -581q-179 -259 -460 -401z" />
    <glyph glyph-name="asterisk" unicode="*" horiz-adv-x="1072" 
d="M541 1104l44 -25q53 -30 133 -44q193 -34 193 -116q0 -40 -37 -56q-12 -5 -22 -5q-66 0 -163 118q-41 47 -104 95zM538 1104l-48 20q-51 22 -156 45q-105 22 -138 47q-33 26 -33 56q0 31 17 48q18 18 43 18q67 0 160 -105q53 -66 117 -105zM530 1097l-34 -26
q-58 -43 -122 -111q-60 -66 -94 -89q-23 -13 -50 -13q-26 0 -46 18q-21 19 -21 43q0 66 121 100q13 4 94 23q57 11 112 36zM541 1115l-3 37q-8 81 -36 162q-30 80 -30 125q0 86 71 86q32 0 49 -19q15 -21 15 -67q0 -45 -29 -147q-29 -99 -33 -139zM557 1113l26 16
q49 31 102 87q102 120 167 120q24 0 44 -18q20 -17 20 -44q0 -62 -117 -94q-47 -13 -107 -26q-73 -18 -104 -30zM541 1103l4 -54q4 -63 33 -159q29 -86 29 -129q0 -39 -17 -65q-16 -25 -51 -25q-69 0 -69 84q0 47 24 120q25 78 30 95q8 23 12 79z" />
    <glyph glyph-name="plus" unicode="+" horiz-adv-x="1244" 
d="M698 151h-162v439h-440v163h440v439h162v-439h440v-163h-440v-439z" />
    <glyph glyph-name="comma" unicode="," horiz-adv-x="694" 
d="M370 1q-11 3 -34 6h-2q-88 2 -118 13q-51 20 -55 81q-2 5 0 11v2q0 54 43 91q44 36 125 36h2q85 0 143 -67q60 -66 60 -170q0 -196 -304 -343l-26 42q90 60 130 115q44 53 55 156l2 22z" />
    <glyph glyph-name="hyphen" unicode="-" horiz-adv-x="1114" 
d="M123 753h866v-163h-866v163z" />
    <glyph glyph-name="period" unicode="." horiz-adv-x="606" 
d="M130 96q0 68 48 118q48 48 116 48t116 -48q48 -50 48 -118q0 -70 -48 -116q-48 -48 -116 -48t-116 48q-48 46 -48 116z" />
    <glyph glyph-name="slash" unicode="/" horiz-adv-x="799" 
d="M6 -7l586 1548h165l-587 -1548h-164z" />
    <glyph glyph-name="zero" unicode="0" horiz-adv-x="1039" 
d="M758 1295q160 -205 160 -556q0 -199 -53 -367q-65 -206 -194 -297q-94 -76 -179 -76q-169 0 -300 233q-113 200 -113 485q0 486 260 674q80 65 163 65q134 0 256 -161zM636 117q113 179 113 669q0 250 -51 416q-63 224 -197 224q-71 0 -125 -73q-16 -21 -54 -137
q-44 -116 -48 -150q-27 -188 -27 -376q0 -298 75 -492q57 -172 173 -172q86 0 141 91z" />
    <glyph glyph-name="one" unicode="1" horiz-adv-x="627" 
d="M361 152q11 -81 51 -102q41 -20 127 -25h-495q93 5 132 25q39 22 49 100q1 7 1 109v778q0 160 -10 201q-20 86 -94 86q-28 0 -64 -13l292 145h11v-1304z" />
    <glyph glyph-name="two" unicode="2" horiz-adv-x="989" 
d="M742 155q96 18 154 106l-86 -236h-763v11q284 265 398 421q230 311 230 542q0 137 -75 235q-74 99 -186 99q-111 0 -194 -62q-82 -61 -126 -182h-2q29 162 121 263q92 104 237 104t253 -102q114 -101 114 -256q0 -240 -283 -571q-211 -264 -285 -338l-46 -43h384
q107 0 155 9z" />
    <glyph glyph-name="three" unicode="3" horiz-adv-x="881" 
d="M528 837q246 -102 246 -354q0 -180 -114 -312q-145 -172 -378 -172t-233 94q0 24 19 41q21 18 45 18q25 0 45 -6t99 -48q77 -46 141 -46q100 0 176 91q83 91 83 195q0 106 -34 180q-36 75 -69 105q-104 113 -243 117q57 17 108 53q148 99 148 294q0 115 -65 189
q-58 75 -154 75q-154 0 -269 -171l-2 2q65 140 151 207q88 67 186 67q138 0 225 -106q64 -79 64 -167q0 -147 -181 -304l-25 -27z" />
    <glyph glyph-name="four" unicode="4" horiz-adv-x="903" 
d="M888 516v-111h-192v-380h-126v380h-567v110l611 941h82v-940h192zM570 516v798l-493 -759l-28 -39h521z" />
    <glyph glyph-name="five" unicode="5" horiz-adv-x="924" 
d="M348 1426h432l-64 -142h-389l-88 -198l-14 -31l33 -5q228 -42 365 -191q145 -148 145 -337q0 -108 -44 -201q-85 -179 -250 -265q-98 -57 -192 -57q-97 0 -166 30q-71 30 -71 92q0 23 19 39t48 16q30 0 112 -54q83 -53 149 -53q115 0 202 103q95 103 95 246
q0 142 -92 258q-82 113 -186 166q-103 52 -288 62z" />
    <glyph glyph-name="six" unicode="6" horiz-adv-x="984" 
d="M231 765l55 36q121 94 255 94q133 0 227 -121q93 -122 93 -289t-105 -313q-126 -173 -306 -173q-120 0 -212 93q-194 185 -194 478q0 389 286 663q205 223 461 223h41v-2q-125 -15 -209 -52q-82 -40 -163 -135q-145 -166 -212 -439zM270 204q76 -184 207 -184
q113 0 174 115q61 107 61 257t-58 276q-74 173 -211 173q-73 0 -207 -91l-10 -6q-20 -158 -20 -243q0 -159 64 -297z" />
    <glyph glyph-name="seven" unicode="7" horiz-adv-x="812" 
d="M811 1426v-18l-442 -1413h-66l376 1264l10 33h-380q-117 0 -181 -36q-67 -38 -119 -117l116 287h686z" />
    <glyph glyph-name="eight" unicode="8" horiz-adv-x="907" 
d="M488 782q164 -136 233 -229q68 -92 68 -205q0 -159 -115 -253q-58 -47 -133 -72q-61 -24 -137 -24q-157 0 -265 123q-86 98 -86 212q0 177 266 377l21 19l-20 20q-126 109 -172 169q-79 101 -79 213q0 149 109 236q109 88 234 88q126 0 235 -79q110 -80 110 -212
q0 -163 -267 -342l-25 -19zM451 819q103 112 151 180q45 66 45 181q0 114 -66 183q-61 70 -155 70q-92 0 -163 -60q-81 -63 -81 -168q0 -135 115 -231zM342 703q-167 -152 -167 -364q0 -136 73 -227q70 -94 174 -94t180 64q78 64 78 162q0 96 -44 163q-70 105 -281 310z" />
    <glyph glyph-name="nine" unicode="9" horiz-adv-x="990" 
d="M470 1456q145 0 261 -140q151 -175 151 -424q0 -248 -116 -451q-116 -204 -294 -337q-143 -109 -336 -109h-21h-19q290 16 457 308q84 148 127 317l16 61l-53 -34q-134 -98 -243 -98q-146 0 -240 121q-93 122 -93 296q0 173 104 318q124 172 299 172zM699 706
q21 147 21 242q0 96 -33 209q-75 270 -237 270q-115 0 -181 -127q-53 -98 -53 -231q0 -232 98 -363q64 -99 169 -99t209 93z" />
    <glyph glyph-name="colon" unicode=":" horiz-adv-x="784" 
d="M340 840q-37 40 -37 91t37 91q40 37 92 37q51 0 90 -37q37 -38 37 -91t-37 -91q-39 -37 -90 -37q-52 0 -92 37zM303 106q0 53 37 90q38 38 92 38q53 0 90 -38q37 -36 37 -90q0 -53 -37 -90t-90 -37q-54 0 -92 37q-37 39 -37 90z" />
    <glyph glyph-name="semicolon" unicode=";" horiz-adv-x="702" 
d="M346 4q-4 0 -64 4q-46 0 -80 12q-50 20 -50 78q0 59 39 92t118 33t133 -61q55 -61 55 -158q0 -182 -281 -319l-23 37q79 51 123 106q40 52 51 148l2 23zM243 840q-37 38 -37 91t37 91q39 37 91 37q53 0 90 -37q38 -38 38 -91t-38 -91q-37 -37 -90 -37q-52 0 -91 37z" />
    <glyph glyph-name="less.001" unicode="&#x3c;" horiz-adv-x="1222" 
d="M66 674v29l1123 488v-129l-891 -379l891 -367v-132z" />
    <glyph glyph-name="equal" unicode="=" horiz-adv-x="1440" 
d="M1294 1063v-184h-1135v184h1135zM1294 459v-184h-1135v184h1135z" />
    <glyph glyph-name="greater.001" unicode="&#x3e;" horiz-adv-x="1192" 
d="M25 184v126l905 373l-905 374v134l1123 -492v-29z" />
    <glyph glyph-name="question" unicode="?" horiz-adv-x="1329" 
d="M476 1024q-116 0 -116 176t106 261q106 86 287 86q87 0 182 -42q94 -42 163 -118q68 -77 68 -229q0 -68 -78 -170q-32 -37 -142 -159q-84 -92 -115 -229q-2 -12 -11 -83t-15 -123h-75v14q0 83 -7 160q-7 76 -7 97q0 104 64 207q17 30 108 142q89 110 89 169
q0 150 -60 231q-60 80 -178 80q-59 0 -163 -58q-100 -61 -100 -123q0 -22 30 -49q102 -92 102 -136q0 -47 -43 -75q-44 -29 -89 -29zM668 -31q-47 47 -47 114q0 66 47 115q47 47 114 47t114 -47q48 -48 48 -115t-48 -114q-47 -47 -114 -47t-114 47z" />
    <glyph glyph-name="at" unicode="@" horiz-adv-x="2028" 
d="M1496 1180q-226 -648 -226 -702q0 -52 25 -81q25 -30 71 -30q130 0 218 85q88 87 130 218q41 134 41 274q0 280 -175 449t-460 169q-215 -1 -403 -123q-279 -183 -369 -527q-29 -113 -29 -223q0 -219 89 -397q86 -180 254 -290q166 -110 383 -110q311 0 556 190l34 -57
q-241 -211 -613 -211q-224 0 -442 106q-220 106 -342 304q-121 199 -121 449q0 391 297 699q176 182 450 252q130 32 282 32q153 0 298 -53q140 -52 245 -151q216 -209 216 -517q0 -153 -72 -302q-112 -231 -333 -304q-72 -25 -158 -25q-83 0 -116 34q-33 33 -63 123l-20 59
l-27 -56q-65 -134 -194 -150q-42 -5 -80 -5q-100 0 -170 62q-76 92 -76 228q0 134 72 275q73 139 191 229q119 90 253 90q133 0 133 -129l50 -3q9 69 28 119h173zM793 579q-2 -185 89 -185q72 0 130 50q56 52 107 148l127 366q-17 91 -48 134t-96 43q-108 0 -191 -138
q-118 -193 -118 -418z" />
    <glyph glyph-name="A" unicode="A" horiz-adv-x="1266" 
d="M149 25h-152l525 1416h165l558 -1416h-166l-166 444h-607zM341 577h534l-155 440q-63 180 -97 302l-27 99l-19 -101q-28 -147 -73 -276z" />
    <glyph glyph-name="B" unicode="B" horiz-adv-x="1200" 
d="M659 25h-509v1416h500q278 0 383 -169q53 -86 53 -181q0 -195 -190 -289l-52 -28l56 -18q121 -36 189 -121t68 -207q0 -206 -141 -311q-121 -92 -357 -92zM294 825h321q121 0 185 21q65 23 103 80q42 58 42 144t-38 145q-33 56 -100 81q-68 22 -214 22h-299v-493z
M294 148h365q89 0 124 7q106 21 164 90q59 70 59 172q0 200 -168 260q-69 25 -203 25h-341v-554z" />
    <glyph glyph-name="C" unicode="C" horiz-adv-x="1346" 
d="M723 91q333 0 425 368l144 -37q-58 -206 -200 -324q-142 -123 -354 -123q-407 0 -560 373q-76 183 -76 396q0 475 319 659q145 88 331 88q184 0 321 -105q135 -98 193 -279l-143 -33q-106 301 -386 301h-4q-154 0 -266 -82q-116 -84 -165 -238q-50 -156 -50 -310
q0 -432 227 -578q112 -76 244 -76z" />
    <glyph glyph-name="D" unicode="D" horiz-adv-x="1379" 
d="M643 25h-485v1416h463q154 0 236 -20q253 -61 358 -340q55 -146 55 -371q0 -224 -95 -402q-111 -204 -319 -259q-93 -24 -213 -24zM302 148h320q245 0 349 110q149 154 149 486q0 436 -262 542q-78 32 -240 32h-316v-1170z" />
    <glyph glyph-name="E" unicode="E" horiz-adv-x="1233" 
d="M1156 25h-994v1416h960v-123h-816v-499h761v-122h-761v-549h850v-123z" />
    <glyph glyph-name="F" unicode="F" horiz-adv-x="1118" 
d="M312 25h-144v1416h889v-123h-745v-504h638v-123h-638v-666z" />
    <glyph glyph-name="G" unicode="G" horiz-adv-x="1460" 
d="M1243 1063q-103 312 -419 312q-248 0 -388 -171q-144 -170 -144 -466q0 -425 267 -569q126 -69 250 -69q125 0 241 46q117 44 208 128v326h-411v122l551 1v-523q-274 -225 -561 -225q-196 0 -357 91q-161 89 -250 266q-88 176 -88 392q0 215 84 400q86 186 241 276
q155 91 356 91q301 0 447 -186q64 -78 100 -206z" />
    <glyph glyph-name="H" unicode="H" horiz-adv-x="1280" 
d="M254 25h-144v1416h144v-602h762v602h144v-1416h-144v691h-762v-691z" />
    <glyph glyph-name="I" unicode="I" horiz-adv-x="519" 
d="M335 25h-144v1416h144v-1416z" />
    <glyph glyph-name="J" unicode="J" horiz-adv-x="858" 
d="M186 387q72 -226 218 -289q68 0 115 36q58 37 79 102q23 63 23 195v985h144v-974q0 -323 -172 -417q-88 -50 -188 -50q-163 0 -254 97q-90 95 -92 297z" />
    <glyph glyph-name="K" unicode="K" horiz-adv-x="1176" 
d="M204 25h-144v1416h144v-762l43 42l670 720h191l-557 -566l597 -850h-194l-494 755l-248 -254l-8 -7v-494z" />
    <glyph glyph-name="L" unicode="L" horiz-adv-x="1039" 
d="M966 25h-816v1416h144v-1293h672v-123z" />
    <glyph glyph-name="M" unicode="M" horiz-adv-x="1540" 
d="M289 25h-137v1416h249l321 -1021q39 -124 66 -216l22 -79l23 79q26 90 73 234l327 1003h218v-1416h-137v1350l-49 -140l-399 -1210h-131l-397 1231l-49 143v-1374z" />
    <glyph glyph-name="N" unicode="N" horiz-adv-x="1281" 
d="M292 25h-136v1416h161l712 -1140l46 -68v1208h136v-1416h-161l-712 1141l-46 68v-1209z" />
    <glyph glyph-name="O" unicode="O" horiz-adv-x="1493" 
d="M1434 735q0 -216 -83 -396q-83 -179 -239 -271q-154 -93 -334 -93q-181 0 -330 97q-150 95 -234 272q-82 176 -82 369q0 344 178 562q169 217 474 217q181 0 333 -94q151 -96 233 -270q84 -177 84 -393zM785 1375q-257 0 -387 -202q-116 -173 -116 -449t135 -453
q131 -180 369 -180q240 0 367 186q131 182 131 455q0 400 -240 563q-116 80 -259 80z" />
    <glyph glyph-name="P" unicode="P" horiz-adv-x="1266" 
d="M302 25h-144v1416h504q126 0 199 -14q195 -34 275 -196q41 -87 41 -189q0 -421 -500 -421h-375v-596zM302 744h378q163 0 251 74q96 74 96 218q-2 94 -49 168q-49 76 -131 100q-48 14 -171 14h-374v-574z" />
    <glyph glyph-name="Q" unicode="Q" horiz-adv-x="1493" 
d="M1079 71q-163 -96 -343 -96q-182 0 -330 95q-147 93 -233 268q-85 174 -85 390t82 395t235 275q155 94 335 94q181 0 334 -94q152 -97 233 -270q83 -175 83 -393q0 -365 -213 -577l-22 -22l25 -18q121 -87 230 -133l-38 -92q-149 58 -293 178zM775 263l30 97
q139 -46 231 -134l15 -15l16 16q173 170 173 507q0 397 -239 561q-116 80 -260 80q-248 0 -374 -184q-129 -182 -129 -457q0 -277 130 -458q128 -185 373 -185q105 0 195 43l40 19l-37 26q-78 55 -164 84z" />
    <glyph glyph-name="R" unicode="R" horiz-adv-x="1379" 
d="M305 25h-144v1416h599q154 0 248 -30q95 -30 160 -125q65 -97 65 -238q0 -144 -95 -236q-93 -93 -280 -120l-75 -11l68 -36q73 -39 104 -70q79 -78 147 -189l230 -361h-184l-178 293q-149 252 -229 308q-46 32 -83 41q-38 9 -113 9h-240v-651zM305 794h419q244 0 319 128
q40 67 40 144q0 130 -81 196q-82 67 -235 67h-462v-535z" />
    <glyph glyph-name="S" unicode="S" horiz-adv-x="1266" 
d="M204 197q-67 100 -76 226l135 12q35 -209 211 -290q96 -46 216 -46q227 0 321 139q46 65 46 145q0 164 -182 239q-68 29 -242 74q-179 47 -256 94q-194 107 -194 308q0 114 63 206q61 91 167 138q104 47 237 49q303 0 432 -196q57 -87 66 -194l-137 -10q-43 279 -354 279
q-127 0 -213 -47q-124 -66 -124 -203q0 -138 133 -205q53 -27 237 -73q189 -48 268 -90q234 -112 236 -348q0 -122 -67 -220q-68 -98 -182 -153q-109 -56 -246 -56q-349 0 -495 222z" />
    <glyph glyph-name="T" unicode="T" horiz-adv-x="1151" 
d="M644 25h-132v1293h-464v123h1062v-123h-466v-1293z" />
    <glyph glyph-name="U" unicode="U" horiz-adv-x="1281" 
d="M1037 595v821h144v-822q0 -199 -37 -309q-51 -157 -175 -233q-118 -77 -303 -77q-375 0 -484 262q-54 131 -54 357v822h144v-821q0 -165 22 -244q69 -251 348 -251q229 0 317 130q78 108 78 365z" />
    <glyph glyph-name="V" unicode="V" horiz-adv-x="1266" 
d="M692 25h-154l-529 1416h156l357 -1048q45 -137 71 -239l23 -85l22 85q35 127 73 238l372 1049h144z" />
    <glyph glyph-name="W" unicode="W" horiz-adv-x="1833" 
d="M550 25h-154l-371 1416h147l214 -942q33 -144 59 -298l20 -118l91 387l263 971h189l197 -724q78 -288 109 -516l20 -144l27 143q25 127 70 318l221 923h143l-383 -1416h-144l-292 1099q-41 156 -44 170l-22 112l-25 -111q-28 -122 -41 -171z" />
    <glyph glyph-name="X" unicode="X" horiz-adv-x="1266" 
d="M180 25h-171l528 739l-462 677h169l242 -365q82 -126 109 -178l20 -37l21 36q40 70 107 165l272 379h149l-477 -666l518 -750h-179l-342 512q-27 41 -59 97l-20 35l-20 -35q-40 -72 -64 -108z" />
    <glyph glyph-name="Y" unicode="Y" horiz-adv-x="1266" 
d="M664 25h-134v604l-524 812h176l267 -431q68 -108 139 -246l20 -39l20 38q72 133 149 258l264 420h164l-541 -812v-604z" />
    <glyph glyph-name="Z" unicode="Z" horiz-adv-x="1151" 
d="M1133 25h-1059v146l705 932q75 102 141 173l41 42h-802v123h950v-139l-856 -1113l-34 -41h914v-123z" />
    <glyph glyph-name="bracketleft" unicode="[" horiz-adv-x="935" 
d="M349 1708v-1983h252v-1h-363v1984h111z" />
    <glyph glyph-name="backslash" unicode="\" horiz-adv-x="785" 
d="M190 1541l587 -1548h-164l-586 1548h163z" />
    <glyph glyph-name="bracketright" unicode="]" horiz-adv-x="1051" 
d="M697 1708v-1984h-364v1h253v1983h111z" />
    <glyph glyph-name="asciicircum" unicode="^" horiz-adv-x="1086" 
d="M821 1403l-269 217l-269 -217h-27l165 278h262l165 -278h-27z" />
    <glyph glyph-name="underscore" unicode="_" horiz-adv-x="1225" 
d="M27 -312v88h1173v-88h-1173z" />
    <glyph glyph-name="grave" unicode="`" horiz-adv-x="999" 
d="M246 1636q0 43 46 43q101 0 128 -93l7 -17l50 -379l-13 -1l-205 396q-13 27 -13 51z" />
    <glyph glyph-name="a" unicode="a" horiz-adv-x="973" 
d="M773 181l-36 -31q-161 -149 -336 -149q-136 0 -231 71q-96 70 -96 212t118 221q57 39 112 53q59 16 200 35q135 20 259 63q1 36 1 65q0 121 -59 174q-68 66 -190 68h-3q-120 0 -179 -49q-60 -44 -95 -151l-127 17q50 185 215 245q87 36 205 36q220 0 305 -103
q38 -44 48 -99q11 -58 11 -174l1 -467v-1q8 -115 41 -192h-132q-21 48 -27 109zM763 571l-35 -15q-87 -41 -214 -60q-116 -18 -174 -36q-52 -19 -86 -63q-38 -45 -38 -112q0 -99 73 -148q65 -45 150 -45q211 0 293 184q31 65 31 191v104z" />
    <glyph glyph-name="b" unicode="b" horiz-adv-x="1006" 
d="M251 239v-189h-117v1416h130v-569l45 55q102 134 245 134q184 0 292 -147q109 -146 109 -369t-112 -384q-113 -160 -297 -160q-151 0 -249 146zM759 814q-77 149 -217 149q-141 0 -225 -145q-68 -116 -68 -296t56 -272q90 -151 230 -151q141 0 220 150q66 117 66 284
q0 166 -62 281z" />
    <glyph glyph-name="c" unicode="c" horiz-adv-x="990" 
d="M646 166q74 68 96 195l127 -16q-32 -153 -137 -248q-106 -96 -254 -96q-199 0 -314 145q-116 146 -116 381q0 351 218 473q98 61 228 61q128 0 224 -72q97 -71 133 -218l-126 -20q-29 104 -96 158q-59 54 -144 54q-143 0 -219 -111q-84 -111 -84 -321q3 -211 82 -321
q74 -111 212 -111q104 0 170 67z" />
    <glyph glyph-name="d" unicode="d" horiz-adv-x="973" 
d="M891 50h-117v195l-46 -73q-92 -146 -251 -146q-109 0 -197 67q-100 68 -154 187q-56 118 -56 275q0 335 201 466q94 65 200 65q152 0 246 -136l45 -62v578h129v-1416zM487 962q-147 0 -222 -148q-60 -112 -60 -282t66 -285q79 -148 220 -148t222 140q64 110 64 282
q0 171 -62 287q-81 154 -228 154z" />
    <glyph glyph-name="e" unicode="e" horiz-adv-x="1039" 
d="M689 154q74 56 114 161l138 -17q-94 -297 -412 -297q-205 0 -330 141q-124 142 -124 382q0 238 120 387q122 150 323 150t318 -148q118 -148 118 -380v-23h-744l1 -26q9 -164 95 -274q80 -111 224 -111q94 0 159 55zM219 608h597l-2 27q-14 143 -74 215q-86 113 -214 113
q-130 0 -209 -94q-85 -93 -96 -234z" />
    <glyph glyph-name="f" unicode="f" horiz-adv-x="519" 
d="M463 1376q-156 0 -156 -186v-5v-123h207v-90h-207v-922h-129v922h-159v90h159v138q0 102 17 150q53 141 252 141q67 0 139 -13l-18 -109q-46 7 -105 7z" />
    <glyph glyph-name="g" unicode="g" horiz-adv-x="1006" 
d="M873 -168q-83 -263 -400 -263q-155 0 -259 73q-104 72 -112 216l128 -19q18 -86 88 -128q61 -43 164 -43q102 0 170 53q76 52 103 156q14 54 14 214v91l-44 -52q-105 -130 -249 -130q-184 0 -296 148q-114 147 -114 364q0 322 204 458q92 66 207 66q154 0 265 -143
l44 -55v174h116v-893q0 -192 -29 -287zM490 962q-141 0 -221 -138q-68 -110 -68 -280q0 -168 63 -278q76 -142 226 -142q149 0 228 139q66 109 66 278q0 170 -70 282q-82 139 -224 139z" />
    <glyph glyph-name="h" unicode="h" horiz-adv-x="1039" 
d="M283 50h-130v1416h130v-568l44 51q111 137 264 137q219 0 292 -160q35 -78 35 -228v-648h-130v648q0 136 -62 210q-63 73 -152 73q-88 0 -153 -44q-73 -45 -105 -123q-33 -78 -33 -208v-556z" />
    <glyph glyph-name="i" unicode="i" horiz-adv-x="454" 
d="M263 1309h-130v157h130v-157zM263 25h-130v1012h130v-1012z" />
    <glyph glyph-name="j" unicode="j" horiz-adv-x="465" 
d="M259 1307h-130v159h130v-159zM17 -431q-57 0 -111 12l23 105q41 -9 76 -9q37 0 68 25q32 26 44 67q12 42 12 152v1091h130v-1095q0 -188 -47 -259q-59 -89 -195 -89z" />
    <glyph glyph-name="k" unicode="k" horiz-adv-x="852" 
d="M158 50h-130v1416h130v-872l43 43l368 425h161l-332 -351l-13 -15l401 -646h-161l-316 557l-19 -21l-132 -129v-407z" />
    <glyph glyph-name="l" unicode="l" horiz-adv-x="366" 
d="M243 50h-130v1416h130v-1416z" />
    <glyph glyph-name="m" unicode="m" horiz-adv-x="1508" 
d="M232 25h-130v1012h111v-209l46 71q103 162 300 162q193 0 250 -169l16 -47l26 41q112 175 290 175q151 0 225 -81q75 -81 75 -251v-704h-129v644q0 89 -14 151q-15 59 -66 96q-50 39 -123 39q-144 0 -209 -95q-66 -96 -66 -243v-592h-122v665q0 127 -51 196t-146 69
q-187 0 -252 -173q-31 -80 -31 -231v-526z" />
    <glyph glyph-name="n" unicode="n" horiz-adv-x="941" 
d="M232 25h-130v1012h112v-208l46 68q107 164 281 164q266 0 315 -238q9 -45 9 -170v-628h-130v621q0 208 -107 273q-50 36 -119 36q-127 -1 -199 -97q-78 -96 -78 -278v-555z" />
    <glyph glyph-name="o" unicode="o" horiz-adv-x="1039" 
d="M516 1q-206 0 -328 145q-120 147 -120 385q0 284 155 418q125 112 309 112q183 0 307 -143q124 -140 124 -372q0 -357 -227 -483q-103 -62 -220 -62zM514 962q-154 0 -238 -139q-73 -112 -73 -292t73 -292q84 -140 240 -140q157 0 240 143q72 116 72 292q0 178 -75 291
q-84 137 -239 137z" />
    <glyph glyph-name="p" unicode="p" horiz-adv-x="975" 
d="M201 -407h-130v1419h114v-191l45 63q107 152 262 152q117 0 205 -62q91 -61 144 -188q52 -123 52 -272q0 -337 -216 -472q-101 -66 -197 -66q-139 0 -234 125l-45 56v-564zM476 970q-142 0 -224 -157q-68 -125 -68 -290t63 -278q81 -146 225 -146q143 0 223 152
q64 116 64 285q0 170 -64 285q-78 149 -219 149z" />
    <glyph glyph-name="q" unicode="q" horiz-adv-x="1008" 
d="M892 -407h-130v573l-45 -63q-88 -127 -233 -127q-182 0 -297 160q-115 158 -115 380q0 332 205 459q91 61 195 61q158 0 262 -155l46 -67v198h112v-1419zM267 818q-60 -114 -60 -284t66 -286q80 -149 221 -149t222 144q64 112 64 279q0 166 -66 289q-84 158 -227 158
q-144 0 -220 -151z" />
    <glyph glyph-name="r" unicode="r" horiz-adv-x="668" 
d="M455 925q-228 0 -228 -369v-531h-130v1012h112v-233l47 85q94 172 208 172q74 0 154 -44l-44 -120q-57 28 -119 28z" />
    <glyph glyph-name="s" unicode="s" horiz-adv-x="860" 
d="M201 74q-103 74 -138 222l128 20q23 -107 97 -162q67 -55 163 -55q97 0 167 43q87 47 87 151q0 75 -51 109t-188 75q-149 44 -179 56q-199 76 -199 247q0 140 108 210q107 71 237 71q220 0 310 -123q37 -49 53 -129l-126 -17q-19 85 -83 128q-55 43 -151 43t-157 -40
q-67 -40 -67 -127t106 -129q24 -10 154 -51q36 -12 74.5 -24.5t60 -20t31.5 -10.5q203 -74 202 -255q0 -181 -189 -263q-89 -42 -190 -42q-157 0 -260 73z" />
    <glyph glyph-name="t" unicode="t" horiz-adv-x="519" 
d="M424 154q27 0 58 4l18 -111q-63 -11 -107 -11q-163 0 -205 98q-20 48 -20 202v636h-132v90h132v274l129 78v-352h181v-90h-181v-646q0 -85 16 -116q29 -56 111 -56z" />
    <glyph glyph-name="u" unicode="u" horiz-adv-x="912" 
d="M828 25h-111v211l-46 -66q-112 -169 -277 -169q-268 0 -317 240q-10 50 -10 163v633h130v-564q0 -144 15 -213q17 -67 76 -110q55 -44 131 -44t141 44q75 46 106 124q32 79 32 219v544h130v-1012z" />
    <glyph glyph-name="v" unicode="v" horiz-adv-x="924" 
d="M511 25h-117l-368 1012h136l209 -619q27 -84 59 -213l21 -85l21 85q24 93 58 200l216 632h132z" />
    <glyph glyph-name="w" unicode="w" horiz-adv-x="1411" 
d="M486 25h-142l-306 1012h133l246 -920l21 99q18 84 51 217l155 604h138l217 -887l256 887h122l-312 -1012h-141l-155 617l-60 280z" />
    <glyph glyph-name="x" unicode="x" horiz-adv-x="956" 
d="M171 25h-156l346 513l9 14l-326 485h163l143 -238q22 -39 65 -117l17 -35l20 33q34 58 70 116l159 241h153l-323 -460l-10 -15l362 -537h-160l-264 439z" />
    <glyph glyph-name="y" unicode="y" horiz-adv-x="924" 
d="M207 -431q-44 0 -93 16l-14 117q43 -8 74 -8q121 0 167 88q21 40 67 191l-375 1039h140l202 -598q44 -143 67 -244l22 -95l20 95q27 123 65 239l208 603h127l-374 -1046q-56 -172 -87 -238q-75 -159 -216 -159z" />
    <glyph glyph-name="z" unicode="z" horiz-adv-x="924" 
d="M880 25h-840v112l620 769l39 44l-59 -3q-100 -6 -177 -6h-383v96h768v-85l-630 -790l-39 -45l60 4q111 9 203 9h438v-105z" />
    <glyph glyph-name="braceleft" unicode="{" horiz-adv-x="850" 
d="M691 1576q-252 -90 -252 -241v-378q0 -132 -10 -165q-24 -62 -116 -98l-60 -23l60 -23q94 -38 116 -99q10 -36 10 -168v-375q0 -155 252 -242l11 -54q-188 14 -271 58q-130 67 -130 248v399q0 140 -77 199q-21 17 -128 59q100 34 125 52q80 60 80 201v398q0 178 129 249
q85 46 272 56z" />
    <glyph glyph-name="bar" unicode="|" horiz-adv-x="791" 
d="M385 -297v1985h78v-1985h-78z" />
    <glyph glyph-name="braceright" unicode="}" horiz-adv-x="870" 
d="M342 1612q240 -42 240 -288v-398q0 -142 76 -200q26 -19 128 -54q-105 -39 -128 -57q-76 -58 -76 -200v-399q0 -180 -128 -248q-84 -44 -273 -58l12 54q249 87 249 242v375q0 133 13 168q21 62 114 100l61 24l-61 22q-93 34 -114 97q-13 33 -13 165v378q0 155 -249 240
l-12 54q89 -4 161 -17z" />
    <glyph glyph-name="asciitilde" unicode="~" horiz-adv-x="1616" 
d="M1445 899q-25 -187 -140 -314q-83 -89 -212 -89t-284 99q-13 9 -50.5 33t-60.5 38q-178 113 -278 113t-158 -81q-56 -82 -73 -211h-16q31 247 169 359q41 32 76 38q36 6 73 6q73 0 121 -18q48 -17 132 -70q67 -43 157 -92q148 -95 262 -95q73 0 141 53q100 76 126 231h15
z" />
    <glyph glyph-name="uni00A0" unicode="&#xa0;" horiz-adv-x="649" 
 />
    <glyph glyph-name="exclamdown.001" unicode="&#xa1;" horiz-adv-x="552" 
d="M428 1129q0 -38 -24 -64q-26 -26 -62 -26t-60 27q-25 25 -25 63t25 63q24 27 60 27t62 -26q24 -25 24 -64zM424 -121q5 -65 5 -91q0 -34 -24 -70q-24 -35 -67 -35q-85 0 -85 131q0 2 0.5 9t2 24t2.5 32l83 985z" />
    <glyph glyph-name="cent" unicode="&#xa2;" horiz-adv-x="964" 
d="M399 185q109 -73 185 -73q138 0 215 92q21 26 66 112q-46 -152 -137 -236q-92 -81 -212 -81q-75 0 -147 31l-25 10l-143 -394h-25l147 410q-88 85 -127 172q-42 90 -42 224q0 243 148 373q113 100 256 100q18 0 74 -6l185 503q14 -3 25 -3h3l-185 -507l20 -10
q92 -42 131 -86q37 -40 37 -86q0 -45 -16 -60q-17 -14 -58 -14q-75 0 -87 85q-6 46 -15 73l-24 66zM595 883q-28 12 -62 12q-111 0 -175 -81q-86 -107 -86 -262q0 -154 77 -300l26 -49l243 671z" />
    <glyph glyph-name="sterling" unicode="&#xa3;" horiz-adv-x="1147" 
d="M682 1541q-217 0 -217 -325q0 -148 8 -226q9 -86 14 -163l2 -23h23h255v-66h-278v-92q0 -181 -63 -376l-7 -24l23 -8q15 -4 39 -20q92 -62 219 -62q74 0 170 30t163 97q-22 -98 -76 -174q-82 -112 -206 -112q-88 0 -176 55q-31 16 -159 111l-24 18l-13 -27
q-79 -157 -180 -157q-47 0 -77 34q-31 34 -31 94q0 61 45 101q44 42 95 42q55 0 101 -7l24 -3l4 24q3 20 3 42v40q0 94 -21 351l-2 23h-23h-185v66h210l-2 27q-14 182 -14 282q0 275 192 393q89 54 188 54q100 0 178 -54q76 -55 76 -147q0 -26 -19 -48q-20 -23 -46 -23
q-55 0 -64 103q-4 69 -43 111q-39 39 -106 39zM351 199q-67 43 -119 43q-53 0 -86 -30q-32 -32 -32 -82t23 -79t66 -29q99 0 143 159z" />
    <glyph glyph-name="currency" unicode="&#xa4;" horiz-adv-x="1152" 
d="M288 1097q121 103 290 103q170 0 289 -103l17 -15l186 175l34 -34l-186 -171l14 -18q104 -139 104 -292t-104 -289l-13 -17l176 -176l-36 -36q-59 57 -158 162l-15 17l-18 -14q-136 -104 -276 -104q-202 0 -302 102l-18 17l-178 -177l-34 33l179 177l-17 18
q-103 112 -103 281t104 297l15 18l-191 179l32 33l192 -180zM991 743v10q0 154 -123 277q-126 121 -275 121h-14q-173 0 -292 -119q-118 -118 -118 -290q0 -171 119 -292q119 -119 289 -119q171 0 292 121q122 120 122 291z" />
    <glyph glyph-name="yen" unicode="&#xa5;" horiz-adv-x="1158" 
d="M646 680l-16 -30v-204l405 -4v-40l-405 2v-134q0 -130 17 -170q17 -39 55 -50q31 -8 64 -22l3 -3h-453q7 7 12 10q17 16 43 16q25 0 63 9q36 30 44 62q8 35 8 148v134l-408 -2v40l408 4v180l-24 54l-384 -2v40l367 2l-244 564q-52 121 -130 171h331q-6 -5 -15 -14
l-13 -13q-2 -1 -3.5 -2.5l-2.5 -2.5l-2 -2t-2 -1l-8 -8q-6 -6 -7 -8t-5 -8q-2 -2 -5 -8q-4 -9 -4 -24q0 -25 19 -70l252 -606l248 590q23 55 23 82q0 26 -20 54t-48 41h227q-27 -23 -32 -33q-54 -41 -97 -149l-245 -553l373 -2v-40z" />
    <glyph glyph-name="brokenbar" unicode="&#xa6;" horiz-adv-x="358" 
d="M219 699h-33v698h33v-698zM219 -417h-33v698h33v-698z" />
    <glyph glyph-name="section" unicode="&#xa7;" horiz-adv-x="882" 
d="M438 1247q-76 -79 -76 -124q0 -67 34 -122q34 -58 130 -130q175 -136 235 -236q42 -71 42 -150q0 -181 -179 -298l-23 -16l18 -21q99 -117 99 -219q0 -103 -64 -174q-64 -72 -154 -72q-92 0 -150 55q-59 54 -59 134q0 24 14 44q13 18 36 18q21 0 33 -12q10 -15 10 -47
l-14 -101v-2q0 -34 35 -45q1 0 4.5 -1.5t11.5 -4.5t15 -6q31 -11 65 -11q84 0 115 29q54 55 54 119q0 65 -38 126q-36 62 -175 172q-137 109 -187 192q-48 81 -48 162q0 178 180 295l23 15l-18 22q-100 118 -100 222q0 103 65 174q64 70 154 70t150 -52q59 -54 59 -132
q0 -37 -11 -51q-10 -13 -38 -13q-27 0 -36 11q-11 10 -11 40l11 88v2q-1 1 0 9q2 7 -6 16t-22 9h-3q-2 1 -14 13q-11 11 -36 20h-14q-13 -8 -49 -14q-34 -7 -44 -7q-11 0 -24 4zM756 399q0 137 -206 308q-36 20 -117 82q-96 -62 -128 -101q-35 -40 -35 -107t41 -135
t169 -172q9 -12 61 -67l14 -15l127 83q74 60 74 124z" />
    <glyph glyph-name="dieresis" unicode="&#xa8;" horiz-adv-x="707" 
d="M591 1278q0 -35 -25 -59q-26 -24 -61 -24q-37 0 -61 24q-26 23 -26 59q0 35 26 60q24 24 61 24q35 0 61 -24q25 -25 25 -60zM158 1362q36 0 62 -24q25 -24 25 -60q0 -35 -25 -59q-26 -24 -61 -24q-37 0 -61 24q-26 23 -26 59q0 35 25 60q25 24 61 24z" />
    <glyph glyph-name="copyright" unicode="&#xa9;" horiz-adv-x="1557" 
d="M1463 675q0 -181 -93 -342q-92 -161 -252 -250q-163 -89 -342 -89q-182 0 -342 92q-160 91 -250 253q-90 161 -90 342q0 182 94 343q94 163 256 250q160 88 339 88q180 0 339 -92q160 -90 251 -252q90 -162 90 -343zM781 15q177 0 331 90q156 90 242 245q87 156 87 332
t-91 333q-90 157 -247 241q-157 85 -329 85q-173 0 -328 -89q-154 -88 -243 -244q-88 -155 -88 -332q0 -178 90 -332q90 -155 245 -242q154 -87 331 -87zM1055 1072h3q2 1 6.5 2t9.5 2q17 7 35 22l14 -198q-35 90 -121 148q-88 59 -195 59q-171 0 -265 -133
q-74 -104 -74 -282q0 -177 75 -288q88 -133 274 -133q62 0 120 14q-68 -34 -147 -34q-190 0 -320 119q-127 119 -127 308t138 312q139 122 337 122q67 0 130 -21q62 -21 81 -24z" />
    <glyph glyph-name="guillemotleft" unicode="&#xab;" horiz-adv-x="1078" 
d="M874 111l-339 354q123 146 355 382l-198 -383zM438 89l-342 375l349 387l-201 -387z" />
    <glyph glyph-name="registered" unicode="&#xae;" horiz-adv-x="1557" 
d="M1463 675q0 -181 -93 -342q-92 -161 -252 -250q-163 -89 -342 -89q-182 0 -342 92q-160 91 -250 253q-90 161 -90 342q0 182 94 343q94 163 256 250q160 88 339 88q180 0 339 -92q160 -90 251 -252q90 -162 90 -343zM781 15q177 0 331 90q156 90 242 245q87 156 87 332
t-91 333q-90 157 -247 241q-157 85 -329 85q-173 0 -328 -89q-154 -88 -243 -244q-88 -155 -88 -332q0 -178 90 -332q90 -155 245 -242q154 -87 331 -87zM1137 272h-135l-294 405l-102 -32l-2 -299q8 -35 51 -74h-208q21 16 44 47q9 24 9 103v519q0 76 -6 97t-20 34
q-20 18 -21 19h319q115 0 194 -51q81 -51 81 -151q0 -146 -199 -200l-34 -9l224 -319q42 -58 60 -69q18 -13 39 -20zM707 1087q-39 0 -103 -21l2 -348l24 -1q36 -2 77 -11q44 -10 65 -10q19 0 32 5q123 53 123 177q0 94 -63 152q-64 57 -157 57z" />
    <glyph glyph-name="degree" unicode="&#xb0;" horiz-adv-x="732" 
d="M566 1690q82 -82 82 -202q0 -119 -82 -200q-82 -82 -201 -82t-201 82q-81 81 -81 200q0 120 81 202q81 81 201 81t201 -81zM535 1319q70 70 70 171q0 100 -69 170q-70 69 -171 69t-171 -69q-69 -70 -69 -171t69 -171q71 -69 170 -69q101 0 171 70z" />
    <glyph glyph-name="uni2072" unicode="&#xb2;" horiz-adv-x="612" 
d="M461 1027h-417q13 15 60.5 68t76.5 86q210 237 210 378q0 77 -51 125q-52 46 -124 46q-43 0 -67 -44q-11 -27 -31 -83q-18 -34 -37 -34t-25 6q-7 6 -7 23q0 50 81 114q82 64 131 64q78 0 131 -53q54 -53 54 -136q0 -141 -149 -311q-67 -76 -129 -144l-37 -42h265
q49 0 64 17q14 13 33 42z" />
    <glyph glyph-name="uni2073" unicode="&#xb3;" horiz-adv-x="550" 
d="M192 1404h-18q192 76 192 196q0 63 -62 99q-61 36 -113 36q-50 0 -67 -38q-10 -26 -22 -66q-15 -30 -46 -30q-11 0 -15 4q-5 5 -6 20q6 37 65 93t149 56q91 0 137 -57q31 -37 31 -85q0 -80 -105 -165l-32 -25l38 -17q64 -29 99 -63q36 -36 37 -98v-8q0 -105 -80 -173
q-80 -66 -200 -66q-119 0 -119 38q0 18 14 29q14 12 35 12q22 0 74 -21q53 -21 103 -21q49 0 84 50t35 107q0 58 -25 101q-53 92 -183 92z" />
    <glyph glyph-name="paragraph" unicode="&#xb6;" horiz-adv-x="949" 
d="M805 1526l-38 -18v-1731l-54 1v1739l-188 -46v-1694l-69 1v1036l-24 1q-80 5 -99 11q-17 5 -92 38q-180 81 -180 300q0 220 185 315l70 37q27 10 90 10h399z" />
    <glyph glyph-name="uni2071" unicode="&#xb9;" horiz-adv-x="428" 
d="M172 1646q-12 18 -29 18t-59 -18v16l152 93v-674q2 -60 48 -67q20 -2 34 -2q12 -1 22 -1v-3h-259v4q48 2 58 6q46 16 46 84v500q0 25 -13 44z" />
    <glyph glyph-name="guillemotright" unicode="&#xbb;" horiz-adv-x="932" 
d="M928 462l-328 -347l180 347l-180 348zM135 845q261 -273 354 -382l-344 -364l187 363z" />
    <glyph glyph-name="onequarter" unicode="&#xbc;" horiz-adv-x="1513" 
d="M1476 167h-107v-182h-76v182h-341v45l363 449h54v-454h107v-40zM1340 1419l-989 -1448h-43l903 1448h129zM396 684h-163q28 7 33 20q4 7 7 16q1 2 1.5 5t0.5 5q1 2 1 12v14v16v19v372q0 63 -6 94q-8 33 -32 44l109 58h10v-568q0 -65 9 -83q8 -16 30 -24zM1293 207v390
l-321 -390h53h268z" />
    <glyph glyph-name="onehalf" unicode="&#xbd;" horiz-adv-x="1552" 
d="M1169 611q-126 0 -178 -118h-7q20 88 72 127q52 41 140 41q89 0 154 -46q67 -46 67 -114q0 -67 -44 -138q-68 -107 -278 -278l-54 -44h70h172q71 0 107 9t65 47h4l-44 -112h-457q244 190 323 309q52 77 52 152q0 72 -47 119q-47 46 -117 46zM1228 1359l-903 -1388h-40
l903 1388h40zM394 684h-161q28 7 33 20q4 7 7 16q1 2 1.5 5t0.5 5q1 2 1 12v14v16v19v372q0 109 -24 131q-12 12 -31 11h-1l127 54h10v-568q0 -65 9 -83q7 -16 28 -24z" />
    <glyph glyph-name="threequarters" unicode="&#xbe;" horiz-adv-x="1511" 
d="M1476 167h-107v-182h-75v182h-342v45l363 449h54v-454h107v-40zM1286 1419l-948 -1448h-42l903 1448h87zM379 1058q124 -48 124 -160t-91 -170q-91 -59 -218 -59t-127 43q0 14 7 20q8 5 30 5q25 0 80 -24q57 -24 106 -24q47 0 95 43q46 45 46 116q0 70 -49 118
q-50 46 -139 56q38 10 73 36q66 48 66 120q0 139 -140 139q-87 0 -153 -83l-3 1q32 57 77 91q43 33 118 33t128 -34q54 -35 54 -91t-91 -134l-32 -27zM1294 207v390l-321 -390h53h268z" />
    <glyph glyph-name="uni00D7" unicode="&#xd7;" horiz-adv-x="1264" 
d="M1048 1046l-315 -342l-15 -18l330 -362l-84 -85l-318 361l-318 -362l-87 86l316 342l16 18l-332 362l86 86l317 -362l320 362z" />
    <glyph glyph-name="uni00F7" unicode="&#xf7;" horiz-adv-x="1139" 
d="M1112 624h-1061v131h1061v-131zM678 1113q0 -45 -27 -73q-28 -28 -70 -28q-41 0 -67 29t-26 73q0 42 26 74q26 30 66 30q41 0 69 -31q29 -31 29 -74zM678 257q0 -43 -28 -70t-70 -27q-41 0 -67 26q-25 25 -25 70q0 44 26 76q26 30 66 30q41 0 69 -31q29 -32 29 -74z" />
    <glyph glyph-name="uni0964" unicode="&#x964;" horiz-adv-x="958" 
d="M617 4h-178v1284h178v-1284z" />
    <glyph glyph-name="uni0965" unicode="&#x965;" horiz-adv-x="1345" 
d="M352 1288h178v-1284h-178v1284zM813 1288h178v-1284h-178v1284z" />
    <glyph glyph-name="uni0A01" unicode="&#xa01;" horiz-adv-x="0" 
d="M-498 1509q-123 72 -123 247q0 87 12 114q12 28 16 29q14 -14 24 -99q11 -87 67 -140q57 -56 171 -56q225 0 258 231q4 55 17 64q24 -10 26 -107q0 -19 -1 -30q0 -62 -12 -115q-27 -90 -105 -135q-79 -45 -178 -45q-98 0 -172 42zM-314 1771q-66 0 -89 51q-8 24 -8 41
q0 28 19 46q31 31 66 31q36 0 60 -24q25 -25 25 -60q0 -36 -25 -60q-24 -25 -48 -25z" />
    <glyph glyph-name="uni0A02" unicode="&#xa02;" horiz-adv-x="250" 
d="M-56 1512q-41 43 -41 102q0 58 41 101q40 42 102 42q60 0 102 -42q41 -43 41 -101q0 -59 -41 -102q-43 -41 -102 -41q-61 0 -102 41zM-51 1107v184h312v-184h-312z" />
    <glyph glyph-name="uni0A03" unicode="&#xa03;" horiz-adv-x="642" 
d="M106 1037q0 103 72 175q73 72 175 72q101 0 175 -72q72 -72 72 -175t-72 -175q-74 -71 -175 -71t-175 71q-72 72 -72 175zM248 1142q-43 -45 -43 -104q0 -60 43 -105q46 -44 105 -44t105 44q43 45 43 105q0 59 -43 104q-46 44 -105 44t-105 -44zM106 331q0 103 72 175
q74 71 175 71t175 -71q72 -72 72 -175t-72 -175q-74 -71 -175 -71t-175 71q-72 72 -72 175zM248 436q-43 -45 -43 -105q0 -59 43 -105q46 -43 105 -43t105 43q43 46 43 105q0 60 -43 105q-46 44 -105 44t-105 -44z" />
    <glyph glyph-name="uni0A05" unicode="&#xa05;" horiz-adv-x="1570" 
d="M1366 1107v-1082h-186v664l-35 -15q-85 -36 -147 -82q-57 -44 -96 -190q-40 -148 -49 -167q-43 -93 -139 -93q-62 0 -106 29t-44 101q0 70 110 200q110 128 110 221q0 136 -61 268l-13 28l-25 -18q-102 -75 -215 -223q-113 -149 -116 -237q-1 -85 -48 -147
q-49 -58 -114 -58q-68 0 -108 36q-42 36 -42 98q0 61 78 169q77 109 77 199q0 147 -22 222q-23 77 -81 77h-83v184h153q82 0 142 -120q49 -93 67 -225l8 -54l36 42q24 28 76 87.5t79 90.5q97 97 164 97h5q96 -24 162 -194q37 -97 55 -210l7 -38l32 21q89 58 183 96v407h391
v-184h-205z" />
    <glyph glyph-name="uni0A06" unicode="&#xa06;" horiz-adv-x="2060" 
d="M1831 1107v-599h-178l-4 599h-25h-258v-1082h-186v664l-35 -15q-85 -36 -147 -82q-57 -44 -96 -190q-40 -148 -49 -167q-43 -93 -139 -93q-62 0 -106 29t-44 101q0 70 110 200q110 128 110 221q0 136 -61 268l-13 28l-25 -18q-102 -75 -215 -223q-113 -149 -116 -237
q-1 -85 -48 -147q-49 -58 -114 -58q-68 0 -108 36q-42 36 -42 98q0 61 78 169q77 109 77 199q0 147 -22 222q-23 77 -81 77h-83v184h153q82 0 142 -120q49 -93 67 -225l8 -54l36 42q24 28 76 87.5t79 90.5q97 97 164 97h5q96 -24 162 -194q37 -97 55 -210l7 -38l32 21
q89 58 183 96v407h887v-184h-236z" />
    <glyph glyph-name="uni0A07" unicode="&#xa07;" horiz-adv-x="1660" 
d="M1431 650l-221 4q-170 0 -299 -44q-126 -43 -236 -179l-13 -18l15 -16q80 -81 211 -144q129 -63 223 -63h12q101 5 196 98q81 78 102 78q22 3 31 -11q9 -13 9 -50q0 -78 -97 -173q-99 -96 -204 -105q-13 -1 -39 -1q-195 0 -395 110q-198 109 -266 273q44 155 275 317
l25 17l-22 21q-37 35 -111 122q-60 82 -95 221h-20h-231v-1082h-181v1082h-141v184h141v25q1 263 74 385q88 153 316 153h23q170 -6 253 -93q82 -86 82 -262q0 -27 -3 -55h-175q-3 59 -8 82q-3 24 -21 66q-39 83 -167 83q-129 0 -173 -137q-20 -71 -20 -222v-25h1386v-184
h-205v-457h-31zM1281 1107h-561l13 -34q27 -69 63 -111q99 -110 201 -129h284v274z" />
    <glyph glyph-name="uni0A08" unicode="&#xa08;" horiz-adv-x="1813" 
d="M862 1107h-561l13 -34q27 -69 63 -111q99 -110 201 -129h284v274zM1012 650l-221 4q-170 0 -299 -44q-126 -43 -236 -179l-13 -18l15 -16q82 -82 212 -144q129 -63 222 -63h11q101 5 197 98q81 78 102 78q22 3 31 -11q9 -13 9 -50q0 -79 -98 -173q-96 -96 -203 -105
q-13 -1 -39 -1q-195 0 -395 110q-198 109 -266 273q44 155 275 317l25 17l-22 21q-37 35 -111 122q-60 82 -95 221h-98v184h1393v25q0 154 -21 221q-42 138 -177 138q-91 0 -132 -40q-40 -42 -52 -128q-4 -22 -8 -63h-176v28q0 234 152 329q86 53 181 53q249 0 341 -159
q72 -120 73 -379v-25h25h215v-184h-240v-1082h-181v1082h-365v-457h-31z" />
    <glyph glyph-name="uni0A09" unicode="&#xa09;" horiz-adv-x="1377" 
d="M746 199q200 5 200 158q0 81 -73 161q-74 79 -144 79q-9 0 -48 -6t-314 -6h-35l11 -33q122 -353 393 -353h10zM553 783l1 -17q116 2 191 24q179 51 283 282l16 35h-754v-25q2 -178 10 -290l2 -23l232 -2v-1h12v2zM1049 1319q-18 168 -103 249q-87 79 -263 79
q-358 0 -391 -329l-3 -27h28h735zM755 14q-650 0 -650 1068v25h-94v184h94l2 23q15 246 169 382q155 135 404 135q250 0 395 -135q147 -138 163 -382l2 -23h23h119v-184h-150q-94 -283 -258 -396l-28 -19l26 -21q163 -130 163 -316q0 -142 -101 -241q-100 -100 -279 -100z
M546 816h-12v-49h12v1v48zM1099 -324q-159 -59 -363 -64h-13q-134 0 -323 65v153q190 -66 354 -66q162 0 345 66v-154z" />
    <glyph glyph-name="uni0A0A" unicode="&#xa0a;" horiz-adv-x="1372" 
d="M746 199q200 5 200 158q0 81 -73 161q-74 79 -144 79q-9 0 -48 -6t-314 -6h-35l11 -33q122 -353 393 -353h10zM553 783l1 -17q116 2 191 24q179 51 283 282l16 35h-754v-25q2 -178 10 -290l2 -23l232 -2v-1h12v2zM1049 1319q-18 168 -103 249q-87 79 -263 79
q-358 0 -391 -329l-3 -27h28h735zM755 14q-650 0 -650 1068v25h-94v184h94l2 23q15 246 169 382q155 135 404 135q250 0 395 -135q147 -138 163 -382l2 -23h23h119v-184h-150q-94 -283 -258 -396l-28 -19l26 -21q163 -130 163 -316q0 -142 -101 -241q-100 -100 -279 -100z
M546 816h-12v-49h12v1v48zM381 -118q189 -65 355 -65q168 0 344 64v-142q-166 -66 -342 -66t-357 66v143zM1080 -588q-189 -62 -350 -62h-5q-168 2 -344 62v141q191 -60 353 -60q163 0 346 60v-141z" />
    <glyph glyph-name="uni0A0F" unicode="&#xa0f;" horiz-adv-x="1254" 
d="M1012 650l-221 4q-170 0 -299 -44q-126 -43 -236 -179l-13 -18l15 -16q82 -82 212 -144q129 -63 222 -63h11q101 5 197 98q81 78 102 78q22 3 31 -11q9 -13 9 -50q0 -79 -98 -173q-96 -96 -203 -105q-13 -1 -39 -1q-195 0 -395 110q-198 109 -266 273q44 155 275 317
l25 17l-22 21q-37 35 -111 122q-60 82 -95 221h-98v184h1233v-184h-205v-457h-31zM862 1107h-561l13 -34q27 -69 63 -111q99 -110 201 -129h284v274zM725 1751q75 -62 191 -243q57 -89 58 -144q-19 22 -46 58q-66 84 -177 159q-37 24 -98 61q-111 65 -326 83q-4 3 -11 8
t-9 6q-7 4 -19 14q-11 17 -11 35q0 15 5 47q5 30 28 49q21 21 50 21q21 0 43 -2q176 -26 322 -152z" />
    <glyph glyph-name="uni0A10" unicode="&#xa10;" horiz-adv-x="1567" 
d="M1366 1107v-1082h-186v664l-35 -15q-85 -36 -147 -82q-57 -44 -96 -190q-40 -148 -49 -167q-43 -93 -139 -93q-62 0 -106 29t-44 101q0 70 110 200q110 128 110 221q0 136 -61 268l-13 28l-25 -18q-102 -75 -215 -223q-113 -149 -116 -237q-1 -85 -48 -147
q-49 -58 -114 -58q-68 0 -108 36q-42 36 -42 98q0 61 78 169q77 109 77 199q0 147 -22 222q-23 77 -81 77h-83v184h153q82 0 142 -120q49 -93 67 -225l8 -54l36 42q24 28 76 87.5t79 90.5q97 97 164 97h5q96 -24 162 -194q37 -97 55 -210l7 -38l32 21q89 58 183 96v407h391
v-184h-205zM743 1801l-100 -5q-45 0 -61 13q-17 14 -17 51t46 64q47 26 95 26q197 0 346 -150q108 -114 208 -337q33 -72 33 -90v-23q-7 3 -18 9q-262 152 -474 154h-37l-120 -6q-101 0 -101 56q0 34 34 62t75 31q56 2 64 2q193 0 441 -179l114 -82l-78 116q-49 74 -168 182
q-116 106 -282 106z" />
    <glyph glyph-name="uni0A13" unicode="&#xa13;" horiz-adv-x="1415" 
d="M710 1883l63 2q213 0 311 -34q100 -34 100 -89q0 -69 -244 -70q-35 1 -94.5 2.5t-80.5 1.5q-210 -2 -311 -91q-102 -91 -142 -284l-7 -30h1101v-184h-162q-92 -269 -258 -384l-30 -21l30 -20q173 -123 173 -336q0 -139 -97 -232q-98 -93 -291 -93h-4q-388 1 -544 361
q-107 252 -107 700v25h-95v184h96l3 22q28 252 186 411q156 159 404 159zM596 779q93 4 160 23q184 52 282 270l15 35h-753v-25q2 -169 11 -278l2 -23h23q195 -2 226 -3zM758 209q195 6 197 159q0 79 -74 159q-76 82 -143 82q-9 0 -23 -2q-58 -9 -336 -11h-35l11 -33
q119 -354 394 -354h9z" />
    <glyph glyph-name="uni0A14" unicode="&#xa14;" horiz-adv-x="1565" 
d="M1366 1107v-1082h-186v664l-35 -15q-85 -36 -147 -82q-57 -44 -96 -190q-40 -148 -49 -167q-43 -93 -139 -93q-62 0 -106 29t-44 101q0 70 110 200q110 128 110 221q0 136 -61 268l-13 28l-25 -18q-102 -75 -215 -223q-113 -149 -116 -237q-1 -85 -48 -147
q-49 -58 -114 -58q-68 0 -108 36q-42 36 -42 98q0 61 78 169q77 109 77 199q0 147 -22 222q-23 77 -81 77h-83v184h153q82 0 142 -120q49 -93 67 -225l8 -54l36 42q24 28 76 87.5t79 90.5q97 97 164 97h5q96 -24 162 -194q37 -97 55 -210l7 -38l32 21q89 58 183 96v407h391
v-184h-205zM1293 1428q46 83 46 128q0 44 -37 90q-39 46 -100 46q-63 0 -103 -40t-40 -89t16 -74q16 -41 16 -62v-1q-13 -12 -30 -12q-16 0 -63 37q-47 39 -54 93q-5 30 -10 65v16q-28 13 -68 15q-44 4 -47 4q-121 7 -193 72q-70 67 -74 178q0 68 37 75q14 -5 33 -52
q21 -47 30 -58q54 -65 211 -65q66 2 178 28q110 27 167 27h4h8q125 -4 190 -95q43 -58 43 -133q0 -76 -43 -140q-42 -65 -94 -65q-14 0 -23 12z" />
    <glyph glyph-name="uni0A15" unicode="&#xa15;" horiz-adv-x="1305" 
d="M1128 1085q-16 -162 -52 -287q-36 -122 -112 -244q113 -253 199 -529h-189q-27 70 -111 308l-16 43l-28 -36q-163 -208 -403 -211h-6q-173 0 -284 114q-109 112 -109 281v15q4 177 123 286q120 108 284 108q205 0 398 -186l26 -26l14 34q72 175 85 325l2 27h-27h-902v184
h1284v-184h-174zM641 666q-103 80 -209 80q-107 0 -164 -64q-59 -62 -59 -155q0 -92 59 -153q59 -62 150 -62q168 0 320 228l11 17z" />
    <glyph glyph-name="uni0A16" unicode="&#xa16;" horiz-adv-x="1224" 
d="M1017 1107v-1082h-182v292l-37 -20q-106 -57 -244 -57q-322 0 -467 240l84 228q46 141 46 234q0 92 -7 114q-15 51 -69 51h-130v184h189q187 0 197 -319l1 -24h24h413v343h392v-184h-210zM600 423q106 0 235 111v230h-455q-24 -108 -85 -250l16 -12q109 -79 289 -79z" />
    <glyph glyph-name="uni0A17" unicode="&#xa17;" horiz-adv-x="1358" 
d="M1353 1107h-200v-1082h-183v1082h-230v-770q0 -160 -68 -237q-68 -75 -210 -75q-176 0 -290 148q-113 149 -113 315q0 167 88 259q89 93 230 93h180v267h-537v184h1333v-184zM274 623q-34 -34 -34 -121v-6q1 -90 62 -190q63 -98 149 -98q87 0 106 79v371h-131
q-117 0 -152 -35z" />
    <glyph glyph-name="uni0A18" unicode="&#xa18;" horiz-adv-x="1428" 
d="M374 983q-5 -101 -131 -464q70 -65 107 -91q37 -25 68 -25q88 0 130 69q44 66 44 191q0 51 -18 147q-19 91 -19 154q0 60 45 154q45 95 103 95q49 0 86 -93q37 -90 37 -154q0 -61 -30 -175q-31 -112 -31 -198q0 -83 35 -133q34 -48 100 -48t95 13q31 14 44 64v802h389
v-184h-204v-1082h-185v236l-34 -13q-55 -21 -106 -21q-105 0 -211 97l-16 15l-17 -14q-123 -105 -237 -105t-239 96q-125 94 -138 189q45 86 97 243q52 152 52 248t-87 111h-92v184h156q46 0 96 -43q111 -93 111 -245v-20z" />
    <glyph glyph-name="uni0A19" unicode="&#xa19;" horiz-adv-x="1216" 
d="M277 1107v-181h433q165 0 257 -92q91 -92 91 -227q0 -185 -151 -311l-17 -14l12 -19q63 -95 90 -145q25 -44 48 -104h-195q-29 56 -76 137l-16 27l-23 -22q-135 -129 -336 -129q-137 0 -234 76q-98 77 -98 197t77 208q77 85 204 91q14 2 28 0h1q114 0 198 -39
q85 -38 183 -130l19 -18l17 20q76 88 76 158q0 72 -67 112q-67 41 -134 41h-572v364h-80v184h1211v-184h-946zM388 409q-135 0 -135 -96q0 -65 73 -90q38 -13 73 -13q39 0 50 1q79 5 157 68l25 20l-24 19q-109 91 -219 91z" />
    <glyph glyph-name="uni0A1A" unicode="&#xa1a;" horiz-adv-x="1261" 
d="M1055 1107v-714q0 -267 -233 -345q-72 -23 -158 -23q-320 0 -432 331q-22 60 -32 209l-2 23h-23h-53q-52 0 -75 24q-23 25 -23 83q0 99 77 167q77 67 187 67q51 0 72 -21q21 -20 21 -67v-71h487v337h-855v184h1241v-184h-199zM868 588h-485l1 -26q8 -162 51 -238
q65 -114 220 -114q103 0 157 44q56 42 56 127v207z" />
    <glyph glyph-name="uni0A1B" unicode="&#xa1b;" horiz-adv-x="1218" 
d="M326 726q-25 0 -40 -15q-16 -15 -16 -39q0 -23 33 -152l267 12q305 0 415 -62t110 -197q0 -134 -101 -199q-116 -69 -425 -69t-428 69q-87 52 -87 183t82 183l18 12l-9 20q-55 113 -55 212q0 98 72 162q70 63 154 63h515v198h-822v184h1204v-184h-200v-381h-687zM639 336
v-149l26 1q145 5 174 17q57 24 57 60q0 49 -83 61q-50 8 -148 9zM469 335q-60 -1 -130 -5q-58 -6 -77 -24q-22 -19 -22 -40q0 -20 12 -34q13 -13 32 -22q29 -9 51 -12q44 -7 133 -10l26 -1v148h-25z" />
    <glyph glyph-name="uni0A1C" unicode="&#xa1c;" horiz-adv-x="1255" 
d="M1049 1107v-1082h-184v520h-474v-520h-185v520h-68q-53 0 -78 23q-23 25 -23 79q0 107 75 179q76 73 185 73q49 0 73 -19q21 -21 21 -64v-87h474v378h-845v184h1227v-184h-198z" />
    <glyph glyph-name="uni0A1D" unicode="&#xa1d;" horiz-adv-x="1247" 
d="M859 493v8q0 77 -72 143q-73 65 -142 65q-48 0 -188 -37q-122 -35 -209 -53q-43 6 -86 33q-44 26 -44 55q0 62 169 98l52 11l-41 33q-116 91 -180 258h-107v184h1242v-184h-200q-59 -199 -167 -283l-28 -23l31 -18q158 -98 158 -281t-153 -282q-89 -56 -225 -56h-70
l28 -39q46 -67 46 -91q0 -22 -8 -32q-8 -8 -30 -8q-71 0 -175 105q-105 105 -194 105h-18q-51 0 -72 26q-23 24 -23 84q0 59 37 93q38 35 91 35t115 -57q61 -56 127 -58h38q108 0 165 16q122 33 133 150zM317 1067q88 -119 97 -127q77 -68 177 -68h12q108 4 171 72
q29 32 83 126l21 37h-591z" />
    <glyph glyph-name="uni0A1E" unicode="&#xa1e;" horiz-adv-x="1233" 
d="M1027 1107v-366h-627q-33 0 -77 -23q-45 -25 -45 -54q-3 -28 14 -60q5 -8 10 -16.5t8 -13.5t5 -7q18 -25 43 -25h660v-181h-461l15 -35q75 -173 277 -173q47 0 173 32l-41 -138q-156 -62 -217 -62q-145 0 -260 118q-96 92 -145 230q-58 37 -117 58q-63 23 -108 96
q-39 71 -39 158q0 172 177 241l31 12l-20 26q-17 22 -51 63q-13 19 -44 120h-176v184h1212v-184h-197zM849 1107h-467l3 -28q5 -31 42 -90q83 -73 167 -73h255v191z" />
    <glyph glyph-name="uni0A1F" unicode="&#xa1f;" horiz-adv-x="1233" 
d="M1029 1107v-368q-66 2 -92 2q-224 0 -375 -71q-153 -68 -297 -247l-15 -19l17 -16q82 -73 207 -133q129 -62 233 -62q106 0 163 45q57 41 98 76q40 31 54 32q15 0 19 -2q10 -4 10 -37q0 -111 -123 -199q-125 -89 -270 -89t-356 121q-210 120 -251 254q18 89 125 205
q210 225 390 273q90 22 258 45l22 3v187h-826v184h1208v-184h-199z" />
    <glyph glyph-name="uni0A20" unicode="&#xa20;" horiz-adv-x="1238" 
d="M675 1107l1 -184q207 -45 323 -170q117 -126 118 -294v-5q0 -212 -164 -329q-146 -104 -369 -104q-222 0 -378 111q-154 110 -154 321v6q1 168 118 294q116 125 323 170v184h-472v184h1225v-184h-571zM584 744q-148 0 -248 -92q-101 -92 -101 -209q0 -116 91 -179
q91 -62 258 -62t258 62q91 63 91 187v1q0 109 -101 200q-100 92 -248 92z" />
    <glyph glyph-name="uni0A21" unicode="&#xa21;" horiz-adv-x="1234" 
d="M1038 1107q-52 -106 -99 -166q-42 -39 -121 -115l-28 -26l35 -15q106 -45 159 -131q56 -85 56 -193q0 -214 -200 -340q-199 -125 -369 -127h-6q-167 0 -270 55q-130 67 -136 202v15q0 124 82 185q83 62 217 63q253 0 437 -166l25 -21l14 29q31 59 31 115q0 109 -103 173
q-104 63 -232 63q-46 0 -134 -17q-87 -18 -156 -18t-111 30t-42 94q0 65 65 100q66 36 122 36q59 0 134 -22q78 -21 122 -21q170 0 296 179l28 39h-840v184l1232 1v-185h-208zM649 244q-131 105 -266 105q-136 0 -136 -80q0 -38 48 -73q49 -35 123 -35q75 0 222 40l47 13z
" />
    <glyph glyph-name="uni0A22" unicode="&#xa22;" horiz-adv-x="1256" 
d="M1049 1107v-454h-672l2 -27q12 -128 102 -255l19 -27l20 25q106 132 311 132q165 0 236 -122q35 -62 35 -144t-52 -146q-75 -98 -258 -98q-276 0 -493 310q-92 131 -104 329l-2 23h-76q-49 0 -70 21q-21 20 -21 69q0 102 86 173q86 69 183 69q46 0 63 -14q18 -13 18 -45
v-90h489v271h-857v184h1252v-184h-211zM921 245q-11 83 -104 83h-10q-92 -5 -166 -86l-21 -24l28 -15q74 -39 156 -39h2q5 1 12 1q103 4 103 73v7z" />
    <glyph glyph-name="uni0A23" unicode="&#xa23;" horiz-adv-x="1268" 
d="M260 375q79 -93 200 -145q117 -50 238 -58q10 -1 31 -1q106 0 223 45q134 51 164 51q31 0 31 -3v-16q0 -13 -27 -46q-29 -37 -92 -82q-249 -117 -316 -117q-6 0 -9 1q-211 0 -393 95q-182 94 -250 273q177 410 428 410q87 0 185 -50l36 -19v138q-108 33 -258 94
q-64 36 -163 162h-270v184l1250 1v-185h-799l96 -47q93 -46 259 -109q108 -31 283 -64v-152q-126 21 -196 41l-32 9v-360h-24q-59 107 -126 144q-104 55 -196 55h-1q-32 -1 -43 -3q-113 -18 -229 -246z" />
    <glyph glyph-name="uni0A24" unicode="&#xa24;" horiz-adv-x="1250" 
d="M1046 1087q-43 -235 -173 -366l-21 -22l25 -17q177 -117 177 -288q0 -172 -104 -271q-104 -100 -271 -100q-67 0 -235 46q-33 9 -146 59q-106 49 -166 94q-55 44 -56 68q0 7 10 16q11 8 34 8q24 0 167 -48q148 -48 195 -55q58 -8 169 -8q115 0 169 51q55 51 55 124
q0 120 -111 177q-91 49 -240 49q-47 0 -120 -14q-86 -13 -144 -13q-64 0 -105 32t-41 97q0 64 34 93q37 29 100 29q69 0 172 -26q111 -25 163 -25q195 0 272 299l8 31h-32h-815v184l1234 1v-185h-200z" />
    <glyph glyph-name="uni0A25" unicode="&#xa25;" horiz-adv-x="1221" 
d="M1017 1107v-1082h-182v241l-36 -19q-140 -71 -279 -71t-275 100q-101 72 -168 168q102 266 102 499q0 76 -10 143l-3 21h-153v184h1209v-184h-205zM835 1107h-484l4 -29q12 -76 12 -125t-3 -79l-3 -27h28h446v260zM283 490q112 -130 240 -130q127 0 312 101v203h-507z
" />
    <glyph glyph-name="uni0A26" unicode="&#xa26;" horiz-adv-x="1254" 
d="M1049 1107v-531h-664l1 -26q8 -169 80 -259q72 -91 242 -91h5q59 0 128 26q109 41 122 46q48 19 74 19q24 0 33 -9q10 -10 10 -37q0 -58 -110 -139q-111 -81 -267 -81q-242 0 -365 129q-122 130 -131 396l-1 24h-106q-36 0 -52 18q-16 19 -16 66q0 100 87 190
q89 89 183 89q46 0 63 -17q18 -15 18 -54v-108h484v349h-852v184h1235v-184h-201z" />
    <glyph glyph-name="uni0A27" unicode="&#xa27;" horiz-adv-x="1213" 
d="M1008 1107v-1082h-185v282l-38 -25q-100 -64 -277 -64h-3q-125 0 -243 81q-122 84 -188 188q106 267 106 481q0 64 -7 117l-3 22h-155v184h1189v-184h-196zM280 531q113 -128 238 -128q126 0 305 99v605h-471l3 -27q7 -64 7 -129q0 -158 -82 -420z" />
    <glyph glyph-name="uni0A28" unicode="&#xa28;" horiz-adv-x="1246" 
d="M582 716q-114 0 -215 -84q-100 -85 -100 -199t39 -168t118 -76v-194q-157 28 -250 139q-91 112 -91 294v6q2 185 141 317q95 94 268 139v217h-480v184h1238v-184h-575v-217q170 -43 270 -139q136 -132 138 -317v-8q0 -184 -91 -293q-92 -110 -248 -138v194q79 22 118 76
q38 55 38 168t-102 199q-102 84 -216 84z" />
    <glyph glyph-name="uni0A2A" unicode="&#xa2a;" horiz-adv-x="1247" 
d="M303 506q140 -104 264 -104q125 0 292 113v776h382v-184h-199v-1082h-183v297l-37 -20q-140 -77 -296 -77t-307 110q-100 73 -124 144v8q0 59 40 155q46 112 71 180q32 80 32 142q0 60 -30 102q-30 41 -88 41h-104v184h174q100 0 166 -99q68 -98 68 -202q0 -10 -2 -24
q-28 -246 -126 -428l-10 -19z" />
    <glyph glyph-name="uni0A2B" unicode="&#xa2b;" horiz-adv-x="1245" 
d="M1040 1107v-384h-573q-87 0 -137 -37q-49 -37 -49 -102q0 -64 47 -137q20 -25 47 -60l15 -20l20 15q206 155 364 155q109 0 191 -64q104 -80 104 -197t-78 -177q-125 -99 -258 -99q-251 0 -466 218q-167 173 -167 356q0 184 142 277q44 29 143 56h474v200h-844v184h1237
v-184h-212zM737 169q154 0 154 102q0 56 -37 81q-37 26 -84 26q-92 0 -211 -116l-26 -26l34 -15q116 -52 170 -52z" />
    <glyph glyph-name="uni0A2C" unicode="&#xa2c;" horiz-adv-x="1203" 
d="M997 1107v-1082h-186v181l-37 -21q-128 -72 -264 -72q-184 0 -333 132q-75 67 -116 166q48 98 113 168q54 54 159 133l25 19l-24 20q-162 133 -205 336l-4 20h-110v184h1179v-184h-197zM811 1107h-508l14 -34q56 -140 224 -262h270v296zM811 627h-296q-89 -49 -228 -201
l-19 -20l22 -17q127 -94 242 -94q68 0 153 23q87 21 126 72v237z" />
    <glyph glyph-name="uni0A2D" unicode="&#xa2d;" horiz-adv-x="1225" 
d="M1056 1084q-19 -223 -152 -375l-14 -16l14 -16q113 -137 113 -267q0 -205 -137 -306t-325 -101q-112 0 -231 40q-222 74 -222 160q0 31 14 45q13 13 52 13q37 0 109 -26q162 -61 296 -63h1q131 0 202 92q50 67 50 144q0 76 -37 129l-16 23l-21 -18q-176 -149 -358 -149
t-264 99q-61 73 -61 168q0 151 116 234q88 61 240 61h14q160 -3 306 -110l20 -15l15 20q70 88 90 228l4 29h-29h-838v184h1215v-184h-164zM439 774q-177 0 -177 -113q0 -34 23 -57q34 -32 105 -32q116 0 229 97l24 21l-25 18q-92 66 -179 66z" />
    <glyph glyph-name="uni0A2E" unicode="&#xa2e;" horiz-adv-x="1255" 
d="M1049 1107v-1082h-184v528h-462l-3 -22q-23 -195 -49 -279q-54 -167 -155 -167q-68 0 -100 33q-31 31 -31 104q0 72 45 169l87 187q41 102 41 238q0 138 -3 180q-9 111 -104 111h-117v184h182q228 0 228 -418q0 -22 -2 -112l-1 -26h26h418v556h384v-184h-200z" />
    <glyph glyph-name="uni0A2F" unicode="&#xa2f;" horiz-adv-x="1339" 
d="M1135 1107v-1082h-181v535h-196v-166q0 -119 -71 -198q-71 -76 -195 -76q-123 0 -269 101q-140 97 -192 214q43 131 101 353q19 102 19 156q0 52 -15 142l-4 21h-120v184h1340v-184h-217zM578 500l-6 243h357h25v364h-635l4 -29q12 -75 12 -117q0 -210 -103 -482
q61 -72 149 -127q86 -54 115 -54q28 0 43 12q15 13 22 37q17 54 17 153z" />
    <glyph glyph-name="uni0A30" unicode="&#xa30;" horiz-adv-x="1158" 
d="M954 1107v-741q0 -147 -68 -248q-65 -95 -202 -95q-99 0 -216 69q-118 70 -216 180q-169 190 -169 350q0 100 76 170q77 69 198 69h414v246h-750v184h1134v-184h-201zM681 204q90 0 90 129v345h-401q-101 0 -101 -75q0 -23 15 -52q45 -93 117 -172q163 -175 280 -175z
" />
    <glyph glyph-name="uni0A32" unicode="&#xa32;" horiz-adv-x="1350" 
d="M1059 1107l-118 -220l28 -10q131 -44 211 -159q79 -115 79 -258q0 -185 -129 -313q-131 -128 -315 -128h-31v179h31q110 0 186 76q77 77 77 180q0 104 -56 181q-57 76 -167 93l-184 -320h-33l-184 320q-112 -16 -168 -93q-57 -77 -57 -180t77 -180t185 -77h31v-179h-31
q-187 0 -314 129q-128 128 -128 312q0 141 79 258q81 116 212 159l28 10l-118 220h-232v184h1328v-184h-287zM452 1107l203 -393l202 393h-405z" />
    <glyph glyph-name="uni0A33" unicode="&#xa33;" horiz-adv-x="1460" 
d="M1181 1107l-118 -221l28 -9q134 -44 212 -159q79 -113 79 -258q0 -186 -130 -313q-130 -128 -315 -128h-32v179h32q108 0 187 76q76 79 76 180q0 104 -57 181q-58 78 -149 91l-18 2l-174 -320h-53l-174 320q-113 -17 -170 -93q-57 -77 -57 -180t78 -180q79 -77 185 -77
h33v-179h-33q-183 0 -313 128q-130 127 -130 313q0 140 80 258q81 116 214 159l28 10l-119 220h-363v184h1463v-184h-290zM152 -10q-36 -37 -88 -37q-53 0 -90 37q-36 36 -36 88t36 88q37 37 90 37q52 0 88 -37q37 -36 37 -88t-37 -88zM573 1107l204 -392l202 392h-406z" />
    <glyph glyph-name="uni0A35" unicode="&#xa35;" horiz-adv-x="1204" 
d="M999 1107v-372h-639q-137 0 -137 -79q0 -30 32 -68t63 -38h657v-185h-463l14 -34q68 -167 250 -167q79 0 203 28l-40 -147q-180 -53 -215 -53h-3q-145 2 -245 102q-102 99 -153 254q-21 24 -57 36q-48 17 -93 38q-106 57 -130 213q-3 16 -3 34q0 103 97 175q97 73 209 73
h472v190h-799v184h1178v-184h-198z" />
    <glyph glyph-name="uni0A36" unicode="&#xa36;" horiz-adv-x="1253" 
d="M1047 1107v-1082h-184v520h-454l-64 -274q-44 -188 -150 -188q-56 0 -99 41q-40 42 -40 102q0 59 86 240q87 182 87 304q0 69 -11 117q-7 40 -49 220h-158v184h1248v-184h-212zM696 96q-36 -37 -88 -37t-89 37q-37 36 -37 88q0 51 37 88q37 36 89 36t88 -36
q37 -37 37 -88q0 -52 -37 -88zM863 1107h-503l8 -31q40 -162 48 -321l1 -24h24h422v376z" />
    <glyph glyph-name="uni0A38" unicode="&#xa38;" horiz-adv-x="1252" 
d="M1047 1107v-1082h-184v520h-454l-64 -274q-44 -188 -150 -188q-57 0 -98 42q-39 39 -41 100q0 59 87 241q86 181 86 304q0 68 -11 118q-6 37 -49 219h-158v184h1248v-184h-212zM863 1107h-503l8 -31q40 -162 48 -321l1 -24h24h422v376z" />
    <glyph glyph-name="uni0A39" unicode="&#xa39;" horiz-adv-x="1178" 
d="M974 1107v-745q2 -149 -84 -242q-85 -95 -233 -95q-200 0 -384 178q-184 177 -184 376q0 105 84 179q83 73 193 73h124v-182h-108q-49 0 -81 -23q-31 -22 -31 -68q0 -96 132 -223q133 -127 247 -127q68 0 107 39q37 40 37 110v750h-773v184h1154v-184h-200z" />
    <glyph glyph-name="uni0A3C" unicode="&#xa3c;" horiz-adv-x="0" 
d="M-380 -156q34 34 74 34h1q81 0 110 -69q8 -24 8 -58q0 -35 -32 -69q-31 -34 -76 -34h-1q-43 0 -68 16q-23 15 -38 46q-13 28 -12 62q-1 37 34 72z" />
    <glyph glyph-name="uni0A3E" unicode="&#xa3e;" horiz-adv-x="532" 
d="M295 1107v-599h-178v599h-118v184h532v-184h-236z" />
    <glyph glyph-name="uni0A3F" unicode="&#xa3f;" horiz-adv-x="514" 
d="M705 1444q-2 28 -7 82q-6 31 -22 66q-41 83 -168 83q-130 0 -172 -137q-20 -71 -20 -222v-25h195v-184h-195v-1082h-181v1082h-141v184h141v25q1 263 74 385q89 153 316 153h23q170 -6 253 -93q82 -86 82 -262q0 -27 -3 -55h-175z" />
    <glyph glyph-name="uni0A40" unicode="&#xa40;" horiz-adv-x="532" 
d="M290 1107v-1082h-181v1082h-119v184h119v25q0 154 -21 221q-42 138 -177 138q-93 0 -131 -41q-41 -38 -53 -127q-4 -22 -8 -63h-176v28q0 234 152 329q86 53 181 53q250 0 341 -159q72 -120 73 -379v-25h240v-184h-240z" />
    <glyph glyph-name="uni0A41" unicode="&#xa41;" horiz-adv-x="24" 
d="M-295 -324q-159 -59 -363 -64h-13q-134 0 -323 65v153q190 -66 354 -66q162 0 345 66v-154z" />
    <glyph glyph-name="uni0A42" unicode="&#xa42;" horiz-adv-x="26" 
d="M-994 -127q189 -65 355 -65q168 0 344 64v-142q-167 -66 -342 -66t-357 66v143zM-295 -597q-189 -62 -350 -62h-5q-168 2 -344 62v141q190 -60 354 -60q162 0 345 60v-141z" />
    <glyph glyph-name="uni0A47" unicode="&#xa47;" horiz-adv-x="18" 
d="M-544 1751q75 -62 191 -243q57 -89 58 -144q-19 22 -46 58q-66 84 -177 159q-37 24 -98 61q-111 65 -326 83q-3 3 -10.5 8t-9.5 6q-7 4 -19 14q-11 17 -11 35q0 15 5 47q4 28 27 49q24 21 51 21q21 0 43 -2q176 -26 322 -152z" />
    <glyph glyph-name="uni0A48" unicode="&#xa48;" horiz-adv-x="18" 
d="M-814 1814l-100 -5q-45 0 -61 13q-17 14 -17 50q0 39 46 64q46 27 95 27q197 0 346 -150q108 -114 208 -337q33 -72 33 -90v-23q-8 3 -18 9q-262 152 -474 154h-37l-120 -6q-101 0 -101 56q0 34 34 62q35 29 76 30q40 3 63 3q193 0 441 -179l114 -82l-78 116
q-49 74 -168 182q-116 106 -282 106z" />
    <glyph glyph-name="uni0A4B" unicode="&#xa4b;" horiz-adv-x="18" 
d="M-644 1767l105 4h37q194 0 253 -77q27 -34 27 -103q0 -75 -25 -118q-12 -31 -26 -36q-1 2 -10 35q-3 10 -7.5 26t-5.5 20q-5 19 -32 52q-27 34 -58 40q-43 10 -193 10q-147 0 -239 3q-61 9 -95 79q-37 65 -37 140v7q4 53 24 91q20 29 32 29q13 0 16 -3q6 -6 7 -40
q5 -59 6 -62q18 -61 67 -88q41 -9 88 -9h66z" />
    <glyph glyph-name="uni0A4C" unicode="&#xa4c;" horiz-adv-x="13" 
d="M-330 1428q46 83 46 128q0 46 -38 90q-36 46 -100 46q-62 0 -102 -40t-40 -89t16 -74q16 -41 16 -62v-1q-14 -12 -30 -12q-18 0 -62 37q-47 37 -56 93q-2 15 -4 30.5t-3.5 23.5t-1.5 11v16q-28 13 -67 15q-45 3 -48 4q-121 7 -192 72q-71 66 -75 178q0 68 37 75
q13 -4 34 -52q19 -46 29 -58q54 -65 211 -65q66 2 178 28q110 27 167 27h4h8q125 -4 190 -95q43 -58 43 -133t-42 -140q-44 -65 -95 -65q-14 0 -23 12z" />
    <glyph glyph-name="uni0A4D" unicode="&#xa4d;" horiz-adv-x="17" 
d="M-802 -139q113 -10 192 -46q201 -120 313 -316q40 -71 48 -85l-22 -9l-39 44l-46 41q-102 96 -142 124l-77 57q-99 55 -227 61v129z" />
    <glyph glyph-name="uni0A51" unicode="&#xa51;" 
d="M-195 -414q100 -55 100 -142q0 -85 -33 -85q-52 0 -163 77q-111 74 -237 247q-70 97 -119 227h57q62 -100 266 -267q26 -18 129 -57z" />
    <glyph glyph-name="uni0A59" unicode="&#xa59;" horiz-adv-x="1139" 
d="M1017 1107v-1082h-181v324l-36 -18q-101 -49 -249 -49q-145 0 -277 56q-130 57 -195 161q11 53 51 144q36 82 47 112q34 98 34 221q0 36 -1 57q-2 32 -30 53q-30 21 -76 21h-89v184h182q65 0 115 -51q48 -51 71 -122q10 -43 11 -145v-25h25h417v343h391v-184h-210z
M139 -12q-51 0 -89 36q-37 37 -37 90q0 54 37 90q37 37 89 37t89 -37q37 -36 37 -90q0 -53 -37 -90q-38 -36 -89 -36zM308 528q98 -59 246 -59t282 60v235h-462q-40 -114 -76 -206l-8 -19z" />
    <glyph glyph-name="uni0A5A" unicode="&#xa5a;" horiz-adv-x="1384" 
d="M1281 1107v-1082h-184v1082h-241v-770q0 -159 -68 -236q-69 -76 -211 -76q-181 0 -307 150q-128 149 -128 331q0 142 97 238q99 94 242 94h191v269h-659v184h1476v-184h-208zM93 -72q-52 0 -88 36q-37 36 -37 88t36 88q38 36 89 36t89 -36q36 -38 36 -88q0 -52 -36 -88
q-38 -36 -89 -36zM382 621q-57 -37 -59 -127q0 -86 78 -187q78 -100 166 -100t105 80v371h-130q-102 0 -160 -37z" />
    <glyph glyph-name="uni0A5B" unicode="&#xa5b;" horiz-adv-x="1167" 
d="M1049 1107v-1082h-184v520h-474v-520h-185v520h-68q-53 0 -78 23q-23 25 -23 79q0 107 75 179q76 73 185 73q49 0 73 -19q21 -21 21 -64v-87h474v378h-846v184h1234v-184h-204zM724 96q-36 -37 -88 -37q-51 0 -88 37q-36 36 -36 88q0 50 36 88q38 36 88 36q52 0 88 -36
q37 -37 37 -88q0 -52 -37 -88z" />
    <glyph glyph-name="uni0A5C" unicode="&#xa5c;" horiz-adv-x="1188" 
d="M644 152q-37 -3 -103 -3q-63 0 -190 23l-40 7l12 -40q8 -25 19 -50q12 -30 12 -51q0 -20 -6 -26q-4 -6 -30 -6q-24 0 -78 48q-57 52 -104 125q-86 130 -86 179t16 64q16 16 48 16t110 -35q178 -77 326 -77t240 65t92 146q0 134 -222 134h-1l-320 -23q-93 0 -147 22
q-54 21 -69 42q-15 20 -15 51q0 117 247 117h26q47 -2 123 -14q78 -13 125 -13q142 0 253 218l19 36h-881v184h1251v-184h-183q-51 -180 -157 -283l-22 -21l25 -17q130 -93 130 -239q0 -109 -62 -204q-61 -93 -162 -137l-29 -13l19 -25q72 -94 72 -149q0 -12 -4 -15
q-4 -4 -33 -4t-95 51q-56 44 -126 101z" />
    <glyph glyph-name="uni0A5E" unicode="&#xa5e;" horiz-adv-x="1159" 
d="M1040 1107v-384h-551q-90 0 -137 -37q-50 -35 -50 -102q0 -64 47 -137q20 -25 47 -60l15 -20l20 15q206 155 353 155q108 0 202 -71q93 -72 93 -190q0 -117 -70 -172q-205 -105 -259 -105q-5 0 -7 1q-238 0 -453 218q-169 172 -169 356t142 277q48 29 144 56h452v200
h-844v184h1237v-184h-212zM182 36q-36 -37 -88 -37q-51 0 -78 28q-46 46 -46 97q0 52 36 88q37 37 88 37q52 0 88 -37q37 -36 37 -88t-37 -88zM748 169q153 0 153 102q0 55 -36 81q-38 26 -85 26q-92 0 -211 -116l-26 -26l34 -15q117 -52 171 -52z" />
    <glyph glyph-name="uni0A66" unicode="&#xa66;" horiz-adv-x="1428" 
d="M267 234q-175 175 -175 423t175 423t423 175t424 -175q175 -177 175 -423t-175 -423q-176 -175 -424 -175t-423 175zM396 952q-122 -122 -122 -295t122 -295q123 -123 295 -123t295 123q122 122 122 295t-122 295q-123 123 -295 123t-295 -123z" />
    <glyph glyph-name="uni0A67" unicode="&#xa67;" horiz-adv-x="1291" 
d="M1049 697q-22 -65 -22 -266q0 -199 77 -335q36 -58 54 -86q27 -40 30 -74q-30 -24 -55 -24t-69 29q-109 73 -160 219q-53 146 -53 275q0 123 17 276l5 45l-41 -20q-178 -87 -299 -87q-191 0 -327 117q-126 112 -126 254t123 242q163 133 373 133h24q226 -8 344 -117
q119 -110 119 -299q0 -57 -7 -147q-5 -73 -7 -135zM802 1164q-80 51 -212 51t-215 -36q-115 -49 -115 -158v-7q1 -89 96 -138q98 -46 190 -46q96 0 198 43q136 54 136 138q0 102 -78 153z" />
    <glyph glyph-name="uni0A68" unicode="&#xa68;" horiz-adv-x="1426" 
d="M387 234q-9 -1 -30 -1h-23q-162 0 -227 60q-36 35 -36 85q0 51 40 87t100 36q59 0 167 -33q103 -34 166 -34q185 0 335 93q200 126 200 326v8q-3 155 -113 235q-110 79 -290 79q-177 0 -356 -41q-63 -22 -126 -22q-61 0 -86 20q-26 19 -26 60q0 85 224 132q160 33 319 33
q281 0 457 -127q177 -126 177 -367t-133 -373q-107 -107 -335 -177l-63 -19l59 -28q119 -55 181 -102q61 -46 61 -76q0 -58 -62 -58q-63 0 -143 40q-94 47 -146 76q-66 34 -183 81q-35 7 -107 7h-1z" />
    <glyph glyph-name="uni0A69" unicode="&#xa69;" horiz-adv-x="1415" 
d="M1158 78q-10 -70 -100 -70q-44 0 -215 59q-88 31 -170 59.5t-113.5 39.5t-32.5 11q-115 19 -291 51q-87 17 -130 60q-44 42 -44 87t41 80t119 35q80 0 213 -79t239 -79q107 0 242 72q137 71 137 154t-59 124q-61 41 -166 41q-18 -6 -202 -29q-179 -21 -266 -21
q-86 0 -138 32q-50 32 -50 73q0 43 68 80q66 39 199 39q57 0 176 -15q123 -14 207 -14q89 0 173 38q83 39 83 102q0 83 -152 129q-152 47 -266 47q-118 0 -289 -25t-216 -25q-90 0 -90 77q0 45 150 94q152 50 400 50q250 0 424 -75q214 -93 214 -262q0 -126 -126 -212
l-31 -22l31 -20q9 -6 37 -27q65 -86 65 -183q0 -98 -79 -186q-81 -90 -198 -124l-77 -23l76 -25q140 -47 188 -90q20 -18 19 -28z" />
    <glyph glyph-name="uni0A6A" unicode="&#xa6a;" horiz-adv-x="1324" 
d="M755 1350q408 -98 408 -391q0 -101 -54 -179q-57 -58 -86 -84q-28 -27 -31 -28q-1 -1 -10 -13q-11 -14 -11 -29v-11q50 -48 77 -79q64 -76 64 -185q0 -166 -160 -257q-139 -82 -338 -82q-200 0 -336 82q-157 91 -157 257q0 106 65 185q38 42 77 79v11q0 18 -13 34
q-6 5 -14 12.5t-10 9.5q-25 22 -101 98q-54 78 -54 179q0 293 408 391v-180q-228 -69 -228 -220q0 -236 366 -236t366 236q0 151 -228 220v180zM301 351q0 -161 320 -161h9q164 0 232 38q70 39 70 111q0 137 -112 177q-62 20 -206 20q-145 0 -202 -20q-111 -40 -111 -165z
" />
    <glyph glyph-name="uni0A6B" unicode="&#xa6b;" horiz-adv-x="1303" 
d="M288 496q154 -109 304 -109q148 0 357 125v776h178v-1263h-178v299l-36 -18q-175 -86 -339 -86q-166 0 -345 113q-102 65 -145 143q7 67 86 246q79 176 79 241q0 62 -38 105q-38 40 -108 40h-59v180h111q113 0 193 -105q81 -105 81 -213t-150 -444l-8 -19z" />
    <glyph glyph-name="uni0A6C" unicode="&#xa6c;" horiz-adv-x="1170" 
d="M887 1548q-145 0 -145 -101q0 -78 90 -177q6 -6 75 -54q109 -75 109 -113q0 -37 -27 -57q-26 -19 -75 -19q-48 0 -190 21q-139 22 -224 22q-81 0 -153 -32q-98 -44 -98 -136q0 -90 67 -142q70 -50 192 -50q46 0 131 18q88 17 138 17q54 0 131 -31q85 -34 85 -82
q0 -55 -73 -86q-73 -32 -156 -32l-253 18h-1q-118 0 -172 -25q-91 -43 -91 -159q0 -141 205 -141h449q65 0 95 -31q32 -31 32 -68q0 -66 -51 -80q-14 -3 -76 -3h-452q-178 0 -279 88q-101 89 -101 250q0 90 56 167l69 86v9q0 17 -12 33q-18 23 -26 34q-2 2 -12 15.5
t-15 19.5q-56 79 -56 210q0 165 140 246q117 69 291 69q38 0 83 -5l53 -6l-29 45q-52 80 -52 170t86 158q85 68 237 70h6q75 0 152 -28q78 -27 78 -70q0 -29 -16 -42q-15 -12 -57 -12l-157 16h-1z" />
    <glyph glyph-name="uni0A6D" unicode="&#xa6d;" horiz-adv-x="1398" 
d="M120 21q-77 -2 -77 39q0 48 88 82q691 258 872 462q44 49 76 132q31 80 31 148q0 136 -110 216q-112 80 -235 80q-124 0 -199 -39q-83 -42 -98 -81q-5 -11 -33 -80q-30 -71 -104 -71q-41 0 -70 30q-29 31 -29 87q0 137 183 239q160 90 313 90h19q286 -7 432 -185
q110 -136 110 -301q0 -49 -11 -104q-44 -230 -260 -370q-215 -139 -551 -273q-97 -30 -274 -88q-39 -13 -73 -13z" />
    <glyph glyph-name="uni0A6E" unicode="&#xa6e;" horiz-adv-x="1472" 
d="M416 924q-2 -54 -2 -62q1 -298 168 -478q166 -181 507 -181q133 0 173 -8q76 -16 76 -87q0 -21 -62 -52q-59 -31 -187 -31q-377 0 -609 213q-234 212 -240 546q0 74 -1 140v24l-24 1q-129 5 -154 44q-11 17 -11 46q0 89 90 177q92 89 191 89q46 0 66 -17q19 -16 19 -56
v-101h924v-180h-924v-27z" />
    <glyph glyph-name="uni0A6F" unicode="&#xa6f;" horiz-adv-x="1497" 
d="M1233 1074q35 -29 35 -62q0 -35 -23 -50q-21 -17 -81 -17h-749l-2 -23q-3 -45 -3 -80q0 -300 184 -468q182 -169 493 -169q133 0 172 -9q77 -17 77 -86q0 -47 -145 -75q-46 -10 -104 -10q-396 0 -626 224q-229 223 -229 611v28q0 20 1 31l2 26h-27h-72q-46 0 -64 20
q-20 19 -20 88q0 67 40 127q43 61 115 92q75 32 121 32q48 0 68 -18q20 -17 20 -56v-106h500l-28 39q-62 89 -62 161q0 134 82 204q81 69 200 69q117 0 174 -26q91 -43 91 -79q0 -14 -8 -22q-7 -6 -34 -6l-154 13h-1q-84 0 -128 -35q-45 -33 -45 -87q0 -87 69 -170
q71 -83 161 -111z" />
    <glyph glyph-name="uni0A70" unicode="&#xa70;" horiz-adv-x="20" 
d="M-533 1495q-69 79 -69 159q0 78 62 158q61 78 212 78q152 0 213 -78q62 -79 62 -158q0 -80 -69 -159q-35 -41 -58 -43q51 88 51 151t-59 110q-58 48 -141 48q-81 0 -140 -48q-57 -48 -57 -127q0 -37 17 -71q11 -22 23 -43q1 -3 11 -20q-23 2 -58 43z" />
    <glyph glyph-name="uni0A71" unicode="&#xa71;" horiz-adv-x="303" 
d="M-307 1741v25q0 48 7 72q12 39 19 39q13 -11 25 -97q9 -85 67 -142q58 -56 170 -56q224 0 258 232q6 56 18 63q25 -9 25 -104t-12 -147q-27 -91 -106 -136q-80 -44 -178 -44q-99 0 -179 46q-114 64 -114 249zM-170 1107v184h492v-184h-492z" />
    <glyph glyph-name="uni0A72" unicode="&#xa72;" horiz-adv-x="1249" 
d="M1012 650l-221 4q-170 0 -299 -44q-126 -43 -236 -179l-13 -18l15 -16q82 -82 212 -144q129 -63 222 -63h11q101 5 197 98q81 78 102 78q22 3 31 -11q9 -13 9 -50q0 -79 -98 -173q-96 -96 -203 -105q-13 -1 -39 -1q-195 0 -395 110q-198 109 -266 273q44 155 275 317
l25 17l-22 21q-37 35 -111 122q-60 82 -95 221h-98v184h1233v-184h-205v-457h-31zM862 1107h-561l13 -34q27 -69 63 -111q99 -110 201 -129h284v274z" />
    <glyph glyph-name="uni0A73" unicode="&#xa73;" horiz-adv-x="1391" 
d="M746 199q200 5 200 158q0 81 -73 161q-74 79 -144 79q-9 0 -48 -6t-314 -6h-35l11 -33q122 -353 393 -353h10zM553 783l1 -17q116 2 191 24q179 51 283 282l16 35h-754v-25q2 -178 10 -290l2 -23l232 -2v-1h12v2zM1049 1319q-18 168 -103 249q-87 79 -263 79
q-358 0 -391 -329l-3 -27h28h735zM755 14q-650 0 -650 1068v25h-94v184h94l2 23q15 246 169 382q155 135 404 135q250 0 395 -135q147 -138 163 -382l2 -23h23h119v-184h-150q-94 -283 -258 -396l-28 -19l26 -21q163 -130 163 -316q0 -142 -101 -241q-100 -100 -279 -100z
M546 816h-12v-49h12v1v48z" />
    <glyph glyph-name="uni0A74" unicode="&#xa74;" horiz-adv-x="3013" 
d="M472 1234q210 0 214 -183v-7q-1 -91 -92 -141q-94 -50 -166 -50q-88 0 -148 51q-58 53 -59 125v8q0 197 251 197zM870 1008q0 400 -425 400h-1q-214 0 -306 -92q-95 -89 -95 -266q0 -174 96 -274q98 -99 250 -99q98 0 236 69l41 21l-5 -46q-14 -137 -14 -229
q0 -378 204 -528q52 -40 87 -40t44 11q10 11 12 42q-81 111 -96 145q-66 146 -66 340v1q38 356 38 545zM1621 1757q29 5 99 6h3q71 -2 211 -53q145 -55 230 -151l18 -21l19 19q49 49 76 67q38 29 91 74q66 53 118 86q322 197 572 197q224 0 363 -108q52 -41 92 -81
q73 -72 138 -239h-204q-47 102 -91 146q-107 107 -301 107q-229 0 -572 -258q-45 -34 -84 -69q-41 -36 -77 -91h-256q-36 67 -137 129t-207 62q-115 0 -264 -73q-68 -94 -104 -198l-11 -33h918v-186h-45q-94 -274 -257 -390l-29 -20l29 -20q179 -126 179 -301
q0 -174 -106 -266q-108 -93 -275 -93q-605 0 -606 1065v25h-46v186h50l3 22q18 138 92 262q132 117 184 146q47 25 109 37zM1712 582q-9 0 -46 -5q-35 -5 -250 -6h-35l11 -33q122 -354 348 -354h9q200 6 200 143q0 91 -82 173t-155 82zM1374 755q44 -1 132 -1h108
q42 2 120 24q177 53 277 276l16 35h-689v-25q2 -185 11 -286l2 -23h23z" />
    <glyph glyph-name="uni0A75" unicode="&#xa75;" 
d="M-137 -516q68 0 68 91v171h217l-6 -94h-116v-15q0 -189 -44 -239q-25 -27 -68 -27q-41 0 -125 35q-82 36 -98 52q-20 18 -23 22q-6 4 -12 10q-5 5 -7 6q-13 8 -32 30q-20 23 -20 43v2q-1 1 -1 7q0 21 26 97q31 87 37 129q6 37 6 80q0 40 -8 86h106q8 -50 8 -88
q0 -42 -3 -78q-3 -35 -33 -110q-31 -77 -32 -96q3 -27 16 -37q21 -16 22 -17q5 -3 15 -10q61 -50 107 -50z" />
    <glyph glyph-name="uni200B" unicode="&#x200b;" horiz-adv-x="25" 
 />
    <glyph glyph-name="afii61664" unicode="&#x200c;" horiz-adv-x="0" 
d="M-14 1670h28v-1939h-28v1939z" />
    <glyph glyph-name="afii301" unicode="&#x200d;" horiz-adv-x="0" 
d="M14 1619v-1888h-28v1888l-168 -171l-17 17l184 181l-184 179l17 17l182 -182l182 182l17 -17l-184 -179l184 -181l-17 -17z" />
    <glyph glyph-name="endash" unicode="&#x2013;" horiz-adv-x="1012" 
d="M71 596v155h887v-155h-887z" />
    <glyph glyph-name="emdash" unicode="&#x2014;" horiz-adv-x="1723" 
d="M1732 753v-159h-1714v159h1714z" />
    <glyph glyph-name="quoteleft" unicode="&#x2018;" horiz-adv-x="708" 
d="M109 1354v39q0 54 41 115q50 92 176 173q38 25 120 42l5 -20q-83 -74 -114 -113q-58 -74 -58 -165q0 -23 3 -46l5 -38l33 20q61 36 97 36q33 0 58 -18q59 -42 59 -110q0 -70 -49 -110q-47 -40 -125 -40q-113 0 -182 69q-69 68 -69 166z" />
    <glyph glyph-name="quoteright" unicode="&#x2019;" horiz-adv-x="921" 
d="M753 1492v-39q0 -54 -41 -115q-50 -92 -176 -173q-38 -25 -120 -42l-5 20q83 74 114 113q58 74 58 165q0 23 -3 46l-5 38l-33 -20q-62 -36 -97 -36q-33 0 -58 18q-59 42 -59 110q0 70 49 110q47 40 125 40q113 0 182 -69q69 -68 69 -166z" />
    <glyph glyph-name="quotedblleft" unicode="&#x201c;" horiz-adv-x="1446" 
d="M745 1354v39q0 54 41 115q50 92 176 173q38 25 120 42l5 -20q-83 -74 -114 -113q-58 -74 -58 -165q0 -23 3 -46l5 -38l33 20q62 36 97 36q33 0 58 -18q59 -42 59 -110q0 -70 -49 -110q-47 -40 -125 -40q-113 0 -182 69q-69 68 -69 166zM147 1354v39q0 54 41 115
q50 92 176 173q38 25 120 42l5 -20q-83 -74 -114 -113q-58 -74 -58 -165q0 -23 3 -46l5 -38l33 20q61 36 97 36q33 0 58 -18q59 -42 59 -110q0 -70 -49 -110q-47 -40 -125 -40q-113 0 -182 69q-69 68 -69 166z" />
    <glyph glyph-name="quotedblright" unicode="&#x201d;" horiz-adv-x="1434" 
d="M683 1492v-39q0 -54 -41 -115q-50 -92 -176 -173q-38 -25 -120 -42l-5 20q83 74 114 113q58 74 58 165q0 23 -3 46l-5 38l-33 -20q-62 -36 -97 -36q-33 0 -58 18q-59 42 -59 110q0 70 49 110q47 40 125 40q113 0 182 -69q69 -68 69 -166zM1281 1492v-39q0 -54 -41 -115
q-50 -92 -176 -173q-38 -25 -120 -42l-5 20q83 74 114 113q58 74 58 165q0 23 -3 46l-5 38l-33 -20q-62 -36 -97 -36q-33 0 -58 18q-59 42 -59 110q0 70 49 110q47 40 125 40q113 0 182 -69q69 -68 69 -166z" />
    <glyph glyph-name="bullet" unicode="&#x2022;" horiz-adv-x="946" 
d="M140 666l344 344l347 -344l-347 -345z" />
    <glyph glyph-name="twodotenleader" unicode="&#x2025;" horiz-adv-x="1533" 
d="M309 -46q24 25 73 25q50 0 78 -31q27 -31 27 -76t-29 -73q-27 -28 -72 -28t-72 28q-29 28 -29 79q0 50 24 76zM1079 -46q24 25 73 25q48 0 80 -33q31 -34 31 -76q0 -41 -31 -70q-34 -29 -74 -29q-43 0 -72 28q-31 28 -31 79q0 50 24 76z" />
    <glyph glyph-name="uni2026" unicode="&#x2026;" horiz-adv-x="2279" 
d="M309 -46q24 25 73 25q50 0 78 -31q27 -31 27 -76t-29 -73q-27 -28 -72 -28t-72 28q-29 28 -29 79q0 50 24 76zM1079 -46q24 25 73 25q48 0 80 -33q31 -34 31 -76q0 -41 -31 -70q-34 -29 -74 -29q-43 0 -72 28q-31 28 -31 79q0 50 24 76zM1931 -21q46 0 73 -31
q29 -29 29 -74q0 -46 -30 -74q-31 -29 -73 -29q-44 0 -73 28q-30 29 -30 73q0 42 29 76q31 31 75 31z" />
    <glyph glyph-name="uni2070" unicode="&#x2070;" horiz-adv-x="569" 
d="M480 1402q0 -382 -211 -382q-208 1 -208 378t208 377q117 0 170 -123q41 -99 41 -250zM269 1755q-97 0 -125 -157q-12 -64 -12 -202q0 -141 10 -200q28 -157 127 -157q78 0 111 93q34 90 34 265t-34 265q-33 93 -111 93z" />
    <glyph glyph-name="uni2074" unicode="&#x2074;" horiz-adv-x="548" 
d="M382 1224v-210h-55v210h-303v59l331 491h27v-501h115v-49h-115zM327 1680l-275 -407h275v407z" />
    <glyph glyph-name="uni2075" unicode="&#x2075;" horiz-adv-x="570" 
d="M445 1711q-7 -7 -13 -7h-245l-52 -131l32 -5q121 -16 201 -84t80 -184v-22q-9 -113 -90 -182q-80 -68 -198 -68q-117 0 -117 43q0 14 13 25q14 10 34 10q16 0 66 -16q42 -16 73 -18h12q77 0 115 50q40 47 40 138q0 154 -126 212q-58 26 -189 36l115 261h241q13 0 42 10z
" />
    <glyph glyph-name="uni2076" unicode="&#x2076;" horiz-adv-x="585" 
d="M440 1133q-53 -95 -164 -95q-110 0 -166 83q-57 83 -57 203t45 226q43 105 122 166t207 83q25 4 43 -4q-1 -1 -5 -3q-166 -65 -223 -122q-56 -56 -88 -152l-19 -59l55 29q47 25 96 25q80 0 135 -63q56 -62 56 -156q0 -96 -37 -161zM415 1245q0 230 -160 230q-43 0 -69 -7
q-24 -9 -42 -42q-21 -35 -22 -50q-2 -20 -2 -86q0 -68 35 -146q35 -77 127 -77q65 0 100 47q33 48 33 131z" />
    <glyph glyph-name="uni2077" unicode="&#x2077;" horiz-adv-x="553" 
d="M262 1040h-63l214 672h-244q-58 0 -95 -35q-8 -8 -27 -32l54 156h3l13 -26h370v-7z" />
    <glyph glyph-name="uni2078" unicode="&#x2078;" horiz-adv-x="580" 
d="M443 1085q-55 -66 -178 -66q-81 0 -142 45q-61 43 -61 118q0 74 28 108q30 38 98 90l25 19l-24 20q-62 52 -91 92q-28 37 -28 107t60 113q59 43 138 43q78 0 133 -36t55 -113q0 -100 -134 -174l-34 -19l31 -23q79 -59 121 -105q40 -46 40 -110q0 -66 -37 -109zM407 1631
q0 55 -37 93q-37 40 -100 40q-64 0 -105 -31q-42 -31 -42 -92q0 -106 136 -197l14 -9l14 9q120 82 120 187zM119 1199q0 -77 45 -123q44 -48 110 -48q65 0 107 36q42 38 42 100q0 64 -36 100q-33 36 -162 125l-15 -12q-91 -73 -91 -178z" />
    <glyph glyph-name="uni2079" unicode="&#x2079;" horiz-adv-x="574" 
d="M327 1069q-52 -35 -85 -41q-31 -8 -107 -8q-73 0 -73 42q0 13 6 22q8 9 18 9q9 0 58 -23q46 -24 80 -24q66 0 109 105q17 35 45 141l15 53l-50 -23q-44 -21 -89 -23h-6q-177 0 -177 227v11q1 110 53 175q51 63 148 63t148 -79q51 -78 51 -208q0 -127 -35 -250
q-34 -119 -109 -169zM257 1751q-133 0 -133 -210q0 -98 42 -155q43 -55 123 -55q30 0 63 18q32 18 48 54q16 35 16 127q0 91 -35 152q-40 69 -124 69z" />
    <glyph glyph-name="uni207D" unicode="&#x207d;" horiz-adv-x="472" 
d="M361 924q-131 69 -210 187q-88 128 -88 287q0 270 291 440q-119 -86 -170 -176q-51 -88 -51 -256q0 -165 53 -286q53 -118 175 -196z" />
    <glyph glyph-name="uni207E" unicode="&#x207e;" horiz-adv-x="462" 
d="M62 899q118 77 171 195q52 116 52 283q0 166 -51 256q-50 89 -167 175q290 -170 290 -438q0 -158 -84 -280q-85 -124 -211 -191z" />
    <glyph glyph-name="uni2080" unicode="&#x2080;" horiz-adv-x="583" 
d="M480 -292q0 -382 -211 -382q-208 1 -208 378t208 377q117 0 170 -123q41 -99 41 -250zM269 61q-97 0 -125 -157q-12 -65 -12 -202q0 -141 10 -200q28 -157 127 -157q78 0 111 93q34 90 34 265t-34 265q-33 93 -111 93z" />
    <glyph glyph-name="uni2081" unicode="&#x2081;" horiz-adv-x="417" 
d="M172 -38q-12 19 -29 19t-59 -18v16l152 93v-674q1 -52 37 -63q11 -3 15 -3q1 0 4.5 -0.5t4.5 -1.5h10q5 -1 10 -1q6 0 11 -1h12v-3h-259v4q48 2 58 6q46 16 46 84v500q0 26 -13 43z" />
    <glyph glyph-name="uni2082" unicode="&#x2082;" horiz-adv-x="594" 
d="M461 -674h-417q13 15 60.5 68t76.5 86q210 237 210 378q0 79 -51 124q-50 47 -124 47q-43 0 -67 -44q-11 -27 -31 -83q-18 -34 -37 -34t-25 6q-7 6 -7 23q0 49 81 114q82 64 131 64q78 0 131 -53q54 -52 54 -136q0 -141 -149 -311q-67 -77 -129 -144l-37 -42h265
q49 0 64 17q14 13 33 42z" />
    <glyph glyph-name="uni2083" unicode="&#x2083;" horiz-adv-x="576" 
d="M192 -287h-18q192 77 192 196q0 64 -62 99q-60 36 -112 36q-51 0 -68 -38q-10 -26 -22 -66q-15 -30 -46 -30q-11 0 -15 4q-5 5 -6 20q6 37 65 93t149 56q91 0 137 -57q31 -37 31 -85q0 -79 -105 -165l-32 -25l38 -17q64 -28 100 -63q35 -36 36 -98v-8q0 -105 -80 -171
t-208 -68h-3q-108 0 -108 38q0 17 13 30q16 11 36 11q22 0 74 -21q53 -21 102 -21q50 0 85 50t35 107q0 58 -25 101q-53 92 -183 92z" />
    <glyph glyph-name="uni2084" unicode="&#x2084;" horiz-adv-x="547" 
d="M382 -467v-210h-55v210h-303v59l331 491h27v-501h115v-49h-115zM327 -11l-275 -407h275v407z" />
    <glyph glyph-name="uni2085" unicode="&#x2085;" horiz-adv-x="607" 
d="M445 3q-7 -7 -13 -7h-245l-52 -131l32 -5q121 -16 201 -84t80 -184v-22q-9 -113 -90 -182q-80 -68 -198 -68q-117 0 -117 43q0 12 13 25q17 10 34 10q16 0 66 -16q42 -16 73 -18h12q77 0 115 50q40 47 40 138q0 154 -126 212q-58 26 -189 36l115 261h241q13 0 42 10z" />
    <glyph glyph-name="uni2086" unicode="&#x2086;" horiz-adv-x="580" 
d="M440 -577q-53 -95 -164 -95q-110 0 -166 83q-57 83 -57 203t45 226q43 105 122 166t207 83q25 4 43 -4q-1 -1 -5 -3q-166 -65 -223 -122q-56 -56 -88 -152l-19 -59l55 29q47 25 96 25q80 0 135 -63q56 -62 56 -156q0 -96 -37 -161zM415 -465q0 230 -160 230q-43 0 -69 -7
q-24 -9 -42 -42q-21 -35 -22 -50q-2 -20 -2 -86q0 -68 35 -146q35 -77 127 -77q65 0 100 47q33 48 33 131z" />
    <glyph glyph-name="uni2087" unicode="&#x2087;" horiz-adv-x="547" 
d="M262 -670h-63l214 672h-34h-210q-58 0 -95 -35q-8 -8 -27 -32l54 156h3l13 -26h370v-7z" />
    <glyph glyph-name="uni2088" unicode="&#x2088;" horiz-adv-x="580" 
d="M443 -609q-55 -66 -178 -66q-81 0 -142 45q-61 43 -61 118q0 74 28 108q30 38 98 90l25 19l-24 20q-62 52 -91 92q-28 37 -28 107t60 113q59 43 138 43q78 0 133 -36t55 -113q0 -100 -134 -174l-34 -19l31 -23q79 -59 121 -105q40 -46 40 -110q0 -66 -37 -109zM407 -63
q0 55 -37 93q-37 40 -100 40q-64 0 -105 -31q-42 -31 -42 -92q0 -106 136 -197l14 -9l14 9q120 82 120 187zM119 -495q0 -77 45 -123q44 -48 110 -48q65 0 107 36q42 38 42 100q0 64 -36 100q-33 36 -162 125l-15 -12q-91 -73 -91 -178z" />
    <glyph glyph-name="uni2089" unicode="&#x2089;" horiz-adv-x="585" 
d="M327 -626q-48 -32 -85 -42q-40 -7 -107 -7q-73 0 -73 42q0 13 6 22q8 9 18 9t58 -24q48 -23 80 -23q66 0 109 105q17 34 45 141l15 53l-50 -23q-44 -21 -89 -23h-6q-91 1 -134 62t-43 165v11q1 110 53 174q51 64 148 64t148 -78q51 -80 51 -208t-35 -250
q-34 -119 -109 -170zM257 56q-133 0 -133 -210q0 -100 42 -154q41 -56 123 -56q30 0 63 18q32 18 48 54q16 35 16 110q0 74 -15 123q-34 115 -144 115z" />
    <glyph glyph-name="uni208D" unicode="&#x208d;" horiz-adv-x="461" 
d="M361 -752q-131 69 -210 187q-88 128 -88 287q0 271 291 440q-119 -86 -170 -176q-51 -88 -51 -256q0 -165 53 -286q53 -118 175 -196z" />
    <glyph glyph-name="uni208E" unicode="&#x208e;" horiz-adv-x="472" 
d="M62 -755q118 77 171 195q52 116 52 283q0 166 -51 256q-50 89 -167 175q290 -170 290 -438q0 -158 -84 -280q-85 -124 -211 -191z" />
    <glyph glyph-name="uni20A8" unicode="&#x20a8;" horiz-adv-x="1711" 
d="M798 47q-360 587 -417 647h-110v-647h-105v1279h393q283 0 357 -144q27 -52 27 -132q0 -271 -379 -340l-38 -7l441 -655q-35 -1 -169 -1zM292 719q35 -5 99 -5q212 0 322 82q111 81 111 242q0 128 -90 199q-89 71 -252 71h-211v-585zM1400 939h206v-11h-234
q-80 0 -132 -55q-53 -56 -53 -134q0 -145 247 -215q213 -57 213 -204q0 -133 -93 -214q-92 -81 -243 -81h-219v21h257q153 0 204 116q16 36 16 82q0 131 -248 209q-216 66 -216 239q0 104 82 176q83 71 213 71z" />
    <glyph glyph-name="Euro" unicode="&#x20ac;" horiz-adv-x="1324" 
d="M1195 62q-124 -37 -254 -37q-269 0 -449 141q-182 139 -217 378l-3 33h-23h-109l15 71h108v204h-123l15 72h117l3 21q36 239 218 383q181 144 426 144q150 0 276 -37l-17 -55q-93 44 -268 44q-178 0 -313 -141t-171 -329l-5 -30h30h640l-17 -72h-638h-25v-204h627
l-17 -71h-570h-25v-30q34 -191 169 -332q136 -142 313 -142q176 0 270 45z" />
    <glyph glyph-name="uni25CC" unicode="&#x25cc;" horiz-adv-x="1410" 
d="M228 635q8 -43 19 -76l-62 -35q-20 55 -29 111h72zM1173 561q13 39 20 74h71q-12 -64 -29 -110zM1029 350q34 29 56 56l61 -36q-36 -45 -81 -80zM335 405q29 -34 56 -58l-34 -60q-46 38 -82 83zM393 1097q-32 -28 -56 -54l-61 36q37 46 81 80zM158 814q9 59 28 110
l61 -35q-13 -35 -19 -75h-70zM622 1206q-43 -8 -74 -19l-36 60q56 20 110 29v-70zM801 241q44 9 75 20l35 -61q-46 -17 -110 -29v70zM546 259q42 -15 76 -20v-69q-56 9 -111 29zM1193 814q-7 36 -20 73l60 36q22 -56 31 -109h-71zM1083 1041q-21 24 -55 54l35 60
q48 -40 81 -79zM874 1185q-32 11 -73 20v70q55 -9 108 -30z" />
    <glyph glyph-name="uni262C" unicode="&#x262c;" horiz-adv-x="2342" 
d="M1099 -574q0 46 66 102v199l-27 -2q-74 -4 -166 -61l-19 -11l9 -21q18 -38 18 -63q0 -49 -60 -80q-29 -15 -66 -15q-38 0 -65 24q-27 22 -27 65q0 155 288 258l53 20l-49 26q-62 32 -145 54l-312 -249q-17 121 -110 259q-117 158 -221 302q-206 296 -206 560
q0 263 158 439q133 147 333 217q-25 -27 -66 -72q-43 -47 -86 -124q-48 -85 -56 -102q-41 -96 -41 -219q0 -127 76 -313q143 -358 745 -656l36 -18v162q-93 71 -120 85q-35 19 -142 56q2 4 18.5 36t27.5 55l12 24l-25 10q-199 78 -322 241q-124 161 -124 356q0 193 122 356
q121 161 319 246l23 10l-10 23q-4 8 -12.5 26.5t-12.5 27.5q58 36 199 138q39 31 80 83q17 21 39 48t25 30q53 -67 142 -159q97 -77 201 -140q-3 -7 -11.5 -24t-12.5 -26l-11 -24l25 -10q205 -82 327 -243q125 -162 125 -360t-126 -360q-125 -163 -334 -243l-25 -9l11 -25
q19 -41 45 -87q-87 -30 -115 -43q-20 -9 -146 -97v-163l36 18q233 116 406 251q254 198 335 396q79 197 79 322q0 123 -41 219q-13 29 -56 103q-44 76 -86 123q-40 45 -66 72q200 -71 332 -218q158 -176 158 -437q0 -263 -204 -562q-26 -36 -102.5 -140.5t-117.5 -160.5
q-94 -141 -110 -259l-313 249q-83 -23 -144 -54l-49 -26l53 -20q288 -103 288 -258q0 -48 -22 -67q-23 -21 -77 -21t-86 31q-31 31 -31 61q0 33 16 66l9 20l-19 11q-89 55 -165 61l-27 2v-198q65 -53 65 -101q0 -50 -46 -87q-47 -38 -112 -38t-110 39q-45 38 -45 84z
M1401 916v-7q0 -118 91 -400l10 -29l26 15q141 78 245 209q104 133 104 276t-93 272q-93 126 -248 194l-26 11l-8 -27q-97 -311 -101 -514zM1019 511q91 225 91 413v16q-5 194 -103 486l-9 26l-25 -11q-149 -68 -237 -193q-90 -128 -90 -280q0 -153 94 -278t246 -193l24 -10
z" />
    <glyph glyph-name="uni2740" unicode="&#x2740;" horiz-adv-x="2977" 
d="M1656 861l25 -3q-3 1 -11 3.5t-12 4.5l50 101q-23 -32 -46 -72l-14 -25q-7 3 -17 9l19 -30zM1377 400q-18 82 -56 102q-17 0 -36 -13q-5 -4 -11 -7.5t-9 -6t-5 -3.5q8 35 8 65q0 31 -35 63q-5 2 -23 15q6 3 10 7l10 6q2 0 8 4q2 2 4.5 3.5t3.5 2.5l6 4l5 5q6 6 12 15
q6 11 12 71q15 -3 25 -3q46 0 68 54q2 5 4.5 14.5t2.5 10.5q41 -35 68 -35q28 0 97 31q17 -22 43 -51q31 -34 31 -59q0 -30 -31 -55l-12 39q-2 6 -3.5 11t-2.5 8.5t-1 4.5t-1.5 5.5l-2.5 7.5q-1 2 -2.5 6t-2.5 6l-3 6q-1 1 -1.5 2t-0.5 2q-5 8 -8 10q-2 3 -8 7q-7 7 -22 7
h-24q-94 0 -149 -35q-54 -35 -54 -95q0 -59 41 -108q41 -47 94 -47q51 0 83 24q81 10 122 84q19 36 34 49l-17 -44q-28 -65 -28 -92q0 -25 3 -37l-46 -4q-48 -7 -68 -31q-23 9 -49 9q-27 0 -83 -35zM983 -115q-40 -62 -59 -81q-16 -18 -46 -36q14 17 50 54q29 29 55 63z
M1213 221q-13 2 -38 9q-52 -64 -88 -146q-37 -84 -63 -133q5 12 19 53q15 43 46 98q30 54 76 145q-6 13 -8 15q24 -27 56 -41zM1860 119q46 -49 129 -119q78 -67 149 -138q-172 113 -237 202q-11 16 -41 55zM1814 174q-50 52 -78 60q23 12 42 32v-5q0 -37 36 -87zM1410 1096
q-8 43 -8 82q0 45 16 138q5 34 13.5 89.5t11.5 77.5v-12l-23 -304v-1q0 -48 6 -107l15 -4q-5 1 -33 1q-50 0 -85 -20q30 21 87 60zM2216 1286q0 -34 5 -76q-347 -20 -513 -243l51 103q26 90 26 173q0 313 -365 684q-166 -97 -249 -236q98 167 248 237q84 -67 191 -216
q108 -148 132 -216l12 -34l28 23q64 53 214 105q152 52 214 84q26 -52 26 -126l-20 -261v-1zM536 -462q-3 26 -3 54q0 95 110 396l14 38l-19 -2q-30 -80 -66 -182q-42 -116 -42 -245q0 -6 2 -58zM536 -462q43 -9 74 -12q-12 -1 -36 -1.5t-36 -0.5zM610 -474q50 -5 93 -5
q175 0 328 72q-97 -38 -174 -50q-84 -13 -247 -17zM1513 285v70l-46 -71q-45 -70 -174 -70q-45 0 -80 7q42 -19 111 -19t113 44q46 43 57 43q12 0 19 -4zM1513 285q11 -7 27 -23q13 -15 31 -27q-18 2 -34 6l-24 4v6v34zM1513 245l-9 2l3 -33q2 -20 3 -31q3 30 3 62z
M1571 235q32 -20 79 -20q49 0 86 19q-10 2 -14 2h-1l-81 -7q-32 1 -69 6zM1510 183q47 -380 304 -521q-53 -21 -74 -107q-21 -84 -38 -104l-211 -267q-31 14 -67 58q-13 17 -45.5 58t-44.5 56q-24 51 -50 158q-26 110 -51 157l-12 25l-24 -15q-82 -54 -166 -88q93 43 156 96
q60 50 145 118q159 133 178 376zM1814 -338q123 -68 335 -88l317 -22l-10 34q-12 40 -58 323q-13 85 -79 202l-7 -1l22 -34q50 -80 78 -258q29 -183 49 -254h-84q-82 0 -277 26q-201 24 -281 74zM1827 375q3 19 3 43q0 25 -12 46zM1827 374zM1827 374q-46 -64 -49 -108
q17 18 31 48q13 28 18 60zM1305 1024q7 6 18 12q-11 -4 -18 -12zM1305 1024q-37 -30 -57 -87l-2 -8q2 55 59 95zM1246 929q-2 -6 -10 -31l10 -2v31v2zM1101 466q-62 -11 -124 -37q70 8 124 37zM1093 542q63 -57 63 -76q0 -16 -11 -46l2 22l3 31l-31 -4l-18 -3q12 7 13 8
l25 15zM1145 420q-21 -56 -21 -69q0 -49 33 -89q-14 36 -14 103q0 15 2 55zM1017 704q-123 32 -247 120q-127 88 -251 110q-36 7 -71 15q28 3 58 3q80 0 195 -61q100 -66 298 -176l18 -10v-1zM1017 704q-4 -15 -4 -34q0 -57 78 -126l2 -2l-39 44q-36 45 -36 64q0 17 2 23
l12 27l-6 1l9 28q9 29 75 57l27 12q-2 -1 -7 -1q-93 -18 -113 -92l5 -3q-1 1 -2 1t-1.5 0.5t-1.5 0.5zM1818 464q-11 20 -32 33q-12 8 -35 25l20 -10q46 -24 88 -39q-4 1 -12 1l-30 3zM1859 473q57 -22 114 -28q-54 20 -114 28zM1751 522q-3 3 -7 9l-3 -3zM1744 531
q-2 2 -2 4q12 18 34 35q20 17 30 25q-24 -26 -41 -43zM1806 595q52 45 60 87q-18 -39 -60 -87zM1865 754h18q132 0 272 95q41 28 229 167q51 12 82 18q-58 -28 -130 -83l-205 -151q-97 -58 -193 -58q-9 0 -35 2l-27 3v-28q0 -16 -10 -37q2 12 1 19q0 41 -28 78q6 -5 26 -25z
M1839 779q-31 41 -98 64q46 -18 98 -64zM1741 843q-17 5 -29 8q-18 3 -29 7q30 -3 58 -15zM1595 932q-18 52 -63 85q-47 34 -89 38q76 -20 152 -123zM1595 932q10 -14 36 -53q-26 15 -29 29q-1 4 -3.5 12.5t-3.5 11.5zM1137 798q63 31 73 67l3 12q-23 32 -37 48
q20 -19 40 -22l20 -5q-17 -55 -30 -71q-12 -17 -69 -29zM1176 925q-4 5 -9 10t-10.5 11.5t-8.5 9.5q11 -16 28 -31zM602 1187q-43 4 -93 4q-97 0 -176 -19q75 15 247 15h22zM308 1167q-41 -11 -80 -30q38 20 80 30zM638 24l-21 -2q-29 -3 -54 -3q-94 0 -235 53
q-140 53 -193 69q43 121 147 235q103 114 227 141l57 12l-48 33q-279 192 -402 480l15 18q53 -231 313 -432q262 -201 489 -201q16 0 44 2q-230 -96 -275 -232q-4 -11 -64 -173zM228 1137q-49 -24 -98 -73l1 -4q42 49 97 77zM2325 1212q5 1 18 1q55 0 153 -24
q114 -28 167 -33h-1q-46 0 -161 27q-112 27 -176 29zM2321 1212h-30q-24 0 -70 -2l3 -23l30 10q32 12 67 15zM1973 445q28 -2 41 -2q112 0 225 54q53 26 177 103q126 77 208 162q-15 -17 -50 -50q-16 -14 -136 -126l-37 -34l50 -9q107 -19 219 -144q32 -35 172 -197
q-73 -46 -188 -60q-82 -8 -301 -28l-34 -3q-145 258 -346 334zM2624 762q133 139 133 289q-6 -152 -133 -289zM2663 1156q9 -1 27 -1q13 0 49 2l-1 3q-36 -4 -75 -4zM2757 1066q-1 35 -18 91q2 0 6.5 0.5t6.5 1.5q5 -67 5 -93zM602 1187h57l-14 34q-39 101 -39 199t12 220
q8 1 23 1q96 0 216 -53q57 -28 194 -106l26 -15l10 29q14 48 38 104q-61 -149 -61 -347q0 -127 14 -172q18 -58 70 -125q-99 100 -245 158q-152 60 -301 73zM1125 1600q21 51 46 91q-29 -50 -46 -91z" />
    <glyph glyph-name="uni2741" unicode="&#x2741;" horiz-adv-x="2979" 
d="M1594 624q-40 42 -98 42q-56 0 -97 -42q-41 -41 -41 -98t42 -96q40 -40 96 -40q57 0 98 40q42 39 42 96q0 58 -42 98zM718 1516q72 170 250 170q93 0 205 -58q101 117 141 144q81 63 164 63q84 0 164 -52q75 -56 114 -125l11 -18l20 8q144 54 218 54q73 0 134 -35
q138 -79 147 -288l1 -20q142 -28 213 -59q69 -28 111 -90q41 -64 41 -156q0 -94 -56 -206q116 -97 161 -175q-24 37 -73 64q-101 53 -232 53q-200 0 -625 -263l17 18q100 112 242 195q143 81 269 105q45 8 231 22q61 82 61 173t-40 152q-64 108 -181 108q-115 0 -231 -65
q-174 -101 -411 -538l5 21q37 160 131 324q97 162 350 324v31q0 87 -46 161q-81 132 -207 132q-153 0 -270 -200q-87 -148 -87 -522q0 -68 5 -160l-10 32q-46 135 -46 306q0 167 44 287q13 37 92 208l-5 10q-79 172 -268 172q-127 0 -183 -104t-56 -234q0 -201 258 -618
q-120 106 -207 253q-81 142 -102 246q-20 112 -28 252q-83 58 -172 58q-87 0 -149 -38q-110 -65 -110 -181q0 -115 65 -230q101 -174 537 -409l-20 4q-191 43 -368 158q-81 58 -149 133q-39 49 -132 188q-30 2 -34 2q-84 0 -157 -46q-130 -79 -130 -210q0 -153 198 -269
q149 -86 550 -86q36 0 122 2l-23 -7q-146 -49 -345 -49q-197 0 -453 140q-104 -48 -144 -126q-41 -77 -41 -148q0 -130 107 -184q106 -56 233 -56q199 0 627 264l-17 -19q-104 -113 -275 -210q-119 -69 -210 -85q-97 -17 -256 -26q-61 -85 -61 -174t37 -150
q64 -108 184 -108q118 0 230 63q169 94 407 535q-34 -166 -115 -310q-81 -141 -183 -225q-55 -47 -183 -129q-2 -34 -2 -37q0 -83 45 -156q80 -131 208 -131q152 0 271 200q87 147 87 549q0 38 -2 126l8 -24q45 -144 45 -287q0 -18 -2 -52v-28q0 -118 -41 -226
q-6 -17 -95 -209l5 -11q79 -171 268 -171q119 0 179 87q60 89 60 250q0 200 -258 618q124 -106 210 -255q85 -150 101 -239q17 -92 26 -257q86 -56 173 -56q89 0 151 35q108 63 108 180t-66 233q-98 175 -538 410l23 -5q154 -35 289 -113q137 -79 226 -183q42 -46 132 -183
q34 -2 40 -2q80 0 151 46q132 83 132 207q0 155 -198 272q-152 86 -526 86q-86 0 -159 -4l33 9q151 43 345 43q191 0 454 -134q103 48 145 126q40 78 40 136q0 57 -17 100q26 -57 26 -110q0 -143 -173 -263l-16 -11q59 -171 59 -242q0 -72 -34 -130q-82 -138 -282 -149
l-18 -1l-60 -195q-78 -169 -261 -169q-86 0 -197 54q-104 -118 -140 -146q-79 -57 -165 -57t-164 51q-71 53 -113 125l-11 19l-20 -8q-144 -54 -219 -54q-74 0 -135 35q-138 79 -147 291l-1 20q-153 28 -197 46q-93 41 -137 122q-29 50 -29 144q0 96 55 196
q-106 90 -156 156q-50 65 -50 158q0 149 176 265l16 11q-61 171 -61 239q0 127 97 204q98 76 231 76h21l4 21q18 114 44 178zM1325 818q7 -3 21 -11l6 5zM1647 248q-2 0 -13 7q-36 -17 -111 -34l-39 -7l-4 6q-52 6 -108 27l-41 16v8q-47 32 -86 77l-27 31l6 11
q-18 35 -32 107l-9 42l8 4q4 55 23 112l13 40l12 1q32 44 77 83l30 28l9 -5q45 16 114 33l37 8l5 -6q20 -4 114 -29l41 -11l1 -11q31 -27 80 -79l27 -30l-6 -11q18 -35 32 -109l9 -42l-8 -5q-5 -54 -24 -109l-15 -42l-10 -1q-33 -41 -75 -82zM1227 695l2 7l-24 -8q7 1 22 1z
M1166 528q10 6 17 11l-1 6zM1205 354q7 10 13 25l-6 7zM1331 241v22l-7 3zM1500 188q-3 3 -16 26l-11 -3zM1647 248l-5 -4l23 -5zM1775 360q-8 0 -13 -1l-1 -3zM1827 527q-7 -5 -18 -12l1 -7zM1784 697l-10 -20l5 -5zM1666 797l3 -1l-4 12q1 -3 1 -11zM1491 867
q7 -11 15 -24l10 2zM2775 640q-7 18 -18 33q11 -17 18 -33z" />
    <glyph glyph-name="uniF02B" unicode="&#xf02b;" horiz-adv-x="142" 
d="M-295 -324q-159 -59 -363 -64h-13q-134 0 -323 65v153q190 -66 354 -66q162 0 345 66v-154zM-644 1767l105 4h37q194 0 253 -77q27 -34 27 -103q0 -75 -25 -118q-12 -31 -26 -36q-1 2 -10 35q-3 10 -7.5 26t-5.5 20q-5 19 -32 52q-27 34 -58 40q-43 10 -193 10
q-147 0 -239 3q-61 9 -95 79q-37 65 -37 140v7q4 53 24 91q20 29 32 29q13 0 16 -3q6 -6 7 -40q5 -59 6 -62q18 -61 67 -88q41 -9 88 -9h66zM-12 1108v180h165v-180h-165z" />
    <glyph glyph-name="uniF02C" unicode="&#xf02c;" horiz-adv-x="127" 
d="M-295 -324q-159 -59 -363 -64h-13q-134 0 -323 65v153q190 -66 354 -66q162 0 345 66v-154zM-12 1108v180h155v-180h-155z" />
    <glyph glyph-name="uniF02D" unicode="&#xf02d;" horiz-adv-x="553" 
d="M305 1107v-599h-178v599h-118v184h542v-184h-246z" />
    <glyph glyph-name="uniF02E" unicode="&#xf02e;" horiz-adv-x="124" 
d="M-1360 1561q-35 34 -35 76q0 85 72 116q19 10 56 10t72 -34q36 -35 36 -83q0 -50 -37 -84q-36 -36 -83 -36q-48 0 -81 35zM-12 1108v180h145v-180h-145z" />
    <glyph glyph-name="uniF02F" unicode="&#xf02f;" horiz-adv-x="108" 
d="M-642 912q56 0 97 -31q42 -32 42 -79q0 -50 -42 -81q-43 -32 -96 -32t-97 33q-43 33 -43 80t43 78q43 32 96 32zM-12 1108v180h135v-180h-135z" />
    <glyph glyph-name="uniF030" unicode="&#xf030;" horiz-adv-x="118" 
d="M-652 355q-58 0 -102 35q-44 36 -44 90q0 52 44 88q45 34 102 34q58 0 104 -36q45 -34 45 -86t-45 -88q-46 -37 -104 -37zM-12 1108v180h135v-180h-135z" />
    <glyph glyph-name="uniF031" unicode="&#xf031;" horiz-adv-x="124" 
d="M-698 893h99v-494h-99v494zM-12 1108v180h145v-180h-145z" />
    <glyph glyph-name="uniF032" unicode="&#xf032;" horiz-adv-x="124" 
d="M-678 1153h99v-414h-99v414zM-12 1108v180h145v-180h-145z" />
    <glyph glyph-name="Oacute" unicode="&#xf033;" horiz-adv-x="124" 
d="M-755 985h354v-82h-354v82zM-12 1108v180h145v-180h-145z" />
    <glyph glyph-name="Ocircumflex" unicode="&#xf034;" horiz-adv-x="124" 
d="M-1573 1495q-69 79 -69 159q0 78 62 158q62 78 212 78q152 0 213 -78q62 -79 62 -158q0 -80 -69 -159q-35 -41 -58 -43q51 89 51 151q0 63 -59 110q-58 48 -141 48q-81 0 -140 -48q-57 -48 -57 -127q0 -37 17 -71q11 -22 23 -43q1 -3 11 -20q-23 2 -58 43zM-12 1108v180
h145v-180h-145z" />
    <glyph glyph-name="perthousand" unicode="&#xf035;" horiz-adv-x="1980" 
d="M771 785q35 173 128 271q95 97 283 97q31 0 139 -5q69 130 411 558q207 258 485 258t405 -244q52 -98 52 -212q0 -81 -17 -95q-14 14 -33 83q-11 41 -21 76.5t-14.5 51.5t-4.5 17q-109 256 -349 256q-126 0 -256 -74q-127 -72 -220 -190q-130 -179 -405 -548
q-74 0 -238 -3q-135 -1 -215 -135q-40 -67 -58 -152l-5 -30h690v-64h-87q-48 -188 -169 -264l-36 -22l37 -21q105 -60 105 -186q0 -81 -55 -140q-56 -62 -166 -62q-336 0 -384 468q-7 66 -7 119q0 48 3 81l2 27h-27h-49v64h72zM622 -23v-4q0 -2 -2 -2q-32 0 -80 68
q-47 68 -62 206q-4 25 -4 80q0 51 9 143l4 45l-40 -21q-97 -48 -177 -53h-8q-69 0 -139 58q-71 59 -71 144q0 81 61 141q62 59 180 59h4h18q126 -5 185 -65q59 -62 59 -184q0 -71 -8 -146t-8 -165q0 -203 79 -304zM1350 701h-514v-62q0 -71 5 -176l1 -23l23 -1q29 -1 81 -1
h14q166 0 227 23q62 24 112 81q48 57 74 125l13 34h-36zM1318 206v10q-6 61 -65 114q-59 54 -116 54h-2q-4 -1 -10 -1h-1q-52 -6 -235 -6h-31l7 -30q59 -276 279 -276h8q79 2 122 36q44 35 44 99zM439 744q-52 35 -139 35q-91 0 -138 -34q-50 -34 -50 -101v-3q2 -65 56 -103
q57 -37 116 -37q60 0 118 27q88 37 88 109q0 71 -51 107z" />
    <glyph glyph-name="OE" unicode="&#xf036;" horiz-adv-x="2389" 
d="M2017 803q-97 58 -341 59h-2q-122 0 -228 -118q-105 -116 -152 -256l-11 -33h35h963v-186h-75q-94 -274 -257 -390l-29 -20l29 -20q180 -127 180 -301t-107 -266q-106 -93 -275 -93q-655 0 -656 1065v25h-25h-21v186h50l3 22q32 227 199 397q167 173 393 173
q225 0 326 -49q105 -49 235 -130l119 -98v-204q-35 27 -135 101q-72 49 -218 136zM937 -821q-134 0 -220 212q-69 171 -69 335q0 89 16 214l5 43l-40 -17q-95 -39 -199 -39q-157 0 -264 88q-108 89 -108 263q0 356 401 356h28q210 -7 302 -102q91 -95 91 -290
q0 -71 -11 -275q-22 -246 -22 -260q0 -183 57 -325q74 -134 81 -159q0 -25 -10 -35q-10 -9 -38 -9zM1550 -66q105 4 174 24q176 52 277 276l16 35h-739v-25q2 -179 11 -286l2 -23h23q194 -2 199 -2zM1738 -636q201 4 201 143q0 93 -83 173q-80 83 -154 83q-10 0 -50 -6
q-39 -6 -296 -6h-35l11 -33q122 -354 397 -354h9zM298 149q49 -43 130 -42h2q83 2 170 43q88 42 88 127q0 84 -58 128q-59 43 -164 43q-104 0 -163 -42q-58 -42 -58 -124v-6q3 -83 53 -127z" />
    <glyph glyph-name="quotesinglbase" unicode="&#xf037;" horiz-adv-x="1967" 
d="M2557 934l1 18q0 24 -12 76q-13 51 -16 84q-25 280 -247 474q-221 194 -464 194h-15q-312 -4 -763 -538q-117 -141 -285 -362q-171 -227 -181 -238q-169 -205 -342 -205q-32 0 -101 33q-68 36 -116 69v199q107 -74 138 -92q34 -20 77 -22h1q86 0 227 173q167 225 491 630
q217 248 392 372q232 162 462 162q364 0 627 -241q297 -272 297 -722q0 -71 -11 -106q-10 -34 -68 -34q-47 0 -70 23q-22 22 -22 53z" />
    <glyph glyph-name="Aring" unicode="&#xf038;" horiz-adv-x="129" 
d="M-1160 912q56 0 97 -31q42 -32 42 -79q0 -50 -42 -81q-43 -32 -96 -32t-97 33q-43 33 -43 80t43 78q43 32 96 32zM-12 1108v180h145v-180h-145z" />
    <glyph glyph-name="AE" unicode="&#xf039;" horiz-adv-x="131" 
d="M-1185 355q-58 0 -102 35q-44 36 -44 90q0 52 44 88q45 34 102 34q58 0 103 -36q46 -34 46 -86t-46 -88q-44 -37 -103 -37zM-12 1108v180h145v-180h-145z" />
    <glyph glyph-name="exclamdown" unicode="&#xf03a;" horiz-adv-x="127" 
d="M-1226 893h99v-494h-99v494zM-12 1108v180h145v-180h-145z" />
    <glyph glyph-name="less" unicode="&#xf03b;" horiz-adv-x="135" 
d="M-1228 1153h99v-414h-99v414zM-12 1108v180h165v-180h-165z" />
    <glyph glyph-name="greater" unicode="&#xf03c;" horiz-adv-x="124" 
d="M-1195 985h354v-82h-354v82zM-12 1108v180h145v-180h-145z" />
    <glyph glyph-name="uniF03D" unicode="&#xf03d;" horiz-adv-x="124" 
d="M-1360 1561q-35 34 -35 76q0 85 72 116q19 10 56 10t72 -34q36 -35 36 -83q0 -50 -37 -84q-36 -36 -83 -36q-48 0 -81 35zM-12 1108v180h145v-180h-145z" />
    <glyph glyph-name="uniF03E" unicode="&#xf03e;" horiz-adv-x="860" 
d="M127 412q11 -149 79 -226q66 -78 189 -78q122 0 199 89q75 87 77 215q0 128 -170 343l-80 101q-148 184 -148 354q0 168 91 283q93 114 269 114q70 0 121 -27q52 -27 52 -70t-14 -85q-70 130 -204 130q-110 0 -171 -88q-62 -89 -62 -190q0 -97 46 -170q8 -13 101 -132
l66 -82q173 -217 173 -401q0 -185 -105 -314q-110 -137 -298 -137q-126 0 -192 66q-68 65 -68 188q0 53 49 117zM212 502h-87v-87z" />
    <glyph glyph-name="uniF03F" unicode="&#xf03f;" horiz-adv-x="385" 
d="M162 1546h77l-6 -1476l-75 2z" />
    <glyph glyph-name="uniF040" unicode="&#xf040;" horiz-adv-x="129" 
d="M-12 1108v180h155v-180h-155zM-195 -414q100 -55 100 -142q0 -85 -33 -85q-52 0 -163 77q-111 74 -237 247q-70 97 -119 227h57q62 -100 266 -267q26 -18 129 -57zM-50 -717v-51q-164 -69 -289 -69q-123 0 -279 68v52q162 -65 290 -65t278 65z" />
    <glyph glyph-name="uniF041" unicode="&#xf041;" horiz-adv-x="129" 
d="M-12 1108v180h155v-180h-155zM-195 -414q100 -55 100 -142q0 -85 -33 -85q-52 0 -163 77q-111 74 -237 247q-70 97 -119 227h57q62 -100 266 -267q26 -18 129 -57zM-60 -851v-34q-166 -58 -289 -58q-125 0 -279 57v35q160 -54 290 -54t278 54zM-60 -693v-34
q-163 -57 -289 -57q-127 0 -279 56v35q160 -54 290 -54t278 54z" />
    <glyph glyph-name="uniF042" unicode="&#xf042;" horiz-adv-x="124" 
d="M-12 1108v180h145v-180h-145zM-137 -516q68 0 68 91v171h217l-6 -94h-116v-15q0 -189 -44 -239q-25 -27 -68 -27q-41 0 -125 35q-82 36 -98 52q-20 18 -23 22q-6 4 -12 10q-5 5 -7 6q-13 8 -32 30q-20 23 -20 43v2q-1 1 -1 7q0 21 26 97q31 87 37 129q6 37 6 80
q0 40 -8 86h106q8 -50 8 -88q0 -42 -3 -78q-3 -35 -33 -110q-31 -77 -32 -96q3 -27 16 -37q21 -16 22 -17q5 -3 15 -10q61 -50 107 -50z" />
    <glyph glyph-name="uniF043" unicode="&#xf043;" horiz-adv-x="129" 
d="M-12 1108v180h155v-180h-155zM-137 -516q68 0 68 91v171h217l-6 -94h-116v-15q0 -189 -44 -239q-25 -27 -68 -27q-41 0 -125 35q-82 36 -98 52q-20 18 -23 22q-6 4 -12 10q-5 5 -7 6q-13 8 -32 30q-20 23 -20 43v2q-1 1 -1 7q0 21 26 97q31 87 37 129q6 37 6 80
q0 40 -8 86h106q8 -50 8 -88q0 -42 -3 -78q-3 -35 -33 -110q-31 -77 -32 -96q3 -27 16 -37q21 -16 22 -17q5 -3 15 -10q61 -50 107 -50zM191 -663v-51q-163 -69 -289 -69q-123 0 -279 68v52q162 -65 290 -65t278 65z" />
    <glyph glyph-name="uniF044" unicode="&#xf044;" horiz-adv-x="131" 
d="M-12 1108v180h155v-180h-155zM-137 -516q68 0 68 91v171h217l-6 -94h-116v-15q0 -189 -44 -239q-25 -27 -68 -27q-41 0 -125 35q-82 36 -98 52q-20 18 -23 22q-6 4 -12 10q-5 5 -7 6q-13 8 -32 30q-20 23 -20 43v2q-1 1 -1 7q0 21 26 97q31 87 37 129q6 37 6 80
q0 40 -8 86h106q8 -50 8 -88q0 -42 -3 -78q-3 -35 -33 -110q-31 -77 -32 -96q3 -27 16 -37q21 -16 22 -17q5 -3 15 -10q61 -50 107 -50zM165 -841v-41q-164 -69 -289 -69q-123 0 -279 68v42q162 -65 290 -65t278 65zM165 -651v-41q-164 -69 -289 -69q-123 0 -279 68v42
q162 -65 290 -65t278 65z" />
    <glyph glyph-name="uniF045" unicode="&#xf045;" horiz-adv-x="127" 
d="M-565 -150q83 -3 118 -38q36 -33 36 -105v-13l-10 -207q-1 -10 -1 -29q0 -101 43 -165q-21 16 -40 62q-28 66 -28 136q0 67 3 120l2 42l-38 -18q-61 -29 -116 -29q-58 0 -96 31q-41 31 -41 91t45 92q44 30 111 30h12zM-458 -214q-32 41 -99 41q-154 0 -154 -95
q0 -56 40 -81q37 -25 85 -25q40 0 89 20q57 22 57 81q0 35 -18 59zM-12 1108v180h155v-180h-155z" />
    <glyph glyph-name="uniF046" unicode="&#xf046;" horiz-adv-x="129" 
d="M-510 -189q-41 21 -102 25q-9 1 -27 1q-48 0 -93 -12q-57 -16 -71 -16q-13 0 -13 7t13 14q41 21 168 26h17q105 0 150 -44q47 -42 47 -129t-43 -139q-42 -52 -131 -84l-44 -16l37 -28q7 -5 19 -14t21 -15t16 -11q21 -14 33 -26q-21 6 -68 30q-51 24 -83 32q-25 8 -92 20
q-61 10 -61 36q0 15 6 21q8 8 24 8q17 0 46 -12q51 -21 75 -21q72 0 139 43q88 57 88 154v10q-5 105 -71 140zM-12 1108v180h155v-180h-155z" />
    <glyph glyph-name="uniF047" unicode="&#xf047;" horiz-adv-x="139" 
d="M-738 -145q53 8 121 8q70 0 137 -32q67 -31 67 -75q0 -42 -61 -100q16 -28 34 -49q17 -20 17 -47t-50 -65l-15 -9q43 30 43 72t-31 64q-32 24 -73 24h-1l-150 -15q-78 0 -78 20v4q1 4 26 13q28 7 53 7l142 -15h1q53 0 88 23q33 23 33 69q0 93 -222 93h-2l-144 -22
q-16 0 -16 5q0 4 15 12t66 15zM-542 -606q70 -26 83 -37q-3 -1 -11 -1q-33 0 -198 62q-12 3 -106 28q-45 15 -45 34q0 14 3 18q4 3 30 3t66 -31q41 -32 82 -32q43 0 78 13q-9 -13 -9 -32zM-12 1108v180h155v-180h-155z" />
    <glyph glyph-name="uniF048" unicode="&#xf048;" horiz-adv-x="134" 
d="M-670 -172q-82 -28 -82 -102t48 -107q46 -33 107 -33t111 37q50 38 50 91t-28 80t-60 36v18q111 -28 111 -110q0 -51 -9 -66t-20 -26q-3 -3 -8.5 -8t-6.5 -6l-6 -6l-5 -5l-5 -5l-4 -6q-3 -4 -3 -7q-3 -9 -3 -22t26 -39t26 -79t-47 -83q-49 -29 -116 -29t-114 29t-47 73
q0 45 7 56t26 35q20 21 20 38q0 14 -6 24q-7 12 -26 30q-18 20 -30 36q-10 18 -10 62q0 45 32 73q30 29 72 41v-20zM-594 -632q139 0 139 97q0 65 -37 88q-38 22 -101 22t-101 -21q-39 -22 -39 -89q0 -97 139 -97zM-12 1108v180h155v-180h-155z" />
    <glyph glyph-name="uniF049" unicode="&#xf049;" horiz-adv-x="128" 
d="M-556 -291q11 0 41 -2h1q9 0 18 9q8 8 8 17v8l-22 33q-4 6 -7 11.5t-5.5 9.5t-3.5 6q2 46 26 69q25 23 41 23h21q-69 -19 -69 -77q0 -26 6 -38q36 -68 84 -90q2 -2 7 -4t6 -3q-3 -16 -5 -16h-5l-8 1l-58 20q-40 13 -81 13q-39 0 -77 -21q-54 -26 -54 -80t31 -85
q32 -32 86 -32h2l102 15q57 0 57 -18q0 -17 -59 -17l-99 8h-1q-53 0 -85 -30q-30 -30 -30 -72q0 -78 55 -97q26 -8 95 -8h114q17 0 24 -1v-4v-4q0 -5 -24 -5h-185q-46 0 -73 34q-26 35 -26 84q0 14 22 59l27 60l-30 53q-21 40 -21 76t38 66q40 29 116 29zM-12 1108v180h155
v-180h-155z" />
    <glyph glyph-name="uniF04A" unicode="&#xf04a;" horiz-adv-x="137" 
d="M-1228 -150q83 -3 118 -38q36 -33 36 -105v-13l-10 -207q-1 -10 -1 -29q0 -101 43 -165q-21 16 -40 62q-28 66 -28 136q0 67 3 120l2 42l-38 -18q-61 -29 -116 -29q-56 0 -97 31q-40 32 -40 91q0 60 44 92q45 30 112 30h12zM-1103 -270q0 97 -136 97q-48 0 -91 -22
q-45 -23 -45 -77q0 -52 40 -77q37 -25 85 -25q40 0 89 20q58 22 58 84zM-12 1108v180h155v-180h-155z" />
    <glyph glyph-name="ograve" unicode="&#xf04b;" horiz-adv-x="137" 
d="M-1163 -189q-53 27 -120 27q-54 0 -112 -16q-46 -13 -61 -13q-13 0 -13 7t13 14q41 21 168 26h17q105 0 150 -44q47 -42 47 -129t-42 -139q-44 -52 -132 -84l-44 -16l37 -28q50 -36 57 -40q24 -18 32 -26q-21 6 -68 30q-49 23 -82 32q-29 9 -93 20q-61 10 -61 36
q0 15 6 21q8 8 24 8q18 0 46 -12q51 -21 75 -21q72 0 139 43q88 57 88 154v2q-1 3 -1 8q-5 104 -70 140zM-12 1108v180h155v-180h-155z" />
    <glyph glyph-name="oacute" unicode="&#xf04c;" horiz-adv-x="133" 
d="M-1400 -145q53 8 121 8q70 0 137 -32q67 -31 67 -75q0 -42 -61 -100q16 -28 34 -49q17 -20 17 -47t-50 -65l-15 -9q43 30 43 72t-31 64q-32 24 -73 24h-1l-150 -15q-78 0 -78 20v4q1 4 26 13q28 7 53 7l142 -15h1q53 0 88 23q33 23 33 69q0 93 -222 93h-2l-144 -22
q-16 0 -16 5q0 4 15 12t66 15zM-1204 -606q70 -26 83 -37q-3 -1 -11 -1q-33 0 -198 62q-12 3 -106 28q-45 15 -45 34q0 14 3 18q4 3 30 3t66 -31q41 -32 82 -32q43 0 78 13q-9 -13 -9 -32zM-12 1108v180h155v-180h-155z" />
    <glyph glyph-name="ocircumflex" unicode="&#xf04d;" horiz-adv-x="136" 
d="M-1329 -172q-82 -28 -82 -102t47 -107q48 -33 108 -33q61 0 110 37q51 37 51 91q0 53 -28 80q-29 27 -60 36v18q111 -28 111 -110q0 -51 -9 -66q-2 -3 -19 -26q-8 -6 -16 -14l-6 -6l-5 -5l-5 -5l-4 -6q-3 -4 -3 -7q-3 -9 -3 -22t26 -39t26 -79t-48 -83q-47 -29 -114 -29
q-68 0 -115 29t-47 73q0 45 7 56q11 18 27 35q19 24 19 38t-6 24q-4 8 -25 30q-21 20 -30 36q-11 15 -11 62q0 44 31 73q34 29 73 41v-20zM-1253 -632q139 0 139 97q0 66 -38 88q-35 22 -100 22q-63 0 -102 -21q-38 -23 -38 -89q0 -97 139 -97zM-12 1108v180h155v-180h-155z
" />
    <glyph glyph-name="otilde" unicode="&#xf04e;" horiz-adv-x="139" 
d="M-1346 -278q-15 -80 -66 -184l15 -13q65 -52 168 -52q33 0 77 21q43 19 60 55v304h19v-486h-18v170l-42 -39q-47 -43 -119 -43q-71 0 -114 29q-43 31 -59 51q9 35 36 101q27 69 27 104q0 36 -22 67q-20 30 -61 32v14h42q21 0 39 -39q18 -38 18 -60v-32zM-12 1108v180h155
v-180h-155z" />
    <glyph glyph-name="uniF04F" unicode="&#xf04f;" horiz-adv-x="134" 
d="M-1244 -291q11 0 41 -2h1q9 0 18 9q8 8 8 17v8l-22 33q-5 8 -10 18l-6 9q2 46 26 69q25 23 41 23h21q-69 -19 -69 -77q0 -26 6 -38q36 -68 84 -90q2 -2 6.5 -4t6.5 -3q-3 -16 -5 -16h-5l-8 1l-58 20q-40 13 -81 13q-39 0 -77 -21q-54 -26 -54 -80t31 -85q32 -32 86 -32h2
l102 15q57 0 57 -18q0 -17 -59 -17l-99 8h-1q-53 0 -85 -30q-30 -30 -30 -72q0 -78 55 -97q26 -8 95 -8h114q17 0 24 -1v-4v-4q0 -5 -24 -5h-185q-46 0 -73 34q-26 35 -26 84q0 14 22 59l27 60l-30 53q-21 40 -21 76t38 66q40 29 116 29zM-12 1108v180h155v-180h-155z" />
    <glyph glyph-name="cent.001" unicode="&#xf050;" horiz-adv-x="128" 
d="M-1130 -567l-8 1h-2q-192 0 -274 175q-29 63 -29 151q0 19 1 41l1 26h-26h-45q-2 6 -2 23q0 16 30 46q30 28 48 28t24 -2v-76h342v-19h-352l-2 -23q-2 -40 -2 -42q0 -92 45 -173q47 -83 124 -117q36 -15 96 -19q50 2 58 2q25 0 28 -3q5 -7 5 -16q-6 -3 -20 -3h-40z
M-12 1108v180h155v-180h-155z" />
    <glyph glyph-name="FL0213h" unicode="&#xf051;" horiz-adv-x="137" 
d="M-919 -119q81 -3 118 -37q36 -36 36 -106v-13l-10 -207q-1 -10 -1 -29q0 -101 43 -165q-21 16 -40 62q-28 66 -28 136q0 69 3 120l2 42l-38 -18q-61 -29 -116 -29q-58 0 -96 31q-41 31 -41 92t44 91q43 30 108 30h4h12zM-812 -183q-32 41 -118 41h-4q-45 0 -87 -21
q-44 -23 -44 -75q0 -54 40 -79q41 -26 83 -26q44 0 81 15q67 27 67 87q0 34 -18 58zM-538 -278q-15 -80 -66 -184l15 -13q65 -52 168 -52q33 0 77 21q43 19 60 55v304h19v-486h-18v170l-42 -39q-47 -43 -119 -43q-71 0 -114 29q-43 31 -59 51q9 35 36 101q27 69 27 104
q0 36 -22 67q-20 30 -61 32v14h42q21 0 39 -39q18 -38 18 -60v-32zM-12 1108v180h155v-180h-155z" />
    <glyph glyph-name="_281" horiz-adv-x="6" 
d="M-111 -652v-51q-163 -69 -289 -69q-123 0 -279 68v52q162 -65 290 -65t278 65z" />
    <glyph glyph-name="_282" horiz-adv-x="6" 
d="M-111 -809v-41q-163 -69 -289 -69q-123 0 -279 68v42q162 -65 290 -65t278 65zM-111 -619v-41q-163 -69 -289 -69q-123 0 -279 68v42q162 -65 290 -65t278 65z" />
    <glyph glyph-name=".notdef.001" horiz-adv-x="1024" 
d="M934 1976v-1951h-772v1951h772zM847 1889h-598v-1777h598v1777z" />
    <glyph glyph-name="uni0A30_uni0A4D" 
d="M-329 -458q-50 -125 -174 -125q-54 0 -110 35q-49 46 -52 77t-3 40q0 120 128 167h22q75 0 118 -22q8 45 9 223l140 -3v-24q0 -141 -19 -245q45 -31 135 -111q132 -123 132 -172q0 -31 -34 -31q-30 0 -122 73q-22 19 -74 60q-64 52 -96 58z" />
    <glyph glyph-name="uni0A35_uni0A4D" horiz-adv-x="20" 
d="M-234 -677q-31 -91 -125 -91q-95 0 -135 33t-72 102q-51 111 -75 129q-50 20 -86 36q-81 36 -81 108q0 74 48 126q50 53 120 53h318v115h104v-203h-382q-45 0 -74 -19q-28 -20 -28 -58q0 -39 27 -60q26 -22 71 -22h371v-87h-264l7 -30q33 -151 160 -151q45 0 96 19z" />
    <glyph glyph-name="uni0A39_uni0A4D" 
d="M-838 -306q42 35 132 35q88 0 88 -22q0 -13 -33 -21q-4 -2 -25 -8q-29 -8 -40 -16q-33 -20 -33 -60t23 -66q20 -25 84 -74q63 -48 142 -72q122 26 146 173v361h141v-378q0 -133 -69 -202q-70 -70 -204 -70t-277 122q-98 86 -118 191q2 74 43 107z" />
    <glyph glyph-name="uni0A2F_uni0A4D" horiz-adv-x="1189" 
d="M980 1107v-1082h-185v535h-234v-25q-2 -218 -15 -290q-15 -72 -63 -105t-130 -33q-83 0 -160 43l-132 86q13 78 37 199l41 -42q78 -56 127 -87q41 -25 63 -25q21 0 31 9q9 6 14 28q5 27 5 84v341h416v364h-790v184h1183v-184h-208z" />
    <glyph glyph-name="uni0A4D_uni0A1A" horiz-adv-x="14" 
d="M-827 -394q-40 0 -55 12q-14 11 -14 40t50 91q16 21 62 43q45 21 71 21t35 -9q8 -10 8 -34v-58h339v218h111v-456q0 -71 -47 -135q-67 -93 -198 -93q-200 0 -257 131q-23 54 -41 207l-3 22h-22h-39zM-657 -419q0 -33 18 -136q38 -95 169 -95q66 0 102 36q37 37 37 102
v118h-326v-25z" />
    <glyph glyph-name="uni0A4D_uni0A1F" horiz-adv-x="15" 
d="M-212 -606q2 -4 2 -20q0 -15 -35 -53q-85 -93 -225 -93q-98 0 -238 70q-140 69 -188 146q22 100 103 187q80 86 175 119q94 32 270 50l22 2v106h109v-188h-6q-148 0 -302 -35q-119 -26 -240 -217l-13 -20l20 -13q187 -133 294 -133q108 0 178 69q26 25 49 25q21 0 25 -2z
" />
    <glyph glyph-name="uni0A4D_uni0A24" horiz-adv-x="16" 
d="M-869 -332q0 56 102 56h5q31 0 97 -12q72 -13 110 -13q11 0 15 1q124 12 189 212h114q-24 -84 -47 -133q-25 -47 -85 -98l-26 -22l29 -18q119 -75 124 -206v-12q1 -92 -82 -147t-226 -55q-142 0 -252 62q-102 59 -102 100v4v4q2 3 28 3t126 -45q102 -45 174 -45
q71 0 125 18q97 33 97 110q0 76 -60 124q-60 50 -169 60q-14 2 -39 2q-28 0 -78 -12q-51 -12 -89 -12q-80 0 -80 74z" />
    <glyph glyph-name="uni0A4D_uni0A28" horiz-adv-x="17" 
d="M-474 -69v-165l22 -3q106 -12 183 -88q75 -79 75 -172q-4 -107 -60 -187q-58 -75 -146 -83v106q46 22 70 57q25 34 25 107q0 72 -79 124t-152 52q-74 0 -150 -49q-77 -50 -77 -124q0 -75 23 -110q24 -34 72 -57v-107q-90 6 -150 86q-59 80 -59 181t76 177q77 76 183 87
l22 2v166h122z" />
    <glyph glyph-name="_265" 
d="M-137 -516q68 0 68 91v171h217l-6 -94h-116v-15q0 -189 -44 -239q-25 -27 -68 -27q-41 0 -125 35q-82 36 -98 52q-20 18 -23 22q-6 4 -12 10q-5 5 -7 6q-13 8 -32 30q-20 23 -20 43v2q-1 1 -1 7q0 21 26 97q31 87 37 129q6 37 6 80q0 40 -8 86h106q8 -50 8 -88
q0 -42 -3 -78q-3 -35 -33 -110q-31 -77 -32 -96q3 -27 16 -37q21 -16 22 -17q5 -3 15 -10q61 -50 107 -50z" />
    <glyph glyph-name="_266" 
d="M-195 -414q100 -55 100 -142q0 -85 -33 -85q-52 0 -163 77q-111 74 -237 247q-70 97 -119 227h57q62 -100 266 -267q26 -18 129 -57z" />
    <glyph glyph-name="uni0A30_uni0A4D_uni0A41" horiz-adv-x="6" 
d="M-329 -425q-50 -125 -174 -125q-54 0 -110 35q-49 46 -52 77q-3 32 -3 40q0 120 128 167h22q75 0 118 -22q8 45 9 223l140 -3v-24q0 -141 -19 -245q45 -32 135 -111q132 -123 132 -172q0 -31 -34 -31q-30 0 -122 73q-18 15 -74 61q-65 51 -96 57zM-198 -761v-51
q-164 -69 -289 -69q-123 0 -279 68v52q162 -65 290 -65t278 65z" />
    <glyph glyph-name="uni0A39_uni0A4D_uni0A41" horiz-adv-x="11" 
d="M-231 -767v-51q-163 -69 -289 -69q-123 0 -279 68v52q162 -65 290 -65t278 65zM-838 -262q42 35 132 35q88 0 88 -22q0 -13 -33 -21q-4 -2 -25 -8q-29 -8 -40 -16q-33 -20 -33 -60t23 -66q20 -25 84 -74q63 -48 142 -72q122 26 146 173v361h141v-378q0 -133 -69 -202
q-70 -70 -204 -70t-277 122q-98 86 -118 191q2 74 43 107z" />
    <glyph glyph-name="_269" horiz-adv-x="15" 
d="M-137 -516q68 0 68 91v171h217l-6 -94h-116v-15q0 -189 -44 -239q-25 -27 -68 -27q-41 0 -125 35q-82 36 -98 52q-20 18 -23 22q-6 4 -12 10q-5 5 -7 6q-13 8 -32 30q-20 23 -20 43v2q-1 1 -1 7q0 21 26 97q31 87 37 129q6 37 6 80q0 40 -8 86h106q8 -50 8 -88
q0 -42 -3 -78q-3 -35 -33 -110q-31 -77 -32 -96q3 -27 16 -37q21 -16 22 -17q5 -3 15 -10q61 -50 107 -50zM191 -663v-51q-163 -69 -289 -69q-123 0 -279 68v52q162 -65 290 -65t278 65z" />
    <glyph glyph-name="_270" horiz-adv-x="6" 
d="M-195 -414q100 -55 100 -142q0 -85 -33 -85q-52 0 -163 77q-111 74 -237 247q-70 97 -119 227h57q62 -100 266 -267q26 -18 129 -57zM-50 -717v-51q-164 -69 -289 -69q-123 0 -279 68v52q162 -65 290 -65t278 65z" />
    <glyph glyph-name="uni0A30_uni0A4D_uni0A42" 
d="M-136 -929v-41q-163 -69 -289 -69q-123 0 -279 68v42q162 -65 290 -65t278 65zM-136 -739v-41q-163 -69 -289 -69q-123 0 -279 68v42q162 -65 290 -65t278 65zM-329 -458q-50 -125 -174 -125q-54 0 -110 35q-49 46 -52 77t-3 40q0 120 128 167h22q75 0 118 -22
q8 45 9 223l140 -3v-24q0 -141 -19 -245q45 -31 135 -111q132 -123 132 -172q0 -31 -34 -31q-30 0 -122 73q-22 19 -74 60q-64 52 -96 58z" />
    <glyph glyph-name="uni0A39_uni0A4D_uni0A42" 
d="M-200 -966v-41q-164 -69 -289 -69q-123 0 -279 68v42q162 -65 290 -65t278 65zM-200 -776v-41q-164 -69 -289 -69q-123 0 -279 68v42q162 -65 290 -65t278 65zM-838 -306q42 35 132 35q88 0 88 -22q0 -13 -33 -21q-4 -2 -25 -8q-29 -8 -40 -16q-33 -20 -33 -60t23 -66
q20 -25 84 -74q63 -48 142 -72q122 26 146 173v361h141v-378q0 -133 -69 -202q-70 -70 -204 -70t-277 122q-98 86 -118 191q2 74 43 107z" />
    <glyph glyph-name="_273" horiz-adv-x="671" 
d="M180 1502q-25 5 -58 44q-68 80 -68 160q0 78 63 157q62 77 212 77q151 0 213 -78q62 -80 62 -158q0 -80 -69 -159q-34 -40 -57 -43q2 5 6 12.5t10.5 21t11.5 22.5q21 39 21 78q0 81 -58 127q-59 47 -141 47t-140 -47q-57 -47 -57 -127q0 -39 17 -71q26 -49 32 -63z" />
    <glyph glyph-name="_274" horiz-adv-x="1295" 
d="M1128 1085q-16 -162 -52 -287q-36 -122 -112 -244q113 -253 199 -529h-189q-27 70 -111 308l-16 43l-28 -36q-163 -208 -403 -211h-6q-173 0 -284 114q-109 112 -109 281v15q4 177 123 286q120 108 284 108q205 0 398 -186l26 -26l14 34q72 175 85 325l2 27h-27h-902v184
h1284v-184h-174zM641 666q-103 80 -209 80q-107 0 -164 -64q-59 -62 -59 -155q0 -92 59 -153q59 -62 150 -62q168 0 320 228l11 17zM640 -414q-50 -125 -174 -125q-54 0 -110 35q-49 46 -52 77t-3 40q0 120 128 167h22q75 0 118 -22q8 45 9 223l140 -3v-24q0 -141 -19 -245
q45 -31 135 -111q132 -123 132 -172q0 -31 -34 -31q-30 0 -122 73q-22 19 -74 60q-64 52 -96 58z" />
    <glyph glyph-name="uni0A28_uni0A42_uni0A70" horiz-adv-x="1252" 
d="M582 716q-114 0 -215 -84q-100 -85 -100 -199t39 -168t118 -76v-194q-157 28 -250 139q-91 112 -91 294v6q2 185 141 317q95 94 268 139v217h-480v184h1238v-184h-575v-217q170 -43 270 -139q136 -132 138 -317v-8q0 -184 -91 -293q-92 -110 -248 -138v194q79 22 118 76
q38 55 38 168t-102 199q-102 84 -216 84zM236 -127q189 -65 355 -65q168 0 344 64v-142q-167 -66 -342 -66t-357 66v143zM935 -597q-189 -62 -350 -62h-5q-168 2 -344 62v141q190 -60 354 -60q162 0 345 60v-141zM374 1495q-69 79 -69 159q0 78 62 158q61 78 213 78
q150 0 212 -78q62 -79 62 -158q0 -80 -69 -159q-35 -41 -58 -43q51 88 51 151t-59 110q-59 48 -141 48t-140 -48q-57 -48 -57 -127q0 -37 17 -71q11 -22 23 -43q1 -3 11 -20q-23 2 -58 43z" />
    <glyph glyph-name="uni0A3E_uni0A02" horiz-adv-x="517" 
d="M116 1514q-41 41 -41 100t41 102q42 42 102 42t102 -42q41 -43 41 -102t-41 -100q-42 -42 -102 -42q-62 0 -102 42zM295 1107v-599h-178v599h-118v184h532v-184h-236z" />
    <glyph glyph-name="uni0A09_uni0A71" horiz-adv-x="1905" 
d="M1276 1741q0 107 21 131l5 5q15 -13 24 -97q12 -88 68 -142q58 -56 170 -56q224 0 258 232q6 56 18 63q26 -11 26 -106q0 -20 -1 -31q0 -62 -12 -114q-27 -91 -106 -136q-80 -44 -177 -44q-100 0 -180 46q-114 64 -114 249zM1116 -324q-159 -59 -363 -64h-13
q-134 0 -323 65v153q191 -66 353 -66q163 0 346 66v-154zM746 199q200 5 200 158q0 81 -73 161q-74 79 -144 79q-9 0 -48 -6t-314 -6h-35l11 -33q122 -353 393 -353h10zM553 783l1 -17q116 2 191 24q179 51 283 282l16 35h-754v-25q2 -178 10 -290l2 -23l232 -2v-1h12v2z
M1049 1319q-18 168 -103 249q-87 79 -263 79q-358 0 -391 -329l-3 -27h28h735zM755 14q-650 0 -650 1068v25h-94v184h94l2 23q15 246 169 382q155 135 404 135q250 0 395 -135q147 -138 163 -382l2 -23h23h639v-184h-670q-94 -283 -258 -396l-28 -19l26 -21
q163 -130 163 -316q0 -142 -101 -241q-100 -100 -279 -100zM546 816h-12v-49h12v1v48z" />
    <glyph glyph-name="uni0A0A_uni0A71" horiz-adv-x="1902" 
d="M1292 1741q0 107 21 131l5 5q15 -13 24 -97q12 -88 68 -142q58 -56 170 -56q224 0 258 232q6 56 18 63q26 -11 26 -106q0 -20 -1 -31q0 -62 -12 -114q-27 -91 -106 -136q-80 -44 -177 -44q-100 0 -180 46q-114 64 -114 249zM1094 -588q-190 -63 -354 -63t-345 63v141
q191 -60 353 -60q163 0 346 60v-141zM395 -118q189 -65 355 -65q168 0 344 64v-142q-166 -66 -342 -66t-357 66v143zM746 199q200 5 200 158q0 81 -73 161q-74 79 -144 79q-9 0 -48 -6t-314 -6h-35l11 -33q122 -353 393 -353h10zM553 783l1 -17q116 2 191 24q179 51 283 282
l16 35h-754v-25q2 -178 10 -290l2 -23l232 -2v-1h12v2zM1049 1319q-18 168 -103 249q-87 79 -263 79q-358 0 -391 -329l-3 -27h28h735zM755 14q-650 0 -650 1068v25h-94v184h94l2 23q15 246 169 382q155 135 404 135q250 0 395 -135q147 -138 163 -382l2 -23h23h649v-184
h-680q-94 -283 -258 -396l-28 -19l26 -21q163 -130 163 -316q0 -142 -101 -241q-100 -100 -279 -100zM546 816h-12v-49h12v1v48z" />
    <glyph glyph-name="uni0A13_uni0A71" horiz-adv-x="1906" 
d="M710 1883l63 2q213 0 311 -34q100 -34 100 -89q0 -69 -244 -70q-35 1 -94.5 2.5t-80.5 1.5q-210 -2 -311 -91q-102 -91 -142 -284l-7 -30h1611v-184h-672q-92 -269 -258 -384l-30 -21l30 -20q173 -123 173 -336q0 -139 -97 -232q-98 -93 -291 -93h-4q-388 1 -544 361
q-107 252 -107 700v25h-95v184h96l3 22q28 252 186 411q156 159 404 159zM596 779q93 4 160 23q184 52 282 270l15 35h-753v-25q2 -169 11 -278l2 -23h23q195 -2 226 -3zM758 209q195 6 197 159q0 79 -74 159q-76 82 -143 82q-9 0 -23 -2q-58 -9 -336 -11h-35l11 -33
q119 -354 394 -354h9zM1306 1741q0 107 21 131l5 5q15 -13 24 -97q12 -88 68 -142q58 -56 170 -56q224 0 258 232q6 56 18 63q26 -11 26 -106q0 -20 -1 -31q0 -62 -12 -114q-27 -91 -106 -136q-80 -44 -177 -44q-100 0 -180 46q-114 64 -114 249z" />
    <glyph glyph-name="uni0A15_uni0A3C" horiz-adv-x="1296" 
d="M1128 1085q-16 -162 -52 -287q-36 -122 -112 -244q113 -253 199 -529h-189q-27 70 -111 308l-16 43l-28 -36q-163 -208 -403 -211h-6q-173 0 -284 114q-109 112 -109 281v15q4 177 123 286q120 108 284 108q205 0 398 -186l26 -26l14 34q72 175 85 325l2 27h-27h-902v184
h1284v-184h-174zM641 666q-103 80 -209 80q-107 0 -164 -64q-59 -62 -59 -155q0 -92 59 -153q59 -62 150 -62q168 0 320 228l11 17zM-38 43q34 34 74 34h1q81 0 110 -69q8 -24 8 -58q0 -35 -32 -70q-31 -33 -76 -33h-1q-43 0 -68 16q-23 15 -38 46q-13 28 -12 62
q-1 37 34 72z" />
    <glyph glyph-name="uni0A18_uni0A3C" horiz-adv-x="1423" 
d="M484 101q34 34 74 34h1q81 0 110 -69q8 -24 8 -58q0 -35 -32 -70q-31 -33 -76 -33h-1q-43 0 -68 16q-23 15 -38 46q-13 28 -12 62q-1 37 34 72zM374 983q-5 -101 -131 -464q70 -65 107 -91q37 -25 68 -25q88 0 130 69q44 66 44 191q0 51 -18 147q-19 91 -19 154
q0 60 45 154q45 95 103 95q49 0 86 -93q37 -90 37 -154q0 -61 -30 -175q-31 -112 -31 -198q0 -83 35 -133q34 -48 100 -48t95 13q31 14 44 64v802h389v-184h-204v-1082h-185v236l-34 -13q-55 -21 -106 -21q-105 0 -211 97l-16 15l-17 -14q-123 -105 -237 -105t-239 96
q-125 94 -138 189q45 86 97 243q52 152 52 248t-87 111h-92v184h156q46 0 96 -43q111 -93 111 -245v-20z" />
    <glyph glyph-name="uni0A19_uni0A3C" horiz-adv-x="1223" 
d="M277 1107v-181h433q165 0 257 -92q91 -92 91 -227q0 -185 -151 -311l-17 -14l12 -19q63 -95 90 -145q25 -44 48 -104h-195q-29 56 -76 137l-16 27l-23 -22q-135 -129 -336 -129q-137 0 -234 76q-98 77 -98 197t77 208q77 85 204 91q14 2 28 0h1q114 0 198 -39
q85 -38 183 -130l19 -18l17 20q76 88 76 158q0 72 -67 112q-67 41 -134 41h-572v364h-80v184h1211v-184h-946zM388 409q-135 0 -135 -96q0 -65 73 -90q38 -13 73 -13q39 0 50 1q79 5 157 68l25 20l-24 19q-109 91 -219 91zM-26 46q34 34 74 34h1q81 0 110 -69q8 -24 8 -58
q0 -35 -32 -69q-31 -34 -76 -34h-1q-43 0 -68 16q-23 15 -38 46q-13 28 -12 62q-1 37 34 72z" />
    <glyph glyph-name="uni0A1A_uni0A3C" horiz-adv-x="1249" 
d="M1055 1107v-714q0 -267 -233 -345q-72 -23 -158 -23q-320 0 -432 331q-22 60 -32 209l-2 23h-23h-53q-52 0 -75 24q-23 25 -23 83q0 99 77 167q77 67 187 67q51 0 72 -21q21 -20 21 -67v-71h487v337h-855v184h1241v-184h-199zM868 588h-485l1 -26q8 -162 51 -238
q65 -114 220 -114q103 0 157 44q56 42 56 127v207zM-59 128q34 34 74 34h1q81 0 110 -69q8 -24 8 -58q0 -35 -32 -69q-31 -34 -76 -34h-1q-43 0 -68 16q-23 15 -38 46q-13 28 -12 62q-1 37 34 72z" />
    <glyph glyph-name="uni0A1B_uni0A3C" horiz-adv-x="1213" 
d="M326 726q-25 0 -40 -15q-16 -15 -16 -39q0 -23 33 -152l267 12q305 0 415 -62t110 -197q0 -134 -101 -199q-116 -69 -425 -69t-428 69q-87 52 -87 183t82 183l18 12l-9 20q-55 113 -55 212q0 98 72 162q70 63 154 63h515v198h-822v184h1204v-184h-200v-381h-687zM639 336
v-149l26 1q145 5 174 17q57 24 57 60q0 49 -83 61q-50 8 -148 9zM469 335q-60 -1 -130 -5q-58 -6 -77 -24q-22 -19 -22 -40q0 -20 12 -34q13 -13 32 -22q29 -9 51 -12q44 -7 133 -10l26 -1v148h-25zM-54 -67q34 34 74 34h1q81 0 110 -69q8 -24 8 -58q0 -35 -32 -70
q-32 -33 -76 -33h-1q-43 0 -68 16q-23 15 -38 46q-13 28 -12 62q-1 37 34 72z" />
    <glyph glyph-name="uni0A1D_uni0A3C" horiz-adv-x="1249" 
d="M859 493v8q0 77 -72 143q-73 65 -142 65q-48 0 -188 -37q-122 -35 -209 -53q-43 6 -86 33q-44 26 -44 55q0 62 169 98l52 11l-41 33q-116 91 -180 258h-107v184h1242v-184h-200q-59 -199 -167 -283l-28 -23l31 -18q158 -98 158 -281t-153 -282q-89 -56 -225 -56h-70
l28 -39q46 -67 46 -91q0 -22 -8 -32q-8 -8 -30 -8q-71 0 -175 105q-105 105 -194 105h-18q-51 0 -72 26q-23 24 -23 84q0 59 37 93q38 35 91 35t115 -57q61 -56 127 -58h38q108 0 165 16q122 33 133 150zM317 1067q88 -119 97 -127q77 -68 177 -68h12q108 4 171 72
q29 32 83 126l21 37h-591zM7 96q34 34 74 34h1q82 0 110 -69q8 -24 8 -58q0 -35 -32 -69q-31 -34 -76 -34h-1q-43 0 -68 16q-23 15 -38 46q-13 28 -12 62q-1 37 34 72z" />
    <glyph glyph-name="uni0A1E_uni0A3C" horiz-adv-x="1223" 
d="M1027 1107v-366h-627q-33 0 -77 -23q-45 -25 -45 -54q-3 -28 14 -60q5 -8 10 -16.5t8 -13.5t5 -7q18 -25 43 -25h660v-181h-461l15 -35q75 -173 277 -173q47 0 173 32l-41 -138q-156 -62 -217 -62q-145 0 -260 118q-96 92 -145 230q-58 37 -117 58q-63 23 -108 96
q-39 71 -39 158q0 172 177 241l31 12l-20 26q-17 22 -51 63q-13 19 -44 120h-176v184h1212v-184h-197zM849 1107h-467l3 -28q5 -31 42 -90q83 -73 167 -73h255v191zM22 186q34 34 74 34h1q81 0 110 -69q8 -24 8 -58q0 -35 -32 -69q-31 -34 -76 -34h-1q-43 0 -68 16
q-23 15 -38 46q-13 28 -12 62q-1 37 34 72z" />
    <glyph glyph-name="uni0A1F_uni0A3C" horiz-adv-x="1228" 
d="M1029 1107v-368q-66 2 -92 2q-224 0 -375 -71q-153 -68 -297 -247l-15 -19l17 -16q82 -73 207 -133q129 -62 233 -62q106 0 163 45q57 41 98 76q40 31 54 32q15 0 19 -2q10 -4 10 -37q0 -111 -123 -199q-125 -89 -270 -89t-356 121q-210 120 -251 254q18 89 125 205
q210 225 390 273q90 22 258 45l22 3v187h-826v184h1208v-184h-199zM-74 71q34 34 74 34h1q82 0 110 -69q8 -24 8 -58q0 -35 -32 -70q-31 -33 -76 -33h-1q-43 0 -68 16q-23 15 -38 46q-13 28 -12 62q-1 37 34 72z" />
    <glyph glyph-name="uni0A20_uni0A3C" horiz-adv-x="1243" 
d="M675 1107l1 -184q207 -45 323 -170q117 -126 118 -294v-5q0 -212 -164 -329q-146 -104 -369 -104q-222 0 -378 111q-154 110 -154 321v6q1 168 118 294q116 125 323 170v184h-472v184h1225v-184h-571zM584 744q-148 0 -248 -92q-101 -92 -101 -209q0 -116 91 -179
q91 -62 258 -62t258 62q91 63 91 187v1q0 109 -101 200q-100 92 -248 92zM-52 33q34 34 74 34h1q81 0 110 -69q8 -24 8 -58q0 -35 -32 -70q-31 -33 -76 -33h-1q-43 0 -68 16q-23 15 -38 46q-13 28 -12 62q-1 37 34 72z" />
    <glyph glyph-name="uni0A22_uni0A3C" horiz-adv-x="1253" 
d="M1049 1107v-454h-672l2 -27q12 -128 102 -255l19 -27l20 25q106 132 311 132q165 0 236 -122q35 -62 35 -144t-52 -146q-75 -98 -258 -98q-276 0 -493 310q-92 131 -104 329l-2 23h-76q-49 0 -70 21q-21 20 -21 69q0 102 86 173q86 69 183 69q46 0 63 -14q18 -13 18 -45
v-90h489v271h-857v184h1252v-184h-211zM921 245q-11 83 -104 83h-10q-92 -5 -166 -86l-21 -24l28 -15q74 -39 156 -39h2q5 1 12 1q103 4 103 73v7zM16 151q34 34 74 34h1q81 0 110 -69q8 -24 8 -58q0 -35 -32 -70q-31 -33 -76 -33h-1q-43 0 -68 16q-23 15 -38 46
q-13 28 -12 62q-1 37 34 72z" />
    <glyph glyph-name="uni0A23_uni0A3C" horiz-adv-x="1264" 
d="M260 375q79 -93 200 -145q117 -50 238 -58q10 -1 31 -1q106 0 223 45q134 51 164 51q31 0 31 -3v-16q0 -13 -27 -46q-29 -37 -92 -82q-249 -117 -316 -117q-6 0 -9 1q-211 0 -393 95q-182 94 -250 273q177 410 428 410q87 0 185 -50l36 -19v138q-108 33 -258 94
q-64 36 -163 162h-270v184l1250 1v-185h-799l96 -47q93 -46 259 -109q108 -31 283 -64v-152q-126 21 -196 41l-32 9v-360h-24q-59 107 -126 144q-104 55 -196 55h-1q-32 -1 -43 -3q-113 -18 -229 -246zM-47 65q34 34 74 34h1q82 0 110 -69q8 -24 8 -58q0 -35 -32 -70
q-31 -33 -76 -33h-1q-43 0 -68 16q-23 15 -38 46q-13 28 -12 62q-1 37 34 72z" />
    <glyph glyph-name="uni0A24_uni0A3C" horiz-adv-x="1252" 
d="M1046 1087q-43 -235 -173 -366l-21 -22l25 -17q177 -117 177 -288q0 -172 -104 -271q-104 -100 -271 -100q-67 0 -235 46q-33 9 -146 59q-106 49 -166 94q-55 44 -56 68q0 7 10 16q11 8 34 8q24 0 167 -48q148 -48 195 -55q58 -8 169 -8q115 0 169 51q55 51 55 124
q0 120 -111 177q-91 49 -240 49q-47 0 -120 -14q-86 -13 -144 -13q-64 0 -105 32t-41 97q0 64 34 93q37 29 100 29q69 0 172 -26q111 -25 163 -25q195 0 272 299l8 31h-32h-815v184l1234 1v-185h-200zM-26 31q34 34 74 34h1q81 0 110 -69q8 -24 8 -58q0 -35 -32 -70
q-31 -33 -76 -33h-1q-43 0 -68 16q-23 15 -38 46q-13 28 -12 62q-1 37 34 72z" />
    <glyph glyph-name="uni0A25_uni0A3C" horiz-adv-x="1221" 
d="M1017 1107v-1082h-182v241l-36 -19q-140 -71 -279 -71t-275 100q-101 72 -168 168q102 266 102 499q0 76 -10 143l-3 21h-153v184h1209v-184h-205zM835 1107h-484l4 -29q12 -76 12 -125t-3 -79l-3 -27h28h446v260zM283 490q112 -130 240 -130q127 0 312 101v203h-507z
M-40 130q34 34 74 34h1q81 0 110 -69q8 -24 8 -58q0 -35 -32 -69q-31 -34 -76 -34h-1q-43 0 -68 16q-23 15 -38 46q-13 28 -12 62q-1 37 34 72z" />
    <glyph glyph-name="uni0A26_uni0A3C" horiz-adv-x="1249" 
d="M1049 1107v-531h-664l1 -26q8 -169 80 -259q72 -91 242 -91h5q59 0 128 26q109 41 122 46q48 19 74 19q24 0 33 -9q10 -10 10 -37q0 -58 -110 -139q-111 -81 -267 -81q-242 0 -365 129q-122 130 -131 396l-1 24h-106q-36 0 -52 18q-16 19 -16 66q0 100 87 190
q89 89 183 89q46 0 63 -17q18 -15 18 -54v-108h484v349h-852v184h1235v-184h-201zM-31 120q34 34 74 34h1q82 0 110 -69q8 -24 8 -58q0 -35 -32 -69q-31 -34 -76 -34h-1q-43 0 -68 16q-23 15 -38 46q-13 28 -12 62q-1 37 34 72z" />
    <glyph glyph-name="uni0A27_uni0A3C" horiz-adv-x="1202" 
d="M1008 1107v-1082h-185v282l-38 -25q-100 -64 -277 -64h-3q-125 0 -243 81q-122 84 -188 188q106 267 106 481q0 64 -7 117l-3 22h-155v184h1189v-184h-196zM280 531q113 -128 238 -128q126 0 305 99v605h-471l3 -27q7 -64 7 -129q0 -158 -82 -420zM0 176q34 34 74 34h1
q81 0 110 -69q8 -24 8 -58q0 -35 -32 -69q-31 -34 -76 -34h-1q-43 0 -68 16q-23 15 -38 46q-13 28 -12 62q-1 37 34 72z" />
    <glyph glyph-name="uni0A28_uni0A3C" horiz-adv-x="1243" 
d="M582 716q-114 0 -215 -84q-100 -85 -100 -199t39 -168t118 -76v-194q-157 28 -250 139q-91 112 -91 294v6q2 185 141 317q95 94 268 139v217h-480v184h1238v-184h-575v-217q170 -43 270 -139q136 -132 138 -317v-8q0 -184 -91 -293q-92 -110 -248 -138v194q79 22 118 76
q38 55 38 168t-102 199q-102 84 -216 84zM-59 28q34 34 74 34h1q81 0 110 -69q8 -24 8 -58q0 -35 -32 -69q-31 -34 -76 -34h-1q-43 0 -68 16q-23 15 -38 46q-13 28 -12 62q-1 37 34 72z" />
    <glyph glyph-name="uni0A2A_uni0A3C" horiz-adv-x="1233" 
d="M303 506q140 -104 264 -104q125 0 292 113v776h382v-184h-199v-1082h-183v297l-37 -20q-140 -77 -296 -77t-307 110q-100 73 -124 144v8q0 59 40 155q46 112 71 180q32 80 32 142q0 60 -30 102q-30 41 -88 41h-104v184h174q100 0 166 -99q68 -98 68 -202q0 -10 -2 -24
q-28 -246 -126 -428l-10 -19zM-37 173q34 34 74 34h1q82 0 110 -69q8 -24 8 -58q0 -35 -32 -70q-32 -33 -76 -33h-1q-43 0 -68 16q-23 15 -38 46q-13 28 -12 62q-1 37 34 72z" />
    <glyph glyph-name="uni0A2C_uni0A3C" horiz-adv-x="1197" 
d="M997 1107v-1082h-186v181l-37 -21q-128 -72 -264 -72q-184 0 -333 132q-75 67 -116 166q48 98 113 168q54 54 159 133l25 19l-24 20q-162 133 -205 336l-4 20h-110v184h1179v-184h-197zM811 1107h-508l14 -34q56 -140 224 -262h270v296zM811 627h-296q-89 -49 -228 -201
l-19 -20l22 -17q127 -94 242 -94q68 0 153 23q87 21 126 72v237zM-35 94q34 34 74 34h1q81 0 110 -69q8 -24 8 -58q0 -35 -32 -69q-31 -34 -76 -34h-1q-43 0 -68 16q-23 15 -38 46q-13 28 -12 62q-1 37 34 72z" />
    <glyph glyph-name="uni0A2D_uni0A3C" horiz-adv-x="1218" 
d="M1056 1084q-19 -223 -152 -375l-14 -16l14 -16q113 -137 113 -267q0 -205 -137 -306t-325 -101q-112 0 -231 40q-222 74 -222 160q0 31 14 45q13 13 52 13q37 0 109 -26q162 -61 296 -63h1q131 0 202 92q50 67 50 144q0 76 -37 129l-16 23l-21 -18q-176 -149 -358 -149
t-264 99q-61 73 -61 168q0 151 116 234q88 61 240 61h14q160 -3 306 -110l20 -15l15 20q70 88 90 228l4 29h-29h-838v184h1215v-184h-164zM439 774q-177 0 -177 -113q0 -34 23 -57q34 -32 105 -32q116 0 229 97l24 21l-25 18q-92 66 -179 66zM-44 -14q34 34 74 34h1
q81 0 110 -69q8 -24 8 -58q0 -35 -32 -69q-31 -34 -76 -34h-1q-43 0 -68 16q-23 15 -38 46q-13 28 -12 62q-1 37 34 72z" />
    <glyph glyph-name="uni0A2E_uni0A3C" horiz-adv-x="1259" 
d="M1049 1107v-1082h-184v528h-462l-3 -22q-23 -195 -49 -279q-54 -167 -155 -167q-68 0 -100 33q-31 31 -31 104q0 72 45 169l87 187q41 102 41 238q0 138 -3 180q-9 111 -104 111h-117v184h182q228 0 228 -418q0 -22 -2 -112l-1 -26h26h418v556h384v-184h-200zM526 316
q34 34 74 34h1q81 0 110 -69q8 -24 8 -58q0 -35 -32 -69q-31 -34 -76 -34h-1q-43 0 -68 16q-23 15 -38 46q-13 28 -12 62q-1 37 34 72z" />
    <glyph glyph-name="uni0A2F_uni0A3C" horiz-adv-x="1336" 
d="M1135 1107v-1082h-181v535h-196v-166q0 -119 -71 -198q-71 -76 -195 -76q-123 0 -269 101q-140 97 -192 214q43 131 101 353q19 102 19 156q0 52 -15 142l-4 21h-120v184h1340v-184h-217zM578 500l-6 243h357h25v364h-635l4 -29q12 -75 12 -117q0 -210 -103 -482
q61 -72 149 -127q86 -54 115 -54q28 0 43 12q15 13 22 37q17 54 17 153zM-48 82q34 34 74 34h1q81 0 110 -69q8 -24 8 -58q0 -35 -32 -69q-31 -34 -76 -34h-1q-43 0 -68 16q-23 15 -38 46q-13 28 -12 62q-1 37 34 72z" />
    <glyph glyph-name="uni0A30_uni0A3C" horiz-adv-x="1156" 
d="M954 1107v-741q0 -147 -68 -248q-65 -95 -202 -95q-99 0 -216 69q-118 70 -216 180q-169 190 -169 350q0 100 76 170q77 69 198 69h414v246h-750v184h1134v-184h-201zM681 204q90 0 90 129v345h-401q-101 0 -101 -75q0 -23 15 -52q45 -93 117 -172q163 -175 280 -175z
M-39 145q34 34 74 34h1q82 0 110 -69q8 -24 8 -58q0 -35 -32 -70q-32 -33 -76 -33h-1q-43 0 -68 16q-23 15 -38 46q-13 28 -12 62q-1 37 34 72z" />
    <glyph glyph-name="uni0A35_uni0A3C" horiz-adv-x="1192" 
d="M999 1107v-372h-639q-137 0 -137 -79q0 -30 32 -68t63 -38h657v-185h-463l14 -34q68 -167 250 -167q79 0 203 28l-40 -147q-180 -53 -215 -53h-3q-145 2 -245 102q-102 99 -153 254q-21 24 -57 36q-48 17 -93 38q-106 57 -130 213q-3 16 -3 34q0 103 97 175q97 73 209 73
h472v190h-799v184h1178v-184h-198zM-28 190q34 34 74 34h1q81 0 110 -69q8 -24 8 -58q0 -35 -32 -69q-31 -34 -76 -34h-1q-43 0 -68 16q-23 15 -38 46q-13 28 -12 62q-1 37 34 72z" />
    <glyph glyph-name="uni0A38_uni0A3C" horiz-adv-x="1259" 
d="M1047 1107v-1082h-184v520h-454l-64 -274q-44 -188 -150 -188q-56 0 -99 41q-40 42 -40 102q0 59 86 240q87 182 87 304q0 69 -11 117q-7 40 -49 220h-158v184h1248v-184h-212zM696 96q-36 -37 -88 -37t-89 37q-37 36 -37 88q0 51 37 88q37 36 89 36t88 -36
q37 -37 37 -88q0 -52 -37 -88zM863 1107h-503l8 -31q40 -162 48 -321l1 -24h24h422v376z" />
    <glyph glyph-name="uni0A39_uni0A3C" horiz-adv-x="1174" 
d="M974 1107v-745q2 -149 -84 -242q-85 -95 -233 -95q-200 0 -384 178q-184 177 -184 376q0 105 84 179q83 73 193 73h124v-182h-108q-49 0 -81 -23q-31 -22 -31 -68q0 -96 132 -223q133 -127 247 -127q68 0 107 39q37 40 37 110v750h-773v184h1154v-184h-200zM27 24
q34 34 74 34h1q82 0 110 -69q8 -24 8 -58q0 -35 -32 -69q-31 -34 -76 -34h-1q-43 0 -68 16q-23 15 -38 46q-13 28 -12 62q-1 37 34 72z" />
    <glyph glyph-name="uni0A05_uni0A3C" horiz-adv-x="1561" 
d="M1366 1107v-1082h-186v664l-35 -15q-85 -36 -147 -82q-57 -44 -96 -190q-40 -148 -49 -167q-43 -93 -139 -93q-62 0 -106 29t-44 101q0 70 110 200q110 128 110 221q0 136 -61 268l-13 28l-25 -18q-102 -75 -215 -223q-113 -149 -116 -237q-1 -85 -48 -147
q-49 -58 -114 -58q-68 0 -108 36q-42 36 -42 98q0 61 78 169q77 109 77 199q0 147 -22 222q-23 77 -81 77h-83v184h153q82 0 142 -120q49 -93 67 -225l8 -54l36 42q24 28 76 87.5t79 90.5q97 97 164 97h5q96 -24 162 -194q37 -97 55 -210l7 -38l32 21q89 58 183 96v407h391
v-184h-205zM261 170q34 34 74 34h1q81 0 110 -69q8 -24 8 -58q0 -35 -32 -69q-31 -34 -76 -34h-1q-43 0 -68 16q-23 15 -38 46q-13 28 -12 62q-1 37 34 72z" />
    <glyph glyph-name="uni0A06_uni0A3C" horiz-adv-x="2053" 
d="M248 145q34 34 74 34h1q81 0 110 -69q8 -24 8 -58q0 -35 -32 -70q-31 -33 -76 -33h-1q-43 0 -68 16q-23 15 -38 46q-13 28 -12 62q-1 37 34 72zM1366 1107v-1082h-186v664l-35 -15q-85 -36 -147 -82q-57 -44 -96 -190q-40 -148 -49 -167q-43 -93 -139 -93q-62 0 -106 29
t-44 101q0 70 110 200q110 128 110 221q0 136 -61 268l-13 28l-25 -18q-102 -75 -215 -223q-113 -149 -116 -237q-1 -85 -48 -147q-49 -58 -114 -58q-68 0 -108 36q-42 36 -42 98q0 61 78 169q77 109 77 199q0 147 -22 222q-23 77 -81 77h-83v184h153q82 0 142 -120
q49 -93 67 -225l8 -54l36 42q24 28 76 87.5t79 90.5q97 97 164 97h5q96 -24 162 -194q37 -97 55 -210l7 -38l32 21q89 58 183 96v407h391v-184h-205zM1831 1107v-599h-178v599h-118v184h532v-184h-236z" />
    <glyph glyph-name="uni0A07_uni0A3C" horiz-adv-x="1653" 
d="M538 0h2q87 0 115 -70q10 -26 10 -59q0 -31 -33 -67q-32 -34 -82 -34h-2q-70 0 -101 70q-10 20 -10 56t35 70q33 34 66 34zM694 1444q-3 59 -8 82q-3 24 -21 66q-39 83 -167 83q-129 0 -173 -137q-20 -71 -20 -222v-25h75v-184h-75v-1082h-181v1082h-141v184h141v25
q1 263 74 385q88 153 316 153h23q170 -6 253 -93q82 -86 82 -262q0 -27 -3 -55h-175zM1431 650l-221 4q-170 0 -299 -44q-126 -43 -236 -179l-13 -18l15 -16q80 -81 211 -144q129 -63 223 -63h12q101 5 196 98q81 78 102 78q22 3 31 -11q9 -13 9 -50q0 -78 -97 -173
q-99 -96 -204 -105q-13 -1 -39 -1q-195 0 -395 110q-198 109 -266 273q44 155 275 317l25 17l-22 21q-37 35 -111 122q-60 82 -95 221h-20h-78v184h1233v-184h-205v-457h-31zM1281 1107h-561l13 -34q27 -69 63 -111q99 -110 201 -129h284v274z" />
    <glyph glyph-name="uni0A08_uni0A3C" horiz-adv-x="1798" 
d="M56 68h2q87 0 117 -69q8 -24 8 -58q0 -35 -32 -69q-31 -34 -82 -34h-2q-71 0 -102 70q-10 21 -10 44q0 47 35 82q34 34 66 34zM862 1107h-561l13 -34q27 -69 63 -111q99 -110 201 -129h284v274zM1012 650l-221 4q-170 0 -299 -44q-126 -43 -236 -179l-13 -18l15 -16
q82 -82 212 -144q129 -63 222 -63h11q101 5 197 98q81 78 102 78q22 3 31 -11q9 -13 9 -50q0 -79 -98 -173q-96 -96 -203 -105q-13 -1 -39 -1q-195 0 -395 110q-198 109 -266 273q44 155 275 317l25 17l-22 21q-37 35 -111 122q-60 82 -95 221h-98v184h1382v25
q0 154 -21 221q-42 138 -177 138q-92 0 -131 -40q-41 -40 -53 -128q-4 -22 -8 -63h-176v28q0 234 152 329q86 53 181 53q250 0 341 -159q72 -120 73 -379v-25h25h215v-184h-240v-1082h-181v1082h-354v-457h-31z" />
    <glyph glyph-name="uni0A09_uni0A3C" horiz-adv-x="1377" 
d="M10 94q34 34 74 34h1q81 0 110 -69q8 -24 8 -58q0 -35 -32 -69q-31 -34 -76 -34h-1q-43 0 -68 16q-23 15 -38 46q-13 28 -12 62q-1 37 34 72zM746 199q200 5 200 158q0 81 -73 161q-74 79 -144 79q-9 0 -48 -6t-314 -6h-35l11 -33q122 -353 393 -353h10zM553 783l1 -17
q116 2 191 24q179 51 283 282l16 35h-754v-25q2 -178 10 -290l2 -23l232 -2v-1h12v2zM1049 1319q-18 168 -103 249q-87 79 -263 79q-358 0 -391 -329l-3 -27h28h735zM755 14q-650 0 -650 1068v25h-94v184h94l2 23q15 246 169 382q155 135 404 135q250 0 395 -135
q147 -138 163 -382l2 -23h23h119v-184h-150q-94 -283 -258 -396l-28 -19l26 -21q163 -130 163 -316q0 -142 -101 -241q-100 -100 -279 -100zM546 816h-12v-49h12v1v48zM1104 -324q-159 -59 -363 -64h-13q-134 0 -323 65v153q191 -66 353 -66q163 0 346 66v-154z" />
    <glyph glyph-name="uni0A0A_uni0A3C" horiz-adv-x="1382" 
d="M10 94q34 34 74 34h1q81 0 110 -69q8 -24 8 -58q0 -35 -32 -69q-31 -34 -76 -34h-1q-43 0 -68 16q-23 15 -38 46q-13 28 -12 62q-1 37 34 72zM746 199q200 5 200 158q0 81 -73 161q-74 79 -144 79q-9 0 -48 -6t-314 -6h-35l11 -33q122 -353 393 -353h10zM553 783l1 -17
q116 2 191 24q179 51 283 282l16 35h-754v-25q2 -178 10 -290l2 -23l232 -2v-1h12v2zM1049 1319q-18 168 -103 249q-87 79 -263 79q-358 0 -391 -329l-3 -27h28h735zM755 14q-650 0 -650 1068v25h-94v184h94l2 23q15 246 169 382q155 135 404 135q250 0 395 -135
q147 -138 163 -382l2 -23h23h119v-184h-150q-94 -283 -258 -396l-28 -19l26 -21q163 -130 163 -316q0 -142 -101 -241q-100 -100 -279 -100zM546 816h-12v-49h12v1v48zM402 -127q189 -65 355 -65q168 0 344 64v-142q-167 -66 -342 -66t-357 66v143zM1101 -597
q-189 -62 -350 -62h-5q-168 2 -344 62v141q190 -60 354 -60q162 0 345 60v-141z" />
    <glyph glyph-name="uni0A0F_uni0A3C" horiz-adv-x="1243" 
d="M-10 34q34 34 74 34h1q81 0 110 -69q8 -24 8 -58q0 -35 -32 -69q-31 -34 -76 -34h-1q-43 0 -68 16q-23 15 -38 46q-13 28 -12 62q-1 37 34 72zM1012 650l-221 4q-170 0 -299 -44q-126 -43 -236 -179l-13 -18l15 -16q82 -82 212 -144q129 -63 222 -63h11q101 5 197 98
q81 78 102 78q22 3 31 -11q9 -13 9 -50q0 -79 -98 -173q-96 -96 -203 -105q-13 -1 -39 -1q-195 0 -395 110q-198 109 -266 273q44 155 275 317l25 17l-22 21q-37 35 -111 122q-60 82 -95 221h-98v184h1233v-184h-205v-457h-31zM862 1107h-561l13 -34q27 -69 63 -111
q99 -110 201 -129h284v274zM714 1751q75 -62 191 -243q57 -89 58 -144q-19 22 -46 58q-66 84 -177 159q-37 24 -98 61q-111 65 -326 83q-3 3 -10.5 8t-9.5 6q-7 4 -19 14q-11 17 -11 35q0 15 5 47q4 28 27 49q24 21 51 21q21 0 43 -2q176 -26 322 -152z" />
    <glyph glyph-name="uni0A10_uni0A3C" horiz-adv-x="1577" 
d="M235 140q34 34 74 34h1q82 0 110 -69q8 -24 8 -58q0 -35 -32 -69q-31 -34 -76 -34h-1q-43 0 -68 16q-23 15 -38 46q-13 28 -12 62q-1 37 34 72zM1366 1107v-1082h-186v664l-35 -15q-85 -36 -147 -82q-57 -44 -96 -190q-40 -148 -49 -167q-43 -93 -139 -93q-62 0 -106 29
t-44 101q0 70 110 200q110 128 110 221q0 136 -61 268l-13 28l-25 -18q-102 -75 -215 -223q-113 -149 -116 -237q-1 -85 -48 -147q-49 -58 -114 -58q-68 0 -108 36q-42 36 -42 98q0 61 78 169q77 109 77 199q0 147 -22 222q-23 77 -81 77h-83v184h153q82 0 142 -120
q49 -93 67 -225l8 -54l36 42q24 28 76 87.5t79 90.5q97 97 164 97h5q96 -24 162 -194q37 -97 55 -210l7 -38l32 21q89 58 183 96v407h391v-184h-205zM721 1814l-100 -5q-45 0 -61 13q-17 14 -17 50q0 39 46 64q47 27 95 27q198 0 346 -150q108 -114 208 -337q33 -72 33 -90
v-23q-7 3 -18 9q-262 152 -474 154h-37l-120 -6q-101 0 -101 56q0 34 34 62q35 28 75 30q42 3 64 3q193 0 441 -179l114 -82l-78 116q-49 74 -168 182q-116 106 -282 106z" />
    <glyph glyph-name="uni0A13_uni0A3C" horiz-adv-x="1403" 
d="M710 1883l63 2q213 0 311 -34q100 -34 100 -89q0 -69 -244 -70q-35 1 -94.5 2.5t-80.5 1.5q-210 -2 -311 -91q-102 -91 -142 -284l-7 -30h1101v-184h-162q-92 -269 -258 -384l-30 -21l30 -20q173 -123 173 -336q0 -139 -97 -232q-98 -93 -291 -93h-4q-388 1 -544 361
q-107 252 -107 700v25h-95v184h96l3 22q28 252 186 411q156 159 404 159zM596 779q93 4 160 23q184 52 282 270l15 35h-753v-25q2 -169 11 -278l2 -23h23q195 -2 226 -3zM758 209q195 6 197 159q0 79 -74 159q-76 82 -143 82q-9 0 -23 -2q-58 -9 -336 -11h-35l11 -33
q119 -354 394 -354h9zM10 94q34 34 74 34h1q81 0 110 -69q8 -24 8 -58q0 -35 -32 -69q-31 -34 -76 -34h-1q-43 0 -68 16q-23 15 -38 46q-13 28 -12 62q-1 37 34 72z" />
    <glyph glyph-name="uni0A14_uni0A3C" horiz-adv-x="1567" 
d="M192 124q34 34 74 34h1q81 0 110 -69q8 -24 8 -58q0 -35 -32 -69q-31 -34 -76 -34h-1q-43 0 -68 16q-23 15 -38 46q-13 28 -12 62q-1 37 34 72zM1366 1107v-1082h-186v664l-35 -15q-85 -36 -147 -82q-57 -44 -96 -190q-40 -148 -49 -167q-43 -93 -139 -93q-62 0 -106 29
t-44 101q0 70 110 200q110 128 110 221q0 136 -61 268l-13 28l-25 -18q-102 -75 -215 -223q-113 -149 -116 -237q-1 -85 -48 -147q-49 -58 -114 -58q-68 0 -108 36q-42 36 -42 98q0 61 78 169q77 109 77 199q0 147 -22 222q-23 77 -81 77h-83v184h153q82 0 142 -120
q49 -93 67 -225l8 -54l36 42q24 28 76 87.5t79 90.5q97 97 164 97h5q96 -24 162 -194q37 -97 55 -210l7 -38l32 21q89 58 183 96v407h391v-184h-205zM1298 1414q46 83 46 128q0 46 -38 90q-36 46 -100 46q-62 0 -102 -40t-40 -89t16 -74q16 -41 16 -62v-1q-14 -12 -30 -12
q-18 0 -62 37q-47 37 -56 93q-2 15 -4 30.5t-3.5 23.5t-1.5 11v16q-28 13 -67 15q-45 3 -48 4q-121 7 -192 72q-71 66 -75 178q0 68 37 75q13 -4 34 -52q19 -46 29 -58q54 -65 211 -65q66 2 178 28q110 27 167 27h4h8q125 -4 190 -95q43 -58 43 -133t-42 -140
q-44 -65 -95 -65q-14 0 -23 12z" />
    <glyph glyph-name="uni0A06_uni0A02" horiz-adv-x="2067" 
d="M1658 1514q-41 41 -41 100t41 102q42 42 102 42t102 -42q41 -43 41 -102t-41 -100q-42 -42 -102 -42q-62 0 -102 42zM1837 1107v-599h-178v599h-293v-1082h-186v664l-35 -15q-85 -36 -147 -82q-57 -44 -96 -190q-40 -148 -49 -167q-43 -93 -139 -93q-62 0 -106 29
t-44 101q0 70 110 200q110 128 110 221q0 136 -61 268l-13 28l-25 -18q-102 -75 -215 -223q-113 -149 -116 -237q-1 -85 -48 -147q-49 -58 -114 -58q-68 0 -108 36q-42 36 -42 98q0 61 78 169q77 109 77 199q0 147 -22 222q-23 77 -81 77h-83v184h153q82 0 142 -120
q49 -93 67 -225l8 -54l36 42q24 28 76 87.5t79 90.5q97 97 164 97h5q96 -24 162 -194q37 -97 55 -210l7 -38l32 21q89 58 183 96v407h893v-184h-236z" />
    <glyph glyph-name="_316" horiz-adv-x="223" 
d="M-1 1107v184h252v-184h-252z" />
    <glyph glyph-name="uni0A35_uni0A4D_uni0A41" horiz-adv-x="20" 
d="M-111 -793v-51q-163 -69 -289 -69q-123 0 -279 68v52q162 -65 290 -65t278 65zM-234 -677q-31 -91 -125 -91q-95 0 -135 33t-72 102q-51 111 -75 129q-50 20 -86 36q-81 36 -81 108q0 74 48 126q50 53 120 53h318v115h104v-203h-382q-45 0 -74 -19q-28 -20 -28 -58
q0 -39 27 -60q26 -22 71 -22h371v-87h-264l7 -30q33 -151 160 -151q45 0 96 19z" />
    <glyph glyph-name="uni0A35_uni0A4D_uni0A42" horiz-adv-x="20" 
d="M-111 -996v-41q-163 -69 -289 -69q-123 0 -279 68v42q162 -65 290 -65t278 65zM-111 -806v-41q-163 -69 -289 -69q-123 0 -279 68v42q162 -65 290 -65t278 65zM-234 -677q-31 -91 -125 -91q-95 0 -135 33t-72 102q-51 111 -75 129q-50 20 -86 36q-81 36 -81 108
q0 74 48 126q50 53 120 53h318v115h104v-203h-382q-45 0 -74 -19q-28 -20 -28 -58q0 -39 27 -60q26 -22 71 -22h371v-87h-264l7 -30q33 -151 160 -151q45 0 96 19z" />
    <glyph glyph-name="uni0A30_uni0A4D_uni0A4D" horiz-adv-x="11" 
d="M-27 -842l-54 -23l-289 230l56 21zM-329 -458q-50 -125 -174 -125q-54 0 -110 35q-49 46 -52 77t-3 40q0 120 128 167h22q75 0 118 -22q8 45 9 223l140 -3v-24q0 -141 -19 -245q45 -31 135 -111q132 -123 132 -172q0 -31 -34 -31q-30 0 -122 73q-22 19 -74 60
q-64 52 -96 58z" />
    <glyph glyph-name="uni0A39_uni0A4D_uni0A4D" horiz-adv-x="11" 
d="M159 -874l-50 -19l-279 190l50 18zM-838 -306q42 35 132 35q88 0 88 -22q0 -13 -33 -21q-4 -2 -25 -8q-29 -8 -40 -16q-33 -20 -33 -60t23 -66q20 -25 84 -74q63 -48 142 -72q122 26 146 173v361h141v-378q0 -133 -69 -202q-70 -70 -204 -70t-277 122q-98 86 -118 191
q2 74 43 107z" />
    <glyph glyph-name="uni0A35_uni0A4D_uni0A4D" horiz-adv-x="11" 
d="M223 -842l-54 -23l-251 202l56 22zM-234 -677q-31 -91 -125 -91q-95 0 -135 33t-72 102q-51 111 -75 129q-50 20 -86 36q-81 36 -81 108q0 74 48 126q50 53 120 53h318v115h104v-203h-382q-45 0 -74 -19q-28 -20 -28 -58q0 -39 27 -60q26 -22 71 -22h371v-87h-264l7 -30
q33 -151 160 -151q45 0 96 19z" />
    <glyph glyph-name="_322" 
d="M-137 -516q68 0 68 91v171h217l-6 -94h-116v-15q0 -189 -44 -239q-25 -27 -68 -27q-41 0 -125 35q-82 36 -98 52q-20 18 -23 22q-6 4 -12 10q-5 5 -7 6q-13 8 -32 30q-20 23 -20 43v2q-1 1 -1 7q0 21 26 97q31 87 37 129q6 37 6 80q0 40 -8 86h106q8 -50 8 -88
q0 -42 -3 -78q-3 -35 -33 -110q-31 -77 -32 -96q3 -27 16 -37q21 -16 22 -17q5 -3 15 -10q61 -50 107 -50zM165 -841v-41q-164 -69 -289 -69q-123 0 -279 68v42q162 -65 290 -65t278 65zM165 -651v-41q-164 -69 -289 -69q-123 0 -279 68v42q162 -65 290 -65t278 65z" />
    <glyph glyph-name="_323" horiz-adv-x="11" 
d="M493 -700l-53 -23l-306 240l55 21zM-137 -516q68 0 68 91v171h217l-6 -94h-116v-15q0 -189 -44 -239q-25 -27 -68 -27q-41 0 -125 35q-82 36 -98 52q-20 18 -23 22q-6 4 -12 10q-5 5 -7 6q-13 8 -32 30q-20 23 -20 43v2q-1 1 -1 7q0 21 26 97q31 87 37 129q6 37 6 80
q0 40 -8 86h106q8 -50 8 -88q0 -42 -3 -78q-3 -35 -33 -110q-31 -77 -32 -96q3 -27 16 -37q21 -16 22 -17q5 -3 15 -10q61 -50 107 -50z" />
    <glyph glyph-name="_324" horiz-adv-x="11" 
d="M-195 -414q100 -55 100 -142q0 -85 -33 -85q-52 0 -163 77q-111 74 -237 247q-70 97 -119 227h57q62 -100 266 -267q26 -18 129 -57zM-60 -851v-34q-166 -58 -289 -58q-125 0 -279 57v35q160 -54 290 -54t278 54zM-60 -693v-34q-163 -57 -289 -57q-127 0 -279 56v35
q160 -54 290 -54t278 54z" />
    <glyph glyph-name="_325" horiz-adv-x="11" 
d="M-42 -880l-53 -23l-349 258l54 22zM-195 -414q100 -55 100 -142q0 -85 -33 -85q-52 0 -163 77q-111 74 -237 247q-70 97 -119 227h57q62 -100 266 -267q26 -18 129 -57z" />
    <glyph glyph-name="uni0A4D_uni0A17" horiz-adv-x="13" 
d="M-578 -410h-63q-51 0 -83 -21t-32 -63q0 -40 38 -81q40 -42 94 -43q20 0 33 12t13 33v163zM-311 -692v501h-184v-356q0 -77 -31 -111t-101 -34q-71 0 -133 58q-41 36 -63 82q-10 33 -10 56v3q5 68 51 111q45 45 111 45h93v146h-134v85h485v-586h-84z" />
    <glyph glyph-name="uni0A4D_uni0A20" horiz-adv-x="6" 
d="M-367 -350q-55 48 -130 48t-127 -49q-51 -49 -54 -125v-2q0 -67 49 -100q49 -34 135 -34q85 0 134 34q48 34 48 89q0 57 -21 95h17zM-435 -212q88 -24 151 -92q63 -66 63 -175q0 -108 -77 -165q-77 -56 -190 -56q-122 0 -202 56q-80 57 -80 166v4q1 94 59 164
q56 71 157 98v132h117z" />
    <glyph glyph-name="uni0A4D_uni0A25" horiz-adv-x="11" 
d="M-743 -447q59 -68 147 -68t218 59v108h-339l-13 -50q0 -2 -1.5 -8t-2.5 -9q-2 -7 -9 -32zM-707 -129q2 -26 2 -29q0 -2 -5 -84l-2 -27h27h307v169h84v-601h-84v163l-35 -16q-91 -41 -191 -41h-2q-123 0 -228 130q21 72 27 97l22 87l-10 -9q5 45 5 90q0 50 -3 100h89
q-3 -10 -3 -19v-10z" />
    <glyph glyph-name="uni0A4D_uni0A26" horiz-adv-x="11" 
d="M-449 -628q46 0 127 30q78 31 92 31q13 0 15 -2t2 -12q0 -28 -71 -78q-69 -51 -168 -51q-215 0 -285 151q-31 67 -36 197l-1 24h-24h-63q-19 0 -25 7q-7 7 -7 31t17 64q18 38 38 55q64 53 115 53q21 0 29 -6q7 -7 7 -25v-90h363v203h89v-291h-451l1 -26q4 -127 65 -197
q60 -68 171 -68z" />
    <glyph glyph-name="uni0A4D_uni0A17_uni0A41" horiz-adv-x="13" 
d="M-209 -798v-51q-163 -69 -289 -69q-123 0 -279 68v52q162 -65 290 -65t278 65zM-578 -410h-63q-51 0 -83 -21t-32 -63q0 -40 38 -81q40 -42 94 -43q20 0 33 12t13 33v163zM-311 -692v501h-184v-356q0 -77 -31 -111t-101 -34q-71 0 -133 58q-41 36 -63 82q-10 33 -10 56v3
q5 68 51 111q45 45 111 45h93v146h-134v85h485v-586h-84z" />
    <glyph glyph-name="uni0A4D_uni0A1A_uni0A41" horiz-adv-x="14" 
d="M-831 -354q-40 0 -55 12q-14 11 -14 40t50 91q16 21 62 43q45 21 71 21t35 -9q8 -10 8 -34v-58h339v218h111v-456q0 -71 -47 -135q-67 -93 -198 -93q-200 0 -257 131q-23 54 -41 207l-3 22h-22h-39zM-661 -379q0 -33 18 -136q38 -95 169 -95q66 0 102 36q37 37 37 102
v118h-326v-25zM-225 -791v-51q-163 -69 -289 -69q-123 0 -279 68v52q162 -65 290 -65t278 65z" />
    <glyph glyph-name="uni0A4D_uni0A1F_uni0A41" horiz-adv-x="6" 
d="M-212 -550q2 -4 2 -20q0 -15 -35 -53q-85 -93 -225 -93q-98 0 -238 70q-140 69 -188 146q22 100 103 187q80 86 175 119q94 32 270 50l22 2v106h109v-188h-6q-148 0 -302 -35q-119 -26 -240 -217l-13 -20l20 -13q187 -133 294 -133q108 0 178 69q26 25 49 25q21 0 25 -2z
M-219 -782v-51q-163 -69 -289 -69q-123 0 -279 68v52q162 -65 290 -65t278 65z" />
    <glyph glyph-name="uni0A4D_uni0A20_uni0A41" horiz-adv-x="6" 
d="M-200 -765v-51q-164 -69 -289 -69q-123 0 -279 68v52q162 -65 290 -65t278 65zM-367 -350q-55 48 -130 48t-127 -49q-51 -49 -54 -125v-2q0 -67 49 -100q49 -34 135 -34q85 0 134 34q48 34 48 89q0 57 -21 95h17zM-435 -212q88 -24 151 -92q63 -66 63 -175
q0 -108 -77 -165q-77 -56 -190 -56q-122 0 -202 56q-80 57 -80 166v4q1 94 59 164q56 71 157 98v132h117z" />
    <glyph glyph-name="uni0A4D_uni0A24_uni0A41" horiz-adv-x="16" 
d="M-869 -274q0 56 102 56h5q31 0 97 -12q72 -13 110 -13q11 0 15 1q124 12 189 212h114q-24 -84 -47 -133q-25 -47 -85 -98l-26 -22l29 -18q119 -75 124 -206v-12q1 -92 -82 -147t-226 -55q-142 0 -252 62q-102 59 -102 100v4v4q2 3 28 3t126 -45q102 -45 174 -45
q71 0 125 18q97 33 97 110q0 76 -60 124q-60 50 -169 60q-14 2 -39 2q-28 0 -78 -12q-51 -12 -89 -12q-80 0 -80 74zM-319 -796v-51q-163 -69 -289 -69q-123 0 -279 68v52q162 -65 290 -65t278 65z" />
    <glyph glyph-name="uni0A4D_uni0A25_uni0A41" horiz-adv-x="11" 
d="M-262 -788v-51q-164 -69 -289 -69q-123 0 -279 68v52q162 -65 290 -65t278 65zM-743 -447q59 -68 147 -68t218 59v108h-339l-13 -50q0 -2 -1.5 -8t-2.5 -9q-2 -7 -9 -32zM-707 -129q2 -26 2 -29q0 -2 -5 -84l-2 -27h27h307v169h84v-601h-84v163l-35 -16q-91 -41 -191 -41
h-2q-123 0 -228 130q21 72 27 97l22 87l-10 -9q5 45 5 90q0 50 -3 100h89q-3 -10 -3 -19v-10z" />
    <glyph glyph-name="uni0A4D_uni0A26_uni0A41" horiz-adv-x="11" 
d="M-176 -757v-51q-163 -69 -289 -69q-123 0 -279 68v52q162 -65 290 -65t278 65zM-449 -628q46 0 127 30q78 31 92 31q13 0 15 -2t2 -12q0 -28 -71 -78q-69 -51 -168 -51q-215 0 -285 151q-31 67 -36 197l-1 24h-24h-63q-19 0 -25 7q-7 7 -7 31t17 64q18 38 38 55
q64 53 115 53q21 0 29 -6q7 -7 7 -25v-90h363v203h89v-291h-451l1 -26q4 -127 65 -197q60 -68 171 -68z" />
    <glyph glyph-name="uni0A4D_uni0A28_uni0A41" horiz-adv-x="6" 
d="M-468 9v-165l22 -3q106 -12 183 -88q75 -79 75 -172q-4 -107 -60 -187q-58 -75 -146 -83v106q46 22 70 57q25 34 25 107q0 72 -79 124t-152 52q-74 0 -150 -49q-77 -50 -77 -124q0 -75 23 -110q24 -34 72 -57v-107q-90 6 -150 86q-59 80 -59 181t76 177q77 76 183 87
l22 2v166h122zM-236 -777v-51q-163 -69 -289 -69q-123 0 -279 68v52q162 -65 290 -65t278 65z" />
    <glyph glyph-name="uni0A4D_uni0A17_uni0A42" horiz-adv-x="13" 
d="M-200 -975v-41q-164 -69 -289 -69q-123 0 -279 68v42q162 -65 290 -65t278 65zM-200 -785v-41q-164 -69 -289 -69q-123 0 -279 68v42q162 -65 290 -65t278 65zM-578 -410h-63q-51 0 -83 -21t-32 -63q0 -40 38 -81q40 -42 94 -43q20 0 33 12t13 33v163zM-311 -692v501
h-184v-356q0 -77 -31 -111t-101 -34q-71 0 -133 58q-41 36 -63 82q-10 33 -10 56v3q5 68 51 111q45 45 111 45h93v146h-134v85h485v-586h-84z" />
    <glyph glyph-name="uni0A4D_uni0A1A_uni0A42" horiz-adv-x="14" 
d="M-197 -811v-51q-164 -69 -289 -69q-123 0 -279 68v52q162 -65 290 -65t278 65zM-827 -394q-40 0 -55 12q-14 11 -14 40t50 91q16 21 62 43q45 21 71 21t35 -9q8 -10 8 -34v-58h339v218h111v-456q0 -71 -47 -135q-67 -93 -198 -93q-200 0 -257 131q-23 54 -41 207l-3 22
h-22h-39zM-657 -419q0 -33 18 -136q38 -95 169 -95q66 0 102 36q37 37 37 102v118h-326v-25z" />
    <glyph glyph-name="uni0A4D_uni0A1F_uni0A42" horiz-adv-x="15" 
d="M-180 -1023v-41q-163 -69 -289 -69q-123 0 -279 68v42q162 -65 290 -65t278 65zM-180 -833v-41q-163 -69 -289 -69q-123 0 -279 68v42q162 -65 290 -65t278 65zM-212 -606q2 -4 2 -20q0 -15 -35 -53q-85 -93 -225 -93q-98 0 -238 70q-140 69 -188 146q22 100 103 187
q80 86 175 119q94 32 270 50l22 2v106h109v-188h-6q-148 0 -302 -35q-119 -26 -240 -217l-13 -20l20 -13q187 -133 294 -133q108 0 178 69q26 25 49 25q21 0 25 -2z" />
    <glyph glyph-name="uni0A4D_uni0A20_uni0A42" horiz-adv-x="6" 
d="M-197 -945v-41q-164 -69 -289 -69q-123 0 -279 68v42q162 -65 290 -65t278 65zM-197 -755v-41q-164 -69 -289 -69q-123 0 -279 68v42q162 -65 290 -65t278 65zM-367 -350q-55 48 -130 48t-127 -49q-51 -49 -54 -125v-2q0 -67 49 -100q49 -34 135 -34q85 0 134 34
q48 34 48 89q0 57 -21 95h17zM-435 -212q88 -24 151 -92q63 -66 63 -175q0 -108 -77 -165q-77 -56 -190 -56q-122 0 -202 56q-80 57 -80 166v4q1 94 59 164q56 71 157 98v132h117z" />
    <glyph glyph-name="uni0A4D_uni0A24_uni0A42" horiz-adv-x="16" 
d="M-268 -1044v-41q-164 -69 -289 -69q-123 0 -279 68v42q162 -65 290 -65t278 65zM-268 -854v-41q-164 -69 -289 -69q-123 0 -279 68v42q162 -65 290 -65t278 65zM-869 -332q0 56 102 56h5q31 0 97 -12q72 -13 110 -13q11 0 15 1q124 12 189 212h114q-24 -84 -47 -133
q-25 -47 -85 -98l-26 -22l29 -18q119 -75 124 -206v-12q1 -92 -82 -147t-226 -55q-142 0 -252 62q-102 59 -102 100v4v4q2 3 28 3t126 -45q102 -45 174 -45q71 0 125 18q97 33 97 110q0 76 -60 124q-60 50 -169 60q-14 2 -39 2q-28 0 -78 -12q-51 -12 -89 -12q-80 0 -80 74z
" />
    <glyph glyph-name="uni0A4D_uni0A25_uni0A42" horiz-adv-x="11" 
d="M-263 -978v-41q-163 -69 -289 -69q-123 0 -279 68v42q162 -65 290 -65t278 65zM-263 -788v-41q-163 -69 -289 -69q-123 0 -279 68v42q162 -65 290 -65t278 65zM-743 -447q59 -68 147 -68t218 59v108h-339l-13 -50q0 -2 -1.5 -8t-2.5 -9q-2 -7 -9 -32zM-707 -129
q2 -26 2 -29q0 -2 -5 -84l-2 -27h27h307v169h84v-601h-84v163l-35 -16q-91 -41 -191 -41h-2q-123 0 -228 130q21 72 27 97l22 87l-10 -9q5 45 5 90q0 50 -3 100h89q-3 -10 -3 -19v-10z" />
    <glyph glyph-name="uni0A4D_uni0A26_uni0A42" horiz-adv-x="11" 
d="M-177 -954v-41q-163 -69 -289 -69q-123 0 -279 68v42q162 -65 290 -65t278 65zM-177 -764v-41q-163 -69 -289 -69q-123 0 -279 68v42q162 -65 290 -65t278 65zM-449 -628q46 0 127 30q78 31 92 31q13 0 15 -2t2 -12q0 -28 -71 -78q-69 -51 -168 -51q-215 0 -285 151
q-31 67 -36 197l-1 24h-24h-63q-19 0 -25 7q-7 7 -7 31t17 64q18 38 38 55q64 53 115 53q21 0 29 -6q7 -7 7 -25v-90h363v203h89v-291h-451l1 -26q4 -127 65 -197q60 -68 171 -68z" />
    <glyph glyph-name="uni0A4D_uni0A28_uni0A42" horiz-adv-x="17" 
d="M-247 -1045v-41q-164 -69 -289 -69q-123 0 -279 68v42q162 -65 290 -65t278 65zM-247 -855v-41q-164 -69 -289 -69q-123 0 -279 68v42q162 -65 290 -65t278 65zM-474 -69v-165l22 -3q106 -12 183 -88q75 -79 75 -172q-4 -107 -60 -187q-58 -75 -146 -83v106q46 22 70 57
q25 34 25 107q0 72 -79 124t-152 52q-74 0 -150 -49q-77 -50 -77 -124q0 -75 23 -110q24 -34 72 -57v-107q-90 6 -150 86q-59 80 -59 181t76 177q77 76 183 87l22 2v166h122z" />
    <glyph glyph-name="uni0A4D_uni0A17_uni0A4D" 
d="M-182 -952l-289 182l48 18l288 -180zM-578 -410h-63q-51 0 -83 -21t-32 -63q0 -40 38 -81q40 -42 94 -43q20 0 33 12t13 33v163zM-311 -692v501h-184v-356q0 -77 -31 -111t-101 -34q-71 0 -133 58q-41 36 -63 82q-10 33 -10 56v3q5 68 51 111q45 45 111 45h93v146h-134
v85h485v-586h-84z" />
    <glyph glyph-name="uni0A4D_uni0A1A_uni0A4D" horiz-adv-x="6" 
d="M229 -851l-51 -23l-318 211l52 21zM-827 -394q-40 0 -55 12q-14 11 -14 40t50 91q16 21 62 43q45 21 71 21t35 -9q8 -10 8 -34v-58h339v218h111v-456q0 -71 -47 -135q-67 -93 -198 -93q-200 0 -257 131q-23 54 -41 207l-3 22h-22h-39zM-657 -419q0 -33 18 -136
q38 -95 169 -95q66 0 102 36q37 37 37 102v118h-326v-25z" />
    <glyph glyph-name="uni0A4D_uni0A1F_uni0A4D" horiz-adv-x="13" 
d="M162 -905l-49 -21l-280 163l50 19zM-212 -606q2 -4 2 -20q0 -15 -35 -53q-85 -93 -225 -93q-98 0 -238 70q-140 69 -188 146q22 100 103 187q80 86 175 119q94 32 270 50l22 2v106h109v-188h-6q-148 0 -302 -35q-119 -26 -240 -217l-13 -20l20 -13q187 -133 294 -133
q108 0 178 69q26 25 49 25q21 0 25 -2z" />
    <glyph glyph-name="uni0A4D_uni0A20_uni0A4D" 
d="M125 -886l-315 214l46 14l314 -212zM-367 -350q-55 48 -130 48t-127 -49q-51 -49 -54 -125v-2q0 -67 49 -100q49 -34 135 -34q85 0 134 34q48 34 48 89q0 57 -21 95h17zM-435 -212q88 -24 151 -92q63 -66 63 -175q0 -108 -77 -165q-77 -56 -190 -56q-122 0 -202 56
q-80 57 -80 166v4q1 94 59 164q56 71 157 98v132h117z" />
    <glyph glyph-name="uni0A4D_uni0A24_uni0A4D" horiz-adv-x="11" 
d="M178 -929l-53 -24l-319 213l53 22zM-869 -332q0 56 102 56h5q31 0 97 -12q72 -13 110 -13q11 0 15 1q124 12 189 212h114q-24 -84 -47 -133q-25 -47 -85 -98l-26 -22l29 -18q119 -75 124 -206v-12q1 -92 -82 -147t-226 -55q-142 0 -252 62q-102 59 -102 100v4v4q2 3 28 3
t126 -45q102 -45 174 -45q71 0 125 18q97 33 97 110q0 76 -60 124q-60 50 -169 60q-14 2 -39 2q-28 0 -78 -12q-51 -12 -89 -12q-80 0 -80 74z" />
    <glyph glyph-name="uni0A4D_uni0A25_uni0A4D" horiz-adv-x="16" 
d="M-360 -898l-255 199l42 13l254 -197zM-743 -447q59 -68 147 -68t218 59v108h-339l-13 -50q0 -2 -1.5 -8t-2.5 -9q-2 -7 -9 -32zM-707 -129q2 -26 2 -29q0 -2 -5 -84l-2 -27h27h307v169h84v-601h-84v163l-35 -16q-91 -41 -191 -41h-2q-123 0 -228 130q21 72 27 97l22 87
l-10 -9q5 45 5 90q0 50 -3 100h89q-3 -10 -3 -19v-10z" />
    <glyph glyph-name="uni0A4D_uni0A26_uni0A4D" horiz-adv-x="6" 
d="M72 -904l-272 185l40 13l271 -182zM-449 -628q46 0 127 30q78 31 92 31q13 0 15 -2t2 -12q0 -28 -71 -78q-69 -51 -168 -51q-215 0 -285 151q-31 67 -36 197l-1 24h-24h-63q-19 0 -25 7q-7 7 -7 31t17 64q18 38 38 55q64 53 115 53q21 0 29 -6q7 -7 7 -25v-90h363v203h89
v-291h-451l1 -26q4 -127 65 -197q60 -68 171 -68z" />
    <glyph glyph-name="uni0A4D_uni0A28_uni0A4D" horiz-adv-x="11" 
d="M203 -903l-51 -23l-306 205l53 21zM-474 -69v-165l22 -3q106 -12 183 -88q75 -79 75 -172q-4 -107 -60 -187q-58 -75 -146 -83v106q46 22 70 57q25 34 25 107q0 72 -79 124t-152 52q-74 0 -150 -49q-77 -50 -77 -124q0 -75 23 -110q24 -34 72 -57v-107q-90 6 -150 86
q-59 80 -59 181t76 177q77 76 183 87l22 2v166h122z" />
    <glyph glyph-name="_354" horiz-adv-x="1305" 
d="M1128 1085q-16 -162 -52 -287q-36 -122 -112 -244q113 -253 199 -529h-189q-27 70 -111 308l-16 43l-28 -36q-163 -208 -403 -211h-6q-173 0 -284 114q-109 112 -109 281v15q4 177 123 286q120 108 284 108q205 0 398 -186l26 -26l14 34q72 175 85 325l2 27h-27h-902v184
h1284v-184h-174zM641 666q-103 80 -209 80q-107 0 -164 -64q-59 -62 -59 -155q0 -92 59 -153q59 -62 150 -62q168 0 320 228l11 17zM611 -399q-50 -125 -174 -125q-54 0 -110 35q-49 46 -52 77t-3 40q0 120 128 167h22q75 0 118 -22q8 45 9 223l140 -3v-24q0 -141 -19 -245
q45 -32 135 -111q132 -123 132 -172q0 -31 -34 -31q-30 0 -122 73q-18 15 -74 61q-65 51 -96 57zM742 -735v-51q-163 -69 -289 -69q-123 0 -279 68v52q162 -65 290 -65t278 65z" />
    <glyph glyph-name="_355" horiz-adv-x="1305" 
d="M1128 1085q-16 -162 -52 -287q-36 -122 -112 -244q113 -253 199 -529h-189q-27 70 -111 308l-16 43l-28 -36q-163 -208 -403 -211h-6q-173 0 -284 114q-109 112 -109 281v15q4 177 123 286q120 108 284 108q205 0 398 -186l26 -26l14 34q72 175 85 325l2 27h-27h-902v184
h1284v-184h-174zM641 666q-103 80 -209 80q-107 0 -164 -64q-59 -62 -59 -155q0 -92 59 -153q59 -62 150 -62q168 0 320 228l11 17zM861 -901v-41q-163 -69 -289 -69q-123 0 -279 68v42q162 -65 290 -65t278 65zM861 -711v-41q-163 -69 -289 -69q-123 0 -279 68v42
q162 -65 290 -65t278 65zM668 -430q-50 -125 -174 -125q-54 0 -110 35q-49 46 -52 77t-3 40q0 120 128 167h22q75 0 118 -22q8 45 9 223l140 -3v-24q0 -141 -19 -245q45 -31 135 -111q132 -123 132 -172q0 -31 -34 -31q-30 0 -122 73q-22 19 -74 60q-64 52 -96 58z" />
    <glyph glyph-name="uni0A4D_uni0A15_uni0A4D_uni0A36" horiz-adv-x="1305" 
d="M604 383l-385 221l-7 -35q-3 -19 -3 -38q0 -96 59 -157q59 -62 142 -62q84 0 160 49zM1128 1085q-16 -162 -52 -287q-36 -122 -112 -244q113 -253 199 -529h-189q-27 70 -111 308l-16 43l-28 -36q-163 -208 -403 -211h-6q-173 0 -284 114q-109 112 -109 281v15
q4 177 123 286q120 108 284 108q205 0 398 -186l26 -26l14 34q72 175 85 325l2 27h-27h-192v184h574v-184h-174zM641 666q-103 80 -225 80q-51 0 -93 -21l-41 -19l398 -245l14 18q28 35 55 78z" />
    <glyph glyph-name="uni0A15_uni0A4D_uni0A36" horiz-adv-x="1305" 
d="M615 394l-388 232l-9 -31q-9 -30 -9 -64q0 -96 59 -157q59 -62 146 -62q86 0 170 60zM1128 1085q-16 -162 -52 -287q-36 -122 -112 -244q113 -253 199 -529h-189q-27 70 -111 308l-16 43l-28 -36q-163 -208 -403 -211h-6q-173 0 -284 114q-109 112 -109 281v15
q4 177 123 286q120 108 284 108q205 0 398 -186l26 -26l14 34q72 175 85 325l2 27h-27h-902v184h1284v-184h-174zM641 666q-103 80 -225 80q-53 0 -94 -22l-39 -20l397 -242l13 17q26 33 56 78z" />
    <glyph glyph-name="uni0A4D_uni0A15" 
d="M-797 -426q20 -74 115 -87l22 -6h4q41 0 72 19q52 16 73 43l40 49q12 12 22 42l-44 67q-64 58 -157 58h-21q-37 0 -80 -31q-38 -40 -46 -80l-53 -126zM-648 -141l28 -1q88 0 171 -78q6 -9 17 -20l23 -20l22 40q11 38 30 79l13 92l5 7l94 3l-10 -37q-4 -61 -23 -114
q-15 -61 -35 -96q-24 -44 -43 -87l22 -37q42 -76 63 -145l21 -61l9 -59h-88l-7 43l-22 62l-45 93l-25 -25q-1 -1 -7 -9l-64 -51q-26 -12 -71 -36q-56 -14 -85 -14q-28 0 -63 5l-51 9q-95 71 -115 137q-10 19 -10 63v44q0 66 33 103q24 34 70 64q24 24 66 31l59 12q10 3 18 3
z" />
    <glyph glyph-name="uni0A4D_uni0A15_uni0A41" 
d="M-219 -771v-51q-163 -69 -289 -69q-123 0 -279 68v52q162 -65 290 -65t278 65zM-797 -426q20 -74 115 -87l22 -6h4q41 0 72 19q52 16 73 43l40 49q12 12 22 42l-44 67q-64 58 -157 58h-21q-37 0 -80 -31q-38 -40 -46 -80l-53 -126zM-648 -141l28 -1q88 0 171 -78
q6 -9 17 -20l23 -20l22 40q11 38 30 79l13 92l5 7l94 3l-10 -37q-4 -61 -23 -114q-15 -61 -35 -96q-24 -44 -43 -87l22 -37q42 -76 63 -145l21 -61l9 -59h-88l-7 43l-22 62l-45 93l-25 -25q-1 -1 -7 -9l-64 -51q-26 -12 -71 -36q-56 -14 -85 -14q-28 0 -63 5l-51 9
q-95 71 -115 137q-10 19 -10 63v44q0 66 33 103q24 34 70 64q24 24 66 31l59 12q10 3 18 3z" />
    <glyph glyph-name="uni0A4D_uni0A15_uni0A42" 
d="M-245 -961v-41q-163 -69 -289 -69q-123 0 -279 68v42q162 -65 290 -65t278 65zM-245 -771v-41q-163 -69 -289 -69q-123 0 -279 68v42q162 -65 290 -65t278 65zM-797 -426q20 -74 115 -87l22 -6h4q41 0 72 19q52 16 73 43l40 49q12 12 22 42l-44 67q-64 58 -157 58h-21
q-37 0 -80 -31q-38 -40 -46 -80l-53 -126zM-648 -141l28 -1q88 0 171 -78q6 -9 17 -20l23 -20l22 40q11 38 30 79l13 92l5 7l94 3l-10 -37q-4 -61 -23 -114q-15 -61 -35 -96q-24 -44 -43 -87l22 -37q42 -76 63 -145l21 -61l9 -59h-88l-7 43l-22 62l-45 93l-25 -25
q-1 -1 -7 -9l-64 -51q-26 -12 -71 -36q-56 -14 -85 -14q-28 0 -63 5l-51 9q-95 71 -115 137q-10 19 -10 63v44q0 66 33 103q24 34 70 64q24 24 66 31l59 12q10 3 18 3z" />
    <glyph glyph-name="uni0A4D_uni0A15_uni0A4D" 
d="M-203 -915l-54 -23l-310 246l56 21zM-797 -426q20 -74 115 -87l22 -6h4q41 0 72 19q52 16 73 43l40 49q12 12 22 42l-44 67q-64 58 -157 58h-21q-37 0 -80 -31q-38 -40 -46 -80l-53 -126zM-648 -141l28 -1q88 0 171 -78q6 -9 17 -20l23 -20l22 40q11 38 30 79l13 92l5 7
l94 3l-10 -37q-4 -61 -23 -114q-15 -61 -35 -96q-24 -44 -43 -87l22 -37q42 -76 63 -145l21 -61l9 -59h-88l-7 43l-22 62l-45 93l-25 -25q-1 -1 -7 -9l-64 -51q-26 -12 -71 -36q-56 -14 -85 -14q-28 0 -63 5l-51 9q-95 71 -115 137q-10 19 -10 63v44q0 66 33 103
q24 34 70 64q24 24 66 31l59 12q10 3 18 3z" />
    <glyph glyph-name="_362" 
d="M23 1954h9q127 0 184 -54q59 -52 59 -165q0 -37 -8 -90q-34 -60 -81 -89q-54 -25 -102 -25q-34 0 -93 18t-59 59q0 12 13 16q61 -32 118 -32q58 0 95 36q36 38 36 103q0 74 -51 119q-30 27 -67 27q-36 0 -92 -21q-57 -22 -94 -55q-40 -33 -81 -107l-56 -130
q-35 -96 -44 -186l-6 1q4 267 133 447q92 128 187 128z" />
    <glyph glyph-name="_363" horiz-adv-x="915" 
d="M890 582h-513h-23l-2 -23q-20 -220 -38 -287q-50 -183 -140 -183q-54 0 -80 27q-24 26 -24 82q0 54 11 84l85 210q70 168 70 295q0 125 -48 378l-4 20h-189v129h898l-1 -129h-580l8 -31q46 -178 46 -327q0 -23 -4 -91l-1 -26h26h504zM891 710h49v475h-48z" />
    <glyph glyph-name="uni0A2E_uni0A4D" horiz-adv-x="916" 
d="M57 692h472h25v622h369v-128h-240v-1165h-127v545h-503z" />
    <glyph glyph-name="uni0A4D_uni0A1C" horiz-adv-x="11" 
d="M-269 -97v-588h-79v288h-293l-24 -288h-80l23 287h-27h-41q-16 0 -20 6q-5 5 -5 25q0 107 84 142q28 11 53 11t31 -4q5 -7 5 -22v-78h294v221h79z" />
    <glyph glyph-name="uni0A4D_uni0A1C_uni0A41" horiz-adv-x="11" 
d="M-215 -791v-51q-163 -69 -289 -69q-123 0 -279 68v52q162 -65 290 -65t278 65zM-269 -97v-588h-79v288h-293l-24 -288h-80l23 287h-27h-41q-16 0 -20 6q-5 5 -5 25q0 107 84 142q28 11 53 11t31 -4q5 -7 5 -22v-78h294v221h79z" />
    <glyph glyph-name="uni0A4D_uni0A1C_uni0A42" horiz-adv-x="11" 
d="M-212 -982v-41q-164 -69 -289 -69q-123 0 -279 68v42q162 -65 290 -65t278 65zM-212 -792v-41q-164 -69 -289 -69q-123 0 -279 68v42q162 -65 290 -65t278 65zM-269 -97v-588h-79v288h-293l-24 -288h-80l23 287h-27h-41q-16 0 -20 6q-5 5 -5 25q0 107 84 142q28 11 53 11
t31 -4q5 -7 5 -22v-78h294v221h79z" />
    <glyph glyph-name="uni0A4D_uni0A1C_uni0A4D" 
d="M-242 -894l-38 -10l-274 213l35 12zM-269 -97v-588h-79v288h-293l-24 -288h-80l23 287h-27h-41q-16 0 -20 6q-5 5 -5 25q0 107 84 142q28 11 53 11t31 -4q5 -7 5 -22v-78h294v221h79z" />
    <glyph glyph-name="uni0A4D_uni0A21" horiz-adv-x="11" 
d="M-668 -531v-2q0 -28 30 -43q54 -26 102 -26q51 0 111 19l44 14l-36 30q-1 1 -7.5 6t-9.5 8q-8 7 -18 12q-58 38 -134 38q-77 0 -82 -56zM-318 -437v7q0 60 -65 98l-37 21v-6q-39 12 -84 12h-2l-134 -17q-51 0 -68 13q-18 13 -18 41q0 29 31 44q31 16 59 16q26 0 70 -12
q46 -11 64 -11q102 0 185 141h82q-34 -70 -44 -90q-40 -50 -53 -62l-22 -20l24 -18q42 -32 64 -58q26 -28 26 -90v-12q-12 -116 -83 -170q-69 -56 -183 -56h-39q-185 17 -194 128v11q0 56 38 88q42 33 106 33q125 0 223 -93l24 -23l15 29q13 24 15 56z" />
    <glyph glyph-name="uni0A4D_uni0A21_uni0A41" horiz-adv-x="11" 
d="M-206 -731v-51q-164 -69 -289 -69q-123 0 -279 68v52q162 -65 290 -65t278 65zM-668 -531v-2q0 -28 30 -43q54 -26 102 -26q51 0 111 19l44 14l-36 30q-1 1 -7.5 6t-9.5 8q-8 7 -18 12q-58 38 -134 38q-77 0 -82 -56zM-318 -437v7q0 60 -65 98l-37 21v-6q-39 12 -84 12
h-2l-134 -17q-51 0 -68 13q-18 13 -18 41q0 29 31 44q31 16 59 16q26 0 70 -12q46 -11 64 -11q102 0 185 141h82q-34 -70 -44 -90q-40 -50 -53 -62l-22 -20l24 -18q42 -32 64 -58q26 -28 26 -90v-12q-12 -116 -83 -170q-69 -56 -183 -56h-39q-185 17 -194 128v11q0 56 38 88
q42 33 106 33q125 0 223 -93l24 -23l15 29q13 24 15 56z" />
    <glyph glyph-name="uni0A4D_uni0A21_uni0A42" horiz-adv-x="11" 
d="M-217 -901v-41q-163 -69 -289 -69q-123 0 -279 68v42q162 -65 290 -65t278 65zM-217 -711v-41q-163 -69 -289 -69q-123 0 -279 68v42q162 -65 290 -65t278 65zM-668 -531v-2q0 -28 30 -43q54 -26 102 -26q51 0 111 19l44 14l-36 30q-1 1 -7.5 6t-9.5 8q-8 7 -18 12
q-58 38 -134 38q-77 0 -82 -56zM-318 -437v7q0 60 -65 98l-37 21v-6q-39 12 -84 12h-2l-134 -17q-51 0 -68 13q-18 13 -18 41q0 29 31 44q31 16 59 16q26 0 70 -12q46 -11 64 -11q102 0 185 141h82q-34 -70 -44 -90q-40 -50 -53 -62l-22 -20l24 -18q42 -32 64 -58
q26 -28 26 -90v-12q-12 -116 -83 -170q-69 -56 -183 -56h-39q-185 17 -194 128v11q0 56 38 88q42 33 106 33q125 0 223 -93l24 -23l15 29q13 24 15 56z" />
    <glyph glyph-name="uni0A4D_uni0A21_uni0A4D" horiz-adv-x="6" 
d="M-247 -950l-39 -11l-242 203l35 13zM-668 -531v-2q0 -28 30 -43q54 -26 102 -26q51 0 111 19l44 14l-36 30q-1 1 -7.5 6t-9.5 8q-8 7 -18 12q-58 38 -134 38q-77 0 -82 -56zM-318 -437v7q0 60 -65 98l-37 21v-6q-39 12 -84 12h-2l-134 -17q-51 0 -68 13q-18 13 -18 41
q0 29 31 44q31 16 59 16q26 0 70 -12q46 -11 64 -11q102 0 185 141h82q-34 -70 -44 -90q-40 -50 -53 -62l-22 -20l24 -18q42 -32 64 -58q26 -28 26 -90v-12q-12 -116 -83 -170q-69 -56 -183 -56h-39q-185 17 -194 128v11q0 56 38 88q42 33 106 33q125 0 223 -93l24 -23
l15 29q13 24 15 56z" />
    <glyph glyph-name="uni0A4D_uni0A23" 
d="M-875 -511q-24 27 -24 45q0 20 73 103q96 118 166 118q40 0 94 -26l36 -19v70q-47 18 -88 48l-59 41q-18 15 -58 58h111q99 -75 138 -85q52 -14 68 -18q38 -12 57 -16q9 -3 26 -7.5t25 -7.5l-1 -75q-57 18 -111 33l-32 9v-178q0 -28 -6 -35q-20 11 -47 45q-29 37 -31 39
q-9 12 -22 19q-57 21 -92 21q-34 0 -58 -24q-14 -16 -43 -45q-5 -6 -16.5 -18t-15.5 -16l-57 -61l38 9q115 -83 283 -112h2q25 0 111 27q85 27 102 27q18 0 20 -1q-1 -34 -96 -76q-96 -42 -142 -42q-198 0 -330 129z" />
    <glyph glyph-name="uni0A4D_uni0A23_uni0A41" 
d="M-275 -729v-51q-163 -69 -289 -69q-123 0 -279 68v52q162 -65 290 -65t278 65zM-875 -511q-24 27 -24 45q0 20 73 103q96 118 166 118q40 0 94 -26l36 -19v70q-47 18 -88 48l-59 41q-18 15 -58 58h111q99 -75 138 -85q52 -14 68 -18q38 -12 57 -16q9 -3 26 -7.5t25 -7.5
l-1 -75q-57 18 -111 33l-32 9v-178q0 -28 -6 -35q-20 11 -47 45q-29 37 -31 39q-9 12 -22 19q-57 21 -92 21q-34 0 -58 -24q-14 -16 -43 -45q-5 -6 -16.5 -18t-15.5 -16l-57 -61l38 9q115 -83 283 -112h2q25 0 111 27q85 27 102 27q18 0 20 -1q-1 -34 -96 -76
q-96 -42 -142 -42q-198 0 -330 129z" />
    <glyph glyph-name="uni0A4D_uni0A23_uni0A42" 
d="M-267 -901v-41q-163 -69 -289 -69q-123 0 -279 68v42q162 -65 290 -65t278 65zM-267 -711v-41q-163 -69 -289 -69q-123 0 -279 68v42q162 -65 290 -65t278 65zM-875 -511q-24 27 -24 45q0 20 73 103q96 118 166 118q40 0 94 -26l36 -19v70q-47 18 -88 48l-59 41
q-18 15 -58 58h111q99 -75 138 -85q52 -14 68 -18q38 -12 57 -16q9 -3 26 -7.5t25 -7.5l-1 -75q-57 18 -111 33l-32 9v-178q0 -28 -6 -35q-20 11 -47 45q-29 37 -31 39q-9 12 -22 19q-57 21 -92 21q-34 0 -58 -24q-14 -16 -43 -45q-5 -6 -16.5 -18t-15.5 -16l-57 -61l38 9
q115 -83 283 -112h2q25 0 111 27q85 27 102 27q18 0 20 -1q-1 -34 -96 -76q-96 -42 -142 -42q-198 0 -330 129z" />
    <glyph glyph-name="uni0A4D_uni0A23_uni0A4D" horiz-adv-x="13" 
d="M-99 -891l-39 -11l-242 203l35 13zM-875 -511q-24 27 -24 45q0 20 73 103q96 118 166 118q40 0 94 -26l36 -19v70q-47 18 -88 48l-59 41q-18 15 -58 58h111q99 -75 138 -85q52 -14 68 -18q38 -12 57 -16q9 -3 26 -7.5t25 -7.5l-1 -75q-57 18 -111 33l-32 9v-178
q0 -28 -6 -35q-20 11 -47 45q-29 37 -31 39q-9 12 -22 19q-57 21 -92 21q-34 0 -58 -24q-14 -16 -43 -45q-5 -6 -16.5 -18t-15.5 -16l-57 -61l38 9q115 -83 283 -112h2q25 0 111 27q85 27 102 27q18 0 20 -1q-1 -34 -96 -76q-96 -42 -142 -42q-198 0 -330 129z" />
    <glyph glyph-name="uni0A4D_uni0A27" 
d="M-504 -579q37 0 141 62v356h-298l5 -29q9 -52 9 -114q0 -64 -58 -204q100 -71 201 -71zM-800 -526q70 171 70 233q0 61 -9 112l-4 20h-21h-67v82h618v-82h-67v-605h-83v157l-37 -19q-68 -35 -150 -35t-156 50q-75 51 -94 87z" />
    <glyph glyph-name="uni0A4D_uni0A27_uni0A41" 
d="M-224 -852v-51q-163 -69 -289 -69q-123 0 -279 68v52q162 -65 290 -65t278 65zM-504 -579q37 0 141 62v356h-298l5 -29q9 -52 9 -114q0 -64 -58 -204q100 -71 201 -71zM-800 -526q70 171 70 233q0 61 -9 112l-4 20h-21h-67v82h618v-82h-67v-605h-83v157l-37 -19
q-68 -35 -150 -35t-156 50q-75 51 -94 87z" />
    <glyph glyph-name="uni0A4D_uni0A27_uni0A42" 
d="M-223 -1046v-41q-163 -69 -289 -69q-123 0 -279 68v42q162 -65 290 -65t278 65zM-223 -856v-41q-163 -69 -289 -69q-123 0 -279 68v42q162 -65 290 -65t278 65zM-504 -579q37 0 141 62v356h-298l5 -29q9 -52 9 -114q0 -64 -58 -204q100 -71 201 -71zM-800 -526
q70 171 70 233q0 61 -9 112l-4 20h-21h-67v82h618v-82h-67v-605h-83v157l-37 -19q-68 -35 -150 -35t-156 50q-75 51 -94 87z" />
    <glyph glyph-name="uni0A4D_uni0A27_uni0A4D" 
d="M-504 -579q37 0 141 62v356h-298l5 -29q9 -52 9 -114q0 -64 -58 -204q100 -71 201 -71zM-800 -526q70 171 70 233q0 61 -9 112l-4 20h-21h-67v82h618v-82h-67v-605h-83v157l-37 -19q-68 -35 -150 -35t-156 50q-75 51 -94 87zM-307 -943l-39 -11l-242 203l35 13z" />
    <glyph glyph-name="uni0A4D_uni0A32" 
d="M-566 -423l128 237h-42h-207zM-346 -186l-84 -151l25 -11q143 -62 143 -196q0 -180 -138 -228q-24 -9 -62 -18v79q49 15 68 32q53 45 53 131q0 85 -110 129l-20 8l-94 -161l-95 161l-20 -8q-106 -43 -106 -121q2 -125 89 -159q9 -3 31 -11v-80q-81 20 -114 43
q-84 65 -84 200q0 136 137 198l25 11l-82 152h-15h-46v82h554v-82h-55z" />
    <glyph glyph-name="uni0A4D_uni0A32_uni0A41" 
d="M-265 -844v-51q-163 -69 -289 -69q-123 0 -279 68v52q162 -65 290 -65t278 65zM-566 -423l128 237h-42h-207zM-346 -186l-84 -151l25 -11q143 -62 143 -196q0 -180 -138 -228q-24 -9 -62 -18v79q49 15 68 32q53 45 53 131q0 85 -110 129l-20 8l-94 -161l-95 161l-20 -8
q-106 -43 -106 -121q2 -125 89 -159q9 -3 31 -11v-80q-81 20 -114 43q-84 65 -84 200q0 136 137 198l25 11l-82 152h-15h-46v82h554v-82h-55z" />
    <glyph glyph-name="uni0A4D_uni0A32_uni0A42" 
d="M-566 -423l128 237h-42h-207zM-346 -186l-84 -151l25 -11q143 -62 143 -196q0 -180 -138 -228q-24 -9 -62 -18v79q49 15 68 32q53 45 53 131q0 85 -110 129l-20 8l-94 -161l-95 161l-20 -8q-106 -43 -106 -121q2 -125 89 -159q9 -3 31 -11v-80q-81 20 -114 43
q-84 65 -84 199q0 136 137 199l25 11l-82 152h-15h-46v82h554v-82h-55zM-269 -1035v-41q-163 -69 -289 -69q-123 0 -279 68v42q162 -65 290 -65t278 65zM-269 -845v-41q-163 -69 -289 -69q-123 0 -279 68v42q162 -65 290 -65t278 65z" />
    <glyph glyph-name="uni0A4D_uni0A32_uni0A4D" 
d="M7 -1000l-39 -11l-242 203l35 13zM-566 -423l128 237h-42h-207zM-346 -186l-84 -151l25 -11q143 -62 143 -196q0 -180 -138 -228q-24 -9 -62 -18v79q49 15 68 32q53 45 53 131q0 85 -110 129l-20 8l-94 -161l-95 161l-20 -8q-106 -43 -106 -121q2 -125 89 -159
q9 -3 31 -11v-80q-81 20 -114 43q-84 65 -84 200q0 136 137 198l25 11l-82 152h-15h-46v82h554v-82h-55z" />
    <glyph glyph-name="uni0A1C_uni0A4D_uni0A1E" horiz-adv-x="1249" 
d="M529 1054h99v-112h184v-82h-284v82h1v112zM1049 1107v-1082h-184v520h-474v-520h-185v520h-68q-53 0 -78 23q-23 25 -23 79q0 107 75 179q76 73 185 73q49 0 73 -19q21 -21 21 -64v-87h474v378h-845v184h1227v-184h-198z" />
    <glyph glyph-name="uni0A09_uni0A70" horiz-adv-x="1665" 
d="M1422 1495q-69 79 -69 159q0 78 62 158q61 78 213 78q150 0 212 -78q62 -80 62 -158q0 -80 -69 -159q-35 -41 -58 -43q51 88 51 151q0 62 -58 111q-61 47 -142 47t-140 -47q-57 -48 -57 -128q0 -38 17 -70q21 -38 23 -44q3 -6 11 -20q-23 2 -58 43zM1096 -324
q-159 -59 -363 -64h-13q-134 0 -323 65v153q191 -66 353 -66q163 0 346 66v-154zM740 199q200 5 200 158q0 81 -73 161q-74 79 -144 79q-9 0 -48 -6t-314 -6h-35l11 -33q122 -353 393 -353h10zM547 783l1 -17q116 2 191 24q179 51 283 282l16 35h-754v-25q2 -178 10 -290
l2 -23l232 -2v-1h12v2zM1043 1319q-18 168 -103 249q-87 79 -263 79q-358 0 -391 -329l-3 -27h28h735zM749 14q-650 0 -650 1068v25h-94v184h94l2 23q15 246 169 382q154 135 404 135t395 -135q147 -138 163 -382l2 -23h23h419v-184h-450q-94 -283 -258 -396l-28 -19l26 -21
q163 -130 163 -316q0 -142 -101 -241q-100 -100 -279 -100zM540 816h-12v-49h12v1v48z" />
    <glyph glyph-name="uni0A0A_uni0A70" horiz-adv-x="1673" 
d="M1453 1495q-69 79 -69 159q0 78 62 158q62 78 212 78q152 0 213 -78q62 -80 62 -158q0 -80 -69 -159q-35 -41 -58 -43q51 88 51 151q0 64 -59 111q-58 47 -140 47t-140 -47q-58 -48 -58 -128q0 -38 18 -70q4 -8 9.5 -18.5t8.5 -16t4 -9.5q3 -6 11 -20q-23 2 -58 43z
M1098 -588q-190 -63 -354 -63t-345 63v141q191 -60 353 -60q163 0 346 60v-141zM399 -118q189 -65 355 -65q168 0 344 64v-142q-166 -66 -342 -66t-357 66v143zM735 199q200 5 200 158q0 81 -73 161q-74 79 -144 79q-9 0 -48 -6t-314 -6h-35l11 -33q122 -353 393 -353h10z
M542 783l1 -17q116 2 191 24q179 51 283 282l16 35h-754v-25q2 -178 10 -290l2 -23l232 -2v-1h12v2zM1038 1319q-18 168 -103 249q-87 79 -263 79q-358 0 -391 -329l-3 -27h28h735zM744 14q-650 0 -650 1068v25h-94v184h94l2 23q15 246 169 382q155 135 403 135
q250 0 396 -135q147 -138 163 -382l2 -23h23h419v-184h-450q-95 -283 -258 -396l-28 -19l26 -21q163 -130 163 -316q0 -142 -101 -241q-100 -100 -279 -100zM535 816h-12v-49h12v1v48z" />
    <glyph glyph-name="uni0A0F_uni0A70" horiz-adv-x="1546" 
d="M1015 650l-221 4q-170 0 -299 -44q-126 -43 -236 -179l-13 -18l15 -16q80 -81 211 -144q129 -63 223 -63h12q101 5 196 98q81 78 102 78q22 3 31 -11q9 -13 9 -50q0 -78 -97 -173q-99 -96 -204 -105q-13 -1 -39 -1q-195 0 -395 110q-198 109 -266 273q44 155 275 317
l25 17l-22 21q-37 35 -111 122q-60 82 -95 221h-98v184h1533v-184h-505v-457h-31zM865 1107h-561l13 -34q27 -69 63 -111q99 -110 201 -129h284v274zM678 1751q75 -62 191 -243q57 -89 58 -144q-19 22 -46 58q-66 84 -177 159q-37 24 -98 61q-111 65 -326 83q-9 7 -20 13
q-3 3 -9.5 8t-9.5 7q-11 17 -11 35q0 15 5 47q4 28 27 49q24 21 50 21q22 0 44 -2q176 -26 322 -152zM1111 1495q-69 79 -69 159q0 78 62 158q62 78 212 78q152 0 213 -78q62 -80 62 -158q0 -80 -69 -159q-35 -41 -58 -43q51 88 51 151q0 64 -59 111q-58 47 -140 47
t-140 -47q-58 -48 -58 -128q0 -38 18 -70q4 -8 9.5 -18.5t8.5 -16t4 -9.5q3 -6 11 -20q-23 2 -58 43z" />
    <glyph glyph-name="uni0A10_uni0A70" horiz-adv-x="1864" 
d="M1373 1107v-1082h-186v664l-35 -15q-87 -37 -146 -82q-58 -43 -97 -190q-40 -148 -49 -167q-44 -93 -139 -93q-62 0 -106 29t-44 101q0 70 110 200q110 128 110 221q0 136 -61 268l-13 28l-25 -18q-104 -76 -214 -223q-115 -149 -116 -237q-3 -88 -50 -147
q-46 -58 -113 -58t-109 36q-41 36 -41 98q0 60 77 169q78 108 78 199q0 147 -22 222q-23 77 -81 77h-83v184h153q82 0 142 -120q49 -93 67 -225l8 -54l36 42q24 28 76 87.5t79 90.5q97 97 164 97h5q96 -24 162 -194q37 -97 55 -210l7 -38l32 21q88 58 183 96v407h691v-184
h-505zM716 1817l-100 -5q-45 0 -61 13q-17 14 -17 51t46 64q47 26 95 26q197 0 346 -150q108 -114 208 -337q33 -72 33 -90v-22q-8 3 -18 9q-262 153 -474 153h-37l-120 -6q-101 0 -101 56q0 34 34 62t76 31q54 2 63 2q193 0 441 -179l114 -82l-78 116q-49 74 -168 182
q-116 106 -282 106zM1427 1495q-69 79 -69 159q0 78 62 158q62 78 212 78q152 0 213 -78q62 -80 62 -158q0 -80 -69 -159q-35 -41 -58 -43q51 88 51 151q0 64 -59 111q-58 47 -140 47t-140 -47q-58 -48 -58 -128q0 -38 18 -70l22 -44q3 -6 11 -20q-23 2 -58 43z" />
    <glyph glyph-name="uni0A13_uni0A70" horiz-adv-x="1703" 
d="M709 1883l63 2q213 0 312 -34q99 -35 99 -89q0 -69 -244 -70q-35 1 -94.5 2.5t-80.5 1.5q-210 -2 -310 -91q-102 -90 -143 -284l-7 -30h1411v-184h-472q-91 -269 -258 -384l-30 -21l30 -20q173 -123 173 -336q0 -139 -97 -232t-291 -93h-4q-388 1 -544 361
q-107 252 -107 700v25h-95v184h96l3 22q28 251 185 411q158 159 405 159zM595 779q93 4 160 23q185 52 282 270l15 35h-753v-25q2 -169 11 -278l2 -23h23q195 -2 226 -3zM757 209q196 6 196 148q0 91 -75 170q-76 82 -142 82q-9 0 -23 -2q-59 -9 -335 -11h-35l11 -33
q118 -354 394 -354h9zM1445 1495q-69 79 -69 159q0 78 62 158q62 78 212 78q152 0 213 -78q62 -80 62 -158q0 -80 -69 -159q-35 -41 -58 -43q51 88 51 151q0 64 -59 111q-58 47 -140 47t-140 -47q-58 -48 -58 -128q0 -38 18 -70l22 -44q3 -6 11 -20q-23 2 -58 43z" />
    <glyph glyph-name="uni0A14_uni0A70" horiz-adv-x="1881" 
d="M1372 1107v-1082h-186v664l-35 -15q-85 -36 -147 -82q-57 -44 -96 -190q-40 -148 -49 -167q-43 -93 -139 -93q-62 0 -106 29t-44 101q0 70 110 200q110 128 110 221q0 136 -61 268l-13 28l-25 -18q-102 -75 -215 -223q-113 -149 -116 -237q-1 -85 -48 -147
q-49 -58 -114 -58q-68 0 -108 36q-42 36 -42 98q0 61 78 169q77 109 77 199q0 147 -22 222q-23 77 -81 77h-83v184h153q82 0 142 -120q49 -93 67 -225l8 -54l36 42q24 28 76 87.5t79 90.5q97 97 164 97h5q96 -24 162 -194q37 -97 55 -210l7 -38l32 21q89 58 183 96v407h701
v-184h-515zM1262 1428q46 83 46 128q0 46 -38 90q-36 46 -100 46q-62 0 -102 -40t-40 -89t16 -74q16 -41 16 -62v-1q-14 -12 -30 -12q-18 0 -62 37q-47 37 -56 93q-2 15 -4 30.5t-3.5 23.5t-1.5 11v16q-28 13 -67 15q-45 3 -48 4q-121 7 -192 72q-71 66 -75 178q0 68 37 75
q13 -4 34 -52q19 -46 29 -58q54 -65 211 -65q66 2 178 28q110 27 167 27h4h8q125 -4 190 -95q43 -58 43 -133t-42 -140q-44 -65 -95 -65q-14 0 -23 12zM1695 1495q-69 79 -69 159q0 78 62 158q62 78 212 78q152 0 213 -78q62 -80 62 -158q0 -80 -69 -159q-35 -41 -58 -43
q51 88 51 151q0 64 -59 111q-58 47 -140 47t-140 -47q-58 -48 -58 -128q0 -38 18 -70l22 -44q3 -6 11 -20q-23 2 -58 43z" />
    <glyph glyph-name="uni0A19_uni0A4D_uni0A19" horiz-adv-x="1189" 
d="M980 1107v-1082h-185v535h-234v-25q-2 -218 -15 -290q-15 -72 -63 -105t-130 -33q-83 0 -160 43l-132 86q13 78 37 199l41 -42q78 -56 127 -87q41 -25 63 -25q21 0 31 9q9 6 14 28q5 27 5 84v341h416v364h-790v184h1183v-184h-208z" />
    <glyph glyph-name="uni0A0F_uni0A71" horiz-adv-x="1701" 
d="M1012 650l-221 4q-170 0 -299 -44q-126 -43 -236 -179l-13 -18l15 -16q82 -82 212 -144q129 -63 222 -63h11q101 5 197 98q81 78 102 78q22 3 31 -11q9 -13 9 -50q0 -79 -98 -173q-96 -96 -203 -105q-13 -1 -39 -1q-195 0 -395 110q-198 109 -266 273q44 155 275 317
l25 17l-22 21q-37 35 -111 122q-60 82 -95 221h-98v184h1703v-184h-675v-457h-31zM862 1107h-561l13 -34q27 -69 63 -111q99 -110 201 -129h284v274zM696 1751q75 -62 191 -243q57 -89 58 -144q-19 22 -46 58q-66 84 -177 159q-37 24 -98 61q-111 65 -326 83q-9 7 -20 13
q-3 3 -9.5 8t-9.5 7q-11 17 -11 35q0 15 5 47q4 28 27 49q24 21 50 21q22 0 44 -2q176 -26 322 -152zM1072 1741q0 107 21 131l5 5q15 -13 24 -97q12 -88 68 -142q58 -56 170 -56q224 0 258 232q6 56 18 63q26 -11 26 -106q0 -20 -1 -31q0 -62 -12 -114q-27 -91 -106 -136
q-80 -44 -177 -44q-100 0 -180 46q-114 64 -114 249z" />
    <glyph glyph-name="uni0A10_uni0A71" horiz-adv-x="1988" 
d="M1366 1107v-1082h-186v664l-35 -15q-85 -36 -147 -82q-57 -44 -96 -190q-40 -148 -49 -167q-43 -93 -139 -93q-62 0 -106 29t-44 101q0 70 110 200q110 128 110 221q0 136 -61 268l-13 28l-25 -18q-102 -75 -215 -223q-113 -149 -116 -237q-1 -85 -48 -147
q-49 -58 -114 -58q-68 0 -108 36q-42 36 -42 98q0 61 78 169q77 109 77 199q0 147 -22 222q-23 77 -81 77h-83v184h153q82 0 142 -120q49 -93 67 -225l8 -54l36 42q24 28 76 87.5t79 90.5q97 97 164 97h5q96 -24 162 -194q37 -97 55 -210l7 -38l32 21q89 58 183 96v407h821
v-184h-635zM718 1816l-100 -5q-45 0 -61 13q-17 14 -17 50q0 39 46 64q46 27 95 27q197 0 346 -150q108 -114 208 -337q33 -72 33 -90v-23q-8 3 -18 9q-262 152 -474 154h-37l-120 -6q-101 0 -101 56q0 34 34 62q35 29 76 30q40 3 63 3q193 0 441 -179l114 -82l-78 116
q-49 74 -168 182q-116 106 -282 106zM1372 1741q0 107 21 131l5 5q15 -13 24 -97q12 -88 68 -142q58 -56 170 -56q224 0 258 232q6 56 18 63q26 -11 26 -106q0 -20 -1 -31q0 -62 -12 -114q-27 -91 -106 -136q-80 -44 -177 -44q-100 0 -180 46q-114 64 -114 249z" />
    <glyph glyph-name="uni0A14_uni0A71" horiz-adv-x="2107" 
d="M1366 1107v-1082h-186v664l-35 -15q-85 -36 -147 -82q-57 -44 -96 -190q-40 -148 -49 -167q-43 -93 -139 -93q-62 0 -106 29t-44 101q0 70 110 200q110 128 110 221q0 136 -61 268l-13 28l-25 -18q-102 -75 -215 -223q-113 -149 -116 -237q-1 -85 -48 -147
q-49 -58 -114 -58q-68 0 -108 36q-42 36 -42 98q0 61 78 169q77 109 77 199q0 147 -22 222q-23 77 -81 77h-83v184h153q82 0 142 -120q49 -93 67 -225l8 -54l36 42q24 28 76 87.5t79 90.5q97 97 164 97h5q96 -24 162 -194q37 -97 55 -210l7 -38l32 21q89 58 183 96v407h941
v-184h-755zM1174 1428q46 83 46 128q0 46 -38 90q-36 46 -100 46q-62 0 -102 -40t-40 -89t16 -74q16 -41 16 -62v-1q-14 -12 -30 -12q-18 0 -62 37q-47 37 -56 93q-2 15 -4 30.5t-3.5 23.5t-1.5 11v16q-28 13 -67 15q-45 3 -48 4q-121 7 -192 72q-71 66 -75 178q0 68 37 75
q13 -4 34 -52q19 -46 29 -58q54 -65 211 -65q66 2 178 28q110 27 167 27h4h8q125 -4 190 -95q43 -58 43 -133t-42 -140q-44 -65 -95 -65q-14 0 -23 12zM1476 1741q0 107 21 131l5 5q15 -13 24 -97q12 -88 68 -142q58 -56 170 -56q224 0 258 232q6 56 18 63q26 -11 26 -106
q0 -20 -1 -31q0 -62 -12 -114q-27 -91 -106 -136q-80 -44 -177 -44q-100 0 -180 46q-114 64 -114 249z" />
    <glyph glyph-name="periodcentered" horiz-adv-x="662" 
d="M242 666q-35 34 -35 76q0 86 72 117q20 11 56 9q37 0 72 -34q36 -34 36 -83t-37 -85q-37 -35 -83 -35q-48 0 -81 35z" />
    <glyph glyph-name="uni0A02_uni0A40" horiz-adv-x="919" 
d="M-522 1496q-48 48 -48 118t48 120q49 50 120 49q69 1 119 -49q49 -49 49 -120q0 -70 -49 -118q-49 -49 -119 -49q-72 0 -120 49zM-11 1107v184h402v-184h-402zM664 1107v-1082h-181v1082h-119v184h119v25q0 154 -21 221q-42 138 -177 138q-93 0 -131 -41
q-41 -38 -53 -127q-4 -22 -8 -63h-176v28q0 234 152 329q86 53 181 53q250 0 341 -159q72 -120 73 -379v-25h240v-184h-240z" />
    <glyph glyph-name="uni0A70_uni0A40" horiz-adv-x="919" 
d="M-686 1495q-69 79 -69 159q0 78 62 158q61 78 213 78q150 0 212 -78q62 -79 62 -158q0 -80 -69 -159q-35 -41 -58 -43q51 88 51 151t-59 110q-59 48 -141 48t-140 -48q-57 -48 -57 -127q0 -37 17 -71q11 -22 23 -43q1 -3 11 -20q-23 2 -58 43zM-13 1107v184h402v-184
h-402zM662 1107v-1082h-181v1082h-119v184h119v25q0 154 -21 221q-42 138 -177 138q-93 0 -131 -41q-41 -38 -53 -127q-4 -22 -8 -63h-176v28q0 234 152 329q86 53 181 53q249 0 341 -159q72 -120 73 -379v-25h240v-184h-240z" />
    </font>
</defs>
</svg>
