<?xml version="1.0" standalone="no"?>
<!DOCTYPE svg PUBLIC "-//W3C//DTD SVG 1.1//EN" "http://www.w3.org/Graphics/SVG/1.1/DTD/svg11.dtd" >
<svg xmlns="http://www.w3.org/2000/svg" xmlns:xlink="http://www.w3.org/1999/xlink" version="1.1">
<metadata>
Created by FontForge 20170731 at Sun Apr 15 22:04:49 2018
 By Aleksey,,,
Copyright (C) 2016-2018 GurbaniNow Dev Team (https://gurbaninow.com); Copyright (C) 2005 PunjabiOnline.
</metadata>
<defs>
<font id="OpenAnmolUni-Bold" horiz-adv-x="12" >
  <font-face 
    font-family="OpenAnmolUni"
    font-weight="700"
    font-stretch="normal"
    units-per-em="2048"
    panose-1="0 0 8 0 0 0 0 0 0 0"
    ascent="1638"
    descent="-410"
    x-height="1062"
    cap-height="1466"
    bbox="-1667 -1181 3687 2006"
    underline-thickness="64"
    underline-position="-894"
    unicode-range="U+0020-F051"
  />
<missing-glyph horiz-adv-x="1024" 
d="M822 1864h-548v-1727h548v1727zM959 2001v-2001h-822v2001h822z" />
    <glyph glyph-name=".notdef" horiz-adv-x="1024" 
d="M822 1864h-548v-1727h548v1727zM959 2001v-2001h-822v2001h822z" />
    <glyph glyph-name=".null" horiz-adv-x="0" 
 />
    <glyph glyph-name="nonmarkingreturn" horiz-adv-x="682" 
 />
    <glyph glyph-name="space" unicode=" " horiz-adv-x="649" 
 />
    <glyph glyph-name="exclam" unicode="!" horiz-adv-x="845" 
d="M430 10q-42 43 -42 103q0 59 42 103q42 42 102 42t102 -42q43 -43 43 -103t-43 -103q-42 -42 -102 -42t-102 42zM454 584q-40 424 -40 600q0 170 9 199q23 66 111 66q89 0 113 -67q8 -29 8 -186q0 -160 -66 -875h-111z" />
    <glyph glyph-name="quotedbl" unicode="&#x22;" horiz-adv-x="882" 
d="M531 1430q0 114 126 114t126 -114q0 -73 -82 -498h-87l-6 36q-77 405 -77 462zM105 1430q0 114 126 114t126 -114q0 -70 -84 -498h-85l-7 36q-76 399 -76 462z" />
    <glyph glyph-name="numbersign" unicode="#" horiz-adv-x="1513" 
d="M592 499h267l64 264h-266zM1054 499h283v-194h-337l-77 -299h-195l75 299h-262l-75 -299h-199l76 299h-323v194h376l66 264h-284v195h332l76 303h201l-81 -303h265l79 303h197l-76 -303h320v-195h-372z" />
    <glyph glyph-name="dollar" unicode="$" horiz-adv-x="977" 
d="M516 182q89 12 140 50q48 38 48 131t-188 189v-370zM330 856q4 -2 10.5 -5.5t18.5 -10t23 -11.5v313q-174 -26 -174 -135q0 -86 122 -151zM516 761q172 -86 245 -147q129 -105 135 -234v-15q0 -155 -102 -247q-107 -95 -278 -115v-144h-134v144q-140 20 -224 89
q-85 70 -148 206l179 64q35 -78 75 -117q41 -39 118 -56v427q-188 85 -257 141q-116 101 -119 248v7q0 143 125 230q105 71 251 89v132h134v-138q161 -42 314 -231l-145 -116q-93 115 -169 151v-368z" />
    <glyph glyph-name="percent" unicode="%" horiz-adv-x="1684" 
d="M1071 433q0 -66 47 -115q49 -47 115 -47t115 47q48 48 48 115t-48 115t-115 48t-115 -48q-47 -49 -47 -115zM984 186q-103 102 -103 248q0 145 103 248t250 103q146 0 249 -103t103 -248q0 -146 -103 -248q-103 -104 -249 -104q-147 0 -250 104zM326 1342
q-48 -46 -48 -114q0 -66 48 -114q47 -47 114 -47t114 47q48 48 48 114q0 68 -48 114q-46 48 -114 48t-114 -48zM88 1228q0 146 103 249t249 103t249 -103q104 -104 104 -249t-104 -249q-103 -103 -249 -103t-249 103t-103 249zM246 -30l898 1572h195l-879 -1572h-214z" />
    <glyph glyph-name="ampersand" unicode="&#x26;" horiz-adv-x="1751" 
d="M885 246q-209 286 -315 501q-253 -148 -253 -354q0 -121 77 -204q78 -82 199 -82q122 0 292 139zM985 1249q-2 118 -95 161q-31 14 -67 14q-77 0 -130 -54q-53 -56 -53 -144t87 -294q258 126 258 317zM1107 342q169 -199 320 -199t196 166l49 -37q-81 -306 -342 -306
q-186 0 -382 210q-237 -210 -472 -210q-158 0 -271 81q-122 93 -122 248q0 291 446 534q-86 192 -86 321q0 188 137 287q106 76 240 76q133 0 218 -73q84 -74 84 -202q0 -130 -115 -236q-74 -67 -238 -153q134 -237 280 -435q184 221 184 375q0 106 -100 116v52h464v-52
q-97 -6 -137 -37q-42 -34 -178 -256q-143 -229 -175 -270z" />
    <glyph glyph-name="quotesingle" unicode="'" horiz-adv-x="495" 
d="M126 1430q0 114 126 114q63 0 94.5 -28.5t30.5 -85.5q0 -72 -82 -497h-87l-6 35q-76 401 -76 462z" />
    <glyph glyph-name="parenleft" unicode="(" horiz-adv-x="904" 
d="M780 -256l-27 -94q-307 147 -492 417q-185 271 -185 601q0 606 689 968l14 -100q-262 -178 -362 -356t-100 -498q0 -319 98 -538q111 -248 365 -400z" />
    <glyph glyph-name="parenright" unicode=")" horiz-adv-x="864" 
d="M58 -256q256 152 365 400q97 216 97 538q0 320 -100 498t-359 356l12 100q691 -361 691 -968q0 -331 -186 -601t-493 -417z" />
    <glyph glyph-name="asterisk" unicode="*" horiz-adv-x="1072" 
d="M941 1274q0 -80 -135 -118q-39 -11 -106 -26q-70 -17 -103 -29q47 -27 125 -41q214 -37 214 -141q0 -57 -52 -79q-15 -7 -32 -7q-79 0 -182 127q-39 45 -100 91q5 -68 34 -156q28 -93 28 -136q0 -45 -23 -79q-22 -34 -64 -34q-100 0 -100 109q0 52 19 109q31 95 36 112
q7 23 11 75q-57 -43 -121 -111q-59 -66 -97 -91q-29 -16 -65 -16q-32 0 -62 25q-28 27 -28 61q0 85 139 124q9 3 23 6t34.5 8t35.5 9q60 11 110 35q-44 19 -156 45q-103 21 -145 52q-41 30 -41 72q0 43 25 68t60 25q79 0 179 -114q50 -63 111 -99q-8 80 -37 159
q-29 82 -29 124q0 117 96 117q89 0 89 -115q0 -45 -29 -147q-29 -100 -33 -138q45 28 96 83q110 128 186 128q34 0 62 -25q27 -24 27 -62z" />
    <glyph glyph-name="plus" unicode="+" horiz-adv-x="1244" 
d="M723 126h-212v439h-440v213h440v439h212v-439h440v-213h-440v-439z" />
    <glyph glyph-name="comma" unicode="," horiz-adv-x="694" 
d="M364 -23q-15 4 -30 5q-89 1 -127 15q-65 26 -71 101q-2 8 0 16q0 65 48 106q53 46 148 46q95 -1 161 -74q66 -75 66 -188q0 -218 -339 -375l-50 81q99 64 142 118q42 55 52 149z" />
    <glyph glyph-name="hyphen" unicode="-" horiz-adv-x="1114" 
d="M98 778h916v-213h-916v213z" />
    <glyph glyph-name="period" unicode="." horiz-adv-x="606" 
d="M105 96q0 78 55 135q58 56 134 56t134 -56q55 -57 55 -135q0 -79 -55 -134t-134 -55q-78 0 -134 55q-55 57 -55 134z" />
    <glyph glyph-name="slash" unicode="/" horiz-adv-x="799" 
d="M-30 -32l605 1598h218l-606 -1598h-217z" />
    <glyph glyph-name="zero" unicode="0" horiz-adv-x="1139" 
d="M799 786q0 244 -50 409q-63 206 -198 206q-70 0 -124 -64q-15 -18 -57 -130q-41 -110 -46 -144q-27 -186 -27 -373q0 -294 73 -483q58 -156 175 -156q254 0 254 735zM1018 739q0 -205 -54 -374q-66 -212 -204 -310q-114 -81 -219 -81q-208 0 -346 246q-116 206 -116 497
q0 501 273 694q97 70 200 70q168 0 301 -171q165 -212 165 -571z" />
    <glyph glyph-name="one" unicode="1" horiz-adv-x="677" 
d="M617 0h-546v50q106 1 140 20q33 18 41 83q1 6 1 106v778q0 157 -10 201q-13 61 -69 61q-38 0 -110 -34l-20 41l352 175h42v-1327q7 -65 43 -84q35 -18 136 -20v-50z" />
    <glyph glyph-name="two" unicode="2" horiz-adv-x="1089" 
d="M1007 288l-104 -288h-856v47q291 266 425 426q253 304 253 526q0 129 -77 219q-75 90 -201 90q-229 0 -310 -244h-49q25 187 130 302q103 115 279 115q175 0 297 -108q123 -108 123 -275q0 -250 -306 -588q-242 -265 -320 -339h362q113 0 159 9q94 17 146 108h49z" />
    <glyph glyph-name="three" unicode="3" horiz-adv-x="981" 
d="M874 483q0 -189 -120 -328q-156 -181 -451 -181q-254 0 -254 119q0 35 27 59q26 25 59 25q34 0 55 -7q29 -10 104 -50q79 -43 151 -43q109 0 186 83q76 82 76 180q0 97 -32 167t-63 98q-118 110 -283 110h-39v41q84 10 168 59q159 91 159 272q0 105 -64 172t-168 67
q-161 0 -272 -178l-44 22q134 311 395 311q175 0 269 -115q70 -85 70 -183q0 -156 -191 -323q262 -108 262 -377z" />
    <glyph glyph-name="four" unicode="4" horiz-adv-x="1003" 
d="M611 541v694l-489 -694h489zM988 380h-192v-380h-185v380h-608v143l669 958h124v-940h192v-161z" />
    <glyph glyph-name="five" unicode="5" horiz-adv-x="1024" 
d="M894 1451l-87 -192h-432l-88 -184q278 -44 429 -199q152 -157 152 -354q0 -116 -46 -212q-91 -189 -274 -277q-123 -59 -232 -59t-179 29q-92 39 -92 118q0 36 27 57q26 23 64 23q36 0 122 -53q86 -54 157 -54q127 0 217 95q88 96 88 229q0 134 -87 242q-86 108 -211 161
t-332 60l279 570h525z" />
    <glyph glyph-name="six" unicode="6" horiz-adv-x="1084" 
d="M531 45q116 0 173 103q58 101 58 245q0 142 -56 265q-72 158 -215 158q-76 0 -217 -87q-18 -143 -18 -228q0 -151 62 -287q78 -169 213 -169zM297 822q148 98 305 98q158 0 259 -129q100 -128 100 -305t-110 -329q-133 -183 -351 -183q-150 0 -254 100q-202 190 -202 496
q0 399 300 681q245 230 522 230h66v-49q-132 -13 -224 -53q-89 -40 -179 -130q-162 -162 -232 -427z" />
    <glyph glyph-name="seven" unicode="7" horiz-adv-x="912" 
d="M928 1404l-480 -1434h-130l429 1297h-387q-119 0 -168 -28q-87 -49 -143 -153l-40 15l141 350h778v-47z" />
    <glyph glyph-name="eight" unicode="8" horiz-adv-x="1007" 
d="M225 339q0 -125 68 -211q67 -85 181 -85t184 57q72 58 72 146t-40 147q-76 113 -298 291q-167 -144 -167 -345zM507 852q103 94 145 156q45 64 45 170t-59 168q-60 62 -162 62t-172 -55q-72 -55 -72 -148q0 -124 106 -212zM889 348q0 -171 -125 -272q-123 -102 -314 -102
q-189 0 -305 131q-92 104 -92 229q0 192 280 397q-126 106 -180 173q-84 110 -84 228q0 160 117 255q116 94 275 94t277 -85q119 -86 119 -231q0 -178 -290 -363q181 -142 251 -236q71 -98 71 -218z" />
    <glyph glyph-name="nine" unicode="9" horiz-adv-x="1090" 
d="M751 719q19 133 19 229q0 91 -32 202q-74 252 -242 252q-118 0 -180 -114q-50 -92 -50 -219q0 -223 93 -348q66 -89 177 -89q112 0 215 87zM825 1332q157 -182 157 -439q0 -254 -119 -465q-119 -208 -328 -345q-173 -113 -374 -113h-65v50q306 4 498 297q97 147 137 309
q-161 -102 -292 -102q-171 0 -272 129q-100 128 -100 312q0 183 109 334q131 182 343 182q178 0 306 -149z" />
    <glyph glyph-name="colon" unicode=":" horiz-adv-x="784" 
d="M278 106q0 63 45 108t109 45q63 0 108 -45q44 -46 44 -108t-44 -108q-46 -44 -108 -44q-63 0 -109 44q-45 45 -45 108zM323 823q-45 45 -45 108t45 108t109 45q63 0 108 -45q44 -46 44 -108t-44 -108q-45 -45 -108 -45q-64 0 -109 45z" />
    <glyph glyph-name="semicolon" unicode=";" horiz-adv-x="702" 
d="M226 823q-45 45 -45 108t45 108q44 45 108 45q63 0 108 -45t45 -108t-45 -108t-108 -45q-64 0 -108 45zM342 -21q-21 3 -63 3q-56 3 -86 15q-59 23 -65 95q-1 5 -1 16q0 60 44 98q49 42 139 42t150 -68q62 -68 62 -176q0 -206 -316 -351l-47 77q96 61 133 110
q41 50 50 139z" />
    <glyph glyph-name="less.001" unicode="&#x3c;" horiz-adv-x="1222" 
d="M41 658v61l1173 510v-184l-851 -362l851 -350v-187z" />
    <glyph glyph-name="equal" unicode="=" horiz-adv-x="1440" 
d="M1319 484v-234h-1185v234h1185zM1319 1088v-234h-1185v234h1185z" />
    <glyph glyph-name="greater.001" unicode="&#x3e;" horiz-adv-x="1192" 
d="M0 146v181l864 356l-864 357v189l1173 -514v-61z" />
    <glyph glyph-name="question" unicode="?" horiz-adv-x="1329" 
d="M650 -48q-54 54 -54 131t54 132q55 55 132 55t132 -55t55 -132t-55 -131q-55 -55 -132 -55t-132 55zM1191 1158q0 -76 -84 -186q-5 -6 -21.5 -24.5t-52.5 -58.5t-69 -77q-80 -86 -108 -216q-4 -27 -13.5 -104t-15.5 -123h-122v39q0 77 -6 149q-8 98 -8 108q0 110 68 220
q22 36 106 140q87 108 87 158q0 286 -213 286q-53 0 -147 -53q-91 -53 -91 -103q0 -3 66 -71t66 -120q0 -54 -51 -88q-53 -35 -106 -35q-141 0 -141 211q0 177 113 270q115 92 305 92q92 0 192 -44q98 -43 161 -112q85 -95 85 -258z" />
    <glyph glyph-name="at" unicode="@" horiz-adv-x="2028" 
d="M818 579q0 -160 64 -160q66 0 115 46q51 48 99 137l124 358q-13 76 -40 114q-26 36 -78 36q-94 0 -170 -126q-114 -188 -114 -405zM1045 -83q316 0 563 202l60 -100l-16 -13q-247 -217 -630 -217q-227 0 -462 113q-219 106 -343 310q-125 205 -125 461q0 403 304 716
q179 187 462 259q130 33 288 33q159 0 306 -54q148 -55 254 -157q224 -216 224 -535q0 -157 -74 -313q-116 -241 -348 -317q-80 -26 -147 -26q-112 0 -151 39q-40 40 -71 135q-71 -146 -214 -164q-43 -5 -83 -5q-112 0 -188 70q-83 101 -83 243q0 143 75 288q72 143 199 239
q124 94 264 94q75 0 118 -40q43 -39 43 -114q10 80 36 141h225q-236 -679 -236 -728q0 -85 71 -85q122 0 202 80q80 76 122 206q40 127 40 266q0 269 -168 431q-166 162 -442 162q-211 -2 -389 -119q-271 -178 -359 -512q-28 -106 -28 -218q0 -105 22 -204q23 -97 64 -181
q85 -175 246 -281q159 -105 369 -105z" />
    <glyph glyph-name="A" unicode="A" horiz-adv-x="1366" 
d="M420 602h497l-153 406q-73 198 -104 304q-28 -142 -79 -280zM-3 0l563 1466h209l600 -1466h-221l-171 444h-613l-161 -444h-206z" />
    <glyph glyph-name="B" unicode="B" horiz-adv-x="1300" 
d="M344 173h365q96 0 132 7q215 39 215 245q0 175 -158 228q-74 24 -215 24h-339v-504zM344 850h317q128 0 185 17q149 45 149 204t-135 202q-65 20 -223 20h-293v-443zM150 0v1466h550q317 0 429 -181q57 -91 57 -194q0 -209 -205 -311q129 -37 203 -130t73 -225
q0 -216 -151 -328q-128 -97 -397 -97h-559z" />
    <glyph glyph-name="C" unicode="C" horiz-adv-x="1446" 
d="M1204 514l194 -49q-58 -231 -215 -361q-156 -129 -392 -129q-452 0 -611 376q-78 185 -78 393q0 475 337 659q160 88 367 88q205 0 356 -110q151 -109 211 -317l-191 -45q-98 306 -392 306q-159 1 -276 -75q-117 -77 -164 -218q-48 -142 -48 -287q0 -401 224 -535
q116 -69 249 -69q348 0 429 373z" />
    <glyph glyph-name="D" unicode="D" horiz-adv-x="1479" 
d="M352 173h313q256 0 359 103q146 146 146 468q0 419 -259 519q-78 30 -251 30h-308v-1120zM158 0v1466h505q171 0 261 -21q279 -64 389 -355q57 -152 57 -349q0 -261 -98 -445q-115 -214 -349 -271q-101 -25 -236 -25h-529z" />
    <glyph glyph-name="E" unicode="E" horiz-adv-x="1333" 
d="M162 0v1466h1060v-173h-866v-449h811v-172h-811v-499h900v-173h-1094z" />
    <glyph glyph-name="F" unicode="F" horiz-adv-x="1218" 
d="M168 0v1466h989v-173h-795v-454h688v-173h-688v-666h-194z" />
    <glyph glyph-name="G" unicode="G" horiz-adv-x="1560" 
d="M1301 1008q-93 317 -424 317q-254 0 -395 -156q-140 -157 -140 -431q0 -394 264 -524q128 -64 256 -64q126 0 248 42q119 40 198 110v273h-431v172l621 1v-544q-286 -229 -607 -229q-215 0 -391 91q-176 90 -267 267q-91 176 -91 391t88 400q87 184 257 276
q169 91 389 91q334 0 489 -195q73 -92 111 -240z" />
    <glyph glyph-name="H" unicode="H" horiz-adv-x="1380" 
d="M110 0v1466h194v-602h762v602h194v-1466h-194v691h-762v-691h-194z" />
    <glyph glyph-name="I" unicode="I" horiz-adv-x="569" 
d="M191 0v1466h194v-1466h-194z" />
    <glyph glyph-name="J" unicode="J" horiz-adv-x="958" 
d="M59 416l175 24q6 -136 44 -203q53 -89 174 -89q155 0 199 125q20 60 20 183v1010h194v-999q0 -337 -185 -439q-97 -53 -227 -53q-394 0 -394 424v17z" />
    <glyph glyph-name="K" unicode="K" horiz-adv-x="1276" 
d="M60 0v1466h194v-727l728 727h263l-615 -594l642 -872h-256l-522 742l-240 -234v-508h-194z" />
    <glyph glyph-name="L" unicode="L" horiz-adv-x="1139" 
d="M150 0v1466h194v-1293h722v-173h-916z" />
    <glyph glyph-name="M" unicode="M" horiz-adv-x="1640" 
d="M152 0v1466h292l347 -1038q38 -113 70 -217q23 76 78 235l351 1020h261v-1466h-187v1227l-426 -1227h-175l-424 1248v-1248h-187z" />
    <glyph glyph-name="N" unicode="N" horiz-adv-x="1381" 
d="M156 0v1466h199l770 -1151v1151h186v-1466h-199l-770 1152v-1152h-186z" />
    <glyph glyph-name="O" unicode="O" horiz-adv-x="1593" 
d="M445 1141q-113 -161 -113 -417q0 -255 132 -420q131 -163 372 -163q243 0 370 169q128 169 128 422q0 372 -237 520q-115 73 -262 73q-260 0 -390 -184zM132 714q0 342 184 560q183 218 518 218q200 0 364 -95q163 -94 250 -271q86 -175 86 -391q0 -215 -86 -395
q-86 -179 -255 -272t-366 -93t-361 97q-164 99 -248 272q-86 175 -86 370z" />
    <glyph glyph-name="P" unicode="P" horiz-adv-x="1366" 
d="M352 769h379q346 0 346 267q-2 87 -45 154t-124 90q-46 13 -181 13h-375v-524zM158 0v1466h553q139 0 223 -14q215 -38 299 -210q44 -91 44 -200q0 -446 -549 -446h-376v-596h-194z" />
    <glyph glyph-name="Q" unicode="Q" horiz-adv-x="1593" 
d="M842 405q166 -46 277 -140q171 156 171 469q0 370 -237 518q-115 73 -262 73q-251 0 -377 -167q-126 -166 -126 -424t127 -425q127 -168 376 -168q105 0 196 39q-91 58 -192 84zM1269 157q133 -92 249 -136l-57 -135q-157 57 -315 180q-163 -91 -362 -91q-198 0 -359 95
q-161 94 -249 270q-88 173 -88 388t85 394q86 181 251 275q167 95 366 95q200 0 364 -95q165 -95 250 -270q86 -177 86 -393q0 -364 -221 -577z" />
    <glyph glyph-name="R" unicode="R" horiz-adv-x="1479" 
d="M355 819h417q248 0 322 116q39 61 39 131q0 238 -314 238h-464v-485zM161 0v1466h650q167 0 275 -32q107 -31 178 -134q69 -102 69 -234q0 -342 -413 -399q81 -40 117 -73q88 -81 161 -195l255 -399h-244l-194 305q-156 247 -238 300q-45 30 -81 37q-39 9 -116 9h-225
v-651h-194z" />
    <glyph glyph-name="S" unicode="S" horiz-adv-x="1366" 
d="M128 471l183 16q26 -215 208 -294q102 -44 225 -44q233 0 323 124q41 58 41 125q0 141 -172 207q-74 29 -262 71q-190 43 -282 92q-208 109 -208 319q0 119 67 213t184 142q116 47 265 49q342 0 479 -207q67 -102 72 -231l-186 -14q-30 281 -357 281q-134 0 -221 -43
q-116 -57 -116 -173t126 -175q49 -23 255 -70q205 -47 293 -87q250 -115 250 -358q0 -125 -71 -226t-193 -157q-123 -56 -278 -56q-391 0 -544 233q-76 117 -81 263z" />
    <glyph glyph-name="T" unicode="T" horiz-adv-x="1251" 
d="M531 0v1293h-483v173h1162v-173h-485v-1293h-194z" />
    <glyph glyph-name="U" unicode="U" horiz-adv-x="1381" 
d="M1087 1466h194v-847q0 -200 -38 -317q-108 -327 -526 -327t-533 277q-56 136 -56 367v847h194v-846q0 -160 21 -237q65 -233 348 -233q236 0 323 120q73 100 73 350v846z" />
    <glyph glyph-name="V" unicode="V" horiz-adv-x="1366" 
d="M577 0l-568 1466h210l381 -1065q49 -141 77 -240q34 122 79 240l396 1065h198l-574 -1466h-199z" />
    <glyph glyph-name="W" unicode="W" horiz-adv-x="1933" 
d="M414 0l-389 1466h199l223 -961q41 -176 62 -300l66 271l279 990h234l210 -742q80 -284 114 -519q18 92 73 319l230 942h195l-402 -1466h-187l-309 1117q-38 133 -46 172q-16 -69 -43 -172l-311 -1117h-198z" />
    <glyph glyph-name="X" unicode="X" horiz-adv-x="1366" 
d="M9 0l567 764l-500 702h231l266 -376q88 -126 118 -180q52 84 116 167l295 389h211l-515 -691l555 -775h-240l-369 523q-23 33 -64 98q-52 -85 -70 -110l-368 -511h-233z" />
    <glyph glyph-name="Y" unicode="Y" horiz-adv-x="1366" 
d="M571 0v621l-565 845h236l289 -442q76 -116 149 -248q78 134 160 259l284 431h226l-585 -845v-621h-194z" />
    <glyph glyph-name="Z" unicode="Z" horiz-adv-x="1251" 
d="M74 0v180l751 939q77 98 152 174h-818v173h1050v-173l-912 -1120h936v-173h-1159z" />
    <glyph glyph-name="bracketleft" unicode="[" horiz-adv-x="935" 
d="M626 1733v-50h-252v-1933h252v-51h-413v2034h413z" />
    <glyph glyph-name="backslash" unicode="\" horiz-adv-x="785" 
d="M207 1566l606 -1598h-217l-605 1598h216z" />
    <glyph glyph-name="bracketright" unicode="]" horiz-adv-x="1051" 
d="M722 1733v-2034h-414v51h253v1933h-253v50h414z" />
    <glyph glyph-name="asciicircum" unicode="^" horiz-adv-x="1086" 
d="M812 1378l-260 210l-260 -210h-80l195 328h290l195 -328h-80z" />
    <glyph glyph-name="underscore" unicode="_" horiz-adv-x="1225" 
d="M2 -337v138h1223v-138h-1223z" />
    <glyph glyph-name="grave" unicode="`" horiz-adv-x="999" 
d="M449 1164l-213 410q-15 34 -15 62t17 48t62 20q46 0 86 -28q42 -28 58 -82l7 -19l55 -410z" />
    <glyph glyph-name="a" unicode="a" horiz-adv-x="1073" 
d="M813 533q-101 -42 -241 -61q-137 -19 -178 -31q-128 -41 -128 -156q0 -86 62 -127t152 -41q223 0 304 170q29 63 29 180v66zM828 131q-182 -155 -391 -155q-155 0 -259 77t-104 231q0 153 129 242q56 38 121 56q61 16 224 36q161 19 265 56q1 25 1 47q0 110 -51 155
q-68 61 -198 61q-128 1 -191 -43q-62 -44 -93 -159l-176 24q47 221 238 290q102 37 241 37q253 0 346 -112q41 -50 53 -108t12 -181l1 -467q9 -131 56 -218h-188q-28 55 -36 131z" />
    <glyph glyph-name="b" unicode="b" horiz-adv-x="1106" 
d="M364 805q-65 -110 -65 -283q0 -174 52 -259q85 -139 232 -139t225 137q63 111 63 272q0 160 -59 269q-73 136 -222 136q-147 0 -226 -133zM301 0h-167v1466h180v-523q114 143 291 143q219 0 335 -156q115 -154 115 -386q0 -230 -110 -388q-126 -180 -349 -180
q-189 0 -295 157v-133z" />
    <glyph glyph-name="c" unicode="c" horiz-adv-x="1090" 
d="M796 389l177 -23q-28 -178 -145 -284q-116 -106 -297 -106q-239 0 -361 153q-122 154 -122 398q0 367 231 495q115 64 253 64q358 0 424 -336l-175 -27q-50 215 -242 215q-306 0 -306 -407t296 -407q230 0 267 265z" />
    <glyph glyph-name="d" unicode="d" horiz-adv-x="1073" 
d="M312 802q-57 -106 -57 -269t63 -274q76 -135 225 -135q148 0 223 128q61 104 61 270q0 164 -59 274q-76 141 -230 141t-226 -135zM824 0v134q-101 -158 -297 -158q-132 0 -237 72q-103 70 -162 196q-58 123 -58 286q0 349 212 487q106 69 237 69q186 0 293 -146v526h179
v-1466h-167z" />
    <glyph glyph-name="e" unicode="e" horiz-adv-x="1139" 
d="M271 633h593q-12 133 -68 201q-86 104 -220 104q-133 0 -216 -86q-80 -86 -89 -219zM862 342l186 -23q-93 -343 -467 -343q-244 0 -375 149t-131 397q-1 247 127 406q128 158 366 158t362 -156q124 -155 124 -397q0 -27 -1 -48h-792q9 -157 90 -259t231 -102
q202 0 280 218z" />
    <glyph glyph-name="f" unicode="f" horiz-adv-x="569" 
d="M178 0v922h-159v140h159v113q0 108 19 159q58 157 275 157q76 0 168 -18l-27 -157q-54 10 -125 10q-68 0 -100 -38q-32 -39 -31 -128v-98h207v-140h-207v-922h-179z" />
    <glyph glyph-name="g" unicode="g" horiz-adv-x="1106" 
d="M315 811q-64 -103 -64 -267q0 -162 60 -266q74 -129 229 -129q156 0 232 127q62 104 62 265q0 163 -66 269q-79 127 -228 127q-148 0 -225 -126zM102 -88l175 -26q23 -168 251 -168q229 0 278 190q13 48 13 208v23q-118 -139 -294 -139q-219 0 -339 156
q-120 154 -120 381q0 335 215 479q103 70 245 70q188 0 310 -152v128h166v-918q0 -196 -30 -294q-87 -281 -450 -281q-186 0 -295 76q-125 86 -125 256v11z" />
    <glyph glyph-name="h" unicode="h" horiz-adv-x="1139" 
d="M153 0v1466h180v-526q126 146 318 146q251 0 330 -175q37 -80 37 -238v-673h-180v673q0 258 -224 258q-80 0 -151 -41q-69 -40 -100 -112q-30 -72 -30 -197v-581h-180z" />
    <glyph glyph-name="i" unicode="i" horiz-adv-x="504" 
d="M133 0v1062h180v-1062h-180zM133 1259v207h180v-207h-180z" />
    <glyph glyph-name="j" unicode="j" horiz-adv-x="515" 
d="M-94 -412l34 153q56 -14 85 -14q76 0 99 77q10 33 10 142v1116h180v-1120q0 -195 -51 -273q-66 -100 -216 -100q-75 0 -141 19zM134 1257v209h180v-209h-180z" />
    <glyph glyph-name="k" unicode="k" horiz-adv-x="952" 
d="M28 0v1466h180v-836l426 432h233l-406 -394l447 -668h-222l-351 543l-127 -122v-421h-180z" />
    <glyph glyph-name="l" unicode="l" horiz-adv-x="416" 
d="M113 0v1466h180v-1466h-180z" />
    <glyph glyph-name="m" unicode="m" horiz-adv-x="1608" 
d="M102 0v1062h161v-149q111 173 333 173t289 -186q126 186 328 186q328 0 328 -357v-729h-179v669q0 90 -10 129q-33 132 -173 132t-203 -87t-63 -226v-617h-180v690q0 240 -188 240q-176 0 -234 -157q-29 -78 -29 -222v-551h-180z" />
    <glyph glyph-name="n" unicode="n" horiz-adv-x="1041" 
d="M102 0v1062h162v-151q117 175 338 175q301 0 353 -258q10 -46 10 -175v-653h-180v646q0 193 -95 252q-53 32 -126 32q-282 0 -282 -350v-580h-180z" />
    <glyph glyph-name="o" unicode="o" horiz-adv-x="1139" 
d="M322 809q-69 -107 -69 -279t69 -278q83 -128 244 -128q163 0 244 131q68 110 68 279q0 170 -71 277q-83 126 -243 126q-159 0 -242 -128zM68 531q0 294 164 437q136 118 334 118q236 0 366 -150q131 -152 131 -390q0 -372 -240 -505q-119 -65 -257 -65q-244 0 -371 154
q-127 152 -127 401z" />
    <glyph glyph-name="p" unicode="p" horiz-adv-x="1075" 
d="M299 801q-65 -119 -65 -277q0 -160 60 -267q75 -133 226 -133q152 0 228 139q61 110 61 273q0 164 -61 273q-75 136 -222 136q-148 0 -227 -144zM71 -407v1469h164v-138q115 162 308 162q286 0 397 -267q53 -129 53 -280q0 -351 -228 -493q-112 -70 -235 -70
q-172 0 -279 134v-517h-180z" />
    <glyph glyph-name="q" unicode="q" horiz-adv-x="1108" 
d="M257 534q0 -164 63 -274q78 -136 226 -136t223 131q61 106 61 267q0 160 -63 277q-79 145 -229 145t-224 -138q-57 -108 -57 -272zM812 -407v520q-98 -137 -278 -137q-221 0 -348 178q-114 158 -114 387q0 345 217 480q106 65 231 65q198 0 310 -166v142h162v-1469h-180z
" />
    <glyph glyph-name="r" unicode="r" horiz-adv-x="718" 
d="M480 900q-203 0 -203 -344v-556h-180v1062h162v-161q102 185 230 185q91 0 185 -58l-62 -167q-66 39 -132 39z" />
    <glyph glyph-name="s" unicode="s" horiz-adv-x="960" 
d="M63 317l178 28q32 -221 275 -221q97 0 170 40q74 41 74 129q0 61 -44 91t-204 69q-159 41 -204 57q-215 83 -215 270q0 152 116 229t275 77q262 0 359 -133q46 -62 62 -165l-176 -24q-25 174 -232 174q-230 0 -230 -137q0 -75 91 -111q25 -9 178 -51q158 -43 190 -55
q219 -80 219 -277t-204 -287q-102 -44 -224 -44q-392 0 -454 341z" />
    <glyph glyph-name="t" unicode="t" horiz-adv-x="569" 
d="M528 161l26 -159q-74 -16 -136 -16q-178 0 -228 113q-22 50 -22 212v611h-132v140h132v263l179 108v-371h181v-140h-181v-621q0 -80 13 -105q21 -42 89 -42q33 0 79 7z" />
    <glyph glyph-name="u" unicode="u" horiz-adv-x="1012" 
d="M767 0v156q-125 -180 -333 -180q-302 0 -356 260q-11 57 -11 168v658h180v-589q0 -140 11 -190q35 -152 208 -152q82 0 152 41q71 40 100 113q30 72 30 208v569h180v-1062h-161z" />
    <glyph glyph-name="v" unicode="v" horiz-adv-x="1024" 
d="M430 0l-404 1062h190l228 -636q39 -108 68 -214q25 88 67 202l236 648h185l-402 -1062h-168z" />
    <glyph glyph-name="w" unicode="w" horiz-adv-x="1511" 
d="M363 0l-325 1062h186l232 -841q13 60 55 219l169 622h185l212 -819l243 819h175l-332 -1062h-187l-169 636l-41 181l-215 -817h-188z" />
    <glyph glyph-name="x" unicode="x" horiz-adv-x="1056" 
d="M15 0l388 552l-359 510h225l163 -249q34 -50 74 -119q40 62 81 117l179 251h215l-367 -500l395 -562h-221l-276 419l-279 -419h-218z" />
    <glyph glyph-name="y" unicode="y" horiz-adv-x="1024" 
d="M127 -409l-20 169q57 -16 103 -16q109 0 155 76q17 28 39 88q8 23 18.5 53t13.5 37l-403 1064h194l221 -615q48 -136 77 -246q32 128 74 242l227 619h180l-404 -1080q-66 -176 -101 -241q-93 -172 -258 -172q-53 0 -116 22z" />
    <glyph glyph-name="z" unicode="z" horiz-adv-x="1024" 
d="M40 0v146l676 776q-115 -6 -203 -6h-433v146h868v-119l-686 -797q122 9 227 9h491v-155h-940z" />
    <glyph glyph-name="braceleft" unicode="{" horiz-adv-x="850" 
d="M713 1557q-249 -85 -249 -222v-378q0 -134 -11 -173q-26 -72 -131 -113q104 -41 131 -114q11 -41 11 -176v-375q0 -140 249 -223l20 -100q-218 12 -314 63q-143 75 -143 270v399q0 128 -67 179q-26 21 -189 80q157 50 186 71q70 52 70 181v398q0 195 142 271
q95 50 315 61z" />
    <glyph glyph-name="bar" unicode="|" horiz-adv-x="791" 
d="M360 -322v2035h128v-2035h-128z" />
    <glyph glyph-name="braceright" unicode="}" horiz-adv-x="870" 
d="M487 1583q120 -81 120 -259v-398q0 -130 66 -180q31 -21 189 -73q-160 -57 -189 -78q-66 -51 -66 -180v-399q0 -195 -141 -270q-97 -51 -316 -63l21 100q246 82 246 223v375q0 134 14 176q26 75 129 115q-104 39 -129 112q-14 39 -14 173v378q0 140 -246 221l-21 100
q109 -4 196 -19q80 -13 141 -54z" />
    <glyph glyph-name="asciitilde" unicode="~" horiz-adv-x="1616" 
d="M1473 924q-23 -215 -150 -356q-88 -97 -229 -97q-138 0 -298 103q-13 9 -50.5 33t-60.5 38q-170 109 -261 109t-145 -77q-55 -77 -68 -215h-66q28 279 181 403q44 36 86 43q36 7 79 7q35 0 73 -5q31 -5 64 -17q45 -17 128 -69q85 -54 158 -92q142 -92 249 -92
q65 0 126 48q100 77 119 236h65z" />
    <glyph glyph-name="uni00A0" unicode="&#xa0;" horiz-adv-x="649" 
 />
    <glyph glyph-name="exclamdown.001" unicode="&#xa1;" horiz-adv-x="552" 
d="M449 -119q5 -65 5 -97q0 -38 -30 -82t-83 -44q-113 0 -113 156q0 2 5 67l85 1008h46zM453 1129q0 -47 -31 -81q-33 -34 -80 -34q-48 0 -78 34q-32 33 -32 81t32 81q30 34 78 34q47 0 80 -34q31 -34 31 -81z" />
    <glyph glyph-name="cent" unicode="&#xa2;" horiz-adv-x="964" 
d="M586 860q-24 10 -53 10q-97 0 -156 -72q-80 -100 -80 -247t74 -287zM901 353q-48 -191 -164 -297q-89 -82 -221 -82q-79 0 -157 33l-140 -386h-79l154 428q-75 71 -122 169q-43 97 -43 234q0 254 157 392q121 106 272 106q24 0 57 -4l187 507q20 -9 40 -9q21 0 43 13
l-194 -532q99 -47 141 -93q41 -49 41 -111q0 -90 -97 -90q-58 0 -82 32q-26 30 -32 75q-4 40 -14 68l-219 -611q86 -58 155 -58q125 0 196 83q28 34 83 149z" />
    <glyph glyph-name="sterling" unicode="&#xa3;" horiz-adv-x="1147" 
d="M322 188q-46 29 -87 29q-96 0 -96 -90q0 -80 64 -80q81 0 119 141zM315 829q-14 184 -14 284q0 289 204 414q94 58 202 58q107 0 193 -60q85 -60 85 -166q0 -32 -25 -65q-27 -31 -67 -31q-77 0 -87 127q-9 126 -124 126q-192 0 -192 -300q0 -147 8 -224q9 -92 14 -163
h280v-116h-278v-67q0 -186 -64 -384q21 -6 42 -22q24 -16 57 -29q72 -30 151 -30q70 0 146 24q118 37 182 109q10 11 13 21l28 5q-20 -146 -92 -246q-92 -122 -226 -122q-96 0 -188 58q-36 19 -162 113q-85 -171 -202 -171q-59 0 -95 42q-38 39 -38 93q0 89 52 137
q52 49 130 49q39 0 87 -7q3 18 3 38v40q0 94 -21 349h-210v116h208z" />
    <glyph glyph-name="currency" unicode="&#xa4;" horiz-adv-x="1152" 
d="M966 743v10q0 145 -117 260q-116 113 -256 113h-14q-164 0 -275 -112q-110 -112 -110 -272q0 -162 112 -274q111 -112 271 -112q159 0 275 113q114 113 114 274zM272 1116q128 109 306 109t305 -109l188 176l69 -70l-188 -173q109 -145 109 -307q0 -164 -109 -304
l179 -178l-62 -61q13 -13 11 -15q-6 0 -21 6q-51 47 -176 179q-142 -109 -291 -109q-211 0 -320 109l-178 -177l-70 68l180 178q-110 121 -110 298t110 313l-193 180l67 69z" />
    <glyph glyph-name="yen" unicode="&#xa5;" horiz-adv-x="1158" 
d="M1111 1469q-27 0 -83 -56q-2 -4 -3 -5q-1 0 -2 -2l-1 -2q-48 -35 -92 -141l-230 -518l360 -2v-90l-399 2l-6 -11v-173l405 -4v-90l-405 2v-109q0 -123 13 -157q15 -31 49 -41q40 -12 63 -23l41 -38h15v-11h-566l12 28q22 20 26 24q4 3 11 8t10 8q11 8 37 8q29 0 56 7
q24 20 32 48q7 25 7 139v109l-408 -2v90l408 4v150l-15 34l-393 -2v90l354 2l-229 529q-51 117 -122 161q-24 15 -56 15l2 30h482v-11q-41 -5 -83 -50q-41 -38 -41 -50t17 -65l229 -551l225 535q21 50 21 70t-20 48q-20 26 -70 40q-2 2 -6 2q-3 0 -11 2l-18 30h384v-11z" />
    <glyph glyph-name="brokenbar" unicode="&#xa6;" horiz-adv-x="358" 
d="M244 -442h-83v748h83v-748zM244 674h-83v748h83v-748z" />
    <glyph glyph-name="section" unicode="&#xa7;" horiz-adv-x="882" 
d="M731 399q0 125 -195 287q-41 24 -104 72q-74 -49 -106 -84q-31 -34 -31 -94q0 -58 38 -122q37 -64 165 -166q32 -37 61 -68l108 71q64 52 64 104zM614 1108l11 89q0 9 -3 9h-5q-12 0 -23 14q-19 15 -30 19h-1q-9 -7 -51 -14q-36 -7 -51 -7q-12 0 -15 1q-59 -62 -59 -96
q0 -59 23 -97q37 -64 131 -135q176 -136 241 -243q46 -76 46 -163q0 -195 -190 -319q105 -124 105 -236q0 -111 -71 -190q-70 -80 -172 -80t-168 62q-66 60 -66 152q0 32 20 60q21 27 53 27q70 0 70 -86l-14 -101q0 -16 17 -21q6 -3 30 -11q26 -11 46 -11q88 0 110 22
q47 49 47 103q0 55 -35 112q-33 56 -172 167q-136 108 -190 197q-51 86 -51 174q0 191 191 316q-106 125 -106 238t72 191q70 78 172 78q99 0 167 -59q67 -60 67 -150q0 -89 -73 -89t-73 77z" />
    <glyph glyph-name="dieresis" unicode="&#xa8;" horiz-adv-x="707" 
d="M238 1356q32 -32 32 -78q0 -45 -32 -77q-32 -31 -79 -31t-79 31q-33 31 -33 77q0 45 33 78q33 31 78 31q48 0 80 -31zM616 1278q0 -45 -32 -77q-32 -31 -79 -31t-79 31q-33 31 -33 77q0 45 33 78q34 31 79 31t79 -31q32 -34 32 -78z" />
    <glyph glyph-name="copyright" unicode="&#xa9;" horiz-adv-x="1557" 
d="M1152 843l-46 29q-28 93 -114 152q-85 58 -185 58q-158 0 -245 -122q-69 -98 -69 -267t71 -275q83 -122 253 -122q206 0 309 145l9 -6q-143 -209 -345 -209t-337 126t-135 326q0 199 146 330q146 129 354 129q69 0 140 -23t80 -23q-8 0 3 4l12 3q27 6 41 20l37 21z
M1333 362q83 151 83 320t-87 320t-238 232q-151 82 -317 82q-168 0 -316 -86q-148 -84 -234 -235q-84 -150 -84 -319t86 -320q88 -150 236 -232q150 -84 319 -84q168 0 319 86q150 87 233 236zM1134 1292q166 -93 260 -262q94 -166 94 -355t-96 -355q-96 -167 -262 -259
q-169 -92 -355 -92q-187 0 -354 95q-165 95 -259 263q-93 167 -93 355q0 185 97 356q99 169 266 258q166 91 352 91q184 0 350 -95z" />
    <glyph glyph-name="guillemotleft" unicode="&#xab;" horiz-adv-x="1078" 
d="M518 -12l-34 13l-422 463l423 469l31 1l-244 -470zM975 -31l-474 495q134 159 406 436q38 41 42 32l17 8l-246 -476z" />
    <glyph glyph-name="registered" unicode="&#xae;" horiz-adv-x="1557" 
d="M902 878q0 83 -56 134q-56 50 -139 50q-33 0 -78 -14l2 -306q37 -2 89 -13q38 -8 55 -8q12 0 18 3q109 46 109 154zM1179 247h-190l-291 401l-67 -21l-2 -279q4 -24 43 -58q38 -33 69 -33v-10h-364v10q21 0 52 33q17 11 40 41q6 17 6 91v519q0 77 -5 89q-3 16 -21 29
q-42 47 -60 47v10h383q121 0 210 -56q90 -57 90 -171q0 -166 -217 -224l203 -290q37 -52 60 -67q21 -14 61 -19v-42zM1333 362q83 151 83 320t-87 320t-238 232q-151 82 -317 82q-168 0 -316 -86q-148 -84 -234 -235q-84 -150 -84 -319t86 -320q88 -150 236 -232
q150 -84 319 -84q168 0 319 86q150 87 233 236zM1134 1292q166 -93 260 -262q94 -166 94 -355t-96 -355q-96 -167 -262 -259q-169 -92 -355 -92q-187 0 -354 95q-165 95 -259 263q-93 167 -93 355q0 185 97 356q99 169 266 258q166 91 352 91q184 0 350 -95z" />
    <glyph glyph-name="degree" unicode="&#xb0;" horiz-adv-x="732" 
d="M518 1336q62 64 62 154t-62 152t-153 62t-153 -62t-62 -153t62 -153t152 -62t154 62zM584 1707q89 -89 89 -219q0 -129 -89 -218q-91 -89 -219 -89q-129 0 -218 89t-89 218t88 219q91 89 219 89q130 0 219 -89z" />
    <glyph glyph-name="uni2072" unicode="&#xb2;" horiz-adv-x="612" 
d="M480 1002h-461v35q68 76 143 161q204 230 204 361q0 67 -44 107q-42 39 -106 39q-28 0 -44 -30q-14 -34 -31 -82q-25 -49 -58 -49q-59 0 -59 54q0 63 90 132q87 71 147 71q88 0 149 -61q61 -60 61 -150t-44 -172q-42 -79 -111 -158q-104 -117 -129 -145h209q37 0 52 15
q14 15 42 60h40z" />
    <glyph glyph-name="uni2073" unicode="&#xb3;" horiz-adv-x="550" 
d="M192 1379l-56 1v37q205 72 205 183q0 49 -53 80q-51 30 -92 30q-40 0 -49 -23q-7 -17 -22 -65q-22 -46 -69 -46q-42 0 -46 49q4 45 72 110q67 64 168 64t155 -66q37 -44 37 -101q0 -92 -114 -184q66 -29 109 -70q41 -42 42 -114v-8q0 -118 -87 -190q-91 -74 -226 -74
q-136 0 -136 63q0 29 22 47q20 19 50 19q28 0 81 -21t93 -21q41 0 70 41q29 43 29 92q0 50 -22 88q-45 79 -161 79z" />
    <glyph glyph-name="paragraph" unicode="&#xb6;" horiz-adv-x="949" 
d="M917 1551l-125 -59v-1740l-104 1v1732l-138 -34v-1699l-119 1v1037q-85 5 -105 12q-18 4 -95 39q-195 89 -195 323q0 235 198 337l72 38q33 12 100 12h511z" />
    <glyph glyph-name="uni2071" unicode="&#xb9;" horiz-adv-x="428" 
d="M56 983v53q66 1 73 5q31 10 31 61v500q0 37 -25 37q-7 0 -76 -31v68l202 123v-718q2 -30 13 -37q12 -8 91 -9v-52h-309z" />
    <glyph glyph-name="guillemotright" unicode="&#xbb;" horiz-adv-x="932" 
d="M523 462l-437 -461l-29 -17l247 478l-246 477l33 -14q23 -21 191 -199q169 -179 241 -264zM962 462l-467 -494l257 494l-257 496z" />
    <glyph glyph-name="onequarter" unicode="&#xbc;" horiz-adv-x="1513" 
d="M1268 232v295l-243 -295h243zM483 659h-333v42q88 0 97 20q4 8 4 70v372q0 117 -30 117h-1q-2 -10 -27 -21l-21 36l169 89h41v-593q0 -60 8 -75q6 -15 93 -15v-42zM1387 1444l-1023 -1498h-101l934 1498h190zM1501 142h-107v-182h-126v182h-341v79l376 465h91v-454h107
v-90z" />
    <glyph glyph-name="onehalf" unicode="&#xbd;" horiz-adv-x="1552" 
d="M483 659h-333v42q88 0 97 20q4 8 4 70v372q0 117 -30 117q-19 0 -68 -21l-21 36l210 89h40v-593q0 -57 8 -75q8 -16 93 -15v-42zM1274 1384l-935 -1438h-100l935 1438h100zM1496 122l-64 -162h-499v37q247 191 327 311q48 72 48 136t-40 103t-99 39q-118 0 -161 -118h-54
q32 218 246 218q93 0 167 -52q75 -52 75 -130q0 -77 -48 -154q-72 -111 -283 -284h172q66 0 101 8q32 7 58 48h54z" />
    <glyph glyph-name="threequarters" unicode="&#xbe;" horiz-adv-x="1511" 
d="M1269 232v295l-243 -295h243zM388 1081q140 -54 140 -181q0 -128 -109 -197q-92 -59 -235 -59q-142 0 -142 68q0 50 64 50q27 0 84 -24q56 -24 98 -24q41 0 80 36q38 38 38 90q0 160 -219 160h-11v38q68 0 126 40q55 43 55 109q0 105 -115 105q-82 0 -145 -89l-46 20
q40 81 94 121q53 40 135 40q83 0 145 -40q63 -39 63 -108q0 -70 -100 -155zM1332 1444l-980 -1498h-101l934 1498h147zM1501 142h-107v-182h-125v182h-342v79l376 465h91v-454h107v-90z" />
    <glyph glyph-name="uni00D7" unicode="&#xd7;" horiz-adv-x="1364" 
d="M1169 1028l-344 -342l344 -344l-120 -121l-343 344l-342 -344l-123 121l345 342l-345 344l121 122l342 -345l345 345z" />
    <glyph glyph-name="uni00F7" unicode="&#xf7;" horiz-adv-x="1239" 
d="M723 169q-38 -34 -94 -34t-89 33q-35 32 -35 88q0 55 35 93q36 38 90 38q53 0 93 -38q39 -37 39 -92q0 -53 -39 -88zM724 1022q-38 -35 -93 -35t-91 37q-35 37 -35 90t35 91q36 38 90 38q53 0 93 -38q39 -37 39 -93q0 -54 -38 -90zM51 599v181h1161v-181h-1161z" />
    <glyph glyph-name="uni0964" unicode="&#x964;" horiz-adv-x="958" 
d="M642 -21h-228v1334h228v-1334z" />
    <glyph glyph-name="uni0965" unicode="&#x965;" horiz-adv-x="1345" 
d="M788 1313h228v-1334h-228v1334zM327 1313h228v-1334h-228v1334z" />
    <glyph glyph-name="uni0A01" unicode="&#xa01;" horiz-adv-x="0" 
d="M-314 1746q-84 0 -112 67q-8 21 -9 43q0 44 32 78q33 31 66 31q57 0 89 -32t32 -66q0 -57 -32 -89t-66 -32zM-511 1487q-135 79 -135 269q0 14 2 48q10 120 51 120q34 0 46 -98t63 -148q49 -49 159 -49q197 0 227 209q8 86 42 86q40 0 48 -102q3 -35 2 -60
q0 -68 -13 -121q-30 -100 -115 -149q-85 -50 -192 -50q-105 0 -185 45z" />
    <glyph glyph-name="uni0A02" unicode="&#xa02;" horiz-adv-x="250" 
d="M-76 1082v234h362v-234h-362zM-74 1495q-48 49 -48 119t48 118q49 50 120 50q70 0 119 -50q49 -48 49 -118t-49 -119t-119 -49q-71 0 -120 49z" />
    <glyph glyph-name="uni0A03" unicode="&#xa03;" horiz-adv-x="642" 
d="M266 418q-36 -36 -36 -87t36 -87t87 -36t87 36t36 87t-36 87q-36 37 -87 37t-87 -37zM81 331q0 112 80 192q79 79 192 79t192 -79q80 -80 80 -192t-80 -192q-79 -79 -192 -79t-192 79q-80 80 -80 192zM266 1124q-36 -36 -36 -86t36 -88q36 -36 87 -36t87 36q36 38 36 88
t-36 86q-36 37 -87 37t-87 -37zM81 1037q0 111 80 193q81 79 192 79t192 -79q80 -82 80 -193q0 -112 -80 -192q-79 -79 -192 -79t-192 79q-80 80 -80 192z" />
    <glyph glyph-name="uni0A05" unicode="&#xa05;" horiz-adv-x="1570" 
d="M1391 1082v-1082h-236v651q-86 -38 -139 -77q-53 -43 -83 -152q-47 -176 -58 -198q-51 -107 -161 -107q-71 0 -122 35q-53 33 -53 117q0 83 110 211q110 130 110 213q0 128 -59 258q-100 -72 -208 -216q-111 -147 -112 -233q-3 -87 -56 -154q-52 -67 -130 -67t-128 43
q-49 44 -49 114t77 179q78 108 78 191q0 274 -78 274h-108v234h178q98 0 164 -134q50 -96 70 -232q104 120 156 179q106 105 182 105h8q112 -26 182 -210q37 -100 57 -215q94 62 172 92v415h441v-234h-205z" />
    <glyph glyph-name="uni0A06" unicode="&#xa06;" horiz-adv-x="2060" 
d="M1856 1082v-599h-228l-4 599h-233v-1082h-236v651q-86 -38 -139 -77q-53 -43 -83 -152q-47 -176 -58 -198q-51 -107 -161 -107q-71 0 -122 35q-53 33 -53 117q0 83 110 211q110 130 110 213q0 128 -59 258q-100 -72 -208 -216q-111 -147 -112 -233q-3 -87 -56 -154
q-52 -67 -130 -67t-128 43q-49 44 -49 114t77 179q78 108 78 191q0 274 -78 274h-108v234h178q98 0 164 -134q50 -96 70 -232q104 120 156 179q106 105 182 105h8q112 -26 182 -210q37 -100 57 -215q94 62 172 92v415h937v-234h-236z" />
    <glyph glyph-name="uni0A07" unicode="&#xa07;" horiz-adv-x="1660" 
d="M1256 1082h-500q27 -68 59 -103q93 -103 184 -121h257v224zM1431 625l-221 4q-167 0 -290 -42q-123 -43 -225 -172q77 -78 207 -141q123 -59 209 -59h11q91 5 180 91q90 87 120 87q64 0 64 -88q0 -87 -104 -191q-104 -103 -220 -112q-13 -1 -41 -1q-202 0 -411 115
q-209 117 -276 291q40 165 287 339q-43 41 -114 124q-63 87 -95 212h-206v-1082h-231v1082h-141v234h141q1 270 77 398q96 165 338 165h23q360 -13 360 -380q0 -33 -5 -80h-222q-5 81 -8 99q-5 33 -20 63q-33 69 -144 69t-149 -119q-19 -63 -19 -215h1386v-234h-205v-457
h-56z" />
    <glyph glyph-name="uni0A08" unicode="&#xa08;" horiz-adv-x="1813" 
d="M1012 625l-221 4q-169 0 -289 -42q-123 -42 -226 -172q78 -78 208 -141q123 -59 208 -59h10q91 5 180 91q92 87 121 87q64 0 64 -88q0 -87 -105 -191q-103 -103 -219 -112q-13 -1 -41 -1q-204 0 -410 115q-209 115 -277 291q40 165 287 339q-43 41 -114 124
q-63 87 -95 212h-103v234h1393q0 152 -19 215q-38 119 -154 119q-81 0 -115 -34q-33 -32 -44 -112q-5 -33 -11 -85h-222q-1 19 -1 53q0 249 164 350q91 57 194 57q263 0 363 -171q75 -126 76 -392h240v-234h-240v-1082h-231v1082h-315v-457h-56zM837 1082h-500
q27 -68 59 -103q93 -103 184 -121h257v224z" />
    <glyph glyph-name="uni0A09" unicode="&#xa09;" horiz-adv-x="1377" 
d="M851 504q-62 68 -122 68q-5 0 -15 -2q-64 -10 -347 -10q115 -336 369 -336h10q175 4 175 125q0 79 -70 155zM315 1082q2 -177 10 -288l234 -2l-5 -1q112 1 184 23q170 48 267 268h-690zM678 1622q-331 0 -361 -306h707q-16 159 -95 233q-77 73 -251 73zM1250 1082
q-91 -274 -262 -392q172 -138 172 -335q0 -153 -108 -259q-110 -107 -297 -107q-675 0 -675 1093h-94v234h96q16 256 178 398q160 142 420 142t412 -142q153 -143 171 -398h144v-234h-157zM546 791h-12h12zM375 -134q207 -77 379 -77t370 77v-207q-33 -14 -57 -19
q-11 -3 -104 -29q-77 -21 -227 -24h-13q-147 0 -348 72v207z" />
    <glyph glyph-name="uni0A0A" unicode="&#xa0a;" horiz-adv-x="1372" 
d="M851 504q-62 68 -122 68q-5 0 -15 -2q-64 -10 -347 -10q115 -336 369 -336h10q175 4 175 125q0 79 -70 155zM315 1082q2 -177 10 -288l234 -2l-5 -1q112 1 184 23q170 48 267 268h-690zM678 1622q-331 0 -361 -306h707q-16 159 -95 233q-77 73 -251 73zM1250 1082
q-91 -274 -262 -392q172 -138 172 -335q0 -153 -108 -259q-110 -107 -297 -107q-675 0 -675 1093h-94v234h96q16 256 178 398q160 142 420 142t412 -142q153 -143 171 -398h144v-234h-157zM546 791h-12h12zM356 -412q204 -70 379 -70t370 70v-194q-201 -70 -386 -70
q-85 2 -164 15q-96 18 -199 55v194zM356 -83q202 -75 380 -75q179 0 369 75v-195q-180 -74 -367 -74q-186 0 -382 74v195z" />
    <glyph glyph-name="uni0A0F" unicode="&#xa0f;" horiz-adv-x="1254" 
d="M837 1082h-500q27 -68 59 -103q93 -103 184 -121h257v224zM1012 625l-221 4q-169 0 -289 -42q-123 -42 -226 -172q78 -78 208 -141q123 -59 208 -59h10q91 5 180 91q92 87 121 87q64 0 64 -88q0 -87 -105 -191q-103 -103 -219 -112q-13 -1 -41 -1q-204 0 -410 115
q-209 115 -277 291q40 165 287 339q-43 41 -114 124q-63 87 -95 212h-103v234h1283v-234h-205v-457h-56zM741 1770q80 -68 196 -248q62 -98 62 -162v-11q-1 -27 -20 -25q-9 2 -71 83q-63 81 -171 153q-29 19 -97 61q-108 64 -323 80q-14 12 -23 17q-14 8 -24 18
q-18 23 -18 62q0 14 1 21q19 111 121 111q10 0 32 -2q181 -25 335 -158z" />
    <glyph glyph-name="uni0A10" unicode="&#xa10;" horiz-adv-x="1567" 
d="M1391 1082v-1082h-236v651q-86 -38 -139 -77q-53 -43 -83 -152q-47 -176 -58 -198q-51 -107 -161 -107q-71 0 -122 35q-53 33 -53 117q0 83 110 211q110 130 110 213q0 128 -59 258q-100 -72 -208 -216q-111 -147 -112 -233q-3 -87 -56 -154q-52 -67 -130 -67t-128 43
q-49 44 -49 114t77 179q78 108 78 191q0 274 -78 274h-108v234h178q98 0 164 -134q50 -96 70 -232q104 120 156 179q106 105 182 105h8q112 -26 182 -210q37 -100 57 -215q94 62 172 92v415h441v-234h-205zM764 1488l-119 -6q-127 0 -127 81q0 45 42 80q40 34 87 37t69 3
q202 0 456 -184q-51 76 -167 180q-106 97 -262 97q-21 0 -32 -1q-53 -4 -68 -4q-103 0 -103 81q0 60 55 91q56 32 111 32q209 0 364 -158q112 -118 213 -344q35 -78 35 -113q0 -37 -16 -37q-15 0 -40 14q-256 150 -461 151h-37z" />
    <glyph glyph-name="uni0A13" unicode="&#xa13;" horiz-adv-x="1415" 
d="M858 514q-64 69 -124 69q-4 1 -14 -1q-59 -9 -341 -11q112 -337 370 -337h9q171 4 171 123q2 80 -71 157zM325 1082q2 -169 11 -276q234 -2 234 -3h-3q116 5 182 23q175 50 266 256h-690zM710 1908l63 2q436 0 436 -148q0 -93 -269 -95q-35 1 -94.5 2.5t-80.5 1.5
q-200 -2 -294 -85q-95 -84 -135 -270h1095v-234h-169q-89 -261 -262 -380q184 -130 184 -356q0 -150 -105 -250q-103 -100 -308 -100h-4q-403 1 -567 376q-109 254 -109 710h-95v234h99q30 260 193 426q165 166 422 166z" />
    <glyph glyph-name="uni0A14" unicode="&#xa14;" horiz-adv-x="1565" 
d="M1391 1082v-1082h-236v651q-86 -38 -139 -77q-53 -43 -83 -152q-47 -176 -58 -198q-51 -107 -161 -107q-71 0 -122 35q-53 33 -53 117q0 83 110 211q110 130 110 213q0 128 -59 258q-100 -72 -208 -216q-111 -147 -112 -233q-3 -87 -56 -154q-52 -67 -130 -67t-128 43
q-49 44 -49 114t77 179q78 108 78 191q0 274 -78 274h-108v234h178q98 0 164 -134q50 -96 70 -232q104 120 156 179q106 105 182 105h8q112 -26 182 -210q37 -100 57 -215q94 62 172 92v415h441v-234h-205zM1264 1428q50 89 50 126q0 38 -31 76q-32 37 -83 37t-84 -33
q-32 -32 -32 -74q0 -41 13 -60q19 -47 19 -73q0 -8 -2 -14q-24 -24 -51 -24q-28 0 -81 43q-53 44 -63 106q-10 61 -10 71q-8 4 -92 10q-130 9 -209 80q-77 72 -81 194q0 90 59 101h3q27 0 51 -57q25 -56 30 -61q46 -57 193 -57q65 2 179 29q111 27 170 26h8q138 -4 210 -105
q48 -65 48 -147q0 -84 -48 -157q-48 -74 -114 -74q-36 0 -52 37z" />
    <glyph glyph-name="uni0A15" unicode="&#xa15;" horiz-adv-x="1305" 
d="M624 647q-95 74 -190 74q-97 0 -148 -56q-52 -55 -52 -138q0 -81 52 -136q54 -54 132 -54q157 0 299 217zM1153 1082q-16 -166 -53 -292q-37 -122 -108 -238q115 -260 205 -552h-240q-10 23 -118 325q-170 -216 -423 -221h-6q-183 0 -302 122q-116 119 -116 298v15
q4 189 137 309q121 110 295 110q12 0 34 -2q196 -12 381 -191q69 167 83 317h-927v234h1334v-234h-176z" />
    <glyph glyph-name="uni0A16" unicode="&#xa16;" horiz-adv-x="1224" 
d="M810 739h-410q-23 -101 -74 -217q103 -74 274 -74q98 0 210 97v194zM1042 1082v-1082h-232v275q-112 -60 -256 -60q-344 0 -495 262q8 23 39.5 108t48.5 131q45 140 45 226t-6 106q-9 34 -45 34h-155v234h214q212 0 222 -343h388v343h442v-234h-210z" />
    <glyph glyph-name="uni0A17" unicode="&#xa17;" horiz-adv-x="1358" 
d="M532 633h-106q-106 0 -134 -28t-27 -110t57 -172t138 -90q58 0 72 57v343zM1378 1082h-200v-1082h-233v1082h-180v-745q0 -337 -303 -337q-188 0 -308 156t-120 332t95 276q94 101 248 101h155v217h-537v234h1383v-234z" />
    <glyph glyph-name="uni0A18" unicode="&#xa18;" horiz-adv-x="1428" 
d="M790 594q0 -157 113 -157q57 0 79 9q22 10 32 46v824h439v-234h-204v-1082h-235v225q-61 -23 -115 -23q-113 0 -228 104q-131 -111 -253 -111q-124 0 -258 103q-135 104 -145 212q47 90 99 242q51 153 51 236q0 84 -64 94h-115v234h181q54 0 111 -48q56 -47 91 -116
q30 -61 30 -149v-21q-5 -102 -127 -456q104 -98 146 -98q149 0 149 235q0 51 -19 145q-18 93 -18 158q0 62 45 157q54 115 128 115q66 0 111 -115q37 -89 37 -155q0 -68 -31 -180q-30 -114 -30 -194z" />
    <glyph glyph-name="uni0A19" unicode="&#xa19;" horiz-adv-x="1216" 
d="M591 299q-103 85 -203 85t-109 -58q-1 -5 -1 -13q0 -46 56 -66q34 -12 85 -12q18 0 28 1q69 4 144 63zM302 1082v-131h408q178 0 275 -100q98 -101 98 -244q0 -197 -160 -330q61 -92 95 -153q27 -49 58 -135h-247q-23 48 -82 149q-142 -136 -353 -136q-143 0 -251 82
q-106 84 -106 216q0 131 83 225q84 93 222 99q15 2 30 0q116 0 203 -38q95 -44 195 -138q70 80 70 140t-58 94q-57 36 -118 36h-597v364h-80v234h1261v-234h-946z" />
    <glyph glyph-name="uni0A1A" unicode="&#xa1a;" horiz-adv-x="1261" 
d="M843 563h-434q8 -155 48 -227q59 -101 198 -101q188 0 188 146v182zM1080 1082v-689q0 -195 -117 -294t-299 -99q-338 0 -456 348q-22 61 -33 215h-53q-123 0 -123 130q-2 113 85 187q86 74 204 74t118 -113v-46h437v287h-855v234h1291v-234h-199z" />
    <glyph glyph-name="uni0A1B" unicode="&#xa1b;" horiz-adv-x="1218" 
d="M469 310q-87 -2 -125 -5q-53 -5 -70 -23q-9 -6 -9 -17q0 -46 204 -52v97zM664 310v-97q207 6 207 52q0 10 -6 16q-24 24 -201 29zM128 52q-99 60 -99 204q0 145 93 205q-57 119 -57 225q0 105 79 178q82 70 172 70h490v148h-822v234h1254v-234h-200v-381h-712
q-31 0 -31 -33q0 -14 6 -35q7 -31 21 -87l247 11q313 0 431 -67q120 -68 120 -216q0 -150 -113 -221q-121 -73 -437 -73q-317 0 -442 72z" />
    <glyph glyph-name="uni0A1C" unicode="&#xa1c;" horiz-adv-x="1255" 
d="M1074 1082v-1082h-234v520h-424v-520h-235v520h-43q-126 0 -126 127q0 119 83 197q81 80 202 80q119 0 119 -108v-62h424v328h-845v234h1277v-234h-198z" />
    <glyph glyph-name="uni0A1D" unicode="&#xa1d;" horiz-adv-x="1247" 
d="M337 1082q87 -116 94 -123q71 -62 160 -62h11q97 4 154 64q30 33 79 121h-498zM93 710q0 78 189 119q-119 93 -181 253h-115v234h1292v-234h-206q-55 -187 -170 -278q170 -104 170 -302q0 -196 -165 -303q-95 -60 -238 -60h-22q51 -73 51 -102q0 -68 -63 -68
q-80 0 -187 107q-103 103 -182 103h-6h-12q-120 0 -120 139q0 65 44 107q45 42 109 42q63 0 125 -57q61 -56 117 -58h38q102 0 156 14q109 30 117 128v7q0 66 -66 126q-63 57 -123 57q-9 0 -13 -1q-70 -8 -187 -41q-125 -33 -196 -48q-47 6 -102 38q-54 32 -54 78z" />
    <glyph glyph-name="uni0A1E" unicode="&#xa1e;" horiz-adv-x="1233" 
d="M824 1082h-414q3 -27 36 -76q74 -65 148 -65h230v141zM1052 1082v-366h-652q-28 0 -62 -18q-34 -20 -36 -39q-1 -19 20 -56q21 -36 36 -36h685v-231h-448q68 -158 254 -158q55 0 209 42l-56 -192q-168 -68 -238 -68q-155 0 -278 125q-102 99 -148 232q-45 29 -110 53
q-66 24 -116 104q-42 76 -42 169q0 191 193 266q-17 23 -51 63q-14 20 -42 110h-183v234h1262v-234h-197z" />
    <glyph glyph-name="uni0A1F" unicode="&#xa1f;" horiz-adv-x="1233" 
d="M1054 1082v-369q-63 3 -117 3q-215 0 -365 -68q-147 -67 -288 -241q78 -70 200 -129q126 -60 222 -59q97 -1 153 41q57 43 97 76q41 33 74 35q46 0 46 -64q0 -123 -132 -218q-133 -95 -286 -95q-152 0 -372 126t-261 273q17 99 129 219t214 190q99 70 192 94
q87 21 261 46v140h-826v234h1258v-234h-199z" />
    <glyph glyph-name="uni0A20" unicode="&#xa20;" horiz-adv-x="1238" 
d="M260 451q0 -224 324 -224t324 224v1q0 96 -93 182q-92 85 -231 85t-230 -85q-94 -85 -94 -183zM700 1082l1 -139q195 -42 317 -173q123 -133 124 -311v-5q0 -224 -174 -349q-151 -109 -384 -109q-232 0 -395 117q-162 115 -162 340v6q1 178 124 311q122 131 317 173v139
h-472v234h1275v-234h-571z" />
    <glyph glyph-name="uni0A21" unicode="&#xa21;" horiz-adv-x="1234" 
d="M633 225q-123 99 -241 99q-120 0 -120 -55q0 -25 39 -54q41 -29 109 -29q69 0 213 39zM1054 1082q-45 -92 -96 -158q-3 -3 -123 -116q112 -47 171 -140q59 -95 59 -207q0 -228 -209 -359q-208 -131 -385 -133h-6q-173 0 -282 58q-143 75 -149 223v16q0 136 88 202
q90 69 236 71q263 0 454 -172q28 55 28 104q0 95 -94 153t-216 58q-45 0 -132 -18q-88 -17 -131 -17q-205 0 -205 146q0 83 84 128q66 36 127 36t139 -21q75 -22 118 -22q158 0 276 168h-817v234l1282 1v-235h-217z" />
    <glyph glyph-name="uni0A22" unicode="&#xa22;" horiz-adv-x="1256" 
d="M896 244q-8 59 -79 59h-9q-80 -4 -148 -78q69 -36 144 -36q5 1 14 1q78 3 78 48v6zM1074 1082v-454h-670q10 -120 97 -243q104 129 305 140q9 1 25 1q180 0 258 -135q38 -68 38 -157q0 -90 -57 -160q-82 -108 -278 -108q-288 0 -513 321q-96 136 -109 341h-53
q-116 0 -116 115t94 191t200 76t106 -84v-65h439v221h-857v234h1302v-234h-211z" />
    <glyph glyph-name="uni0A23" unicode="&#xa23;" horiz-adv-x="1268" 
d="M576 1082q74 -37 256 -107q96 -29 300 -67v-203q-150 25 -228 47v-352h-64q-58 111 -123 147q-98 52 -184 52q-7 -1 -20.5 -2t-19.5 -1q-102 -17 -203 -218q64 -76 180 -126q116 -48 234 -54q12 -2 24 0q107 0 224 44q130 50 174 50q46 0 46 -34q0 -63 -121 -153
q-75 -55 -120 -74q-120 -52 -228 -52q-217 0 -396 93q-204 106 -274 301q185 434 455 434q92 0 196 -53v78q-85 25 -244 90q-67 37 -164 160h-283v234l1300 1v-235h-717z" />
    <glyph glyph-name="uni0A24" unicode="&#xa24;" horiz-adv-x="1250" 
d="M1071 1082q-45 -242 -180 -379q188 -125 188 -308t-112 -291q-114 -106 -288 -106q-68 0 -242 47q-38 11 -149 61q-235 106 -237 184q0 18 18 34q18 15 49 15q32 0 174 -48q147 -49 194 -55q47 -8 161 -8q109 0 156 44t47 106q0 105 -98 155q-85 46 -228 46
q-34 0 -118 -13q-74 -14 -118 -14q-199 0 -199 156q0 145 173 145q50 0 161 -25q103 -26 160 -26q178 0 248 280h-840v234l1284 1v-235h-204z" />
    <glyph glyph-name="uni0A25" unicode="&#xa25;" horiz-adv-x="1221" 
d="M810 639h-463l-37 -143q96 -111 216 -111t284 91v163zM810 1082h-430q12 -78 12 -145q0 -34 -3 -65h421v210zM1042 1082v-1082h-232v225q-146 -74 -278 -74q-160 0 -302 105q-113 82 -181 185q105 267 105 502q0 73 -10 139h-156v234h1259v-234h-205z" />
    <glyph glyph-name="uni0A26" unicode="&#xa26;" horiz-adv-x="1254" 
d="M1074 1082v-531h-663q8 -161 73 -243q66 -83 224 -83q54 -1 126 25q27 10 69 26t53 20q54 20 78 20q71 0 71 -71t-119 -158q-118 -87 -283 -87q-501 0 -521 549h-82q-46 -1 -69.5 26.5t-23.5 82.5q0 110 94 207t201 97q106 0 106 -96v-83h434v299h-852v234h1285v-234
h-201z" />
    <glyph glyph-name="uni0A27" unicode="&#xa27;" horiz-adv-x="1213" 
d="M798 1082h-418q7 -66 7 -131q0 -162 -79 -414q96 -109 213 -109q116 0 277 89v565zM1033 1082v-1082h-235v261q-107 -68 -290 -68q-134 -2 -262 87t-200 204q109 270 109 484q0 62 -7 114h-158v234h1239v-234h-196z" />
    <glyph glyph-name="uni0A28" unicode="&#xa28;" horiz-adv-x="1246" 
d="M292 431q0 -105 36 -154q37 -50 121 -68v-243q-189 24 -290 148q-101 122 -101 314v6q1 195 149 335q101 100 260 140v173h-480v234h1288v-234h-575v-173q158 -40 262 -140q145 -140 146 -335v-8q0 -193 -100 -312q-102 -124 -289 -148v243q84 18 121 68q35 50 35 154
t-94 182q-95 78 -199 78q-106 0 -198 -78t-92 -182z" />
    <glyph glyph-name="uni0A2A" unicode="&#xa2a;" horiz-adv-x="1247" 
d="M1067 1082v-1082h-233v280q-146 -80 -309 -80q-164 0 -321 115q-107 79 -133 158q-1 5 -1 14q0 63 39 157q44 108 73 186q31 77 31 122q0 130 -93 130h-129v234h199q111 0 186 -108q73 -108 73 -218q0 -11 -2 -27q-29 -251 -129 -437q132 -99 249 -99q116 0 267 101v788
h432v-234h-199z" />
    <glyph glyph-name="uni0A2B" unicode="&#xa2b;" horiz-adv-x="1245" 
d="M865 285q-12 68 -95 68q-84 0 -193 -109q114 -50 160 -50q129 0 129 77q0 9 -1 14zM1065 1082v-384h-598q-161 0 -161 -119q0 -53 42 -117q4 -5 19.5 -25t27.5 -35q211 160 379 160q117 0 206 -69q114 -87 114 -217t-88 -197q-133 -104 -273 -104q-13 0 -20 1
q-256 14 -464 225q-174 180 -174 375q0 196 153 296q48 32 154 60h452v150h-844v234h1287v-234h-212z" />
    <glyph glyph-name="uni0A2C" unicode="&#xa2c;" horiz-adv-x="1203" 
d="M786 602h-264q-79 -45 -217 -193q121 -89 227 -89q62 0 144 21q83 21 110 57v204zM786 1082h-446q53 -133 209 -246h237v246zM1022 1082v-1082h-236v163q-134 -75 -276 -75q-194 0 -350 138q-82 74 -126 186q50 108 122 184q49 49 162 136q-168 138 -213 350h-115v234
h1229v-234h-197z" />
    <glyph glyph-name="uni0A2D" unicode="&#xa2d;" horiz-adv-x="1225" 
d="M439 749q-152 0 -152 -86q-1 -26 15.5 -42t49.5 -21q20 -3 38 -3q107 0 213 91q-83 61 -164 61zM1081 1082q-21 -231 -158 -389q119 -143 119 -283q0 -217 -152 -330q-140 -102 -335 -102q-24 0 -36 1q-89 3 -215 44q-114 38 -171 83.5t-56 97.5q0 82 91 82q46 0 118 -28
q158 -60 284 -60q124 -2 186 81q44 59 44 127q1 67 -32 117q-184 -155 -375 -155q-192 0 -282 108q-67 79 -67 184q0 164 127 254q95 66 254 66h14q170 -3 321 -115q65 83 85 217h-863v234h1265v-234h-166z" />
    <glyph glyph-name="uni0A2E" unicode="&#xa2e;" horiz-adv-x="1255" 
d="M1074 1082v-1082h-234v528h-415q-22 -194 -51 -283q-59 -185 -178 -185q-156 0 -156 164q0 76 46 175q47 103 88 188q39 96 39 231t-3 174q-3 38 -14 57q-16 33 -65 33h-142v234h207q253 0 253 -443q0 -23 -2 -113h393v556h434v-234h-200z" />
    <glyph glyph-name="uni0A2F" unicode="&#xa2f;" horiz-adv-x="1339" 
d="M929 1082h-581q12 -76 12 -121q0 -215 -99 -477q52 -60 132 -110q81 -51 110 -51q45 0 49 133q1 12 1 44q-2 47 -3 118q-4 112 -3 150h382v314zM1160 1082v-1082h-231v535h-146v-141q0 -131 -78 -215t-211 -84t-286 105q-152 106 -204 234q48 148 104 359q18 102 18 151
q0 50 -15 138h-124v234h1390v-234h-217z" />
    <glyph glyph-name="uni0A30" unicode="&#xa30;" horiz-adv-x="1158" 
d="M746 653h-376q-76 0 -76 -50q0 -19 12 -41q44 -93 113 -166q158 -167 262 -167q65 0 65 104v320zM979 1082v-716q0 -156 -72 -262t-223 -106q-106 0 -228 72q-123 73 -223 185q-175 197 -175 367q0 110 84 188q84 76 215 76h389v196h-750v234h1184v-234h-201z" />
    <glyph glyph-name="uni0A32" unicode="&#xa32;" horiz-adv-x="1350" 
d="M493 1082l162 -313l161 313h-323zM1074 1082l-97 -181q139 -46 223 -168q84 -121 84 -273q0 -195 -137 -330q-136 -136 -332 -136h-56v229h56q99 0 169 69q69 70 69 164t-51 164q-51 69 -134 81l-183 -318h-61l-183 318q-85 -12 -136 -81q-51 -70 -51 -164t70 -164
q69 -69 167 -69h56v-229h-56q-196 0 -331 136q-136 136 -136 330q0 150 84 272q83 122 224 169l-97 181h-242v234h1378v-234h-297z" />
    <glyph glyph-name="uni0A33" unicode="&#xa33;" horiz-adv-x="1460" 
d="M614 1082l163 -313l161 313h-324zM170 -28q-44 -44 -106 -44q-63 0 -107 44t-44 106t44 106t107 44q62 0 106 -44t44 -106t-44 -106zM1196 1082l-97 -181q141 -47 225 -168q83 -122 83 -273q0 -195 -137 -330q-136 -136 -333 -136h-57v229h57q100 0 169 69t69 164
q0 94 -51 164q-53 69 -134 81l-173 -318h-83l-173 318q-84 -12 -137 -81q-51 -70 -51 -164t71 -164q69 -69 167 -69h58v-229h-58q-195 0 -331 136q-137 135 -137 330q0 151 85 272q85 123 226 169l-98 181h-373v234h1513v-234h-300z" />
    <glyph glyph-name="uni0A35" unicode="&#xa35;" horiz-adv-x="1204" 
d="M1024 1082v-372h-664q-112 0 -112 -54q0 -22 26 -51q24 -30 44 -30h682v-235h-451q61 -151 227 -151q89 0 238 37l-54 -200q-147 -59 -239 -59q-154 2 -261 107q-108 106 -159 261q-14 16 -47 27q-35 12 -92 37q-118 61 -144 232q-3 18 -3 36q-1 117 105 196t226 79h447
v140h-799v234h1228v-234h-198z" />
    <glyph glyph-name="uni0A36" unicode="&#xa36;" horiz-adv-x="1253" 
d="M838 1082h-446q41 -162 49 -326h397v326zM714 78q-44 -44 -106 -44t-106 44q-45 44 -45 106q0 61 45 105q44 44 106 44t106 -44t44 -105q0 -62 -44 -106zM1072 1082v-1082h-234v520h-409l-60 -255q-47 -207 -174 -207q-68 0 -116 48q-48 50 -48 118t87 248q86 183 86 298
q0 64 -10 114q-10 51 -45 198h-163v234h1298v-234h-212z" />
    <glyph glyph-name="uni0A38" unicode="&#xa38;" horiz-adv-x="1252" 
d="M838 1082h-446q41 -162 49 -326h397v326zM1072 1082v-1082h-234v520h-409l-60 -255q-47 -207 -174 -207q-68 0 -116 48q-48 51 -48 118q2 68 87 248q86 181 86 298q0 64 -10 114q-10 52 -45 198h-163v234h1298v-234h-212z" />
    <glyph glyph-name="uni0A39" unicode="&#xa39;" horiz-adv-x="1178" 
d="M999 1082v-720q1 -157 -91 -260q-92 -102 -251 -102q-209 0 -401 184q-192 186 -192 395q0 117 92 197t210 80h149v-232h-133q-87 0 -87 -65q-2 -86 125 -206q126 -120 229 -120q119 0 119 124v725h-773v234h1204v-234h-200z" />
    <glyph glyph-name="uni0A3C" unicode="&#xa3c;" horiz-adv-x="0" 
d="M-314 -97q106 1 142 -85q10 -24 10 -55q0 -59 -39 -99q-39 -41 -100 -41q-89 -2 -127 85q-12 27 -11 55q0 56 41 99q43 41 84 41z" />
    <glyph glyph-name="uni0A3E" unicode="&#xa3e;" horiz-adv-x="532" 
d="M320 1082v-599h-228v599h-118v234h582v-234h-236z" />
    <glyph glyph-name="uni0A3F" unicode="&#xa3f;" horiz-adv-x="535" 
d="M702 1419q-5 81 -8 99q-5 33 -20 63q-33 69 -144 69t-149 -119q-19 -63 -19 -215h195v-234h-195v-1082h-231v1082h-141v234h141q1 270 77 398q96 165 338 165h23q360 -13 360 -380q0 -33 -5 -80h-222z" />
    <glyph glyph-name="uni0A40" unicode="&#xa40;" horiz-adv-x="556" 
d="M339 1082v-1082h-231v1082h-119v234h119q0 152 -19 215q-38 119 -154 119q-81 0 -115 -34q-33 -33 -44 -112q-5 -33 -11 -85h-222q-1 19 -1 53q0 249 164 350q91 57 194 57q262 0 363 -171q75 -126 76 -392h240v-234h-240z" />
    <glyph glyph-name="uni0A41" unicode="&#xa41;" horiz-adv-x="24" 
d="M-1019 -134q207 -77 379 -77t370 77v-207q-33 -14 -57 -19q-11 -3 -104 -29q-77 -21 -227 -24h-13q-147 0 -348 72v207z" />
    <glyph glyph-name="uni0A42" unicode="&#xa42;" horiz-adv-x="26" 
d="M-1019 -421q204 -70 379 -70t370 70v-194q-201 -70 -386 -70q-85 2 -164 15q-96 18 -199 55v194zM-1019 -92q203 -75 381 -75t368 75v-195q-180 -74 -366 -74q-187 0 -383 74v195z" />
    <glyph glyph-name="uni0A47" unicode="&#xa47;" horiz-adv-x="18" 
d="M-528 1770q80 -68 196 -248q62 -98 62 -162v-11q-1 -27 -20 -25q-9 2 -71 83q-63 81 -171 153q-29 19 -97 61q-108 64 -323 80q-14 12 -23 17q-13 8 -24 18q-18 23 -18 62q0 14 1 21q20 111 121 111q10 0 32 -2q181 -25 335 -158z" />
    <glyph glyph-name="uni0A48" unicode="&#xa48;" horiz-adv-x="18" 
d="M-793 1501l-119 -6q-127 0 -127 81q0 45 41 80q41 34 88 37q46 3 69 3q202 0 456 -184q-51 76 -167 180q-106 97 -262 97q-21 0 -32 -1q-53 -4 -68 -4q-103 0 -103 81q0 60 55 91q56 32 111 32q209 0 364 -158q112 -118 213 -344q35 -78 35 -114t-16 -36q-15 0 -40 14
q-256 150 -461 151h-37z" />
    <glyph glyph-name="uni0A4B" unicode="&#xa4b;" horiz-adv-x="18" 
d="M-644 1792l105 4h37q209 0 272 -86q33 -40 33 -119q0 -12 -2 -44q-1 -43 -25 -85q-19 -51 -53 -51h-5q-10 0 -22 40q-2 11 -15 57q-5 17 -41 61q-16 22 -110 24q-124 2 -176 2q-82 0 -174 3q-75 10 -115 92q-40 70 -40 152v8q4 59 28 103q27 41 55 41q38 0 43 -39
q1 -7 2.5 -21.5t2.5 -21.5q0 -7 1.5 -22t1.5 -19q15 -52 52 -71q37 -8 79 -8h66z" />
    <glyph glyph-name="uni0A4C" unicode="&#xa4c;" horiz-adv-x="13" 
d="M-359 1428q50 89 50 126q0 38 -31 76q-32 37 -82 37q-52 0 -84 -33q-33 -32 -33 -74q0 -41 13 -60q19 -47 19 -73q0 -8 -2 -14q-24 -24 -51 -24q-28 0 -80 43q-54 43 -64 106q-10 61 -10 71q-8 4 -92 10q-133 9 -208 80q-77 70 -82 194q0 90 59 101h3q26 0 52 -57
q23 -55 29 -61q47 -57 193 -57q65 2 179 29q111 27 170 26h8q138 -4 210 -105q48 -65 48 -147q0 -84 -48 -157q-48 -74 -114 -74q-36 0 -52 37z" />
    <glyph glyph-name="uni0A4D" unicode="&#xa4d;" horiz-adv-x="17" 
d="M-801 -114q118 -10 203 -49q207 -122 323 -326q46 -78 60 -109l-62 -27l-51 56l-45 41q-111 103 -141 122q-49 36 -73 55q-87 47 -205 57q-18 2 -35 0v180h26z" />
    <glyph glyph-name="uni0A51" unicode="&#xa51;" 
d="M-185 -391q115 -63 115 -171q0 -104 -58 -104q-57 0 -176 80q-117 78 -244 254q-80 111 -135 267h107q56 -100 267 -272q21 -16 124 -54z" />
    <glyph glyph-name="uni0A59" unicode="&#xa59;" horiz-adv-x="1139" 
d="M811 739h-419q-36 -105 -71 -190q91 -55 233 -55q143 0 257 51v194zM139 -37q-61 0 -107 44q-44 44 -44 107q0 64 44 108q46 44 107 44t107 -44q44 -44 44 -108q0 -63 -44 -107q-46 -44 -107 -44zM1042 1082v-1082h-231v309q-105 -52 -259 -52t-292 61q-138 60 -207 176
q11 58 52 154q43 97 48 115q33 95 33 213q0 32 -1 48q-1 58 -81 58h-114v234h207q77 0 132 -58q56 -57 78 -133q10 -42 12 -152h392v343h441v-234h-210z" />
    <glyph glyph-name="uni0A5A" unicode="&#xa5a;" horiz-adv-x="1384" 
d="M647 633h-105q-193 0 -193 -125q-2 -92 71 -184q72 -92 157 -92q58 0 70 58v343zM93 -97q-61 0 -106 43q-44 46 -44 106t44 106q45 43 106 43q62 0 106 -44t44 -105q0 -60 -44 -106q-45 -43 -106 -43zM1306 1082v-1082h-234v1082h-191v-745q0 -337 -304 -337
q-192 0 -326 158t-134 348q0 154 105 256q104 101 259 101h166v219h-659v234h1526v-234h-208z" />
    <glyph glyph-name="uni0A5B" unicode="&#xa5b;" horiz-adv-x="1167" 
d="M742 78q-44 -44 -106 -44q-61 0 -105 44t-44 106q0 61 44 105t105 44q62 0 106 -44t44 -105q0 -62 -44 -106zM1074 1082v-1082h-234v520h-424v-520h-235v520h-43q-126 0 -126 127q0 119 83 197q81 80 202 80q119 0 119 -108v-62h424v328h-846v234h1284v-234h-204z" />
    <glyph glyph-name="uni0A5C" unicode="&#xa5c;" horiz-adv-x="1188" 
d="M660 646l-320 -23q-95 0 -177 31q-80 33 -80 109q0 142 272 142h26q50 -2 124 -14q79 -13 124 -13q127 0 231 204h-865v234h1301v-234h-189q-48 -168 -159 -276q141 -100 141 -259q0 -117 -66 -218q-65 -99 -173 -146q77 -101 77 -164q0 -44 -50 -44q-49 0 -119 53
q-67 53 -122 98q-38 -2 -57 -2q-103 0 -232 23q7 -24 19 -51q13 -30 13 -56q0 -59 -52 -59q-89 0 -227 206q-75 114 -75 183q0 93 97 93q31 0 112 -37q173 -75 314 -75t226 59q83 59 83 127q0 109 -197 109z" />
    <glyph glyph-name="uni0A5E" unicode="&#xa5e;" horiz-adv-x="1159" 
d="M875 285q-12 68 -95 68t-193 -109q114 -50 161 -50q128 0 128 77q0 9 -1 14zM200 18q-44 -44 -106 -44q-61 0 -105 44t-44 106t44 106t105 44q62 0 106 -44t44 -106t-44 -106zM1065 1082v-384h-576q-162 0 -162 -119q0 -53 42 -117q4 -5 19.5 -25t27.5 -35
q212 160 368 160q118 0 219 -78t101 -208t-87 -197q-133 -104 -274 -104q-13 0 -20 1q-242 13 -451 225q-176 181 -176 375q0 196 153 296q49 31 155 60h430v150h-844v234h1287v-234h-212z" />
    <glyph glyph-name="uni0A66" unicode="&#xa66;" horiz-adv-x="1428" 
d="M414 935q-115 -115 -115 -278t115 -278t277 -115t277 115t115 278t-115 278t-277 115t-277 -115zM250 216q-183 183 -183 441t183 441q182 182 440 182q257 0 441 -182q183 -183 183 -441t-183 -441q-184 -182 -441 -182q-258 0 -440 182z" />
    <glyph glyph-name="uni0A67" unicode="&#xa67;" horiz-adv-x="1291" 
d="M579 1190q-119 0 -194 -34q-100 -43 -100 -135v-7q1 -76 87 -118q87 -41 174 -41t189 41q120 48 120 115q0 179 -276 179zM1125 109q40 -64 58 -91q31 -47 31 -93q-43 -38 -78 -38t-86 33q-114 75 -170 230q-54 154 -54 284q0 124 17 280q-185 -90 -310 -90
q-201 0 -343 123q-135 120 -135 273t132 261q169 139 389 139h24q232 -7 361 -124q127 -115 127 -317q0 -52 -6 -151q-5 -70 -8 -136q-22 -57 -22 -251q0 -193 73 -332z" />
    <glyph glyph-name="uni0A68" unicode="&#xa68;" horiz-adv-x="1426" 
d="M798 289q256 -118 256 -195q0 -89 -95 -89q-59 0 -143 41q-62 31 -150 77q-65 35 -178 80q-33 6 -100 6q-9 -1 -31 -1h-23q-74 0 -116 9q-172 37 -172 162q0 61 48 104q46 43 114 43t174 -34q105 -33 162 -33q177 0 322 89q188 119 188 305v8q-6 289 -406 289
q-151 0 -321 -40q-69 -23 -133 -23q-137 0 -137 109q0 101 244 152q161 34 324 34q289 0 473 -132q186 -134 186 -386t-140 -392q-109 -111 -346 -183z" />
    <glyph glyph-name="uni0A69" unicode="&#xa69;" horiz-adv-x="1415" 
d="M1141 785q17 -11 41 -30q72 -91 72 -200t-84 -203q-86 -95 -211 -132q224 -74 224 -142q0 -4 -1 -7q-6 -43 -40 -65q-34 -23 -84 -23q-48 0 -222 60q-59 21 -163.5 57t-149.5 52q-106 18 -292 51q-95 18 -144 67q-50 50 -50 106t49 98q50 41 136 41q87 0 220 -79t233 -79
q99 0 226 67t127 135q0 139 -200 139q5 0 5 -1q0 -3 -177 -24q-203 -25 -298 -25q-94 0 -152 38q-59 36 -59 92q0 57 77 100q76 44 215 44q55 0 178 -14q119 -15 203 -15q86 0 160 34q73 35 73 81q0 63 -141 108q-144 43 -253 43q-115 0 -286 -25t-204 -25q-129 0 -129 102
q0 62 160 115q162 54 416 54q253 0 433 -77q229 -100 229 -285q0 -140 -137 -233z" />
    <glyph glyph-name="uni0A6A" unicode="&#xa6a;" horiz-adv-x="1324" 
d="M326 351q0 -136 295 -136q163 -1 225 33q61 34 61 103q0 106 -95 141q-54 19 -198 19q-143 0 -196 -19q-92 -35 -92 -141zM96 351q0 116 71 201q46 50 71 74q0 10 -46 53q-16 15 -86 85q-60 86 -60 195q0 324 458 422v-230q-228 -63 -228 -201q0 -211 341 -211t341 211
q0 138 -228 201v230q458 -98 458 -422q0 -109 -60 -195q-71 -70 -86 -85q-46 -43 -46 -53q25 -24 71 -74q70 -83 70 -201q0 -182 -172 -279q-145 -85 -351 -85q-207 0 -349 85q-169 97 -169 279z" />
    <glyph glyph-name="uni0A6B" unicode="&#xa6b;" horiz-adv-x="1303" 
d="M1152 0h-228v284q-180 -89 -351 -89q-173 0 -357 117q-111 71 -158 158q5 72 85 252q81 182 81 232q0 129 -121 129h-84v230h136q125 0 212 -113q87 -112 87 -228q0 -114 -152 -456q149 -104 290 -104q142 0 332 114v787h228v-1313z" />
    <glyph glyph-name="uni0A6C" unicode="&#xa6c;" horiz-adv-x="1170" 
d="M763 489l-253 18q-110 0 -161 -23q-77 -38 -77 -136q0 -116 180 -116h449q73 0 113 -38q39 -38 39 -88q0 -86 -70 -102q-15 -4 -82 -4h-452q-186 0 -295 95q-110 94 -110 268q0 100 61 182l64 80q0 3 -61 88q-60 85 -60 224q0 179 152 268q123 72 304 72q39 0 86 -5
q-56 88 -56 186q0 100 94 175t254 76h6q78 0 154 -27q101 -35 101 -96q0 -79 -99 -79l-157 16q-120 0 -120 -76q0 -68 83 -160q4 -3 98 -68q93 -65 93 -114q0 -103 -145 -103q-35 0 -174 22q-142 21 -221 21q-78 0 -144 -30q-83 -38 -83 -105q0 -175 234 -175q40 0 128 17
q85 18 142 18q54 0 144 -34q88 -36 95 -92q1 -4 1 -12q0 -70 -90 -110q-75 -33 -165 -33z" />
    <glyph glyph-name="uni0A6D" unicode="&#xa6d;" horiz-adv-x="1398" 
d="M475 98q-192 -61 -274 -88q-45 -14 -81 -14q-102 0 -102 64t104 105q683 256 862 456q41 46 72 124q29 78 29 139q0 124 -102 197q-103 74 -219 74t-186 -35q-70 -37 -86 -67q-29 -69 -35 -86q-36 -83 -126 -83q-53 0 -88 38q-36 36 -36 104q0 152 196 261q166 93 325 93
h19q299 -8 451 -194q116 -143 116 -317q0 -51 -11 -109q-47 -240 -268 -384q-223 -145 -560 -278z" />
    <glyph glyph-name="uni0A6E" unicode="&#xa6e;" horiz-adv-x="1472" 
d="M441 923q-2 -54 -2 -61q2 -290 161 -461q161 -173 489 -173q142 0 171 -7q103 -22 103 -113q0 -36 -71 -72q-70 -36 -203 -36q-386 0 -627 220q-241 219 -247 564q0 74 -1 140q-90 3 -126 19q-63 24 -63 96q0 99 98 195q97 96 208 96q110 0 110 -98v-76h924v-230h-924v-3
z" />
    <glyph glyph-name="uni0A6F" unicode="&#xa6f;" horiz-adv-x="1497" 
d="M1293 1010q0 -88 -129 -90h-726q-3 -44 -3 -78q0 -289 176 -450q175 -162 476 -162q138 0 170 -7q104 -24 104 -113q0 -68 -165 -100q-47 -10 -109 -10q-407 0 -643 231q-237 231 -237 629v28q0 21 1 32h-72q-109 0 -109 114q0 188 180 265q69 30 119 30q115 0 115 -99
v-81h427q-67 94 -67 175q0 145 89 222q89 76 240 76q103 0 162 -28q62 -29 83 -52q23 -23 23 -50q0 -53 -68 -53l-154 13q-75 0 -112 -28q-36 -28 -36 -69q0 -79 66 -155q64 -77 151 -103q48 -37 48 -87z" />
    <glyph glyph-name="uni0A70" unicode="&#xa70;" horiz-adv-x="20" 
d="M-552 1479q-75 87 -75 175t69 174q68 87 230 87q163 0 232 -87q68 -86 68 -174t-75 -175q-45 -52 -79 -52q-16 0 -17 7q-10 10 -9 19q54 90 54 145q0 56 -50 97q-52 41 -124 41t-124 -41q-49 -41 -49 -109q0 -33 16 -62q6 -11 13.5 -25t9.5 -18q5 -12 15 -28q1 -9 -5 -17
q-9 -9 -21 -9q-34 0 -79 52z" />
    <glyph glyph-name="uni0A71" unicode="&#xa71;" horiz-adv-x="303" 
d="M-195 1082v234h542v-234h-542zM-330 1800q8 102 50 102q34 0 46 -98q12 -96 62 -148q51 -49 160 -49q196 0 226 210q9 85 43 85q39 0 47 -102q3 -32 3 -60q0 -67 -13 -120q-30 -100 -116 -150q-85 -49 -192 -49q-106 0 -191 49q-127 72 -127 271q-1 24 2 59z" />
    <glyph glyph-name="uni0A72" unicode="&#xa72;" horiz-adv-x="1249" 
d="M837 1082h-500q27 -68 59 -103q93 -103 184 -121h257v224zM1012 625l-221 4q-169 0 -289 -42q-123 -42 -226 -172q78 -78 208 -141q123 -59 208 -59h10q91 5 180 91q92 87 121 87q64 0 64 -88q0 -87 -105 -191q-103 -103 -219 -112q-13 -1 -41 -1q-204 0 -410 115
q-209 115 -277 291q40 165 287 339q-43 41 -114 124q-63 87 -95 212h-103v234h1283v-234h-205v-457h-56z" />
    <glyph glyph-name="uni0A73" unicode="&#xa73;" horiz-adv-x="1391" 
d="M851 504q-62 68 -122 68q-5 0 -15 -2q-64 -10 -347 -10q115 -336 369 -336h10q175 4 175 125q0 79 -70 155zM315 1082q2 -177 10 -288l234 -2l-5 -1q112 1 184 23q170 48 267 268h-690zM678 1622q-331 0 -361 -306h707q-16 159 -95 233q-77 73 -251 73zM1250 1082
q-91 -274 -262 -392q172 -138 172 -335q0 -153 -108 -259q-110 -107 -297 -107q-675 0 -675 1093h-94v234h96q16 256 178 398q160 142 420 142t412 -142q153 -143 171 -398h144v-234h-157zM546 791h-12h12z" />
    <glyph glyph-name="uni0A74" unicode="&#xa74;" horiz-adv-x="3013" 
d="M636 724q-14 -132 -14 -232q0 -391 214 -548q62 -45 114 -45q69 0 69 86q-88 118 -98 147q-64 140 -64 330q38 351 38 550q-2 408 -439 421h-28q-410 0 -410 -401q0 -168 104 -273q102 -107 267 -107q105 0 247 72zM474 1209q187 0 187 -160v-5q-3 -77 -89 -124
q-77 -42 -143 -42h-15q-72 6 -120 48q-47 43 -48 105q0 4 -1 7q0 100 72 140q57 32 157 31zM1988 1064h-625q1 -171 11 -284q67 -1 150 -1h88q37 0 115 23q167 50 261 262zM1416 546q115 -337 325 -337h7q176 5 176 118q0 81 -79 160q-71 71 -128 71q-8 0 -13 -1
q-65 -10 -288 -11zM1538 1766q27 7 77 16q35 8 72 6h23q49 -1 104 -14q105 -23 210 -77q101 -54 159 -122q47 47 81 71q25 18 60 46q21 20 44 38q145 122 348 200q200 76 311 76q193 0 295 -46q104 -47 214 -155q79 -79 151 -277h-256q-47 106 -93 153q-99 100 -283 100
q-222 0 -557 -253q-44 -33 -84 -69q-39 -35 -79 -96h-285q-28 68 -128 130q-101 61 -200 61q-102 0 -201 -46q-17 -8 -47 -22q-62 -84 -96 -186h908v-236h-52q-91 -265 -261 -385q190 -133 190 -318q0 -189 -115 -289q-113 -98 -291 -98q-630 0 -631 1090h-46v236h53
q20 149 98 275q143 125 183 147q40 21 66 30q28 8 58 14z" />
    <glyph glyph-name="uni0A75" unicode="&#xa75;" 
d="M156 -363h-115q0 -102 -10 -156q-23 -125 -113 -125q-48 0 -172 53q-49 22 -100 70q-64 52 -64 90q-1 2 -1 18q0 17 29 100q29 93 34 121q6 35 6 88q0 50 -14 89h139q11 -49 11 -96q0 -51 -3 -85q-3 -38 -37 -120q-26 -66 -28 -87q0 -4 2 -6l-1 -1q0 -10 55 -50
q55 -41 89 -41q53 0 53 76v186h248z" />
    <glyph glyph-name="uni200B" unicode="&#x200b;" horiz-adv-x="25" 
 />
    <glyph glyph-name="afii61664" unicode="&#x200c;" horiz-adv-x="0" 
d="M-39 1695h78v-1989h-78v1989z" />
    <glyph glyph-name="afii301" unicode="&#x200d;" horiz-adv-x="0" 
d="M39 1558v-1852h-78v1852l-143 -146l-52 53l183 181l-183 179l52 53l182 -183l182 183l52 -53l-183 -179l183 -181l-52 -53z" />
    <glyph glyph-name="endash" unicode="&#x2013;" horiz-adv-x="1012" 
d="M46 571v205h937v-205h-937z" />
    <glyph glyph-name="emdash" unicode="&#x2014;" horiz-adv-x="1723" 
d="M1757 778v-209h-1764v209h1764z" />
    <glyph glyph-name="quoteleft" unicode="&#x2018;" horiz-adv-x="708" 
d="M129 1521q53 99 183 181q46 30 153 50l14 -58q-84 -75 -122 -119q-53 -68 -53 -150q0 -21 3 -43q67 40 117 40q37 0 65 -23q62 -44 69 -124q1 -7 1 -20q-2 -68 -53 -111q-61 -50 -146 -50q-123 0 -203 80q-73 72 -73 180q0 15 1 22q-1 6 -1 17q0 63 45 128z" />
    <glyph glyph-name="quoteright" unicode="&#x2019;" horiz-adv-x="921" 
d="M733 1325q-53 -99 -183 -181q-46 -30 -153 -50l-14 58q84 75 122 119q53 68 53 150q0 21 -3 43q-67 -40 -117 -40q-37 0 -65 23q-62 44 -69 124q-1 7 -1 20q2 68 53 111q61 50 146 50q123 0 203 -80q73 -72 73 -180q0 -15 -1 -22q1 -6 1 -17q0 -63 -45 -128z" />
    <glyph glyph-name="quotedblleft" unicode="&#x201c;" horiz-adv-x="1446" 
d="M167 1521q53 99 183 181q46 30 153 50l14 -58q-84 -75 -122 -119q-53 -68 -53 -150q0 -21 3 -43q67 40 117 40q37 0 65 -23q62 -44 69 -124q1 -7 1 -20q-2 -68 -53 -111q-61 -50 -146 -50q-123 0 -203 80q-73 72 -73 180q0 15 1 22q-1 6 -1 17q0 63 45 128zM765 1521
q53 99 183 181q46 30 153 50l14 -58q-84 -75 -122 -119q-53 -68 -53 -150q0 -21 3 -43q67 40 117 40q37 0 65 -23q62 -44 69 -124q1 -7 1 -20q-2 -68 -53 -111q-61 -50 -146 -50q-123 0 -203 80q-73 72 -73 180q0 15 1 22q-1 6 -1 17q0 63 45 128z" />
    <glyph glyph-name="quotedblright" unicode="&#x201d;" horiz-adv-x="1434" 
d="M1261 1325q-53 -99 -183 -181q-46 -30 -153 -50l-14 58q84 75 122 119q53 68 53 150q0 21 -3 43q-67 -40 -117 -40q-37 0 -65 23q-62 44 -69 124q-1 7 -1 20q2 68 53 111q61 50 146 50q123 0 203 -80q73 -72 73 -180q0 -15 -1 -22q1 -6 1 -17q0 -63 -45 -128zM663 1325
q-53 -99 -183 -181q-46 -30 -153 -50l-14 58q84 75 122 119q53 68 53 150q0 21 -3 43q-67 -40 -117 -40q-37 0 -65 23q-62 44 -69 124q-1 7 -1 20q2 68 53 111q61 50 146 50q123 0 203 -80q73 -72 73 -180q0 -15 -1 -22q1 -6 1 -17q0 -63 -45 -128z" />
    <glyph glyph-name="bullet" unicode="&#x2022;" horiz-adv-x="946" 
d="M105 666l379 379l382 -379l-382 -380z" />
    <glyph glyph-name="twodotenleader" unicode="&#x2025;" horiz-adv-x="1533" 
d="M1158 4q54 0 92 -40q38 -43 38 -94q0 -52 -39 -88t-91 -36t-90 35t-38 89q0 134 128 134zM387 4q55 0 91 -39q34 -40 34 -94q0 -55 -36 -90q-37 -35 -90 -35t-90 35q-36 35 -36 89q0 134 127 134z" />
    <glyph glyph-name="uni2026" unicode="&#x2026;" horiz-adv-x="2279" 
d="M1931 4q56 0 91 -38q36 -38 36 -93q0 -56 -38 -91q-36 -36 -90 -36q-53 0 -90 35q-38 34 -38 90q0 55 36 94q38 39 93 39zM1158 4q54 0 92 -40q38 -43 38 -94q0 -52 -39 -88t-91 -36t-90 35t-38 89q0 134 128 134zM387 4q55 0 91 -39q34 -40 34 -94q0 -55 -36 -90
q-37 -35 -90 -35t-90 35q-36 35 -36 89q0 134 127 134z" />
    <glyph glyph-name="uni2070" unicode="&#x2070;" horiz-adv-x="569" 
d="M269 1730q-76 0 -100 -137q-12 -61 -12 -198q0 -139 10 -195q25 -136 102 -136q120 0 120 333t-120 333zM468 1149q-57 -154 -199 -154q-233 2 -233 403q0 402 233 402q135 0 193 -138q43 -101 43 -260q0 -160 -37 -253z" />
    <glyph glyph-name="uni2074" unicode="&#x2074;" horiz-adv-x="548" 
d="M302 1598l-203 -300h203v300zM407 1199v-210h-105v210h-303v92l343 508h65v-501h115v-99h-115z" />
    <glyph glyph-name="uni2075" unicode="&#x2075;" horiz-adv-x="570" 
d="M466 1697q-17 -18 -34 -18h-228l-34 -86q128 -18 216 -91q87 -74 87 -202v-23q-9 -123 -97 -199q-90 -75 -206 -75q-152 0 -152 68q0 28 22 43q21 17 48 17q30 0 72 -17q50 -16 70 -17h11q130 0 130 163q0 138 -111 189q-62 29 -216 36l136 309h257q18 0 93 31z" />
    <glyph glyph-name="uni2076" unicode="&#x2076;" horiz-adv-x="585" 
d="M255 1450q-42 0 -59 -6q-13 -4 -32 -32q-15 -27 -18 -40v-26q-1 -27 -1 -54q0 -67 31 -133q30 -67 106 -67q108 0 108 153q0 205 -135 205zM462 1121q-60 -108 -184 -108t-188 91q-62 94 -62 218q0 126 47 238q45 110 130 176q82 64 218 88q30 5 52 -4q23 -9 23 -26
q0 -16 -24 -25q-158 -61 -214 -115q-54 -56 -82 -144q52 28 108 28q90 0 153 -70t63 -172q0 -104 -40 -175z" />
    <glyph glyph-name="uni2077" unicode="&#x2077;" horiz-adv-x="553" 
d="M280 1015h-115l214 672h-210q-46 0 -77 -28q-8 -8 -58 -68l-25 21l75 217l36 -5l12 -24h380v-36z" />
    <glyph glyph-name="uni2078" unicode="&#x2078;" horiz-adv-x="580" 
d="M182 1093q36 -40 92 -40q55 0 90 29q34 30 34 82q0 54 -32 86q-29 32 -140 108q-82 -66 -82 -159q0 -67 38 -106zM382 1631q0 45 -30 76q-30 32 -84 32t-86 -25q-34 -25 -34 -73q0 -92 125 -176q109 75 109 166zM462 1069q-63 -75 -197 -75q-88 0 -159 50q-69 51 -69 136
q0 82 31 124q35 43 105 96q-64 54 -97 98q-31 43 -31 123q0 79 69 129q67 49 154 49q86 0 150 -42q63 -42 63 -132q0 -115 -147 -196q83 -62 127 -112t44 -123q0 -75 -43 -125z" />
    <glyph glyph-name="uni2079" unicode="&#x2079;" horiz-adv-x="574" 
d="M391 1519q0 194 -120 206q-5 1 -14 1q-108 0 -108 -185t140 -185q24 0 50 14q25 15 39 44q13 29 13 105zM146 995q-109 0 -109 67q0 22 13 38q12 18 32 18t68 -24q48 -23 74 -23q48 0 86 90q16 38 44 138q-50 -23 -100 -25h-6q-104 0 -153 70q-49 68 -49 182v11
q2 121 60 191q57 72 167 72t167 -88q56 -88 56 -222t-36 -262q-38 -127 -119 -180q-57 -37 -93 -44q-36 -9 -102 -9z" />
    <glyph glyph-name="uni207D" unicode="&#x207d;" horiz-adv-x="472" 
d="M390 936l-14 -47q-155 74 -246 208q-92 136 -92 301q0 302 344 484l7 -50q-133 -91 -181 -178q-50 -89 -50 -250q0 -162 52 -276q52 -116 180 -192z" />
    <glyph glyph-name="uni207E" unicode="&#x207e;" horiz-adv-x="462" 
d="M29 908q126 76 179 192q52 114 52 276q0 159 -50 250q-49 88 -180 178l6 50q346 -181 346 -484q0 -166 -93 -301t-247 -208z" />
    <glyph glyph-name="uni2080" unicode="&#x2080;" horiz-adv-x="583" 
d="M269 36q-76 0 -100 -137q-12 -61 -12 -198q0 -139 10 -195q25 -136 102 -136q120 0 120 333t-120 333zM468 -545q-57 -154 -199 -154q-233 2 -233 403q0 402 233 402q135 0 193 -138q43 -101 43 -260q0 -160 -37 -253z" />
    <glyph glyph-name="uni2081" unicode="&#x2081;" horiz-adv-x="417" 
d="M56 -700v53q66 1 73 5q31 10 31 61v500q0 37 -25 37q-7 0 -76 -31v68l202 123v-718q2 -29 13 -36q14 -9 91 -10v-52h-309z" />
    <glyph glyph-name="uni2082" unicode="&#x2082;" horiz-adv-x="594" 
d="M480 -699h-461v35q68 76 143 161q204 229 204 361q0 68 -44 106q-41 40 -106 40q-28 0 -44 -30q-14 -34 -31 -82q-25 -49 -58 -49q-59 0 -59 54q0 61 90 133q90 70 147 70q87 0 149 -60q61 -61 61 -152q0 -89 -44 -172q-39 -73 -111 -158q-25 -27 -68 -75.5t-61 -68.5
h209q37 0 52 15q14 15 42 60h40z" />
    <glyph glyph-name="uni2083" unicode="&#x2083;" horiz-adv-x="576" 
d="M192 -312l-56 1v37q205 72 205 183q0 50 -53 79q-50 31 -92 31q-40 0 -49 -23q-7 -17 -22 -65q-22 -46 -69 -46q-42 0 -46 49q4 45 72 110q67 64 168 64t155 -66q37 -44 37 -101q0 -93 -114 -184q70 -30 109 -71q40 -39 42 -113v-8q0 -117 -87 -189q-91 -74 -226 -74
q-136 -1 -136 62q0 29 22 48q21 18 50 18q28 0 81 -21t93 -21q42 0 70 42q29 41 29 90q0 51 -22 89q-45 79 -161 79z" />
    <glyph glyph-name="uni2084" unicode="&#x2084;" horiz-adv-x="547" 
d="M302 -93l-203 -300h203v300zM407 -492v-210h-105v210h-303v92l343 508h65v-501h115v-99h-115z" />
    <glyph glyph-name="uni2085" unicode="&#x2085;" horiz-adv-x="607" 
d="M466 -11q-17 -18 -34 -18h-228l-34 -86q128 -18 216 -91q87 -74 87 -202v-23q-9 -123 -97 -199q-90 -75 -206 -75q-152 0 -152 68q0 28 22 43q21 17 48 17q30 0 72 -17q50 -16 70 -17h11q130 0 130 163q0 138 -111 189q-62 29 -216 36l136 309h257q18 0 93 31z" />
    <glyph glyph-name="uni2086" unicode="&#x2086;" horiz-adv-x="580" 
d="M255 -260q-42 0 -59 -6q-13 -4 -32 -32q-15 -27 -18 -40v-26q-1 -27 -1 -54q0 -67 31 -133q30 -67 106 -67q108 0 108 153q0 205 -135 205zM462 -589q-60 -108 -184 -108t-188 91q-62 94 -62 218q0 126 47 238q45 110 130 176q82 64 218 88q30 5 52 -4q23 -9 23 -26
q0 -16 -24 -25q-158 -61 -214 -115q-54 -56 -82 -144q52 28 108 28q90 0 153 -70t63 -172q0 -104 -40 -175z" />
    <glyph glyph-name="uni2087" unicode="&#x2087;" horiz-adv-x="547" 
d="M280 -695h-115l214 672h-210q-46 0 -77 -28q-8 -8 -58 -68l-25 21l75 217l36 -5l12 -24h380v-36z" />
    <glyph glyph-name="uni2088" unicode="&#x2088;" horiz-adv-x="580" 
d="M182 -601q36 -40 92 -40q55 0 90 29q34 30 34 82q0 54 -32 86q-29 32 -140 108q-82 -66 -82 -159q0 -67 38 -106zM382 -63q0 44 -30 76t-84 32t-86 -25q-34 -25 -34 -73q0 -92 125 -176q109 75 109 166zM462 -625q-63 -75 -197 -75q-88 0 -159 50q-69 51 -69 136
q0 82 31 124q35 43 105 96q-64 54 -97 98q-31 43 -31 123q0 79 69 129q67 49 154 49q86 0 150 -42q63 -42 63 -132q0 -115 -147 -196q83 -62 127 -112t44 -123q0 -75 -43 -125z" />
    <glyph glyph-name="uni2089" unicode="&#x2089;" horiz-adv-x="585" 
d="M391 -176q0 194 -120 206q-5 1 -14 1q-108 0 -108 -185t140 -185q25 0 50 15q25 13 39 44q13 27 13 104zM146 -700q-109 0 -109 67q0 22 13 39q12 17 32 17q19 0 68 -23q46 -24 74 -24q48 0 86 90q16 38 44 138q-50 -23 -100 -25h-6q-104 2 -153 71q-49 68 -49 181v11
q2 120 60 192q57 71 167 71t167 -87q56 -89 56 -223q0 -135 -36 -261q-38 -128 -119 -181q-56 -37 -93 -45q-38 -8 -102 -8z" />
    <glyph glyph-name="uni208D" unicode="&#x208d;" horiz-adv-x="461" 
d="M390 -740l-14 -47q-155 74 -246 208q-92 136 -92 301q0 302 344 484l7 -50q-133 -91 -181 -178q-50 -89 -50 -250q0 -162 52 -276q52 -116 180 -192z" />
    <glyph glyph-name="uni208E" unicode="&#x208e;" horiz-adv-x="472" 
d="M29 -746q126 76 179 192q52 114 52 276q0 159 -50 250q-49 88 -180 178l6 50q346 -181 346 -484q0 -166 -93 -301t-247 -208z" />
    <glyph glyph-name="uni20A8" unicode="&#x20a8;" horiz-adv-x="1711" 
d="M1400 964h231v-61h-259q-67 0 -114 -47q-46 -47 -46 -117q0 -125 229 -191q231 -62 231 -228q0 -143 -100 -232q-101 -88 -261 -88h-244v71h282q137 0 181 101q14 33 14 72q0 113 -230 185q-234 71 -234 263q0 114 90 194q90 78 230 78zM296 744q33 -5 95 -5
q408 0 408 299q0 117 -81 180q-81 65 -236 65h-186v-539zM296 22h-155v1329h418q299 0 379 -158q30 -59 30 -143q0 -292 -400 -365l445 -660q1 -3 -229 -3q-366 596 -414 647h-74v-647z" />
    <glyph glyph-name="Euro" unicode="&#x20ac;" horiz-adv-x="1324" 
d="M1226 45q-141 -45 -285 -45q-276 0 -466 146q-189 147 -225 395l-1 11h-140l26 121h103v154h-129l26 122h115q38 249 226 399q191 149 443 149q166 0 307 -45l-33 -109q-86 56 -268 56t-311 -135q-128 -133 -163 -315h672l-29 -122h-658v-154h634l-29 -121h-590v-3
q33 -183 163 -317q129 -134 308 -134t271 56z" />
    <glyph glyph-name="uni25CC" unicode="&#x25cc;" horiz-adv-x="1410" 
d="M885 1155q-57 22 -109 29v120q93 -11 169 -47zM1077 1009q-35 44 -81 80l60 104q76 -58 125 -124zM1172 789q-10 58 -30 109l103 61q36 -76 48 -170h-121zM535 290q60 -25 112 -29v-119q-93 11 -172 45zM776 262q58 8 111 30l60 -104q-75 -32 -171 -46v120zM647 1184
q-56 -7 -110 -28l-61 104q82 34 171 45v-121zM129 789q11 91 45 171l104 -60q-22 -56 -29 -111h-120zM425 1091q-42 -33 -82 -80l-104 60q53 74 126 125zM341 437q36 -48 82 -84l-59 -103q-74 55 -126 127zM997 356q46 36 82 82l104 -60q-50 -71 -125 -125zM1142 550
q20 53 30 110h121q-12 -93 -45 -171zM249 660q7 -57 29 -112l-105 -60q-34 79 -45 172h121z" />
    <glyph glyph-name="uni262C" unicode="&#x262c;" horiz-adv-x="2342" 
d="M996 520q89 223 89 404v16q-5 189 -102 478q-142 -64 -227 -184q-85 -121 -85 -266q0 -143 89 -264q89 -119 236 -184zM1426 916v-7q0 -113 90 -392q138 77 236 202q100 125 100 261q0 134 -88 258q-91 121 -238 185q-96 -309 -100 -507zM1936 -377l-341 271
q-69 -18 -126 -49q305 -110 305 -282q0 -113 -121 -113q-68 0 -106 38q-39 36 -39 76q0 38 18 79q-86 53 -154 57v-159q65 -53 65 -113q0 -61 -54 -106q-55 -44 -129 -44t-127 45t-53 103t66 114v160q-69 -4 -155 -57q20 -45 20 -74q0 -63 -73 -102q-34 -18 -80 -18t-80 31
q-35 30 -35 83q0 172 305 282q-57 31 -127 49l-340 -271q0 133 -108 294q-117 158 -221 302q-211 302 -211 575t164 454q162 182 431 251q-19 -21 -55.5 -61.5t-54.5 -59.5q-58 -64 -100 -138q-44 -76 -54 -99q-39 -89 -39 -209q0 -118 74 -304q138 -348 733 -643v110
q-45 34 -125 85q-14 8 -148 54q15 25 60 116q-206 81 -333 250q-129 168 -129 370q0 203 127 370q126 168 329 255q-12 28 -35 74q60 35 217 148q33 25 87 93q56 70 73 87q49 -65 158 -180q105 -83 216 -148q-14 -30 -33 -71q209 -84 338 -252q130 -169 130 -374
q0 -204 -131 -376q-132 -169 -345 -250q27 -56 58 -112q-54 -17 -141 -52q-22 -12 -131 -87v-110q225 111 402 249q250 196 328 387q76 193 76 311q0 120 -39 209q-8 20 -53 99q-44 75 -101 138q-18 19 -54.5 59.5t-55.5 61.5q266 -69 430 -251t164 -454q0 -271 -209 -576
q-26 -36 -102.5 -140.5t-117.5 -160.5q-108 -161 -108 -294z" />
    <glyph glyph-name="uni2740" unicode="&#x2740;" horiz-adv-x="2977" 
d="M1370 854q55 -55 80 -55q22 0 106 38q-1 -6 44 -57q45 -53 45 -94q0 -40 -65 -84q-8 0 -26 68q-21 67 -36 67h-24q-178 0 -178 -115q0 -42 34 -80q34 -40 79 -40q44 0 70 23q74 5 110 72t62 67q13 0 30 -6l-30 -77q-26 -63 -26 -95t18 -46l-83 -8q-58 -10 -60 -42
q-26 20 -58 20t-111 -58q1 12 1 33q0 92 -31 92q-10 0 -45 -25q-39 -24 -53 -20q20 65 20 94q0 32 -24 53q-11 5 -54 39q73 41 79 53q7 10 15 92q34 -8 47 -8q29 0 44 37q8 30 20 62zM1122 444q-105 -13 -236 -88q-130 -76 -160 -165q-1 -4 -123 -334q-48 -134 -48 -260
q0 -24 1 -37q73 -14 147 -14q271 0 489 180q37 31 124 100q172 144 172 425v19q-52 -81 -195 -81q-60 0 -109 13q-44 -54 -82 -148q-45 -103 -90 -171q-50 -75 -66 -93q-47 -52 -135 -73q17 41 97 119q81 83 102 149q26 73 56 129q28 49 71 133q-19 39 -19 97q0 61 4 100z
M1722 211l-81 -7q-49 0 -109 12q43 -439 359 -563q100 -40 260 -54l281 -20q-11 37 -59 326q-20 118 -132 284q-167 239 -396 260l8 -82q-50 -68 -50 -106q0 -71 186 -228q214 -185 264 -271q-280 160 -372 287q-117 162 -159 162zM1516 997q-46 34 -90 34q-45 0 -62 -4
q-65 -20 -92 -98q-28 -97 -40 -112q-26 -32 -97 -45q-97 -19 -97 -102q0 -45 70 -108q67 -60 72 -87q1 -3 1 -9q0 -28 -16 -64t-16 -58q0 -5 1 -7q23 -110 166 -110q65 0 111 43q44 44 73 44t60 -37t85 -37q102 0 141 82q19 45 19 90q0 44 -29 62q-60 36 -60 63q0 19 63 68
t63 90q0 12 -3 24q-18 81 -134 107q-116 27 -129 82q-13 54 -60 89zM1186 872q-104 143 -292 218q-186 76 -382 76q-245 0 -355 -110q48 -213 303 -408q253 -196 473 -196q98 0 168 43l-66 75q-42 52 -42 91q0 14 4 22q-114 30 -238 117q-122 85 -245 110q-114 20 -161 42
q66 25 153 25q86 0 208 -64q96 -65 297 -176q13 40 89 72q77 31 86 63zM2720 1133q-32 -2 -65 -2q-41 0 -157 27q-112 27 -173 29h-34q-441 0 -607 -304q96 -10 191 -104h8q125 0 258 91q33 22 232 169q109 27 143 27t56 -21q-96 -18 -221 -114l-206 -152q-104 -62 -207 -62
q-11 0 -37 2q0 -67 -118 -185q125 -66 231 -66q107 0 214 52q43 20 174 100q330 204 330 431q0 41 -12 82zM1468 1470l-23 -304q0 -51 4 -87q101 -26 198 -179l89 179q24 83 24 164q0 303 -344 653q-327 -194 -327 -643q0 -83 12 -163q14 -44 53 -100q39 -57 67 -63
q0 66 59 110q12 8 46.5 31.5t55.5 38.5q-5 28 -5 70q0 46 16 145q5 30 26 171l4 31q-35 93 -35 116q0 25 16 41q64 -83 64 -211zM2261 1547l-20 -261q0 -40 4 -65q48 17 101 17q51 0 172 -29q119 -29 166 -29q53 0 91 7q7 -74 7 -121q0 -198 -192 -373q-15 -14 -135 -125
q115 -19 234 -152q7 -8 73 -83t117 -135q-85 -66 -211 -79q-132 -14 -313 -30q52 -83 85 -283q29 -191 54 -266q-16 -1 -50 -1q-144 0 -332 24q-222 29 -295 73q-36 -14 -55 -96q-19 -81 -40 -105l-223 -281q-48 15 -89 66q-90 114 -97 122q-24 47 -52 161q-26 108 -50 157
q-173 -115 -375 -146q-71 -11 -319 -15q-9 45 -9 93q0 102 112 405q-28 -3 -57 -3q-101 0 -259 60q-155 60 -201 70q43 142 156 264q112 124 245 153q-292 201 -416 504q80 119 240 152q78 15 252 15h42q-41 105 -41 210q0 100 14 242q34 2 46 2q104 0 227 -55
q59 -30 195 -107q109 346 360 453q89 -67 204 -225t139 -228q70 58 232 113q161 55 221 90q42 -61 42 -160z" />
    <glyph glyph-name="uni2741" unicode="&#x2741;" horiz-adv-x="2979" 
d="M1577 607q-34 34 -81 34q-46 0 -80 -34q-33 -35 -33 -81q0 -47 34 -78q35 -33 79 -33q47 0 80 33q35 31 35 78t-34 81zM1765 724q39 167 135 332q94 164 345 324v17q0 79 -42 148q-73 120 -186 120q-138 0 -248 -188q-84 -143 -84 -509q0 -82 6 -170q33 -29 74 -74z
M1825 562q104 117 249 200q146 83 277 108q51 9 222 21q49 67 49 150t-36 138q-57 96 -163 96t-216 -62q-173 -99 -411 -547q14 -28 29 -104zM1801 393q158 44 353 44q197 0 454 -131q84 38 122 110q37 70 37 127q0 122 -95 171q-93 51 -220 51q-196 0 -627 -269
q-3 -45 -24 -103zM1694 258q154 -34 296 -116q138 -78 232 -187q41 -44 127 -176q9 -1 26 -1q72 0 138 42q120 75 120 186q0 140 -186 250q-146 83 -513 83q-71 0 -169 -5q-30 -38 -71 -76zM1528 197q116 -99 204 -251q86 -154 104 -246q18 -99 25 -249q67 -45 149 -45
t138 32q96 55 96 162q0 108 -63 217q-97 172 -547 410q-29 -14 -106 -30zM1363 224q46 -147 46 -294q0 -19 -2 -53v-27q0 -124 -42 -235q-11 -32 -91 -200q73 -157 245 -157q214 0 214 312q0 197 -268 627q-43 5 -102 27zM1226 332q-31 -153 -115 -300q-82 -144 -188 -232
q-50 -43 -175 -124q-1 -8 -1 -23q0 -75 41 -143q74 -119 187 -119q139 0 249 188q84 141 84 536q0 41 -2 143q-39 27 -80 74zM1167 492q-110 -119 -280 -215q-119 -71 -217 -87q-99 -19 -249 -26q-49 -68 -49 -150t33 -137q59 -96 166 -96q109 0 215 60q169 95 410 549
q-16 30 -29 102zM1190 663q-153 -50 -354 -50q-202 0 -453 137q-85 -39 -121 -110q-38 -69 -38 -136q0 -114 98 -164q97 -51 217 -51q195 0 628 269q5 51 23 105zM1299 798q-196 45 -376 161q-88 63 -154 138q-33 40 -127 180q-7 1 -20 1q-76 0 -144 -42q-118 -72 -118 -189
q0 -139 186 -247q143 -83 537 -83q68 0 143 3q24 33 73 78zM1463 859q-113 100 -200 249q-85 146 -105 252q-21 114 -28 244q-68 47 -148 47q-81 0 -136 -34q-98 -59 -98 -163q0 -105 62 -215q100 -172 547 -410q37 14 106 30zM1631 832q-47 143 -47 314q0 174 45 295
q17 49 88 200q-72 157 -245 157q-111 0 -163 -94q-51 -96 -51 -219q0 -199 268 -626q15 -3 105 -27zM1778 1671q150 56 228 56q79 0 146 -38q150 -87 159 -309q124 -25 184 -50q182 -78 182 -273q0 -103 -50 -203q199 -168 199 -324q0 -157 -184 -284q54 -156 54 -234
q0 -76 -38 -141q-89 -150 -302 -161l-56 -180q-84 -185 -284 -185q-92 0 -191 48q-87 -101 -131 -135q-86 -62 -180 -62q-95 0 -178 55q-75 55 -121 134q-150 -56 -229 -56q-80 0 -147 38q-150 87 -159 312q-131 24 -183 44q-100 43 -149 133q-32 56 -32 156q0 102 48 190
q-94 80 -132 130q-67 88 -67 190q0 165 187 286q-56 159 -56 229q0 139 106 223q106 82 247 82q20 121 46 184q80 185 269 185q103 0 203 -52q90 106 132 133q88 68 179 68q90 0 178 -56q79 -60 122 -133z" />
    <glyph glyph-name="uniF02B" unicode="&#xf02b;" horiz-adv-x="142" 
d="M-37 1083v230h215v-230h-215zM-644 1792l105 4h37q209 0 272 -86q33 -40 33 -119q0 -12 -2 -44q-1 -43 -25 -85q-19 -51 -53 -51h-5q-10 0 -22 40q-2 11 -15 57q-5 17 -41 61q-16 22 -110 24q-124 2 -176 2q-82 0 -174 3q-75 10 -115 92q-40 70 -40 152v8q4 59 28 103
q27 41 55 41q38 0 43 -39q1 -7 2.5 -21.5t2.5 -21.5q0 -7 1.5 -22t1.5 -19q15 -52 52 -71q37 -8 79 -8h66zM-1019 -134q207 -77 379 -77t370 77v-207q-33 -14 -57 -19q-11 -3 -104 -29q-77 -21 -227 -24h-13q-147 0 -348 72v207z" />
    <glyph glyph-name="uniF02C" unicode="&#xf02c;" horiz-adv-x="127" 
d="M-37 1083v230h205v-230h-205zM-1019 -134q207 -77 379 -77t370 77v-207q-33 -14 -57 -19q-11 -3 -104 -29q-77 -21 -227 -24h-13q-147 0 -348 72v207z" />
    <glyph glyph-name="uniF02D" unicode="&#xf02d;" horiz-adv-x="553" 
d="M330 1082v-599h-228v599h-118v234h592v-234h-246z" />
    <glyph glyph-name="uniF02E" unicode="&#xf02e;" horiz-adv-x="124" 
d="M-37 1083v230h195v-230h-195zM-1420 1630q0 108 87 146q26 12 55 12q57 0 100 -41q44 -40 44 -101q0 -60 -44 -102q-43 -43 -86 -43q-72 0 -114 43q-42 42 -42 86z" />
    <glyph glyph-name="uniF02F" unicode="&#xf02f;" horiz-adv-x="108" 
d="M-37 1083v230h185v-230h-185zM-528 702q-52 -38 -114 -38q-63 0 -113 40q-51 39 -51 98t51 96q51 39 113 39q64 0 114 -37q50 -38 50 -98q0 -61 -50 -100z" />
    <glyph glyph-name="uniF030" unicode="&#xf030;" horiz-adv-x="118" 
d="M-37 1083v230h185v-230h-185zM-771 372q-52 42 -52 108t52 106q53 41 119 41q68 0 120 -42q54 -42 54 -105q0 -64 -54 -107q-52 -43 -120 -43q-66 0 -119 42z" />
    <glyph glyph-name="uniF031" unicode="&#xf031;" horiz-adv-x="124" 
d="M-37 1083v230h195v-230h-195zM-723 918h149v-544h-149v544z" />
    <glyph glyph-name="uniF032" unicode="&#xf032;" horiz-adv-x="124" 
d="M-37 1083v230h195v-230h-195zM-703 1178h149v-464h-149v464z" />
    <glyph glyph-name="Oacute" unicode="&#xf033;" horiz-adv-x="124" 
d="M-37 1083v230h195v-230h-195zM-780 1010h404v-132h-404v132z" />
    <glyph glyph-name="Ocircumflex" unicode="&#xf034;" horiz-adv-x="124" 
d="M-37 1083v230h195v-230h-195zM-1592 1479q-75 87 -75 175t69 174q68 87 230 87q163 0 232 -87q68 -86 68 -174t-75 -175q-45 -52 -79 -52q-16 0 -17 7q-10 10 -9 19q54 90 54 145q0 56 -50 97q-52 41 -124 41t-124 -41q-49 -41 -49 -109q0 -33 16 -62q6 -11 13.5 -25
t9.5 -18q5 -12 15 -28q1 -9 -5 -17q-9 -9 -21 -9q-34 0 -79 52z" />
    <glyph glyph-name="perthousand" unicode="&#xf035;" horiz-adv-x="1980" 
d="M298 754q-161 0 -161 -110v-3q2 -53 47 -83q47 -32 100 -32q55 0 108 25q73 31 73 87q0 116 -167 116zM1233 315q-50 44 -96 44q-4 -1 -12 -1q-53 -6 -236 -6q54 -256 255 -256h8q141 3 141 110v9q-5 51 -60 100zM1350 676h-489v-37q0 -70 5 -175q29 -1 80 -1
q171 -1 226 19q63 24 108 78q45 51 70 116zM316 866q268 -10 268 -274q0 -72 -8 -147t-8 -164q0 -198 77 -293q2 -10 2 -14q0 -28 -27 -28q-46 0 -98 76q-53 77 -69 220q-4 27 -4 71q0 64 9 157q-101 -51 -187 -56h-9q-78 0 -154 63q-80 68 -80 161q-3 93 70 164
q69 65 199 64h19zM1460 676q-47 -179 -175 -260q118 -67 118 -205q1 -91 -63 -161q-62 -69 -183 -69q-359 0 -409 491q-7 67 -7 131q0 39 3 73h-74v114h76q70 357 372 386q28 2 56 2q60 0 132 -4q60 114 407 548q215 267 506 267t425 -257q55 -103 55 -224q0 -120 -43 -120
q-28 0 -52 86q-8 32 -43 157q-103 241 -326 241q-119 0 -244 -71q-123 -69 -212 -183q-128 -176 -412 -558q-73 0 -251 -3q-122 -2 -194 -123q-38 -63 -54 -144h685v-114h-93z" />
    <glyph glyph-name="OE" unicode="&#xf036;" horiz-adv-x="2389" 
d="M663 278q0 145 -198 145q-195 0 -195 -141v-6q4 -145 167 -145q69 1 147 39q79 37 79 108zM1835 -333q-71 71 -133 71q-5 0 -15 -2q-66 -10 -331 -10q115 -337 373 -337h9q176 5 176 118q0 81 -79 160zM1303 244q2 -178 11 -284l210 -2h-6q122 1 199 24q166 49 261 262
h-675zM937 -846q-151 0 -243 228q-71 177 -71 344q0 90 16 217q-100 -41 -209 -41q-164 0 -281 94q-116 96 -116 270q0 393 426 393h28q223 -8 319 -110q99 -103 99 -307q0 -71 -11 -277q-22 -245 -22 -258q0 -179 55 -314q83 -149 83 -169q0 -70 -73 -70zM2004 782
q-106 53 -328 55h-2q-110 0 -211 -111q-102 -114 -145 -246h988v-236h-82q-91 -265 -261 -385q191 -134 191 -318q0 -187 -116 -288q-114 -99 -291 -99q-679 0 -681 1090h-46v236h53q32 234 207 412q174 180 407 180q231 0 339 -50q103 -48 240 -134q34 -30 129 -106v-268
q-58 48 -174 133q-76 50 -217 135z" />
    <glyph glyph-name="quotesinglbase" unicode="&#xf037;" horiz-adv-x="1967" 
d="M2628 834q-43 5 -71 34q-25 25 -25 67l1 17q0 20 -12 71q-13 52 -16 87q-26 270 -242 460q-211 185 -444 185h-15q-301 -4 -744 -529q-130 -156 -284 -361q-179 -237 -181 -239q-175 -214 -362 -214q-40 0 -113 37q-79 40 -129 77v260q50 -36 152 -105q51 -30 88 -32h1
q74 0 207 163q164 222 492 631q224 254 397 376q239 167 476 167q372 0 644 -248q271 -247 300 -626q5 -72 5 -114q0 -77 -12 -113q-16 -52 -92 -52q-14 0 -21 1z" />
    <glyph glyph-name="Aring" unicode="&#xf038;" horiz-adv-x="129" 
d="M-37 1083v230h195v-230h-195zM-1046 702q-52 -38 -114 -38q-63 0 -113 40q-51 39 -51 98t51 96q51 39 113 39q64 0 114 -37q50 -38 50 -98q0 -61 -50 -100z" />
    <glyph glyph-name="AE" unicode="&#xf039;" horiz-adv-x="131" 
d="M-37 1083v230h195v-230h-195zM-1304 372q-52 42 -52 108t52 106q53 41 119 41q67 0 121 -42q53 -42 53 -105t-53 -107q-53 -43 -121 -43q-67 0 -119 42z" />
    <glyph glyph-name="exclamdown" unicode="&#xf03a;" horiz-adv-x="127" 
d="M-37 1083v230h195v-230h-195zM-1251 918h149v-544h-149v544z" />
    <glyph glyph-name="less" unicode="&#xf03b;" horiz-adv-x="135" 
d="M-37 1083v230h215v-230h-215zM-1253 1178h149v-464h-149v464z" />
    <glyph glyph-name="greater" unicode="&#xf03c;" horiz-adv-x="124" 
d="M-37 1083v230h195v-230h-195zM-1220 1010h404v-132h-404v132z" />
    <glyph glyph-name="uniF03D" unicode="&#xf03d;" horiz-adv-x="124" 
d="M-37 1083v230h195v-230h-195zM-1420 1630q0 108 87 146q26 12 55 12q57 0 100 -41q44 -40 44 -101q0 -60 -44 -102q-43 -43 -86 -43q-72 0 -114 43q-42 42 -42 86z" />
    <glyph glyph-name="uniF03E" unicode="&#xf03e;" horiz-adv-x="860" 
d="M152 477h-2v-2zM150 475q2 -342 243 -342q113 0 183 81q70 82 69 200q0 117 -164 325l-80 101q-153 192 -153 370t98 300t287 122q75 0 137 -32q61 -31 61 -98q0 -62 -38 -140q-61 168 -205 168q-96 0 -152 -80t-57 -171q0 -92 43 -159q12 -20 100 -129l66 -82
q178 -223 178 -417t-111 -330q-116 -146 -317 -146q-136 0 -210 73q-75 73 -75 206q0 83 97 180z" />
    <glyph glyph-name="uniF03F" unicode="&#xf03f;" horiz-adv-x="385" 
d="M137 1571h127l-6 -1526l-125 2z" />
    <glyph glyph-name="uniF040" unicode="&#xf040;" horiz-adv-x="129" 
d="M-37 1083v230h205v-230h-205zM-185 -391q115 -63 115 -171q0 -104 -58 -104q-57 0 -176 80q-117 78 -244 254q-80 111 -135 267h107q56 -100 267 -272q21 -16 124 -54zM-25 -679v-106q-180 -77 -314 -77q-135 0 -304 77v106q179 -78 312 -78q132 0 288 71z" />
    <glyph glyph-name="uniF041" unicode="&#xf041;" horiz-adv-x="129" 
d="M-37 1083v230h205v-230h-205zM-185 -391q115 -63 115 -171q0 -104 -58 -104q-57 0 -176 80q-117 78 -244 254q-80 111 -135 267h107q56 -100 267 -272q21 -16 124 -54zM-35 -661v-80q-177 -64 -314 -64t-304 64v80q176 -65 312 -65t288 59zM-35 -819v-80
q-177 -64 -314 -64t-304 64v80q176 -65 312 -65t288 59z" />
    <glyph glyph-name="uniF042" unicode="&#xf042;" horiz-adv-x="124" 
d="M-37 1083v230h195v-230h-195zM156 -363h-115q0 -102 -10 -156q-23 -125 -113 -125q-48 0 -172 53q-49 22 -100 70q-64 52 -64 90q-1 2 -1 18q0 17 29 100q29 93 34 121q6 35 6 88q0 50 -14 89h139q11 -49 11 -96q0 -51 -3 -85q-3 -38 -37 -120q-26 -66 -28 -87q0 -4 2 -6
l-1 -1q0 -10 55 -50q55 -41 89 -41q53 0 53 76v186h248z" />
    <glyph glyph-name="uniF043" unicode="&#xf043;" horiz-adv-x="129" 
d="M-37 1083v230h205v-230h-205zM156 -363h-115q0 -102 -10 -156q-23 -125 -113 -125q-48 0 -172 53q-49 22 -100 70q-64 52 -64 90q-1 2 -1 18q0 17 29 100q29 93 34 121q6 35 6 88q0 50 -14 89h139q11 -49 11 -96q0 -51 -3 -85q-3 -38 -37 -120q-26 -66 -28 -87q0 -4 2 -6
l-1 -1q0 -10 55 -50q55 -41 89 -41q53 0 53 76v186h248zM216 -625v-106q-180 -77 -314 -77q-135 0 -304 77v106q178 -78 312 -78q132 0 288 71z" />
    <glyph glyph-name="uniF044" unicode="&#xf044;" horiz-adv-x="131" 
d="M-37 1083v230h205v-230h-205zM156 -363h-115q0 -102 -10 -156q-23 -125 -113 -125q-48 0 -172 53q-49 22 -100 70q-64 52 -64 90q-1 2 -1 18q0 17 29 100q29 93 34 121q6 35 6 88q0 50 -14 89h139q11 -49 11 -96q0 -51 -3 -85q-3 -38 -37 -120q-26 -66 -28 -87q0 -4 2 -6
l-1 -1q0 -10 55 -50q55 -41 89 -41q53 0 53 76v186h248zM190 -613v-96q-180 -77 -314 -77q-135 0 -304 77v96q178 -78 312 -78q132 0 288 71zM190 -803v-96q-180 -77 -314 -77q-135 0 -304 77v96q178 -78 312 -78q132 0 288 71z" />
    <glyph glyph-name="uniF045" unicode="&#xf045;" horiz-adv-x="127" 
d="M-37 1083v230h205v-230h-205zM-517 -203q-20 5 -59 5q-42 0 -76 -18q-34 -16 -34 -52q0 -42 32 -62q31 -20 67 -20q39 2 81 19q43 17 41 61q0 51 -52 67zM-565 -125q179 -6 179 -168v-14l-10 -208q-1 -9 -1 -27q0 -108 52 -169q0 -3 0.5 -5t0.5 -4l1 -1q0 -18 -18 -18
q-46 0 -79 81q-23 57 -29 111q-3 29 -3 67q0 40 3 92q-63 -31 -128 -31q-61 0 -112 37q-49 39 -49 112t55 110q52 35 126 35h12z" />
    <glyph glyph-name="uniF046" unicode="&#xf046;" horiz-adv-x="129" 
d="M-37 1083v230h205v-230h-205zM-635 -119h17q222 0 222 -206q0 -171 -191 -239q35 -26 67 -48q37 -25 37 -45t-20 -20q-22 0 -77 29q-64 30 -90 37q-32 9 -101 21q-69 11 -70 48q-1 3 -1 10q0 50 58 53q22 0 60 -16t58 -16q65 0 125 39q77 50 77 133v9q-5 91 -58 119
q-34 18 -96 21q-7 1 -22 1q-53 -2 -94 -13q-54 -14 -71 -14q-18 0 -27 12q-9 10 -9 24q0 53 206 61z" />
    <glyph glyph-name="uniF047" unicode="&#xf047;" horiz-adv-x="139" 
d="M-37 1083v230h205v-230h-205zM-844 -172q0 60 230 60q74 0 150 -36q76 -37 76 -103q0 -46 -54 -97q4 -7 24 -32t20 -62q0 -38 -60 -83q-13 -10 -44 -23q-42 -3 -42 -33q0 1 3 1q4 0 57 -22q53 -21 53 -44t-39 -23q-38 0 -205 63q-69 17 -106 28q-63 20 -63 58q0 46 48 46
q45 0 86 -32q40 -31 83 -31q42 0 100 29q57 28 57 62q0 33 -22 50q-25 17 -57 17l-150 -15q-103 0 -104 43q-1 28 35 39q38 12 70 12l142 -15q96 0 96 67q0 68 -197 68l-144 -22q-43 0 -43 30z" />
    <glyph glyph-name="uniF048" unicode="&#xf048;" horiz-adv-x="134" 
d="M-37 1083v230h205v-230h-205zM-480 -535q0 50 -28 69q-32 16 -85 16q-55 0 -85 -16q-30 -18 -30 -69q0 -72 114 -72t114 72zM-549 -121q161 -27 161 -141q0 -57 -12 -78q-10 -17 -34 -41q-24 -23 -24 -31q0 -10 13 -23q39 -38 39 -103t-62 -103q-51 -33 -126 -33
q-73 0 -130 34q-56 36 -56 105q0 39 9 55t27 36q17 20 17 30q0 8 -23 31t-36 43q-13 22 -13 76q0 53 43 92q44 40 111 51v-70q-82 -19 -82 -82q0 -62 39 -89t91 -27q53 0 94 31q42 32 42 72q0 42 -25 66q-24 24 -63 29v70z" />
    <glyph glyph-name="uniF049" unicode="&#xf049;" horiz-adv-x="128" 
d="M-37 1083v230h205v-230h-205zM-474 -564l-99 8q-90 0 -90 -88q0 -48 38 -62q18 -7 87 -7h114q22 0 31 -1q18 -6 18 -28q0 -35 -49 -35h-185q-58 0 -91 42t-33 101q0 18 24 69l22 49l-24 42q-24 45 -24 91t52 85q43 32 127 32q12 0 42 -2q1 0 1 1l-18 27q-20 32 -20 39
q0 56 33 88q31 31 72 31q37 0 72 -8q33 -8 33 -21q0 -6 -8 -11q-133 0 -133 -62q0 -18 4 -28q2 -2 5.5 -8t10 -16.5t13.5 -21.5q13 -18 43 -31t28 -26q-4 -45 -37 -45l-12 1l-61 21q-38 12 -72 12t-67 -18q-40 -19 -40 -55q0 -95 92 -95l102 15q84 0 84 -42q0 -43 -85 -43z
" />
    <glyph glyph-name="uniF04A" unicode="&#xf04a;" horiz-adv-x="137" 
d="M-37 1083v230h205v-230h-205zM-1180 -203q-20 5 -59 5q-41 0 -76 -18q-34 -16 -34 -52q-1 -42 31 -62q31 -20 68 -20q38 2 80 19t42 61q0 51 -52 67zM-1228 -125q179 -6 179 -168v-14l-10 -208q-1 -9 -1 -27q0 -108 52 -169q0 -3 0.5 -5t1.5 -4v-1q0 -18 -18 -18
q-46 0 -79 81q-23 57 -29 111q-3 29 -3 67q0 40 3 92q-63 -31 -128 -31q-61 0 -112 37q-49 39 -49 112t55 110q52 35 126 35h12z" />
    <glyph glyph-name="ograve" unicode="&#xf04b;" horiz-adv-x="137" 
d="M-37 1083v230h205v-230h-205zM-1288 -119h17q222 0 222 -206q0 -171 -191 -239q35 -26 67 -48q37 -25 37 -45t-20 -20q-21 0 -78 29q-62 29 -90 37q-30 9 -100 21q-69 11 -70 48q-1 3 -1 10q0 50 58 53q22 0 60 -16t58 -16q65 0 125 39q77 50 77 133q-1 3 -1 9
q-5 91 -57 119q-34 18 -97 21q-7 1 -21 1q-53 -2 -94 -13q-54 -14 -71 -14q-18 0 -27 12q-9 10 -9 24q0 53 206 61z" />
    <glyph glyph-name="oacute" unicode="&#xf04c;" horiz-adv-x="133" 
d="M-37 1083v230h205v-230h-205zM-1506 -172q0 60 230 60q74 0 150 -36q76 -37 76 -103q0 -46 -54 -97q4 -7 24 -32t20 -62q0 -38 -60 -83q-13 -10 -44 -23q-42 -3 -42 -33q0 1 3 1q4 0 57 -22q53 -21 53 -44t-39 -23q-38 0 -205 63q-69 17 -106 28q-63 20 -63 58
q0 46 48 46q45 0 86 -32q40 -31 83 -31q42 0 100 29q57 28 57 62q0 33 -22 50q-25 17 -57 17l-150 -15q-103 0 -104 43q-1 28 35 39q38 12 70 12l142 -15q96 0 96 67q0 68 -197 68l-144 -22q-43 0 -43 30z" />
    <glyph glyph-name="ocircumflex" unicode="&#xf04d;" horiz-adv-x="136" 
d="M-37 1083v230h205v-230h-205zM-1139 -535q0 52 -29 69q-29 16 -84 16q-54 0 -86 -16q-29 -18 -29 -69q0 -72 114 -72t114 72zM-1208 -121q161 -27 161 -141q0 -56 -11 -78q-13 -19 -36 -41q-23 -23 -23 -31q0 -10 13 -23q39 -38 39 -103t-62 -103q-51 -33 -125 -33
t-131 34q-56 36 -56 105q0 39 9 55q8 15 26 36q18 20 18 30q0 8 -23 31t-36 43q-13 22 -13 76q0 53 43 92q43 40 111 51v-70q-82 -19 -82 -82q0 -62 39 -89t91 -27q53 0 94 31q42 32 42 72q0 42 -25 66q-24 24 -63 29v70z" />
    <glyph glyph-name="otilde" unicode="&#xf04e;" horiz-adv-x="139" 
d="M-37 1083v230h205v-230h-205zM-1048 -658h-68v138q-56 -50 -136 -50t-132 36q-52 37 -68 64q7 32 36 107t29 102q0 30 -16 52q-17 23 -44 23h-23v64h67q38 0 59 -48q23 -46 23 -76v-34q-15 -85 -60 -175q59 -47 152 -47q27 0 65 18q37 17 47 39v323h69v-536z" />
    <glyph glyph-name="uniF04F" unicode="&#xf04f;" horiz-adv-x="134" 
d="M-37 1083v230h205v-230h-205zM-1162 -564l-99 8q-90 0 -90 -88q0 -48 38 -62q18 -7 87 -7h114q22 0 31 -1q18 -6 18 -28q0 -35 -49 -35h-185q-58 0 -91 42t-33 101q0 18 24 69l22 49l-24 42q-24 45 -24 91t52 85q43 32 127 32q12 0 42 -2q1 0 1 1l-18 27q-20 32 -20 39
q0 56 33 88q31 31 72 31q37 0 72 -8q33 -8 33 -21q0 -6 -8 -11q-133 0 -133 -62q0 -18 4 -28q2 -2 5.5 -8t10 -16.5t13.5 -21.5q13 -18 43 -31t28 -26q-4 -45 -37 -45l-12 1l-61 21q-38 12 -72 12t-67 -18q-40 -19 -40 -55q0 -95 92 -95l102 15q84 0 84 -42q0 -43 -85 -43z
" />
    <glyph glyph-name="cent.001" unicode="&#xf050;" horiz-adv-x="128" 
d="M-37 1083v230h205v-230h-205zM-1045 -198h-354q0 -8 -0.5 -16.5t-1 -13t-0.5 -6.5q-1 -87 41 -164q41 -75 113 -107q30 -13 86 -17q46 2 76 2q38 -5 40 -43q2 -29 -45 -29h-42l-8 1q-207 0 -297 189q-31 65 -31 162q0 19 1 42h-45q-27 0 -27 38t37 74q38 35 76 35
q39 0 39 -27v-51h342v-69z" />
    <glyph glyph-name="FL0213h" unicode="&#xf051;" horiz-adv-x="137" 
d="M-37 1083v230h205v-230h-205zM-240 -658h-68v138q-56 -50 -136 -50t-132 36q-52 37 -68 64q7 32 36 107t29 102q0 30 -16 52q-17 23 -44 23h-23v64h67q38 0 59 -48q23 -46 23 -76v-34q-15 -85 -60 -175q59 -47 152 -47q27 0 65 18q37 17 47 39v323h69v-536zM-871 -172
q-20 5 -59 5q-41 2 -76 -17q-34 -16 -34 -53q0 -41 32 -61q31 -20 67 -20q37 0 81 18q43 17 41 61q0 51 -52 67zM-919 -94q179 -6 179 -168v-14l-10 -208q-1 -9 -1 -27q0 -108 52 -169q0 -3 0.5 -5t0.5 -3l1 -2q0 -18 -18 -18q-46 0 -79 81q-23 57 -29 111q-3 29 -3 68
q0 40 3 91q-63 -31 -128 -31q-64 0 -112 38q-49 36 -49 110q0 75 55 112q52 35 126 34h12z" />
    <glyph glyph-name="_281" horiz-adv-x="6" 
d="M-86 -614v-106q-180 -77 -314 -77q-135 0 -304 77v106q178 -78 312 -78q132 0 288 71z" />
    <glyph glyph-name="_282" horiz-adv-x="6" 
d="M-86 -581v-96q-180 -77 -314 -77q-135 0 -304 77v96q178 -78 312 -78q132 0 288 71zM-86 -771v-96q-180 -77 -314 -77q-135 0 -304 77v96q178 -78 312 -78q132 0 288 71z" />
    <glyph glyph-name=".notdef.001" horiz-adv-x="1024" 
d="M822 1864h-548v-1727h548v1727zM959 2001v-2001h-822v2001h822z" />
    <glyph glyph-name="uni0A30_uni0A4D" 
d="M-210 -405q186 -143 186 -199q0 -41 -49 -57q-12 -4 -22 -4q-51 0 -163 85q-112 86 -145 95q-55 -142 -154 -163q-34 -8 -69 -8q-138 0 -173 143q-6 25 -6 60q0 75 61 137q60 62 135 62q78 0 167 -22q7 4 37 236h199q-20 -194 -40 -242q-24 -52 -35 -71q25 -17 71 -52z
" />
    <glyph glyph-name="uni0A35_uni0A4D" horiz-adv-x="20" 
d="M-466 -540q29 -131 136 -131q54 0 132 35q-25 -157 -160 -157q-103 0 -162 47q-36 30 -76 118q-40 90 -57 102q-28 11 -84 35q-88 39 -95 123q-1 7 -1 18q0 74 52 130q58 64 141 64h293v115h154v-253h-407q-77 0 -77 -51q0 -58 73 -58h396v-137h-258z" />
    <glyph glyph-name="uni0A39_uni0A4D" 
d="M-188 -454q0 -143 -77 -220t-221 -77q-142 0 -293 128q-108 96 -127 208q0 169 206 169q107 0 107 -47q0 -31 -50 -45q-4 -2 -25 -8q-20 -6 -35 -13q-21 -13 -21 -49q0 -38 78 -96q81 -59 147 -80q99 21 120 149v384h191v-403z" />
    <glyph glyph-name="uni0A2F_uni0A4D" horiz-adv-x="1189" 
d="M1005 1082v-1082h-235v535h-184q-2 -224 -17 -299q-30 -154 -224 -154q-80 0 -165 47q-98 64 -146 95q9 57 48 263l73 -75q146 -106 179 -106q20 0 20 96v366h416v314h-790v234h1233v-234h-208z" />
    <glyph glyph-name="uni0A4D_uni0A1A" horiz-adv-x="14" 
d="M-632 -419q0 -27 17 -129q32 -77 145 -77q114 0 114 113v93h-276zM-827 -419q-94 0 -94 73q0 43 56 111q23 28 71 49q48 24 83 24q66 0 66 -68v-33h289v218h161v-481q0 -80 -52 -150q-75 -103 -218 -103q-215 0 -280 146q-23 54 -43 214h-39z" />
    <glyph glyph-name="uni0A4D_uni0A1F" horiz-adv-x="15" 
d="M-185 -622q0 -30 -42 -74q-92 -101 -243 -101q-103 0 -253 75q-149 73 -199 162q22 112 109 206q85 92 185 127q97 34 277 52v108h159v-238h-31q-149 0 -297 -34q-108 -23 -224 -206q182 -128 280 -128q96 0 161 62q35 32 76 32q42 0 42 -43z" />
    <glyph glyph-name="uni0A4D_uni0A24" horiz-adv-x="16" 
d="M-929 -617q0 36 41 36q42 0 144 -45q100 -45 168 -45q69 0 132 22q65 23 65 73q0 148 -208 167q-10 2 -23 2q-37 0 -88 -12q-50 -12 -78 -12q-118 0 -118 99q0 81 127 81q28 1 111 -13q64 -10 99 -12q10 0 14 1q113 11 174 212h165q-31 -112 -57 -167q-26 -53 -92 -108
q132 -82 136 -227v-12q1 -106 -89 -165q-95 -62 -244 -62q-148 0 -264 66q-115 64 -115 121z" />
    <glyph glyph-name="uni0A4D_uni0A28" horiz-adv-x="17" 
d="M-449 -44v-168q114 -14 198 -96q82 -88 82 -189q-5 -118 -65 -202q-73 -94 -186 -94h-5v148q51 21 73 53q22 29 22 92q0 62 -70 108t-136 46q-68 0 -134 -44q-68 -42 -68 -107t21 -95q20 -31 74 -53v-148h-10q-113 0 -179 89q-70 94 -70 205q0 109 82 191q84 84 199 96
v168h172z" />
    <glyph glyph-name="_265" 
d="M156 -363h-115q0 -102 -10 -156q-23 -125 -113 -125q-48 0 -172 53q-49 22 -100 70q-64 52 -64 90q-1 2 -1 18q0 17 29 100q29 93 34 121q6 35 6 88q0 50 -14 89h139q11 -49 11 -96q0 -51 -3 -85q-3 -38 -37 -120q-26 -66 -28 -87q0 -4 2 -6l-1 -1q0 -10 55 -50
q55 -41 89 -41q53 0 53 76v186h248z" />
    <glyph glyph-name="_266" 
d="M-185 -391q115 -63 115 -171q0 -104 -58 -104q-57 0 -176 80q-117 78 -244 254q-80 111 -135 267h107q56 -100 267 -272q21 -16 124 -54z" />
    <glyph glyph-name="uni0A30_uni0A4D_uni0A41" horiz-adv-x="6" 
d="M-210 -372q186 -142 186 -199q0 -41 -49 -57q-12 -4 -22 -4q-53 0 -163 86q-117 86 -145 94q-55 -142 -154 -163q-34 -8 -69 -8q-138 0 -173 143q-6 26 -6 60q0 75 61 136q60 63 135 63q78 0 167 -22q7 4 37 236h199q-20 -194 -40 -242q-24 -52 -35 -71q25 -17 71 -52z
M-173 -723v-106q-180 -77 -314 -77q-135 0 -304 77v106q179 -78 312 -78q132 0 288 71z" />
    <glyph glyph-name="uni0A39_uni0A4D_uni0A41" horiz-adv-x="11" 
d="M-206 -729v-106q-180 -77 -314 -77q-135 0 -304 77v106q178 -78 312 -78q132 0 288 71zM-188 -410q0 -143 -77 -220t-221 -77q-142 0 -293 128q-108 96 -127 208q0 169 206 169q107 0 107 -47q0 -31 -50 -45q-4 -2 -25 -8q-20 -6 -35 -13q-21 -13 -21 -49q0 -38 78 -96
q81 -59 147 -80q99 21 120 149v384h191v-403z" />
    <glyph glyph-name="_269" horiz-adv-x="15" 
d="M156 -363h-115q0 -102 -10 -156q-23 -125 -113 -125q-48 0 -172 53q-49 22 -100 70q-64 52 -64 90q-1 2 -1 18q0 17 29 100q29 93 34 121q6 35 6 88q0 50 -14 89h139q11 -49 11 -96q0 -51 -3 -85q-3 -38 -37 -120q-26 -66 -28 -87q0 -4 2 -6l-1 -1q0 -10 55 -50
q55 -41 89 -41q53 0 53 76v186h248zM216 -625v-106q-180 -77 -314 -77q-135 0 -304 77v106q178 -78 312 -78q132 0 288 71z" />
    <glyph glyph-name="_270" horiz-adv-x="6" 
d="M-185 -391q115 -63 115 -171q0 -104 -58 -104q-57 0 -176 80q-117 78 -244 254q-80 111 -135 267h107q56 -100 267 -272q21 -16 124 -54zM-25 -679v-106q-180 -77 -314 -77q-135 0 -304 77v106q179 -78 312 -78q132 0 288 71z" />
    <glyph glyph-name="uni0A30_uni0A4D_uni0A42" 
d="M-111 -701v-96q-180 -77 -314 -77q-135 0 -304 77v96q179 -78 312 -78q132 0 288 71zM-111 -891v-96q-180 -77 -314 -77q-135 0 -304 77v96q179 -78 312 -78q132 0 288 71zM-210 -405q186 -143 186 -199q0 -41 -49 -57q-12 -4 -22 -4q-51 0 -163 85q-112 86 -145 95
q-55 -142 -154 -163q-34 -8 -69 -8q-138 0 -173 143q-6 25 -6 60q0 75 61 137q60 62 135 62q78 0 167 -22q7 4 37 236h199q-20 -194 -40 -242q-24 -52 -35 -71q25 -17 71 -52z" />
    <glyph glyph-name="uni0A39_uni0A4D_uni0A42" 
d="M-175 -738v-96q-180 -77 -314 -77q-135 0 -304 77v96q179 -78 312 -78q132 0 288 71zM-175 -928v-96q-180 -77 -314 -77q-135 0 -304 77v96q179 -78 312 -78q132 0 288 71zM-188 -454q0 -143 -77 -220t-221 -77q-142 0 -293 128q-108 96 -127 208q0 169 206 169
q107 0 107 -47q0 -31 -50 -45q-4 -2 -25 -8q-20 -6 -35 -13q-21 -13 -21 -49q0 -38 78 -96q81 -59 147 -80q99 21 120 149v384h191v-403z" />
    <glyph glyph-name="_273" horiz-adv-x="671" 
d="M104 1529q-75 87 -75 175t69 174q68 87 231 87t231 -87q69 -86 69 -174t-75 -175q-45 -52 -79 -52q-15 0 -21 9q-7 7 1 26l27 54q20 36 20 70q0 69 -50 108q-48 41 -124 41q-75 0 -123 -41q-49 -39 -49 -108q0 -34 16 -62q15 -27 22 -43q8 -15 12 -25q4 -12 -2 -20
q-9 -9 -20 -9q-35 0 -80 52z" />
    <glyph glyph-name="_274" horiz-adv-x="1295" 
d="M624 647q-95 74 -190 74q-97 0 -148 -56q-52 -55 -52 -138q0 -81 52 -136q54 -54 132 -54q157 0 299 217zM1153 1082q-16 -166 -53 -292q-37 -122 -108 -238q115 -260 205 -552h-240q-10 23 -118 325q-170 -216 -423 -221h-6q-183 0 -302 122q-116 119 -116 298v15
q4 189 137 309q121 110 295 110q12 0 34 -2q196 -12 381 -191q69 167 83 317h-927v234h1334v-234h-176zM759 -361q186 -143 186 -199q0 -41 -49 -57q-12 -4 -22 -4q-49 0 -164 85q-108 85 -144 95q-55 -142 -154 -163q-34 -8 -69 -8q-138 0 -173 143q-6 25 -6 60
q0 74 60 137q62 62 136 62q78 0 167 -22q7 4 37 236h199q-20 -195 -41 -242q-21 -49 -34 -71q25 -17 71 -52z" />
    <glyph glyph-name="uni0A28_uni0A42_uni0A70" horiz-adv-x="1252" 
d="M292 431q0 -105 36 -154q37 -50 121 -68v-243q-189 24 -290 148q-101 122 -101 314v6q1 195 149 335q101 100 260 140v173h-480v234h1288v-234h-575v-173q158 -40 262 -140q145 -140 146 -335v-8q0 -193 -100 -312q-102 -124 -289 -148v243q84 18 121 68q35 50 35 154
t-94 182q-95 78 -199 78q-106 0 -198 -78t-92 -182zM211 -421q204 -70 379 -70t370 70v-194q-201 -70 -386 -70q-85 2 -164 15q-96 18 -199 55v194zM211 -92q203 -75 381 -75t368 75v-195q-180 -74 -366 -74q-187 0 -383 74v195zM355 1479q-75 87 -75 175t68 174
q69 87 232 87q162 0 230 -87q69 -86 69 -174t-75 -175q-45 -52 -79 -52q-16 0 -17 7q-10 10 -9 19q54 90 54 145q0 56 -51 97q-50 41 -124 41q-73 0 -122 -41q-50 -40 -50 -109q0 -33 16 -62q15 -27 22 -43q10 -18 16 -28q2 -11 -6 -17q-6 -9 -20 -9q-34 0 -79 52z" />
    <glyph glyph-name="uni0A3E_uni0A02" horiz-adv-x="517" 
d="M320 1082v-599h-228v599h-118v234h582v-234h-236zM98 1496q-48 50 -48 118q0 69 48 120q51 49 120 49q68 0 119 -49q49 -50 49 -120q0 -69 -49 -118t-119 -49q-71 0 -120 49z" />
    <glyph glyph-name="uni0A09_uni0A71" horiz-adv-x="1905" 
d="M1254 1800q7 102 49 102q34 0 46 -98q12 -96 62 -148q51 -49 160 -49q196 0 226 210q9 85 43 85q40 0 48 -102q3 -35 2 -60q0 -67 -13 -120q-30 -100 -116 -150q-85 -49 -191 -49q-107 0 -192 49q-127 72 -127 271q0 27 3 59zM392 -134q207 -77 379 -77t370 77v-207
q-33 -14 -57 -19q-11 -3 -104 -29q-77 -21 -227 -24h-13q-147 0 -348 72v207zM851 504q-62 68 -122 68q-5 0 -15 -2q-64 -10 -347 -10q115 -336 369 -336h10q175 4 175 125q0 79 -70 155zM315 1082q2 -177 10 -288l234 -2l-5 -1q112 1 184 23q170 48 267 268h-690zM678 1622
q-331 0 -361 -306h707q-16 159 -95 233q-77 73 -251 73zM1250 1082q-91 -274 -262 -392q172 -138 172 -335q0 -153 -108 -259q-110 -107 -297 -107q-675 0 -675 1093h-94v234h96q16 256 178 398q160 142 420 142t412 -142q153 -143 171 -398h664v-234h-677zM546 791h-12h12z
" />
    <glyph glyph-name="uni0A0A_uni0A71" horiz-adv-x="1902" 
d="M1270 1800q8 102 49 102q34 0 46 -98q12 -96 62 -148q51 -49 160 -49q196 0 226 210q9 85 43 85q40 0 48 -102q3 -35 2 -60q0 -67 -13 -120q-30 -100 -116 -150q-85 -49 -191 -49q-107 0 -192 49q-127 72 -127 271q0 27 3 59zM370 -412q204 -70 379 -70t370 70v-194
q-201 -70 -386 -70q-81 0 -163 14q-89 17 -200 56v194zM370 -83q202 -75 380 -75q179 0 369 75v-195q-180 -74 -367 -74q-186 0 -382 74v195zM851 504q-62 68 -122 68q-5 0 -15 -2q-64 -10 -347 -10q115 -336 369 -336h10q175 4 175 125q0 79 -70 155zM315 1082
q2 -177 10 -288l234 -2l-5 -1q112 1 184 23q170 48 267 268h-690zM678 1622q-331 0 -361 -306h707q-16 159 -95 233q-77 73 -251 73zM1250 1082q-91 -274 -262 -392q172 -138 172 -335q0 -153 -108 -259q-110 -107 -297 -107q-675 0 -675 1093h-94v234h96q16 256 178 398
q160 142 420 142t412 -142q153 -143 171 -398h674v-234h-687zM546 791h-12h12z" />
    <glyph glyph-name="uni0A13_uni0A71" horiz-adv-x="1906" 
d="M1284 1800q7 102 49 102q34 0 46 -98q12 -96 62 -148q51 -49 160 -49q196 0 226 210q9 85 43 85q40 0 48 -102q3 -35 2 -60q0 -67 -13 -120q-30 -100 -116 -150q-85 -49 -191 -49q-107 0 -192 49q-127 72 -127 271q0 27 3 59zM858 514q-64 69 -124 69q-4 1 -14 -1
q-59 -9 -341 -11q112 -337 370 -337h9q171 4 171 123q2 80 -71 157zM325 1082q2 -169 11 -276q234 -2 234 -3h-3q116 5 182 23q175 50 266 256h-690zM710 1908l63 2q436 0 436 -148q0 -93 -269 -95q-35 1 -94.5 2.5t-80.5 1.5q-200 -2 -294 -85q-95 -84 -135 -270h1605v-234
h-679q-89 -261 -262 -380q184 -130 184 -356q0 -150 -105 -250q-103 -100 -308 -100h-4q-403 1 -567 376q-109 254 -109 710h-95v234h99q30 260 193 426q165 166 422 166z" />
    <glyph glyph-name="uni0A15_uni0A3C" horiz-adv-x="1296" 
d="M624 647q-95 74 -190 74q-97 0 -148 -56q-52 -55 -52 -138q0 -81 52 -136q54 -54 132 -54q157 0 299 217zM1153 1082q-16 -166 -53 -292q-37 -122 -108 -238q115 -260 205 -552h-240q-10 23 -118 325q-170 -216 -423 -221h-6q-183 0 -302 122q-116 119 -116 298v15
q4 189 137 309q121 110 295 110q12 0 34 -2q196 -12 381 -191q69 167 83 317h-927v234h1334v-234h-176zM28 102q106 1 142 -85q10 -24 10 -55q0 -58 -39 -99t-100 -41q-89 -2 -127 85q-12 27 -11 55q0 57 41 98q42 42 84 42z" />
    <glyph glyph-name="uni0A18_uni0A3C" horiz-adv-x="1423" 
d="M550 160q106 1 142 -85q10 -24 10 -55q0 -58 -39 -99t-100 -41q-89 -2 -127 85q-12 27 -11 55q0 57 41 98q42 42 84 42zM790 594q0 -157 113 -157q57 0 79 9q22 10 32 46v824h439v-234h-204v-1082h-235v225q-61 -23 -115 -23q-113 0 -228 104q-131 -111 -253 -111
q-124 0 -258 103q-135 104 -145 212q47 90 99 242q51 153 51 236q0 84 -64 94h-115v234h181q54 0 111 -48q56 -47 91 -116q30 -61 30 -149v-21q-5 -102 -127 -456q104 -98 146 -98q149 0 149 235q0 51 -19 145q-18 93 -18 158q0 62 45 157q54 115 128 115q66 0 111 -115
q37 -89 37 -155q0 -68 -31 -180q-30 -114 -30 -194z" />
    <glyph glyph-name="uni0A19_uni0A3C" horiz-adv-x="1223" 
d="M591 299q-103 85 -203 85t-109 -58q-1 -5 -1 -13q0 -46 56 -66q34 -12 85 -12q18 0 28 1q69 4 144 63zM302 1082v-131h408q178 0 275 -100q98 -101 98 -244q0 -197 -160 -330q61 -92 95 -153q27 -49 58 -135h-247q-23 48 -82 149q-142 -136 -353 -136q-143 0 -251 82
q-106 84 -106 216q0 131 83 225q84 93 222 99q15 2 30 0q116 0 203 -38q95 -44 195 -138q70 80 70 140t-58 94q-57 36 -118 36h-597v364h-80v234h1261v-234h-946zM40 105q106 1 142 -85q10 -24 10 -55q0 -59 -39 -99q-39 -41 -100 -41q-89 -2 -127 85q-12 27 -11 55
q0 56 41 99q43 41 84 41z" />
    <glyph glyph-name="uni0A1A_uni0A3C" horiz-adv-x="1249" 
d="M843 563h-434q8 -155 48 -227q59 -101 198 -101q188 0 188 146v182zM1080 1082v-689q0 -195 -117 -294t-299 -99q-338 0 -456 348q-22 61 -33 215h-53q-123 0 -123 130q-2 113 85 187q86 74 204 74t118 -113v-46h437v287h-855v234h1291v-234h-199zM7 187q106 1 142 -85
q10 -24 10 -55q0 -59 -39 -99q-39 -41 -100 -41q-89 -2 -127 85q-12 27 -11 55q0 57 42 99q41 41 83 41z" />
    <glyph glyph-name="uni0A1B_uni0A3C" horiz-adv-x="1213" 
d="M469 310q-87 -2 -125 -5q-53 -5 -70 -23q-9 -6 -9 -17q0 -46 204 -52v97zM664 310v-97q207 6 207 52q0 10 -6 16q-24 24 -201 29zM128 52q-99 60 -99 204q0 145 93 205q-57 119 -57 225q0 105 79 178q82 70 172 70h490v148h-822v234h1254v-234h-200v-381h-712
q-31 0 -31 -33q0 -14 6 -35q7 -31 21 -87l247 11q313 0 431 -67q120 -68 120 -216q0 -150 -113 -221q-121 -73 -437 -73q-317 0 -442 72zM12 -8q106 1 142 -85q10 -24 10 -55q0 -58 -39 -99t-100 -41q-89 -2 -127 85q-12 27 -11 55q0 57 41 98q42 42 84 42z" />
    <glyph glyph-name="uni0A1D_uni0A3C" horiz-adv-x="1249" 
d="M337 1082q87 -116 94 -123q71 -62 160 -62h11q97 4 154 64q30 33 79 121h-498zM93 710q0 78 189 119q-119 93 -181 253h-115v234h1292v-234h-206q-55 -187 -170 -278q170 -104 170 -302q0 -196 -165 -303q-95 -60 -238 -60h-22q51 -73 51 -102q0 -68 -63 -68
q-80 0 -187 107q-103 103 -182 103h-6h-12q-120 0 -120 139q0 65 44 107q45 42 109 42q63 0 125 -57q61 -56 117 -58h38q102 0 156 14q109 30 117 128v7q0 66 -66 126q-63 57 -123 57q-9 0 -13 -1q-70 -8 -187 -41q-125 -33 -196 -48q-47 6 -102 38q-54 32 -54 78zM73 155
q106 1 142 -85q10 -24 10 -55q0 -59 -39 -99q-39 -41 -100 -41q-89 -2 -127 85q-12 27 -11 55q0 57 42 99q41 41 83 41z" />
    <glyph glyph-name="uni0A1E_uni0A3C" horiz-adv-x="1223" 
d="M824 1082h-414q3 -27 36 -76q74 -65 148 -65h230v141zM1052 1082v-366h-652q-28 0 -62 -18q-34 -20 -36 -39q-1 -19 20 -56q21 -36 36 -36h685v-231h-448q68 -158 254 -158q55 0 209 42l-56 -192q-168 -68 -238 -68q-155 0 -278 125q-102 99 -148 232q-45 29 -110 53
q-66 24 -116 104q-42 76 -42 169q0 191 193 266q-17 23 -51 63q-14 20 -42 110h-183v234h1262v-234h-197zM88 245q106 1 142 -85q10 -24 10 -55q0 -59 -39 -99q-39 -41 -100 -41q-89 -2 -127 85q-12 27 -11 55q0 56 41 99q43 41 84 41z" />
    <glyph glyph-name="uni0A1F_uni0A3C" horiz-adv-x="1228" 
d="M1054 1082v-369q-63 3 -117 3q-215 0 -365 -68q-147 -67 -288 -241q78 -70 200 -129q126 -60 222 -59q97 -1 153 41q57 43 97 76q41 33 74 35q46 0 46 -64q0 -123 -132 -218q-133 -95 -286 -95q-152 0 -372 126t-261 273q17 99 129 219t214 190q99 70 192 94
q87 21 261 46v140h-826v234h1258v-234h-199zM-8 130q106 1 142 -85q10 -24 10 -55q0 -58 -39 -99t-100 -41q-89 -2 -127 85q-12 27 -11 55q0 57 41 98q42 42 84 42z" />
    <glyph glyph-name="uni0A20_uni0A3C" horiz-adv-x="1243" 
d="M260 451q0 -224 324 -224t324 224v1q0 96 -93 182q-92 85 -231 85t-230 -85q-94 -85 -94 -183zM700 1082l1 -139q195 -42 317 -173q123 -133 124 -311v-5q0 -224 -174 -349q-151 -109 -384 -109q-232 0 -395 117q-162 115 -162 340v6q1 178 124 311q122 131 317 173v139
h-472v234h1275v-234h-571zM14 92q106 1 142 -85q10 -24 10 -55q0 -58 -39 -99t-100 -41q-89 -2 -127 85q-12 27 -11 55q0 57 41 98q42 42 84 42z" />
    <glyph glyph-name="uni0A22_uni0A3C" horiz-adv-x="1253" 
d="M896 244q-8 59 -79 59h-9q-80 -4 -148 -78q69 -36 144 -36q5 1 14 1q78 3 78 48v6zM1074 1082v-454h-670q10 -120 97 -243q104 129 305 140q9 1 25 1q180 0 258 -135q38 -68 38 -157q0 -90 -57 -160q-82 -108 -278 -108q-288 0 -513 321q-96 136 -109 341h-53
q-116 0 -116 115t94 191t200 76t106 -84v-65h439v221h-857v234h1302v-234h-211zM82 210q106 1 142 -85q10 -24 10 -55q0 -58 -39 -99t-100 -41q-89 -2 -127 85q-12 27 -11 55q0 57 41 98q42 42 84 42z" />
    <glyph glyph-name="uni0A23_uni0A3C" horiz-adv-x="1264" 
d="M576 1082q74 -37 256 -107q96 -29 300 -67v-203q-150 25 -228 47v-352h-64q-58 111 -123 147q-98 52 -184 52q-7 -1 -20.5 -2t-19.5 -1q-102 -17 -203 -218q64 -76 180 -126q116 -48 234 -54q12 -2 24 0q107 0 224 44q130 50 174 50q46 0 46 -34q0 -63 -121 -153
q-75 -55 -120 -74q-120 -52 -228 -52q-217 0 -396 93q-204 106 -274 301q185 434 455 434q92 0 196 -53v78q-85 25 -244 90q-67 37 -164 160h-283v234l1300 1v-235h-717zM19 124q106 1 142 -85q10 -24 10 -55q0 -58 -39 -99t-100 -41q-89 -2 -127 85q-12 27 -11 55
q0 58 42 98q40 42 83 42z" />
    <glyph glyph-name="uni0A24_uni0A3C" horiz-adv-x="1252" 
d="M1071 1082q-45 -242 -180 -379q188 -125 188 -308t-112 -291q-114 -106 -288 -106q-68 0 -242 47q-38 11 -149 61q-235 106 -237 184q0 18 18 34q18 15 49 15q32 0 174 -48q147 -49 194 -55q47 -8 161 -8q109 0 156 44t47 106q0 105 -98 155q-85 46 -228 46
q-34 0 -118 -13q-74 -14 -118 -14q-199 0 -199 156q0 145 173 145q50 0 161 -25q103 -26 160 -26q178 0 248 280h-840v234l1284 1v-235h-204zM40 90q106 1 142 -85q10 -24 10 -55q0 -58 -39 -99t-100 -41q-89 -2 -127 85q-12 27 -11 55q0 57 41 98q42 42 84 42z" />
    <glyph glyph-name="uni0A25_uni0A3C" horiz-adv-x="1221" 
d="M810 639h-463l-37 -143q96 -111 216 -111t284 91v163zM810 1082h-430q12 -78 12 -145q0 -34 -3 -65h421v210zM1042 1082v-1082h-232v225q-146 -74 -278 -74q-160 0 -302 105q-113 82 -181 185q105 267 105 502q0 73 -10 139h-156v234h1259v-234h-205zM26 189
q106 1 142 -85q10 -24 10 -55q0 -59 -39 -99q-39 -41 -100 -41q-89 -2 -127 85q-12 27 -11 55q0 56 41 99q43 41 84 41z" />
    <glyph glyph-name="uni0A26_uni0A3C" horiz-adv-x="1249" 
d="M1074 1082v-531h-663q8 -161 73 -243q66 -83 224 -83q54 -1 126 25q27 10 69 26t53 20q54 20 78 20q71 0 71 -71t-119 -158q-118 -87 -283 -87q-501 0 -521 549h-82q-46 -1 -69.5 26.5t-23.5 82.5q0 110 94 207t201 97q106 0 106 -96v-83h434v299h-852v234h1285v-234
h-201zM35 179q106 1 142 -85q10 -24 10 -55q0 -59 -39 -99q-39 -41 -100 -41q-89 -2 -127 85q-12 27 -11 55q0 57 42 99q41 41 83 41z" />
    <glyph glyph-name="uni0A27_uni0A3C" horiz-adv-x="1202" 
d="M798 1082h-418q7 -66 7 -131q0 -162 -79 -414q96 -109 213 -109q116 0 277 89v565zM1033 1082v-1082h-235v261q-107 -68 -290 -68q-134 -2 -262 87t-200 204q109 270 109 484q0 62 -7 114h-158v234h1239v-234h-196zM66 235q106 1 142 -85q10 -24 10 -55q0 -59 -39 -99
q-39 -41 -100 -41q-89 -2 -127 85q-12 27 -11 55q0 56 41 99q43 41 84 41z" />
    <glyph glyph-name="uni0A28_uni0A3C" horiz-adv-x="1243" 
d="M292 431q0 -105 36 -154q37 -50 121 -68v-243q-189 24 -290 148q-101 122 -101 314v6q1 195 149 335q101 100 260 140v173h-480v234h1288v-234h-575v-173q158 -40 262 -140q145 -140 146 -335v-8q0 -193 -100 -312q-102 -124 -289 -148v243q84 18 121 68q35 50 35 154
t-94 182q-95 78 -199 78q-106 0 -198 -78t-92 -182zM7 87q106 1 142 -85q10 -24 10 -55q0 -59 -39 -99q-39 -41 -100 -41q-89 -2 -127 85q-12 27 -11 55q0 57 42 99q41 41 83 41z" />
    <glyph glyph-name="uni0A2A_uni0A3C" horiz-adv-x="1233" 
d="M1067 1082v-1082h-233v280q-146 -80 -309 -80q-164 0 -321 115q-107 79 -133 158q-1 5 -1 14q0 63 39 157q44 108 73 186q31 77 31 122q0 130 -93 130h-129v234h199q111 0 186 -108q73 -108 73 -218q0 -11 -2 -27q-29 -251 -129 -437q132 -99 249 -99q116 0 267 101v788
h432v-234h-199zM29 232q106 1 142 -85q10 -24 10 -55q0 -58 -39 -99t-100 -41q-89 -2 -127 85q-12 27 -11 55q0 58 42 98q40 42 83 42z" />
    <glyph glyph-name="uni0A2C_uni0A3C" horiz-adv-x="1197" 
d="M786 602h-264q-79 -45 -217 -193q121 -89 227 -89q62 0 144 21q83 21 110 57v204zM786 1082h-446q53 -133 209 -246h237v246zM1022 1082v-1082h-236v163q-134 -75 -276 -75q-194 0 -350 138q-82 74 -126 186q50 108 122 184q49 49 162 136q-168 138 -213 350h-115v234
h1229v-234h-197zM31 153q106 1 142 -85q10 -24 10 -55q0 -59 -39 -99q-39 -41 -100 -41q-89 -2 -127 85q-12 27 -11 55q0 57 42 99q41 41 83 41z" />
    <glyph glyph-name="uni0A2D_uni0A3C" horiz-adv-x="1218" 
d="M439 749q-152 0 -152 -86q-1 -26 15.5 -42t49.5 -21q20 -3 38 -3q107 0 213 91q-83 61 -164 61zM1081 1082q-21 -231 -158 -389q119 -143 119 -283q0 -217 -152 -330q-140 -102 -335 -102q-24 0 -36 1q-89 3 -215 44q-114 38 -171 83.5t-56 97.5q0 82 91 82q46 0 118 -28
q158 -60 284 -60q124 -2 186 81q44 59 44 127q1 67 -32 117q-184 -155 -375 -155q-192 0 -282 108q-67 79 -67 184q0 164 127 254q95 66 254 66h14q170 -3 321 -115q65 83 85 217h-863v234h1265v-234h-166zM22 45q106 1 142 -85q10 -24 10 -55q0 -59 -39 -99
q-39 -41 -100 -41q-89 -2 -127 85q-12 27 -11 55q0 56 41 99q43 41 84 41z" />
    <glyph glyph-name="uni0A2E_uni0A3C" horiz-adv-x="1259" 
d="M1074 1082v-1082h-234v528h-415q-22 -194 -51 -283q-59 -185 -178 -185q-156 0 -156 164q0 76 46 175q47 103 88 188q39 96 39 231t-3 174q-3 38 -14 57q-16 33 -65 33h-142v234h207q253 0 253 -443q0 -23 -2 -113h393v556h434v-234h-200zM592 375q106 1 142 -85
q10 -24 10 -55q0 -59 -39 -99q-39 -41 -100 -41q-89 -2 -127 85q-12 27 -11 55q0 56 41 99q43 41 84 41z" />
    <glyph glyph-name="uni0A2F_uni0A3C" horiz-adv-x="1336" 
d="M929 1082h-581q12 -76 12 -121q0 -215 -99 -477q52 -60 132 -110q81 -51 110 -51q45 0 49 133q1 12 1 44q-2 47 -3 118q-4 112 -3 150h382v314zM1160 1082v-1082h-231v535h-146v-141q0 -131 -78 -215t-211 -84t-286 105q-152 106 -204 234q48 148 104 359q18 102 18 151
q0 50 -15 138h-124v234h1390v-234h-217zM18 141q106 1 142 -85q10 -24 10 -55q0 -59 -39 -99q-39 -41 -100 -41q-89 -2 -127 85q-12 27 -11 55q0 56 41 99q43 41 84 41z" />
    <glyph glyph-name="uni0A30_uni0A3C" horiz-adv-x="1156" 
d="M746 653h-376q-76 0 -76 -50q0 -19 12 -41q44 -93 113 -166q158 -167 262 -167q65 0 65 104v320zM979 1082v-716q0 -156 -72 -262t-223 -106q-106 0 -228 72q-123 73 -223 185q-175 197 -175 367q0 110 84 188q84 76 215 76h389v196h-750v234h1184v-234h-201zM27 204
q106 1 142 -85q10 -24 10 -55q0 -58 -39 -99t-100 -41q-89 -2 -127 85q-12 27 -11 55q0 58 42 98q40 42 83 42z" />
    <glyph glyph-name="uni0A35_uni0A3C" horiz-adv-x="1192" 
d="M1024 1082v-372h-664q-112 0 -112 -54q0 -22 26 -51q24 -30 44 -30h682v-235h-451q61 -151 227 -151q89 0 238 37l-54 -200q-147 -59 -239 -59q-154 2 -261 107q-108 106 -159 261q-14 16 -47 27q-35 12 -92 37q-118 61 -144 232q-3 18 -3 36q-1 117 105 196t226 79h447
v140h-799v234h1228v-234h-198zM38 249q106 1 142 -85q10 -24 10 -55q0 -59 -39 -99q-39 -41 -100 -41q-89 -2 -127 85q-12 27 -11 55q0 56 41 99q43 41 84 41z" />
    <glyph glyph-name="uni0A38_uni0A3C" horiz-adv-x="1259" 
d="M838 1082h-446q41 -162 49 -326h397v326zM714 78q-44 -44 -106 -44t-106 44q-45 44 -45 106q0 61 45 105q44 44 106 44t106 -44t44 -105q0 -62 -44 -106zM1072 1082v-1082h-234v520h-409l-60 -255q-47 -207 -174 -207q-68 0 -116 48q-48 50 -48 118t87 248q86 183 86 298
q0 64 -10 114q-10 51 -45 198h-163v234h1298v-234h-212z" />
    <glyph glyph-name="uni0A39_uni0A3C" horiz-adv-x="1174" 
d="M999 1082v-720q1 -157 -91 -260q-92 -102 -251 -102q-209 0 -401 184q-192 186 -192 395q0 117 92 197t210 80h149v-232h-133q-87 0 -87 -65q-2 -86 125 -206q126 -120 229 -120q119 0 119 124v725h-773v234h1204v-234h-200zM93 83q106 1 142 -85q10 -24 10 -55
q0 -59 -39 -99q-39 -41 -100 -41q-89 -2 -127 85q-12 27 -11 55q0 57 42 99q41 41 83 41z" />
    <glyph glyph-name="uni0A05_uni0A3C" horiz-adv-x="1561" 
d="M1391 1082v-1082h-236v651q-86 -38 -139 -77q-53 -43 -83 -152q-47 -176 -58 -198q-51 -107 -161 -107q-71 0 -122 35q-53 33 -53 117q0 83 110 211q110 130 110 213q0 128 -59 258q-100 -72 -208 -216q-111 -147 -112 -233q-3 -87 -56 -154q-52 -67 -130 -67t-128 43
q-49 44 -49 114t77 179q78 108 78 191q0 274 -78 274h-108v234h178q98 0 164 -134q50 -96 70 -232q104 120 156 179q106 105 182 105h8q112 -26 182 -210q37 -100 57 -215q94 62 172 92v415h441v-234h-205zM327 229q106 1 142 -85q10 -24 10 -55q0 -59 -39 -99
q-39 -41 -100 -41q-89 -2 -127 85q-12 27 -11 55q0 57 42 99q41 41 83 41z" />
    <glyph glyph-name="uni0A06_uni0A3C" horiz-adv-x="2053" 
d="M314 204q106 1 142 -85q10 -24 10 -55q0 -58 -39 -99t-100 -41q-89 -2 -127 85q-12 27 -11 55q0 57 41 98q42 42 84 42zM1391 1082v-1082h-236v651q-86 -38 -139 -77q-53 -43 -83 -152q-47 -176 -58 -198q-51 -107 -161 -107q-71 0 -122 35q-53 33 -53 117q0 83 110 211
q110 130 110 213q0 128 -59 258q-100 -72 -208 -216q-111 -147 -112 -233q-3 -87 -56 -154q-52 -67 -130 -67t-128 43q-49 44 -49 114t77 179q78 108 78 191q0 274 -78 274h-108v234h178q98 0 164 -134q50 -96 70 -232q104 120 156 179q106 105 182 105h8q112 -26 182 -210
q37 -100 57 -215q94 62 172 92v415h441v-234h-205zM1856 1082v-599h-228v599h-118v234h582v-234h-236z" />
    <glyph glyph-name="uni0A07_uni0A3C" horiz-adv-x="1653" 
d="M1256 1082h-500q27 -68 59 -103q93 -103 184 -121h257v224zM1431 625l-221 4q-167 0 -290 -42q-123 -43 -225 -172q75 -77 203 -139q125 -61 213 -61h11q91 5 180 91q90 87 120 87q64 0 64 -88q0 -87 -104 -191q-104 -103 -220 -112q-13 -1 -41 -1q-202 0 -411 115
q-209 117 -276 291q40 165 287 339q-43 41 -114 124q-63 87 -95 212h-103v234h1283v-234h-205v-457h-56zM670 1419q-5 81 -8 99q-5 33 -20 63q-33 69 -144 69t-149 -119q-19 -63 -19 -215h75v-234h-75v-1082h-231v1082h-141v234h141q1 270 77 398q96 165 338 165h23
q360 -13 360 -380q0 -33 -5 -80h-222zM538 25h2q103 0 138 -86q12 -31 12 -59q0 -51 -40 -94q-39 -41 -100 -41h-2q-87 0 -124 85q-12 26 -12 69t42 85q43 41 84 41z" />
    <glyph glyph-name="uni0A08_uni0A3C" horiz-adv-x="1798" 
d="M1012 625l-221 4q-169 0 -289 -42q-123 -42 -226 -172q77 -77 204 -139q125 -61 212 -61h10q91 5 180 91q92 87 121 87q64 0 64 -88q0 -87 -105 -191q-103 -103 -219 -112q-13 -1 -41 -1q-204 0 -410 115q-209 115 -277 291q40 165 287 339q-43 41 -114 124
q-63 87 -95 212h-103v234h1382q0 152 -19 215q-38 119 -154 119q-81 0 -115 -34q-33 -32 -44 -112q-5 -33 -11 -85h-222q-1 19 -1 53q0 249 164 350q92 57 194 57q262 0 363 -171q75 -126 76 -392h240v-234h-240v-1082h-231v1082h-304v-457h-56zM837 1082h-500
q27 -68 59 -103q93 -103 184 -121h257v224zM56 93h2q104 0 140 -85q10 -24 10 -70q0 -44 -39 -84q-39 -41 -100 -41h-2q-88 0 -125 85q-12 27 -12 54q0 28 12 55t42 57q31 29 72 29z" />
    <glyph glyph-name="uni0A09_uni0A3C" horiz-adv-x="1377" 
d="M76 153q106 1 142 -85q10 -24 10 -55q0 -59 -39 -99q-39 -41 -100 -41q-89 -2 -127 85q-12 27 -11 55q0 56 41 99q43 41 84 41zM851 504q-62 68 -122 68q-5 0 -15 -2q-64 -10 -347 -10q115 -336 369 -336h10q175 4 175 125q0 79 -70 155zM315 1082q2 -177 10 -288l234 -2
l-5 -1q112 1 184 23q170 48 267 268h-690zM678 1622q-331 0 -361 -306h707q-16 159 -95 233q-77 73 -251 73zM1250 1082q-91 -274 -262 -392q172 -138 172 -335q0 -153 -108 -259q-110 -107 -297 -107q-675 0 -675 1093h-94v234h96q16 256 178 398q160 142 420 142t412 -142
q153 -143 171 -398h144v-234h-157zM546 791h-12h12zM380 -134q207 -77 379 -77t370 77v-207q-33 -14 -57 -19q-11 -3 -104 -29q-77 -21 -227 -24h-13q-147 0 -348 72v207z" />
    <glyph glyph-name="uni0A0A_uni0A3C" horiz-adv-x="1382" 
d="M76 153q106 1 142 -85q10 -24 10 -55q0 -59 -39 -99q-39 -41 -100 -41q-89 -2 -127 85q-12 27 -11 55q0 56 41 99q43 41 84 41zM851 504q-62 68 -122 68q-5 0 -15 -2q-64 -10 -347 -10q115 -336 369 -336h10q175 4 175 125q0 79 -70 155zM315 1082q2 -177 10 -288l234 -2
l-5 -1q112 1 184 23q170 48 267 268h-690zM678 1622q-331 0 -361 -306h707q-16 159 -95 233q-77 73 -251 73zM1250 1082q-91 -274 -262 -392q172 -138 172 -335q0 -153 -108 -259q-110 -107 -297 -107q-675 0 -675 1093h-94v234h96q16 256 178 398q160 142 420 142t412 -142
q153 -143 171 -398h144v-234h-157zM546 791h-12h12zM377 -421q204 -70 379 -70t370 70v-194q-201 -70 -386 -70q-85 2 -164 15q-96 18 -199 55v194zM377 -92q203 -75 381 -75t368 75v-195q-180 -74 -366 -74q-187 0 -383 74v195z" />
    <glyph glyph-name="uni0A0F_uni0A3C" horiz-adv-x="1243" 
d="M56 93q106 1 142 -85q10 -24 10 -55q0 -59 -39 -99q-39 -41 -100 -41q-89 -2 -127 85q-12 27 -11 55q0 56 41 99q43 41 84 41zM837 1082h-500q27 -68 59 -103q93 -103 184 -121h257v224zM1012 625l-221 4q-169 0 -289 -42q-123 -42 -226 -172q78 -78 208 -141
q123 -59 208 -59h10q91 5 180 91q92 87 121 87q64 0 64 -88q0 -87 -105 -191q-103 -103 -219 -112q-13 -1 -41 -1q-204 0 -410 115q-209 115 -277 291q40 165 287 339q-43 41 -114 124q-63 87 -95 212h-103v234h1283v-234h-205v-457h-56zM730 1770q80 -68 196 -248
q62 -98 62 -162v-11q-1 -27 -20 -25q-9 2 -71 83q-63 81 -171 153q-29 19 -97 61q-108 64 -323 80q-14 12 -23 17q-13 8 -24 18q-18 23 -18 62q0 14 1 21q20 111 121 111q10 0 32 -2q181 -25 335 -158z" />
    <glyph glyph-name="uni0A10_uni0A3C" horiz-adv-x="1577" 
d="M301 199q106 1 142 -85q10 -24 10 -55q0 -59 -39 -99q-39 -41 -100 -41q-89 -2 -127 85q-12 27 -11 55q0 57 42 99q41 41 83 41zM1391 1082v-1082h-236v651q-86 -38 -139 -77q-53 -43 -83 -152q-47 -176 -58 -198q-51 -107 -161 -107q-71 0 -122 35q-53 33 -53 117
q0 83 110 211q110 130 110 213q0 128 -59 258q-100 -72 -208 -216q-111 -147 -112 -233q-3 -87 -56 -154q-52 -67 -130 -67t-128 43q-49 44 -49 114t77 179q78 108 78 191q0 274 -78 274h-108v234h178q98 0 164 -134q50 -96 70 -232q104 120 156 179q106 105 182 105h8
q112 -26 182 -210q37 -100 57 -215q94 62 172 92v415h441v-234h-205zM742 1501l-119 -6q-127 0 -127 81q0 46 42 80q40 34 87 37t69 3q202 0 456 -184q-51 76 -167 180q-106 97 -262 97q-21 0 -32 -1q-53 -4 -68 -4q-103 0 -103 81q0 60 55 91q56 32 111 32q209 0 364 -158
q112 -118 213 -344q35 -78 35 -114t-16 -36q-15 0 -40 14q-256 150 -461 151h-37z" />
    <glyph glyph-name="uni0A13_uni0A3C" horiz-adv-x="1403" 
d="M858 514q-64 69 -124 69q-4 1 -14 -1q-59 -9 -341 -11q112 -337 370 -337h9q171 4 171 123q2 80 -71 157zM325 1082q2 -169 11 -276q234 -2 234 -3h-3q116 5 182 23q175 50 266 256h-690zM710 1908l63 2q436 0 436 -148q0 -93 -269 -95q-35 1 -94.5 2.5t-80.5 1.5
q-200 -2 -294 -85q-95 -84 -135 -270h1095v-234h-169q-89 -261 -262 -380q184 -130 184 -356q0 -150 -105 -250q-103 -100 -308 -100h-4q-403 1 -567 376q-109 254 -109 710h-95v234h99q30 260 193 426q165 166 422 166zM76 153q106 1 142 -85q10 -24 10 -55q0 -59 -39 -99
q-39 -41 -100 -41q-89 -2 -127 85q-12 27 -11 55q0 56 41 99q43 41 84 41z" />
    <glyph glyph-name="uni0A14_uni0A3C" horiz-adv-x="1567" 
d="M258 183q106 1 142 -85q10 -24 10 -55q0 -59 -39 -99q-39 -41 -100 -41q-89 -2 -127 85q-12 27 -11 55q0 56 41 99q43 41 84 41zM1391 1082v-1082h-236v651q-86 -38 -139 -77q-53 -43 -83 -152q-47 -176 -58 -198q-51 -107 -161 -107q-71 0 -122 35q-53 33 -53 117
q0 83 110 211q110 130 110 213q0 128 -59 258q-100 -72 -208 -216q-111 -147 -112 -233q-3 -87 -56 -154q-52 -67 -130 -67t-128 43q-49 44 -49 114t77 179q78 108 78 191q0 274 -78 274h-108v234h178q98 0 164 -134q50 -96 70 -232q104 120 156 179q106 105 182 105h8
q112 -26 182 -210q37 -100 57 -215q94 62 172 92v415h441v-234h-205zM1269 1414q50 89 50 126q0 38 -31 76q-32 37 -82 37q-52 0 -84 -33q-33 -32 -33 -74q0 -41 13 -60q19 -47 19 -73q0 -8 -2 -14q-24 -24 -51 -24q-28 0 -80 43q-54 43 -64 106q-10 61 -10 71q-8 4 -92 10
q-133 9 -208 80q-77 70 -82 194q0 90 59 101h3q26 0 52 -57q23 -55 29 -61q47 -57 193 -57q65 2 179 29q111 27 170 26h8q138 -4 210 -105q48 -65 48 -147q0 -84 -48 -157q-48 -74 -114 -74q-36 0 -52 37z" />
    <glyph glyph-name="uni0A06_uni0A02" horiz-adv-x="2067" 
d="M1862 1082v-599h-228v599h-243v-1082h-236v651q-86 -38 -139 -77q-53 -43 -83 -152q-47 -176 -58 -198q-51 -107 -161 -107q-71 0 -122 35q-53 33 -53 117q0 83 110 211q110 130 110 213q0 128 -59 258q-100 -72 -208 -216q-111 -147 -112 -233q-3 -87 -56 -154
q-52 -67 -130 -67t-128 43q-49 44 -49 114t77 179q78 108 78 191q0 274 -78 274h-108v234h178q98 0 164 -134q50 -96 70 -232q104 120 156 179q106 105 182 105h8q112 -26 182 -210q37 -100 57 -215q94 62 172 92v415h943v-234h-236zM1640 1496q-48 50 -48 118q0 69 48 120
q51 49 120 49q68 0 119 -49q49 -50 49 -120q0 -69 -49 -118t-119 -49q-71 0 -120 49z" />
    <glyph glyph-name="_316" horiz-adv-x="223" 
d="M-26 1082v234h302v-234h-302z" />
    <glyph glyph-name="uni0A35_uni0A4D_uni0A41" horiz-adv-x="20" 
d="M-86 -755v-106q-180 -77 -314 -77q-135 0 -304 77v106q178 -78 312 -78q132 0 288 71zM-466 -540q29 -131 136 -131q54 0 132 35q-25 -157 -160 -157q-103 0 -162 47q-36 30 -76 118q-40 90 -57 102q-28 11 -84 35q-88 39 -95 123q-1 7 -1 18q0 74 52 130q58 64 141 64
h293v115h154v-253h-407q-77 0 -77 -51q0 -58 73 -58h396v-137h-258z" />
    <glyph glyph-name="uni0A35_uni0A4D_uni0A42" horiz-adv-x="20" 
d="M-86 -768v-96q-180 -77 -314 -77q-135 0 -304 77v96q178 -78 312 -78q132 0 288 71zM-86 -958v-96q-180 -77 -314 -77q-135 0 -304 77v96q178 -78 312 -78q132 0 288 71zM-466 -540q29 -131 136 -131q54 0 132 35q-25 -157 -160 -157q-103 0 -162 47q-36 30 -76 118
q-40 90 -57 102q-28 11 -84 35q-88 39 -95 123q-1 7 -1 18q0 74 52 130q58 64 141 64h293v115h154v-253h-407q-77 0 -77 -51q0 -58 73 -58h396v-137h-258z" />
    <glyph glyph-name="uni0A30_uni0A4D_uni0A4D" horiz-adv-x="11" 
d="M21 -848l-106 -46l-334 266l109 43zM-210 -405q186 -143 186 -199q0 -41 -49 -57q-12 -4 -22 -4q-51 0 -163 85q-112 86 -145 95q-55 -142 -154 -163q-34 -8 -69 -8q-138 0 -173 143q-6 25 -6 60q0 75 61 137q60 62 135 62q78 0 167 -22q7 4 37 236h199
q-20 -194 -40 -242q-24 -52 -35 -71q25 -17 71 -52z" />
    <glyph glyph-name="uni0A39_uni0A4D_uni0A4D" horiz-adv-x="11" 
d="M212 -880l-106 -41l-331 225l109 39zM-188 -454q0 -143 -77 -220t-221 -77q-142 0 -293 128q-108 96 -127 208q0 169 206 169q107 0 107 -47q0 -31 -50 -45q-4 -2 -25 -8q-20 -6 -35 -13q-21 -13 -21 -49q0 -38 78 -96q81 -59 147 -80q99 21 120 149v384h191v-403z" />
    <glyph glyph-name="uni0A35_uni0A4D_uni0A4D" horiz-adv-x="11" 
d="M271 -848l-106 -46l-296 239l109 43zM-466 -540q29 -131 136 -131q54 0 132 35q-25 -157 -160 -157q-103 0 -162 47q-36 30 -76 118q-40 90 -57 102q-28 11 -84 35q-88 39 -95 123q-1 7 -1 18q0 74 52 130q58 64 141 64h293v115h154v-253h-407q-77 0 -77 -51
q0 -58 73 -58h396v-137h-258z" />
    <glyph glyph-name="_322" 
d="M156 -363h-115q0 -102 -10 -156q-23 -125 -113 -125q-48 0 -172 53q-49 22 -100 70q-64 52 -64 90q-1 2 -1 18q0 17 29 100q29 93 34 121q6 35 6 88q0 50 -14 89h139q11 -49 11 -96q0 -51 -3 -85q-3 -38 -37 -120q-26 -66 -28 -87q0 -4 2 -6l-1 -1q0 -10 55 -50
q55 -41 89 -41q53 0 53 76v186h248zM190 -613v-96q-180 -77 -314 -77q-135 0 -304 77v96q178 -78 312 -78q132 0 288 71zM190 -803v-96q-180 -77 -314 -77q-135 0 -304 77v96q178 -78 312 -78q132 0 288 71z" />
    <glyph glyph-name="_323" horiz-adv-x="11" 
d="M542 -706l-106 -46l-352 276l109 43zM156 -363h-115q0 -102 -10 -156q-23 -125 -113 -125q-48 0 -172 53q-49 22 -100 70q-64 52 -64 90q-1 2 -1 18q0 17 29 100q29 93 34 121q6 35 6 88q0 50 -14 89h139q11 -49 11 -96q0 -51 -3 -85q-3 -38 -37 -120q-26 -66 -28 -87
q0 -4 2 -6l-1 -1q0 -10 55 -50q55 -41 89 -41q53 0 53 76v186h248z" />
    <glyph glyph-name="_324" horiz-adv-x="11" 
d="M-185 -391q115 -63 115 -171q0 -104 -58 -104q-57 0 -176 80q-117 78 -244 254q-80 111 -135 267h107q56 -100 267 -272q21 -16 124 -54zM-35 -661v-80q-177 -64 -314 -64t-304 64v80q176 -65 312 -65t288 59zM-35 -819v-80q-177 -64 -314 -64t-304 64v80
q176 -65 312 -65t288 59z" />
    <glyph glyph-name="_325" horiz-adv-x="11" 
d="M8 -886l-106 -46l-397 294l109 43zM-185 -391q115 -63 115 -171q0 -104 -58 -104q-57 0 -176 80q-117 78 -244 254q-80 111 -135 267h107q56 -100 267 -272q21 -16 124 -54z" />
    <glyph glyph-name="uni0A4D_uni0A17" horiz-adv-x="13" 
d="M-336 -717v501h-134v-331q0 -170 -154 -170q-83 0 -153 64q-47 41 -69 92q-12 39 -12 65v4q4 76 58 128q53 52 129 52h68v96h-134v135h535v-636h-134zM-603 -435h-38q-90 0 -90 -59q-1 -28 31 -64q31 -33 76 -35q21 0 21 20v138z" />
    <glyph glyph-name="uni0A4D_uni0A20" horiz-adv-x="6" 
d="M-494 -725q-128 0 -207 58h1q-95 68 -95 189v4q1 103 65 180q62 77 151 101v138h166l3 -138q77 -21 145 -95q69 -72 69 -192q0 -121 -86 -182q-84 -63 -212 -63zM-383 -369q-48 42 -113 42q-66 0 -111 -42q-45 -45 -46 -107v-2q0 -109 159 -109q158 0 158 111
q-2 62 -48 107h1z" />
    <glyph glyph-name="uni0A4D_uni0A25" horiz-adv-x="11" 
d="M-682 -128q2 -26 2 -30q0 -3 -5 -86h282v169h134v-651h-134v149q-93 -43 -201 -43h-2q-140 0 -256 150q20 67 31 108l-1 -1q17 80 17 153q0 82 -4 135h154q-17 -29 -17 -44v-9zM-715 -441q43 -49 123 -49q78 0 189 50v67h-295l-8 -31q0 -2 -1.5 -8t-2.5 -9q-1 -6 -5 -20z
" />
    <glyph glyph-name="uni0A4D_uni0A26" horiz-adv-x="11" 
d="M-227 -542q39 0 39 -40q0 -39 -79 -96t-185 -57q-230 0 -308 166q-34 75 -38 206h-63q-57 0 -57 61q0 30 20 76q20 43 44 64q71 59 131 59q61 0 61 -56v-65h313v203h139v-341h-450q9 -241 211 -241q43 0 121 31q81 30 101 30z" />
    <glyph glyph-name="uni0A4D_uni0A17_uni0A41" horiz-adv-x="13" 
d="M-184 -760v-106q-180 -77 -314 -77q-135 0 -304 77v106q178 -78 312 -78q132 0 288 71zM-336 -717v501h-134v-331q0 -170 -154 -170q-83 0 -153 64q-47 41 -69 92q-12 39 -12 65v4q4 76 58 128q53 52 129 52h68v96h-134v135h535v-636h-134zM-603 -435h-38q-90 0 -90 -59
q-1 -28 31 -64q31 -33 76 -35q21 0 21 20v138z" />
    <glyph glyph-name="uni0A4D_uni0A1A_uni0A41" horiz-adv-x="14" 
d="M-636 -379q0 -27 17 -129q32 -77 145 -77q114 0 114 113v93h-276zM-831 -379q-94 0 -94 73q0 43 56 111q23 28 71 49q48 24 83 24q66 0 66 -68v-33h289v218h161v-481q0 -80 -52 -150q-75 -103 -218 -103q-215 0 -280 146q-23 54 -43 214h-39zM-200 -753v-106
q-180 -77 -314 -77q-135 0 -304 77v106q178 -78 312 -78q132 0 288 71z" />
    <glyph glyph-name="uni0A4D_uni0A1F_uni0A41" horiz-adv-x="6" 
d="M-185 -566q0 -30 -42 -74q-92 -101 -243 -101q-103 0 -253 75q-149 73 -199 162q22 112 109 206q85 92 185 127q97 34 277 52v108h159v-238h-31q-149 0 -297 -34q-108 -23 -224 -206q182 -128 280 -128q96 0 161 62q35 32 76 32q42 0 42 -43zM-194 -744v-106
q-180 -77 -314 -77q-135 0 -304 77v106q178 -78 312 -78q132 0 288 71z" />
    <glyph glyph-name="uni0A4D_uni0A20_uni0A41" horiz-adv-x="6" 
d="M-175 -727v-106q-180 -77 -314 -77q-135 0 -304 77v106q179 -78 312 -78q132 0 288 71zM-494 -725q-128 0 -207 58h1q-95 68 -95 189v4q1 103 65 180q62 77 151 101v138h166l3 -138q77 -21 145 -95q69 -72 69 -192q0 -121 -86 -182q-84 -63 -212 -63zM-383 -369
q-48 42 -113 42q-66 0 -111 -42q-45 -45 -46 -107v-2q0 -109 159 -109q158 0 158 111q-2 62 -48 107h1z" />
    <glyph glyph-name="uni0A4D_uni0A24_uni0A41" horiz-adv-x="16" 
d="M-929 -559q0 36 41 36q42 0 144 -45q100 -45 168 -45q69 0 132 22q65 23 65 73q0 148 -208 167q-10 2 -23 2q-37 0 -88 -12q-50 -12 -78 -12q-118 0 -118 99q0 81 127 81q28 1 111 -13q64 -10 99 -12q10 0 14 1q113 11 174 212h165q-31 -112 -57 -167q-26 -53 -92 -108
q132 -82 136 -227v-12q1 -106 -89 -165q-95 -62 -244 -62q-148 0 -264 66q-115 64 -115 121zM-294 -758v-106q-180 -77 -314 -77q-135 0 -304 77v106q178 -78 312 -78q132 0 288 71z" />
    <glyph glyph-name="uni0A4D_uni0A25_uni0A41" horiz-adv-x="11" 
d="M-237 -750v-106q-180 -77 -314 -77q-135 0 -304 77v106q179 -78 312 -78q132 0 288 71zM-682 -128q2 -26 2 -30q0 -3 -5 -86h282v169h134v-651h-134v149q-93 -43 -201 -43h-2q-140 0 -256 150q20 67 31 108l-1 -1q17 80 17 153q0 82 -4 135h154q-17 -29 -17 -44v-9z
M-715 -441q43 -49 123 -49q78 0 189 50v67h-295l-8 -31q0 -2 -1.5 -8t-2.5 -9q-1 -6 -5 -20z" />
    <glyph glyph-name="uni0A4D_uni0A26_uni0A41" horiz-adv-x="11" 
d="M-151 -719v-106q-180 -77 -314 -77q-135 0 -304 77v106q179 -78 312 -78q132 0 288 71zM-227 -542q39 0 39 -40q0 -39 -79 -96t-185 -57q-230 0 -308 166q-34 75 -38 206h-63q-57 0 -57 61q0 30 20 76q20 43 44 64q71 59 131 59q61 0 61 -56v-65h313v203h139v-341h-450
q9 -241 211 -241q43 0 121 31q81 30 101 30z" />
    <glyph glyph-name="uni0A4D_uni0A28_uni0A41" horiz-adv-x="6" 
d="M-443 34v-168q114 -14 198 -96q82 -88 82 -189q-5 -118 -65 -202q-73 -94 -186 -94h-5v148q51 21 73 53q22 29 22 92q0 62 -70 108t-136 46q-68 0 -134 -44q-68 -42 -68 -107t21 -95q20 -31 74 -53v-148h-10q-113 0 -179 89q-70 94 -70 205q0 109 82 191q84 84 199 96
v168h172zM-211 -739v-106q-180 -77 -314 -77q-135 0 -304 77v106q179 -78 312 -78q132 0 288 71z" />
    <glyph glyph-name="uni0A4D_uni0A17_uni0A42" horiz-adv-x="13" 
d="M-175 -747v-96q-180 -77 -314 -77q-135 0 -304 77v96q179 -78 312 -78q132 0 288 71zM-175 -937v-96q-180 -77 -314 -77q-135 0 -304 77v96q179 -78 312 -78q132 0 288 71zM-336 -717v501h-134v-331q0 -170 -154 -170q-83 0 -153 64q-47 41 -69 92q-12 39 -12 65v4
q4 76 58 128q53 52 129 52h68v96h-134v135h535v-636h-134zM-603 -435h-38q-90 0 -90 -59q-1 -28 31 -64q31 -33 76 -35q21 0 21 20v138z" />
    <glyph glyph-name="uni0A4D_uni0A1A_uni0A42" horiz-adv-x="14" 
d="M-172 -773v-106q-180 -77 -314 -77q-135 0 -304 77v106q178 -78 312 -78q132 0 288 71zM-632 -419q0 -27 17 -129q32 -77 145 -77q114 0 114 113v93h-276zM-827 -419q-94 0 -94 73q0 43 56 111q23 28 71 49q48 24 83 24q66 0 66 -68v-33h289v218h161v-481q0 -80 -52 -150
q-75 -103 -218 -103q-215 0 -280 146q-23 54 -43 214h-39z" />
    <glyph glyph-name="uni0A4D_uni0A1F_uni0A42" horiz-adv-x="15" 
d="M-155 -795v-96q-180 -77 -314 -77q-135 0 -304 77v96q179 -78 312 -78q132 0 288 71zM-155 -985v-96q-180 -77 -314 -77q-135 0 -304 77v96q179 -78 312 -78q132 0 288 71zM-185 -622q0 -30 -42 -74q-92 -101 -243 -101q-103 0 -253 75q-149 73 -199 162q22 112 109 206
q85 92 185 127q97 34 277 52v108h159v-238h-31q-149 0 -297 -34q-108 -23 -224 -206q182 -128 280 -128q96 0 161 62q35 32 76 32q42 0 42 -43z" />
    <glyph glyph-name="uni0A4D_uni0A20_uni0A42" horiz-adv-x="6" 
d="M-172 -717v-96q-180 -77 -314 -77q-135 0 -304 77v96q178 -78 312 -78q132 0 288 71zM-172 -907v-96q-180 -77 -314 -77q-135 0 -304 77v96q178 -78 312 -78q132 0 288 71zM-494 -725q-128 0 -207 58h1q-95 68 -95 189v4q1 103 65 180q62 77 151 101v138h166l3 -138
q77 -21 145 -95q69 -72 69 -192q0 -121 -86 -182q-84 -63 -212 -63zM-383 -369q-48 42 -113 42q-66 0 -111 -42q-45 -45 -46 -107v-2q0 -109 159 -109q158 0 158 111q-2 62 -48 107h1z" />
    <glyph glyph-name="uni0A4D_uni0A24_uni0A42" horiz-adv-x="16" 
d="M-243 -816v-96q-180 -77 -314 -77q-135 0 -304 77v96q179 -78 312 -78q132 0 288 71zM-243 -1006v-96q-180 -77 -314 -77q-135 0 -304 77v96q179 -78 312 -78q132 0 288 71zM-929 -617q0 36 41 36q42 0 144 -45q100 -45 168 -45q69 0 132 22q65 23 65 73q0 148 -208 167
q-10 2 -23 2q-37 0 -88 -12q-50 -12 -78 -12q-118 0 -118 99q0 81 127 81q28 1 111 -13q64 -10 99 -12q10 0 14 1q113 11 174 212h165q-31 -112 -57 -167q-26 -53 -92 -108q132 -82 136 -227v-12q1 -106 -89 -165q-95 -62 -244 -62q-148 0 -264 66q-115 64 -115 121z" />
    <glyph glyph-name="uni0A4D_uni0A25_uni0A42" horiz-adv-x="11" 
d="M-238 -750v-96q-180 -77 -314 -77q-135 0 -304 77v96q178 -78 312 -78q132 0 288 71zM-238 -940v-96q-180 -77 -314 -77q-135 0 -304 77v96q178 -78 312 -78q132 0 288 71zM-682 -128q2 -26 2 -30q0 -3 -5 -86h282v169h134v-651h-134v149q-93 -43 -201 -43h-2
q-140 0 -256 150q20 67 31 108l-1 -1q17 80 17 153q0 82 -4 135h154q-17 -29 -17 -44v-9zM-715 -441q43 -49 123 -49q78 0 189 50v67h-295l-8 -31q0 -2 -1.5 -8t-2.5 -9q-1 -6 -5 -20z" />
    <glyph glyph-name="uni0A4D_uni0A26_uni0A42" horiz-adv-x="11" 
d="M-152 -726v-96q-180 -77 -314 -77q-135 0 -304 77v96q178 -78 312 -78q132 0 288 71zM-152 -916v-96q-180 -77 -314 -77q-135 0 -304 77v96q178 -78 312 -78q132 0 288 71zM-227 -542q39 0 39 -40q0 -39 -79 -96t-185 -57q-230 0 -308 166q-34 75 -38 206h-63
q-57 0 -57 61q0 30 20 76q20 43 44 64q71 59 131 59q61 0 61 -56v-65h313v203h139v-341h-450q9 -241 211 -241q43 0 121 31q81 30 101 30z" />
    <glyph glyph-name="uni0A4D_uni0A28_uni0A42" horiz-adv-x="17" 
d="M-222 -817v-96q-180 -77 -314 -77q-135 0 -304 77v96q178 -78 312 -78q132 0 288 71zM-222 -1007v-96q-180 -77 -314 -77q-135 0 -304 77v96q178 -78 312 -78q132 0 288 71zM-449 -44v-168q114 -14 198 -96q82 -88 82 -189q-5 -118 -65 -202q-73 -94 -186 -94h-5v148
q51 21 73 53q22 29 22 92q0 62 -70 108t-136 46q-68 0 -134 -44q-68 -42 -68 -107t21 -95q20 -31 74 -53v-148h-10q-113 0 -179 89q-70 94 -70 205q0 109 82 191q84 84 199 96v168h172z" />
    <glyph glyph-name="uni0A4D_uni0A17_uni0A4D" 
d="M-184 -980l-343 215l107 41l339 -212zM-336 -717v501h-134v-331q0 -170 -154 -170q-83 0 -153 64q-47 41 -69 92q-12 39 -12 65v4q4 76 58 128q53 52 129 52h68v96h-134v135h535v-636h-134zM-603 -435h-38q-90 0 -90 -59q-1 -28 31 -64q31 -33 76 -35q21 0 21 20v138z
" />
    <glyph glyph-name="uni0A4D_uni0A1A_uni0A4D" horiz-adv-x="6" 
d="M281 -856l-106 -46l-369 245l109 43zM-632 -419q0 -27 17 -129q32 -77 145 -77q114 0 114 113v93h-276zM-827 -419q-94 0 -94 73q0 43 56 111q23 28 71 49q48 24 83 24q66 0 66 -68v-33h289v218h161v-481q0 -80 -52 -150q-75 -103 -218 -103q-215 0 -280 146
q-23 54 -43 214h-39z" />
    <glyph glyph-name="uni0A4D_uni0A1F_uni0A4D" horiz-adv-x="13" 
d="M217 -908l-106 -46l-335 195l109 43zM-185 -622q0 -30 -42 -74q-92 -101 -243 -101q-103 0 -253 75q-149 73 -199 162q22 112 109 206q85 92 185 127q97 34 277 52v108h159v-238h-31q-149 0 -297 -34q-108 -23 -224 -206q182 -128 280 -128q96 0 161 62q35 32 76 32
q42 0 42 -43z" />
    <glyph glyph-name="uni0A4D_uni0A20_uni0A4D" 
d="M122 -914l-368 250l106 34l364 -246zM-494 -725q-128 0 -207 58h1q-95 68 -95 189v4q1 103 65 180q62 77 151 101v138h166l3 -138q77 -21 145 -95q69 -72 69 -192q0 -121 -86 -182q-84 -63 -212 -63zM-383 -369q-48 42 -113 42q-66 0 -111 -42q-45 -45 -46 -107v-2
q0 -109 159 -109q158 0 158 111q-2 62 -48 107h1z" />
    <glyph glyph-name="uni0A4D_uni0A24_uni0A4D" horiz-adv-x="11" 
d="M229 -933l-106 -49l-370 247l109 45zM-929 -617q0 36 41 36q42 0 144 -45q100 -45 168 -45q69 0 132 22q65 23 65 73q0 148 -208 167q-10 2 -23 2q-37 0 -88 -12q-50 -12 -78 -12q-118 0 -118 99q0 81 127 81q28 1 111 -13q64 -10 99 -12q10 0 14 1q113 11 174 212h165
q-31 -112 -57 -167q-26 -53 -92 -108q132 -82 136 -227v-12q1 -106 -89 -165q-95 -62 -244 -62q-148 0 -264 66q-115 64 -115 121z" />
    <glyph glyph-name="uni0A4D_uni0A25_uni0A4D" horiz-adv-x="16" 
d="M-364 -926l-304 236l100 32l300 -233zM-682 -128q2 -26 2 -30q0 -3 -5 -86h282v169h134v-651h-134v149q-93 -43 -201 -43h-2q-140 0 -256 150q20 67 31 108l-1 -1q17 80 17 153q0 82 -4 135h154q-17 -29 -17 -44v-9zM-715 -441q43 -49 123 -49q78 0 189 50v67h-295
l-8 -31q0 -2 -1.5 -8t-2.5 -9q-1 -6 -5 -20z" />
    <glyph glyph-name="uni0A4D_uni0A26_uni0A4D" horiz-adv-x="6" 
d="M69 -932l-325 220l100 34l320 -216zM-227 -542q39 0 39 -40q0 -39 -79 -96t-185 -57q-230 0 -308 166q-34 75 -38 206h-63q-57 0 -57 61q0 30 20 76q20 43 44 64q71 59 131 59q61 0 61 -56v-65h313v203h139v-341h-450q9 -241 211 -241q43 0 121 31q81 30 101 30z" />
    <glyph glyph-name="uni0A4D_uni0A28_uni0A4D" horiz-adv-x="11" 
d="M255 -908l-106 -46l-356 239l109 43zM-449 -44v-168q114 -14 198 -96q82 -88 82 -189q-5 -118 -65 -202q-73 -94 -186 -94h-5v148q51 21 73 53q22 29 22 92q0 62 -70 108t-136 46q-68 0 -134 -44q-68 -42 -68 -107t21 -95q20 -31 74 -53v-148h-10q-113 0 -179 89
q-70 94 -70 205q0 109 82 191q84 84 199 96v168h172z" />
    <glyph glyph-name="_354" horiz-adv-x="1305" 
d="M624 647q-95 74 -190 74q-97 0 -148 -56q-52 -55 -52 -138q0 -81 52 -136q54 -54 132 -54q157 0 299 217zM1153 1082q-16 -166 -53 -292q-37 -122 -108 -238q115 -260 205 -552h-240q-10 23 -118 325q-170 -216 -423 -221h-6q-183 0 -302 122q-116 119 -116 298v15
q4 189 137 309q121 110 295 110q12 0 34 -2q196 -12 381 -191q69 167 83 317h-927v234h1334v-234h-176zM730 -346q186 -142 186 -199q0 -41 -49 -57q-12 -4 -22 -4q-53 0 -163 86q-117 86 -145 94q-55 -142 -154 -163q-34 -8 -69 -8q-138 0 -173 143q-6 26 -6 60
q0 75 61 136q60 63 135 63q78 0 167 -22q7 4 37 236h199q-20 -194 -40 -242q-24 -52 -35 -71q25 -17 71 -52zM767 -697v-106q-180 -77 -314 -77q-135 0 -304 77v106q179 -78 312 -78q132 0 288 71z" />
    <glyph glyph-name="_355" horiz-adv-x="1305" 
d="M624 647q-95 74 -190 74q-97 0 -148 -56q-52 -55 -52 -138q0 -81 52 -136q54 -54 132 -54q157 0 299 217zM1153 1082q-16 -166 -53 -292q-37 -122 -108 -238q115 -260 205 -552h-240q-10 23 -118 325q-170 -216 -423 -221h-6q-183 0 -302 122q-116 119 -116 298v15
q4 189 137 309q121 110 295 110q12 0 34 -2q196 -12 381 -191q69 167 83 317h-927v234h1334v-234h-176zM886 -673v-96q-180 -77 -314 -77q-135 0 -304 77v96q178 -78 312 -78q132 0 288 71zM886 -863v-96q-180 -77 -314 -77q-135 0 -304 77v96q178 -78 312 -78q132 0 288 71
zM787 -377q186 -143 186 -199q0 -41 -49 -57q-12 -4 -22 -4q-49 0 -164 85q-108 85 -144 95q-55 -142 -154 -163q-34 -8 -69 -8q-138 0 -173 143q-6 25 -6 60q0 74 60 137q62 62 136 62q78 0 167 -22q7 4 37 236h199q-20 -195 -41 -242q-21 -49 -34 -71q25 -17 71 -52z" />
    <glyph glyph-name="uni0A4D_uni0A15_uni0A4D_uni0A36" horiz-adv-x="1305" 
d="M624 647q-95 74 -208 74q-44 0 -82 -18l340 -209q19 24 43 60zM1153 1082q-16 -166 -53 -292q-37 -122 -108 -238q115 -260 205 -552h-240q-10 23 -118 325q-170 -216 -423 -221h-6q-183 0 -302 122q-116 119 -116 298v15q4 189 137 309q121 110 295 110q12 0 34 -2
q196 -12 381 -191q69 167 83 317h-217v234h624v-234h-176zM556 382l-319 183q-3 -16 -3 -34q0 -85 52 -140q54 -54 126 -54q74 0 144 45z" />
    <glyph glyph-name="uni0A15_uni0A4D_uni0A36" horiz-adv-x="1305" 
d="M624 647q-95 74 -208 74q-47 0 -82 -19l340 -207q18 22 43 59zM1153 1082q-16 -166 -53 -292q-37 -122 -108 -238q115 -260 205 -552h-240q-10 23 -118 325q-170 -216 -423 -221h-6q-183 0 -302 122q-116 119 -116 298v15q4 189 137 309q121 110 295 110q12 0 34 -2
q196 -12 381 -191q69 167 83 317h-927v234h1334v-234h-176zM569 392l-327 196q-8 -29 -8 -57q0 -85 52 -140q54 -54 130 -54q77 0 153 55z" />
    <glyph glyph-name="uni0A4D_uni0A15" 
d="M-648 -116l28 -1q100 0 190 -87q10 -14 14 -17l6 11q12 39 29 76l13 94l16 23l139 4l-17 -67q-4 -64 -24 -117q-14 -59 -36 -99q-26 -48 -38 -75l16 -27q47 -85 65 -149l21 -63l15 -90h-140l-9 62l-21 58l-29 60l-6 -8l-70 -56q-26 -10 -75 -37q-57 -16 -93 -16
q-30 0 -68 5l-57 10q-107 80 -128 151q-12 22 -12 73v44q0 74 38 118q24 35 74 68q28 31 77 37l58 11q11 4 24 4zM-778 -371l2 -21q0 -84 99 -96l21 -6q35 0 61 17q40 11 65 36l41 51q6 4 12 21l-35 54q-55 49 -138 49h-21q-29 0 -63 -25q-34 -36 -39 -68z" />
    <glyph glyph-name="uni0A4D_uni0A15_uni0A41" 
d="M-194 -733v-106q-180 -77 -314 -77q-135 0 -304 77v106q178 -78 312 -78q132 0 288 71zM-648 -116l28 -1q100 0 190 -87q10 -14 14 -17l6 11q12 39 29 76l13 94l16 23l139 4l-17 -67q-4 -64 -24 -117q-14 -59 -36 -99q-26 -48 -38 -75l16 -27q47 -85 65 -149l21 -63
l15 -90h-140l-9 62l-21 58l-29 60l-6 -8l-70 -56q-26 -10 -75 -37q-57 -16 -93 -16q-30 0 -68 5l-57 10q-107 80 -128 151q-12 22 -12 73v44q0 74 38 118q24 35 74 68q28 31 77 37l58 11q11 4 24 4zM-778 -371l2 -21q0 -84 99 -96l21 -6q35 0 61 17q40 11 65 36l41 51
q6 4 12 21l-35 54q-55 49 -138 49h-21q-29 0 -63 -25q-34 -36 -39 -68z" />
    <glyph glyph-name="uni0A4D_uni0A15_uni0A42" 
d="M-220 -733v-96q-180 -77 -314 -77q-135 0 -304 77v96q178 -78 312 -78q132 0 288 71zM-220 -923v-96q-180 -77 -314 -77q-135 0 -304 77v96q178 -78 312 -78q132 0 288 71zM-648 -116l28 -1q100 0 190 -87q10 -14 14 -17l6 11q12 39 29 76l13 94l16 23l139 4l-17 -67
q-4 -64 -24 -117q-14 -59 -36 -99q-26 -48 -38 -75l16 -27q47 -85 65 -149l21 -63l15 -90h-140l-9 62l-21 58l-29 60l-6 -8l-70 -56q-26 -10 -75 -37q-57 -16 -93 -16q-30 0 -68 5l-57 10q-107 80 -128 151q-12 22 -12 73v44q0 74 38 118q24 35 74 68q28 31 77 37l58 11
q11 4 24 4zM-778 -371l2 -21q0 -84 99 -96l21 -6q35 0 61 17q40 11 65 36l41 51q6 4 12 21l-35 54q-55 49 -138 49h-21q-29 0 -63 -25q-34 -36 -39 -68z" />
    <glyph glyph-name="uni0A4D_uni0A15_uni0A4D" 
d="M-155 -921l-106 -46l-355 282l109 43zM-648 -116l28 -1q100 0 190 -87q10 -14 14 -17l6 11q12 39 29 76l13 94l16 23l139 4l-17 -67q-4 -64 -24 -117q-14 -59 -36 -99q-26 -48 -38 -75l16 -27q47 -85 65 -149l21 -63l15 -90h-140l-9 62l-21 58l-29 60l-6 -8l-70 -56
q-26 -10 -75 -37q-57 -16 -93 -16q-30 0 -68 5l-57 10q-107 80 -128 151q-12 22 -12 73v44q0 74 38 118q24 35 74 68q28 31 77 37l58 11q11 4 24 4zM-778 -371l2 -21q0 -84 99 -96l21 -6q35 0 61 17q40 11 65 36l41 51q6 4 12 21l-35 54q-55 49 -138 49h-21q-29 0 -63 -25
q-34 -36 -39 -68z" />
    <glyph glyph-name="_362" 
d="M23 1979h9q268 0 268 -244q0 -45 -9 -98q-38 -72 -93 -103q-31 -15 -87 -26q-22 -2 -31 -2q-46 0 -89 17q-84 25 -84 85q0 36 42 42q59 -33 106 -33q114 0 114 114q0 19 -6 36q-22 85 -94 85q-28 0 -75 -20q-49 -17 -88 -50q-38 -32 -75 -99l-55 -128q-38 -105 -44 -206
l-54 8q0 291 138 484q99 138 207 138z" />
    <glyph glyph-name="_363" horiz-adv-x="915" 
d="M915 1160h-571q47 -185 47 -333q0 -24 -4 -92h528v425zM915 557h-538q-19 -215 -39 -291q-54 -202 -164 -202q-129 0 -129 139q0 56 13 88l85 210q68 166 68 287q0 122 -48 372h-193v179h948z" />
    <glyph glyph-name="uni0A2E_uni0A4D" horiz-adv-x="916" 
d="M33 717h496v622h419v-178h-240v-1165h-177v545h-504z" />
    <glyph glyph-name="uni0A4D_uni0A1C" horiz-adv-x="11" 
d="M-244 -72v-638h-129v288h-245l-24 -288h-130l23 287h-41q-50 0 -50 56q0 125 100 165q30 13 71 13q52 0 52 -51v-53h244v221h129z" />
    <glyph glyph-name="uni0A4D_uni0A1C_uni0A41" horiz-adv-x="11" 
d="M-190 -753v-106q-180 -77 -314 -77q-135 0 -304 77v106q178 -78 312 -78q132 0 288 71zM-244 -72v-638h-129v288h-245l-24 -288h-130l23 287h-41q-50 0 -50 56q0 125 100 165q30 13 71 13q52 0 52 -51v-53h244v221h129z" />
    <glyph glyph-name="uni0A4D_uni0A1C_uni0A42" horiz-adv-x="11" 
d="M-187 -754v-96q-180 -77 -314 -77q-135 0 -304 77v96q179 -78 312 -78q132 0 288 71zM-187 -944v-96q-180 -77 -314 -77q-135 0 -304 77v96q179 -78 312 -78q132 0 288 71zM-244 -72v-638h-129v288h-245l-24 -288h-130l23 287h-41q-50 0 -50 56q0 125 100 165
q30 13 71 13q52 0 52 -51v-53h244v221h129z" />
    <glyph glyph-name="uni0A4D_uni0A1C_uni0A4D" 
d="M-188 -904l-97 -28l-320 249l90 32zM-244 -72v-638h-129v288h-245l-24 -288h-130l23 287h-41q-50 0 -50 56q0 125 100 165q30 13 71 13q52 0 52 -51v-53h244v221h129z" />
    <glyph glyph-name="uni0A4D_uni0A21" horiz-adv-x="11" 
d="M-504 -330l-134 -17q-113 0 -113 77q0 47 41 66q39 21 72 21q29 0 75 -11q44 -12 61 -12q92 0 170 141h136q-21 -49 -62 -129q-44 -52 -57 -66q41 -32 56 -47q44 -50 44 -121v-12q0 -8 -1 -11q-12 -116 -90 -179q-81 -61 -200 -61h-40q-207 18 -218 152v12q0 69 48 107
q48 39 121 39q137 0 240 -100q11 19 12 45v6q0 46 -52 76v-1q-46 25 -109 25zM-643 -533q0 -17 39 -30q42 -14 77 -14q37 0 94 18q-7 5 -17 15q-8 7 -14 9q-52 35 -114 35q-63 0 -65 -32v-1z" />
    <glyph glyph-name="uni0A4D_uni0A21_uni0A41" horiz-adv-x="11" 
d="M-181 -693v-106q-180 -77 -314 -77q-135 0 -304 77v106q179 -78 312 -78q132 0 288 71zM-504 -330l-134 -17q-113 0 -113 77q0 47 41 66q39 21 72 21q29 0 75 -11q44 -12 61 -12q92 0 170 141h136q-21 -49 -62 -129q-44 -52 -57 -66q41 -32 56 -47q44 -50 44 -121v-12
q0 -8 -1 -11q-12 -116 -90 -179q-81 -61 -200 -61h-40q-207 18 -218 152v12q0 69 48 107q48 39 121 39q137 0 240 -100q11 19 12 45v6q0 46 -52 76v-1q-46 25 -109 25zM-643 -533q0 -17 39 -30q42 -14 77 -14q37 0 94 18q-7 5 -17 15q-8 7 -14 9q-52 35 -114 35
q-63 0 -65 -32v-1z" />
    <glyph glyph-name="uni0A4D_uni0A21_uni0A42" horiz-adv-x="11" 
d="M-192 -673v-96q-180 -77 -314 -77q-135 0 -304 77v96q178 -78 312 -78q132 0 288 71zM-192 -863v-96q-180 -77 -314 -77q-135 0 -304 77v96q178 -78 312 -78q132 0 288 71zM-504 -330l-134 -17q-113 0 -113 77q0 47 41 66q39 21 72 21q29 0 75 -11q44 -12 61 -12
q92 0 170 141h136q-21 -49 -62 -129q-44 -52 -57 -66q41 -32 56 -47q44 -50 44 -121v-12q0 -8 -1 -11q-12 -116 -90 -179q-81 -61 -200 -61h-40q-207 18 -218 152v12q0 69 48 107q48 39 121 39q137 0 240 -100q11 19 12 45v6q0 46 -52 76v-1q-46 25 -109 25zM-643 -533
q0 -17 39 -30q42 -14 77 -14q37 0 94 18q-7 5 -17 15q-8 7 -14 9q-52 35 -114 35q-63 0 -65 -32v-1z" />
    <glyph glyph-name="uni0A4D_uni0A21_uni0A4D" horiz-adv-x="6" 
d="M-195 -961l-97 -28l-286 240l90 32zM-504 -330l-134 -17q-113 0 -113 77q0 47 41 66q39 21 72 21q29 0 75 -11q44 -12 61 -12q92 0 170 141h136q-21 -49 -62 -129q-44 -52 -57 -66q41 -32 56 -47q44 -50 44 -121v-12q0 -8 -1 -11q-12 -116 -90 -179q-81 -61 -200 -61h-40
q-207 18 -218 152v12q0 69 48 107q48 39 121 39q137 0 240 -100q11 19 12 45v6q0 46 -52 76v-1q-46 25 -109 25zM-643 -533q0 -17 39 -30q42 -14 77 -14q37 0 94 18q-7 5 -17 15q-8 7 -14 9q-52 35 -114 35q-63 0 -65 -32v-1z" />
    <glyph glyph-name="uni0A4D_uni0A23" 
d="M-845 -347q103 127 185 127q47 0 105 -29v12q-35 13 -78 45l-59 41q-16 12 -100 103h176q102 -78 138 -87q13 -3 35 -9t31 -8q20 -6 62 -18q44 -12 65 -18l-1 -128q-69 23 -143 43v-145q0 -60 -32 -60q-17 0 -63 52q-44 53 -46 53q-50 19 -78 19q-27 0 -47 -20
q-12 -12 -40 -42q-25 -25 -32 -33q3 1 15 1l-25 -25q17 -12 79 -45t179 -53q21 0 107 27t118 27q33 0 33 -23v-2q0 -51 -106 -97q-108 -47 -157 -47q-208 0 -347 136v-1q-53 50 -53 81q0 32 79 123z" />
    <glyph glyph-name="uni0A4D_uni0A23_uni0A41" 
d="M-250 -691v-106q-180 -77 -314 -77q-135 0 -304 77v106q178 -78 312 -78q132 0 288 71zM-845 -347q103 127 185 127q47 0 105 -29v12q-35 13 -78 45l-59 41q-16 12 -100 103h176q102 -78 138 -87q13 -3 35 -9t31 -8q20 -6 62 -18q44 -12 65 -18l-1 -128q-69 23 -143 43
v-145q0 -60 -32 -60q-17 0 -63 52q-44 53 -46 53q-50 19 -78 19q-27 0 -47 -20q-12 -12 -40 -42q-25 -25 -32 -33q3 1 15 1l-25 -25q17 -12 79 -45t179 -53q21 0 107 27t118 27q33 0 33 -23v-2q0 -51 -106 -97q-108 -47 -157 -47q-208 0 -347 136v-1q-53 50 -53 81
q0 32 79 123z" />
    <glyph glyph-name="uni0A4D_uni0A23_uni0A42" 
d="M-242 -673v-96q-180 -77 -314 -77q-135 0 -304 77v96q178 -78 312 -78q132 0 288 71zM-242 -863v-96q-180 -77 -314 -77q-135 0 -304 77v96q178 -78 312 -78q132 0 288 71zM-845 -347q103 127 185 127q47 0 105 -29v12q-35 13 -78 45l-59 41q-16 12 -100 103h176
q102 -78 138 -87q13 -3 35 -9t31 -8q20 -6 62 -18q44 -12 65 -18l-1 -128q-69 23 -143 43v-145q0 -60 -32 -60q-17 0 -63 52q-44 53 -46 53q-50 19 -78 19q-27 0 -47 -20q-12 -12 -40 -42q-25 -25 -32 -33q3 1 15 1l-25 -25q17 -12 79 -45t179 -53q21 0 107 27t118 27
q33 0 33 -23v-2q0 -51 -106 -97q-108 -47 -157 -47q-208 0 -347 136v-1q-53 50 -53 81q0 32 79 123z" />
    <glyph glyph-name="uni0A4D_uni0A23_uni0A4D" horiz-adv-x="13" 
d="M-47 -902l-97 -28l-286 240l90 32zM-845 -347q103 127 185 127q47 0 105 -29v12q-35 13 -78 45l-59 41q-16 12 -100 103h176q102 -78 138 -87q13 -3 35 -9t31 -8q20 -6 62 -18q44 -12 65 -18l-1 -128q-69 23 -143 43v-145q0 -60 -32 -60q-17 0 -63 52q-44 53 -46 53
q-50 19 -78 19q-27 0 -47 -20q-12 -12 -40 -42q-25 -25 -32 -33q3 1 15 1l-25 -25q17 -12 79 -45t179 -53q21 0 107 27t118 27q33 0 33 -23v-2q0 -51 -106 -97q-108 -47 -157 -47q-208 0 -347 136v-1q-53 50 -53 81q0 32 79 123z" />
    <glyph glyph-name="uni0A4D_uni0A27" 
d="M-827 -527q72 176 72 235q0 58 -9 106h-92v132h668v-132h-67v-605h-133v141q-73 -38 -162 -38q-90 0 -174 57q-85 56 -103 104zM-631 -186q9 -54 9 -120q0 -67 -52 -193q76 -55 170 -55q30 0 116 51v317h-243z" />
    <glyph glyph-name="uni0A4D_uni0A27_uni0A41" 
d="M-199 -814v-106q-180 -77 -314 -77q-135 0 -304 77v106q179 -78 312 -78q132 0 288 71zM-827 -527q72 176 72 235q0 58 -9 106h-92v132h668v-132h-67v-605h-133v141q-73 -38 -162 -38q-90 0 -174 57q-85 56 -103 104zM-631 -186q9 -54 9 -120q0 -67 -52 -193
q76 -55 170 -55q30 0 116 51v317h-243z" />
    <glyph glyph-name="uni0A4D_uni0A27_uni0A42" 
d="M-198 -818v-96q-180 -77 -314 -77q-135 0 -304 77v96q178 -78 312 -78q132 0 288 71zM-198 -1008v-96q-180 -77 -314 -77q-135 0 -304 77v96q178 -78 312 -78q132 0 288 71zM-827 -527q72 176 72 235q0 58 -9 106h-92v132h668v-132h-67v-605h-133v141q-73 -38 -162 -38
q-90 0 -174 57q-85 56 -103 104zM-631 -186q9 -54 9 -120q0 -67 -52 -193q76 -55 170 -55q30 0 116 51v317h-243z" />
    <glyph glyph-name="uni0A4D_uni0A27_uni0A4D" 
d="M-255 -954l-97 -28l-286 240l90 32zM-827 -527q72 176 72 235q0 58 -9 106h-92v132h668v-132h-67v-605h-133v141q-73 -38 -162 -38q-90 0 -174 57q-85 56 -103 104zM-631 -186q9 -54 9 -120q0 -67 -52 -193q76 -55 170 -55q30 0 116 51v317h-243z" />
    <glyph glyph-name="uni0A4D_uni0A32" 
d="M-331 -211l-64 -114q158 -69 158 -219q0 -198 -155 -252q-38 -13 -95 -24v128q60 16 76 32q45 38 45 120q0 61 -94 98l-91 -156h-27l-92 156q-91 -37 -91 -98q1 -108 73 -136q28 -11 47 -16v-129q-111 23 -154 54q-94 70 -94 221t152 220l-62 115h-71v132h604v-132h-65z
M-565 -369l85 158h-166z" />
    <glyph glyph-name="uni0A4D_uni0A32_uni0A41" 
d="M-240 -806v-106q-180 -77 -314 -77q-135 0 -304 77v106q178 -78 312 -78q132 0 288 71zM-331 -211l-64 -114q158 -69 158 -219q0 -198 -155 -252q-38 -13 -95 -24v128q60 16 76 32q45 38 45 120q0 61 -94 98l-91 -156h-27l-92 156q-91 -37 -91 -98q1 -108 73 -136
q28 -11 47 -16v-129q-111 23 -154 54q-94 70 -94 221t152 220l-62 115h-71v132h604v-132h-65zM-565 -369l85 158h-166z" />
    <glyph glyph-name="uni0A4D_uni0A32_uni0A42" 
d="M-331 -211l-64 -114q158 -69 158 -219q0 -198 -155 -252q-38 -13 -95 -24v128q60 16 76 32q45 38 45 120q0 61 -94 98l-91 -156h-27l-92 156q-91 -37 -91 -98q1 -108 73 -136q28 -11 47 -16v-129q-111 23 -154 54q-94 70 -94 221q0 149 152 220l-62 115h-71v132h604v-132
h-65zM-565 -369l85 158h-166zM-244 -807v-96q-180 -77 -314 -77q-135 0 -304 77v96q178 -78 312 -78q132 0 288 71zM-244 -997v-96q-180 -77 -314 -77q-135 0 -304 77v96q178 -78 312 -78q132 0 288 71z" />
    <glyph glyph-name="uni0A4D_uni0A32_uni0A4D" 
d="M59 -1011l-97 -28l-286 240l90 32zM-331 -211l-64 -114q158 -69 158 -219q0 -198 -155 -252q-38 -13 -95 -24v128q60 16 76 32q45 38 45 120q0 61 -94 98l-91 -156h-27l-92 156q-91 -37 -91 -98q1 -108 73 -136q28 -11 47 -16v-129q-111 23 -154 54q-94 70 -94 221
t152 220l-62 115h-71v132h604v-132h-65zM-565 -369l85 158h-166z" />
    <glyph glyph-name="uni0A1C_uni0A4D_uni0A1E" horiz-adv-x="1249" 
d="M1074 1082v-1082h-234v520h-424v-520h-235v520h-43q-126 0 -126 127q0 119 83 197q81 80 202 80q119 0 119 -108v-62h424v328h-845v234h1277v-234h-198zM504 1079h149v-112h184v-132h-334v132h1v112z" />
    <glyph glyph-name="uni0A09_uni0A70" horiz-adv-x="1665" 
d="M1403 1479q-75 87 -75 175t68 174q69 87 232 87t230 -87q69 -86 69 -174t-75 -175q-45 -52 -79 -52q-16 0 -17 7q-10 10 -9 19q54 90 54 145q0 56 -51 97q-50 41 -124 41q-73 0 -122 -41q-50 -40 -50 -109q0 -33 16 -62q15 -27 22 -43q10 -18 16 -28q2 -11 -6 -17
q-6 -9 -20 -9q-34 0 -79 52zM372 -134q207 -77 379 -77t370 77v-207q-33 -14 -57 -19q-11 -3 -104 -29q-77 -21 -227 -24h-13q-147 0 -348 72v207zM845 504q-62 68 -122 68q-5 0 -15 -2q-64 -10 -347 -10q115 -336 369 -336h10q175 4 175 125q0 79 -70 155zM309 1082
q2 -177 10 -288l234 -2l-5 -1q112 1 184 23q170 48 267 268h-690zM672 1622q-331 0 -361 -306h707q-16 159 -95 233q-77 73 -251 73zM1244 1082q-91 -274 -262 -392q172 -138 172 -335q0 -153 -108 -259q-110 -107 -297 -107q-675 0 -675 1093h-94v234h96q16 256 178 398
q160 142 420 142t412 -142q153 -143 171 -398h444v-234h-457zM540 791h-12h12z" />
    <glyph glyph-name="uni0A0A_uni0A70" horiz-adv-x="1673" 
d="M1434 1479q-75 87 -75 175t69 174q68 87 230 87q163 0 232 -87q68 -86 68 -174t-75 -175q-45 -52 -79 -52q-16 0 -17 7q-10 10 -9 19q54 90 54 145q0 56 -50 97q-52 41 -124 41t-124 -41q-49 -41 -49 -109q0 -33 16 -62q6 -11 13.5 -25t9.5 -18q5 -12 15 -28q1 -9 -5 -17
q-9 -9 -21 -9q-34 0 -79 52zM374 -412q204 -70 379 -70t370 70v-194q-201 -70 -386 -70q-81 0 -163 14q-89 17 -200 56v194zM374 -83q202 -75 380 -75t369 75v-195q-180 -74 -367 -74q-186 0 -382 74v195zM840 504q-62 68 -122 68q-5 0 -15 -2q-64 -10 -347 -10
q116 -336 369 -336h10q175 4 175 125q0 79 -70 155zM304 1082q2 -177 10 -288l234 -2l-5 -1q112 1 184 23q170 48 267 268h-690zM667 1622q-331 0 -361 -306h707q-16 159 -95 233q-77 73 -251 73zM1239 1082q-91 -274 -262 -392q172 -138 172 -335q0 -153 -109 -259
q-109 -107 -296 -107q-675 0 -675 1093h-94v234h96q16 255 177 398q161 142 421 142t412 -142q153 -143 171 -398h444v-234h-457zM535 791h-12h12z" />
    <glyph glyph-name="uni0A0F_uni0A70" horiz-adv-x="1546" 
d="M1092 1479q-75 87 -75 175t69 174q68 87 230 87q163 0 232 -87q68 -86 68 -174t-75 -175q-45 -52 -79 -52q-16 0 -17 7q-10 10 -9 19q54 90 54 145q0 56 -50 97q-52 41 -124 41t-124 -41q-49 -41 -49 -109q0 -33 16 -62q6 -11 13.5 -25t9.5 -18q5 -12 15 -28q1 -9 -5 -17
q-9 -9 -21 -9q-34 0 -79 52zM694 1770q80 -68 196 -248q62 -98 62 -162v-11q-1 -27 -20 -25q-9 2 -71 83q-63 81 -171 153q-29 19 -97 61q-108 64 -323 80q-14 12 -23 17q-13 8 -24 18q-18 23 -18 62q0 14 1 21q20 111 121 111q10 0 32 -2q181 -25 335 -158zM840 1082h-500
q27 -68 59 -103q93 -103 184 -121h257v224zM1015 625l-221 4q-167 0 -290 -42q-123 -43 -225 -172q77 -78 207 -141q123 -59 209 -59h11q91 5 180 91q90 87 120 87q64 0 64 -88q0 -87 -104 -191q-104 -103 -220 -112q-13 -1 -41 -1q-202 0 -411 115q-209 117 -276 291
q40 165 287 339q-43 41 -114 124q-63 87 -95 212h-103v234h1583v-234h-505v-457h-56z" />
    <glyph glyph-name="uni0A10_uni0A70" horiz-adv-x="1864" 
d="M1408 1479q-75 87 -75 175t69 174q68 87 230 87q163 0 232 -87q68 -86 68 -174t-75 -175q-45 -52 -79 -52q-16 0 -17 7q-10 10 -9 19q54 90 54 145q0 56 -50 97q-52 41 -124 41t-124 -41q-49 -41 -49 -109q0 -33 16 -62q6 -11 13.5 -25t9.5 -18q5 -12 15 -28q1 -9 -5 -17
q-9 -9 -21 -9q-34 0 -79 52zM737 1504l-119 -6q-127 0 -127 81q0 45 41 80q41 34 88 37q46 3 69 3q202 0 456 -184q-51 76 -167 180q-106 97 -262 97q-21 0 -32 -1q-53 -4 -68 -4q-103 0 -103 81q0 60 55 91q56 32 111 32q209 0 364 -158q112 -118 213 -344q35 -78 35 -113
q0 -37 -16 -37q-16 1 -40 15q-257 150 -461 150h-37zM1398 1082v-1082h-236v651q-86 -38 -139 -77q-53 -43 -83 -152q-47 -176 -58 -198q-51 -107 -161 -107q-71 0 -122 35q-53 33 -53 117q0 83 110 211q110 130 110 213q0 128 -59 258q-100 -72 -208 -216
q-110 -146 -113 -233q-1 -87 -55 -154q-52 -67 -131 -67t-126 43q-50 43 -50 114t78 179q77 109 77 191q0 274 -78 274h-108v234h178q98 0 164 -134q50 -96 70 -232q104 120 156 179q107 105 182 105h8q112 -26 182 -210q37 -100 57 -215q94 62 172 92v415h741v-234h-505z
" />
    <glyph glyph-name="uni0A13_uni0A70" horiz-adv-x="1703" 
d="M1426 1479q-75 87 -75 175t69 174q68 87 230 87q163 0 232 -87q68 -86 68 -174t-75 -175q-45 -52 -79 -52q-16 0 -17 7q-10 10 -9 19q54 90 54 145q0 56 -50 97q-52 41 -124 41t-124 -41q-49 -41 -49 -109q0 -33 16 -62q6 -11 13.5 -25t9.5 -18q5 -12 15 -28q1 -9 -5 -17
q-9 -9 -21 -9q-34 0 -79 52zM856 514q-64 69 -123 69q-5 1 -15 -1q-60 -9 -340 -11q112 -337 370 -337h9q171 4 171 123q0 81 -72 157zM324 1082q2 -169 11 -276q234 -2 234 -3h-3q116 5 182 23q175 50 266 256h-690zM709 1908l63 2q436 0 436 -148q0 -93 -269 -95
q-35 1 -94.5 2.5t-80.5 1.5q-200 -2 -294 -85q-94 -84 -135 -270h1405v-234h-479q-89 -261 -262 -380q184 -130 184 -356q0 -150 -105 -250q-103 -100 -308 -100h-4q-403 1 -567 376q-109 254 -109 710h-95v234h99q30 262 194 426q162 166 421 166z" />
    <glyph glyph-name="uni0A14_uni0A70" horiz-adv-x="1881" 
d="M1676 1479q-75 87 -75 175t69 174q68 87 230 87q163 0 232 -87q68 -86 68 -174t-75 -175q-45 -52 -79 -52q-16 0 -17 7q-10 10 -9 19q54 90 54 145q0 56 -50 97q-52 41 -124 41t-124 -41q-49 -41 -49 -109q0 -33 16 -62q6 -11 13.5 -25t9.5 -18q5 -12 15 -28q1 -9 -5 -17
q-9 -9 -21 -9q-34 0 -79 52zM1233 1428q50 89 50 126q0 38 -31 76q-32 37 -82 37q-52 0 -84 -33q-33 -32 -33 -74q0 -41 13 -60q19 -47 19 -73q0 -8 -2 -14q-24 -24 -51 -24q-28 0 -80 43q-54 43 -64 106q-10 61 -10 71q-8 4 -92 10q-133 9 -208 80q-77 70 -82 194
q0 90 59 101h3q26 0 52 -57q23 -55 29 -61q46 -57 193 -57q65 2 179 29q111 27 170 26h8q138 -4 210 -105q48 -65 48 -147q0 -84 -48 -157q-48 -74 -114 -74q-36 0 -52 37zM1397 1082v-1082h-236v651q-86 -38 -139 -77q-53 -43 -83 -152q-47 -176 -58 -198
q-51 -107 -161 -107q-71 0 -122 35q-53 33 -53 117q0 83 110 211q110 130 110 213q0 128 -59 258q-100 -72 -208 -216q-111 -147 -112 -233q-3 -87 -56 -154q-52 -67 -130 -67t-128 43q-49 44 -49 114t77 179q78 108 78 191q0 274 -78 274h-108v234h178q98 0 164 -134
q50 -96 70 -232q104 120 156 179q106 105 182 105h8q112 -26 182 -210q37 -100 57 -215q94 62 172 92v415h751v-234h-515z" />
    <glyph glyph-name="uni0A19_uni0A4D_uni0A19" horiz-adv-x="1189" 
d="M1005 1082v-1082h-235v535h-184q-2 -224 -17 -299q-30 -154 -224 -154q-80 0 -165 47q-98 64 -146 95q9 57 48 263l73 -75q146 -106 179 -106q20 0 20 96v366h416v314h-790v234h1233v-234h-208z" />
    <glyph glyph-name="uni0A0F_uni0A71" horiz-adv-x="1701" 
d="M1050 1800q8 102 49 102q34 0 46 -98q12 -96 62 -148q51 -49 160 -49q196 0 226 210q9 85 43 85q40 0 48 -102q3 -35 2 -60q0 -67 -13 -120q-30 -100 -116 -150q-85 -49 -191 -49q-107 0 -192 49q-127 72 -127 271q0 27 3 59zM712 1770q80 -68 196 -248q62 -98 62 -162
v-11q-1 -27 -20 -25q-9 2 -71 83q-63 81 -171 153q-29 19 -97 61q-108 64 -323 80q-14 12 -23 17q-13 8 -24 18q-18 23 -18 62q0 14 1 21q20 111 121 111q10 0 32 -2q181 -25 335 -158zM837 1082h-500q27 -68 59 -103q93 -103 184 -121h257v224zM1012 625l-221 4
q-169 0 -289 -42q-123 -42 -226 -172q78 -78 208 -141q123 -59 208 -59h10q91 5 180 91q92 87 121 87q64 0 64 -88q0 -87 -105 -191q-103 -103 -219 -112q-13 -1 -41 -1q-204 0 -410 115q-209 115 -277 291q40 165 287 339q-43 41 -114 124q-63 87 -95 212h-103v234h1753
v-234h-675v-457h-56z" />
    <glyph glyph-name="uni0A10_uni0A71" horiz-adv-x="1988" 
d="M1350 1800q8 102 49 102q34 0 46 -98q12 -96 62 -148q51 -49 160 -49q196 0 226 210q9 85 43 85q40 0 48 -102q3 -35 2 -60q0 -67 -13 -120q-30 -100 -116 -150q-85 -49 -191 -49q-107 0 -192 49q-127 72 -127 271q0 27 3 59zM739 1503l-119 -6q-127 0 -127 81
q0 45 41 80q41 34 88 37q46 3 69 3q202 0 456 -184q-51 76 -167 180q-106 97 -262 97q-21 0 -32 -1q-53 -4 -68 -4q-103 0 -103 81q0 60 55 91q56 32 111 32q209 0 364 -158q112 -118 213 -344q35 -78 35 -114t-16 -36q-15 0 -40 14q-256 150 -461 151h-37zM1391 1082v-1082
h-236v651q-86 -38 -139 -77q-53 -43 -83 -152q-47 -176 -58 -198q-51 -107 -161 -107q-71 0 -122 35q-53 33 -53 117q0 83 110 211q110 130 110 213q0 128 -59 258q-100 -72 -208 -216q-111 -147 -112 -233q-3 -87 -56 -154q-52 -67 -130 -67t-128 43q-49 44 -49 114t77 179
q78 108 78 191q0 274 -78 274h-108v234h178q98 0 164 -134q50 -96 70 -232q104 120 156 179q106 105 182 105h8q112 -26 182 -210q37 -100 57 -215q94 62 172 92v415h871v-234h-635z" />
    <glyph glyph-name="uni0A14_uni0A71" horiz-adv-x="2107" 
d="M1454 1800q7 102 49 102q34 0 46 -98q12 -96 62 -148q51 -49 160 -49q196 0 226 210q9 85 43 85q40 0 48 -102q3 -35 2 -60q0 -67 -13 -120q-30 -100 -116 -150q-85 -49 -191 -49q-107 0 -192 49q-127 72 -127 271q0 27 3 59zM1145 1428q50 89 50 126q0 38 -31 76
q-32 37 -82 37q-52 0 -84 -33q-33 -32 -33 -74q0 -41 13 -60q19 -47 19 -73q0 -8 -2 -14q-24 -24 -51 -24q-28 0 -80 43q-54 43 -64 106q-10 61 -10 71q-8 4 -92 10q-133 9 -208 80q-77 70 -82 194q0 90 59 101h3q26 0 52 -57q23 -55 29 -61q47 -57 193 -57q65 2 179 29
q111 27 170 26h8q138 -4 210 -105q48 -65 48 -147q0 -84 -48 -157q-48 -74 -114 -74q-36 0 -52 37zM1391 1082v-1082h-236v651q-86 -38 -139 -77q-53 -43 -83 -152q-47 -176 -58 -198q-51 -107 -161 -107q-71 0 -122 35q-53 33 -53 117q0 83 110 211q110 130 110 213
q0 128 -59 258q-100 -72 -208 -216q-111 -147 -112 -233q-3 -87 -56 -154q-52 -67 -130 -67t-128 43q-49 44 -49 114t77 179q78 108 78 191q0 274 -78 274h-108v234h178q98 0 164 -134q50 -96 70 -232q104 120 156 179q106 105 182 105h8q112 -26 182 -210q37 -100 57 -215
q94 62 172 92v415h991v-234h-755z" />
    <glyph glyph-name="periodcentered" horiz-adv-x="662" 
d="M182 735q0 109 87 147q26 12 55 11q57 0 100 -41q44 -40 44 -101q0 -59 -44 -103q-44 -42 -86 -42q-72 0 -114 42q-42 44 -42 87z" />
    <glyph glyph-name="uni0A02_uni0A40" horiz-adv-x="1057" 
d="M-422 1496q-48 50 -48 118q0 69 48 120q51 49 120 49q68 0 119 -49q49 -50 49 -120q0 -69 -49 -118t-119 -49q-71 0 -120 49zM-15 1082v234h481v-234h-481zM813 1082v-1082h-231v1082h-119v234h119q0 152 -19 215q-38 119 -154 119q-81 0 -115 -34q-33 -33 -44 -112
q-5 -33 -11 -85h-222q-1 19 -1 53q0 249 164 350q92 57 194 57q262 0 363 -171q75 -126 76 -392h240v-234h-240z" />
    <glyph glyph-name="uni0A70_uni0A40" horiz-adv-x="1057" 
d="M-603 1479q-75 87 -75 175t68 174q69 87 232 87q162 0 230 -87q69 -86 69 -174t-75 -175q-45 -52 -79 -52q-16 0 -17 7q-10 10 -9 19q54 90 54 145q0 56 -51 97q-50 41 -124 41q-73 0 -122 -41q-50 -40 -50 -109q0 -33 16 -62q15 -27 22 -43q10 -18 16 -28q2 -11 -6 -17
q-6 -9 -20 -9q-34 0 -79 52zM-15 1082v234h481v-234h-481zM813 1082v-1082h-231v1082h-119v234h119q0 152 -19 215q-38 119 -154 119q-81 0 -115 -34q-33 -33 -44 -112q-5 -33 -11 -85h-222q-1 19 -1 53q0 249 164 350q92 57 194 57q262 0 363 -171q75 -126 76 -392h240
v-234h-240z" />
    </font>
</defs>
</svg>
