<?xml version="1.0" standalone="no"?>
<!DOCTYPE svg PUBLIC "-//W3C//DTD SVG 1.1//EN" "http://www.w3.org/Graphics/SVG/1.1/DTD/svg11.dtd" >
<svg xmlns="http://www.w3.org/2000/svg" xmlns:xlink="http://www.w3.org/1999/xlink" version="1.1">
<metadata>
Created by FontForge 20161004 at Wed Jun 14 16:08:23 2017
 By Sarabveer
Copyright (C) 2015-2017 Sarabveer Singh (https://sarabveer.me); Copyright (C) 2013 Kulbir S. Thind (gurbanifiles.org)
</metadata>
<defs>
<font id="AnmolLipiTrue-Bold" horiz-adv-x="11" >
  <font-face 
    font-family="AnmolLipiTrue"
    font-weight="700"
    font-stretch="normal"
    units-per-em="2048"
    panose-1="0 0 4 0 0 0 0 0 0 0"
    ascent="1638"
    descent="-410"
    x-height="1313"
    cap-height="1911"
    bbox="-1287 -944 2860 2004"
    underline-thickness="65"
    underline-position="-718"
    unicode-range="U+0020-2039"
  />
<missing-glyph horiz-adv-x="1024" 
d="M256 128h512v1075h-512v-1075zM128 0v1331h768v-1331h-768z" />
    <glyph glyph-name=".notdef" horiz-adv-x="1024" 
d="M256 128h512v1075h-512v-1075zM128 0v1331h768v-1331h-768z" />
    <glyph glyph-name="space" unicode=" " horiz-adv-x="819" 
 />
    <glyph glyph-name="exclam" unicode="!" horiz-adv-x="572" 
d="M114 140q0 166 172 166q81 0 125.5 -43t44.5 -121.5t-45 -123t-126 -44.5t-126 43.5t-45 122.5zM406 474h-238l-50 954h338z" />
    <glyph glyph-name="quotedbl" unicode="&#x22;" horiz-adv-x="944" 
d="M814 1428l-40 -516h-192l-40 516h272zM402 1428l-40 -516h-192l-40 516h272z" />
    <glyph glyph-name="numbersign" unicode="#" horiz-adv-x="1291" 
d="M526 598h192l46 226h-192zM976 824l-46 -226h252v-202h-290l-76 -396h-214l76 396h-190l-74 -396h-210l72 396h-232v202h270l46 226h-246v204h282l76 400h214l-76 -400h194l76 400h210l-76 -400h234v-204h-272z" />
    <glyph glyph-name="dollar" unicode="$" horiz-adv-x="1143" 
d="M380 1024q0 -43 29.5 -70.5t96.5 -57.5v230q-126 -19 -126 -102zM772 432q0 41 -33 69t-99 59v-244q132 23 132 116zM954 197q-112 -94 -314 -113v-200h-134v196q-238 5 -418 84v258q85 -42 204.5 -74.5t213.5 -37.5v302l-66 26q-193 76 -273.5 165.5t-80.5 226t111 228
t309 110.5v150h134v-146q224 -10 404 -90l-92 -228q-152 62 -312 76v-288q190 -73 270 -127q156 -104 156 -264t-112 -254z" />
    <glyph glyph-name="percent" unicode="%" horiz-adv-x="1801" 
d="M1651.5 762.5q88.5 -115.5 88.5 -335t-87 -332.5t-251.5 -113t-252 116t-87.5 334q0 446 336 446q165 0 253.5 -115.5zM1308 430q0 -246 93 -246t93 245t-94 245q-49 0 -70.5 -60t-21.5 -184zM1412 1428l-792 -1428h-234l792 1428h234zM740 1002q0 -450 -342 -450
q-161 0 -248.5 115.5t-87.5 334.5q0 446 336 446q165 0 253.5 -115.5t88.5 -330.5zM308 1000q0 -246 93 -246t93 245t-94 245q-49 0 -70.5 -60t-21.5 -184z" />
    <glyph glyph-name="ampersand" unicode="&#x26;" horiz-adv-x="1454" 
d="M-5 -90q-46 46 -46 111.5t46 112t111.5 46.5t111.5 -46.5t46 -112t-46 -111.5t-111.5 -46t-111.5 46zM1029 246q0 100 -147 100q-39 0 -107.5 -23.5t-108 -40.5t-72.5 -49q166 -76 262 -76q173 0 173 89zM1233 691h-695q-195 0 -195 -147q0 -48 36 -95t79 -99
q120 97 197 136q109 51 259 51t246.5 -85t96.5 -203t-105.5 -205.5t-297.5 -87.5q-263 0 -500.5 189t-237.5 424q0 290 352 353h537v161h-1025v231h1512v-231h-259v-392z" />
    <glyph glyph-name="quotesingle" unicode="'" horiz-adv-x="532" 
d="M402 1428l-40 -516h-192l-40 516h272z" />
    <glyph glyph-name="parenleft" unicode="(" horiz-adv-x="677" 
d="M374 -316q-294 339 -294 866q0 257 75.5 482.5t218.5 395.5h244q-138 -188 -208 -414t-70 -464.5t71.5 -462t204.5 -403.5h-242z" />
    <glyph glyph-name="parenright" unicode=")" horiz-adv-x="677" 
d="M338 550q0 494 -278 878h244q144 -171 219 -397t75 -483t-76 -478.5t-218 -385.5h-242q132 180 204 403t72 463z" />
    <glyph glyph-name="asterisk" unicode="*" horiz-adv-x="1089" 
d="M672 1520l-40 -360l364 102l32 -246l-332 -24l218 -290l-222 -118l-152 306l-134 -304l-230 116l216 290l-330 26l38 244l356 -102l-40 360h256z" />
    <glyph glyph-name="plus" unicode="+" horiz-adv-x="1143" 
d="M464 598h-378v214h378v380h214v-380h378v-214h-378v-376h-214v376z" />
    <glyph glyph-name="comma" unicode="," horiz-adv-x="570" 
d="M448 210q-51 -197 -172 -468h-214q63 260 98 490h274z" />
    <glyph glyph-name="hyphen" unicode="-" horiz-adv-x="643" 
d="M60 414v244h524v-244h-524z" />
    <glyph glyph-name="hyphen" unicode="&#x2010;" horiz-adv-x="643" 
d="M60 414v244h524v-244h-524z" />
    <glyph glyph-name="period" unicode="." horiz-adv-x="570" 
d="M114 140q0 166 172 166q81 0 125.5 -43t44.5 -121.5t-45 -123t-126 -44.5t-126 43.5t-45 122.5z" />
    <glyph glyph-name="slash" unicode="/" horiz-adv-x="826" 
d="M816 1428l-532 -1428h-270l532 1428h270z" />
    <glyph glyph-name="colon" unicode=":" horiz-adv-x="570" 
d="M114 946q0 166 172 166q81 0 125.5 -43t44.5 -122.5t-45.5 -123t-126 -43.5t-125.5 43t-45 123zM114 140q0 166 172 166q81 0 125.5 -43t44.5 -121.5t-45 -123t-126 -44.5t-126 43.5t-45 122.5z" />
    <glyph glyph-name="semicolon" unicode=";" horiz-adv-x="570" 
d="M114 946q0 166 172 166q81 0 125.5 -43t44.5 -122.5t-45.5 -123t-126 -43.5t-125.5 43t-45 123zM434 232l14 -22q-51 -197 -172 -468h-214q63 260 98 490h274z" />
    <glyph glyph-name="less" unicode="&#x3c;" horiz-adv-x="2080" 
d="M388 1079q-110 -1 -149 -35q-37 -33 -37 -100v-7q2 -73 38 -99t121 -32q14 -1 28 0q66 0 112 22q84 42 84 111q0 140 -197 140zM1660 446q-70 70 -126 70h-12q-60 -8 -284 -10q105 -308 343 -308h9q147 4 147 98q1 72 -77 150zM1188 987q1 -116 12 -253q178 -1 178 -2h-8
q100 2 167 23q145 45 228 232h-577zM767 -73q-121 63 -182 278q-34 119 -34 219.5t12 209.5q-95 -41 -200 -41q-150 0 -255.5 83.5t-108.5 240.5v12q1 187 93 275q96 92 334 92q372 0 372 -396q0 -79 -11 -257q-20 -230 -20 -236q0 -172 51 -287q4 -9 44.5 -72t40.5 -83
q0 -63 -56 -63q-33 0 -80 25zM2077 1229q-179 127 -300 188.5t-287 61.5q-239 0 -297 -278h863v-214h-75q-41 -115 -88 -202t-132 -152q177 -121 185 -297q1 -13 0 -25q0 -157 -97 -240q-105 -89 -257 -89q-96 0 -202 36.5t-165 100.5q-162 172 -198 341q-53 244 -53 527
h-40v214h45q65 491 511 491q142 0 261.5 -45t189.5 -94.5t136 -102.5v-221z" />
    <glyph glyph-name="equal" unicode="=" horiz-adv-x="1170" 
d="M115 444v146h938v-146h-938zM115 852v145h938v-145h-938z" />
    <glyph glyph-name="greater" unicode="&#x3e;" horiz-adv-x="1182" 
d="M1646 1332q0 -102 -76 -102t-144 147q-49 108 -151.5 173.5t-226 65.5t-286.5 -117q-32 -23 -225 -181t-324.5 -158t-216.5 83v217q32 -20 109 -53q75 -32 92 -32h1q77 8 193 98q102 84 253 202q205 144 393.5 144t333.5 -86.5t223 -235.5q23 -43 37.5 -94.5t14.5 -70.5z
" />
    <glyph glyph-name="question" unicode="?" horiz-adv-x="954" 
d="M238 140q0 166 172 166q81 0 125.5 -43t44.5 -121.5t-45 -123t-126 -44.5t-126 43.5t-45 122.5zM270 474v72q0 94 40 163t144.5 144.5t137 121.5t32.5 106t-47 93.5t-131 33.5q-146 0 -334 -96l-106 214q218 122 440.5 122t341 -96.5t118.5 -257.5q0 -107 -48.5 -185.5
t-164 -162t-140.5 -119.5t-25 -95v-58h-258z" />
    <glyph glyph-name="at" unicode="@" horiz-adv-x="12" 
d="M-255 -391q114 -63 114 -169t-58 -106q-57 0 -175 80t-244 254q-80 111 -135 267h107q55 -99 267 -272q23 -16 124 -54z" />
    <glyph glyph-name="A" unicode="A" horiz-adv-x="1838" 
d="M1619 0h-230v673q-148 -74 -251 -155q-40 -40 -71 -160t-57 -160q-50 -79 -153 -79q-178 0 -178 130q0 116 194 302q47 60 47 141q0 148 -73 282q-208 -133 -363 -344q-30 -40 -55 -142t-61 -138q-61 -63 -144 -63q-169 0 -169 142q0 55 39 118q43 53 116 163
q11 27 11 114q0 259 -96 259h-144v230h188q83 -1 153 -77t92 -150t32 -168q136 131 234 205t226 114q52 -56 151 -194q27 -47 51 -138t32 -115q120 71 249 109v414h488v-230h-258v-1083z" />
    <glyph glyph-name="B" unicode="B" horiz-adv-x="1351" 
d="M465 784h-7q-176 0 -176 -95q0 -83 117 -83q154 0 279 102q-109 74 -213 76zM993 718q132 -125 132 -291q1 -218 -163 -332q-153 -107 -375 -107q-16 0 -32 1q-117 5 -316 86q-164 67 -164 152q0 7 2 14q26 43 91 43q27 0 60 -10q225 -65 420 -65q107 0 178 60.5
t71 143.5t-59 149q-203 -167 -439 -167q-152 0 -248 81t-96 226t135 222q115 66 297 66t341 -122q61 70 82.5 105.5t31.5 109.5h-955v230h1393v-230h-206q-14 -185 -181 -365z" />
    <glyph glyph-name="C" unicode="C" horiz-adv-x="1420" 
d="M394 337q-103 -15 -103 -56q0 -34 60.5 -50.5t200.5 -21.5v136q-134 -4 -158 -8zM780 209q270 10 270 72q0 58 -270 64v-136zM168 457q-71 134 -71 235t87 165.5t180 64.5h609v161h-994v230h1470v-230h-246v-378h-829q-41 0 -41 -51q0 -21 11 -59.5q10 -38.5 24 -46.5
q7 -4 28 -5q18 0 50 4q64 8 268.5 8t324.5 -26q239 -56 239 -242v-8q-8 -290 -605 -290q-259 0 -387 39q-223 66 -223 255q0 43 22 108q23 68 68 68q7 0 15 -2z" />
    <glyph glyph-name="D" unicode="D" horiz-adv-x="1366" 
d="M409 1083q8 -73 8 -134q0 -139 -89 -416q141 -125 268 -125t322 98v577h-509zM1146 0h-228v270q-168 -80 -330 -80t-297 86t-218 204q116 291 116 480q0 62 -9 123h-207v230h1425v-230h-252v-1083z" />
    <glyph glyph-name="E" unicode="E" horiz-adv-x="1606" 
d="M520 435q144 -220 360 -220h8q103 2 159 43t56 115.5t-88.5 150t-161 75.5t-209 -6.5t-201.5 -7.5q27 -74 77 -150zM1442 1083q-32 -89 -107.5 -195.5t-193.5 -181.5q193 -142 193 -326q0 -186 -124 -290t-311 -104q-346 0 -538 255q-158 208 -192 554q-13 123 -13 267
v21h-175v230h181q34 276 210.5 452.5t462.5 176.5l198 -3q146 -9 222 -50t76 -89q0 -77 -143 -77h-4q-147 1 -289 8q-18 1 -36 1q-207 0 -306 -98q-85 -84 -155 -321h1226v-230h-182zM403 804h226q153 0 257.5 24.5t202.5 116.5t117 138h-823q2 -113 20 -279z" />
    <glyph glyph-name="F" unicode="F" horiz-adv-x="1421" 
d="M903 316q-29 0 -46 -5q-46 -9 -130 -100q82 -40 174 -40h17q101 4 101 65q0 80 -116 80zM1201 621h-758q10 -117 102 -267q5 -6 11 -16q156 176 360 176q150 0 243 -77q86 -75 86 -190q-1 -11 -1 -23q-10 -130 -101.5 -200t-243.5 -70q-328 0 -567 312q-102 134 -117 355
h-55q-55 0 -91 34.5t-36 88.5q0 99 93 174.5t205 75.5t112 -85v-60h527v234h-993v230h1485v-230h-261v-462z" />
    <glyph glyph-name="G" unicode="G" horiz-adv-x="1618" 
d="M1398 0h-230v231q-113 -43 -181 -43q-112 0 -242 127q-147 -135 -279 -135t-253 98.5t-185 220.5q167 324 167 490q0 56 -19.5 72t-68.5 22h-136v230h184q59 0 127 -47q140 -96 140 -276q0 -104 -49 -245q-1 -3 -91 -229q128 -108 182 -108q182 0 182 258
q0 52 -20.5 147.5t-20.5 158.5t49.5 161.5t122 98.5t114.5 -97t42 -160t-33.5 -177.5t-33.5 -186.5q0 -199 155 -199q88 0 147 64v837h488v-230h-258v-1083z" />
    <glyph glyph-name="H" unicode="H" horiz-adv-x="12" 
d="M-238 -454q0 -143 -77 -220t-220.5 -77t-293.5 128q-107 94 -127 208q0 169 206 169q107 0 107 -47q0 -32 -50 -45q-10 -4 -25 -8t-35 -13q-21 -13 -21 -49.5t78.5 -95.5t146.5 -80q99 21 120 149v384h191v-403z" />
    <glyph glyph-name="I" unicode="I" horiz-adv-x="570" 
d="M288 0h-228v1083h-95v230h95q-3 182 -28 250q-45 133 -186 133t-181 -69q-18 -31 -34 -186h-224q0 230 87 339q104 131 357 131t357 -197q73 -136 79 -401h311v-230h-310v-1083z" />
    <glyph glyph-name="J" unicode="J" horiz-adv-x="1380" 
d="M355 1083q52 -74 141 -125t181 -51q169 0 257 176h-579zM719 112l2 -3q50 -58 50 -84q0 -80 -89 -80q-70 0 -190 116q-116 111 -213 111h-8h-9q-61 0 -91 40q-33 44 -33 101.5t49 105.5t111 48t119 -56t104.5 -67t116.5 -11q147 0 224 42t77 117.5t-92.5 132.5t-158.5 57
t-186.5 -29.5t-225.5 -56.5h-11q-47 0 -101 29q-60 33 -59 81q0 69 210 116q-137 90 -214 261h-120v230h1426v-230h-230q-34 -155 -211 -286q203 -115 203 -290q0 -12 -1 -24q-13 -171 -139 -266.5t-310 -104.5z" />
    <glyph glyph-name="K" unicode="K" horiz-adv-x="1378" 
d="M1157 0h-230v284q-165 -86 -306 -86q-331 0 -542 274q84 198 98 237q49 139 49 237t-2 108q-6 29 -38 29h-205v230h228q231 0 241 -351h477v351h486v-230h-256v-1083zM429 732q-16 -73 -84 -219q114 -86 326 -86q123 0 256 107v198h-498z" />
    <glyph glyph-name="L" unicode="L" horiz-adv-x="1669" 
d="M-57 13q-46 46 -46 111.5t46 111.5t112 46t112 -46t46 -111.5t-46 -111.5t-112 -46t-112 46zM902 750l208 333h-413zM1242 899q166 -41 259.5 -163t93.5 -281q0 -196 -144.5 -335t-411.5 -152v228q179 11 255 84t76 173.5t-64.5 174.5t-170.5 87l-187 -307h-90l-185 307
q-108 -13 -171 -86.5t-63 -173.5q0 -241 330 -259v-228q-267 13 -412.5 152t-145.5 335q0 158 94 280.5t258 163.5l-120 184h-457v230h1708v-230h-331z" />
    <glyph glyph-name="M" unicode="M" 
d="M-552 1479q-75 87 -75 175t68.5 174.5t231 86.5t231 -86.5t68.5 -174.5t-75 -175q-45 -52 -79 -52q-15 0 -17 7q-11 10 -9 19q54 90 54 145.5t-50.5 96.5t-124 41t-123 -41t-49.5 -109q0 -32 16 -62t22.5 -43t15.5 -28q2 -9 -5.5 -17.5t-20.5 -8.5q-34 0 -79 52z" />
    <glyph glyph-name="N" unicode="N" horiz-adv-x="231" 
d="M255 1313v-230zM-200 1083v230zM-200 1083v230h455v-230h-455zM-89.5 1495q-48.5 49 -48.5 118.5t48.5 119t119 49.5t119.5 -49.5t49 -119t-49 -118.5t-119.5 -49t-119 49z" />
    <glyph glyph-name="O" unicode="O" horiz-adv-x="12" 
d="M-436 1568q-19 114 -115 114q-46 0 -83.5 -33t-41.5 -86q0 -19 19.5 -72.5t19.5 -69t-4 -28.5q-23 -23 -43.5 -23t-40.5 10.5q-19 10.5 -39 26.5q-44 36 -62.5 79t-23.5 128q-4 17 -35 17q-16 -1 -32 -1q-100 0 -192 43q-113 59 -140 139q-8 44 -8 83q0 92 54 101
q37 0 79 -99q8 -20 31 -43q57 -34 171 -34t203 26t165 26q152 0 231 -109q52 -77 52 -179.5t-75 -171.5q-44 -40 -74.5 -40t-65.5 36q35 77 50 160z" />
    <glyph glyph-name="P" unicode="P" horiz-adv-x="1415" 
d="M991 269q0 83 -143 83t-261 -116q128 -56 230 -56q174 0 174 89zM1194 690h-694q-195 0 -195 -125q0 -52 36 -105l76 -90q189 189 445 189q146 1 252 -75t107 -205q0 -157 -126 -236q-107 -68 -288 -68q-370 0 -613 313q-117 152 -117 294q1 142 117 229q116 88 297 88
h477v184h-984v230h1467v-230h-257v-393z" />
    <glyph glyph-name="Q" unicode="Q" horiz-adv-x="1422" 
d="M414 642q-14 -46 -46 -155q120 -123 263 -123t339 100v178h-556zM445 1083q14 -105 14 -169q0 -24 -2 -42h513v211h-525zM1201 0h-231v218q-175 -81 -355 -81q-257 0 -498 278q115 306 115 530q0 43 -17 138h-231v231h1466v-231h-249v-1083z" />
    <glyph glyph-name="R" unicode="R" horiz-adv-x="20" 
d="M-336 -168q55 -36 138 -139.5t83 -143.5q0 -15 -16 -22q-2 -1 -4 -1q-18 0 -64 44q-27 28 -93 94.5t-128 81.5q-68 -88 -139 -88q-46 0 -81.5 36.5t-35.5 82.5q0 127 135 127q63 0 125 -25q12 18 31 72h104q-18 -53 -55 -119z" />
    <glyph glyph-name="S" unicode="S" horiz-adv-x="1442" 
d="M580 82.5q-50 50.5 -50 121.5t50 121.5t121.5 50.5t121.5 -50.5t50 -121.5t-50 -121.5t-121.5 -50.5t-121.5 50.5zM428 1083q56 -188 62 -331h503v331h-565zM1223 0h-230v522h-510q-25 -87 -73 -263q-50 -200 -180 -200q-72 0 -120.5 45.5t-48.5 109.5t93.5 243.5
q93.5 180.5 99.5 272.5q1 18 1 36q-1 74 -19 144q-22 88 -46 173h-219v230h1511v-230h-259v-1083z" />
    <glyph glyph-name="T" unicode="T" horiz-adv-x="1457" 
d="M239 774q136 125 359 168v141h-627v230h1524v-230h-669v-141q224 -43 363.5 -168.5t141.5 -321.5v-7q0 -220 -192 -351q-175 -121 -424.5 -121t-432.5 127q-181 126 -181 333q0 214 138 341zM436 642q-110 -81 -109 -209q0 -124 131 -186q100 -46 254.5 -46t257.5 46
q136 62 136 185q0 129 -114 210q-110 80 -279 80t-277 -80z" />
    <glyph glyph-name="U" unicode="U" horiz-adv-x="15" 
d="M-324 -661q-206 -81 -404.5 -81t-388.5 81v220q205 -82 403.5 -82t389.5 80v-218zM-324 -301q-206 -76 -398 -80h-17q-184 0 -378 80v222q205 -84 403.5 -84t389.5 82v-220z" />
    <glyph glyph-name="V" unicode="V" horiz-adv-x="1424" 
d="M973 -33q-35 0 -249 152q-63 -5 -121 -5q-106 0 -190 18l4 -8q26 -38 26 -74.5t-29 -57.5t-57 -21q-52 0 -178 155.5t-131 227.5v6q0 32 20 61q22 32 58 32t66 -5q238 -109 454 -109q124 0 230.5 52t106.5 156q0 124 -234 124q-64 0 -193 -13t-222.5 -13t-155 37.5
t-61.5 92t83 92.5q91 39 222 39q81 0 177 -15q75 -13 106 -13q104 0 208 101q29 24 85 104h-1014v230h1478v-230h-219q-41 -136 -192 -270q163 -92 163 -275q0 -110 -65 -206q-66 -103 -182 -154l47 -44q46 -52 46 -86q0 -81 -87 -81z" />
    <glyph glyph-name="W" unicode="W" horiz-adv-x="583" 
d="M300 513h-230v570h-91v230h622v-230h-301v-570zM74.5 1495q-48.5 49 -48.5 118.5t48.5 119t119 49.5t119.5 -49.5t49 -119t-49 -118.5t-119.5 -49t-119 49z" />
    <glyph glyph-name="X" unicode="X" horiz-adv-x="1583" 
d="M402 1083q13 -76 13 -151q0 -190 -107 -457q160 -168 307 -168q74 0 73 131l-3 314h448v331h-731zM1363 0h-230v524h-217v-139q0 -126 -84.5 -217t-225.5 -91t-305.5 112.5t-248.5 238.5q55 148 118 365q13 76 13 150q0 71 -12 140h-198v230h1657v-230h-267v-1083z" />
    <glyph glyph-name="Y" unicode="Y" 
d="M-952 1463l-164 -11q-171 0 -171 104q0 96 171 114q12 2 24 2h25q132 0 325 -80q75 -34 152 -68t153 -70q-30 60 -125 136q-85 73 -144 97q-212 92 -293 92l-112 -7q-154 0 -154 101q0 62 73.5 90.5t150.5 28.5q211 0 409 -156q161 -131 271 -333q54 -97 54 -120
q0 -33 -38 -40q-2 -1 -6 -1q-41 0 -254 58q-233 63 -347 63z" />
    <glyph glyph-name="Z" unicode="Z" horiz-adv-x="1667" 
d="M657 635q-129 0 -179.5 -31.5t-50.5 -112t87.5 -175.5t173.5 -97h4q82 0 99 73v343h-134zM1447 0h-228v1083h-200v-752q0 -331 -322 -331q-204 0 -353 159t-149 334t117.5 268t298.5 93h180v229h-816v230h1721v-230h-249v-1083zM-128 138q0 72 50 122t122 50t122 -50
t50 -122t-50 -122t-122 -50t-122 50t-50 122z" />
    <glyph glyph-name="bracketleft" unicode="[" horiz-adv-x="958" 
d="M642 -21h-228v1334h228v-1334z" />
    <glyph glyph-name="backslash" unicode="\" horiz-adv-x="1399" 
d="M1177 719h-719q-37 0 -86.5 -19t-49.5 -51q0 -26 30 -61t60 -35h754v-219h-515q62 -172 264 -172q72 0 258 32l-50 -167q-160 -54 -254.5 -54q-94.5 -1 -196.5 51q-180 91 -256 295q-15 2 -66 21q-258 120 -258 295q0 207 230 269q-66 69 -112 179h-226v230h1457v-230
h-264v-364zM463 1083q40 -57 107 -102.5t129 -45.5h248v148h-484z" />
    <glyph glyph-name="bracketright" unicode="]" horiz-adv-x="1345" 
d="M788 1313h228v-1334h-228v1334zM327 1313h228v-1334h-228v1334z" />
    <glyph glyph-name="asciicircum" unicode="^" horiz-adv-x="1401" 
d="M40 -35q-46 46 -46 111t46 111.5t111.5 46.5t111.5 -46.5t46 -111.5t-46 -111t-111.5 -46t-111.5 46zM1179 0h-230v278q-155 -80 -307 -80q-340 0 -541 252q146 345 146 507q0 126 -72 126h-204v231h259q229 0 240 -341h479v341h485v-231h-255v-1083zM366 513
q115 -86 326 -86q124 0 257 107v209h-500q-23 -102 -83 -230z" />
    <glyph glyph-name="underscore" unicode="_" horiz-adv-x="822" 
d="M826 -316h-830v136h830v-136z" />
    <glyph glyph-name="grave" unicode="`" horiz-adv-x="225" 
d="M-278 1800q8 102 49 102q34 0 46 -98t62 -147.5t160 -49.5q196 0 226 210q9 85 43 85q40 0 48 -102q3 -31 2 -60q0 -65 -13 -120q-30 -101 -116 -150t-191.5 -49t-191.5 49q-127 72 -127 271q0 28 3 59z" />
    <glyph glyph-name="a" unicode="a" horiz-adv-x="1558" 
d="M510 397q127 -184 349.5 -184t222.5 141q0 86 -75.5 166.5t-152.5 80.5t-218 -5.5t-213 -5.5q49 -138 87 -193zM364 1083q1 -134 15 -281q418 0 479 22q161 58 211 97.5t101 161.5h-806zM1411 1083q-86 -241 -291 -374q191 -148 191 -331t-123 -286t-312 -103
q-345 0 -538 253q-156 207 -191 551q-12 122 -12 267v23h-154v230h157q19 268 194.5 420.5t463.5 152.5t451.5 -153t180.5 -420h157v-230h-174zM1197 1313q-31 350 -413.5 350t-416.5 -350h830z" />
    <glyph glyph-name="b" unicode="b" horiz-adv-x="1353" 
d="M586 605q-125 -69 -265 -201q106 -113 277 -113q66 0 168 42.5t141 88.5v183h-321zM358 1083q31 -90 99 -146q16 -14 158 -102h292v248h-549zM1133 0h-226v166q-185 -101 -342 -101q-157 -1 -297 95t-215 244q95 168 325 327q-117 89 -173 160t-85 192h-133v230h1398
v-230h-252v-1083z" />
    <glyph glyph-name="c" unicode="c" horiz-adv-x="1481" 
d="M457 565q15 -335 319 -335q102 0 178 39t76 126v170h-573zM1260 385q0 -175 -138 -280t-338 -105q-391 0 -520 345q-24 65 -36 220h-77q-57 0 -91 38t-33 89q0 102 99 180q98 78 214 78t116 -93v-64h574v290h-1059v230h1552v-230h-263v-698z" />
    <glyph glyph-name="d" unicode="d" horiz-adv-x="1432" 
d="M1214 553h-749q8 -184 71 -260q77 -93 281 -93q110 0 318 75l86 19l35 -63q0 -61 -108 -139q-142 -103 -335 -103q-300 0 -441 155q-123 136 -134 409h-60q-132 0 -132 114q0 96 97 181t209 85t112 -93v-59h520v302h-1005v230h1483v-230h-248v-530z" />
    <glyph glyph-name="e" unicode="e" horiz-adv-x="1480" 
d="M432 1083q92 -246 381 -246l220 6v240h-601zM1260 613l-353 14q-172 0 -285 -41q-145 -50 -256 -177q86 -83 229.5 -145.5t261.5 -62.5t191 44q37 30 84.5 68t76.5 38q45 0 45 -65q0 -93 -101 -196t-247 -105h-18q-282 0 -509 125q-184 103 -272 291q70 193 338 338
q-175 108 -252 344h-209v230h1529v-230h-253v-470z" />
    <glyph glyph-name="f" unicode="f" horiz-adv-x="1393" 
d="M295 292q0 -32 63 -60q64 -28 167 -28t231 36q-149 114 -335 114q-126 0 -126 -62zM931 366q36 65 36 121q0 100 -107.5 152.5t-257.5 52.5q-52 0 -152 -17.5t-151 -17.5q-203 0 -203 138q0 74 79 113t144 39t151 -21t130 -21q227 0 364 178h-975v230h1439v-230h-204
q-52 -107 -104.5 -158t-157.5 -97q237 -125 237 -344q0 -254 -208 -383q-178 -110 -468 -112h-5q-166 -1 -301 71q-137 72 -147 214q-1 12 0 22q0 124 96 193q105 75 257 75q292 0 508 -198z" />
    <glyph glyph-name="g" unicode="g" horiz-adv-x="1518" 
d="M504 635q-130 1 -180 -31t-50 -113t87.5 -176.5q88.5 -95.5 174.5 -95.5t102 73v343h-134zM1293 0h-228v1083h-199v-752q0 -331 -322 -331q-206 0 -354 159t-148 334t118 268t298 93h180v229h-659v230h1574v-230h-260v-1083z" />
    <glyph glyph-name="h" unicode="h" horiz-adv-x="1332" 
d="M1113 354q-1 -158 -99 -256t-271 -98q-230 0 -441.5 184.5t-211.5 390.5q0 114 98 191t226 77h151v-228h-134q-101 0 -101 -66q0 -90 117 -200q49 -47 134 -83t153 -36q149 0 149 142v711h-908v230h1400v-230h-262v-729z" />
    <glyph glyph-name="i" unicode="i" horiz-adv-x="534" 
d="M317 0h-228v1083h-113v230h114q6 265 79 401q104 197 357 197t357 -131q87 -109 87 -339h-225q-13 154 -36 191q-39 64 -181 64t-187 -128q-19 -60 -24 -255h251v-230h-251v-1083z" />
    <glyph glyph-name="j" unicode="j" horiz-adv-x="1411" 
d="M1192 0h-230v508h-513v-508h-230v508h-41q-62 0 -102 44t-39 105q0 111 79 177.5t206 66.5t127 -104v-61h513v347h-987v230h1476v-230h-259v-1083z" />
    <glyph glyph-name="k" unicode="k" horiz-adv-x="1488" 
d="M722 664q-102 70 -216 70t-176.5 -60t-62.5 -151t67 -151.5t161 -60.5q177 0 351 243q-48 45 -124 110zM1115 549q136 -284 227 -549h-239q-58 148 -143 345q-216 -259 -473 -259q-187 0 -317 132t-130 316t142 303t330 119q187 0 322 -107q41 -32 132 -107
q91 192 106 341h-1093v230h1541v-230h-218q-34 -307 -187 -534z" />
    <glyph glyph-name="l" unicode="l" horiz-adv-x="1499" 
d="M737 750l209 333h-413zM1079 899q164 -41 258 -163t94 -281q-1 -196 -145 -335t-412 -152v228q179 11 255 84q76 74 76 174t-64 174t-171 87l-187 -307h-90l-185 307q-106 -13 -170 -87t-64 -173q0 -241 331 -259v-228q-267 13 -413 152t-146 335q0 159 94 281t259 163
l-121 184h-293v230h1545v-230h-332z" />
    <glyph glyph-name="m" unicode="m" horiz-adv-x="1419" 
d="M1201 0h-231v528h-501q-28 -201 -55 -279q-63 -188 -188 -188q-163 0 -163 151q0 60 54.5 172t99 204.5t44.5 258.5q0 236 -60 236h-220v230h218q292 0 292 -419v-20l-1 -119h480v558h499v-230h-268v-1083z" />
    <glyph glyph-name="n" unicode="n" horiz-adv-x="1371" 
d="M756 895q195 -39 333 -171t138 -315q0 -182 -110 -285q-75 -72 -297 -164v217q107 51 143 95t36 152q0 106 -111 186q-112 80 -242 79q-130 1 -242 -79t-111 -186t37 -152q36 -44 143 -95v-218q-225 94 -298 165q-108 102 -108 284t140 317q128 129 322 170v188h-549v230
h1426v-230h-650v-188z" />
    <glyph glyph-name="o" unicode="o" horiz-adv-x="13" 
d="M-437 1492q-9 29 -23 59q-27 22 -217 22h-33h-26q-66 0 -202 7q-76 10 -122 88.5q-46 79.5 -50 159.5q-1 14 0 26q0 62 14 104q9 40 22 40q57 0 92 -140q14 -50 51 -61q15 -7 77 -7q110 0 315 -4q138 -12 190 -79q28 -39 43 -193q3 -32 3 -60q0 -67 -36 -71h-6
q-51 0 -92 109z" />
    <glyph glyph-name="p" unicode="p" horiz-adv-x="1400" 
d="M1181 0h-228v273q-169 -84 -359 -84t-350 101q-110 72 -157 158q4 72 85 264t81 242q0 129 -121 129h-151v230h203q125 0 212 -113t87 -228t-153 -456q148 -104 290 -104t333 114v787h475v-230h-247v-1083z" />
    <glyph glyph-name="q" unicode="q" horiz-adv-x="1416" 
d="M1238 378q0 -176 -124.5 -285.5t-301.5 -109.5q-262 0 -467 117q-236 126 -236 170q19 68 85.5 68t256 -67.5t322.5 -67.5t185 46q48 42 48 131v17q-6 102 -149 153q-106 38 -236 38q-46 0 -133 -13t-131 -13q-202 0 -202 144q0 135 173 135q70 0 195 -26.5t180 -26.5
q158 0 244 168q19 32 57 127h-1020v231h1460v-231h-207q-53 -240 -214 -379q215 -121 215 -326z" />
    <glyph glyph-name="r" unicode="r" horiz-adv-x="1379" 
d="M837 203q92 0 92 121v302h-440q-86 0 -86 -74q-1 -20 43 -64t90 -89q191 -196 301 -196zM1159 358q0 -155 -72 -258q-87 -125 -248 -125q-216 0 -451 222t-235 418q0 238 349 238h427v230h-945v230h1425v-230h-250v-725z" />
    <glyph glyph-name="s" unicode="s" horiz-adv-x="1439" 
d="M450 1083q55 -188 61 -331h482v331h-543zM1223 0h-230v522h-489q-24 -87 -73 -263q-50 -200 -178 -200q-72 0 -121 45.5t-49 109.5t94 243.5q95 180.5 99 272.5q1 16 0 32q0 76 -17 152q-24 84 -46 169h-232v230h1491v-230h-249v-1083z" />
    <glyph glyph-name="t" unicode="t" horiz-adv-x="1406" 
d="M1190 718q-49 1 -92 1q-273 -1 -441 -65t-337 -255q92 -75 233 -140t240 -65q129 0 282 124q38 32 86 32q75 0 75 -72q0 -40 -80 -118q-194 -187 -380 -187t-417 125t-294 287q57 141 152 229q152 146 250 202t280 88q58 10 213 23v156h-984v230h1463v-230h-249v-365z
" />
    <glyph glyph-name="u" unicode="u" horiz-adv-x="16" 
d="M-324 -377q-203 -77 -396 -81h-17q-186 0 -380 81v233q205 -84 403.5 -84t389.5 81v-230z" />
    <glyph glyph-name="v" unicode="v" horiz-adv-x="1359" 
d="M1140 719h-734q-141 0 -141 -64q0 -26 31 -58t61 -32h754v-216h-514q49 -90 109 -121t143 -31t271 36l-53 -185q-195 -65 -254 -65q-161 1 -285 103t-174 248q-3 11 -96 47t-146 87q-79 78 -79 198q1 120 113 194q112 75 245 75h518v148h-928v230h1409v-230h-250v-364z
" />
    <glyph glyph-name="w" unicode="w" horiz-adv-x="577" 
d="M300 513h-230v570h-91v230h622v-230h-301v-570z" />
    <glyph glyph-name="x" unicode="x" horiz-adv-x="1494" 
d="M842 809q-395 147 -505 274h-356v230h1542v-230h-822q152 -71 574 -157v-206q-142 24 -254 55v-363h-51q-44 66 -120 112q-42 22 -84 42q-68 40 -112 40q-210 0 -328 -214q76 -86 211 -138.5t267 -57.5h4q40 0 200 38q126 46 235 75q43 0 47 -1q16 -4 27 -25.5t11 -37.5
q0 -58 -183.5 -157t-333.5 -99q-242 0 -440 98q-220 108 -299 300q82 175 215.5 293t299.5 118q126 0 255 -74v85z" />
    <glyph glyph-name="y" unicode="y" 
d="M-450 1606q123 -129 123 -219q0 -23 -8 -31t-12 -8q-26 0 -77 54t-72.5 75.5t-43.5 45.5q-89 62 -170 102t-159 50t-256 17q-72 48 -72 102q0 108 152 108q313 0 595 -296z" />
    <glyph glyph-name="z" unicode="z" horiz-adv-x="1465" 
d="M612.5 82.5q-50.5 50.5 -50.5 121.5t50.5 121.5t122 50.5t121.5 -50.5t50 -121.5t-50 -121.5t-121.5 -50.5t-122 50.5zM1247 0h-230v508h-568v-508h-230v508h-41q-62 0 -101.5 44.5t-39.5 104.5q0 111 79 177.5t206 66.5t127 -104v-61h568v347h-1032v230h1520v-230h-258
v-1083z" />
    <glyph glyph-name="braceleft" unicode="{" horiz-adv-x="788" 
d="M280 264q0 95 -64 134.5t-186 39.5v234q122 0 186 39.5t64 134.5v310q0 108 40 164t131.5 82t256.5 26v-220q-97 -2 -133.5 -34.5t-36.5 -103.5v-292q0 -183 -228 -216v-12q229 -34 228 -216v-292q0 -71 37 -103.5t133 -34.5v-220q-162 0 -254.5 25t-133 81t-40.5 166
v308z" />
    <glyph glyph-name="bar" unicode="|" horiz-adv-x="1438" 
d="M339 320q0 -53 77 -75q45 -13 107 -13h23q76 3 176 80q-130 100 -239 100q-144 0 -144 -92zM837 929q170 0 281 -86.5t111 -235.5q0 -83 -51 -172.5t-124 -148.5q93 -102 199 -319h-240q-50 89 -133 193q-177 -135 -389 -135q-140 0 -247 69q-134 87 -134 233
q0 115 86 199q96 94 287 94q130 0 217.5 -41t199.5 -137q99 82 99 172q0 107 -215 107h-655v362h-162v230h1515v-230h-1122v-154h477z" />
    <glyph glyph-name="braceright" unicode="}" horiz-adv-x="788" 
d="M508 -44q0 -109 -40 -165t-132.5 -81.5t-255.5 -25.5v220q97 2 133.5 36t36.5 102v292q0 182 228 216v12q-228 34 -228 216v292q0 68 -36 101.5t-134 36.5v220q310 0 388 -106q40 -56 40 -166v-310q0 -95 64 -134.5t186 -39.5v-234q-122 0 -186 -40t-64 -134v-308z" />
    <glyph glyph-name="asciitilde" unicode="~" horiz-adv-x="225" 
d="M-273 1083v230h539v-230h-539zM-278 1800q8 102 49 102q34 0 46 -98t62 -147.5t160 -49.5q196 0 226 210q9 85 43 85q40 0 48 -102q3 -31 2 -60q0 -65 -13 -120q-30 -101 -116 -150t-191.5 -49t-191.5 49q-127 72 -127 271q0 28 3 59z" />
    <glyph glyph-name="Aring" unicode="&#xc5;" horiz-adv-x="2498" 
d="M1508 -363q126 -184 348.5 -184t222.5 142q0 85 -75.5 166.5t-152.5 81.5t-217.5 -6.5t-213.5 -6.5q49 -138 88 -193zM1361 323q1 -133 15 -280q418 0 479 21q161 59 210.5 98t100.5 161h-805zM697 398q-1 160 -231 160q-228 0 -227 -157v-8q5 -165 198 -165q87 0 173 44
q88 46 87 126zM932 362q0 -188 -37 -555q0 -190 64 -333q10 -26 99 -150q2 -12 2 -23q0 -67 -63 -67q-56 0 -124 48q-217 160 -217 553q0 107 16 236q-143 -73 -249 -73q-173 0 -293.5 111t-120.5 272q-1 203 125 307q118 98 327 98h28q443 -12 443 -424zM2507 553v-230h-98
q-34 -92 -109 -202q-59 -91 -184 -171q192 -148 192 -331t-123 -286t-311 -103q-347 0 -539 253q-156 207 -191 551q-12 123 -12 267v22h-78v230h72q31 266 191.5 441.5t418 175.5t453.5 -79q93 -38 317 -207l-1 -230q-249 173 -396.5 234t-342.5 61t-293 -118
q-73 -92 -111 -278h1145z" />
    <glyph glyph-name="Ccedilla" unicode="&#xc7;" horiz-adv-x="2342" 
d="M996 520q89 222 89 404v16q-4 188 -102 478q-142 -64 -227 -184.5t-85 -265t89.5 -264.5t235.5 -184zM1426 916v-7q0 -113 90 -392q137 76 236.5 202t99.5 261.5t-88.5 257t-237.5 185.5q-95 -306 -100 -507zM1936 -377l-341 271q-68 -18 -126 -49q305 -110 305 -282
q0 -113 -121 -113q-67 0 -106 37.5t-39 76.5t18 79q-85 52 -154 57v-159q65 -52 65 -113t-54 -105.5t-128.5 -44.5t-127.5 45t-53 103.5t66 113.5v160q-70 -5 -155 -57q20 -43 20 -74q0 -63 -73 -102q-35 -18 -80 -18t-80 30.5t-35 83.5q0 172 305 282q-58 31 -127 49
l-340 -271q0 133 -108 294q-111 150 -221 302q-211 303 -211 575.5t164 454t431 250.5q-54 -60 -110 -121t-100 -138t-54 -99q-39 -89 -39 -209t74 -304q138 -348 733 -643v110q-43 33 -125 85q-13 7 -148 54q16 27 60 116q-205 81 -333.5 249.5t-128.5 370.5t126.5 370
t329.5 255q-14 32 -35 74q53 30 217 148q33 26 87 93t73 87q51 -68 158 -180q100 -80 216 -148q-8 -17 -33 -71q209 -84 338.5 -252.5t129.5 -374t-131 -375t-345 -250.5q25 -52 58 -112q-48 -15 -141 -52q-20 -10 -131 -87v-110q225 111 402 249q251 196 327.5 387
t76.5 311t-39 209q-9 22 -53.5 99t-100.5 138t-110 121q266 -69 430 -251t164 -438q0 -287 -209 -592q-111 -152 -220 -301q-108 -161 -108 -294z" />
    <glyph glyph-name="aring" unicode="&#xe5;" horiz-adv-x="1398" 
d="M1839 1291q-20 -10 -39 -10q-57 0 -99 87q-16 32 -69 97.5t-107 97.5q-98 57 -248 57h-5q-154 -1 -309 -88q-55 -30 -245 -169t-289 -139q-58 0 -113 30t-100 56.5t-107.5 86.5t-69.5 66q-64 55 -222 55q-20 0 -43 -1l2 196q19 1 37 1q198 0 325 -70q25 -14 70 -61.5
t75 -68.5q29 -21 73 -52q44 -32 69 -32t99 53q146 102 368 237q160 98 360 98q14 0 30 -1q218 -8 368.5 -102t215.5 -262q18 -48 18 -93t-45 -69z" />
    <glyph glyph-name="ccedilla" unicode="&#xe7;" 
d="M-682 -419q0 -30 17 -129q31 -77 145 -77t114 113v93h-276zM-877 -419q-94 0 -94 73q0 43 56 111q21 26 70.5 49.5t83.5 23.5q66 0 66 -68v-33h289v218h161v-481q0 -80 -52 -150q-75 -103 -218 -103q-216 0 -280 146q-24 55 -43 214h-39z" />
    <glyph glyph-name="udieresis" unicode="&#xfc;" 
d="M-206 -729v-106q-178 -77 -314 -77t-304 77v106q178 -78 312 -78t288 71z" />
    <glyph glyph-name="dagger" unicode="&#x2020;" horiz-adv-x="15" 
d="M-245 -622q0 -30 -42 -74q-92 -101 -243 -101q-103 0 -253 74.5t-199 162.5q23 113 109 206t185 127t277 52v108h159v-238h-31q-147 0 -297 -34q-108 -23 -224 -206q182 -128 279.5 -128t161.5 62q34 32 76 32t42 -43z" />
    <glyph glyph-name="degree" unicode="&#xb0;" horiz-adv-x="780" 
d="M270.5 1345q-47.5 -48 -47.5 -115.5t47.5 -115.5t115.5 -48t115.5 48t47.5 115.5t-47.5 115.5t-115.5 48t-115.5 -48zM155.5 998.5q-95.5 95.5 -95.5 231t95.5 231t230.5 95.5t231 -95.5t96 -231t-96 -231t-231 -95.5t-230.5 95.5zM686 822v-176h-598v176h598z" />
    <glyph glyph-name="cent" unicode="&#xa2;" horiz-adv-x="1143" 
d="M676 1056q-232 0 -232 -324.5t232 -325.5q80 0 144.5 15.5t161.5 58.5v-248q-124 -60 -258 -68v-184h-174v192q-410 58 -410 556t410 558v162h174v-154q162 -9 292 -72l-88 -230q-160 64 -252 64z" />
    <glyph glyph-name="sterling" unicode="&#xa3;" horiz-adv-x="1143" 
d="M368 1342q112 106 309 106t387 -80l-90 -224q-154 62 -248 62q-176 0 -176 -168v-188h366v-214h-366v-140q0 -166 -148 -242h702v-254h-1024v242q101 43 138.5 98.5t37.5 153.5v142h-174v214h174v190q0 196 112 302z" />
    <glyph glyph-name="section" unicode="&#xa7;" 
d="M-226 -588q-154 -71 -288.5 -71t-311.5 78v-96q169 -77 304.5 -77t313.5 77v96zM-226 -778q-154 -71 -288.5 -71t-311.5 78v-96q169 -77 304.5 -77t313.5 77v96zM-238 -298q0 -115 -77 -177.5t-220.5 -62.5t-293.5 104q-107 76 -127 168q0 138 206 138q107 0 107 -39
q0 -28 -75 -43q-15 -3 -35 -10q-21 -11 -21 -35q0 -35 91 -89q66 -42 134 -59q99 17 120 121v281h191v-297z" />
    <glyph glyph-name="bullet" unicode="&#x2022;" horiz-adv-x="860" 
d="M94 596l340 339l340 -339l-340 -340z" />
    <glyph glyph-name="paragraph" unicode="&#xb6;" horiz-adv-x="1309" 
d="M1140 -254h-158v1578h-162v-1578h-158v800q-61 -18 -142 -18q-211 0 -310.5 122t-99.5 372t106.5 374t333.5 124h590v-1774z" />
    <glyph glyph-name="registered" unicode="&#xae;" horiz-adv-x="12" 
d="M-230 -405q186 -143 186 -199q0 -40 -49 -57q-13 -4 -22 -4q-51 0 -163.5 85.5t-144.5 94.5q-56 -142 -154 -163q-32 -8 -69 -8q-139 0 -173 143q-6 26 -6 60t17 71.5t45 66.5q59 61 134 61t167 -22q7 5 37 236h199q-19 -193 -40.5 -242t-34.5 -71q33 -23 71 -52z" />
    <glyph glyph-name="acute" unicode="&#xb4;" horiz-adv-x="12" 
d="M156 -363h-115q0 -99 -10 -156q-23 -125 -113 -125q-49 0 -172 53q-47 21 -100 70q-64 53 -64 90q-1 3 -1 8q0 25 26 103q31 92 37 127.5t6 88t-14 89.5h139q11 -46 11 -106q0 -40 -5 -87q-1 -24 -35 -107q-27 -67 -28 -87q0 -5 2 -7l-1 -1q0 -9 52 -48q57 -43 92 -43
q53 0 53 76v186h248z" />
    <glyph glyph-name="dieresis" unicode="&#xa8;" 
d="M-226 -588q-154 -71 -288 -71t-312 78v-96q168 -77 304 -77t314 77v96zM-226 -778q-154 -71 -288 -71t-312 78v-96q168 -77 304 -77t314 77v96z" />
    <glyph glyph-name="AE" unicode="&#xc6;" horiz-adv-x="2198" 
d="M2628 1137q0 274 -208.5 455.5t-514.5 181.5q-405 0 -831 -470q-121 -128 -469 -503q-211 -229 -392 -229q-74 0 -232 93v231q181 -94 232 -94h1q77 1 230 169q94 100 388.5 412.5t476.5 431.5q282 189 596 189q409 0 676.5 -233.5t276.5 -632.5q2 -120 2 -185
q-18 -87 -100 -91h-3q-47 0 -87 70q-42 72 -42 205z" />
    <glyph glyph-name="Oslash" unicode="&#xd8;" horiz-adv-x="386" 
d="M-17 987v214h451v-214h-451z" />
    <glyph glyph-name="plusminus" unicode="&#xb1;" horiz-adv-x="1324" 
d="M1168 20h-1038v210h1038v-210zM754 698v-326h-210v326h-326v210h326v326h210v-326h326v-210h-326z" />
    <glyph glyph-name="yen" unicode="&#xa5;" horiz-adv-x="1143" 
d="M570 840l258 588h306l-374 -730h190v-174h-240v-134h240v-174h-240v-216h-280v216h-242v174h242v134h-242v174h186l-368 730h308z" />
    <glyph glyph-name="mu" unicode="&#xb5;" 
d="M-552 1479q-75 87 -75 175t68.5 174.5t231 86.5t231 -86.5t68.5 -174.5t-75 -175q-45 -52 -79 -52q-15 0 -17 7q-11 10 -9 19q54 90 54 145.5t-50.5 96.5t-124 41t-123 -41t-49.5 -109q0 -32 16 -62t22.5 -43t15.5 -28q2 -9 -5.5 -17.5t-20.5 -8.5q-34 0 -79 52z" />
    <glyph glyph-name="mu" unicode="&#x3bc;" 
d="M-552 1479q-75 87 -75 175t68.5 174.5t231 86.5t231 -86.5t68.5 -174.5t-75 -175q-45 -52 -79 -52q-15 0 -17 7q-11 10 -9 19q54 90 54 145.5t-50.5 96.5t-124 41t-123 -41t-49.5 -109q0 -32 16 -62t22.5 -43t15.5 -28q2 -9 -5.5 -17.5t-20.5 -8.5q-34 0 -79 52z" />
    <glyph glyph-name="ordfeminine" unicode="&#xaa;" horiz-adv-x="1236" 
 />
    <glyph glyph-name="ae" unicode="&#xe6;" horiz-adv-x="26" 
d="M-600 -97q58 0 100.5 -42.5t42.5 -100.5t-42.5 -100.5t-100.5 -42.5t-100.5 42.5t-42.5 100.5t42.5 100.5t100.5 42.5z" />
    <glyph glyph-name="questiondown" unicode="&#xbf;" horiz-adv-x="1332" 
d="M780 617l293 -294l-146 -147l-293 293l-292 -292l-149 145l293 295l-293 293l149 146l292 -292l293 292l146 -146z" />
    <glyph glyph-name="exclamdown" unicode="&#xa1;" horiz-adv-x="2062" 
d="M147 554q51 -34 110 -34t129 36q68 35 68 91v3q-6 124 -184 124q-176 0 -175 -122q0 -63 52 -98zM1148 88q66 2 112 32q41 28 41 83q-1 5 -1 11q-4 64 -64 115q-52 45 -103 45q-7 0 -14 -1q-78 -10 -168 -10q-42 0 -85 2q31 -112 57 -151q74 -126 216 -126h9zM842 456h31
q242 0 284 15q135 48 211 224h-532q-2 -40 -2 -79q0 -80 8 -160zM553 583l-16 -299q0 -98 75 -291q0 -35 -28 -35q-22 0 -63 49q-65 82 -83 239q-2 20 -2 49q0 71 14 196q-78 -59 -191 -59t-184 59.5t-71 163t82 159.5q75 52 182 52h19q154 -4 210 -77.5t56 -205.5z
M1260 420q134 -88 134 -198q0 -112 -68 -168q-66 -55 -172 -55q-227 0 -334 196q-80 151 -80 397q0 51 3 103h-80v91h84q40 183 107 266q87 107 261 119q22 2 56 2q55 0 142 -5q164 239 420 567q90 114 239 188t294 74q264 0 396 -249q66 -128 66 -253q0 -79 -38 -79t-47 96
q-13 49 -46 143q-113 250 -338 250q-135 0 -262.5 -77t-215.5 -192l-420 -552q-156 0 -250 -3q-202 -5 -267 -295h704v-91h-82q-50 -166 -206 -275z" />
    <glyph glyph-name="florin" unicode="&#x192;" horiz-adv-x="1381" 
d="M756 895q195 -39 333 -171.5t138 -314.5t-110 -285q-75 -72 -297 -164v217q107 51 143 95.5t36 151t-111 186t-241.5 79.5t-242 -79.5t-111.5 -186t36.5 -151t143.5 -95.5v-218q-225 94 -298 165q-108 102 -108 284t140 317q128 129 322 170v188h-549v230h1426v-230h-650
v-188zM424 1474q-75 87 -75 175t68.5 174.5t231 86.5t231 -86.5t68.5 -174.5t-75 -175q-45 -52 -79 -52q-15 0 -17 7q-11 10 -9 19q54 90 54 145.5t-50.5 96.5t-124 41t-123 -41t-49.5 -109q0 -32 16 -62t22.5 -43t15.5 -28q2 -9 -5.5 -17.5t-20.5 -8.5q-34 0 -79 52z
M1041 -665q-206 -81 -404.5 -81t-388.5 81v220q205 -82 403.5 -82t389.5 80v-218zM1041 -305q-206 -76 -398 -80h-17q-184 0 -378 80v222q205 -84 403.5 -84t389.5 82v-220z" />
    <glyph glyph-name="ellipsis" unicode="&#x2026;" horiz-adv-x="2123" 
d="M1716 -176q-28 27 -28 65.5t27.5 66.5t66 28t65.5 -28.5t27 -66t-27.5 -65t-65 -27.5t-65.5 27zM989 -176q-28 27 -28 65.5t27.5 66.5t66 28t65.5 -28.5t27 -66t-27.5 -65t-65 -27.5t-65.5 27zM261.5 -176q-28.5 27 -28.5 65.5t28 66.5t66.5 28t65.5 -28.5t27 -66
t-27.5 -65t-65 -27.5t-66 27z" />
    <glyph glyph-name="nonbreakingspace" unicode="&#xa0;" horiz-adv-x="819" 
 />
    <glyph glyph-name="OE" unicode="&#x152;" horiz-adv-x="2656" 
d="M1945 320l-60 -2q-86 0 -86 77q0 36 27.5 65t62.5 29q66 0 86 -72q-2 -11 -2 -21q0 -37 43 -62q34 -15 69 -30q51 6 162 37t165 39q-124 45 -224.5 96t-307.5 167q-60 -43 -156.5 -86t-170.5 -43t-103 47q108 79 173 111q63 31 154 31h6q-48 24 -80 37
q-477 -91 -582 -120q0 -6 8.5 -70.5t8.5 -112.5q0 -177 -125 -240q-69 63 -69 121t48 147.5t56 128.5q-33 -17 -196 -81.5t-239 -110.5q166 -41 220 -107q-112 -45 -169 -61q7 -14 40.5 -65t33.5 -73t-3 -35q-28 0 -65 13l-64 22q-5 -12 -5 -26t3.5 -58t-0.5 -63
q-8 -2 -16 -2q-42 0 -88 59t-59 67q-18 -23 -52 -63q-33 -39 -79 -39h-2q-26 22 -26 57l8 77q0 17 -5 31q-8 2 -115.5 14.5t-122.5 37.5q13 23 68.5 67t68.5 73q-24 27 -66 78q-39 47 -39 87v8q131 -19 206 -29q-25 108 -25 124q0 44 31 64q116 -55 150 -130q19 14 57 70
t74 62q33 -69 33 -127t-16 -92q277 129 440 185q-299 21 -365 189q58 40 137.5 40t165 -57t133.5 -139q397 97 535 111q-317 202 -602 487q-27 0 -46.5 -71.5t-45.5 -110.5q-51 -78 -157 -113q-20 33 -24 108.5t-11 105.5q-32 -4 -86 -4t-118 21q8 31 50.5 65.5t47.5 55.5
q0 29 -74.5 69t-86.5 76q54 24 165 24h48q31 0 50 3q-90 169 -90 266q0 9 1 17q174 -75 235 -148q24 17 62 89.5t80 89.5q46 -87 46 -165q16 -9 36.5 -9t62.5 16t57 16t24 -2q0 -102 -46 -169q-8 -12 -73.5 -78t-70.5 -121q169 -159 282 -260l15 1q-61 76 -61 186t47 217.5
t130.5 182t190.5 74.5t155 -72q17 -25 17 -58q0 -60 -53 -96v-19q0 -50 -9 -76q-59 -168 -159 -169q-19 0 -44 9.5t-22 26.5t17 17l64 -15q7 0 15 2q38 27 38 38v32q0 53 -45.5 80t-93.5 27t-99 -15q-109 -32 -109 -193q0 -11 1 -23q6 -142 177 -275q61 -47 134 -87l159 -87
q-49 100 -49 186.5t84 155.5q91 -85 91 -213q0 -75 -31 -170q287 -148 428 -224q-120 249 -156 423q-91 38 -183 108q-132 99 -132 176q0 39 35 70q194 -46 255 -199v352q-68 57 -124.5 141.5t-56.5 156t43 117.5q99 -36 133 -109q15 -34 37 -170q45 50 117 89t128 39
t91 -16q-29 -97 -118 -168t-192 -85q-10 -95 -10 -203t4 -211l114 159q40 45 118 45q35 0 99 -8q4 -22 4 -42q0 -115 -138 -179l-174 -58q19 -92 68 -226t102 -221q52 -22 63 -24q-51 48 -51 153t23 221q154 -79 154 -185q0 -30 -15.5 -86.5t-15.5 -79t5 -37.5l42 -21v-85
l-42 11q-26 -310 -239 -323q-1 52 -1 77q0 103 32 151.5t127 112.5q-89 -25 -392 -98q-22 -78 -37 -139q64 -43 64 -90.5t-33 -71.5q-27 -19 -60 -19q-7 0 -14 1q-73 9 -73 74.5t76 99.5q2 11 15.5 51t13.5 54t-3 23q-114 -70 -216 -201q-149 -193 -178 -427q120 35 171 35
q113 0 176 -125q-37 -72 -147.5 -72t-171.5 83q59 -193 317 -224q26 -3 41 -3q104 0 175 71q43 43 43 148q0 45 -8 102q-7 40 -7 65.5t19 30.5q3 1 5 1q42 0 42 -172q0 -46 -4 -85q-11 -104 -85.5 -160t-194.5 -56t-228 62t-152 180q-15 -7 -31.5 -67t-50.5 -95
q-57 -57 -179 -78q-15 33 -15 68q0 147 241 282q-1 15 -1 30q0 149 118 336t213 250q-203 -59 -435 -185q-114 -61 -352 -212q0 -1 20 -104.5t20 -172.5q0 -135 -73 -196q-111 70 -111 225q0 95 50 202l-243 -179q-4 -100 -95.5 -208t-188.5 -108q-46 0 -75 33t-29 80
q0 97 96 174t195 77q37 0 70 -12h1q14 0 100 67q90 69 125 90q-74 -30 -186.5 -30t-213.5 62q114 119 242 119q65 0 132.5 -25.5t138.5 -54.5q515 363 909 434q-25 41 -86 41z" />
    <glyph glyph-name="oe" unicode="&#x153;" horiz-adv-x="6" 
d="M-979 -617q0 36 41.5 36t179.5 -61q65 -29 132 -29t132 22t65 73q0 147 -208 167q-7 2 -23.5 2t-39.5 -3q-23 -2 -46 -8q-52 -12 -80 -13q-118 0 -118 99q0 81 127 81q33 1 111 -13q64 -11 99 -12q8 0 14 1q113 10 174 212h165q-31 -114 -57 -166.5t-92 -108.5
q132 -82 136 -227v-12q1 -107 -89 -165q-94 -62 -243.5 -62t-264.5 65.5t-115 121.5z" />
    <glyph glyph-name="endash" unicode="&#x2013;" horiz-adv-x="1146" 
d="M1018 704v-210h-900v210h900z" />
    <glyph glyph-name="emdash" unicode="&#x2014;" horiz-adv-x="1800" 
d="M1658 704v-210h-1540v210h1540z" />
    <glyph glyph-name="quotedblleft" unicode="&#x201c;" horiz-adv-x="1412" 
d="M730 1379q82 153 298 220l37 -79q-86 -53 -124.5 -100.5t-45.5 -131.5h20q79 0 118 -14q72 -26 79 -105q1 -9 1 -18q0 -67 -48 -107q-54 -46 -149.5 -46t-163.5 73q-62 66 -63 165q0 10 1 20q3 56 40 123zM140 1379q82 153 298 220l37 -79q-86 -53 -124.5 -100.5
t-45.5 -131.5h20q79 0 118 -14q72 -26 79 -105q1 -9 1 -18q0 -67 -48 -107q-54 -46 -149.5 -46t-163.5 73q-62 66 -63 165q0 10 1 20q3 56 40 123z" />
    <glyph glyph-name="quotedblright" unicode="&#x201d;" horiz-adv-x="1412" 
d="M722 1341q-4 -56 -47 -134.5t-147 -144.5q-57 -37 -144 -64l-37 79q85 53 123.5 100.5t46.5 131.5h-20q-79 0 -118 14q-72 26 -79 105q-1 9 -1 18q0 67 48 107q54 46 149.5 46t163.5 -73q62 -66 63 -165q0 -10 -1 -20zM1312 1341q-4 -56 -47 -134.5t-147 -144.5
q-57 -37 -144 -64l-37 79q85 53 123.5 100.5t46.5 131.5h-20q-79 0 -118 14q-72 26 -79 105q-1 9 -1 18q0 67 48 107q54 46 149.5 46t163.5 -73q62 -66 63 -165q0 -10 -1 -20z" />
    <glyph glyph-name="quoteleft" unicode="&#x2018;" horiz-adv-x="950" 
d="M218 1379q82 153 298 220l37 -79q-86 -53 -124.5 -100.5t-45.5 -131.5h20q79 0 118 -14q72 -26 79 -105q1 -9 1 -18q0 -67 -48 -107q-54 -46 -149.5 -46t-163.5 73q-62 66 -63 165q0 10 1 20q3 56 40 123z" />
    <glyph glyph-name="quoteright" unicode="&#x2019;" horiz-adv-x="950" 
d="M780 1341q-4 -56 -47 -134.5t-147 -144.5q-57 -37 -144 -64l-37 79q85 53 123.5 100.5t46.5 131.5h-20q-79 0 -118 14q-72 26 -79 105q-1 9 -1 18q0 67 48 107q54 46 149.5 46t163.5 -73q62 -66 63 -165q0 -10 -1 -20z" />
    <glyph glyph-name="ydieresis" unicode="&#xff;" horiz-adv-x="1740" 
d="M184 240q-59 0 -59 144q0 143 73 142h1q34 0 67 -49.5t33 -85.5q-12 -37 -82 -147q-20 -4 -33 -4zM1116 459v-166q-45 -72 -86.5 -72t-83.5 68q-12 19 -12 26t9 28t14 50t16 66h143zM1116 569h-137v15q0 56 -12 176h149v-191zM481 760v110h-436v-110h317q0 -98 -38 -248
q-8 25 -27 63q-45 68 -92 68q-96 0 -134 -124q-22 -69 -22 -164.5t36.5 -163.5t78.5 -68q72 0 102 36q7 8 58 105q27 -46 31.5 -124t7.5 -84.5t40.5 -6.5t40.5 2q0 118 -53 303q-10 38 -10 47q47 154 61 359h39zM1630 213q-67 -80 -98 -80q-12 0 -33 6q-72 21 -74 262h205
v359h53v110h-890v121q1 99 46 99h5q44 -6 44 -108q0 -16 -1 -34h71q0 267 -122 267q-54 0 -86.5 -57t-32.5 -130v-158h-58v-110h58v-709h76v709q44 1 67 1t25 -1q22 -38 22 -132q0 -30 -2 -64q-9 -146 -33 -208.5t-24 -64.5q0 -31 41 -84q59 -78 125 -78q30 0 62 19t40 47
v-144h80v709h348v-242h-145v60q0 57 -27.5 57t-57 -39.5t-36.5 -69.5q-6 -26 -6 -66v-11q1 -47 18 -48h51q0 -119 15.5 -193.5t72 -118.5t95.5 -44t90 78q22 32 22 58q0 29 -6 32zM1188 1038l-10 -88q0 -10 2 -16q34 10 45 70q8 42 8 77q0 16 -2 31q-10 111 -92 111
q-40 0 -64 -36q-24 -35 -30 -91q-1 -12 -1 -25q0 -41 16 -81q21 -50 42 -56v12q0 22 -5 58q-7 46 -7 67q0 74 49 74q36 0 47 -74q2 -13 2 -33zM1722 -23h-1718v1289h1718v-1289z" />
    <glyph glyph-name="currency" unicode="&#xa4;" horiz-adv-x="225" 
d="M-273 1083v230h539v-230h-539zM-278 1800q8 102 49 102q34 0 46 -98t62 -147.5t160 -49.5q196 0 226 210q9 85 43 85q40 0 48 -102q3 -31 2 -60q0 -65 -13 -120q-30 -101 -116 -150t-191.5 -49t-191.5 49q-127 72 -127 271q0 28 3 59z" />
    <glyph glyph-name="guilsinglleft" unicode="&#x2039;" horiz-adv-x="1220" 
d="M447 962q0 65 46 111t111 46t111 -46t46 -111t-46 -111t-111 -46t-111 46t-46 111zM447 234q0 65 46 111t111 46t111 -46t46 -111t-46 -111t-111 -46t-111 46t-46 111zM82 703h1046v-209h-1046v209z" />
    <glyph glyph-name="periodcentered" unicode="&#xb7;" horiz-adv-x="700" 
d="M330 712q53 0 91.5 -39t38.5 -95t-43 -90t-87 -34t-86 33t-42 91t37.5 96t90.5 38z" />
    <glyph glyph-name="periodcentered" unicode="&#x2219;" horiz-adv-x="700" 
d="M330 712q53 0 91.5 -39t38.5 -95t-43 -90t-87 -34t-86 33t-42 91t37.5 96t90.5 38z" />
    <glyph glyph-name="quotesinglbase" unicode="&#x201a;" horiz-adv-x="2656" 
d="M1322 983q143 305 143 472t-132.5 167t-132.5 -175t122 -464zM1322 18q143 -305 143 -472t-132.5 -167t-132.5 175t122 464zM1810 507q305 -143 472 -143t167 130q0 135 -174.5 135t-464.5 -122zM846 507q-305 -143 -472 -143t-167 130q0 135 174.5 135t464.5 -122z
M345 40l243 -47q-329 -171 -458 -725q362 170 370 174q208 116 303 266q37 -54 43 -200q184 31 283 192q70 114 126.5 386.5t72.5 321.5q16 -49 72.5 -321.5t126.5 -386.5q99 -161 283 -192q7 147 43 200q95 -150 303 -266q8 -4 370 -174q-129 554 -458 725l243 47
q-61 189 -226 284q-115 65 -367.5 111.5t-318.5 67.5q64 22 317.5 69t368.5 114q165 95 226 284l-243 47q329 171 458 725q-362 -170 -370 -174q-208 -116 -303 -266q-37 54 -43 200q-184 -31 -283 -192q-70 -114 -126.5 -386.5t-72.5 -321.5q-16 49 -72.5 321.5
t-126.5 386.5q-99 161 -283 192q-7 -147 -43 -200q-95 150 -303 266q-8 4 -370 174q129 -554 458 -725l-243 -47q61 -189 226 -284q115 -65 367.5 -111.5t318.5 -67.5q-64 -22 -317.5 -69t-368.5 -114q-165 -95 -226 -284z" />
    <glyph glyph-name="perthousand" unicode="&#x2030;" horiz-adv-x="2656" 
d="M2089 353l-87 9q-53 -19 -56 -21q-30 -15 -34 -42q81 -35 91 -35t19 3q28 0 49 21.5t21 39.5t-3 25zM2089 253q-91 -39 -122 -119q8 -18 37 -13.5t18 4.5q30 9 64 37t34 52.5t-31 38.5zM2098 562v-92q2 -56 37 -76q35 10 35 46.5t-19 85.5t-41 49q-9 0 -12 -13zM2173 203
q-74 -45 -74 -149q0 -14 1 -27q28 0 63 51t35 82.5t-25 42.5zM2207 238q67 0 73 75q-3 59 -74 59q-11 0 -21 -2q-35 -15 -50 -75q25 -57 72 -57zM2292 203q-18 12 -30 12q-26 0 -26 -52q0 -77 74 -122q20 38 20 86.5t-38 75.5zM2332 570q-40 0 -76 -48q-31 -43 -32 -81
q0 -5 1 -10q3 -22 55 -22q53 47 53 141q0 10 -1 20zM2480 428l-78 3q-29 -10 -58 -22q-34 -18 -34 -48q0 -10 2 -20q11 -15 41.5 -14.5t48.5 1.5q78 29 78 100zM2310 257q-4 -70 137 -70q49 0 72 13zM1918 -416q96 -70 118 -89q63 -55 74 -105q-79 41 -214 153
q29 -80 93 -151t127 -71q29 0 55 17q8 21 8 44q0 83 -88 146q-79 57 -156 57q-9 0 -17 -1zM918 1629q-70 -29 -70 -79q0 -15 9 -30q26 6 87 35t101 29q72 0 168 -71q-94 131 -221 131q-38 0 -74 -15zM1257 1416q-94 122 -198 122q-61 0 -108.5 -43t-47.5 -103q0 -14 3 -26
q83 94 190 94q74 0 161 -44zM1517 1537l71 -61q0 41 -39 92t-79 51q-16 0 -28 -11q60 -170 154 -205q3 23 -37.5 68t-41.5 66zM1642 1489l-9 89q0 33 18 57q14 -19 14 -54q-1 -7 -1 -15q-1 -14 -1 -25q0 -26 6 -40q38 30 38 84.5t-19.5 103t-56.5 50.5q-25 -68 -25 -144
t34 -134q2 13 2 28zM1732 1245q7 -21 43.5 -74.5t36.5 -73.5t-1 -29q-20 12 -54 79t-56 74q0 -141 150 -217q8 26 8 72.5t-29 108.5t-82 62q-7 0 -16 -2zM1961 1713q-111 -51 -193 -134.5t-82 -186.5q5 0 63.5 81.5t95.5 95.5q-13 -34 -54.5 -87.5t-55.5 -80.5
q169 90 226 312zM1750 1302q102 -97 221 -97q37 0 71 11q-37 90 -180 90q-19 0 -56 -2t-56 -2zM2092 1444l-165 -4q-134 -10 -152 -58q109 27 135 27t26 -4q0 -13 -142 -69q14 -1 30 -1q62 0 148 21q108 27 120 88zM2366 105l7 -77q0 -35 -26 -57h-3q-45 -1 -68 27
q-24 28 -62 75q-13 -8 -59 -67t-88 -59q-8 0 -16 2q-4 19 -0.5 63t3.5 58t-5 26q-10 -3 -55.5 -19t-73.5 -16q-3 13 -3 35t33.5 73t40.5 65q-57 16 -169 61q55 66 220 107q-76 46 -239 110.5t-196 81.5q8 -39 56 -128.5t48 -147.5t-69 -121q-125 63 -125 240q0 48 8.5 112.5
t8.5 70.5q-105 29 -582 120q-32 -13 -80 -37h6q91 0 154 -31q65 -32 174 -111q-30 -47 -104 -47t-170.5 43t-156.5 86q-207 -116 -307.5 -167t-223.5 -96q53 -8 164 -39t162 -37q35 15 69 30q43 25 43 62q0 10 -2 21q20 72 86 72q35 0 62.5 -29t27.5 -65q0 -77 -86 -77
l-60 2q-61 0 -86 -41q394 -71 909 -434q71 29 138.5 54.5t132.5 25.5q128 0 242 -119q-101 -62 -213.5 -62t-186.5 30q34 -21 124 -90q87 -67 101 -67h1q33 12 70 12q99 0 195 -77t96 -174q0 -47 -29 -80t-75 -33q-97 0 -188.5 108t-95.5 208l-242 179q49 -107 49 -202
q0 -155 -110 -225q-74 61 -74 196q0 69 18 162l22 115q-238 151 -352 212q-232 126 -435 185q95 -63 213.5 -250t118.5 -336q0 -15 -2 -30q241 -135 241 -282q0 -35 -15 -68q-121 21 -178 78q-35 35 -51.5 95t-31.5 67q-44 -118 -152 -180t-228 -62t-194.5 56t-85.5 160
q-4 39 -4 85q0 172 42 172q3 0 5 -1q19 -5 19 -30.5t-6.5 -67t-7.5 -61.5v-22q0 -122 42 -165q71 -71 175 -71q15 0 41 3q258 31 317 224q-61 -83 -171.5 -83t-147.5 72q63 125 176 125q51 0 172 -35q-30 234 -179 427q-102 131 -216 201q-2 -9 -2 -23t13 -54t15 -51
q76 -34 76 -99.5t-73 -74.5q-7 -1 -14 -1q-33 -1 -60 19q-33 24 -33 71.5t64 90.5q-15 61 -37 139q-302 73 -392 98q95 -64 127 -112.5t32 -151.5q0 -25 -1 -77q-213 13 -239 323l-42 -11v85l42 21q5 15 5 37.5t-15.5 79t-15.5 86.5q0 106 154 185q23 -116 23 -221t-51 -153
q11 2 63 24q53 87 102.5 221t67.5 226l-174 58q-138 64 -138 179q0 20 4 42q64 8 100 8q77 0 117 -45l114 -159q4 103 4 211t-10 203q-103 14 -192 85t-118 168q35 16 91 16t128 -39t117 -89q22 136 37 170q34 73 133 109q43 -46 43 -117.5t-56.5 -156t-124.5 -141.5v-352
q61 153 255 199q35 -31 35 -70q0 -77 -131 -176q-93 -70 -183 -108q-37 -174 -157 -423q142 76 428 224q-31 95 -31 170q0 128 91 213q84 -69 84 -155.5t-48 -186.5q40 23 136 75q325 177 333 367q1 12 0 24q0 167 -108 199q-51 15 -99 15t-93.5 -27t-45.5 -80v-26
q0 -17 38 -44q8 -2 15 -2l64 15q14 0 17 -17t-22 -26.5t-44 -9.5q-74 0 -118 81q-30 56 -41 88q-9 27 -9 76v19q-53 36 -53 96q0 33 17 58q49 72 158 72q202 0 316 -253q49 -109 49 -220t-61 -187l15 -1q113 101 283 260q-6 55 -71.5 121t-73.5 78q-46 67 -46 169q9 2 24 2
t57 -16t62.5 -16t36.5 9q0 78 46 165q42 -17 80 -89.5t62 -89.5q61 73 236 148q1 -7 1 -15q0 -97 -91 -268q19 -3 50 -3h48q111 0 165 -24q-12 -36 -86.5 -76t-74.5 -69q5 -21 47.5 -55.5t50.5 -65.5q-64 -21 -117.5 -21t-86.5 4q-7 -30 -11 -105.5t-24 -108.5
q-106 35 -157 113q-26 39 -45.5 110.5t-46.5 71.5q-285 -285 -602 -487q138 -14 535 -111q48 82 133.5 139t165 57t137.5 -40q-66 -168 -365 -189q163 -56 440 -185q-16 34 -16 92t33 127q36 -6 74 -62t57 -70q34 75 150 130q32 -20 32 -54t-11 -75l-15 -59q75 10 206 29v-8
q0 -40 -34 -83q-11 -14 -71 -82q13 -29 68.5 -73t68.5 -67q-15 -25 -122.5 -37.5t-115.5 -14.5q-4 -14 -4 -31z" />
    <glyph glyph-name="Iacute" unicode="&#xcd;" horiz-adv-x="20" 
d="M-536 -540q29 -131 136 -131q56 0 132 35q-25 -157 -160 -157q-104 0 -162 47q-35 28 -76 118t-57 102q-42 17 -84 35q-87 39 -95 123q-1 10 -1 18q0 73 52 130q59 64 141 64h293v115h154v-253h-407q-77 0 -77 -51q0 -58 73 -58h396v-137h-258z" />
    <glyph glyph-name="Icircumflex" unicode="&#xce;" horiz-adv-x="1310" 
d="M1087 0h-228v536h-210q-2 -221 -22 -291q-51 -164 -234 -164q-84 0 -178 47q-5 4 -157 93l44 214q231 -146 291 -146q24 0 29 29q1 6 1 77v369h436v319h-874v230l1356 -1v-230l-254 1v-1083z" />
    <glyph glyph-name="Idieresis" unicode="&#xcf;" horiz-adv-x="27" 
d="M-990 -444v5q0 29 20 83q22 59 41 109q8 41 8 72.5t-12 96.5h153q10 -58 10 -122q0 -69 -60 -226q52 -42 158 -76q25 0 25 39v193h248v211h153v-643h-153v295h-107v-72q0 -151 -147 -151q-131 0 -268 100q-52 36 -69 86z" />
    <glyph glyph-name="Oacute" unicode="&#xd3;" horiz-adv-x="2656" 
d="M1503 1288l-9 -87q19 -53 21 -56q16 -30 42 -34q35 81 35 91.5t-1 28.5t-22.5 39t-40 21t-25.5 -3zM1603 1288q39 -90 119 -122q18 8 13.5 37t-4.5 18q-9 30 -37 64.5t-52.5 34.5t-38.5 -32zM1294 1297h92q56 2 76 38q-9 34 -45.5 34t-86 -19t-49.5 -41q0 -9 13 -12z
M1653 1372q45 -74 150 -74q13 0 26 1q0 28 -51 63t-82.5 35t-42.5 -25zM1618 1406q0 67 -74 73q-60 -3 -60 -74q0 -11 2 -21q15 -35 75 -49q57 24 57 71zM1653 1491q-12 -18 -12 -30q0 -26 52 -26q77 0 122 74q-38 20 -86.5 20t-75.5 -38zM1286 1531q0 -41 48 -77
q43 -31 81 -31q5 0 10 1q22 3 22 55q-47 53 -141 53q-10 0 -20 -1zM1428 1679l-3 -78q10 -29 22 -58q18 -34 48 -34q10 0 20 2q15 11 14.5 41.5t-0.5 48.5q-30 78 -101 78zM1656 1718q-26 -20 -58 -70.5t-32 -87.5t33 -51h4q66 0 66 137q0 49 -13 72zM2272 1117
q70 96 89 118q55 63 105 74q-41 -79 -153 -214q80 29 151.5 93t71.5 127q0 29 -18 55q-21 8 -43 8q-84 0 -147 -88q-57 -79 -57 -156q0 -9 1 -17zM227 117q29 -70 80 -70q14 0 29 9q-6 26 -35 87t-29 101q0 72 71 168q-131 -94 -131 -221q0 -38 15 -74zM440 456
q-122 -94 -122 -198q0 -61 43 -108.5t103 -47.5q14 0 27 3q-95 83 -95 190q0 74 44 161zM319 716l61 71q-41 0 -92 -39t-51 -79q0 -16 11 -28q170 60 205 154h-3q-23 1 -65 -37q-45 -40 -66 -42zM368 841l-90 -9q-32 0 -57 18q19 14 54 14h15q14 -1 25 -2q26 0 40 6
q-30 38 -84.5 38t-102.5 -19.5t-51 -56.5q69 -25 145 -25t133 34q-13 2 -27 2zM611 931q21 7 74.5 43.5t74 36.5t28.5 -1q-12 -20 -79 -54t-74 -56q141 0 217 150q-25 8 -72 8t-109 -29t-62 -82q0 -7 2 -16zM143 1160q51 -111 134.5 -193t186.5 -82q0 5 -81.5 63.5
t-95.5 96.5q34 -14 87.5 -55.5t80.5 -55.5q-90 169 -312 226zM554 949q97 102 97 221q0 37 -11 71q-89 -37 -89 -180q0 -19 1.5 -56t1.5 -56zM412 1291l4 -165q10 -134 59 -152q-28 109 -28 135t4 26q13 0 70 -142q1 13 1 27q0 63 -22 151q-27 108 -88 120zM1751 1565l77 7
q36 0 57 -26q1 -47 -27.5 -71t-74.5 -62q8 -13 67.5 -59t59.5 -88q0 -7 -3 -16q-19 -4 -62.5 -0.5t-57.5 3.5t-27 -5q3 -10 19 -55.5t16 -73.5q-13 -3 -35 -3t-73 33.5t-65 40.5q-16 -57 -61 -169q-66 55 -107 220q-46 -76 -110.5 -239t-81.5 -196q40 8 129 56t147 48
t121 -69q-63 -125 -240 -125q-48 0 -112.5 8.5t-70.5 8.5q-28 -105 -119 -582q12 -32 36 -80v6q0 91 31 154q32 65 111 174q47 -30 47 -104t-43 -170.5t-86 -156.5q116 -207 167 -307.5t96 -223.5q8 53 39 164t37 162q-15 35 -30 69q-24 43 -62 43q-10 0 -21 -2
q-72 20 -72 86q0 35 29 62.5t65 27.5q77 0 77 -86l-2 -60q0 -61 41 -85q71 393 434 908q-29 72 -54.5 139t-25.5 132q0 128 119 242q62 -101 62 -213.5t-30 -186.5q21 36 90 125q67 86 67 100l-12 71q0 99 77 195t174 96q47 0 80 -29t33 -75q0 -97 -108 -188.5t-207 -94.5
l-180 -243q107 49 202 49q155 0 225 -110q-61 -74 -196 -74q-69 0 -162 18l-115 22q-151 -238 -212 -352q-126 -232 -185 -435q63 95 250 213.5t336 118.5q15 0 30 -2q135 241 283 241q34 0 67 -15q-20 -121 -78 -178q-35 -35 -95 -51.5t-67 -31.5q118 -44 180 -152t62 -228
t-56 -194.5t-160 -85.5q-39 -4 -85 -4q-172 0 -172 42q0 3 1 5q5 19 30.5 19t67 -6.5t61.5 -7.5h22q122 0 165 42q72 71 72 175q0 15 -4 41q-31 258 -224 317q83 -61 83 -171.5t-72 -147.5q-125 63 -125 176q0 51 36 172q-235 -30 -427 -179q-132 -102 -202 -216q9 -2 23 -2
t54 13t51 15q34 76 99.5 76t74.5 -73q1 -7 1 -14q1 -33 -19 -60q-24 -33 -71.5 -33t-90.5 64q-61 -15 -139 -37q-73 -302 -98 -392q64 95 112.5 127t151.5 32q25 0 77 -1q-13 -213 -323 -239l11 -42h-85l-21 42q-15 5 -37.5 5t-79 -15.5t-85.5 -15.5q-106 0 -186 154
q116 23 221 23t153 -51q-2 11 -24 63q-87 53 -221 102.5t-226 67.5l-58 -174q-64 -138 -178 -138q-21 0 -43 4q-8 64 -8 100q0 77 45 117l160 114q-104 5 -211.5 5t-203.5 -11q-14 -103 -85 -192t-168 -118q-16 35 -16 91t39 128t89 117q-136 22 -170 38q-73 33 -109 132
q46 43 117.5 43t156 -56.5t141.5 -124.5h352q-153 61 -199 255q31 35 70 35q78 0 176 -131q70 -93 108 -183q174 -37 423 -157q-76 142 -224 428q-95 -31 -170 -31q-128 0 -213 91q69 84 155.5 84t186.5 -48q-23 39 -75 135q-177 325 -367 334q-12 1 -24 0q-167 0 -199 -108
q-15 -51 -15 -99t27 -93.5t80 -45.5h28t42 38q2 8 2 15l-15 64q0 14 17 17t26.5 -22t9.5 -44q0 -74 -81 -118q-56 -30 -87 -41q-26 -9 -77 -9h-19q-36 -53 -96 -53q-33 0 -58 17q-72 49 -72 158q0 202 253 316q109 49 220.5 49t187.5 -61l1 15q-102 113 -260 283
q-56 -6 -122 -71.5t-77 -73.5q-68 -46 -170 -46q-2 9 -2 24t16 57t16 62.5t-9 36.5q-78 0 -165 46q17 42 89.5 80t89.5 62q-73 61 -148 236q8 1 16 1q98 0 268 -91q2 19 2 50v48q0 111 24 165q36 -12 76.5 -86.5t68.5 -74.5q21 5 55.5 47.5t65.5 50.5q21 -64 21 -117.5
t-4 -85.5q30 -8 105.5 -12t108.5 -24q-35 -106 -112 -157q-40 -26 -111 -45.5t-71 -46.5q284 -285 486 -602q14 138 111 536q-82 47 -139 132.5t-57 165t41 137.5q168 -66 188 -365q57 163 185 440q-34 -16 -92 -16t-127 33q6 36 62 74t70 57q-75 34 -130 151q20 31 54 31
t75 -11l59 -15q-10 75 -29 206h8q40 0 83 -34q14 -11 83 -70q28 12 72 67.5t67 68.5q25 -15 37.5 -122.5t14.5 -115.5q14 -4 31 -4z" />
    <glyph glyph-name="Ocircumflex" unicode="&#xd4;" horiz-adv-x="2656" 
d="M1536 1144l2 -60q0 -86 -77 -86q-36 0 -65 27.5t-29 62.5q0 66 72 86q11 -2 21 -2q38 0 62 43q15 34 30 69q-6 51 -37 162t-39 165q-45 -124 -96 -224.5t-167 -307.5q43 -60 86 -156.5t43 -170t-47 -103.5q-79 108 -111 173q-31 63 -31 154v6q-24 -48 -36 -80
q91 -477 119 -582q6 0 70.5 8.5t112.5 8.5q177 0 240 -125q-63 -69 -121 -69t-147 48t-129 56q17 -33 81.5 -196t110.5 -239q41 166 107 220q45 -112 61 -169q14 7 65 40.5t73 33.5t35 -3q0 -28 -13 -64l-22 -65q13 -5 27 -5t57.5 3.5t62.5 -0.5q3 -8 3 -16q0 -42 -59.5 -88
t-67.5 -58l69 -57q34 -30 33 -77q-21 -26 -57 -26l-77 8q-17 0 -31 -5q-2 -8 -14.5 -115.5t-37.5 -122.5q-23 13 -67 68.5t-72 68.5q-27 -25 -79 -67q-47 -39 -87 -38h-8q19 131 29 206q-108 -25 -124 -25q-44 0 -64 31q55 116 130 151q-14 18 -70 56t-62 74q69 33 127 33
t92 -16q-128 277 -185 440q-20 -299 -188 -365q-41 58 -41 137.5t57 165t139 133.5q-97 397 -111 535q-202 -317 -486 -602q0 -27 71 -46.5t111 -45.5q77 -50 112 -157q-33 -20 -108.5 -24t-105.5 -11q4 -32 4 -85.5t-21 -118.5q-31 8 -65.5 50.5t-55.5 47.5
q-28 0 -68.5 -74.5t-76.5 -86.5q-24 54 -24 165v48q0 31 -2 50q-169 -90 -267 -90q-9 0 -17 1q75 174 148 235q-17 24 -89.5 62t-89.5 80q87 46 165 46q9 16 9 36.5t-16 62.5t-16 57.5t2 23.5q102 0 170 -46q11 -8 94 -90q49 -49 105 -54q158 169 260 282l-1 15
q-76 -61 -186 -61t-218 47t-182.5 130.5t-74.5 190.5t72 155q25 18 58 18q60 0 96 -54h19q51 0 77 -9q31 -11 87 -41q81 -44 81 -118q0 -19 -9.5 -44t-26.5 -22t-17 17l15 64q0 7 -2 15q-27 38 -44 38h-26q-53 0 -80 -45.5t-27 -93.5t15 -99q32 -109 193 -109q11 0 23 1
q142 6 275 177q47 61 87 134l87 159q-100 -49 -186.5 -49t-155.5 84q85 91 213 91q75 0 170 -31q148 287 224 428q-249 -120 -423 -156q-38 -91 -108 -183q-98 -132 -176 -132q-39 0 -70 35q46 194 199 255h-352q-57 -68 -141.5 -124.5t-156 -56.5t-117.5 43q36 99 109 133
q34 15 170 37q-50 45 -89 117t-39 128t16 91q97 -29 168 -118t85 -192q96 -10 203.5 -10t211.5 4l-160 114q-45 41 -45 118q0 35 8 99q22 4 43 4q114 0 178 -138l58 -174q92 19 226 68.5t221 101.5q22 52 24 63q-48 -51 -153 -51t-221 23q80 154 186 154q29 0 85.5 -15.5
t79 -15.5t37.5 5l21 42h85l-11 -42q310 -26 323 -239q-52 -1 -77 -1q-103 0 -151.5 32t-112.5 127q25 -89 98 -392q78 -22 139 -37q43 65 90.5 65t71.5 -34q19 -28 19 -59q0 -7 -1 -14q-9 -74 -74.5 -74t-99.5 76q-11 2 -51 15.5t-54 13.5t-23 -3q70 -114 202 -216
q192 -149 427 -178q-36 120 -36 171q0 113 125 176q72 -37 72 -147.5t-83 -171.5q193 59 224 317q4 26 4 41q0 104 -72 175q-42 42 -161 42h-26q-20 -1 -61.5 -7.5t-67 -6.5t-30.5 19q-1 3 -1 5q0 43 172 43q46 0 85 -5q104 -11 160 -85.5t56 -194.5t-62 -228t-180 -152
q7 -15 67 -31.5t95 -50.5q58 -57 78 -179q-33 -15 -67 -15q-148 0 -283 241q-15 -1 -30 -1q-149 0 -336 118t-250 213q59 -203 185 -435q61 -114 212 -352q1 0 104.5 20t172.5 20q135 0 196 -73q-70 -111 -225 -111q-95 0 -202 50l180 -243q99 -4 207 -95.5t108 -188.5
q0 -46 -33 -75t-80 -29q-97 0 -174 96t-77 195l12 71q0 15 -67 101q-69 90 -90 124q30 -74 30 -186.5t-62 -212.5q-119 113 -119 241q0 65 25.5 132.5t54.5 138.5q-363 515 -434 909q-41 -25 -41 -86z" />
    <glyph glyph-name="Ograve" unicode="&#xd2;" horiz-adv-x="1345" 
d="M788 1313h228v-1334h-228v1334zM327 1313h228v-1334h-228v1334z" />
    <glyph glyph-name="Uacute" unicode="&#xda;" horiz-adv-x="642" 
d="M266 418.5q-36 -36.5 -36 -87.5t36 -87t87 -36t87 36t36 87t-36 87.5t-87 36.5t-87 -36.5zM81 331q0 113 80 192t192 79t192 -79t80 -192t-80 -192t-192 -79t-192 79t-80 192zM266 1124.5q-36 -36.5 -36 -87t36 -87t87 -36.5t87 36.5t36 87t-36 87t-87 36.5t-87 -36.5z
M81 1037q0 113 80 192.5t192 79.5t192 -79.5t80 -192.5t-80 -192t-192 -79t-192 79t-80 192z" />
    <glyph glyph-name="circumflex" unicode="&#x2c6;" horiz-adv-x="20" 
d="M-236 1642q53 0 93.5 -39.5q40.5 -38.5 40.5 -92.5t-40 -94t-94 -40t-93.5 40t-39.5 93t40 93t93 40z" />
    <glyph glyph-name="tilde" unicode="&#x2dc;" 
d="M-519 -44v-168q114 -13 198 -96q82 -88 82 -189q-4 -116 -65 -202q-73 -94 -196 -94h-5v148q61 21 83 52.5t22 93t-70 107.5t-136 46t-134 -43.5t-68 -107.5t21 -95.5t84 -52.5v-148h-11q-122 0 -188 89q-70 94 -70 205q0 109 82 191q84 84 199 96v168h172z" />
    <glyph glyph-name="zero" unicode="0" horiz-adv-x="1428" 
d="M414 935q-115 -115 -115 -278t115 -278t277 -115t277 115t115 278t-115 278t-277 115t-277 -115zM249.5 216.5q-182.5 182.5 -182.5 440.5t182.5 440.5t440.5 182.5t441 -182.5t183 -440.5t-183 -440.5t-441 -182.5t-440.5 182.5z" />
    <glyph glyph-name="one" unicode="1" horiz-adv-x="1291" 
d="M579 1190q-117 0 -194 -34q-100 -43 -100 -135v-7q2 -76 87 -117.5t174 -41.5t189 41q120 48 120 115q0 179 -276 179zM1125 109q27 -44 58 -91.5t31 -92.5q-42 -38 -77.5 -38t-86.5 33q-115 77 -169.5 230.5t-54.5 283t17 280.5q-184 -90 -310 -90q-200 0 -343 123
q-135 120 -135 273t132 261q170 139 389 139h24q234 -8 361 -124t127 -317q0 -53 -6.5 -150.5t-7.5 -136.5q-22 -59 -22 -251t73 -332z" />
    <glyph glyph-name="two" unicode="2" horiz-adv-x="1426" 
d="M798 289q256 -119 256 -195q0 -89 -95 -89q-60 0 -143.5 41.5t-149 76.5t-178.5 80q-33 6 -100 6q-14 -1 -31 -1h-23q-74 0 -116 9q-172 38 -172 162q0 61 47.5 104t114.5 43t173.5 -33.5t162.5 -33.5q178 0 322 89q188 119 188 305v8q-6 289 -406 289q-148 0 -321 -40
q-68 -23 -133 -23q-137 0 -137 109q0 101 244 152q163 34 324 34q288 0 473.5 -132.5t185.5 -385t-140 -392.5q-110 -111 -346 -183z" />
    <glyph glyph-name="three" unicode="3" horiz-adv-x="1415" 
d="M1141 785q14 -9 41 -30q72 -92 72 -200t-84.5 -203t-210.5 -132q224 -74 224 -142q0 -3 -1 -7q-6 -43 -40.5 -65.5t-83.5 -22.5t-221.5 60t-313.5 109q-115 20 -292 51q-94 18 -144 67t-50 105.5t49 98t135.5 41.5t220.5 -79t233 -79t226 67t127 135q0 139 -200 139
q5 0 5 -1q0 -3 -177 -24q-207 -25 -298.5 -25t-151 37.5t-59.5 93t76.5 99.5t215.5 44q60 0 178 -14.5t203.5 -14.5t159 34t73.5 81q0 64 -141 107.5t-253 43.5t-286 -25t-204 -25q-129 0 -129 102q0 62 160.5 115.5t415 53.5t433.5 -77q229 -100 229 -285q0 -140 -137 -233
z" />
    <glyph glyph-name="four" unicode="4" horiz-adv-x="1324" 
d="M326 351q0 -136 295 -136q164 -1 225 33t61 103q0 107 -95 141q-56 19 -198 19t-196 -19q-92 -34 -92 -141zM96 351q0 117 71 201q34 38 71 74q0 9 -46 53t-86 85q-60 85 -60 195q0 325 458 422v-230q-228 -63 -228 -201q0 -211 341 -211t341 211q0 138 -228 201v230
q458 -97 458 -422q0 -110 -60 -195q-40 -41 -86 -85t-46 -53q37 -36 71 -74q70 -84 70 -201q0 -181 -172 -279q-145 -85 -351 -85t-349 85q-169 98 -169 279z" />
    <glyph glyph-name="five" unicode="5" horiz-adv-x="1303" 
d="M1152 0h-228v284q-179 -89 -351 -89t-357 117q-111 71 -158 158q4 70 85 252t81 232q0 129 -121 129h-84v230h136q125 0 212 -113t87 -228t-152 -456q148 -104 290 -104t332 114v787h228v-1313z" />
    <glyph glyph-name="six" unicode="6" horiz-adv-x="1170" 
d="M763 489l-253 18q-111 0 -161 -23q-77 -37 -77 -136q0 -116 180 -116h449q74 0 113 -38t39 -88q0 -85 -70 -102q-17 -4 -82 -4h-452q-186 0 -295.5 95t-109.5 268q0 99 61 182l64 80q0 3 -60.5 88t-60.5 224q0 179 152 268q123 72 304 72q44 0 86 -5q-56 87 -56 186.5
t94 174.5t254 76h6q78 0 154 -27q101 -35 101 -96q0 -79 -99 -79l-157 16q-120 0 -120 -76q0 -68 83 -160q4 -4 97.5 -68t93.5 -114q0 -103 -145 -103q-31 0 -174 21.5t-221 21.5t-144 -30q-83 -37 -83 -105q0 -175 234 -175q43 0 128 17.5t142 17.5t144 -34.5t95 -91.5
q1 -6 1 -12q0 -70 -90 -110q-75 -33 -165 -33z" />
    <glyph glyph-name="seven" unicode="7" horiz-adv-x="1398" 
d="M475 98q-71 -22 -274 -88q-44 -14 -81 -14q-102 0 -102 64.5t104 104.5q684 256 862 456q42 47 71.5 124t29.5 139q0 123 -102 197t-219 74t-186 -35.5t-86 -66.5q-18 -43 -35 -86q-36 -83 -126 -83q-52 0 -88 37.5t-36 104.5q0 152 196 261q166 93 325 93h19
q299 -8 451 -194q116 -142 116 -317q0 -53 -11 -109q-46 -240 -268 -384t-560 -278z" />
    <glyph glyph-name="eight" unicode="8" horiz-adv-x="1472" 
d="M441 923q-2 -41 -2 -61q1 -288 161 -461t489 -173q139 0 171 -7q103 -22 103 -113q0 -36 -71 -72t-203 -36q-386 0 -627 219.5t-247 564.5q0 41 -1 140q-88 3 -126 19q-63 24 -63 96q0 99 98 195t208 96t110 -98v-76h924v-230h-924v-3z" />
    <glyph glyph-name="nine" unicode="9" horiz-adv-x="1497" 
d="M1293 1010q0 -89 -129 -90h-726q-3 -44 -3 -78q-1 -290 177 -452q175 -160 475 -160q136 0 170 -7q104 -24 104 -113q0 -68 -165 -100q-50 -10 -109 -10q-407 0 -643 230q-237 232 -237 630v28q0 15 1 32h-72q-109 0 -109 114q0 188 180 265q69 30 119 30q115 0 115 -99
v-81h427q-67 95 -67 175.5t23.5 133t66.5 88.5q89 76 239 76q102 0 162 -28t83 -51.5t23 -50.5q0 -53 -68 -53l-154 13q-75 0 -111.5 -28t-36.5 -69t18.5 -81.5q18.5 -39.5 48.5 -75.5q64 -76 150 -101q48 -38 48 -87z" />
    <glyph glyph-name="copyright" unicode="&#xa9;" horiz-adv-x="1664" 
d="M204 714q0 -168 84 -313.5t230 -230t314 -84.5t313.5 84t230 230t84.5 314t-84 313.5t-230 230t-314 84.5t-313.5 -84t-230 -230t-84.5 -314zM193 352q-95 169 -95 363t97.5 365t268.5 269.5t367 98.5t367 -97.5t269.5 -268.5t98.5 -365.5t-94.5 -363.5t-265.5 -271
t-373.5 -102t-373.5 101.5t-266 270.5zM1080 314q-109 -48 -218 -48q-188 0 -291 117t-103 326t108.5 330t293.5 121q127 0 246 -60l-58 -122q-104 52 -186 52q-116 0 -182 -83.5t-66 -234.5t57 -233.5t189 -82.5q93 0 210 46v-128z" />
    <glyph glyph-name="Ntilde" unicode="&#xd1;" horiz-adv-x="13" 
d="M-437 1492q-9 29 -23 59q-27 22 -217 22h-33h-26q-66 0 -202 7q-76 10 -122 88.5q-46 79.5 -50 159.5q-1 14 0 26q0 62 14 104q9 40 22 40q57 0 92 -140q14 -50 51 -61q15 -7 77 -7q110 0 315 -4q138 -12 190 -79q28 -39 43 -193q3 -32 3 -60q0 -67 -36 -71h-6
q-51 0 -92 109zM-767.5 1441.5q-18.5 18.5 -18.5 45t18.5 45t45 18.5t45.5 -18.5t19 -45t-19 -45t-45.5 -18.5t-45 18.5z" />
    <glyph glyph-name="uni202F" unicode="&#x202f;" horiz-adv-x="2048" 
 />
  </font>
</defs>
</svg>
