<?xml version="1.0" standalone="no"?>
<!DOCTYPE svg PUBLIC "-//W3C//DTD SVG 1.1//EN" "http://www.w3.org/Graphics/SVG/1.1/DTD/svg11.dtd" >
<svg xmlns="http://www.w3.org/2000/svg" xmlns:xlink="http://www.w3.org/1999/xlink" version="1.1">
<metadata>
Created by FontForge 20161004 at Wed Jun 14 15:40:04 2017
 By Sarabveer
Copyright (C) 2016-2017 Sarabveer Singh (sarabveer.me); Copyright (C) 2004 PunjabiOnline.  All Rights Reserved.
</metadata>
<defs>
<font id="AnmolUniBaniTrue-Regular" horiz-adv-x="11" >
  <font-face 
    font-family="AnmolUniBaniTrue"
    font-weight="400"
    font-stretch="normal"
    units-per-em="2048"
    panose-1="2 0 5 0 0 0 0 2 0 4"
    ascent="1638"
    descent="-410"
    bbox="-1776 -957 3109 2018.01"
    underline-thickness="64"
    underline-position="-702"
    unicode-range="U+0020-F051"
  />
<missing-glyph horiz-adv-x="1024" 
d="M822 1864h-548v-1727h548v1727zM959 2001v-2001h-822v2001h822z" />
    <glyph glyph-name=".notdef" horiz-adv-x="1024" 
d="M822 1864h-548v-1727h548v1727zM959 2001v-2001h-822v2001h822z" />
    <glyph glyph-name="space" unicode=" " horiz-adv-x="605" 
 />
    <glyph glyph-name="Ocircumflex" unicode="&#xf034;" horiz-adv-x="231" 
d="M-1699 1629q4 -28 34 -96.5t30 -77t-12 -8.5t-56 50q-73 82 -73 166q0 82 60 156q69 88 226 88q160 0 226 -88q59 -75 59 -156q0 -63 -22.5 -99t-57.5 -76.5t-47.5 -40.5t-12.5 8.5t29.5 77t33.5 96.5q1 7 1 14q0 73 -60 117q-65 50 -148.5 50t-149.5 -50
q-60 -46 -60 -118v-13zM-27 1179v134h280v-134h-280z" />
    <glyph glyph-name="perthousand" unicode="&#xf035;" horiz-adv-x="2105" 
d="M286 784q-76 0 -135 -34q-58 -34 -58 -100q-1 -69 57 -108q56 -38 117 -38t123 31q82 41 82 106q0 143 -186 143zM853 371q70 -308 291 -308h7q65 1 117 39q48 35 48 94v10q-4 66 -70 122q-58 50 -109 50h-11q-56 -6 -273 -7zM831 702v-124q2 -38 6 -138q50 -1 93 -1
q193 0 233 15q84 31 134 90t88 158h-554zM549 594v-12q1 -56 -7 -150q-8 -106 -9 -157q0 -212 79 -309q0 -9 -4 -11q-15 0 -39 17q-91 71 -113 267q-2 21 -2 50q0 81 18 224q-131 -77 -217 -77t-156.5 62t-70.5 142q0 110 78 165q71 50 173 50h19q248 -9 251 -261zM1241 413
q140 -82 140 -208q1 -99 -63 -157q-62 -57 -164 -57q-345 0 -394 483q-6 64 -6 127q0 51 4 101h-77v72h75q36 185 115.5 282.5t246.5 112.5q20 2 59 2q53 0 141 -4q205 290 417 562.5t505.5 272.5t410.5 -251q51 -107 53 -213q0 -6 1 -12q0 -95 -24 -95q-14 0 -31.5 64.5
t-49.5 172.5q-115 262 -349 262q-131 0 -264.5 -82t-219.5 -198l-410 -555q-114 0 -244 -3q-219 -3 -280 -318h703v-72h-83q-51 -186 -212 -289z" />
    <glyph glyph-name="OE" unicode="&#xf036;" horiz-adv-x="2346" 
d="M1667 -183q-13 0 -58 -6t-395 -6q38 -144 99 -246q145 -240 382 -240h14q110 3 185 59q69 52 69 140q0 8 -1 18q-7 102 -109 191.5t-186 89.5zM2058 366h-881q0 -263 17 -429h237q205 2 271 26q143 50 216.5 137.5t139.5 265.5zM157 337q5 -104 70.5 -160t162.5 -56
t189 46q124 62 124 177q0 217 -274 217q-272 0 -272 -216v-8zM842 306q0 -91 -12 -297q-23 -275 -23 -285q0 -206 65 -366l79 -144q5 -8 5 -13q0 -14 -28 -14t-67 29q-158 116 -194 447q-6 39 -6 124.5t31 304.5q-146 -99 -301.5 -99t-260.5 93.5t-105 242.5q0 364 397 364
q15 0 30 -1q233 -6 324 -125q66 -85 66 -261zM2358 579q-457 360 -717 360q-194 0 -332 -165q-110 -129 -132 -274h1096v-134h-84q-59 -182 -132.5 -289.5t-222.5 -187.5q261 -143 261 -358q0 -141 -86 -234q-99 -110 -291 -110q-316 0 -490 248q-141 203 -172 544
q-11 127 -11 325v62h-96v134h96q13 240 185.5 404.5t410.5 164.5q95 0 204 -31.5t361 -193.5q53 -40 154 -129z" />
    <glyph glyph-name="quotesinglbase" unicode="&#xf037;" horiz-adv-x="2048" 
d="M2777 1109l2 -145v-70q-7 -40 -48 -42h-3q-64 0 -77 88q-8 58 -8 167q0 322 -225 546.5t-547 224.5q-444 0 -884 -557l-468 -590q-171 -212 -339 -212q-72 0 -184 74q-11 9 -11 10q-2 71 -2 138q119 -88 195 -88h2q107 1 269 201q158 203 410 517q243 293 431 434
q275 206 581 206q376 0 641 -263.5t265 -638.5z" />
    <glyph glyph-name="uniF03D" unicode="&#xf03d;" horiz-adv-x="226" 
d="M-27 1179v134h280v-134h-280zM-1330 1753q29 0 55 -11.5t45 -29.5q40 -39 40 -83.5t-11 -70t-30.5 -44.5t-44.5 -30.5t-54 -11.5t-54.5 11t-43.5 30q-42 43 -42 85.5t11.5 68.5t30 44.5t44 30t54.5 11.5z" />
    <glyph glyph-name="uniF040" unicode="&#xf040;" horiz-adv-x="226" 
d="M-482 -239q94 -83 107 -91q15 -15 139 -40q91 -47 91 -125q0 -8 -1 -17q-3 -59 -31 -59q-3 0 -5 1q-216 37 -391 296q-75 106 -109 194h56q48 -80 144 -159zM-86 -614v-106q-178 -77 -314 -77t-304 77v106q178 -78 312 -78t288 71zM-27 1179v134h280v-134h-280z" />
    <glyph glyph-name="uniF041" unicode="&#xf041;" horiz-adv-x="226" 
d="M-482 -239q94 -83 107 -91q15 -15 139 -40q91 -47 91 -125q0 -8 -1 -17q-3 -59 -31 -59q-3 0 -5 1q-216 37 -391 296q-75 106 -109 194h56q48 -80 144 -159zM-86 -581v-96q-178 -77 -314 -77t-304 77v96q178 -78 312 -78t288 71zM-86 -771v-96q-178 -77 -314 -77t-304 77
v96q178 -78 312 -78t288 71zM-27 1179v134h280v-134h-280z" />
    <glyph glyph-name="uniF02B" unicode="&#xf02b;" horiz-adv-x="187" 
d="M-312 1472h-1q-23 0 -53 87q-30 89 -35 97q-32 31 -117 31h-23q-34 0 -105 -1h-19q-71 0 -203 6q-54 8 -90 81q-23 61 -24 104q1 127 10 127q30 0 48 -92q4 -20 11 -49q16 -27 53 -48q11 -7 96 -11h98q28 0 72 -1.5t104 -3.5q113 -7 152 -68q20 -30 28.5 -109t8.5 -113.5
t-11 -36.5zM-311 -311q-206 -78 -376 -82h-15q-164 0 -359 82v133q206 -83 382 -83t368 81v-131zM-27 1179v134h280v-134h-280z" />
    <glyph glyph-name="uniF02C" unicode="&#xf02c;" horiz-adv-x="187" 
d="M-311 -311q-206 -78 -376 -82h-15q-164 0 -359 82v133q206 -83 382 -83t368 81v-131zM-27 1179v134h280v-134h-280z" />
    <glyph glyph-name="uniF02D" unicode="&#xf02d;" horiz-adv-x="600" 
d="M209 513h-131v666h-105v134h560v-134h-324v-666z" />
    <glyph glyph-name="uniF042" unicode="&#xf042;" horiz-adv-x="223" 
d="M-27 1179v134h280v-134h-280z" />
    <glyph glyph-name="uniF043" unicode="&#xf043;" horiz-adv-x="226" 
d="M156 -363h-115q0 -99 -10 -156q-23 -125 -113 -125q-49 0 -172 53q-47 21 -100 70q-64 53 -64 90q-1 3 -1 8q0 25 26 103q31 92 37 128t6 88t-14 89h139q11 -46 11 -106q0 -40 -5 -87q-1 -24 -35 -107q-27 -67 -28 -87q0 -5 2 -7l-1 -1q0 -9 52 -48q57 -43 92 -43
q53 0 53 76v186h248zM217 -676v-106q-178 -77 -314 -77t-304 77v106q178 -78 312 -78t288 71zM-27 1179v134h280v-134h-280z" />
    <glyph glyph-name="uniF044" unicode="&#xf044;" horiz-adv-x="226" 
d="M156 -363h-115q0 -99 -10 -156q-23 -125 -113 -125q-49 0 -172 53q-47 21 -100 70q-64 53 -64 90q-1 3 -1 8q0 25 26 103q31 92 37 128t6 88t-14 89h139q11 -46 11 -106q0 -40 -5 -87q-1 -24 -35 -107q-27 -67 -28 -87q0 -5 2 -7l-1 -1q0 -9 52 -48q57 -43 92 -43
q53 0 53 76v186h248zM199 -579v-96q-178 -77 -314 -77t-304 77v96q178 -78 312 -78t288 71zM199 -769v-96q-178 -77 -314 -77t-304 77v96q178 -78 312 -78t288 71zM-27 1179v134h280v-134h-280z" />
    <glyph glyph-name="uni25CC" unicode="&#x25cc;" horiz-adv-x="1410" 
d="M885 1155q-56 21 -109 29v120q89 -10 169 -47zM1077 1009q-38 46 -81 80l60 104q77 -59 125 -124zM1172 789q-10 58 -30 109l103 61q36 -77 48 -170h-121zM535 290q58 -24 112 -29v-119q-92 10 -172 45zM776 262q59 8 111 30l60 -104q-76 -33 -171 -46v120zM647 1184
q-61 -8 -110 -28l-61 104q83 35 171 45v-121zM129 789q10 91 45 171l104 -60q-21 -54 -29 -111h-120zM425 1091q-45 -35 -82 -80l-104 60q53 74 126 125zM341 437q38 -49 82 -84l-59 -103q-73 54 -126 127zM997 356q46 36 82 82l104 -60q-50 -71 -125 -125zM1142 550
q20 52 30 110h121q-12 -93 -45 -171zM249 660q8 -60 29 -112l-105 -60q-35 80 -45 172h121z" />
    <glyph glyph-name="uni2740" unicode="&#x2741;" horiz-adv-x="2977" 
d="M1370 854q55 -55 79.5 -55t106.5 38q-1 -6 44 -57.5t45 -93t-65 -84.5q-7 0 -26.5 67.5t-35.5 67.5h-24q-178 0 -178 -115q0 -41 27 -74q41 -46 86 -46t70 23q74 5 110 72t62 67q13 0 30 -6l-30 -77q-26 -62 -26 -94.5t18 -46.5l-83 -8q-58 -10 -60 -42q-25 20 -57.5 20
t-111.5 -58q1 18 1 33q0 92 -31 92q-8 0 -45.5 -24.5t-52.5 -20.5q20 63 20 94.5t-24 52.5q-10 5 -54 39q72 41 79.5 53t14.5 92q32 -8 47 -8q29 0 44 37q9 33 20 62zM1122 444q-105 -13 -235.5 -88t-160.5 -165q-1 -6 -123 -334q-48 -134 -48 -260q0 -18 1 -37
q70 -14 147 -14q271 0 489 180q42 34 124 100q172 144 172 425v19q-52 -81 -195 -81q-58 0 -109 13q-42 -51 -82.5 -147.5t-89.5 -171.5t-66 -93q-48 -52 -135 -73q16 39 96.5 119.5t103 148.5t56 128.5t70.5 133.5q-19 41 -19 97t4 100zM1722 211l-81 -7q-49 0 -109 12
q43 -439 359 -563q101 -40 260 -54l281 -20q-13 45 -59 326q-19 117 -132 284q-167 239 -396 260l8 -82q-50 -67 -50 -106q0 -71 186 -228q213 -184 264 -271q-280 161 -372 287q-117 162 -159 162zM1516 997q-47 34 -89.5 34t-62.5 -4q-65 -19 -92 -98q-29 -98 -40 -112
q-25 -31 -97 -45q-97 -19 -97 -102q0 -46 69.5 -107.5q68.5 -61.5 72.5 -87.5q1 -4 1 -9q0 -26 -16 -64t-16 -58q0 -4 1 -7q23 -110 166 -110q66 0 111 43.5t73 43.5t60 -37t85 -37q102 0 141 82q19 46 19 90t-29 62q-60 36 -60 63q0 18 63 68t63 90q0 12 -3 24
q-18 81 -134 107.5t-129 81.5t-60 89zM1186 872q-103 143 -291.5 218.5t-382.5 75.5q-245 0 -355 -110q48 -213 302.5 -408.5t473.5 -195.5q98 0 168 43l-66 75q-42 52 -42 91q0 13 4 22q-113 30 -238 117t-244.5 109.5t-161.5 42.5q67 25 152.5 25t208.5 -64
q105 -70 297 -176q13 40 89.5 72t85.5 63zM2720 1133q-24 -2 -65 -2t-157.5 27.5t-172.5 28.5h-34q-440 0 -607 -304q97 -11 191 -104h8q124 0 258 91q38 26 232 169q109 27 142.5 27t56.5 -21q-97 -18 -221 -114l-206 -152q-103 -62 -207 -62q-17 0 -37 2q0 -67 -118 -185
q125 -66 231 -66t214 52q49 23 174 100q330 204 330 431q0 41 -12 82zM1468 1470l-23 -304q0 -47 4 -87q100 -25 198 -179l89 179q24 82 24 164q0 304 -344 653q-327 -193 -327 -643q0 -83 12 -163q13 -42 52.5 -99.5t67.5 -63.5q0 67 59 110q34 24 102 70q-5 26 -5 70
t16 144.5t26 171.5l4 31q-35 92 -35 116t16 41q64 -84 64 -211zM2261 1547l-20 -261q0 -36 4 -65q47 17 101 17t171.5 -29t167 -29t90.5 7q7 -80 7 -121q0 -198 -192 -373q-26 -23 -135 -125q116 -20 234 -152q59 -67 190 -218q-84 -65 -211.5 -79t-312.5 -30
q53 -84 84.5 -282.5t54.5 -266.5q-24 -1 -50 -1q-144 0 -332 24q-222 28 -295 73q-35 -14 -55 -96t-40 -105l-223 -281q-49 15 -89 66t-97 122q-25 50 -52 161t-50 157q-172 -114 -375 -146q-70 -10 -319 -15q-9 45 -9 93q0 100 112 405q-29 -3 -57 -3q-101 0 -259 60.5
t-201 69.5q42 140 156 264.5t245 152.5q-291 201 -416 504q80 119 240 152q78 15 252 15h42q-41 104 -41 210t14 242q25 2 46 2q103 0 227 -55q45 -22 195 -107q110 346 360 453q89 -67 204 -225.5t139 -227.5q69 57 232 113t221 90q42 -61 42 -160z" />
    <glyph glyph-name="uni2741" unicode="&#x2742;" horiz-adv-x="2979" 
d="M1577 607q-34 34 -80.5 34t-80 -34t-33.5 -80.5t34 -79t79.5 -32.5t80 32.5t34.5 79t-34 80.5zM1765 724q39 167 134.5 331.5t345.5 324.5v17q0 79 -42 148q-74 120 -186 120q-139 0 -248 -188q-84 -142 -84 -509q0 -82 6 -170q33 -29 74 -74zM1825 562
q104 116 249 199.5t277 108.5q51 9 222 21q49 67 49 150t-36 138q-57 96 -163 96t-216 -62q-172 -99 -411 -547q14 -27 29 -104zM1801 393q156 44 353 44t454 -131q85 39 122 110t37 127q0 121 -94.5 171.5t-220.5 50.5q-196 0 -627 -269q-3 -44 -24 -103zM1694 258
q155 -35 296 -115.5t232 -187.5q43 -47 127 -176q13 -1 26 -1q72 0 138 42q120 75 120 186q0 141 -186 250q-145 83 -513 83q-81 0 -169 -5q-28 -36 -71 -76zM1528 197q117 -99 203.5 -251.5t104 -245t25.5 -249.5q68 -45 149.5 -45t137.5 32q96 56 96 162.5t-63 216.5
q-96 171 -547 410q-28 -14 -106 -30zM1363 224q46 -148 46 -294q0 -28 -2 -53v-27q0 -124 -42 -235q-9 -26 -91 -200q73 -157 245 -157q214 0 214 312q0 197 -268 627q-44 5 -102 27zM1226 332q-32 -156 -115 -300.5t-188 -231.5q-56 -48 -175 -124q-1 -12 -1 -23
q0 -76 41 -143q73 -119 187 -119q139 0 249 188q84 141 84 536q0 67 -2 143q-39 27 -80 74zM1167 492q-108 -117 -280 -215q-119 -70 -216.5 -87.5t-249.5 -25.5q-49 -69 -49 -150.5t33 -136.5q58 -96 166 -96t215 60q168 94 410 549q-15 29 -29 102zM1190 663
q-151 -50 -354 -50t-453 137q-84 -39 -121.5 -110t-37.5 -136q0 -114 98 -164.5t217 -50.5q196 0 628 269q4 46 23 105zM1299 798q-198 45 -376 161q-86 61 -154 138q-36 44 -127 180q-10 1 -20 1q-76 0 -144 -42q-118 -72 -118 -189q0 -139 186 -247q142 -83 537 -83
q68 0 143 3q26 36 73 78zM1463 859q-115 102 -200 248.5t-105 252.5t-28 244q-68 47 -148 47t-136 -34q-98 -58 -98 -163.5t62 -214.5q99 -171 547 -410q36 14 106 30zM1631 832q-47 141 -47 314t45 295q15 44 88 200q-72 157 -245 157q-112 0 -163 -94.5t-51 -218.5
q0 -199 268 -626q15 -3 105 -27zM1778 1671q148 56 228 56t146 -38q150 -87 159 -309q127 -26 184 -50q182 -78 182 -273q0 -104 -50 -203q199 -168 199 -324.5t-184 -283.5q54 -156 54 -233.5t-38 -141.5q-90 -151 -302 -161q-51 -164 -56 -180q-46 -102 -131 -149
q-60 -36 -152.5 -36t-191.5 48q-89 -102 -131 -135q-86 -62 -180 -62t-178 55q-76 56 -121 134q-148 -56 -229 -56t-147 38q-150 87 -159 312q-133 24 -183 44q-100 43 -149 133q-32 55 -32 156.5t48 189.5q-93 79 -132 130q-67 89 -67 190q0 164 187 286q-56 158 -56 229
q0 140 105.5 222.5t247.5 82.5q19 120 46 184q79 185 269 185q103 0 203 -52q89 104 132 133q87 68 178.5 68t178.5 -56q78 -58 122 -133z" />
    <glyph glyph-name="uni262C" unicode="&#x262c;" horiz-adv-x="2316" 
d="M1355 1520q-105 -342 -111 -591v-16q0 -200 97 -464q192 51 313 197q128 150 128 342t-124 338q-121 145 -303 194zM1374 362q9 -31 52 -123q-96 -40 -137 -75.5t-80 -71.5v-217q698 380 818 736q77 225 77 348.5t-59 236.5q-43 81 -176 251q188 -72 285 -246
q90 -156 90 -369q0 -216 -86 -424q-38 -92 -81.5 -151t-102 -135.5t-151 -199.5t-105.5 -240l-250 230q-94 -19 -224 -115q104 -41 198 -102q129 -82 129 -170q0 -31 -23.5 -54t-54.5 -23q-69 0 -69 69q0 33 27 69q-71 68 -126.5 90.5t-119.5 47.5v-255q60 -54 60 -85.5
t-9 -52q-8 -20.5 -24 -35.5q-33 -32 -80.5 -32t-75.5 31.5t-28 75.5t58 98v255q-52 -19 -142 -59l-103 -79q26 -38 26 -69q0 -69 -67 -69q-31 0 -55.5 23t-24.5 54q0 88 130 170q86 54 197 102q-111 85 -224 115l-249 -230q-13 123 -114 251q-76 96 -235 310
q-137 191 -171 480q-6 55 -7 135q0 183 95 350t281 239q-127 -163 -176 -251q-58 -113 -58 -237.5t76 -347.5q122 -357 817 -736v217q-29 29 -120 101q-32 19 -97 46q19 38 48 123q-213 59 -351.5 233.5t-138.5 393t138 391.5q130 169 346 232q-26 71 -32 84
q148 109 192 167q13 17 29.5 44.5t28 45t16.5 25.5q29 -59 88 -144q81 -74 169 -138q-14 -25 -33 -84q217 -63 351 -230q140 -169 140 -391.5t-141.5 -396t-360.5 -232.5zM968 449q100 274 100 490q0 7 -1 15q-3 221 -109 566q-183 -48 -301 -195.5t-118 -333.5
q0 -199 119.5 -344t309.5 -198z" />
    <glyph glyph-name="uni20A8" unicode="&#x20a8;" horiz-adv-x="1706" 
d="M1556 903q-121 68 -203.5 68t-121.5 -36.5t-39 -96t36.5 -100.5t146 -102.5t156.5 -106.5q93 -89 93 -236t-90.5 -230t-261 -83t-264.5 65v166q53 -37 129 -61.5t133 -24.5q180 0 180 162q0 61 -35.5 102t-145 103t-156.5 107q-93 89 -93 224.5t89 215t237 79.5
q141 0 276 -78zM344 760h135q135 0 192.5 70t57.5 210.5t-62 203.5t-192 63h-131v-547zM909 1047q0 -291 -217 -392l289 -655h-195l-256 604h-186v-604h-174v1462h299q224 0 332 -103.5t108 -311.5z" />
    <glyph glyph-name="Euro" unicode="&#x20ac;" horiz-adv-x="1171" 
d="M778 1323q-312 0 -387 -391h500v-133h-514l-2 -56v-62l2 -44h452v-133h-436q35 -174 134.5 -269.5t259.5 -95.5t313 66v-160q-146 -65 -316 -65q-236 0 -381.5 133.5t-191.5 390.5h-164v133h148l-2 42v42l2 78h-148v133h162q40 264 188 406.5t367 142.5t381 -95l-76 -147
q-162 84 -291 84z" />
    <glyph glyph-name="exclam" unicode="!" horiz-adv-x="551" 
d="M147 111q0 66 32.5 101.5t94.5 35.5t94.5 -36.5t32.5 -100.5t-33.5 -102t-93.5 -38t-93.5 37t-33.5 103zM334 412h-117l-51 1050h219z" />
    <glyph glyph-name="quotedbl" unicode="&#x22;" horiz-adv-x="836" 
d="M702 1462l-40 -528h-113l-41 528h194zM328 1462l-41 -528h-113l-41 528h195z" />
    <glyph glyph-name="numbersign" unicode="#" horiz-adv-x="1323" 
d="M481 565h293l64 328h-293zM983 893l-63 -328h280v-137h-307l-84 -428h-145l84 428h-293l-80 -428h-144l78 428h-258v137h285l65 328h-274v135h299l82 434h147l-82 -434h295l82 434h142l-82 -434h260v-135h-287z" />
    <glyph glyph-name="dollar" unicode="$" horiz-adv-x="1171" 
d="M518 1227q-192 -33 -192 -175q0 -70 43 -115t149 -83v373zM858 436q0 72 -47 114.5t-162 82.5v-375q209 32 209 178zM518 100q-252 4 -391 68v168q75 -35 183.5 -60.5t207.5 -27.5v428q-205 65 -290 152.5t-85 222t101 219.5t274 104v180h131v-178q190 -5 361 -76
l-56 -141q-155 61 -305 72v-422q160 -54 238.5 -102t115.5 -109.5t37 -148.5q0 -137 -101.5 -227t-289.5 -113v-228h-131v219z" />
    <glyph glyph-name="percent" unicode="%" horiz-adv-x="1702" 
d="M1335 1462l-811 -1462h-157l811 1462h157zM995 440q0 457 299 457q147 0 227.5 -118.5t80.5 -342t-79 -340t-225 -116.5t-224.5 119.5t-78.5 340.5zM1294 109q158 0 158 329.5t-158 329.5q-78 0 -113.5 -81.5t-35.5 -247.5t35.5 -248t113.5 -82zM626.5 1364.5
q80.5 -118.5 80.5 -342.5t-78.5 -340.5t-225 -116.5t-225 119.5t-78.5 345t76.5 339.5t223 114t227 -118.5zM250 1026q0 -165 35.5 -248.5t113.5 -83.5q158 0 158 331t-158 331q-78 0 -113.5 -82.5t-35.5 -247.5z" />
    <glyph glyph-name="ampersand" unicode="&#x26;" horiz-adv-x="1499" 
d="M109 381q0 130 67 228t248 202q-78 87 -110 137q-68 106 -68 217q0 148 99 234t271 86t266.5 -84t94.5 -232q0 -109 -68.5 -200t-224.5 -183l395 -380q93 108 144 325h182q-69 -285 -209 -440l299 -291h-244l-178 172q-114 -102 -235.5 -147t-268.5 -45
q-215 0 -337.5 105t-122.5 296zM575 139q227 0 383 146l-426 413q-138 -83 -186.5 -151t-48.5 -170.5t77 -170t201 -67.5zM474.5 1290q-52.5 -47 -52.5 -117.5t35.5 -135.5t115.5 -144q124 69 175 132t51 141.5t-51 124.5t-136 46t-137.5 -47z" />
    <glyph glyph-name="quotesingle" unicode="'" horiz-adv-x="461" 
d="M328 1462l-41 -528h-113l-41 528h195z" />
    <glyph glyph-name="parenleft" unicode="(" horiz-adv-x="614" 
d="M159 73q-77 227 -77 490t77.5 494t223.5 405h170q-144 -193 -216.5 -424t-72.5 -473t74 -471t213 -418h-168q-147 170 -224 397z" />
    <glyph glyph-name="parenright" unicode=")" horiz-adv-x="614" 
d="M532 561q0 -263 -77.5 -490t-223.5 -395h-168q139 188 213 417.5t74 471.5t-72.5 473t-216.5 424h170q147 -175 224 -406.5t77 -494.5z" />
    <glyph glyph-name="asterisk" unicode="*" horiz-adv-x="1128" 
d="M659 1556l-41 -393l394 111l28 -189l-376 -30l243 -324l-176 -96l-174 358l-158 -358l-182 96l240 324l-373 30l29 189l389 -111l-43 393h200z" />
    <glyph glyph-name="plus" unicode="+" horiz-adv-x="1171" 
d="M657 795h408v-146h-408v-422h-147v422h-408v146h408v424h147v-424z" />
    <glyph glyph-name="comma" unicode="," horiz-adv-x="549" 
d="M379 238l14 -23q-55 -214 -176 -479h-133q65 250 102 502h193z" />
    <glyph glyph-name="hyphen" unicode="-" horiz-adv-x="659" 
d="M82 469v160h496v-160h-496z" />
    <glyph glyph-name="period" unicode="." horiz-adv-x="549" 
d="M147 111q0 66 32.5 101.5t92.5 35.5t94.5 -35.5q34.5 -34.5 34.5 -100.5t-34 -103.5t-94 -37.5t-93 37t-33 103z" />
    <glyph glyph-name="slash" unicode="/" horiz-adv-x="762" 
d="M741 1462l-544 -1462h-177l545 1462h176z" />
    <glyph glyph-name="zero" unicode="0" horiz-adv-x="1171" 
d="M352.5 1189q-71.5 -142 -71.5 -458t72.5 -457t231.5 -141t231.5 144.5t72.5 454t-72.5 454.5t-232.5 145t-231.5 -142zM946.5 1293q124.5 -193 124.5 -567q0 -746 -487 -746q-238 0 -361 191.5t-123 567.5t118.5 561t361 185t367 -192z" />
    <glyph glyph-name="one" unicode="1" horiz-adv-x="1171" 
d="M727 0h-176v1022q0 136 8 252q-33 -36 -283 -240l-94 121l396 307h149v-1462z" />
    <glyph glyph-name="two" unicode="2" horiz-adv-x="1171" 
d="M1065 0h-967v150l383 387q173 175 229 250q111 149 111 280.5t-69 196.5t-174 65t-185.5 -30t-181.5 -109l-96 121q205 172 448 172q204 0 323.5 -104.5t119.5 -284.5q0 -182 -140 -368q-70 -92 -235 -253l-305 -301v-8h739v-164z" />
    <glyph glyph-name="three" unicode="3" horiz-adv-x="1171" 
d="M100 1331q193 152 457 152q214 0 333.5 -97.5t119.5 -251.5q0 -302 -303 -364v-8q175 -22 261.5 -112t86.5 -234q0 -209 -145 -322.5t-401.5 -113.5t-416.5 79v168q194 -96 404 -96q370 0 370 289q0 258 -409 258h-142v153h144q172 0 269 73.5t97 191t-70.5 176.5
t-181.5 59t-193.5 -26.5t-189.5 -96.5z" />
    <glyph glyph-name="four" unicode="4" horiz-adv-x="1171" 
d="M743 494v460q0 137 11 324h-9q-40 -95 -88 -160l-438 -624h524zM1130 332h-212v-332h-175v332h-700v153l688 985h187v-976h212v-162z" />
    <glyph glyph-name="five" unicode="5" horiz-adv-x="1171" 
d="M563 897q229 0 360.5 -115t131.5 -329t-145 -343.5t-396 -129.5t-385 79v170q74 -44 178 -70t203 -26q172 0 266 82t94 234q0 296 -366 296q-118 0 -250 -30l-90 57l55 690h733v-164h-579l-35 -424q115 23 225 23z" />
    <glyph glyph-name="six" unicode="6" horiz-adv-x="1171" 
d="M608 131q139 0 214 89t75 243t-73 232.5t-210 78.5q-87 0 -159.5 -36t-116 -100t-43.5 -148t40 -171.5t111 -137.5t162 -50zM113 625q0 858 669 858q116 0 181 -19v-153q-76 24 -177 24q-233 0 -356.5 -142t-136.5 -450h12q110 172 346 172q198 0 311 -120
q113 -119 113 -335t-125 -348t-340 -132q-150 0 -262.5 76t-173.5 222.5t-61 346.5z" />
    <glyph glyph-name="seven" unicode="7" horiz-adv-x="1171" 
d="M279 0l600 1298h-789v164h981v-139l-594 -1323h-198z" />
    <glyph glyph-name="eight" unicode="8" horiz-adv-x="1171" 
d="M773 1281.5q-71 55.5 -190 55.5t-189 -56t-70 -155q0 -119 105 -197q51 -38 163 -85q137 57 194.5 125t57.5 162.5t-71 150zM342 552q-66 -76 -66 -186.5t82.5 -176.5t226.5 -66t226 67.5t82 175t-78 182.5t-262 142q-145 -62 -211 -138zM266.5 1388.5
q119.5 94.5 318.5 94.5t318 -93t119 -257q0 -110 -66.5 -197t-212.5 -162q177 -86 251.5 -179.5t74.5 -215.5q0 -182 -129 -290.5t-356.5 -108.5t-355.5 102t-128 291q0 250 303 391q-136 78 -196 168t-60 203q0 159 119.5 253.5z" />
    <glyph glyph-name="nine" unicode="9" horiz-adv-x="1171" 
d="M569 1331q-136 0 -212 -89t-76 -243t71.5 -231.5t208.5 -77.5q90 0 164 36.5t116 98.5t42 146.5t-39.5 171.5t-110.5 137.5t-164 50.5zM1065 838q0 -858 -672 -858q-116 0 -184 20v154q77 -27 180 -27q317 1 431 257q56 126 63 333h-13q-112 -170 -348 -170
q-193 0 -306.5 117.5t-113.5 334t127 350.5t340 134q150 0 262.5 -76.5t173 -223t60.5 -345.5z" />
    <glyph glyph-name="colon" unicode=":" horiz-adv-x="549" 
d="M147 987q0 139 125 139q63 0 96 -36t33 -101.5t-34 -103t-94 -37.5t-93 37t-33 102zM147 111q0 66 32.5 101.5t93 35.5t94.5 -35.5t34 -101t-34 -103t-94 -37.5t-93 37t-33 103z" />
    <glyph glyph-name="semicolon" unicode=";" horiz-adv-x="549" 
d="M143 987q0 139 127 139t127 -139q0 -66 -34 -102.5t-94 -36.5t-93 37t-33 102zM63 -264q75 288 105 502h192l15 -23q-52 -199 -176 -479h-136z" />
    <glyph glyph-name="less" unicode="&#x3c;" horiz-adv-x="1171" 
d="M1067 238l-965 424v102l965 481v-160l-772 -364l772 -324v-159z" />
    <glyph glyph-name="equal" unicode="=" horiz-adv-x="1171" 
d="M115 444v146h938v-146h-938zM115 852v145h938v-145h-938z" />
    <glyph glyph-name="greater" unicode="&#x3e;" horiz-adv-x="1171" 
d="M102 397l772 322l-772 366v160l965 -481v-102l-965 -424v159z" />
    <glyph glyph-name="question" unicode="?" horiz-adv-x="889" 
d="M240 111q0 137 127 137q58 0 91.5 -34.5t33.5 -102t-34 -104t-90.5 -36.5t-92 33t-35.5 107zM664 1120q0 205 -263 205q-135 0 -313 -86l-63 143q190 101 391.5 101t310.5 -94.5t109 -264.5q0 -138 -80 -239q-40 -51 -150.5 -144t-143 -148.5t-32.5 -146.5v-34h-143v55
q0 119 38 193.5t140.5 160.5t136.5 126q62 73 62 173z" />
    <glyph glyph-name="at" unicode="@" horiz-adv-x="1841" 
d="M688 600q0 -250 193 -250q205 0 223 309l12 256q-73 21 -151 21q-129 0 -203 -89t-74 -247zM735 1006.5q100 58.5 252 58.5t289 -49l-23 -468v-22q0 -176 127 -176q89 0 144 105t55 281t-73.5 311t-209 207.5t-332.5 72.5t-360.5 -91.5t-250.5 -261t-87 -394.5
q0 -302 159 -464.5t462 -162.5q212 0 440 88v-139q-200 -84 -440 -84q-364 0 -566 199.5t-202 555.5q0 259 107.5 462.5t305.5 315t434 111.5t404.5 -91t260 -258t91.5 -382q0 -140 -44.5 -258t-124.5 -184t-175 -66t-153 49.5t-72 128.5h-10q-39 -83 -114 -130.5
t-175 -47.5q-152 0 -239 101.5t-87 257t53.5 261t153.5 164z" />
    <glyph glyph-name="bracketleft" unicode="[" horiz-adv-x="674" 
d="M623 -324h-459v1786h459v-147h-283v-1491h283v-148z" />
    <glyph glyph-name="backslash" unicode="\" horiz-adv-x="762" 
d="M197 1462l546 -1462h-178l-545 1462h177z" />
    <glyph glyph-name="bracketright" unicode="]" horiz-adv-x="674" 
d="M51 -176h283v1491h-283v147h459v-1786h-459v148z" />
    <glyph glyph-name="asciicircum" unicode="^" horiz-adv-x="1171" 
d="M78 547l434 926h102l480 -926h-160l-369 735l-327 -735h-160z" />
    <glyph glyph-name="underscore" unicode="_" horiz-adv-x="909" 
d="M913 -315h-917v131h917v-131z" />
    <glyph glyph-name="grave" unicode="`" horiz-adv-x="1188" 
d="M799 1241h-121q-75 60 -164.5 155.5t-126.5 151.5v21h215q32 -66 91 -157.5t106 -145.5v-25z" />
    <glyph glyph-name="braceleft" unicode="{" horiz-adv-x="778" 
d="M262 565q223 -39 223 -250v-301q0 -100 59 -144t169 -46v-148q-200 2 -303 86t-103 240v301q0 104 -64.5 148.5t-185.5 44.5v149q132 2 191 48.5t59 142.5v303q0 155 107.5 239t298.5 84v-147q-116 -4 -172 -51t-56 -142v-295q0 -210 -223 -249v-13z" />
    <glyph glyph-name="bar" unicode="|" horiz-adv-x="1128" 
d="M489 1556h150v-2050h-150v2050z" />
    <glyph glyph-name="braceright" unicode="}" horiz-adv-x="778" 
d="M721 496q-122 -2 -186 -45t-64 -146v-305q0 -154 -106.5 -239t-298.5 -85v148q227 4 227 192v297q0 211 223 250v12q-223 39 -223 250v299q0 100 -59 144.5t-168 46.5v147q198 -2 301.5 -84.5t103.5 -240.5v-299q0 -105 64 -149t186 -44v-149z" />
    <glyph glyph-name="asciitilde" unicode="~" horiz-adv-x="1171" 
d="M686 604.5q-63 16.5 -163 60.5t-170 44q-130 0 -251 -121v160q100 108 246 108q115 0 270 -65q132 -56 199 -56q135 0 250 121v-158q-102 -110 -246 -110q-72 0 -135 16.5z" />
    <glyph glyph-name="uni200B" unicode="&#x200b;" horiz-adv-x="25" 
 />
    <glyph glyph-name="afii61664" unicode="&#x200c;" horiz-adv-x="0" 
d="M-39 1695h78v-1989h-78v1989z" />
    <glyph glyph-name="afii301" unicode="&#x200d;" horiz-adv-x="0" 
d="M39 1558v-1852h-78v1852l-143 -146l-52 53l183 181l-183 179l52 53l182 -183l182 183l52 -53l-183 -179l183 -181l-52 -53z" />
    <glyph glyph-name="endash" unicode="&#x2013;" horiz-adv-x="1091" 
d="M-19 485v78h1132v-78h-1132z" />
    <glyph glyph-name="emdash" unicode="&#x2014;" horiz-adv-x="2195" 
d="M-19 485v78h2230v-78h-2230z" />
    <glyph glyph-name="quoteleft" unicode="&#x2018;" horiz-adv-x="613" 
d="M339 1157l73 18q47 0 70 -26q41 -45 41 -98t-40 -87.5t-110 -34.5t-126 68q-50 65 -50 145q0 240 272 341l4 -9q-50 -33 -142 -163q-26 -41 -26 -97.5t34 -56.5z" />
    <glyph glyph-name="quoteright" unicode="&#x2019;" horiz-adv-x="670" 
d="M553 1273q0 -128 -92 -230q-61 -67 -188 -116l4 35q74 42 142 144q26 37 26 94.5t-32 57.5q-11 0 -27 -6q-27 -12 -49 -12t-42 9.5q-19 9.5 -35 25.5q-32 34 -32.5 87.5t40 87t110.5 33.5t125 -67q50 -65 50 -143z" />
    <glyph glyph-name="quotedblleft" unicode="&#x201c;" horiz-adv-x="1025" 
d="M211 1161l78 16q75 1 105 -71q9 -22 9 -48.5t-11 -49.5q-10 -23 -30 -40q-40 -35 -110.5 -35t-124.5 65.5t-54 149.5q0 179 170 287q49 31 110 51l15 -24q-82 -44 -147 -130q-39 -49 -39 -110t29 -61zM717 1159l80 18q46 0 71 -24q44 -42 44 -79.5t-12 -62t-32 -42.5
q-43 -38 -113 -38t-123 66t-53 149q0 254 318 347q-82 -47 -126 -99q-10 -13 -25 -30.5q-14 -17.5 -28 -39.5q-32 -52 -32 -108.5t31 -56.5z" />
    <glyph glyph-name="quotedblright" unicode="&#x201d;" horiz-adv-x="1022" 
d="M484 1282q0 -123 -96 -228q-61 -67 -190 -116l4 35q75 42 144 144q29 39 29 95.5t-35 56.5q-6 0 -24 -6q-37 -12 -56 -12t-39.5 9.5t-35.5 25.5q-33 35 -33 73t11 61.5t31 40.5q39 34 110 34t125.5 -64.5t54.5 -148.5zM927 1282q0 -126 -94 -228q-61 -67 -190 -116l4 35
q75 42 144 144q26 36 26 94t-32 58q-9 0 -26 -6q-34 -12 -54.5 -12t-41 9.5t-35.5 25.5q-33 35 -33 86.5t41.5 87t111.5 35.5t124.5 -65.5t54.5 -147.5z" />
    <glyph glyph-name="bullet" unicode="&#x2022;" horiz-adv-x="767" 
d="M386.5 456q-112.5 0 -188.5 78t-76.5 191t75.5 190.5t191 77.5t191 -79q78 -75 78 -189t-79 -191.5t-191.5 -77.5z" />
    <glyph glyph-name="uni2026" unicode="&#x2026;" horiz-adv-x="1931" 
d="M1722.5 150.5q8.5 -19.5 8.5 -42t-8.5 -42.5t-22.5 -34q-32 -32 -65.5 -32t-53.5 8.5q-21 9.5 -35 23.5q-32 32 -31.5 65.5t9 53t22.5 33.5q32 32 66 32t53.5 -8.5t34 -23t23 -34zM1066.5 150.5q8.5 -19.5 8.5 -42t-8.5 -42.5t-22.5 -34q-32 -32 -65.5 -32t-53.5 8.5
q-21 9.5 -35 23.5q-32 32 -31.5 65.5t9 53t22.5 33.5q32 32 66 32t53.5 -8.5t34 -23t23 -34zM412 150.5q9 -19.5 9 -42t-9 -42.5q-10 -20 -24 -34q-32 -32 -65 -32t-53 8.5q-20 9.5 -34 23.5q-32 32 -32 65.5t8.5 53q9.5 19.5 23.5 33.5q32 32 65.5 32t53 -8.5t34 -23
t23.5 -34z" />
    <glyph glyph-name="uni00A0" unicode="&#xa0;" horiz-adv-x="649" 
 />
    <glyph glyph-name="sterling" unicode="&#xa3;" horiz-adv-x="1171" 
d="M449 442q0 -194 -140 -278h787v-164h-1030v152q202 47 202 288v215h-196v136h196v303q0 181 112.5 284t303 103t363.5 -84l-64 -144q-167 78 -289.5 78t-183.5 -60.5t-61 -195.5v-284h417v-136h-417v-213z" />
    <glyph glyph-name="currency" unicode="&#xa4;" horiz-adv-x="1171" 
d="M399 913.5q-77 -77.5 -77 -189.5t76.5 -188.5t187.5 -76.5t188.5 76t77.5 189t-77.5 190t-188 77t-187.5 -77.5zM256 496q-72 108 -72 226t72 226l-135 139l100 97l135 -131q100 71 225.5 71t229.5 -71l137 131l99 -97l-132 -137q72 -111 72 -234t-72 -222l129 -136
l-96 -96l-137 131q-103 -69 -230 -69t-225 71l-135 -131l-98 96z" />
    <glyph glyph-name="yen" unicode="&#xa5;" horiz-adv-x="1171" 
d="M584 748l366 714h189l-412 -768h254v-131h-309v-168h309v-131h-309v-264h-176v264h-310v131h310v168h-310v131h250l-407 768h190z" />
    <glyph glyph-name="uni00D7" unicode="&#xd7;" horiz-adv-x="1061" 
d="M517 676l275 275l75 -74l-276 -275l273 -274l-72 -73l-274 274l-275 -275l-74 74l274 274l-275 276l74 73z" />
    <glyph glyph-name="uni00F7" unicode="&#xf7;" horiz-adv-x="1171" 
d="M469 1071q-1 123 113 123t114 -123q0 -66 -33 -95.5t-80 -29.5t-80.5 29.5t-33.5 95.5zM469 373q-1 123 113 123t114 -123q0 -66 -33 -95.5t-80 -29.5t-80.5 29.5t-33.5 95.5zM102 649v146h965v-146h-965z" />
    <glyph glyph-name="twodotenleader" unicode="&#x2025;" horiz-adv-x="1255" 
d="M1066.5 150.5q8.5 -19.5 8.5 -42t-8.5 -42.5t-22.5 -34q-32 -32 -65.5 -32t-53.5 8.5q-21 9.5 -35 23.5q-32 32 -31.5 65.5t9 53t22.5 33.5q32 32 66 32t53.5 -8.5t34 -23t23 -34zM412 150.5q9 -19.5 9 -42t-9 -42.5q-10 -20 -24 -34q-32 -32 -65 -32t-53 8.5
q-20 9.5 -34 23.5q-32 32 -32 65.5t8.5 53q9.5 19.5 23.5 33.5q32 32 65.5 32t53 -8.5t34 -23t23.5 -34z" />
    <glyph glyph-name="degree" unicode="&#xb0;" horiz-adv-x="877" 
d="M303 1304q-57 -56 -57 -136t57.5 -136.5t137.5 -56.5t135 57t55 136t-55 135.5t-135.5 56.5t-137.5 -56zM215.5 943.5q-92.5 89.5 -92.5 224t92 225t224 90.5t223.5 -92t91.5 -223.5t-92 -222.5t-223 -91t-223.5 89.5z" />
    <glyph glyph-name="uni2071" unicode="&#xb9;" horiz-adv-x="717" 
d="M342 1462h150v-876h-146v565q0 67 8 182q-58 -52 -207 -159l-71 100z" />
    <glyph glyph-name="uni2072" unicode="&#xb2;" horiz-adv-x="717" 
d="M627 586h-578v110l236 230q127 123 162.5 179.5t35.5 123.5t-37.5 100t-99.5 33t-112 -24t-103 -64l-72 94q133 113 277 113t218.5 -65.5t74.5 -176.5q-1 -121 -119 -252q-42 -46 -283 -274h400v-127z" />
    <glyph glyph-name="uni2073" unicode="&#xb3;" horiz-adv-x="717" 
d="M39 1380q136 101 285.5 101t228 -60.5t78.5 -165.5q0 -151 -152 -208q178 -44 178 -209q0 -127 -92 -198t-253 -71t-277 58v129q142 -70 270 -70q205 0 205 156q0 141 -225 141h-117v113h117q103 0 150.5 39t47.5 101t-38.5 95t-104.5 33q-104 0 -227 -78z" />
    <glyph glyph-name="onequarter" unicode="&#xbc;" horiz-adv-x="1618" 
d="M1304 1462l-893 -1462h-153l893 1462h153zM1229 320v191q0 107 6 207q-8 -18 -98 -158l-164 -240h256zM1507 197h-125v-196h-153v196h-400v107l404 579h149v-563h125v-123zM337 1462h150v-876h-146v565q0 67 8 182q-58 -52 -207 -159l-71 100z" />
    <glyph glyph-name="onehalf" unicode="&#xbd;" horiz-adv-x="1618" 
d="M1243 1462l-893 -1462h-153l893 1462h153zM312 1462h150v-876h-146v565q0 67 8 182q-58 -52 -207 -159l-71 100zM1489 1h-578v110l236 230q127 123 162.5 179.5t35.5 123.5t-37.5 100t-99.5 33t-112 -24t-103 -64l-72 94q133 113 277 113t218.5 -65.5t74.5 -176.5
q-1 -121 -119 -252q-42 -46 -283 -274h400v-127z" />
    <glyph glyph-name="threequarters" unicode="&#xbe;" horiz-adv-x="1618" 
d="M1394 1462l-893 -1462h-153l893 1462h153zM1303 320v191q0 107 6 207q-8 -18 -98 -158l-164 -240h256zM1581 197h-125v-196h-153v196h-400v107l404 579h149v-563h125v-123zM36 1380q136 101 285.5 101t228 -60.5t78.5 -165.5q0 -151 -152 -208q178 -44 178 -209
q0 -127 -92 -198t-253 -71t-277 58v129q142 -70 270 -70q205 0 205 156q0 141 -225 141h-117v113h117q103 0 150.5 39t47.5 101t-38.5 95t-104.5 33q-104 0 -227 -78z" />
    <glyph glyph-name="guillemotleft" unicode="&#xab;" horiz-adv-x="1042" 
d="M487 553l349 412l127 -74l-287 -350l287 -351l-127 -75l-349 411v27zM82 553l344 412l129 -74l-287 -350l287 -351l-129 -75l-344 411v27z" />
    <glyph glyph-name="guillemotright" unicode="&#xbb;" horiz-adv-x="1042" 
d="M553 526l-346 -411l-127 75l287 351l-287 350l127 74l346 -412v-27zM961 526l-349 -411l-127 75l287 351l-287 350l127 74l349 -412v-27z" />
    <glyph glyph-name="section" unicode="&#xa7;" horiz-adv-x="1051" 
d="M332 938.5q-41 -49.5 -41 -105t27 -93t87.5 -72.5t223.5 -97q131 76 131 187q0 81 -70 135.5t-252 112.5q-65 -18 -106 -67.5zM121 211q187 -84 335 -84q285 0 285 145q0 61 -53 100.5t-230.5 106.5t-249 142t-71.5 175q0 194 162 271q-156 84 -156 236q0 123 104 193.5
t300 70.5q92 0 167.5 -14t182.5 -56l-55 -137q-167 67 -307 67q-224 0 -224 -120q0 -56 58 -98t226.5 -103t244 -137.5t75.5 -184.5q0 -180 -153 -272q151 -80 151 -223.5t-118 -221t-328 -77.5t-346 67v154z" />
    <glyph glyph-name="brokenbar" unicode="&#xa6;" horiz-adv-x="1128" 
d="M489 287h150v-781h-150v781zM489 1556h150v-780h-150v780z" />
    <glyph glyph-name="exclamdown" unicode="&#xa1;" horiz-adv-x="551" 
d="M274 842q-127 0 -127 137q0 66 34 102.5t93 36.5t93 -36t34 -103q0 -137 -127 -137zM213 676h119l51 -1049h-221z" />
    <glyph glyph-name="cent" unicode="&#xa2;" horiz-adv-x="1171" 
d="M371 743q0 -407 308 -407q148 0 296 61v-157q-113 -57 -254 -62v-198h-137v204q-204 31 -301 169.5t-97 387.5q0 508 398 570v172h139v-164q152 -6 270 -59l-53 -150q-143 53 -244 53q-167 0 -246 -104t-79 -316z" />
    <glyph glyph-name="periodcentered" unicode="&#xb7;" horiz-adv-x="549" 
d="M147 723q0 65 32.5 102t93.5 37t94.5 -37.5t33.5 -101.5t-34 -101.5t-94 -37.5t-93 37t-33 102z" />
    <glyph glyph-name="paragraph" unicode="&#xb6;" horiz-adv-x="1341" 
d="M1124 -260h-118v1702h-209v-1702h-119v819q-62 -18 -146 -18q-216 0 -317.5 125q-101.5 124 -101.5 380t109 383t341 127h561v-1816z" />
    <glyph glyph-name="dieresis" unicode="&#xa8;" horiz-adv-x="1188" 
d="M690 1395q0 53 28 76.5t66 23.5t67.5 -23.5t29.5 -76.5t-29 -78q-30 -25 -68 -25t-66 25t-28 78zM305 1395q0 53 28 76.5q27 23.5 67 23.5t69 -23.5t29 -76.5t-29 -78t-69 -25t-67.5 25t-27.5 78z" />
    <glyph glyph-name="uni0A01" unicode="&#xa01;" horiz-adv-x="12" 
d="M-637 1838v-10q0 -150 84 -262q94 -119 247 -119t247 119q83 112 86 272h-59q-19 -116 -86 -192q-74 -80 -187 -80t-189 79.5t-86 192.5h-57zM-208.5 1888q8.5 -20 8.5 -42.5t-8.5 -42q-9.5 -19.5 -23.5 -33.5q-32 -32 -65.5 -32t-53 8.5q-19.5 9.5 -33.5 23.5
q-32 32 -32 65t8.5 53q9.5 20 23.5 34q32 32 65 32t53 -8.5t34.5 -23t23 -34.5z" />
    <glyph glyph-name="uni0A02" unicode="&#xa02;" horiz-adv-x="184" 
d="M-32 1179v134h250v-134h-250zM32 1753q29 0 55 -11.5t45 -29.5q40 -39 40 -83.5t-11 -70t-30.5 -44.5t-44.5 -30.5t-54 -11.5t-54.5 11t-43.5 30q-42 43 -42 85.5t11.5 68.5t30 44.5t44 30t54.5 11.5z" />
    <glyph glyph-name="uni0A03" unicode="&#xa03;" horiz-adv-x="720" 
d="M414.5 465q-26.5 12 -56.5 12t-57 -11.5t-48 -31.5q-45 -44 -45 -90.5t11 -72.5t31 -45q44 -42 103 -42q99 0 138 81q13 26 13 59.5t-12 60.5t-31.5 47.5t-46 32.5zM464 556q143 -66 143 -230q0 -57 -22 -105q-66 -142 -230 -142q-59 0 -106 22q-144 62 -144 230
q0 51 24 106q69 144 231 144q50 0 104 -25zM409 1156q-26 12 -56.5 12t-58 -11.5t-48 -32.5t-33 -48t-12.5 -57t11.5 -56.5t31.5 -46.5q42 -42 102 -42q96 0 138 82q14 27 14 60t-11.5 59.5t-31.5 47.5t-46 33zM458 1247q142 -67 142 -230q0 -61 -21 -105
q-66 -143 -230 -143q-59 0 -106 22q-145 62 -145 230q0 51 25 106q69 144 230 144q50 0 105 -24z" />
    <glyph glyph-name="uni0A05" unicode="&#xa05;" horiz-adv-x="1762" 
d="M245 820q0 359 -144 359h-116v134h190q53 0 104.5 -77t72 -160t27.5 -235q22 18 43 39t45 44l81 90q192 198 278 198q9 0 17 -5q108 -46 163 -218q42 -132 52 -276q46 32 140 94q16 6 60 24t120 47v435h408v-134h-274v-1179h-134v740l-159 -67q-69 -35 -159 -129
q-41 -42 -55 -97.5t-24.5 -92t-20.5 -84.5q-38 -143 -145 -143q-31 0 -56 9q-71 19 -71 83q0 44 40 120q15 27 127 163q69 83 69 192q0 103 -35.5 219.5t-68.5 149.5q-141 -83 -287 -256q-102 -123 -121 -150q-42 -59 -60.5 -161.5t-55.5 -145.5t-93 -43t-90 29.5t-34 67
t8.5 60.5t25 51.5t42 65.5t58 89.5t32.5 149.5z" />
    <glyph glyph-name="uni0A06" unicode="&#xa06;" horiz-adv-x="2308" 
d="M245 820q0 359 -144 359h-116v134h190q53 0 104.5 -77t72 -160t27.5 -235q22 18 43 39t45 44l81 90q192 198 278 198q9 0 17 -5q108 -46 163 -218q42 -132 52 -276q46 32 140 94q16 6 60 24t120 47v435h408v-134h-274v-1179h-134v740l-159 -67q-69 -35 -159 -129
q-41 -42 -55 -97.5t-24.5 -92t-20.5 -84.5q-38 -143 -145 -143q-31 0 -56 9q-71 19 -71 83q0 44 40 120q15 27 127 163q69 83 69 192q0 103 -35.5 219.5t-68.5 149.5q-141 -83 -287 -256q-102 -123 -121 -150q-42 -59 -60.5 -161.5t-55.5 -145.5t-93 -43t-90 29.5t-34 67
t8.5 60.5t25 51.5t42 65.5t58 89.5t32.5 149.5zM2003 513h-131v666h-105v134h560v-134h-324v-666z" />
    <glyph glyph-name="uni0A07" unicode="&#xa07;" horiz-adv-x="1768" 
d="M265 0h-132v1179h-166v134h166v118q0 212 77 333q92 147 345 147q96 0 181 -51.5q84 -51.5 120 -147.5q31 -84 32 -174q0 -13 -1 -26h-129q-2 33 -13 100q-29 174 -228 174q-175 0 -228 -169q-24 -81 -24 -262v-42h277v-134h-277v-1179zM689 1179q58 -206 202 -309
q55 -40 141 -57h348v366h-691zM1461 682l-147 4h-44q-188 -4 -281 -29.5t-204 -106.5t-155 -159q21 -38 121 -113q76 -52 130 -83q158 -84 279 -84h16q81 2 140 42t114 96t68 56t13 -25q0 -65 -94 -166t-206 -112h-15q-59 0 -154 13q-161 31 -280 98q-222 136 -274 272
q25 95 151 209q131 113 194 149q-60 52 -172 181q-83 127 -102 255h-184v134h1411v-134h-277v-497h-48z" />
    <glyph glyph-name="uni0A08" unicode="&#xa08;" horiz-adv-x="1889" 
d="M293 1179q58 -206 202 -309q55 -40 141 -57h348v366h-691zM1065 682l-147 4h-44q-188 -4 -281 -29.5t-204 -106.5t-155 -159q21 -38 121 -113q76 -52 130 -83q158 -84 279 -84h16q81 2 140 42t114 96t68 56t13 -25q0 -65 -94 -166t-206 -112h-15q-59 0 -154 13
q-161 31 -280 98q-222 136 -274 272q25 95 151 209q131 113 194 149q-60 52 -172 181q-83 127 -102 255h-184v134h1411v-134h-277v-497h-48zM1348 1179v134h98v29q0 191 -25 275q-50 169 -227 169q-199 0 -228 -174q-4 -14 -13 -100h-130v19q0 96 36 192q27 85 114 136.5
t183 51.5q257 0 345 -147q77 -121 77 -333v-118h338v-134h-338v-1179h-132v1179h-98z" />
    <glyph glyph-name="uni0A09" unicode="&#xa09;" horiz-adv-x="1485" 
d="M791 631q-17 0 -40 -3q-77 -10 -435 -10q39 -143 98 -246q145 -240 383 -240h14q111 4 187 60q68 50 68 136q0 10 -1 22q-9 102 -105 198q-88 83 -169 83zM278 1179q0 -254 17 -430h249q217 2 282 27q140 48 211 131q78 97 144 272h-903zM147 1313q0 276 155.5 424.5
t435 148.5t426.5 -147.5t147 -425.5h203v-134h-201q-57 -184 -123 -278q-83 -127 -232 -200q238 -141 238 -356q0 -144 -85 -236q-99 -109 -291 -109q-314 0 -489 247q-145 209 -174 544q-11 141 -11 289q0 49 1 99h-162v134h162zM1115 1587q-103 168 -375.5 168
t-388.5 -168q-73 -110 -73 -274h901q-8 186 -64 274zM1146 -311q-206 -78 -376 -82h-15q-164 0 -359 82v133q206 -83 382 -83t368 81v-131z" />
    <glyph glyph-name="uni0A0A" unicode="&#xa0a;" horiz-adv-x="1492" 
d="M791 631q-17 0 -40 -3q-77 -10 -435 -10q39 -143 98 -246q145 -240 383 -240h14q111 4 187 60q68 50 68 136q0 10 -1 22q-9 102 -105 198q-88 83 -169 83zM278 1179q0 -254 17 -430h249q217 2 282 27q140 48 211 131q78 97 144 272h-903zM147 1313q0 276 155.5 424.5
t435 148.5t426.5 -147.5t147 -425.5h203v-134h-201q-57 -184 -123 -278q-83 -127 -232 -200q238 -141 238 -356q0 -144 -85 -236q-99 -109 -291 -109q-314 0 -489 247q-145 209 -174 544q-11 141 -11 289q0 49 1 99h-162v134h162zM1115 1587q-103 168 -375.5 168
t-388.5 -168q-73 -110 -73 -274h901q-8 186 -64 274zM1132 -609q-209 -77 -378 -81h-14q-163 0 -358 81v133q206 -82 382 -82t368 80v-131zM1132 -302q-206 -78 -376 -82h-15q-164 0 -359 82v133q206 -83 382 -83t368 81v-131z" />
    <glyph glyph-name="uni0A0F" unicode="&#xa0f;" horiz-adv-x="1359" 
d="M293 1179q58 -206 202 -309q55 -40 141 -57h348v366h-691zM1065 682l-147 4h-44q-188 -4 -281 -29.5t-204 -106.5t-155 -159q21 -38 121 -113q76 -52 130 -83q158 -84 279 -84h16q81 2 140 42t114 96t68 56t13 -25q0 -65 -94 -166t-206 -112h-15q-59 0 -154 13
q-161 31 -280 98q-222 136 -274 272q25 95 151 209q131 113 194 149q-60 52 -172 181q-83 127 -102 255h-184v134h1411v-134h-277v-497h-48zM784 1744q59 -42 172.5 -192.5t113.5 -208.5q0 -8 -4 -8q-11 0 -51 51q-147 190 -325 297q-109 63 -344 74q-30 27 -30 66
q0 79 94 79q19 0 30 -2q174 -20 344 -156z" />
    <glyph glyph-name="uni0A10" unicode="&#xa10;" horiz-adv-x="1761" 
d="M245 820q0 359 -144 359h-116v134h190q53 0 104.5 -77t72 -160t27.5 -235q22 18 43 39t45 44l81 90q192 198 278 198q9 0 17 -5q108 -46 163 -218q42 -132 52 -276q46 32 140 94q16 6 60 24t120 47v435h408v-134h-274v-1179h-134v740l-159 -67q-69 -35 -159 -129
q-41 -42 -55 -97.5t-24.5 -92t-20.5 -84.5q-38 -143 -145 -143q-31 0 -56 9q-71 19 -71 83q0 44 40 120q15 27 127 163q69 83 69 192q0 103 -35.5 219.5t-68.5 149.5q-141 -83 -287 -256q-102 -123 -121 -150q-42 -59 -60.5 -161.5t-55.5 -145.5t-93 -43t-90 29.5t-34 67
t8.5 60.5t25 51.5t42 65.5t58 89.5t32.5 149.5zM1469 1328q-34 16 -215.5 108q-181.5 91 -259.5 109q-62 14 -113 14h-25q-59 -4 -77 -5h-33q-120 0 -120 59q0 60 116 74q25 3 51 3q148 0 336 -100q82 -44 148 -92.5t111 -79.5v3q0 22 -60 105q-66 90 -167 180
q-170 151 -331 151h-18q-46 -4 -77 -4t-47 4q-40 6 -40 54q0 57 94 77q25 7 67 7q260 0 491 -318q82 -116 130 -226q40 -91 41 -115q0 -6 -2 -8z" />
    <glyph glyph-name="uni0A13" unicode="&#xa13;" horiz-adv-x="1468" 
d="M769 631q-18 0 -41 -3q-77 -10 -435 -10q40 -143 100 -246q144 -240 382 -240h14q112 4 181 56q74 53 74 143v19q-8 102 -100.5 191.5t-174.5 89.5zM1290 1179q-56 -184 -122 -278q-80 -124 -233 -200q240 -141 240 -356q0 -144 -86 -236q-98 -109 -292 -109
q-312 0 -488 247q-144 209 -173 544q-12 126 -12 297q0 44 1 91h-140v134h140q15 276 170 447q169 182 441 182h9q9 0 20 2h99q412 0 412 -100q0 -38 -232 -40q-50 2 -126.5 2t-122.5 2q-397 0 -496 -310q-25 -78 -42 -185h1248v-134h-215zM257 1179q0 -273 17 -430h247
q217 2 284 27q140 48 214.5 138t139.5 265h-902z" />
    <glyph glyph-name="uni0A14" unicode="&#xa14;" horiz-adv-x="1755" 
d="M245 820q0 359 -144 359h-116v134h190q53 0 104.5 -77t72 -160t27.5 -235q22 18 43 39t45 44l81 90q192 198 278 198q9 0 17 -5q108 -46 163 -218q42 -132 52 -276q46 32 140 94q16 6 60 24t120 47v435h408v-134h-274v-1179h-134v740l-159 -67q-69 -35 -159 -129
q-41 -42 -55 -97.5t-24.5 -92t-20.5 -84.5q-38 -143 -145 -143q-31 0 -56 9q-71 19 -71 83q0 44 40 120q15 27 127 163q69 83 69 192q0 103 -35.5 219.5t-68.5 149.5q-141 -83 -287 -256q-102 -123 -121 -150q-42 -59 -60.5 -161.5t-55.5 -145.5t-93 -43t-90 29.5t-34 67
t8.5 60.5t25 51.5t42 65.5t58 89.5t32.5 149.5zM1474 1464q27 66 42 151q-25 152 -163 154q-58 0 -106 -46q-49 -48 -53 -111q-1 -4 -1 -10q0 -24 18 -74q20 -56 20 -65q0 -6 -11 -6q-9 0 -24 8.5t-29 22.5q-37 35 -42 51q-17 33 -24 124q-7 55 -68 55h-11q-16 -1 -31 -1
q-90 0 -163 36q-102 41 -123 100q-12 33 -12 69l1 28q0 56 17 60q10 0 28.5 -51.5t40.5 -73.5q74 -60 210 -60h13q98 1 204 31q79 23 144 22q116 0 186 -72q62 -64 62 -162q0 -57 -15.5 -90.5t-48 -64t-45 -30.5t-16.5 5z" />
    <glyph glyph-name="uni0A15" unicode="&#xa15;" horiz-adv-x="1398" 
d="M708 699q-110 87 -238.5 87t-202.5 -77.5t-74 -187t66.5 -187t171.5 -91.5q12 -1 24 -1q83 0 187 62q31 18 55 43q79 71 160 205q-73 73 -110 109t-39 38zM1186 1048q-10 -85 -36 -182q-48 -184 -142 -320q19 -40 76 -175q85 -202 135 -371h-138q-28 67 -62 170
q-54 161 -92 257q-90 -153 -197 -220q-149 -94 -278 -94q-184 0 -299 146q-90 115 -90 258q0 182 130 298q118 102 284 102q12 0 25 -1q213 -11 427 -249q41 65 77.5 185.5t47.5 186t13 140.5h-1084v134h1445v-134h-230z" />
    <glyph glyph-name="uni0A16" unicode="&#xa16;" horiz-adv-x="1299" 
d="M1050 0h-132v357q-136 -123 -339 -123q-314 0 -472 233l75 200q63 179 63 293t-15 144.5t-24 44.5t-18 30h-215v134h220q118 0 164 -165q17 -65 17 -210h544v375h409v-134h-277v-1179zM360 807q-21 -132 -103 -316q130 -125 372 -125q68 0 164 50q92 58 125 90v301h-558z
" />
    <glyph glyph-name="uni0A17" unicode="&#xa17;" horiz-adv-x="1427" 
d="M467 690q-272 0 -272 -197q0 -103 84 -225q26 -38 60 -67q77 -69 165 -69q114 0 138 117v441h-175zM1188 0h-132v1179h-282v-872q0 -307 -270 -307q-155 0 -267 107.5t-156 271.5q-16 52 -16 112q0 138 94 233.5t242 95.5h241v359h-657v134h1477v-134h-274v-1179z" />
    <glyph glyph-name="uni0A18" unicode="&#xa18;" horiz-adv-x="1525" 
d="M1284 0h-132v289q-71 -65 -193 -69h-6q-119 0 -248 135q-80 -75 -138.5 -108.5t-137.5 -33.5q-165 1 -331 207q-31 38 -41 69q10 19 106 278q52 145 52 243q0 153 -127 169h-103v134h170q40 0 89 -44q103 -93 103 -239v-18q-4 -99 -148 -517q152 -150 230 -150
q121 0 178 104q46 82 46 202t-21 202t-21 135t37.5 146t89.5 93q42 0 70.5 -93t28.5 -143t-11 -90q-55 -165 -55 -292q0 -256 199 -256q82 0 117 21q48 23 65 93v846h412v-134h-280v-1179z" />
    <glyph glyph-name="uni0A19" unicode="&#xa19;" horiz-adv-x="1331" 
d="M738 345q-155 155 -309.5 155t-173.5 -119q-2 -9 -2 -26q0 -73 70 -107q63 -30 146 -29h20q138 9 249 126zM272 938h506q192 0 274 -114q65 -90 65 -166q0 -178 -195 -334q113 -105 200 -324h-140q-73 149 -154 253q-177 -161 -336 -166h-19q-146 0 -241 64
q-107 80 -107 204q-1 130 73 200q72 67 211 75q14 1 27 1q124 0 231 -62q78 -43 182 -151l89 108q44 55 44 128.5t-66 116.5q-50 36 -188 36h-588v372h-159v134h1384v-134h-1093v-241z" />
    <glyph glyph-name="uni0A1A" unicode="&#xa1a;" horiz-adv-x="1382" 
d="M355 613q2 -96 7.5 -136t22.5 -98q85 -245 292 -245h36q119 0 196 50q93 59 93 171v258h-647zM1135 366q0 -132 -87 -232q-115 -134 -327 -134h-31q-13 0 -29 2q-293 23 -402 335q-28 80 -35 276h-117q-72 0 -72 83.5t55 138.5q79 83 192 83q73 0 73 -61v-112h647v434
h-1015v134h1446v-134h-298v-813z" />
    <glyph glyph-name="uni0A1B" unicode="&#xa1b;" horiz-adv-x="1345" 
d="M559 366q-191 -4 -245 -15q-99 -25 -99 -98t99 -100q67 -15 245 -19v232zM690 134q180 4 248 19q101 27 101 101t-101 97q-53 11 -248 15v-232zM1098 765h-757q-92 0 -92 -106q0 -26 33 -144q21 -30 75 -30h26q60 15 248 15q337 0 454 -66q86 -49 86 -172q-1 -6 -1 -12
q-4 -133 -85 -183q-110 -67 -464 -67t-461 63q-77 46 -79 192q0 67 30 111q16 19 50 41t29 40q-69 138 -69 235q0 59 26 102q41 68 111 98q34 14 73 15h635v282h-983v134h1393v-134h-278v-414z" />
    <glyph glyph-name="uni0A1C" unicode="&#xa1c;" horiz-adv-x="1338" 
d="M1087 0h-131v567h-586v-567h-134v567h-107q-77 0 -77 77q0 105 71.5 173t177.5 68q69 0 69 -57v-129h586v480h-977v134h1391v-134h-283v-1179z" />
    <glyph glyph-name="uni0A1D" unicode="&#xa1d;" horiz-adv-x="1290" 
d="M243 1179q58 -108 119 -162q146 -125 274.5 -125t224.5 122q59 75 90 165h-708zM1083 1179q-33 -131 -90.5 -218t-168.5 -141q77 -27 144 -90q96 -92 96 -213q0 -9 -1 -19q-24 -327 -419 -327q-35 0 -69 4q2 -8 52 -68.5t50 -85.5t-31 -25t-78 32.5t-64 49t-29 27.5
q-89 114 -221 114h-15h-6q-73 0 -73 90q0 46 32 84t77 38t78 -40q71 -86 126 -102q24 -4 165 -4q118 4 192 50q92 56 100 165q1 8 1 15q0 100 -101 175q-83 69 -171 69q-49 0 -236 -50t-191 -50q-31 0 -70 29t-39 44q0 31 98 61q9 2 52 13t124 31q-148 79 -209 171
q-25 41 -77 171h-126v134h1330v-134h-232z" />
    <glyph glyph-name="uni0A1E" unicode="&#xa1e;" horiz-adv-x="1310" 
d="M1060 805h-648q-52 0 -111 -34q-69 -35 -69 -87.5t48 -100.5t86 -48h686v-132h-513q30 -104 61 -150q53 -73 136.5 -109.5t157.5 -36.5t147 20l-24 -85q-118 -48 -208 -48q-27 0 -46 6q-171 42 -255 157q-52 75 -96 200q-6 21 -56 39q-83 29 -126 45q-129 82 -129 223
q0 210 284 269q-48 35 -130 127q-31 42 -46 119h-222v134h1355v-134h-282v-374zM339 1179q48 -108 125 -167q105 -79 182 -79h283v246h-590z" />
    <glyph glyph-name="uni0A1F" unicode="&#xa1f;" horiz-adv-x="1313" 
d="M1065 780q-28 2 -60 2q-90 0 -208 -16q-161 -21 -260 -82q-196 -123 -330 -307q36 -46 142 -114q228 -146 379 -146q54 0 112.5 18t141.5 84t101.5 66t18.5 -24q0 -58 -94 -135.5t-164 -104.5t-150 -27q-127 0 -374 129q-55 28 -143.5 103t-109.5 144q14 77 128 197.5
t230 202t265 106.5q4 2 243 36v267h-948v134h1365v-134h-285v-399z" />
    <glyph glyph-name="uni0A20" unicode="&#xa20;" horiz-adv-x="1346" 
d="M713 951q207 -31 342 -169q136 -139 136 -353q0 -211 -157 -321q-158 -112 -388 -112t-376 105q-169 116 -169 323q1 4 1 8q4 214 139.5 352t339.5 167v228h-601v134h1398v-134h-665v-228zM927 188q135 81 135 241q0 165 -126 279q-124 112 -293.5 112t-288 -109
t-122.5 -280q0 -306 410 -306q175 0 285 63z" />
    <glyph glyph-name="uni0A21" unicode="&#xa21;" horiz-adv-x="1333" 
d="M657 311q-97 66 -249 66q-182 0 -184 -107q0 -75 117 -110q86 -24 190.5 -24t268.5 57q-87 87 -143 118zM897 267q65 108 65 197v9q0 127 -112 197q-116 74 -285 73q-96 0 -162 -19t-123 -19q-161 0 -161 100q0 58 69 92q59 23 111 23t135 -23t131 -23q232 0 399 305
h-981v134h1387v-134h-272q-94 -215 -270 -351q115 -46 192.5 -143.5t77.5 -215.5q0 -245 -193 -366q-154 -97 -418 -101q-154 0 -255 53q-131 68 -140 198q-1 13 -1 25q0 111 74 170q82 65 214 65q75 0 142 -15q187 -38 376 -231z" />
    <glyph glyph-name="uni0A22" unicode="&#xa22;" horiz-adv-x="1338" 
d="M868 117q142 6 142 115q0 21 -2 29q-15 101 -151 101q-33 0 -60 -7q-74 -20 -186 -165q44 -23 74 -39.5q29 -16.5 63 -28.5q22 -8 67 -7q24 0 53 2zM1094 697h-732q0 -174 75 -302q40 -73 96 -138q140 223 339 223q24 0 78 -10t87.5 -34q34.5 -24 58.5 -58
q44 -60 43 -149v-22q-6 -104 -87.5 -162t-202.5 -58q-299 0 -510 300q-107 154 -109 410h-119q-63 0 -63 66q0 90 63 146q96 82 205 82q46 0 46 -31v-132h600v351h-981v134h1384v-134h-271v-482z" />
    <glyph glyph-name="uni0A23" unicode="&#xa23;" horiz-adv-x="1335" 
d="M949 163q35 12 116 40.5t107 28.5t26 -11q0 -22 -62 -71t-178.5 -99.5t-217.5 -50.5q-217 0 -395 92q-209 109 -268 276q61 142 151 265q129 171 271 171h11q148 -7 259 -96v179q-182 77 -274 123q-131 84 -188 169h-322v134h1382v-134h-884q67 -77 360 -186
q199 -69 303 -90v-123q-149 25 -247 66v-409h-31q-66 119 -143 163q-135 75 -212 75q-149 0 -294 -307q74 -109 243 -186q134 -57 270 -63h3q43 0 214 44z" />
    <glyph glyph-name="uni0A24" unicode="&#xa24;" horiz-adv-x="1311" 
d="M1039 931q-64 -136 -184 -234q95 -53 147 -103q98 -99 98 -249t-102.5 -244.5t-269.5 -94.5q-109 0 -219 34.5t-198 68.5q-208 84 -208 125q0 25 43.5 25q43.5 1 154.5 -39q173 -62 231 -72q110 -19 183 -19q252 0 252 229q0 11 -1 23q-6 136 -146 202q-103 48 -261 48
q-103 0 -169 -14.5t-89 -14.5q-157 0 -157 108q0 97 128 97q63 0 176 -28t175 -28q168 0 262 167q46 79 85 261h-983v134h1358v-134h-243q-21 -160 -63 -248z" />
    <glyph glyph-name="uni0A25" unicode="&#xa25;" horiz-adv-x="1300" 
d="M556 299q149 0 364 124v274h-615q-12 -49 -27 -107l-33 -126q127 -165 311 -165zM920 1179h-604q13 -74 22 -159q3 -27 3 -56q0 -63 -13 -136h592v351zM920 291q-182 -126 -385.5 -126t-436.5 264q57 139 103 443q7 39 7 89q0 92 -24 218h-197v134h1345v-134h-280v-1179
h-132v291z" />
    <glyph glyph-name="uni0A26" unicode="&#xa26;" horiz-adv-x="1356" 
d="M1109 600h-724q0 -209 64 -320q92 -157 322 -157q84 0 213 49t144.5 49t15.5 -12q0 -49 -110 -129t-267 -80q-338 0 -453 241q-59 125 -59 357h-146q-46 0 -46 53q-1 67 55 153q31 47 116 93q67 30 103 30q46 0 46 -44v-151h596v447h-996v134h1403v-134h-277v-579z" />
    <glyph glyph-name="uni0A27" unicode="&#xa27;" horiz-adv-x="1292" 
d="M322 1179q17 -102 17 -202q0 -61 -6 -120q-14 -112 -88 -347q127 -165 311 -165q141 0 353 122v712h-587zM1041 0h-132v335q-184 -124 -381 -124t-430 264q70 174 103 397q9 55 9 115q0 90 -20 192h-211v134h1349v-134h-287v-1179z" />
    <glyph glyph-name="uni0A28" unicode="&#xa28;" horiz-adv-x="1280" 
d="M221 410q0 -109 37 -169.5t135 -111.5v-133q-154 67 -215 136q-88 96 -88 274t136 312q136 135 309 152v309h-560v134h1342v-134h-650v-309q174 -17 311 -152q137 -134 137 -312t-87 -274q-62 -69 -215 -136v133q99 51 135 111.5t36 169.5q0 138 -120 238t-260 99
q-142 1 -262 -99t-121 -238z" />
    <glyph glyph-name="uni0A2A" unicode="&#xa2a;" horiz-adv-x="1323" 
d="M1076 1179v-1179h-131v360q-50 -44 -149 -90t-191 -51h-14q-205 0 -357 112q-102 77 -123 136q-3 36 72.5 229t81.5 245q2 10 2 36q0 83 -39.5 142.5t-122.5 59.5h-123v134h200q96 0 157.5 -109.5t61.5 -212.5q0 -26 -4 -58q-44 -262 -156 -435q49 -42 108 -77
q118 -68 220 -72h9q158 0 367 144v820h419v-134h-288z" />
    <glyph glyph-name="uni0A2B" unicode="&#xa2b;" horiz-adv-x="1339" 
d="M475 217q167 -88 280 -90h11q105 0 160 37q58 39 58 103q0 15 -2 24q-18 110 -177 110q-34 0 -62 -6q-176 -40 -268 -178zM1089 809h-625q-144 0 -197 -79q-39 -59 -39 -134t57 -165q22 -23 96 -128q68 88 138 138q123 90 294 90q120 0 211 -72t91 -198.5t-124 -201.5
q-96 -59 -224 -59q-48 0 -85 9q-195 41 -329 148q-255 209 -255 452q0 96 46 172t97 106q41 29 140 56h579v236h-976v134h1386v-134h-281v-370z" />
    <glyph glyph-name="uni0A2C" unicode="&#xa2c;" horiz-adv-x="1278" 
d="M533 657q-117 -52 -312 -280q174 -151 335 -151q99 0 210.5 61.5t130.5 105.5v264h-364zM265 1179q32 -129 97 -212.5t194 -177.5h341v390h-632zM1030 0h-133v241q-65 -85 -299 -141q-40 -10 -61 -8q-211 17 -344 138q-80 69 -112 155q68 146 256 290l81 61
q-41 35 -68.5 57t-48.5 43q-139 139 -169 343h-151v134h1323v-134h-274v-1179z" />
    <glyph glyph-name="uni0A2D" unicode="&#xa2d;" horiz-adv-x="1257" 
d="M213 653q15 -99 149 -99q33 0 83 7q111 18 258 154q-128 122 -274 122q-218 0 -218 -151q0 -25 2 -33zM793 621q-96 -90 -162 -127.5t-148 -55t-119 -17.5q-104 -1 -188 63q-96 73 -97 187v19q0 147 116 219q94 59 250 59q191 0 339 -151q88 95 121 182.5t33 179.5h-957
v134h1318v-134h-230q1 -10 1 -21q0 -88 -38 -200q-42 -126 -156 -237q84 -96 92 -114q57 -90 57 -197q0 -209 -151 -320q-128 -91 -320 -91q-17 0 -35 1q-132 6 -278.5 73t-146.5 109q0 31 36.5 31q35.5 0 87.5 -19q94 -35 165 -48.5t204.5 -13.5t215.5 81.5t82 201.5
t-92 206z" />
    <glyph glyph-name="uni0A2E" unicode="&#xa2e;" horiz-adv-x="1348" 
d="M1096 0h-132v575h-571q-31 -249 -56 -334q-46 -176 -140 -176q-109 0 -109 117q0 50 23 109q43 83 119 265q46 115 46 294.5t-15 240.5q-20 88 -88 88h-188v134h212q160 0 204 -244q11 -60 11 -133q0 -17 -1 -35q-3 -94 -5 -196h558v608h415v-134h-283v-1179z" />
    <glyph glyph-name="uni0A2F" unicode="&#xa2f;" horiz-adv-x="1505" 
d="M316 1179q23 -152 23 -216t-14 -172.5t-101 -336.5q81 -96 148 -138q134 -86 209 -86q111 0 111 186v7l-2 292h439v464h-813zM188 791q21 114 21 171.5t-25 216.5h-197v134h1547v-134h-276v-1179h-129v583h-305v-215q0 -119 -67 -190t-184 -71t-278 102t-214 207
q53 167 107 375z" />
    <glyph glyph-name="uni0A30" unicode="&#xa30;" horiz-adv-x="1271" 
d="M418 736q-155 0 -155 -83q0 -124 184 -325q189 -201 309 -201q66 -1 100 53t33 123v433h-471zM1021 337q0 -142 -55 -230q-68 -109 -216 -109t-311 148t-253 321q-48 94 -48 181q0 220 265 220h486v311h-902v134h1308v-134h-274v-842z" />
    <glyph glyph-name="uni0A32" unicode="&#xa32;" horiz-adv-x="1386" 
d="M705 657l253 522h-524l252 -522h19zM498 767q-132 0 -216 -96t-85 -229q0 -133 94 -227t226 -94v-127q-184 0 -318 129q-128 134 -128 310q1 176 101 299t265 149l-161 298h-297v134h1437v-134h-301l-159 -298q164 -26 263 -151q100 -121 100 -298q-1 -178 -131 -308
t-318 -130v127q134 0 227 93t93 229t-81 226q-84 98 -217 98l-189 -349h-17z" />
    <glyph glyph-name="uni0A33" unicode="&#xa33;" horiz-adv-x="1474" 
d="M793 657l252 522h-524l253 -522h19zM585 767q-131 0 -215.5 -96t-84.5 -229t94 -227t226 -94v-127q-184 0 -318 129q-130 134 -130 310t102 297q101 125 264 151l-159 298h-381v134h1520v-134h-300l-160 -298q164 -26 263 -151q101 -121 101 -298t-130.5 -307.5
t-318.5 -130.5v127q133 0 226.5 93t93.5 229t-82 226q-83 98 -217 98l-188 -349h-17zM140 8.5q-27 -35.5 -74 -35.5t-77.5 30t-30.5 73t27 73q26 37 78 37q104 0 104 -100q0 -42 -27 -77.5z" />
    <glyph glyph-name="uni0A35" unicode="&#xa35;" horiz-adv-x="1283" 
d="M1035 805h-665q-65 0 -115 -29q-67 -33 -67 -85.5t44 -103.5q46 -48 92 -48h684v-131h-513q26 -132 111.5 -209.5t217.5 -77.5q60 0 175 23l-26 -102q-118 -48 -208 -48q-20 0 -46 6q-261 65 -355 362q-11 33 -94.5 63.5t-120.5 61.5q-74 63 -90 180q-2 10 -2 27
q0 90 85.5 164.5t212.5 74.5h550v246h-920v134h1330v-134h-280v-374z" />
    <glyph glyph-name="uni0A36" unicode="&#xa36;" horiz-adv-x="1366" 
d="M355 1179q74 -236 74 -478h555v478h-629zM1117 0h-133v567h-555q-11 -44 -29.5 -125.5t-46.5 -200.5q-39 -178 -129 -178q-29 0 -57 16q-62 34 -62 95.5q-1 61.5 41 149.5q88 186 95 205q48 117 53 221q1 22 1 43q0 77 -14 135q-18 74 -30 127.5t-30 123.5h-236v134h1409
v-134h-277v-1179zM714 214q32 -30 38 -74q1 -6 0 -11q0 -37 -26 -67q-30 -34 -73 -38q-6 -1 -12 -1q-37 0 -67 27q-35 31 -39 75v10q-1 37 27 67q32 34 76 38q6 1 11 1q37 0 65 -27z" />
    <glyph glyph-name="uni0A38" unicode="&#xa38;" horiz-adv-x="1366" 
d="M355 1179q74 -236 74 -478h555v478h-629zM1117 0h-133v567h-555q-11 -44 -29.5 -125.5t-46.5 -200.5q-39 -178 -129 -178q-29 0 -57 16q-62 34 -62 95.5q-1 61.5 41 149.5q88 186 95 205q48 117 53 221q1 22 1 43q0 77 -14 135q-18 74 -30 127.5t-30 123.5h-236v134h1411
v-134h-279v-1179z" />
    <glyph glyph-name="uni0A39" unicode="&#xa39;" horiz-adv-x="1258" 
d="M1008 333q0 -149 -82.5 -241t-228.5 -92q-107 0 -233 65q-115 64 -199 156q-154 174 -154 348q0 88 74 165t194 77h101v-132h-83q-154 0 -154 -120v-11q6 -111 136 -253q154 -163 309 -163q190 0 190 196v851h-899v134h1308v-134h-279v-846z" />
    <glyph glyph-name="uni0A3C" unicode="&#xa3c;" horiz-adv-x="0" 
d="M-125.5 -168.5q8.5 -19.5 8.5 -42.5t-8.5 -43t-22.5 -34q-32 -32 -65.5 -32t-53.5 8.5q-21 9.5 -35 23.5q-32 32 -31.5 66t9 53.5t22.5 33.5q52 32 65 32h2q34 0 53 -9t33.5 -23t23 -33.5z" />
    <glyph glyph-name="uni0A3E" unicode="&#xa3e;" horiz-adv-x="516" 
d="M209 513h-131v666h-105v134h560v-134h-324v-666z" />
    <glyph glyph-name="uni0A3F" unicode="&#xa3f;" horiz-adv-x="519" 
d="M267 0h-132v1179h-166v134h166v118q0 212 77 333q92 147 345 147q96 0 181 -51.5q84 -51.5 120 -147.5q31 -84 32 -174q0 -13 -1 -26h-129q-2 33 -13 100q-29 174 -228 174q-175 0 -228 -169q-24 -81 -24 -262v-42h277v-134h-277v-1179z" />
    <glyph glyph-name="uni0A40" unicode="&#xa40;" horiz-adv-x="528" 
d="M-19 1179v134h98v29q0 191 -25 275q-50 169 -227 169q-199 0 -228 -174q-4 -14 -13 -100h-130v19q0 96 36 192q27 85 114 136.5t183 51.5q257 0 345 -147q77 -121 77 -333v-118h338v-134h-338v-1179h-132v1179h-98z" />
    <glyph glyph-name="uni0A41" unicode="&#xa41;" horiz-adv-x="17" 
d="M-311 -311q-206 -78 -376 -82h-15q-164 0 -359 82v133q206 -83 382 -83t368 81v-131z" />
    <glyph glyph-name="uni0A42" unicode="&#xa42;" horiz-adv-x="20" 
d="M-311 -618q-209 -77 -378 -81h-14q-163 0 -358 81v133q206 -82 382 -82t368 80v-131zM-311 -311q-206 -78 -376 -82h-15q-164 0 -359 82v133q206 -83 382 -83t368 81v-131z" />
    <glyph glyph-name="uni0A47" unicode="&#xa47;" horiz-adv-x="20" 
d="M-561 1744q59 -42 172.5 -192.5t113.5 -208.5q0 -8 -4 -8q-11 0 -51 51q-147 190 -325 297q-109 63 -344 74q-30 27 -30 66q0 79 94 79q19 0 30 -2q174 -20 344 -156z" />
    <glyph glyph-name="uni0A48" unicode="&#xa48;" horiz-adv-x="20" 
d="M-273 1343q-34 16 -215.5 108q-181.5 91 -259.5 109q-62 14 -113 14h-25q-59 -4 -77 -5h-33q-120 0 -120 59q0 60 116 74q25 3 51 3q148 0 336 -100q82 -44 148 -92.5t111 -79.5v3q0 22 -60 105q-66 90 -167 180q-170 151 -331 151h-18q-46 -4 -77 -4t-47 4q-40 6 -40 54
q0 57 94 77q25 7 67 7q260 0 491 -318q82 -116 130 -226q40 -91 41 -115q0 -6 -2 -8z" />
    <glyph glyph-name="uni0A4B" unicode="&#xa4b;" horiz-adv-x="20" 
d="M-312 1472h-1q-23 0 -53 87q-30 89 -35 97q-32 31 -117 31h-23q-34 0 -105 -1h-19q-71 0 -203 6q-54 8 -90 81q-23 61 -24 104q1 127 10 127q30 0 48 -92q4 -20 11 -49q16 -27 53 -48q11 -7 96 -11h98q28 0 72 -1.5t104 -3.5q113 -7 152 -68q20 -30 28.5 -109t8.5 -113.5
t-11 -36.5z" />
    <glyph glyph-name="uni0A4C" unicode="&#xa4c;" horiz-adv-x="20" 
d="M-369 1464q27 66 42 151q-25 152 -163 154q-58 0 -106 -46q-49 -48 -53 -111q-1 -4 -1 -10q0 -24 18 -74q20 -56 20 -65q0 -6 -11 -6q-9 0 -24 8.5t-29 22.5q-37 35 -42 51q-17 33 -24 124q-7 55 -68 55h-11q-16 -1 -31 -1q-90 0 -163 36q-102 41 -123 100q-12 33 -12 69
l1 28q0 56 17 60q10 0 28.5 -51.5t40.5 -73.5q74 -60 210 -60h13q98 1 204 31q79 23 144 22q116 0 186 -72q62 -64 62 -162q0 -57 -15.5 -90.5t-48 -64t-45 -30.5t-16.5 5z" />
    <glyph glyph-name="uni0A4D" unicode="&#xa4d;" horiz-adv-x="0" 
d="M-669 -107q108 -7 190 -45q113 -66 195 -158q100 -112 163 -249l-58 -25l-93 140q-39 44 -51.5 54.5t-40 34t-48 37.5t-57.5 43q-78 42 -154 49q-19 2 -36.5 4t-33.5 1v114h24z" />
    <glyph glyph-name="uni0A59" unicode="&#xa59;" horiz-adv-x="1303" 
d="M1052 0h-130v357q-130 -79 -317 -79h-18q-129 2 -275.5 58.5t-200.5 152.5q2 21 49 149q73 198 81 302q2 24 2 46q0 73 -21 125q-27 68 -47 68h-184v134h197q59 0 111 -53q40 -46 55.5 -102t15.5 -220h552v375h411v-134h-281v-1179zM353 807q-4 -31 -50 -152.5
t-56 -137.5q98 -86 328 -103h43q162 0 304 75v318h-569zM256 73.5q-26 -33.5 -72 -33.5t-77 21q-32 29 -32 75t26 77q26 36 79 36q102 0 102 -100q0 -42 -26 -75.5z" />
    <glyph glyph-name="uni0A5A" unicode="&#xa5a;" horiz-adv-x="1561" 
d="M600 690q-272 0 -272 -197q0 -109 84 -225q27 -38 61 -67q77 -69 165 -69q113 0 138 117v441h-176zM1311 0h-132v1179h-272v-872q0 -307 -269 -307q-155 0 -267 107.5t-156 271.5q-16 52 -16 112q0 138 92 230q94 99 244 99h241v359h-789v134h1604v-134h-280v-1179z
M168.5 10.5q-26.5 -35.5 -72.5 -35.5t-77.5 30t-31.5 74t28 72q27 37 75 37t76.5 -28t28.5 -71t-26.5 -78.5z" />
    <glyph glyph-name="uni0A5B" unicode="&#xa5b;" horiz-adv-x="1336" 
d="M1087 0h-131v567h-586v-567h-134v567h-107q-77 0 -77 77q0 105 71.5 173t177.5 68q69 0 69 -57v-129h586v480h-977v134h1386v-134h-278v-1179zM725.5 59.5q-28.5 -34.5 -74.5 -34.5t-80 28t-34 76.5t29.5 79t76.5 30.5t79 -27.5t32 -72.5t-28.5 -79.5z" />
    <glyph glyph-name="uni0A5C" unicode="&#xa5c;" horiz-adv-x="1339" 
d="M1133 1179q-33 -200 -234 -364q69 -21 136 -95q61 -67 61 -162v-17q-13 -248 -272 -361q4 -5 23 -22.5t60.5 -58t41.5 -73t-32 -32.5t-126 76.5t-109 80.5q-71 -4 -112 -7.5t-60 -1.5q-163 13 -247 55q90 -134 90 -166.5t-29 -32.5q-66 0 -198 209q-14 23 -38.5 58.5
t-26.5 69.5v9q0 51 46 51q15 0 35 -4q230 -119 452 -119q153 0 247 63q125 86 125 204q0 178 -272 178q-107 1 -199 -11l-108 -14q-23 -1 -45 -1q-215 1 -215 93t239 91q26 0 55 -1q66 -4 138 -14.5t100 -10.5q110 0 226 121q75 80 119 209h-1017v134h1383v-134h-237z" />
    <glyph glyph-name="uni0A5E" unicode="&#xa5e;" horiz-adv-x="1345" 
d="M483 217q165 -88 278 -90h11q104 0 160 37q58 39 59 103q0 15 -2 24q-19 110 -178 110q-33 0 -62 -6q-174 -40 -266 -178zM1096 809h-625q-145 0 -197 -79q-40 -59 -40 -134t57 -165q22 -23 96 -128q69 88 139 138q122 90 294 90q121 0 211.5 -72t90.5 -198.5
t-125 -201.5q-96 -59 -223 -59q-49 0 -86 9q-195 41 -328 148q-255 209 -255 452q0 96 46 172t96 106q42 29 140 56h579v236h-977v134h1387v-134h-280v-370zM172 161q30 -34 30.5 -76.5t-32 -74t-76.5 -31.5t-75.5 32.5t-31.5 76.5t34 74.5q33 30.5 77 31.5h3q41 0 71 -33z
" />
    <glyph glyph-name="uni0A66" unicode="&#xa66;" horiz-adv-x="1378" 
d="M67 679q0 252 174 426.5t424 174.5t425.5 -175.5t175.5 -425.5t-174.5 -424t-426.5 -174t-425 173t-173 425zM998 1012q-136 136 -332.5 136t-331.5 -137t-135 -329.5t136 -332.5q140 -136 332.5 -136t329.5 135t137 331.5t-136 332.5z" />
    <glyph glyph-name="uni0A67" unicode="&#xa67;" horiz-adv-x="1113" 
d="M295 874q86 -52 188 -52t205 46q136 60 136 162v9q-11 228 -307 228q-124 0 -214 -50q-108 -64 -108 -168q0 -110 100 -175zM954.5 943.5q-3.5 -73.5 -7.5 -162.5t-8 -123q-15 -129 -15 -235q0 -206 73 -366q55 -90 86 -145q4 -13 4 -19t-28.5 -6t-65.5 27
q-171 126 -195 490q-2 23 -1 77q0 142 29 341q-109 -130 -353 -130q-145 0 -260 82q-142 102 -149 257v18q0 143 107 237q125 113 336 113q16 0 32 -1q419 -18 419 -396q0 15 -3.5 -58.5z" />
    <glyph glyph-name="uni0A68" unicode="&#xa68;" horiz-adv-x="1274" 
d="M109 1173q-59 0 -59 59q0 70 193 111q129 29 307 29q587 0 587 -495v-5q-2 -454 -547 -594q326 -157 326 -230q0 -42 -48 -42q-23 0 -261 119q-72 40 -162 70q-150 16 -274 35q-125 25 -127 96q-1 10 -1 20q0 112 120 112q36 0 84 -17q146 -56 224 -56q175 6 336 115
q199 137 199 365v9q-7 351 -437 366q-26 1 -51 1q-134 0 -252 -31q-142 -37 -157 -37z" />
    <glyph glyph-name="uni0A69" unicode="&#xa69;" horiz-adv-x="1275" 
d="M1025 826q-36 -26 -34 -39t37 -42q101 -71 101 -184v-15q-12 -241 -386 -353q36 -20 83 -30q61 -19 105 -34q121 -48 121 -83q0 -44 -59 -44q-73 0 -166 38l-280 112q-49 16 -73.5 23t-283.5 59q-147 31 -147 123q0 6 1 13q6 86 123 86q92 0 168 -59q132 -98 251 -104h18
q111 0 235 69q154 81 154 182.5t-66 150t-164 48.5q-38 0 -192.5 -20t-229.5 -20q-188 0 -192 83q0 57 96 84q66 17 116.5 17t93.5 -4.5t99 -12.5q96 -14 171 -15q272 0 285 186v10q0 98 -171 147q-111 34 -231 39h-24q-121 0 -367 -41q-83 -13 -98 -13q-75 0 -75 59
q0 128 539 128q219 0 377 -80q182 -89 182 -251q0 -130 -117 -213z" />
    <glyph glyph-name="uni0A6A" unicode="&#xa6a;" horiz-adv-x="1180" 
d="M763 513q-69 31 -217.5 31t-221.5 -31q-105 -51 -105 -185q0 -196 324.5 -196t324.5 196q0 134 -105 185zM255 771q102 -96 289.5 -96t287.5 96q84 84 84 197q0 184 -217 249v131q349 -70 349 -371q0 -131 -84 -227q-23 -26 -63 -70q-38 -40 -38 -59.5q1 -20.5 45 -62.5
q42 -40 66.5 -90t24.5 -140q0 -168 -148 -257q-123 -73 -307 -73t-305 73q-151 86 -151 257q0 90 27 141.5q27 52.5 65 90.5q44 44 44 57q0 23 -38 63q-80 86 -96 115q-50 83 -50 182q0 301 347 371v-131q-216 -65 -216 -249q0 -113 84 -197z" />
    <glyph glyph-name="uni0A6B" unicode="&#xa6b;" horiz-adv-x="1220" 
d="M1033 0h-132v360q-50 -44 -149 -90t-191 -51h-14q-205 0 -357 112q-102 77 -123 136q-3 32 73 227q84 218 84 292t-40 133.5t-123 59.5h-48v134h125q96 0 157.5 -109.5t61.5 -212.5q0 -26 -4 -58q-44 -262 -156 -435q49 -42 108 -77q118 -68 221 -72h8q157 0 367 144v820
h132v-1313z" />
    <glyph glyph-name="uni0A6C" unicode="&#xa6c;" horiz-adv-x="1044" 
d="M677 529l-240 19q-240 0 -268 -203q-2 -12 -2 -38q0 -175 230 -175h412q96 0 100 -71q1 -6 1 -11q0 -35 -29 -46q-18 -4 -72 -4h-478q-134 0 -214 99.5t-80 235.5q0 90 59 178.5t59 95.5q-28 60 -75 156t-47 178q0 151 134 230q113 67 272 67q64 0 182 -21
q-108 133 -113 205q-1 11 -1 22q0 250 286 252q39 0 116 -23q86 -31 86 -67q0 -19 -29 -19l-169 21q-63 0 -111 -41.5t-48 -102.5q0 -90 87 -197q24 -28 99 -71t75 -78q0 -11 -7 -26q-20 -49 -75 -49q-33 0 -84 17q-159 53 -271.5 53t-168.5 -26q-126 -60 -126 -171
q1 -116 79 -182q76 -66 191 -65q37 0 99 13q101 21 151.5 21t116.5 -18t70 -60v-6q0 -92 -197 -92z" />
    <glyph glyph-name="uni0A6D" unicode="&#xa6d;" horiz-adv-x="1322" 
d="M1194 914q-4 -335 -263 -529q-175 -129 -463 -257t-401 -128q-38 0 -36 21q2 27 118 80l144 59q165 72 376.5 200.5t294.5 226.5q48 59 76.5 147t28.5 165q0 157 -136 260q-98 73 -250 73h-16q-69 -3 -151 -42.5t-106 -95.5q-9 -25 -17 -47t-14 -43q-24 -55 -65 -57
q-9 -1 -16 -1q-74 0 -74 104q0 138 165 228q155 84 292 83h18q90 -5 185 -34.5t146 -73.5q164 -139 164 -330v-9z" />
    <glyph glyph-name="uni0A6E" unicode="&#xa6e;" horiz-adv-x="1354" 
d="M201 883q0 76 6 108h-132q-46 0 -46 46t26 105q43 94 118.5 133.5t119.5 39.5t44 -48v-145h892v-131h-892q-2 -18 -2 -38v-44q0 -258 77 -422q153 -320 598 -355q12 -3 50 0q59 6 75 6q92 0 92 -69t-232 -69q-233 0 -429 120q-366 222 -365 763z" />
    <glyph glyph-name="uni0A6F" unicode="&#xa6f;" horiz-adv-x="1343" 
d="M1010 979q-28 5 -115 5h-558q-2 -20 -2 -43v-49q0 -246 77 -405q157 -322 598 -355q12 -3 50 0q59 6 75 6q92 0 92 -69t-233 -69t-427.5 118t-292.5 342q-73 167 -73 408q0 80 6 116h-136q-50 0 -50 55q0 42 23 98.5t49 81.5t94 59.5t106 34.5q44 0 44 -46v-152h550
q-46 60 -61 81q-46 79 -48 138q-1 14 -1 27q-1 114 69 177q78 70 214 70h13q55 0 119 -28q72 -32 73 -62q0 -21 -31 -21l-169 21q-61 0 -109 -37q-51 -44 -51 -116t90 -186q28 -33 95 -63q71 -32 71 -82q0 -55 -151 -55z" />
    <glyph glyph-name="uni0A70" unicode="&#xa70;" 
d="M-544 1629q4 -28 34 -96.5t30 -77t-12 -8.5t-56 50q-73 82 -73 166q0 82 60 156q69 88 226 88q160 0 226 -88q59 -75 59 -156q0 -63 -22.5 -99t-57.5 -76.5t-47.5 -40.5t-12.5 8.5t29.5 77t33.5 96.5q1 7 1 14q0 73 -60 117q-65 50 -148.5 50t-149.5 -50
q-60 -46 -60 -118v-13z" />
    <glyph glyph-name="uni0A71" unicode="&#xa71;" horiz-adv-x="182" 
d="M-206 1179v134h419v-134h-419zM-233 1838q9 -113 85 -192.5t189 -79.5q114 0 188 80q66 76 86 192h58q-3 -160 -85 -272q-94 -119 -247 -119t-248 119q-83 112 -83 262v10h57z" />
    <glyph glyph-name="uni0A72" unicode="&#xa72;" horiz-adv-x="1365" 
d="M293 1179q58 -206 202 -309q55 -40 141 -57h348v366h-691zM1065 682l-147 4h-44q-188 -4 -281 -29.5t-204 -106.5t-155 -159q21 -38 121 -113q76 -52 130 -83q158 -84 279 -84h16q81 2 140 42t114 96t68 56t13 -25q0 -65 -94 -166t-206 -112h-15q-59 0 -154 13
q-161 31 -280 98q-222 136 -274 272q25 95 151 209q131 113 194 149q-60 52 -172 181q-83 127 -102 255h-184v134h1411v-134h-277v-497h-48z" />
    <glyph glyph-name="uni0A73" unicode="&#xa73;" horiz-adv-x="1488" 
d="M791 631q-17 0 -40 -3q-77 -10 -435 -10q39 -143 98 -246q145 -240 383 -240h14q111 4 187 60q68 50 68 136q0 10 -1 22q-9 102 -105 198q-88 83 -169 83zM278 1179q0 -254 17 -430h249q217 2 282 27q140 48 211 131q78 97 144 272h-903zM147 1313q0 276 155.5 424.5
t435 148.5t426.5 -147.5t147 -425.5h203v-134h-201q-57 -184 -123 -278q-83 -127 -232 -200q238 -141 238 -356q0 -144 -85 -236q-99 -109 -291 -109q-314 0 -489 247q-145 209 -174 544q-11 141 -11 289q0 49 1 99h-162v134h162zM1115 1587q-103 168 -375.5 168
t-388.5 -168q-73 -110 -73 -274h901q-8 186 -64 274z" />
    <glyph glyph-name="uni0A74" unicode="&#xa74;" horiz-adv-x="2494" 
d="M1656 631q-4 1 -26 -3q-61 -10 -416 -10q36 -142 99 -246q144 -238 382 -238h14q117 3 182 54q73 54 73 154q0 9 -1 18q-6 92 -107 179q-102 92 -193 92h-7zM1177 1179q0 -254 17 -430h237q212 4 271 27q139 50 211 131q76 93 145 272h-881zM390 822q98 0 189 44
q124 65 124 178q-1 216 -275 216q-272 0 -271 -214v-9q4 -102 69.5 -158.5t163.5 -56.5zM843 998q0 -153 -18 -363t-18 -212q0 -206 65 -366l79 -145q5 -8 5 -13q0 -12 -28.5 -12t-66.5 27q-158 120 -194 448q-6 36 -6 92q0 110 31 337q-146 -101 -301.5 -101t-260.5 94
t-105 244q0 364 397 364q15 0 30 -1q200 -6 295.5 -93t95.5 -286v-14zM2273 1179h-84q-61 -185 -113.5 -261.5t-110 -125.5t-131.5 -91q263 -139 263 -355q0 -138 -88 -237q-102 -109 -291 -109q-445 0 -603 486q-45 136 -55 258q-16 189 -16 369q0 33 1 66h-96v134h96
q20 270 163.5 433t397.5 163t412 -191q59 122 197 213q134 88 266 87h9q291 -3 479 -221q86 -99 125 -208q15 -41 15 -77q0 -57 -43 -57q-37 0 -68 75q-31 74 -114 175q-157 186 -383 186h-7q-131 0 -255.5 -98t-124.5 -222v-13q0 -6 2.5 -13t5.5 -25.5l9 -55.5
q6 -36 -5 -60q-17 -37 -52 -37h-7q-51 5 -61 65q-26 166 -145 264q-105 86 -237 86h-12q-342 0 -411 -350q-10 -50 -22 -119h1094v-134z" />
    <glyph glyph-name="_21" horiz-adv-x="1034" 
d="M792 1864h-548v-1727h548v1727zM929 2001v-2001h-822v2001h822z" />
    <glyph glyph-name="uni0A30_uni0A4D" horiz-adv-x="13" 
d="M-281 -288q39 -26 139 -113q118 -109 128 -159q3 -18 -13 -26q-3 -2 -8 -2q-18 0 -56 27q-48 33 -62 45q-146 120 -181 120h-2q-45 -124 -154 -124q-7 -1 -14 -1q-51 0 -103 33q-37 35 -49 81q-2 15 -2 28q0 114 120 157h21q80 0 124 -27q10 22 12 228l120 -3v-21
q0 -130 -20 -243z" />
    <glyph glyph-name="uni0A35_uni0A4D" horiz-adv-x="13" 
d="M-648 -261q-108 0 -108 -78q0 -27 36.5 -54.5t66.5 -27.5h358v-92h-261q23 -170 151 -170q20 0 43 4q4 2 19 5t40 10q-6 -29 -15 -46q-34 -44 -94 -44q-116 0 -171 75q-12 11 -48 85q-13 41 -26.5 64t-42 35t-42.5 19l-32 16q-67 34 -75 123v10q0 61 44 107q48 49 115 49
h320v108h90v-198h-368z" />
    <glyph glyph-name="uni0A39_uni0A4D" horiz-adv-x="20" 
d="M-259 -361q0 -139 -74 -214.5t-198 -75.5t-246 117q-99 108 -99 194q0 141 167 141q73 0 76 -27t-20 -28.5t-73.5 -13t-50.5 -68q-1 -56.5 87 -138.5q84 -79 175 -79h7q98 3 124 125q6 30 6 65v315h119v-313z" />
    <glyph glyph-name="uni0A2F_uni0A4D" horiz-adv-x="1112" 
d="M951 0h-134v583h-286q0 -273 -18 -374q-23 -119 -187 -119q-65 0 -111 21q-5 2 -44.5 28t-115.5 74q2 15 2 145q8 -5 42 -21t68 -43q95 -74 149 -74q83 0 83 157v338h418v464h-838v134h1253v-134h-281v-1179z" />
    <glyph glyph-name="uni0A4D_uni0A1A" horiz-adv-x="20" 
d="M-725 -408q11 -65 39 -155q30 -64 62.5 -81t106.5 -17q147 0 147 146v107h-355zM-763 -627q-23 51 -57 219h-65q-64 0 -64 42q0 34 48 94q37 40 101 58q20 6 33 5q37 0 37 -38v-64h360v246h100v-466q0 -71 -46 -133q-69 -92 -199 -92q-188 0 -248 129z" />
    <glyph glyph-name="uni0A4D_uni0A1F" horiz-adv-x="20" 
d="M-572 -301q-131 -32 -254 -207q62 -56 158 -111.5t158 -55.5q111 0 175 73q32 36 42 39q15 0 15 -18q0 -37 -54 -87.5t-89 -63.5q-51 -19 -95 -19q-90 0 -240 87q-131 74 -162 147q10 68 111 165.5t164 117.5q110 36 271 52v115h92v-188q-11 1 -24 1q-86 0 -268 -47z" />
    <glyph glyph-name="uni0A4D_uni0A24" horiz-adv-x="20" 
d="M-922 -585q0 16 22 16t56 -17t50.5 -26.5t48.5 -24.5q73 -34 118 -34q68 0 114 14q122 35 122 122q0 65 -71 114q-80 57 -184 57q-18 0 -36 -2q-34 -3 -64.5 -12t-58.5 -9q-84 0 -84 73q0 57 98 57q18 -1 91 -15q57 -11 99 -11q12 0 22 1q133 9 192 219h102
q-21 -94 -43 -130q-39 -66 -119 -131q150 -89 154 -199v-9q0 -107 -86 -167q-75 -55 -196 -55q-129 0 -238 71t-109 98z" />
    <glyph glyph-name="uni0A4D_uni0A28" horiz-adv-x="20" 
d="M-441 -677q123 48 123 184q0 53 -42 101q-62 71 -184 71t-184 -71q-41 -49 -41 -101q0 -136 123 -184v-92q-214 73 -217 278v12q0 80 70 158q76 85 199 88v189h99v-189q125 -3 204 -92q67 -73 67 -166q-3 -205 -217 -278v92z" />
    <glyph glyph-name="uni0A2F_uni0A4D_uni0A2F_uni0A4D" horiz-adv-x="20" 
d="M156 -363h-115q0 -99 -10 -156q-23 -125 -113 -125q-49 0 -172 53q-47 21 -100 70q-64 53 -64 90q-1 3 -1 8q0 25 26 103q31 92 37 127.5t6 88t-14 89.5h139q11 -46 11 -106q0 -40 -5 -87q-1 -24 -35 -107q-27 -67 -28 -87q0 -5 2 -7l-1 -1q0 -9 52 -48q57 -43 92 -43
q53 0 53 76v186h248z" />
    <glyph glyph-name="uni0A39_uni0A4D_uni0A39_uni0A4D" horiz-adv-x="20" 
d="M-482 -239q94 -83 107 -91q15 -15 139 -40q91 -47 91 -125q0 -8 -1 -17q-3 -59 -31 -59q-3 0 -5 1q-216 37 -391 296q-75 106 -109 194h56q48 -80 144 -159z" />
    <glyph glyph-name="uni0A30_uni0A4D_uni0A41" horiz-adv-x="6" 
d="M-281 -288q39 -26 139 -113q118 -109 128 -159q3 -18 -13 -26q-3 -2 -8 -2q-18 0 -56 27q-48 33 -62 45q-146 120 -181 120h-2q-45 -124 -154 -124q-7 -1 -14 -1q-51 0 -103 33q-37 35 -49 81q-2 15 -2 28q0 114 120 157h21q80 0 124 -27q10 22 12 228l120 -3v-21
q0 -130 -20 -243zM-86 -603v-106q-178 -77 -314 -77t-304 77v106q178 -78 312 -78t288 71z" />
    <glyph glyph-name="uni0A39_uni0A4D_uni0A41" horiz-adv-x="14" 
d="M-200 -701v-106q-178 -77 -314 -77t-304 77v106q178 -78 312 -78t288 71zM-259 -361q0 -139 -74 -214.5t-198 -75.5t-246 117q-99 108 -99 194q0 141 167 141q73 0 76 -27t-20 -28.5t-73.5 -13t-50.5 -68q-1 -56.5 87 -138.5q84 -79 175 -79h7q98 3 124 125q6 30 6 65
v315h119v-313z" />
    <glyph glyph-name="uni0A75_uni0A41" horiz-adv-x="15" 
d="M-151 -673v-106q-178 -77 -314 -77t-304 77v106q178 -78 312 -78t288 71zM156 -363h-115q0 -99 -10 -156q-23 -125 -113 -125q-49 0 -172 53q-47 21 -100 70q-64 53 -64 90q-1 3 -1 8q0 25 26 103q31 92 37 127.5t6 88t-14 89.5h139q11 -46 11 -106q0 -40 -5 -87
q-1 -24 -35 -107q-27 -67 -28 -87q0 -5 2 -7l-1 -1q0 -9 52 -48q57 -43 92 -43q53 0 53 76v186h248z" />
    <glyph glyph-name="uni0A51_uni0A41" horiz-adv-x="6" 
d="M-482 -239q94 -83 107 -91q15 -15 139 -40q91 -47 91 -125q0 -8 -1 -17q-3 -59 -31 -59q-3 0 -5 1q-216 37 -391 296q-75 106 -109 194h56q48 -80 144 -159zM-86 -674v-106q-178 -77 -314 -77t-304 77v106q178 -78 312 -78t288 71z" />
    <glyph glyph-name="uni0A30_uni0A4D_uni0A42" horiz-adv-x="6" 
d="M-281 -288q39 -26 139 -113q118 -109 128 -159q3 -18 -13 -26q-3 -2 -8 -2q-18 0 -56 27q-48 33 -62 45q-146 120 -181 120h-2q-45 -124 -154 -124q-7 -1 -14 -1q-51 0 -103 33q-37 35 -49 81q-2 15 -2 28q0 114 120 157h21q80 0 124 -27q10 22 12 228l120 -3v-21
q0 -130 -20 -243zM-86 -581v-96q-178 -77 -314 -77t-304 77v96q178 -78 312 -78t288 71zM-86 -771v-96q-178 -77 -314 -77t-304 77v96q178 -78 312 -78t288 71z" />
    <glyph glyph-name="uni0A39_uni0A4D_uni0A42" 
d="M-207 -581v-96q-178 -77 -314 -77t-304 77v96q178 -78 312 -78t288 71zM-207 -771v-96q-178 -77 -314 -77t-304 77v96q178 -78 312 -78t288 71zM-259 -311q0 -139 -74 -214.5t-198 -75.5t-246 117q-99 108 -99 194q0 141 167 141q73 0 76 -27t-20 -28.5t-73.5 -13
t-50.5 -68q-1 -56.5 87 -138.5q84 -79 175 -79h7q98 3 124 125q6 30 6 65v315h119v-313z" />
    <glyph glyph-name="_191" horiz-adv-x="232" 
d="M-27 1179v134h280v-134h-280zM-90 1629q4 -28 34 -96.5t30 -77t-12 -8.5t-56 50q-73 82 -73 166q0 82 60 156q69 88 226 88q160 0 226 -88q59 -75 59 -156q0 -63 -22.5 -99t-57.5 -76.5t-47.5 -40.5t-12.5 8.5t29.5 77t33.5 96.5q1 7 1 14q0 73 -60 117q-65 50 -148.5 50
t-149.5 -50q-60 -46 -60 -118v-13z" />
    <glyph glyph-name="uni0A15_uni0A30_uni0A4D" horiz-adv-x="1414" 
d="M708 699q-110 87 -238.5 87t-202.5 -77.5t-74 -187t66.5 -187t171.5 -91.5q12 -1 24 -1q83 0 187 62q31 18 55 43q79 71 160 205q-73 73 -110 109t-39 38zM1186 1048q-10 -85 -36 -182q-48 -184 -142 -320q19 -40 76 -175q85 -202 135 -371h-138q-28 67 -62 170
q-54 161 -92 257q-90 -153 -197 -220q-149 -94 -278 -94q-184 0 -299 146q-90 115 -90 258q0 182 130 298q118 102 284 102q12 0 25 -1q213 -11 427 -249q41 65 77.5 185.5t47.5 186t13 140.5h-1084v134h1445v-134h-230zM683 -288q39 -26 139 -113q118 -109 128 -159
q3 -18 -13 -26q-3 -2 -8 -2q-18 0 -56 27q-48 33 -62 45q-146 120 -181 120h-2q-45 -124 -154 -124q-7 -1 -14 -1q-51 0 -103 33q-37 35 -49 81q-2 15 -2 28q0 114 120 157h21q80 0 124 -27q10 22 12 228l120 -3v-21q0 -130 -20 -243z" />
    <glyph glyph-name="uni0A28_uni0A42_uni0A70" horiz-adv-x="1291" 
d="M221 410q0 -109 37 -169.5t135 -111.5v-133q-154 67 -215 136q-88 96 -88 274t136 312q136 135 309 152v309h-560v134h1342v-134h-650v-309q174 -17 311 -152q137 -134 137 -312t-87 -274q-62 -69 -215 -136v133q99 51 135 111.5t36 169.5q0 138 -120 238t-260 99
q-142 1 -262 -99t-121 -238zM399 1624q4 -28 34 -96.5t30 -77t-12 -8.5t-56 50q-73 82 -73 166q0 82 60 156q69 88 226 88q160 0 226 -88q59 -75 59 -156q0 -63 -22.5 -99t-57.5 -76.5t-47.5 -40.5t-12.5 8.5t29.5 77t33.5 96.5q1 7 1 14q0 73 -60 117q-65 50 -148.5 50
t-149.5 -50q-60 -46 -60 -118v-13zM983 -622q-209 -77 -378 -81h-14q-163 0 -358 81v133q206 -82 382 -82t368 80v-131zM983 -315q-206 -78 -376 -82h-15q-164 0 -359 82v133q206 -83 382 -83t368 81v-131z" />
    <glyph glyph-name="uni0A3E_uni0A02" horiz-adv-x="508" 
d="M209 513h-131v666h-105v134h560v-134h-324v-666zM152 1754q29 0 55 -11.5q26 -12.5 45 -30.5q40 -39 40 -83t-11 -69.5t-30.5 -44.5t-44.5 -30.5t-54 -11.5t-54.5 11t-43.5 30q-42 43 -42 85.5t11.5 68.5t30 44.5t44 30t54.5 11.5z" />
    <glyph glyph-name="uni0A09_uni0A71" horiz-adv-x="1899" 
d="M791 631q-17 0 -40 -3q-77 -10 -435 -10q39 -143 98 -246q145 -240 383 -240h14q111 4 187 60q68 50 68 136q0 10 -1 22q-9 102 -105 198q-88 83 -169 83zM278 1179q0 -254 17 -430h249q217 2 282 27q140 48 211 131q78 97 144 272h-903zM147 1313q0 276 155.5 424.5
t435 148.5t426.5 -147.5t147 -425.5h203v-134h-201q-57 -184 -123 -278q-83 -127 -232 -200q238 -141 238 -356q0 -144 -85 -236q-99 -109 -291 -109q-314 0 -489 247q-145 209 -174 544q-11 141 -11 289q0 49 1 99h-162v134h162zM1115 1587q-103 168 -375.5 168
t-388.5 -168q-73 -110 -73 -274h901q-8 186 -64 274zM1188 -311q-206 -78 -376 -82h-15q-164 0 -359 82v133q206 -83 382 -83t368 81v-131zM1505 1179v134h419v-134h-419zM1478 1838q9 -113 85 -192.5t189 -79.5q114 0 188 80q66 76 86 192h58q-3 -160 -85 -272
q-94 -119 -247 -119t-248 119q-83 112 -83 262v10h57z" />
    <glyph glyph-name="uni0A0A_uni0A71" horiz-adv-x="1914" 
d="M791 631q-17 0 -40 -3q-77 -10 -435 -10q39 -143 98 -246q145 -240 383 -240h14q111 4 187 60q68 50 68 136q0 10 -1 22q-9 102 -105 198q-88 83 -169 83zM278 1179q0 -254 17 -430h249q217 2 282 27q140 48 211 131q78 97 144 272h-903zM147 1313q0 276 155.5 424.5
t435 148.5t426.5 -147.5t147 -425.5h203v-134h-201q-57 -184 -123 -278q-83 -127 -232 -200q238 -141 238 -356q0 -144 -85 -236q-99 -109 -291 -109q-314 0 -489 247q-145 209 -174 544q-11 141 -11 289q0 49 1 99h-162v134h162zM1115 1587q-103 168 -375.5 168
t-388.5 -168q-73 -110 -73 -274h901q-8 186 -64 274zM1140 -609q-209 -77 -378 -81h-14q-163 0 -358 81v133q206 -82 382 -82t368 80v-131zM1140 -302q-206 -78 -376 -82h-15q-164 0 -359 82v133q206 -83 382 -83t368 81v-131zM1515 1179v134h419v-134h-419zM1488 1838
q9 -113 85 -192.5t189 -79.5q114 0 188 80q66 76 86 192h58q-3 -160 -85 -272q-94 -119 -247 -119t-248 119q-83 112 -83 262v10h57z" />
    <glyph glyph-name="uni0A13_uni0A71" horiz-adv-x="1902" 
d="M769 631q-18 0 -41 -3q-77 -10 -435 -10q40 -143 100 -246q144 -240 382 -240h14q112 4 181 56q74 53 74 143v19q-8 102 -100.5 191.5t-174.5 89.5zM1290 1179q-56 -184 -122 -278q-80 -124 -233 -200q240 -141 240 -356q0 -144 -86 -236q-98 -109 -292 -109
q-312 0 -488 247q-144 209 -173 544q-12 126 -12 297q0 44 1 91h-140v134h140q15 276 170 447q169 182 441 182h9q9 0 20 2h99q412 0 412 -100q0 -38 -232 -40q-50 2 -126.5 2t-122.5 2q-397 0 -496 -310q-25 -78 -42 -185h1248v-134h-215zM257 1179q0 -273 17 -430h247
q217 2 284 27q140 48 214.5 138t139.5 265h-902zM1505 1179v134h419v-134h-419zM1478 1838q9 -113 85 -192.5t189 -79.5q114 0 188 80q66 76 86 192h58q-3 -160 -85 -272q-94 -119 -247 -119t-248 119q-83 112 -83 262v10h57z" />
    <glyph glyph-name="uni0A15_uni0A3C" horiz-adv-x="1414" 
d="M708 699q-110 87 -238.5 87t-202.5 -77.5t-74 -187t66.5 -187t171.5 -91.5q12 -1 24 -1q83 0 187 62q31 18 55 43q79 71 160 205q-73 73 -110 109t-39 38zM1186 1048q-10 -85 -36 -182q-48 -184 -142 -320q19 -40 76 -175q85 -202 135 -371h-138q-28 67 -62 170
q-54 161 -92 257q-90 -153 -197 -220q-149 -94 -278 -94q-184 0 -299 146q-90 115 -90 258q0 182 130 298q118 102 284 102q12 0 25 -1q213 -11 427 -249q41 65 77.5 185.5t47.5 186t13 140.5h-1084v134h1445v-134h-230zM153.5 88.5q8.5 -19.5 8.5 -42.5t-8.5 -43t-22.5 -34
q-32 -32 -65.5 -32t-53.5 8.5q-21 9.5 -35 23.5q-32 32 -31.5 66t9 53.5t22.5 33.5q52 32 65 32h2q34 0 53 -9t33.5 -23t23 -33.5z" />
    <glyph glyph-name="uni0A18_uni0A3C" horiz-adv-x="1541" 
d="M785.5 59.5q8.5 -19.5 8.5 -42.5t-8.5 -43t-22.5 -34q-32 -32 -65.5 -32t-53.5 8.5q-21 9.5 -35 23.5q-32 32 -31.5 66t9 53.5t22.5 33.5q52 32 65 32h2q34 0 53 -9t33.5 -23t23 -33.5zM1284 0h-132v289q-71 -65 -193 -69h-6q-119 0 -248 135q-80 -75 -138.5 -108.5
t-137.5 -33.5q-165 1 -331 207q-31 38 -41 69q10 19 106 278q52 145 52 243q0 153 -127 169h-103v134h170q40 0 89 -44q103 -93 103 -239v-18q-4 -99 -148 -517q152 -150 230 -150q121 0 178 104q46 82 46 202t-21 202t-21 135t37.5 146t89.5 93q42 0 70.5 -93t28.5 -143
t-11 -90q-55 -165 -55 -292q0 -256 199 -256q82 0 117 21q48 23 65 93v846h412v-134h-280v-1179z" />
    <glyph glyph-name="uni0A19_uni0A3C" horiz-adv-x="1337" 
d="M738 345q-155 155 -309.5 155t-173.5 -119q-2 -9 -2 -26q0 -73 70 -107q63 -30 146 -29h20q138 9 249 126zM272 938h506q192 0 274 -114q65 -90 65 -166q0 -178 -195 -334q113 -105 200 -324h-140q-73 149 -154 253q-177 -161 -336 -166h-19q-146 0 -241 64
q-107 80 -107 204q-1 130 73 200q72 67 211 75q14 1 27 1q124 0 231 -62q78 -43 182 -151l89 108q44 55 44 128.5t-66 116.5q-50 36 -188 36h-588v372h-159v134h1384v-134h-1093v-241zM805.5 -36.5q8.5 -19.5 8.5 -42.5t-8.5 -43t-22.5 -34q-32 -32 -65.5 -32t-53.5 8.5
q-21 9.5 -35 23.5q-32 32 -31.5 66t9 53.5t22.5 33.5q52 32 65 32h2q34 0 53 -9t33.5 -23t23 -33.5z" />
    <glyph glyph-name="uni0A1A_uni0A3C" horiz-adv-x="1403" 
d="M355 613q2 -96 7.5 -136t22.5 -98q85 -245 292 -245h36q119 0 196 50q93 59 93 171v258h-647zM1135 366q0 -132 -87 -232q-115 -134 -327 -134h-31q-13 0 -29 2q-293 23 -402 335q-28 80 -35 276h-117q-72 0 -72 83.5t55 138.5q79 83 192 83q73 0 73 -61v-112h647v434
h-1015v134h1446v-134h-298v-813zM216.5 151.5q8.5 -19.5 8.5 -42.5t-8.5 -43t-22.5 -34q-32 -32 -65.5 -32t-53.5 8.5q-21 9.5 -35 23.5q-32 32 -31.5 66t9 53.5t22.5 33.5q52 32 65 32h2q34 0 53 -9t33.5 -23t23 -33.5z" />
    <glyph glyph-name="uni0A1B_uni0A3C" horiz-adv-x="1343" 
d="M559 366q-191 -4 -245 -15q-99 -25 -99 -98t99 -100q67 -15 245 -19v232zM690 134q180 4 248 19q101 27 101 101t-101 97q-53 11 -248 15v-232zM1098 765h-757q-92 0 -92 -106q0 -26 33 -144q21 -30 75 -30h26q60 15 248 15q337 0 454 -66q86 -49 86 -172q-1 -6 -1 -12
q-4 -133 -85 -183q-110 -67 -464 -67t-461 63q-77 46 -79 192q0 67 30 111q16 19 50 41t29 40q-69 138 -69 235q0 59 26 102q41 68 111 98q34 14 73 15h635v282h-983v134h1393v-134h-278v-414zM170.5 -41.5q8.5 -19.5 8.5 -42.5t-8.5 -43t-22.5 -34q-32 -32 -65.5 -32
t-53.5 8.5q-21 9.5 -35 23.5q-32 32 -31.5 66t9 53.5t22.5 33.5q52 32 65 32h2q34 0 53 -9t33.5 -23t23 -33.5z" />
    <glyph glyph-name="uni0A1D_uni0A3C" horiz-adv-x="1285" 
d="M243 1179q58 -108 119 -162q146 -125 274.5 -125t224.5 122q59 75 90 165h-708zM1083 1179q-33 -131 -90.5 -218t-168.5 -141q77 -27 144 -90q96 -92 96 -213q0 -9 -1 -19q-24 -327 -419 -327q-35 0 -69 4q2 -8 52 -68.5t50 -85.5t-31 -25t-78 32.5t-64 49t-29 27.5
q-89 114 -221 114h-15h-6q-73 0 -73 90q0 46 32 84t77 38t78 -40q71 -86 126 -102q24 -4 165 -4q118 4 192 50q92 56 100 165q1 8 1 15q0 100 -101 175q-83 69 -171 69q-49 0 -236 -50t-191 -50q-31 0 -70 29t-39 44q0 31 98 61q9 2 52 13t124 31q-148 79 -209 171
q-25 41 -77 171h-126v134h1330v-134h-232zM334.5 43.5q8.5 -19.5 8.5 -42.5t-8.5 -43t-22.5 -34q-32 -32 -65.5 -32t-53.5 8.5q-21 9.5 -35 23.5q-32 32 -31.5 66t9 53.5t22.5 33.5q52 32 65 32h2q34 0 53 -9t33.5 -23t23 -33.5z" />
    <glyph glyph-name="uni0A1E_uni0A3C" horiz-adv-x="1317" 
d="M1060 805h-648q-52 0 -111 -34q-69 -35 -69 -87.5t48 -100.5t86 -48h686v-132h-513q30 -104 61 -150q53 -73 136.5 -109.5t157.5 -36.5t147 20l-24 -85q-118 -48 -208 -48q-27 0 -46 6q-171 42 -255 157q-52 75 -96 200q-6 21 -56 39q-83 29 -126 45q-129 82 -129 223
q0 210 284 269q-48 35 -130 127q-31 42 -46 119h-222v134h1355v-134h-282v-374zM339 1179q48 -108 125 -167q105 -79 182 -79h283v246h-590zM292.5 206.5q8.5 -19.5 8.5 -42.5t-8.5 -43t-22.5 -34q-32 -32 -65.5 -32t-53.5 8.5q-21 9.5 -35 23.5q-32 32 -31.5 66t9 53.5
t22.5 33.5q52 32 65 32h2q34 0 53 -9t33.5 -23t23 -33.5z" />
    <glyph glyph-name="uni0A1F_uni0A3C" horiz-adv-x="1321" 
d="M1065 780q-28 2 -60 2q-90 0 -208 -16q-161 -21 -260 -82q-196 -123 -330 -307q36 -46 142 -114q228 -146 379 -146q54 0 112.5 18t141.5 84t101.5 66t18.5 -24q0 -58 -94 -135.5t-164 -104.5t-150 -27q-127 0 -374 129q-55 28 -143.5 103t-109.5 144q14 77 128 197.5
t230 202t265 106.5q4 2 243 36v267h-948v134h1365v-134h-285v-399zM213.5 58.5q8.5 -19.5 8.5 -42.5t-8.5 -43t-22.5 -34q-32 -32 -65.5 -32t-53.5 8.5q-21 9.5 -35 23.5q-32 32 -31.5 66t9 53.5t22.5 33.5q52 32 65 32h2q34 0 53 -9t33.5 -23t23 -33.5z" />
    <glyph glyph-name="uni0A20_uni0A3C" horiz-adv-x="1343" 
d="M713 951q207 -31 342 -169q136 -139 136 -353q0 -211 -157 -321q-158 -112 -388 -112t-376 105q-169 116 -169 323q1 4 1 8q4 214 139.5 352t339.5 167v228h-601v134h1398v-134h-665v-228zM927 188q135 81 135 241q0 165 -126 279q-124 112 -293.5 112t-288 -109
t-122.5 -280q0 -306 410 -306q175 0 285 63zM177.5 54.5q8.5 -19.5 8.5 -42.5t-8.5 -43t-22.5 -34q-32 -32 -65.5 -32t-53.5 8.5q-21 9.5 -35 23.5q-32 32 -31.5 66t9 53.5t22.5 33.5q52 32 65 32h2q34 0 53 -9t33.5 -23t23 -33.5z" />
    <glyph glyph-name="uni0A22_uni0A3C" horiz-adv-x="1348" 
d="M868 117q142 6 142 115q0 21 -2 29q-15 101 -151 101q-33 0 -60 -7q-74 -20 -186 -165q44 -23 74 -39.5q29 -16.5 63 -28.5q22 -8 67 -7q24 0 53 2zM1094 697h-732q0 -174 75 -302q40 -73 96 -138q140 223 339 223q24 0 78 -10t87.5 -34q34.5 -24 58.5 -58
q44 -60 43 -149v-22q-6 -104 -87.5 -162t-202.5 -58q-299 0 -510 300q-107 154 -109 410h-119q-63 0 -63 66q0 90 63 146q96 82 205 82q46 0 46 -31v-132h600v351h-981v134h1384v-134h-271v-482zM243.5 187.5q8.5 -19.5 8.5 -42.5t-8.5 -43t-22.5 -34q-32 -32 -65.5 -32
t-53.5 8.5q-21 9.5 -35 23.5q-32 32 -31.5 66t9 53.5t22.5 33.5q52 32 65 32h2q34 0 53 -9t33.5 -23t23 -33.5z" />
    <glyph glyph-name="uni0A23_uni0A3C" horiz-adv-x="1337" 
d="M949 163q35 12 116 40.5t107 28.5t26 -11q0 -22 -62 -71t-178.5 -99.5t-217.5 -50.5q-217 0 -395 92q-209 109 -268 276q61 142 151 265q129 171 271 171h11q148 -7 259 -96v179q-182 77 -274 123q-131 84 -188 169h-322v134h1382v-134h-884q67 -77 360 -186
q199 -69 303 -90v-123q-149 25 -247 66v-409h-31q-66 119 -143 163q-135 75 -212 75q-149 0 -294 -307q74 -109 243 -186q134 -57 270 -63h3q43 0 214 44zM213.5 52.5q8.5 -19.5 8.5 -42.5t-8.5 -43t-22.5 -34q-32 -32 -65.5 -32t-53.5 8.5q-21 9.5 -35 23.5
q-32 32 -31.5 66t9 53.5t22.5 33.5q52 32 65 32h2q34 0 53 -9t33.5 -23t23 -33.5z" />
    <glyph glyph-name="uni0A24_uni0A3C" horiz-adv-x="1321" 
d="M1039 931q-64 -136 -184 -234q95 -53 147 -103q98 -99 98 -249t-102.5 -244.5t-269.5 -94.5q-109 0 -219 34.5t-198 68.5q-208 84 -208 125q0 25 43.5 25q43.5 1 154.5 -39q173 -62 231 -72q110 -19 183 -19q252 0 252 229q0 11 -1 23q-6 136 -146 202q-103 48 -261 48
q-103 0 -169 -14.5t-89 -14.5q-157 0 -157 108q0 97 128 97q63 0 176 -28t175 -28q168 0 262 167q46 79 85 261h-983v134h1358v-134h-243q-21 -160 -63 -248zM201.5 30.5q8.5 -19.5 8.5 -42.5t-8.5 -43t-22.5 -34q-32 -32 -65.5 -32t-53.5 8.5q-21 9.5 -35 23.5
q-32 32 -31.5 66t9 53.5t22.5 33.5q52 32 65 32h2q34 0 53 -9t33.5 -23t23 -33.5z" />
    <glyph glyph-name="uni0A25_uni0A3C" horiz-adv-x="1315" 
d="M556 299q149 0 364 124v274h-615q-12 -49 -27 -107l-33 -126q127 -165 311 -165zM920 1179h-604q13 -74 22 -159q3 -27 3 -56q0 -63 -13 -136h592v351zM920 291q-182 -126 -385.5 -126t-436.5 264q57 139 103 443q7 39 7 89q0 92 -24 218h-197v134h1345v-134h-280v-1179
h-132v291zM223.5 123.5q8.5 -19.5 8.5 -42.5t-8.5 -43t-22.5 -34q-32 -32 -65.5 -32t-53.5 8.5q-21 9.5 -35 23.5q-32 32 -31.5 66t9 53.5t22.5 33.5q52 32 65 32h2q34 0 53 -9t33.5 -23t23 -33.5z" />
    <glyph glyph-name="uni0A26_uni0A3C" horiz-adv-x="1359" 
d="M1109 600h-724q0 -209 64 -320q92 -157 322 -157q84 0 213 49t144.5 49t15.5 -12q0 -49 -110 -129t-267 -80q-338 0 -453 241q-59 125 -59 357h-146q-46 0 -46 53q-1 67 55 153q31 47 116 93q67 30 103 30q46 0 46 -44v-151h596v447h-996v134h1403v-134h-277v-579z
M215.5 162.5q8.5 -19.5 8.5 -42.5t-8.5 -43t-22.5 -34q-32 -32 -65.5 -32t-53.5 8.5q-21 9.5 -35 23.5q-32 32 -31.5 66t9 53.5t22.5 33.5q52 32 65 32h2q34 0 53 -9t33.5 -23t23 -33.5z" />
    <glyph glyph-name="uni0A27_uni0A3C" horiz-adv-x="1304" 
d="M322 1179q17 -102 17 -202q0 -61 -6 -120q-14 -112 -88 -347q127 -165 311 -165q141 0 353 122v712h-587zM1041 0h-132v335q-184 -124 -381 -124t-430 264q70 174 103 397q9 55 9 115q0 90 -20 192h-211v134h1349v-134h-287v-1179zM228.5 135.5q8.5 -19.5 8.5 -42.5
t-8.5 -43t-22.5 -34q-32 -32 -65.5 -32t-53.5 8.5q-21 9.5 -35 23.5q-32 32 -31.5 66t9 53.5t22.5 33.5q52 32 65 32h2q34 0 53 -9t33.5 -23t23 -33.5z" />
    <glyph glyph-name="uni0A28_uni0A3C" horiz-adv-x="1291" 
d="M221 410q0 -109 37 -169.5t135 -111.5v-133q-154 67 -215 136q-88 96 -88 274t136 312q136 135 309 152v309h-560v134h1342v-134h-650v-309q174 -17 311 -152q137 -134 137 -312t-87 -274q-62 -69 -215 -136v133q99 51 135 111.5t36 169.5q0 138 -120 238t-260 99
q-142 1 -262 -99t-121 -238zM174.5 22.5q8.5 -19.5 8.5 -42.5t-8.5 -43t-22.5 -34q-32 -32 -65.5 -32t-53.5 8.5q-21 9.5 -35 23.5q-32 32 -31.5 66t9 53.5t22.5 33.5q52 32 65 32h2q34 0 53 -9t33.5 -23t23 -33.5z" />
    <glyph glyph-name="uni0A2A_uni0A3C" horiz-adv-x="1343" 
d="M1076 1179v-1179h-131v360q-50 -44 -149 -90t-191 -51h-14q-205 0 -357 112q-102 77 -123 136q-3 36 72.5 229t81.5 245q2 10 2 36q0 83 -39.5 142.5t-122.5 59.5h-123v134h200q96 0 157.5 -109.5t61.5 -212.5q0 -26 -4 -58q-44 -262 -156 -435q49 -42 108 -77
q118 -68 220 -72h9q158 0 367 144v820h419v-134h-288zM199.5 160.5q8.5 -19.5 8.5 -42.5t-8.5 -43t-22.5 -34q-32 -32 -65.5 -32t-53.5 8.5q-21 9.5 -35 23.5q-32 32 -31.5 66t9 53.5t22.5 33.5q52 32 65 32h2q34 0 53 -9t33.5 -23t23 -33.5z" />
    <glyph glyph-name="uni0A2C_uni0A3C" horiz-adv-x="1282" 
d="M533 657q-117 -52 -312 -280q174 -151 335 -151q99 0 210.5 61.5t130.5 105.5v264h-364zM265 1179q32 -129 97 -212.5t194 -177.5h341v390h-632zM1030 0h-133v241q-65 -85 -299 -141q-40 -10 -61 -8q-211 17 -344 138q-80 69 -112 155q68 146 256 290l81 61
q-41 35 -68.5 57t-48.5 43q-139 139 -169 343h-151v134h1323v-134h-274v-1179zM205.5 117.5q8.5 -19.5 8.5 -42.5t-8.5 -43t-22.5 -34q-32 -32 -65.5 -32t-53.5 8.5q-21 9.5 -35 23.5q-32 32 -31.5 66t9 53.5t22.5 33.5q52 32 65 32h2q34 0 53 -9t33.5 -23t23 -33.5z" />
    <glyph glyph-name="uni0A2D_uni0A3C" horiz-adv-x="1277" 
d="M213 653q15 -99 149 -99q33 0 83 7q111 18 258 154q-128 122 -274 122q-218 0 -218 -151q0 -25 2 -33zM793 621q-96 -90 -162 -127.5t-148 -55t-119 -17.5q-104 -1 -188 63q-96 73 -97 187v19q0 147 116 219q94 59 250 59q191 0 339 -151q88 95 121 182.5t33 179.5h-957
v134h1318v-134h-230q1 -10 1 -21q0 -88 -38 -200q-42 -126 -156 -237q84 -96 92 -114q57 -90 57 -197q0 -209 -151 -320q-128 -91 -320 -91q-17 0 -35 1q-132 6 -278.5 73t-146.5 109q0 31 36.5 31q35.5 0 87.5 -19q94 -35 165 -48.5t204.5 -13.5t215.5 81.5t82 201.5
t-92 206zM198.5 -6.5q8.5 -19.5 8.5 -42.5t-8.5 -43t-22.5 -34q-32 -32 -65.5 -32t-53.5 8.5q-21 9.5 -35 23.5q-32 32 -31.5 66t9 53.5t22.5 33.5q52 32 65 32h2q34 0 53 -9t33.5 -23t23 -33.5z" />
    <glyph glyph-name="uni0A2E_uni0A3C" horiz-adv-x="1354" 
d="M1096 0h-132v575h-571q-31 -249 -56 -334q-46 -176 -140 -176q-109 0 -109 117q0 50 23 109q43 83 119 265q46 115 46 294.5t-15 240.5q-20 88 -88 88h-188v134h212q160 0 204 -244q11 -60 11 -133q0 -17 -1 -35q-3 -94 -5 -196h558v608h415v-134h-283v-1179z
M732.5 271.5q8.5 -19.5 8.5 -42.5t-8.5 -43t-22.5 -34q-32 -32 -65.5 -32t-53.5 8.5q-21 9.5 -35 23.5q-32 32 -31.5 66t9 53.5t22.5 33.5q52 32 65 32h2q34 0 53 -9t33.5 -23t23 -33.5z" />
    <glyph glyph-name="uni0A2F_uni0A3C" horiz-adv-x="1508" 
d="M316 1179q23 -152 23 -216t-14 -172.5t-101 -336.5q81 -96 148 -138q134 -86 209 -86q111 0 111 186v7l-2 292h439v464h-813zM188 791q21 114 21 171.5t-25 216.5h-197v134h1547v-134h-276v-1179h-129v583h-305v-215q0 -119 -67 -190t-184 -71t-278 102t-214 207
q53 167 107 375zM211.5 99.5q8.5 -19.5 8.5 -42.5t-8.5 -43t-22.5 -34q-32 -32 -65.5 -32t-53.5 8.5q-21 9.5 -35 23.5q-32 32 -31.5 66t9 53.5t22.5 33.5q52 32 65 32h2q34 0 53 -9t33.5 -23t23 -33.5z" />
    <glyph glyph-name="uni0A30_uni0A3C" horiz-adv-x="1268" 
d="M418 736q-155 0 -155 -83q0 -124 184 -325q189 -201 309 -201q66 -1 100 53t33 123v433h-471zM1021 337q0 -142 -55 -230q-68 -109 -216 -109t-311 148t-253 321q-48 94 -48 181q0 220 265 220h486v311h-902v134h1308v-134h-274v-842zM226.5 165.5q8.5 -19.5 8.5 -42.5
t-8.5 -43t-22.5 -34q-32 -32 -65.5 -32t-53.5 8.5q-21 9.5 -35 23.5q-32 32 -31.5 66t9 53.5t22.5 33.5q52 32 65 32h2q34 0 53 -9t33.5 -23t23 -33.5z" />
    <glyph glyph-name="uni0A35_uni0A3C" horiz-adv-x="1291" 
d="M1035 805h-665q-65 0 -115 -29q-67 -33 -67 -85.5t44 -103.5q46 -48 92 -48h684v-131h-513q26 -132 111.5 -209.5t217.5 -77.5q60 0 175 23l-26 -102q-118 -48 -208 -48q-20 0 -46 6q-261 65 -355 362q-11 33 -94.5 63.5t-120.5 61.5q-74 63 -90 180q-2 10 -2 27
q0 90 85.5 164.5t212.5 74.5h550v246h-920v134h1330v-134h-280v-374zM233.5 181.5q8.5 -19.5 8.5 -42.5t-8.5 -43t-22.5 -34q-32 -32 -65.5 -32t-53.5 8.5q-21 9.5 -35 23.5q-32 32 -31.5 66t9 53.5t22.5 33.5q52 32 65 32h2q34 0 53 -9t33.5 -23t23 -33.5z" />
    <glyph glyph-name="uni0A38_uni0A3C" horiz-adv-x="1376" 
d="M355 1179q74 -236 74 -478h555v478h-629zM1117 0h-133v567h-555q-11 -44 -29.5 -125.5t-46.5 -200.5q-39 -178 -129 -178q-29 0 -57 16q-62 34 -62 95.5q-1 61.5 41 149.5q88 186 95 205q48 117 53 221q1 22 1 43q0 77 -14 135q-18 74 -30 127.5t-30 123.5h-236v134h1409
v-134h-277v-1179zM714 214q32 -30 38 -74q1 -6 0 -11q0 -37 -26 -67q-30 -34 -73 -38q-6 -1 -12 -1q-37 0 -67 27q-35 31 -39 75v10q-1 37 27 67q32 34 76 38q6 1 11 1q37 0 65 -27z" />
    <glyph glyph-name="uni0A39_uni0A3C" horiz-adv-x="1266" 
d="M1008 333q0 -149 -82.5 -241t-228.5 -92q-107 0 -233 65q-115 64 -199 156q-154 174 -154 348q0 88 74 165t194 77h101v-132h-83q-154 0 -154 -120v-11q6 -111 136 -253q154 -163 309 -163q190 0 190 196v851h-899v134h1308v-134h-279v-846zM223.5 105.5
q8.5 -19.5 8.5 -42.5t-8.5 -43t-22.5 -34q-32 -32 -65.5 -32t-53.5 8.5q-21 9.5 -35 23.5q-32 32 -31.5 66t9 53.5t22.5 33.5q52 32 65 32h2q34 0 53 -9t33.5 -23t23 -33.5z" />
    <glyph glyph-name="uni0A05_uni0A3C" horiz-adv-x="1766" 
d="M245 820q0 359 -144 359h-116v134h190q53 0 104.5 -77t72 -160t27.5 -235q22 18 43 39t45 44l81 90q192 198 278 198q9 0 17 -5q108 -46 163 -218q42 -132 52 -276q46 32 140 94q16 6 60 24t120 47v435h408v-134h-274v-1179h-134v740l-159 -67q-69 -35 -159 -129
q-41 -42 -55 -97.5t-24.5 -92t-20.5 -84.5q-38 -143 -145 -143q-31 0 -56 9q-71 19 -71 83q0 44 40 120q15 27 127 163q69 83 69 192q0 103 -35.5 219.5t-68.5 149.5q-141 -83 -287 -256q-102 -123 -121 -150q-42 -59 -60.5 -161.5t-55.5 -145.5t-93 -43t-90 29.5t-34 67
t8.5 60.5t25 51.5t42 65.5t58 89.5t32.5 149.5zM520.5 178.5q8.5 -19.5 8.5 -42.5t-8.5 -43t-22.5 -34q-32 -32 -65.5 -32t-53.5 8.5q-21 9.5 -35 23.5q-32 32 -31.5 66t9 53.5t22.5 33.5q52 32 65 32h2q34 0 53 -9t33.5 -23t23 -33.5z" />
    <glyph glyph-name="uni0A06_uni0A3C" horiz-adv-x="2297" 
d="M534.5 153.5q8.5 -19.5 8.5 -42.5t-8.5 -43t-22.5 -34q-32 -32 -65.5 -32t-53.5 8.5q-21 9.5 -35 23.5q-32 32 -31.5 66t9 53.5t22.5 33.5q52 32 65 32h2q34 0 53 -9t33.5 -23t23 -33.5zM245 820q0 359 -144 359h-116v134h190q53 0 104.5 -77t72 -160t27.5 -235
q22 18 43 39t45 44l81 90q192 198 278 198q9 0 17 -5q108 -46 163 -218q42 -132 52 -276q46 32 140 94q16 6 60 24t120 47v435h408v-134h-274v-1179h-134v740l-159 -67q-69 -35 -159 -129q-41 -42 -55 -97.5t-24.5 -92t-20.5 -84.5q-38 -143 -145 -143q-31 0 -56 9
q-71 19 -71 83q0 44 40 120q15 27 127 163q69 83 69 192q0 103 -35.5 219.5t-68.5 149.5q-141 -83 -287 -256q-102 -123 -121 -150q-42 -59 -60.5 -161.5t-55.5 -145.5t-93 -43t-90 29.5t-34 67t8.5 60.5t25 51.5t42 65.5t58 89.5t32.5 149.5zM1992 513h-131v666h-105v134
h560v-134h-324v-666z" />
    <glyph glyph-name="uni0A07_uni0A3C" horiz-adv-x="1889" 
d="M630.5 131.5q8.5 -19.5 8.5 -42.5t-8.5 -43t-22.5 -34q-32 -32 -65.5 -32t-53.5 8.5q-21 9.5 -35 23.5q-32 32 -31.5 66t9 53.5t22.5 33.5q52 32 65 32h2q34 0 53 -9t33.5 -23t23 -33.5zM261 0h-132v1179h-166v134h166v118q0 212 77 333q92 147 345 147q96 0 181 -51.5
q84 -51.5 120 -147.5q31 -84 32 -174q0 -13 -1 -26h-129q-2 33 -13 100q-29 174 -228 174q-175 0 -228 -169q-24 -81 -24 -262v-42h277v-134h-277v-1179zM815 1179q58 -206 202 -309q55 -40 141 -57h348v366h-691zM1587 682l-147 4h-44q-188 -4 -281 -29.5t-204 -106.5
t-155 -159q21 -38 121 -113q76 -52 130 -83q158 -84 279 -84h16q81 2 140 42t114 96t68 56t13 -25q0 -65 -94 -166t-206 -112h-15q-59 0 -154 13q-161 31 -280 98q-222 136 -274 272q25 95 151 209q131 113 194 149q-60 52 -172 181q-83 127 -102 255h-184v134h1411v-134
h-277v-497h-48z" />
    <glyph glyph-name="uni0A08_uni0A3C" horiz-adv-x="1907" 
d="M232.5 55.5q8.5 -19.5 8.5 -42.5t-8.5 -43t-22.5 -34q-32 -32 -65.5 -32t-53.5 8.5q-21 9.5 -35 23.5q-32 32 -31.5 66t9 53.5t22.5 33.5q52 32 65 32h2q34 0 53 -9t33.5 -23t23 -33.5zM293 1179q58 -206 202 -309q55 -40 141 -57h348v366h-691zM1065 682l-147 4h-44
q-188 -4 -281 -29.5t-204 -106.5t-155 -159q21 -38 121 -113q76 -52 130 -83q158 -84 279 -84h16q81 2 140 42t114 96t68 56t13 -25q0 -65 -94 -166t-206 -112h-15q-59 0 -154 13q-161 31 -280 98q-222 136 -274 272q25 95 151 209q131 113 194 149q-60 52 -172 181
q-83 127 -102 255h-184v134h1411v-134h-277v-497h-48zM1367 1179v134h98v29q0 191 -25 275q-50 169 -227 169q-199 0 -228 -174q-4 -14 -13 -100h-130v19q0 96 36 192q27 85 114 136.5t183 51.5q257 0 345 -147q77 -121 77 -333v-118h338v-134h-338v-1179h-132v1179h-98z
" />
    <glyph glyph-name="uni0A09_uni0A3C" horiz-adv-x="1486" 
d="M294.5 89.5q8.5 -19.5 8.5 -42.5t-8.5 -43t-22.5 -34q-32 -32 -65.5 -32t-53.5 8.5q-21 9.5 -35 23.5q-32 32 -31.5 66t9 53.5t22.5 33.5q52 32 65 32h2q34 0 53 -9t33.5 -23t23 -33.5zM791 631q-17 0 -40 -3q-77 -10 -435 -10q39 -143 98 -246q145 -240 383 -240h14
q111 4 187 60q68 50 68 136q0 10 -1 22q-9 102 -105 198q-88 83 -169 83zM278 1179q0 -254 17 -430h249q217 2 282 27q140 48 211 131q78 97 144 272h-903zM147 1313q0 276 155.5 424.5t435 148.5t426.5 -147.5t147 -425.5h203v-134h-201q-57 -184 -123 -278
q-83 -127 -232 -200q238 -141 238 -356q0 -144 -85 -236q-99 -109 -291 -109q-314 0 -489 247q-145 209 -174 544q-11 141 -11 289q0 49 1 99h-162v134h162zM1115 1587q-103 168 -375.5 168t-388.5 -168q-73 -110 -73 -274h901q-8 186 -64 274zM1157 -304q-206 -78 -376 -82
h-15q-164 0 -359 82v133q206 -83 382 -83t368 81v-131z" />
    <glyph glyph-name="uni0A0A_uni0A3C" horiz-adv-x="1486" 
d="M250.5 89.5q8.5 -19.5 8.5 -42.5t-8.5 -43t-22.5 -34q-32 -32 -65.5 -32t-53.5 8.5q-21 9.5 -35 23.5q-32 32 -31.5 66t9 53.5t22.5 33.5q52 32 65 32h2q34 0 53 -9t33.5 -23t23 -33.5zM791 631q-17 0 -40 -3q-77 -10 -435 -10q39 -143 98 -246q145 -240 383 -240h14
q111 4 187 60q68 50 68 136q0 10 -1 22q-9 102 -105 198q-88 83 -169 83zM278 1179q0 -254 17 -430h249q217 2 282 27q140 48 211 131q78 97 144 272h-903zM147 1313q0 276 155.5 424.5t435 148.5t426.5 -147.5t147 -425.5h203v-134h-201q-57 -184 -123 -278
q-83 -127 -232 -200q238 -141 238 -356q0 -144 -85 -236q-99 -109 -291 -109q-314 0 -489 247q-145 209 -174 544q-11 141 -11 289q0 49 1 99h-162v134h162zM1115 1587q-103 168 -375.5 168t-388.5 -168q-73 -110 -73 -274h901q-8 186 -64 274zM1141 -610q-209 -77 -378 -81
h-14q-163 0 -358 81v133q206 -82 382 -82t368 80v-131zM1141 -303q-206 -78 -376 -82h-15q-164 0 -359 82v133q206 -83 382 -83t368 81v-131z" />
    <glyph glyph-name="uni0A0F_uni0A3C" horiz-adv-x="1365" 
d="M260.5 56.5q8.5 -19.5 8.5 -42.5t-8.5 -43t-22.5 -34q-32 -32 -65.5 -32t-53.5 8.5q-21 9.5 -35 23.5q-32 32 -31.5 66t9 53.5t22.5 33.5q52 32 65 32h2q34 0 53 -9t33.5 -23t23 -33.5zM293 1179q58 -206 202 -309q55 -40 141 -57h348v366h-691zM1065 682l-147 4h-44
q-188 -4 -281 -29.5t-204 -106.5t-155 -159q21 -38 121 -113q76 -52 130 -83q158 -84 279 -84h16q81 2 140 42t114 96t68 56t13 -25q0 -65 -94 -166t-206 -112h-15q-59 0 -154 13q-161 31 -280 98q-222 136 -274 272q25 95 151 209q131 113 194 149q-60 52 -172 181
q-83 127 -102 255h-184v134h1411v-134h-277v-497h-48zM785 1737q59 -42 172.5 -192.5t113.5 -208.5q0 -8 -4 -8q-11 0 -51 51q-147 190 -325 297q-109 63 -344 74q-30 27 -30 66q0 79 94 79q19 0 30 -2q174 -20 344 -156z" />
    <glyph glyph-name="uni0A10_uni0A3C" horiz-adv-x="1756" 
d="M554.5 166.5q8.5 -19.5 8.5 -42.5t-8.5 -43t-22.5 -34q-32 -32 -65.5 -32t-53.5 8.5q-21 9.5 -35 23.5q-32 32 -31.5 66t9 53.5t22.5 33.5q52 32 65 32h2q34 0 53 -9t33.5 -23t23 -33.5zM245 820q0 359 -144 359h-116v134h190q53 0 104.5 -77t72 -160t27.5 -235
q22 18 43 39t45 44l81 90q192 198 278 198q9 0 17 -5q108 -46 163 -218q42 -132 52 -276q46 32 140 94q16 6 60 24t120 47v435h408v-134h-274v-1179h-134v740l-159 -67q-69 -35 -159 -129q-41 -42 -55 -97.5t-24.5 -92t-20.5 -84.5q-38 -143 -145 -143q-31 0 -56 9
q-71 19 -71 83q0 44 40 120q15 27 127 163q69 83 69 192q0 103 -35.5 219.5t-68.5 149.5q-141 -83 -287 -256q-102 -123 -121 -150q-42 -59 -60.5 -161.5t-55.5 -145.5t-93 -43t-90 29.5t-34 67t8.5 60.5t25 51.5t42 65.5t58 89.5t32.5 149.5zM1456 1337q-34 16 -215.5 108
q-181.5 91 -259.5 109q-62 14 -113 14h-25q-59 -4 -77 -5h-33q-120 0 -120 59q0 60 116 74q25 3 51 3q148 0 336 -100q82 -44 148 -92.5t111 -79.5v3q0 22 -60 105q-66 90 -167 180q-170 151 -331 151h-18q-46 -4 -77 -4t-47 4q-40 6 -40 54q0 57 94 77q25 7 67 7
q260 0 491 -318q82 -116 130 -226q40 -91 41 -115q0 -6 -2 -8z" />
    </font>
</defs>
</svg>
